<svg width="120" height="122" viewBox="0 0 120 122" fill="none" xmlns="http://www.w3.org/2000/svg">
<path d="M55.1711 0.938477C25.0419 0.938477 0.938477 25.0419 0.938477 55.1908C0.938477 67.8332 5.15263 80.4954 13.5809 90.1249C5.7434 94.9496 1.52925 100.975 0.938477 108.202V109.423L55.1711 121.475L64.5446 119.388V116.04C62.5951 113.539 61.5514 110.428 61.5514 107.08C61.5711 105.78 61.7286 104.5 62.0831 103.26C61.5514 102.551 61.1576 101.704 60.9803 100.798L60.1926 96.9779C59.7988 95.1071 60.2714 93.1772 61.4923 91.6806C62.6739 90.2234 64.4659 89.3766 66.376 89.3766H68.4437C70.1372 85.7533 71.9292 83.3902 73.9772 82.0511C80.5742 77.6991 94.28 76.7736 103.929 79.2351C107.592 71.7914 109.404 63.4812 109.404 55.1908C109.404 25.0419 85.3003 0.938477 55.1711 0.938477ZM25.0419 46.1323C25.0419 41.3274 30.4572 37.0936 37.0936 37.0936C43.7299 37.0936 49.1452 41.3274 49.1452 46.1323C49.1452 50.9372 43.7102 55.1908 37.0936 55.1908C30.4769 55.1908 25.0419 50.9569 25.0419 46.1323ZM55.1711 85.32C46.7231 85.32 40.1065 81.0862 40.1065 76.2812C40.1065 71.4763 46.7231 67.2425 55.1711 67.2425C63.6191 67.2425 70.2357 71.4566 70.2357 76.2812C70.2357 81.1059 63.5994 85.32 55.1711 85.32ZM73.2486 55.1908C66.6123 55.1908 61.1969 50.9569 61.1969 46.1323C61.1969 41.3077 66.6123 37.0936 73.2486 37.0936C79.8849 37.0936 85.3003 41.3274 85.3003 46.1323C85.3003 50.9372 79.8849 55.1908 73.2486 55.1908Z" fill="white"/>
<path d="M119.388 94.8116C119.112 94.4965 118.718 94.2996 118.305 94.2996H112.988C112.81 93.8664 112.653 93.4332 112.476 92.9999C112.298 92.5667 112.102 92.1532 111.924 91.7396C110.802 89.2584 109.463 87.1119 108.006 86.147C106.371 85.0836 104.087 84.2565 101.468 83.7249C93.2757 81.9722 81.7754 82.7796 76.6751 86.147C76.3206 86.3833 75.9661 86.6984 75.6117 87.0922C75.2769 87.4664 74.9225 87.8996 74.6074 88.3919C74.4892 88.5495 74.3711 88.707 74.2726 88.8842C73.3274 90.4202 72.4609 92.3501 71.7126 94.2996H66.376C65.9625 94.2996 65.5686 94.4965 65.2929 94.8116C65.0369 95.1464 64.9188 95.5796 65.0172 95.9932L65.8049 99.8135C65.9428 100.463 66.5138 100.916 67.1637 100.916H68.7588C67.2228 102.689 66.4941 104.894 66.4745 107.1C66.4745 109.837 67.4984 112.318 69.4086 114.071C69.4283 114.071 69.448 114.071 69.4677 114.11V119.466C69.4677 120.609 70.4129 121.554 71.5748 121.554H76.4781C77.64 121.554 78.5852 120.609 78.5852 119.466V117.3H106.095V119.466C106.095 120.609 107.041 121.554 108.202 121.554H113.126C114.268 121.554 115.213 120.609 115.213 119.466V114.209C117.241 112.377 118.186 109.837 118.206 107.297C118.226 105.012 117.438 102.708 115.823 100.916H117.517C118.186 100.916 118.758 100.463 118.895 99.7938L119.683 95.9735C119.762 95.5796 119.683 95.1464 119.388 94.8116ZM78.9988 89.6719C82.7994 87.1513 91.976 86.4227 98.888 87.4861C101.704 87.9193 104.146 88.6479 105.702 89.6719C105.761 89.7113 105.82 89.7507 105.879 89.8295C105.938 89.8689 106.017 89.9279 106.076 90.0264C106.292 90.2233 106.509 90.5187 106.745 90.8732C107.553 92.1335 108.458 94.1815 109.305 96.5052H75.3754C76.616 93.1181 77.9551 90.3415 78.9988 89.6719ZM76.8326 103.496C79.1169 103.496 80.968 105.347 80.968 107.631C80.968 109.916 79.1169 111.767 76.8326 111.767C74.5483 111.767 72.6972 109.916 72.6972 107.631C72.6972 105.347 74.5483 103.496 76.8326 103.496ZM107.907 111.767C106.706 111.767 105.603 111.255 104.855 110.428C104.166 109.699 103.772 108.714 103.772 107.631C103.772 105.347 105.623 103.496 107.907 103.496C108.065 103.496 108.202 103.496 108.36 103.516C110.428 103.752 112.042 105.505 112.042 107.631C112.042 109.916 110.191 111.767 107.907 111.767Z" fill="white"/>
</svg>
