<svg width="32" height="31" viewBox="0 0 32 31" fill="none" xmlns="http://www.w3.org/2000/svg">
<path d="M16.0009 30.9803C24.5371 30.9803 31.5 24.0262 31.5 15.499C31.5 6.97178 24.5371 0.0195312 16.0009 0.0195312C7.46481 0.0195312 0.5 6.97366 0.5 15.499C0.5 24.0243 7.46294 30.9803 16.0009 30.9803Z" fill="#5D416D"/>
<path d="M16.0009 0.0195312C7.46294 0.0195312 0.5 6.97366 0.5 15.499C0.5 24.0243 7.46294 30.9803 16.0009 30.9803C24.5389 30.9803 31.5 24.0262 31.5 15.499C31.5 6.97178 24.537 0.0195312 16.0009 0.0195312ZM16.0009 27.3172C9.48294 27.3172 4.16762 22.0087 4.16762 15.4989C4.16762 8.98916 9.48294 3.68059 16.0009 3.68059C22.5189 3.68059 27.8342 8.99103 27.8342 15.4989C27.8342 22.0068 22.5171 27.3172 16.0009 27.3172Z" fill="#D68FFF"/>
<path d="M5.0498 4.54194L7.64068 7.1295C9.78424 4.98862 12.7424 3.66112 16.0012 3.66112V0C11.7327 0 7.85774 1.73819 5.0498 4.54194Z" fill="#A752D8"/>
<path d="M26.9524 26.4169L24.3615 23.8293C22.2177 25.9704 19.2592 27.2977 16.001 27.2977V30.9607C20.2694 30.9607 24.1445 29.2218 26.9523 26.417L26.9524 26.4169Z" fill="#A752D8"/>
<path d="M26.9507 4.54272L24.3604 7.12985C26.5042 9.27091 27.8334 12.2255 27.8334 15.4794H31.4992C31.4992 11.2168 29.7585 7.34691 26.9507 4.54272Z" fill="#A752D8"/>
<path d="M5.04869 26.4179L7.64 23.8298C5.49644 21.6889 4.16756 18.7344 4.16756 15.4795H0.5C0.5 19.7431 2.24075 23.6134 5.04869 26.4179Z" fill="#A752D8"/>
<path d="M9.69301 13.8364C9.88025 13.737 10.0384 13.5905 10.1518 13.4114C10.263 13.2284 10.3239 13.0193 10.3285 12.8052C10.3216 12.3791 10.3994 11.9558 10.5574 11.56C10.7153 11.1641 10.9502 10.8036 11.2485 10.4992C12.382 9.42026 13.8341 8.73693 15.3879 8.55124C16.9417 8.36556 18.514 8.68746 19.8698 9.4689C21.2256 10.2503 22.2922 11.4494 22.9105 12.887C23.5287 14.3245 23.6654 15.9235 23.3 17.4452C23.257 17.6388 23.1747 17.8214 23.0582 17.9818C22.9416 18.1423 22.7933 18.277 22.6225 18.3777C22.5498 18.4183 22.4819 18.4669 22.42 18.5227L22.14 18.7727C21.9873 18.9109 21.8721 19.0855 21.805 19.2802L21.7635 19.4052C21.6951 19.6273 21.6547 19.8571 21.6433 20.0892C21.6245 20.4432 21.4735 20.7773 21.22 21.0252C20.1494 22.0325 18.7982 22.6911 17.3452 22.9139C15.8921 23.1366 14.4057 22.913 13.0825 22.2727C12.8871 22.1796 12.7155 22.0432 12.5808 21.8738C12.446 21.7044 12.3517 21.5065 12.305 21.2952C12.2637 21.0887 12.1679 20.8971 12.0275 20.7402L11.9245 20.6254C11.6688 20.3407 11.3434 20.1273 10.9803 20.0062L10.79 19.9427C10.7875 19.9427 10.7875 19.9427 10.785 19.9402C10.4085 19.8261 10.0894 19.5732 9.89251 19.2327C9.12058 17.8237 8.83806 16.1985 9.08926 14.6117C9.11602 14.4488 9.1817 14.2949 9.28072 14.1629C9.37974 14.0309 9.50917 13.9247 9.65801 13.8534L9.69301 13.8364Z" fill="#EBC8FF"/>
<path d="M21.83 19.2203C21.8206 19.2398 21.8123 19.2598 21.805 19.2803L21.7625 19.4053C21.6949 19.6271 21.6546 19.8562 21.6425 20.0878C21.6245 20.4423 21.4736 20.777 21.22 21.0253C20.1494 22.0326 18.7982 22.6912 17.3452 22.914C15.8921 23.1367 14.4057 22.9131 13.0825 22.2728C12.8871 22.1797 12.7155 22.0433 12.5808 21.8739C12.4461 21.7045 12.3517 21.5066 12.305 21.2953C12.2637 21.0888 12.1679 20.8972 12.0275 20.7403L11.925 20.6253C11.6687 20.3406 11.3432 20.127 10.98 20.0053L10.79 19.9428C10.7875 19.9428 10.7875 19.9428 10.785 19.9403C10.4085 19.8262 10.0895 19.5733 9.89252 19.2328C9.30463 18.1655 8.99753 16.9663 9.00001 15.7478C8.99946 15.3676 9.02956 14.9881 9.09001 14.6128C9.11667 14.4498 9.18215 14.2957 9.28092 14.1634C9.3797 14.0312 9.50887 13.9246 9.65751 13.8528L9.69251 13.8378C9.88001 13.7371 10.0384 13.5899 10.1525 13.4103C10.2641 13.228 10.3245 13.019 10.3275 12.8053C10.3207 12.3793 10.3985 11.9562 10.5565 11.5606C10.7144 11.1649 10.9493 10.8045 11.2475 10.5003C11.8301 9.94395 12.502 9.48931 13.235 9.15527C12.7103 10.1008 12.4068 11.153 12.3475 12.2328C12.3342 12.6259 12.4709 13.0093 12.73 13.3053C12.73 13.3078 12.73 13.3078 12.7325 13.3103L12.86 13.4653C13.1047 13.7596 13.2676 14.1131 13.3325 14.4903L13.36 14.6428C13.3957 14.8503 13.375 15.0635 13.3 15.2603C13.2274 15.4641 13.2025 15.6819 13.2272 15.8968C13.2519 16.1118 13.3256 16.3182 13.4425 16.5003C14.2239 17.7454 15.3655 18.7236 16.7157 19.3049C18.0659 19.8863 19.561 20.0433 21.0025 19.7553C21.3347 19.6846 21.6292 19.4942 21.83 19.2203Z" fill="#D68FFF"/>
<path d="M12.4608 9.75239L11.8233 9.42264C11.7381 9.37848 11.6439 9.35432 11.548 9.35199C11.452 9.34967 11.3568 9.36924 11.2696 9.40922C11.1824 9.4492 11.1054 9.50855 11.0445 9.58274C10.9836 9.65693 10.9405 9.74402 10.9183 9.83739C10.8896 9.95869 10.8255 10.0687 10.7343 10.1536L10.638 10.2431C10.5227 10.3509 10.4519 10.4978 10.4395 10.6551C10.427 10.8124 10.4739 10.9686 10.5708 11.0931L10.905 11.5226L12.4608 9.75239Z" fill="#EBC8FF"/>
<path d="M10.6965 10.2226C11.0565 10.1092 11.4241 10.0219 11.7965 9.96134C12.0119 9.93355 12.2159 9.84851 12.3873 9.71509L12.4598 9.75259L10.9048 11.5226L10.5698 11.0926C10.4728 10.9681 10.426 10.8118 10.4385 10.6545C10.451 10.4972 10.5219 10.3502 10.6373 10.2426L10.6965 10.2226Z" fill="#D68FFF"/>
<path d="M20.1112 21.3535L20.2757 21.6918C20.3059 21.7537 20.3221 21.8215 20.3232 21.8903C20.3243 21.9592 20.3103 22.0274 20.2822 22.0903C20.254 22.1531 20.2125 22.209 20.1604 22.2541C20.1083 22.2991 20.047 22.3322 19.9807 22.351L19.9745 22.3528C19.8582 22.3856 19.759 22.462 19.6975 22.566C19.6626 22.6251 19.6152 22.6759 19.5586 22.7148C19.502 22.7537 19.4375 22.7797 19.3698 22.791C19.3021 22.8024 19.2327 22.7987 19.1665 22.7804C19.1004 22.7621 19.039 22.7296 18.9867 22.685L18.417 22.1993L20.1112 21.3535Z" fill="#D68FFF"/>
<path d="M14.4981 12.4277L14.7778 12.741C14.9173 12.8972 15.013 13.0876 15.0553 13.2927C15.0975 13.4979 15.0847 13.7106 15.0183 13.9092C14.9245 14.1894 14.7297 14.4247 14.4718 14.569L14.1848 14.7295C14.0404 14.8104 13.8806 14.8601 13.7158 14.8756C13.551 14.8911 13.3848 14.872 13.2278 14.8195L12.9361 14.722C12.74 14.6564 12.5644 14.5408 12.4268 14.3865L12.1768 14.1067C12.0299 13.9422 11.9316 13.7399 11.8932 13.5227C11.8547 13.3054 11.8775 13.0817 11.9591 12.8767L12.0568 12.6307C12.1249 12.4592 12.232 12.3059 12.3696 12.1829C12.5073 12.06 12.6717 11.9708 12.8498 11.9225H12.8521C13.0783 11.8609 13.3177 11.8678 13.5401 11.9422L13.9901 12.0922C14.1856 12.1581 14.3607 12.2737 14.4981 12.4277Z" fill="#D68FFF"/>
<path d="M16.9046 19.0225L17.1464 18.8613C17.3356 18.7352 17.5578 18.668 17.7851 18.668C18.0125 18.668 18.2347 18.7352 18.4239 18.8613L18.4816 18.8998C18.6393 19.005 18.7687 19.1475 18.8581 19.3146C18.9476 19.4818 18.9944 19.6684 18.9944 19.858V19.955C18.9943 20.2118 18.9085 20.4612 18.7504 20.6636C18.5924 20.866 18.3712 21.0097 18.1221 21.072L17.8761 21.1335C17.7205 21.1725 17.5584 21.1785 17.4003 21.1511C17.2422 21.1238 17.0916 21.0636 16.9581 20.9745L16.9046 20.9388C16.6939 20.7989 16.5352 20.5934 16.453 20.3542C16.3708 20.115 16.3698 19.8554 16.4501 19.6155C16.5315 19.3728 16.6914 19.1642 16.9046 19.0225Z" fill="#D68FFF"/>
<path d="M18.7038 13.6116L18.8538 13.5116C18.9712 13.4334 19.1091 13.3916 19.2501 13.3916C19.3911 13.3916 19.529 13.4334 19.6463 13.5116L19.6821 13.5366C19.7797 13.6018 19.8598 13.69 19.9152 13.7935C19.9706 13.8969 19.9997 14.0125 19.9998 14.1298V14.1898C19.9999 14.3491 19.9466 14.5039 19.8486 14.6294C19.7506 14.755 19.6134 14.8442 19.4588 14.8828L19.3063 14.9208C19.2098 14.9451 19.1093 14.9488 19.0113 14.9319C18.9132 14.9149 18.8198 14.8776 18.7371 14.8223L18.7038 14.8001C18.5735 14.7132 18.4753 14.5859 18.4244 14.4377C18.3736 14.2895 18.3728 14.1287 18.4223 13.9801C18.4726 13.8294 18.5716 13.6997 18.7038 13.6116Z" fill="#D68FFF"/>
<path d="M21.9538 16.6116L22.1038 16.5116C22.2212 16.4334 22.3591 16.3916 22.5001 16.3916C22.6411 16.3916 22.779 16.4334 22.8963 16.5116L22.9321 16.5353C23.0299 16.6006 23.1101 16.689 23.1655 16.7928C23.2209 16.8965 23.2499 17.0123 23.2498 17.1298V17.1898C23.2499 17.3491 23.1966 17.5039 23.0986 17.6294C23.0006 17.755 22.8634 17.8442 22.7088 17.8828L22.5563 17.9208C22.4598 17.9451 22.3593 17.9488 22.2613 17.9319C22.1632 17.9149 22.0698 17.8776 21.9871 17.8223L21.9538 17.8001C21.8235 17.7132 21.7253 17.5859 21.6744 17.4377C21.6236 17.2895 21.6228 17.1287 21.6723 16.9801C21.7226 16.8294 21.8216 16.6997 21.9538 16.6116Z" fill="#D68FFF"/>
<path d="M14.9538 15.8616L15.1038 15.7616C15.2212 15.6834 15.3591 15.6416 15.5001 15.6416C15.6411 15.6416 15.779 15.6834 15.8963 15.7616L15.9321 15.7853C16.0299 15.8506 16.1101 15.939 16.1655 16.0428C16.2209 16.1465 16.2499 16.2623 16.2498 16.3798V16.4398C16.2499 16.5991 16.1966 16.7539 16.0986 16.8794C16.0006 17.005 15.8634 17.0942 15.7088 17.1328L15.5563 17.1708C15.4598 17.1951 15.3593 17.1988 15.2613 17.1819C15.1632 17.1649 15.0698 17.1276 14.9871 17.0723L14.9538 17.0501C14.8235 16.9632 14.7253 16.8359 14.6744 16.6877C14.6236 16.5395 14.6228 16.3787 14.6723 16.2301C14.7226 16.0794 14.8216 15.9497 14.9538 15.8616Z" fill="#D68FFF"/>
<path d="M16.4538 10.3616L16.6038 10.2616C16.7212 10.1834 16.8591 10.1416 17.0001 10.1416C17.1411 10.1416 17.279 10.1834 17.3963 10.2616L17.4321 10.2853C17.5299 10.3506 17.6101 10.439 17.6655 10.5428C17.7209 10.6465 17.7499 10.7623 17.7498 10.8798V10.9398C17.7499 11.0991 17.6966 11.2539 17.5986 11.3794C17.5006 11.505 17.3634 11.5942 17.2088 11.6328L17.0563 11.6708C16.9598 11.6951 16.8593 11.6988 16.7613 11.6819C16.6632 11.6649 16.5698 11.6276 16.4871 11.5723L16.4538 11.5501C16.3235 11.4632 16.2253 11.3359 16.1744 11.1877C16.1236 11.0395 16.1228 10.8787 16.1723 10.7301C16.2226 10.5794 16.3216 10.4497 16.4538 10.3616Z" fill="#D68FFF"/>
<path d="M19.5 16.9976C19.7761 16.9976 20 16.7737 20 16.4976C20 16.2214 19.7761 15.9976 19.5 15.9976C19.2239 15.9976 19 16.2214 19 16.4976C19 16.7737 19.2239 16.9976 19.5 16.9976Z" fill="#D68FFF"/>
<path d="M14 20.9976C14.2761 20.9976 14.5 20.7737 14.5 20.4976C14.5 20.2214 14.2761 19.9976 14 19.9976C13.7239 19.9976 13.5 20.2214 13.5 20.4976C13.5 20.7737 13.7239 20.9976 14 20.9976Z" fill="#D68FFF"/>
<path d="M12.75 18.2476C13.0261 18.2476 13.25 18.0237 13.25 17.7476C13.25 17.4714 13.0261 17.2476 12.75 17.2476C12.4739 17.2476 12.25 17.4714 12.25 17.7476C12.25 18.0237 12.4739 18.2476 12.75 18.2476Z" fill="#D68FFF"/>
<path d="M10.9425 17.2801V17.3776C10.9424 17.6344 10.8564 17.8839 10.6984 18.0864C10.5403 18.2888 10.3191 18.4327 10.07 18.4951L9.82246 18.5551C9.74239 18.5757 9.66014 18.5866 9.57746 18.5876C9.27185 17.8708 9.08442 17.1093 9.02246 16.3326L9.09496 16.2851C9.28374 16.158 9.50614 16.0901 9.73371 16.0901C9.96128 16.0901 10.1837 16.158 10.3725 16.2851L10.43 16.3226C10.5877 16.4276 10.7169 16.57 10.8064 16.737C10.8958 16.9041 10.9425 17.0906 10.9425 17.2801Z" fill="#D68FFF"/>
<path d="M23.4895 15.37C23.3171 15.3921 23.1419 15.375 22.977 15.32L22.6845 15.2225C22.4893 15.1564 22.3145 15.041 22.177 14.8875L21.927 14.6075C21.7799 14.4431 21.6815 14.2408 21.6431 14.0235C21.6047 13.8062 21.6277 13.5825 21.7095 13.3775L21.807 13.13C21.875 12.9586 21.9821 12.8055 22.1197 12.6826C22.2572 12.5598 22.4215 12.4708 22.5995 12.4225H22.602C22.627 12.415 22.6495 12.41 22.6745 12.405C23.1575 13.3227 23.4356 14.3344 23.4895 15.37Z" fill="#D68FFF"/>
<path d="M13.3598 14.6426L13.3323 14.4901C13.2674 14.1129 13.1045 13.7594 12.8598 13.4651L12.7323 13.3101C12.7298 13.3076 12.7298 13.3076 12.7298 13.3051C12.4707 13.0092 12.3339 12.6257 12.3473 12.2326C12.3473 12.2229 12.3488 12.2131 12.3498 12.2034C12.2218 12.3225 12.1217 12.4685 12.0568 12.6309L11.9591 12.8769C11.8775 13.0819 11.8547 13.3056 11.8932 13.5228C11.9316 13.7401 12.0299 13.9423 12.1768 14.1069L12.4268 14.3866C12.5644 14.5411 12.7399 14.6569 12.9361 14.7226L13.2278 14.8201C13.2756 14.8341 13.3243 14.8448 13.3736 14.8524C13.3752 14.7822 13.3706 14.712 13.3598 14.6426Z" fill="#A25CCA"/>
<path d="M14.7778 12.7412L14.498 12.428C14.3603 12.2739 14.1848 12.1583 13.9888 12.0927L13.5388 11.9427C13.3164 11.8683 13.077 11.8614 12.8508 11.923H12.8485C12.6946 11.9654 12.5508 12.0386 12.4258 12.138C12.5489 12.1366 12.6714 12.1549 12.7888 12.1922L13.2388 12.3422C13.4348 12.4078 13.6103 12.5234 13.748 12.6775L14.0278 12.9907C14.1463 13.1234 14.2335 13.281 14.2829 13.4519C14.3323 13.6228 14.3427 13.8027 14.3133 13.9781C14.284 14.1536 14.2156 14.3202 14.1132 14.4657C14.0108 14.6112 13.877 14.7318 13.7218 14.8187L13.6218 14.8745C13.8185 14.8737 14.012 14.8237 14.1845 14.7292L14.4715 14.5687C14.6268 14.4818 14.7605 14.3612 14.8629 14.2157C14.9653 14.0702 15.0337 13.9036 15.0631 13.7281C15.0925 13.5527 15.0821 13.3728 15.0326 13.2019C14.9832 13.031 14.896 12.8734 14.7775 12.7407L14.7778 12.7412Z" fill="#A25CCA"/>
<path d="M18.4814 18.899L18.4236 18.8605C18.2345 18.7345 18.0122 18.6672 17.7849 18.6672C17.5576 18.6672 17.3353 18.7345 17.1461 18.8605L16.9044 19.0218C16.7467 19.1269 16.6173 19.2694 16.5279 19.4366C16.4384 19.6037 16.3916 19.7903 16.3916 19.9799C16.3916 20.1695 16.4384 20.3561 16.5279 20.5233C16.6173 20.6904 16.7467 20.8329 16.9044 20.938L16.9579 20.9738C17.0913 21.0629 17.242 21.123 17.4001 21.1504C17.5582 21.1778 17.7203 21.1718 17.8759 21.1328L18.1219 21.0713C18.371 21.009 18.5922 20.8653 18.7502 20.6629C18.9083 20.4605 18.9941 20.2111 18.9941 19.9543V19.8573C18.9941 19.6677 18.9473 19.4811 18.8579 19.3139C18.7684 19.1467 18.6391 19.0042 18.4814 18.899ZM16.6526 19.2778C16.6551 19.276 16.6574 19.2735 16.6601 19.2718L16.9019 19.1105C17.0911 18.9845 17.3133 18.9172 17.5406 18.9172C17.768 18.9172 17.9902 18.9845 18.1794 19.1105L18.2371 19.149C18.4803 19.3115 18.6525 19.5604 18.7186 19.8453C18.0055 19.7603 17.3091 19.569 16.6526 19.2778Z" fill="#A25CCA"/>
<path d="M19.9997 14.1301V14.1901C19.9997 14.3492 19.9466 14.5037 19.8488 14.6292C19.7509 14.7546 19.614 14.8438 19.4597 14.8826L19.3147 14.9176C19.4341 14.7873 19.5002 14.6168 19.4997 14.4401V14.3801C19.4997 14.2625 19.4707 14.1467 19.4154 14.0429C19.36 13.9391 19.2799 13.8506 19.1822 13.7851L19.1447 13.7626C19.0014 13.6669 18.828 13.6269 18.6572 13.6501C18.6713 13.6355 18.6873 13.6229 18.7047 13.6126L18.8547 13.5126C18.9716 13.4344 19.1091 13.3926 19.2497 13.3926C19.3904 13.3926 19.5279 13.4344 19.6447 13.5126L19.6822 13.5351C19.7799 13.6006 19.86 13.6891 19.9154 13.7929C19.9707 13.8967 19.9997 14.0125 19.9997 14.1301Z" fill="#A25CCA"/>
<path d="M17.7497 10.8801V10.9401C17.7497 11.0992 17.6966 11.2537 17.5988 11.3792C17.5009 11.5046 17.364 11.5938 17.2097 11.6326L17.0647 11.6676C17.1841 11.5373 17.2502 11.3668 17.2497 11.1901V11.1301C17.2497 11.0125 17.2207 10.8967 17.1654 10.7929C17.11 10.6891 17.0299 10.6006 16.9322 10.5351L16.8947 10.5126C16.7514 10.4169 16.578 10.3769 16.4072 10.4001C16.4213 10.3855 16.4373 10.3729 16.4547 10.3626L16.6047 10.2626C16.7216 10.1844 16.8591 10.1426 16.9997 10.1426C17.1404 10.1426 17.2779 10.1844 17.3947 10.2626L17.4322 10.2851C17.5299 10.3506 17.61 10.4391 17.6654 10.5429C17.7207 10.6467 17.7497 10.7625 17.7497 10.8801Z" fill="#A25CCA"/>
<path d="M21.7304 13.8118C21.8361 13.6351 21.9857 13.4887 22.1646 13.3868L22.4911 13.2013C22.6393 13.1174 22.8038 13.0663 22.9734 13.0513C22.8839 12.8308 22.7844 12.6154 22.6749 12.4053C22.6499 12.4103 22.6274 12.4153 22.6024 12.4228H22.5999C22.4219 12.471 22.2576 12.5601 22.12 12.6829C21.9825 12.8057 21.8754 12.9589 21.8074 13.1303L21.7099 13.3778C21.6354 13.5653 21.6105 13.7688 21.6376 13.9688L21.7304 13.8118Z" fill="#A25CCA"/>
<path d="M23.2502 17.1301V17.1901C23.2499 17.2938 23.2272 17.3962 23.1836 17.4902C23.14 17.5843 23.0766 17.6678 22.9977 17.7351C22.9998 17.7202 23.0006 17.7051 23.0002 17.6901V17.6301C23.0002 17.5125 22.9712 17.3967 22.9158 17.2929C22.8605 17.1891 22.7804 17.1006 22.6827 17.0351L22.6452 17.0126C22.5283 16.9344 22.3908 16.8926 22.2502 16.8926C22.1095 16.8926 21.9721 16.9344 21.8552 17.0126L21.7052 17.1126C21.6815 17.1285 21.659 17.1461 21.6377 17.1651C21.6406 17.1021 21.6524 17.0398 21.6727 16.9801C21.7232 16.8295 21.8226 16.7001 21.9552 16.6126L22.1052 16.5126C22.2221 16.4344 22.3595 16.3926 22.5002 16.3926C22.6408 16.3926 22.7783 16.4344 22.8952 16.5126L22.9327 16.5351C23.0304 16.6006 23.1105 16.6891 23.1658 16.7929C23.2212 16.8967 23.2502 17.0125 23.2502 17.1301Z" fill="#A25CCA"/>
<path d="M16.2502 16.3801V16.4401C16.2499 16.5438 16.2272 16.6462 16.1836 16.7402C16.14 16.8343 16.0766 16.9178 15.9977 16.9851C15.9998 16.9702 16.0006 16.9551 16.0002 16.9401V16.8801C16.0002 16.7625 15.9712 16.6467 15.9158 16.5429C15.8605 16.4391 15.7804 16.3506 15.6827 16.2851L15.6452 16.2626C15.5283 16.1844 15.3908 16.1426 15.2502 16.1426C15.1095 16.1426 14.9721 16.1844 14.8552 16.2626L14.7052 16.3626C14.6815 16.3785 14.659 16.3961 14.6377 16.4151C14.6406 16.3521 14.6524 16.2898 14.6727 16.2301C14.7232 16.0795 14.8226 15.9501 14.9552 15.8626L15.1052 15.7626C15.2221 15.6844 15.3595 15.6426 15.5002 15.6426C15.6408 15.6426 15.7783 15.6844 15.8952 15.7626L15.9327 15.7851C16.0304 15.8506 16.1105 15.9391 16.1658 16.0429C16.2212 16.1467 16.2502 16.2625 16.2502 16.3801Z" fill="#A25CCA"/>
<path d="M19.4999 15.9976C19.4037 15.9978 19.3097 16.0257 19.229 16.078C19.1483 16.1303 19.0844 16.2048 19.0449 16.2926C19.1373 16.2503 19.2404 16.2373 19.3403 16.2553C19.4403 16.2733 19.5324 16.3215 19.6042 16.3933C19.676 16.4651 19.7241 16.5572 19.7421 16.6572C19.7601 16.7571 19.7472 16.8602 19.7049 16.9526C19.8087 16.9053 19.8931 16.824 19.9443 16.7222C19.9955 16.6203 20.0104 16.5041 19.9865 16.3926C19.9626 16.2812 19.9013 16.1812 19.8128 16.1094C19.7243 16.0375 19.6139 15.9981 19.4999 15.9976Z" fill="#A25CCA"/>
<path d="M12.7499 17.2476C12.6537 17.2478 12.5597 17.2757 12.479 17.328C12.3983 17.3803 12.3344 17.4548 12.2949 17.5426C12.3873 17.5003 12.4904 17.4873 12.5903 17.5053C12.6903 17.5233 12.7824 17.5715 12.8542 17.6433C12.926 17.7151 12.9741 17.8072 12.9921 17.9072C13.0101 18.0071 12.9972 18.1102 12.9549 18.2026C13.0587 18.1553 13.1431 18.074 13.1943 17.9722C13.2455 17.8703 13.2604 17.7541 13.2365 17.6426C13.2126 17.5312 13.1513 17.4312 13.0628 17.3594C12.9743 17.2875 12.8639 17.2481 12.7499 17.2476Z" fill="#A25CCA"/>
<path d="M13.9999 19.9976C13.9037 19.9978 13.8097 20.0257 13.729 20.078C13.6483 20.1303 13.5844 20.2048 13.5449 20.2926C13.6373 20.2503 13.7404 20.2373 13.8403 20.2553C13.9403 20.2733 14.0324 20.3215 14.1042 20.3933C14.176 20.4651 14.2241 20.5572 14.2421 20.6572C14.2601 20.7571 14.2472 20.8602 14.2049 20.9526C14.3087 20.9053 14.3931 20.824 14.4443 20.7222C14.4955 20.6203 14.5104 20.5041 14.4865 20.3926C14.4626 20.2812 14.4013 20.1812 14.3128 20.1094C14.2243 20.0375 14.1139 19.9981 13.9999 19.9976Z" fill="#A25CCA"/>
<path d="M10.9425 17.2801V17.3776C10.9424 17.6344 10.8564 17.8839 10.6984 18.0864C10.5403 18.2888 10.3191 18.4327 10.07 18.4951L9.82246 18.5551C9.80379 18.5608 9.78447 18.5642 9.76496 18.5651C9.91478 18.4589 10.037 18.3184 10.1214 18.1552C10.2058 17.9921 10.2498 17.8112 10.25 17.6276V17.5301C10.25 17.3406 10.2033 17.1541 10.1139 16.987C10.0244 16.82 9.89515 16.6776 9.73746 16.5726L9.67996 16.5351C9.4854 16.4054 9.25625 16.3375 9.02246 16.3401V16.3326L9.09496 16.2851C9.28374 16.158 9.50614 16.0901 9.73371 16.0901C9.96128 16.0901 10.1837 16.158 10.3725 16.2851L10.43 16.3226C10.5877 16.4276 10.7169 16.57 10.8064 16.737C10.8958 16.9041 10.9425 17.0906 10.9425 17.2801Z" fill="#A25CCA"/>
<path d="M19.8621 9.89014L20.3596 10.7551C20.4488 10.9104 20.5855 11.0329 20.7496 11.1046L20.9114 11.1751C21.0508 11.2347 21.2037 11.2552 21.3539 11.2345C21.504 11.2138 21.6458 11.1526 21.7639 11.0576C21.8164 11.1176 21.8664 11.1776 21.9139 11.2401L21.7804 11.6476C21.7012 11.8872 21.5414 12.0919 21.3282 12.2267C21.1149 12.3615 20.8615 12.4181 20.6111 12.3869C20.4667 12.3688 20.3273 12.322 20.2012 12.2491C20.0752 12.1763 19.965 12.0789 19.8773 11.9627C19.7895 11.8465 19.726 11.714 19.6903 11.5728C19.6547 11.4316 19.6477 11.2848 19.6699 11.1409L19.8621 9.89014Z" fill="#D68FFF"/>
<path d="M20.9498 11.3403C21.1455 11.3805 21.3489 11.3557 21.5292 11.2697C21.7095 11.1837 21.8567 11.0412 21.9486 10.8638L21.9876 10.7888C22.0317 10.7035 22.0558 10.6094 22.0581 10.5134C22.0603 10.4175 22.0407 10.3223 22.0007 10.235C21.9606 10.1478 21.9013 10.0708 21.8271 10.01C21.7528 9.9491 21.6657 9.90595 21.5723 9.88379C21.4511 9.85503 21.341 9.791 21.2561 9.69979L21.1666 9.60379C21.0589 9.48849 20.9119 9.41767 20.7546 9.40527C20.5973 9.39288 20.441 9.43979 20.3166 9.53679L19.8613 9.89104L20.3043 10.8325C20.365 10.9615 20.455 11.0746 20.567 11.1627C20.6791 11.2509 20.8102 11.3117 20.9498 11.3403Z" fill="#EBC8FF"/>
<path d="M21.8748 10.4978C21.1153 10.4978 20.4998 10.05 20.4998 9.49777C20.4998 9.47727 20.5023 9.45702 20.5041 9.43677C20.4358 9.45905 20.3719 9.49288 20.3151 9.53677L19.8613 9.89102L20.3043 10.8325C20.3771 10.9873 20.4918 11.1186 20.6353 11.2117C20.7788 11.3047 20.9455 11.3557 21.1165 11.359C21.2875 11.3622 21.456 11.3176 21.603 11.23C21.7499 11.1425 21.8695 11.0157 21.9481 10.8638L21.9871 10.7888C22.0348 10.6961 22.0585 10.593 22.0561 10.4888C21.9968 10.4938 21.9366 10.4978 21.8748 10.4978Z" fill="#D68FFF"/>
<path d="M17.5 15.7476C17.6381 15.7476 17.75 15.6356 17.75 15.4976C17.75 15.3595 17.6381 15.2476 17.5 15.2476C17.3619 15.2476 17.25 15.3595 17.25 15.4976C17.25 15.6356 17.3619 15.7476 17.5 15.7476Z" fill="#A25CCA"/>
<path d="M17.25 13.4976C17.3881 13.4976 17.5 13.3856 17.5 13.2476C17.5 13.1095 17.3881 12.9976 17.25 12.9976C17.1119 12.9976 17 13.1095 17 13.2476C17 13.3856 17.1119 13.4976 17.25 13.4976Z" fill="#A25CCA"/>
<path d="M19.9443 11.6926C20.0824 11.6926 20.1943 11.5807 20.1943 11.4426C20.1943 11.3046 20.0824 11.1926 19.9443 11.1926C19.8063 11.1926 19.6943 11.3046 19.6943 11.4426C19.6943 11.5807 19.8063 11.6926 19.9443 11.6926Z" fill="#A25CCA"/>
<path d="M19.5 18.2476C19.6381 18.2476 19.75 18.1356 19.75 17.9976C19.75 17.8595 19.6381 17.7476 19.5 17.7476C19.3619 17.7476 19.25 17.8595 19.25 17.9976C19.25 18.1356 19.3619 18.2476 19.5 18.2476Z" fill="#A25CCA"/>
<path d="M14 10.7476C14.1381 10.7476 14.25 10.6356 14.25 10.4976C14.25 10.3595 14.1381 10.2476 14 10.2476C13.8619 10.2476 13.75 10.3595 13.75 10.4976C13.75 10.6356 13.8619 10.7476 14 10.7476Z" fill="#A25CCA"/>
<path d="M11.5 15.4976C11.6381 15.4976 11.75 15.3856 11.75 15.2476C11.75 15.1095 11.6381 14.9976 11.5 14.9976C11.3619 14.9976 11.25 15.1095 11.25 15.2476C11.25 15.3856 11.3619 15.4976 11.5 15.4976Z" fill="#A25CCA"/>
</svg>
