<svg width="46" height="34" viewBox="0 0 46 34" fill="none" xmlns="http://www.w3.org/2000/svg">
<path d="M45.035 11.3675L39.8975 31.145C39.748 31.7178 39.413 32.2249 38.9449 32.5872C38.4768 32.9494 37.9019 33.1465 37.31 33.1475H8.68999C8.09806 33.1465 7.52315 32.9494 7.05504 32.5872C6.58693 32.2249 6.25197 31.7178 6.10249 31.145L0.964988 11.3675C0.84006 10.8915 0.848988 10.3902 0.990788 9.91889C1.13259 9.44759 1.40175 9.02459 1.76862 8.69651C2.13549 8.36842 2.58581 8.14799 3.06996 8.05951C3.55411 7.97103 4.05329 8.01793 4.51249 8.19505L13.025 11.4725C13.1111 11.506 13.2056 11.511 13.2947 11.4867C13.3839 11.4624 13.4628 11.4101 13.52 11.3375L20.8925 1.88755C21.1413 1.56545 21.4607 1.30468 21.826 1.12525C22.1914 0.945833 22.593 0.852539 23 0.852539C23.407 0.852539 23.8086 0.945833 24.174 1.12525C24.5393 1.30468 24.8587 1.56545 25.1075 1.88755L32.48 11.3375C32.5372 11.4101 32.6161 11.4624 32.7052 11.4867C32.7943 11.511 32.8889 11.506 32.975 11.4725L41.4875 8.19505C41.9465 8.02571 42.4429 7.98457 42.9235 8.07606C43.4041 8.16755 43.8507 8.3882 44.2154 8.71432C44.5801 9.04045 44.8491 9.45974 44.9935 9.92718C45.1378 10.3946 45.1522 10.8926 45.035 11.3675Z" fill="url(#paint0_linear_6009_39631)"/>
<defs>
<linearGradient id="paint0_linear_6009_39631" x1="0.876488" y1="17" x2="45.1377" y2="17" gradientUnits="userSpaceOnUse">
<stop stop-color="#FFDE00"/>
<stop offset="1" stop-color="#FD5900"/>
</linearGradient>
</defs>
</svg>
