<svg width="35" height="35" viewBox="0 0 35 35" fill="none" xmlns="http://www.w3.org/2000/svg">
<path fill-rule="evenodd" clip-rule="evenodd" d="M7.69995 16.1002V18.9002C7.69995 23.5394 11.4608 27.3002 16.1 27.3002H18.9C23.5391 27.3002 27.3 23.5394 27.3 18.9002V16.1002C27.3 11.461 23.5391 7.7002 18.9 7.7002H16.1C11.4608 7.7002 7.69995 11.461 7.69995 16.1002Z" stroke="white" stroke-opacity="0.5" stroke-width="2" stroke-linecap="round" stroke-linejoin="round"/>
<path d="M17.5 17.5V23.1" stroke="white" stroke-opacity="0.5" stroke-width="2" stroke-linecap="round"/>
<path d="M17.5 13.9996C17.1141 13.9996 16.8 13.6856 16.8 13.2996C16.8 12.9136 17.1141 12.5996 17.5 12.5996C17.886 12.5996 18.2 12.9136 18.2 13.2996C18.2 13.6856 17.886 13.9996 17.5 13.9996Z" fill="black"/>
<path d="M17.5 12.9996C17.6664 12.9996 17.8 13.1333 17.8 13.2996C17.8 13.4659 17.6664 13.5996 17.5 13.5996C17.3337 13.5996 17.2 13.4659 17.2 13.2996C17.2 13.1333 17.3337 12.9996 17.5 12.9996Z" stroke="white" stroke-opacity="0.5" stroke-width="2"/>
<path d="M17.5 11.9004C18.2732 11.9004 18.9 12.5272 18.9 13.3004C18.9 14.0736 18.2732 14.7004 17.5 14.7004C16.7268 14.7004 16.1 14.0736 16.1 13.3004C16.1 12.5272 16.7268 11.9004 17.5 11.9004Z" fill="white" fill-opacity="0.5"/>
</svg>
