<svg width="12" height="12" viewBox="0 0 12 12" fill="none" xmlns="http://www.w3.org/2000/svg">
<g clip-path="url(#clip0_834_167)">
<g opacity="0.08">
<path d="M3.02484 12C1.27875 12 0.105469 10.8268 0.105469 9.08065V3.55097C0.105469 1.80487 1.27873 0.631592 3.02484 0.631592H8.97558C10.7217 0.631592 11.895 1.80485 11.895 3.55097V9.08065C11.895 10.8267 10.7217 12 8.97558 12H3.02484Z" fill="black"/>
</g>
<path d="M3.02484 11.7896C1.27875 11.7896 0.105469 10.6163 0.105469 8.8702V3.34052C0.105469 1.59442 1.27873 0.421143 3.02484 0.421143H8.97558C10.7217 0.421143 11.895 1.5944 11.895 3.34052V8.8702C11.895 10.6163 10.7217 11.7896 8.97558 11.7896H3.02484Z" fill="url(#paint0_linear_834_167)"/>
<path d="M0.105469 3.36853V3.34052C0.105469 1.59442 1.27873 0.421143 3.02484 0.421143H8.97558C10.7217 0.421143 11.895 1.5944 11.895 3.34052V3.36853H0.105469Z" fill="#F4413D"/>
<g opacity="0.16">
<path d="M8.97558 0.421143H3.02484C1.27875 0.421143 0.105469 1.5944 0.105469 3.34052V8.8702C0.105469 10.6163 1.27873 11.7896 3.02484 11.7896H8.97558C10.7217 11.7896 11.895 10.6163 11.895 8.8702V3.34052C11.895 1.5944 10.7217 0.421143 8.97558 0.421143ZM11.4739 8.8702C11.4739 10.3879 10.4933 11.3685 8.97558 11.3685H3.02484C1.50715 11.3685 0.526523 10.3879 0.526523 8.8702V3.34052C0.526523 1.82282 1.50715 0.842197 3.02484 0.842197H8.97558C10.4933 0.842197 11.4739 1.82282 11.4739 3.34052V8.8702Z" fill="url(#paint1_linear_834_167)"/>
</g>
<path d="M4.22737 6.92331H4.71095C5.25496 6.92331 5.62905 6.58942 5.62905 6.12604C5.62905 5.67698 5.28946 5.36036 4.7282 5.36036C4.21305 5.36036 3.84735 5.67131 3.8042 6.13174H3.42421C3.47305 5.46395 3.99705 5.01489 4.74527 5.01489C5.47642 5.01489 6.0261 5.461 6.0261 6.07699C6.0261 6.59805 5.68926 6.97214 5.15978 7.06708V7.07866C5.79578 7.11613 6.20463 7.51045 6.20463 8.0976C6.20463 8.79991 5.57725 9.30077 4.76842 9.30077C3.93074 9.30077 3.36379 8.82288 3.33789 8.15803H3.71788C3.74945 8.62139 4.16695 8.9553 4.76568 8.9553C5.36716 8.9553 5.80483 8.60121 5.80483 8.10899C5.80483 7.57931 5.3962 7.25699 4.72841 7.25699H4.22758C4.22737 7.25721 4.22737 6.92331 4.22737 6.92331Z" fill="#413D3D"/>
<path d="M7.8618 5.49839H7.85022C7.78412 5.53861 7.06455 6.05965 6.73633 6.26407V5.84386C6.86013 5.76617 7.74074 5.14449 7.85591 5.07544H8.2416V9.23459H7.86161L7.8618 5.49839Z" fill="#413D3D"/>
<path opacity="0.24" d="M2.84251 2.52632C3.19131 2.52632 3.47408 2.24356 3.47408 1.89475C3.47408 1.54595 3.19131 1.26318 2.84251 1.26318C2.4937 1.26318 2.21094 1.54595 2.21094 1.89475C2.21094 2.24356 2.4937 2.52632 2.84251 2.52632Z" fill="black"/>
<path opacity="0.24" d="M9.15696 2.52632C9.50577 2.52632 9.78853 2.24356 9.78853 1.89475C9.78853 1.54595 9.50577 1.26318 9.15696 1.26318C8.80815 1.26318 8.52539 1.54595 8.52539 1.89475C8.52539 2.24356 8.80815 2.52632 9.15696 2.52632Z" fill="black"/>
<g opacity="0.16">
<path d="M8.97558 0.421143H3.02484C1.27875 0.421143 0.105469 1.5944 0.105469 3.34052V8.8702C0.105469 10.6163 1.27873 11.7896 3.02484 11.7896H8.97558C10.7217 11.7896 11.895 10.6163 11.895 8.8702V3.34052C11.895 1.5944 10.7217 0.421143 8.97558 0.421143ZM11.6844 8.8702C11.6844 10.4904 10.5958 11.579 8.97558 11.579H3.02484C1.40463 11.579 0.316008 10.4904 0.316008 8.8702V3.34052C0.316008 1.72031 1.40463 0.631682 3.02484 0.631682H8.97558C10.5958 0.631682 11.6844 1.72031 11.6844 3.34052V8.8702Z" fill="black"/>
</g>
<path d="M2.84138 2.10527C2.72517 2.10527 2.63086 2.01096 2.63086 1.89476V0.210516C2.63086 0.0943125 2.72517 0 2.84138 0C2.95758 0 3.05189 0.0943125 3.05189 0.210516V1.89473C3.05191 2.01094 2.95758 2.10527 2.84138 2.10527Z" fill="url(#paint2_linear_834_167)"/>
<path d="M9.15778 2.10527C9.04158 2.10527 8.94727 2.01096 8.94727 1.89476V0.210516C8.94727 0.0943125 9.04158 0 9.15778 0C9.27398 0 9.3683 0.0943125 9.3683 0.210516V1.89473C9.3683 2.01094 9.27398 2.10527 9.15778 2.10527Z" fill="url(#paint3_linear_834_167)"/>
</g>
<defs>
<linearGradient id="paint0_linear_834_167" x1="6.0002" y1="11.789" x2="6.0002" y2="0.420486" gradientUnits="userSpaceOnUse">
<stop stop-color="#ECECEC"/>
<stop offset="1" stop-color="white"/>
</linearGradient>
<linearGradient id="paint1_linear_834_167" x1="6.0002" y1="11.789" x2="6.0002" y2="0.420486" gradientUnits="userSpaceOnUse">
<stop/>
<stop offset="0.06" stop-opacity="0"/>
</linearGradient>
<linearGradient id="paint2_linear_834_167" x1="2.84135" y1="2.10462" x2="2.84135" y2="-0.000656407" gradientUnits="userSpaceOnUse">
<stop stop-color="white"/>
<stop offset="1" stop-color="#DCDCDC"/>
</linearGradient>
<linearGradient id="paint3_linear_834_167" x1="9.15778" y1="2.10462" x2="9.15778" y2="-0.000656407" gradientUnits="userSpaceOnUse">
<stop stop-color="white"/>
<stop offset="1" stop-color="#DCDCDC"/>
</linearGradient>
<clipPath id="clip0_834_167">
<rect width="12" height="12" fill="white"/>
</clipPath>
</defs>
</svg>
