<svg width="32" height="32" viewBox="0 0 32 32" fill="none" xmlns="http://www.w3.org/2000/svg">
<path d="M12.8642 4.58743C10.0685 1.79313 4.5976 1.46912 0.726568 1.46912C0.325311 1.46912 0 1.79443 0 2.19568C0 6.06815 0.324017 11.539 3.11831 14.3348C4.43025 15.5033 6.14515 16.1155 7.90043 16.0422C9.71028 16.1136 11.4812 15.5044 12.8642 14.3348C14.9465 12.251 15.3286 7.05192 12.8642 4.58743Z" fill="#FFCD42"/>
<path d="M31.2735 4.34326C27.4011 4.34326 21.9302 4.66728 19.1344 7.46157C16.6641 9.93185 17.0521 15.1237 19.1344 17.2075C20.5178 18.3773 22.2893 18.9864 24.0996 18.9149C25.8548 18.988 27.5697 18.3758 28.8817 17.2075C31.6774 14.4118 32 8.94087 32 5.06833C31.9993 4.66769 31.6742 4.34326 31.2735 4.34326Z" fill="#FFCD42"/>
<path d="M15.2575 30.5309C14.8562 30.5309 14.5309 30.2056 14.5309 29.8043C14.5309 14.3943 8.87987 10.5276 6.75255 9.07306C6.49596 8.90924 6.253 8.72506 6.02598 8.52236C5.74719 8.23376 5.75523 7.77379 6.04383 7.495C6.32541 7.22302 6.77176 7.22302 7.05334 7.495C7.21742 7.63375 7.39125 7.76051 7.57352 7.87426C9.46252 9.16603 13.9119 12.2103 15.4507 22.1959C16.6399 16.9753 20.1651 12.5922 25.0092 10.3111C25.3801 10.1366 25.8229 10.2764 26.0263 10.6322C26.2101 10.9561 26.0966 11.3676 25.7727 11.5514C25.7606 11.5583 25.7482 11.5649 25.7357 11.571L25.618 11.6262C17.6522 15.3708 15.9796 23.5779 15.9796 29.8044C15.9797 30.2039 15.657 30.5284 15.2575 30.5309Z" fill="#DE9F39"/>
</svg>
