<svg width="176" height="150" viewBox="0 0 176 150" fill="none" xmlns="http://www.w3.org/2000/svg">
<path d="M106.208 26.3649C114.346 31.4672 120.053 40.1013 121.091 50.1236C124.41 51.6743 128.094 52.5661 131.999 52.5661C146.256 52.5661 157.811 41.0106 157.811 26.7558C157.811 12.4988 146.256 0.943359 131.999 0.943359C117.878 0.947752 106.424 12.2967 106.208 26.3649ZM89.2981 79.2154C103.555 79.2154 115.111 67.6577 115.111 53.4029C115.111 39.1481 103.553 27.5927 89.2981 27.5927C75.0433 27.5927 63.4812 39.1503 63.4812 53.4051C63.4812 67.6599 75.0433 79.2154 89.2981 79.2154ZM100.247 80.9747H78.3445C60.1207 80.9747 45.2948 95.8028 45.2948 114.027V140.812L45.3629 141.232L47.2079 141.809C64.5992 147.243 79.7085 149.055 92.1447 149.055C116.435 149.055 130.514 142.13 131.382 141.688L133.106 140.816H133.29V114.027C133.297 95.8028 118.471 80.9747 100.247 80.9747ZM142.953 54.3276H121.219C120.984 63.0233 117.272 70.8536 111.401 76.4852C127.599 81.302 139.451 96.3234 139.451 114.066V122.32C160.911 121.534 173.276 115.452 174.091 115.044L175.816 114.169H176V87.3751C176 69.1535 161.174 54.3276 142.953 54.3276ZM44.0055 52.5705C49.0551 52.5705 53.7533 51.0967 57.7332 48.5861C58.9983 40.3341 63.4219 33.1233 69.7411 28.212C69.7674 27.7288 69.8136 27.25 69.8136 26.7624C69.8136 12.5054 58.2559 0.949948 44.0055 0.949948C29.7463 0.949948 18.193 12.5054 18.193 26.7624C18.193 41.0128 29.7463 52.5705 44.0055 52.5705ZM67.1866 76.4852C61.3441 70.8821 57.6453 63.0936 57.3752 54.4506C56.5691 54.3913 55.7718 54.3276 54.9503 54.3276H33.0497C14.8259 54.3276 0 69.1535 0 87.3751V114.165L0.0680894 114.578L1.91309 115.16C15.8648 119.515 28.3164 121.523 39.1316 122.156V114.066C39.136 96.3234 50.9836 81.3064 67.1866 76.4852Z" fill="white"/>
</svg>
