<!-- Generated by IcoMoon.io -->
<svg version="1.1" xmlns="http://www.w3.org/2000/svg" width="1103" height="1024" viewBox="0 0 1103 1024">
<g id="icomoon-ignore">
</g>
<path d="M866.517 236.359h-52.515v-105.025c0-57.764-47.263-105.026-105.027-105.026h-315.077c-57.764 0-105.025 47.262-105.025 105.026v105.025h-52.513c-116.053 0-210.051 93.998-210.051 210.052v367.591c0 116.051 93.998 210.054 210.051 210.054h630.158c116.051 0 210.046-94.003 210.046-210.054v-367.591c0-116.054-93.995-210.052-210.046-210.052zM393.897 131.334h315.077v105.025h-315.077v-105.025zM761.487 551.436h-420.103c-28.882 0-52.512-23.631-52.512-52.513s23.631-52.512 52.512-52.512h420.103c28.883 0 52.514 23.631 52.514 52.512s-23.631 52.513-52.514 52.513z" fill="white"></path>
</svg>
