<svg width="41" height="148" viewBox="0 0 41 148" fill="none" xmlns="http://www.w3.org/2000/svg">
<path d="M0 0.5L9 1.5L20.5 2L31 1.5L41 0.5V147.999H0V0.5Z" fill="url(#paint0_linear_3907_5)" fill-opacity="0.15"/>
<path d="M25.6923 59.3021L25.343 60.73C24.2951 61.1436 23.458 61.4584 22.8346 61.6749C22.2106 61.892 21.4856 62 20.6594 62C19.3908 62 18.4041 61.6892 17.7003 61.0719C16.9965 60.4522 16.6445 59.6669 16.6445 58.7142C16.6445 58.3453 16.6701 57.966 16.7232 57.5795C16.7767 57.1926 16.8618 56.7568 16.9784 56.2697L18.288 51.6343C18.4045 51.1904 18.5035 50.7699 18.5829 50.3722C18.6633 49.9769 18.7021 49.6133 18.7021 49.2859C18.7021 48.6939 18.5795 48.2799 18.3355 48.0471C18.0915 47.815 17.6259 47.6971 16.9347 47.6971C16.5961 47.6971 16.2481 47.7513 15.8935 47.8562C15.5372 47.9615 15.2327 48.0632 14.9771 48.1578L15.3273 46.7287C16.1852 46.3794 17.0052 46.0803 17.7897 45.832C18.5741 45.5831 19.3153 45.4585 20.0164 45.4585C21.2763 45.4585 22.2485 45.763 22.9312 46.372C23.6139 46.9814 23.9552 47.7715 23.9552 48.745C23.9552 48.9465 23.9327 49.3014 23.8846 49.8086C23.8375 50.317 23.7499 50.7829 23.6222 51.2066L22.3182 55.8233C22.2113 56.1941 22.1152 56.6181 22.0316 57.0951C21.9453 57.569 21.9041 57.9311 21.9041 58.1739C21.9041 58.787 22.0408 59.2055 22.3148 59.428C22.5909 59.6505 23.0663 59.7612 23.7416 59.7612C24.0587 59.7612 24.4194 59.7049 24.8203 59.5945C25.22 59.484 25.5115 59.387 25.6923 59.3021ZM26.023 39.9195C26.023 40.7239 25.7199 41.4109 25.1106 41.9757C24.503 42.5426 23.7708 42.8262 22.9142 42.8262C22.0549 42.8262 21.3209 42.5426 20.7063 41.9757C20.0928 41.4106 19.7854 40.7239 19.7854 39.9195C19.7854 39.1167 20.0928 38.4286 20.7063 37.8566C21.3198 37.2855 22.0551 37 22.9142 37C23.7705 37 24.503 37.2861 25.1106 37.8566C25.7203 38.4286 26.023 39.1169 26.023 39.9195Z" fill="white"/>
<defs>
<linearGradient id="paint0_linear_3907_5" x1="20.5" y1="0.5" x2="20.5" y2="147.999" gradientUnits="userSpaceOnUse">
<stop stop-color="white"/>
<stop offset="1" stop-color="white" stop-opacity="0"/>
</linearGradient>
</defs>
</svg>
