<svg width="1108" height="676" viewBox="0 0 1108 676" fill="none" xmlns="http://www.w3.org/2000/svg">
<mask id="mask0_6047_1256" style="mask-type:alpha" maskUnits="userSpaceOnUse" x="0" y="0" width="1108" height="676">
<rect width="1108" height="676" rx="20" fill="#EDEDF7"/>
</mask>
<g mask="url(#mask0_6047_1256)">
<path fill-rule="evenodd" clip-rule="evenodd" d="M831.029 70.667C834.895 75.2788 839.522 79.0218 844.404 82.2977C860.733 92.8318 881.713 95.774 900.572 88.956C920.31 81.8341 935.227 65.5814 940.542 45.221C949.413 11.2452 929.014 -23.567 895.163 -32.4045C861.188 -41.2746 826.375 -20.8762 817.505 13.0995C812.065 33.4273 817.258 54.9303 831.029 70.667ZM735.706 71.3987C736.625 67.369 735.257 63.4094 732.026 60.9648C731.96 60.9178 731.883 60.8601 731.795 60.7945L731.793 60.793L731.792 60.7924C730.693 59.9681 727.932 57.8967 722.956 59.9311L438.972 172.585C461.627 189.04 511.46 211.79 588.241 175.264C594.662 172.137 602.335 174.941 605.463 181.361C608.59 187.781 605.786 195.455 599.366 198.582C580.61 207.561 563.142 213.141 547.044 216.544C574.663 234.428 625.62 254.403 686.842 217.683C692.985 214.084 700.887 216.013 704.487 222.157C708.087 228.3 706.157 236.202 700.014 239.802C680.856 251.345 662.47 257.886 645.182 261.244C670.287 277.005 713.359 293.453 765.546 270.386L780.521 203.314C758.171 181.601 720.46 134.397 735.706 71.3987ZM874.372 118.274C877.907 118.53 881.351 118.628 884.767 118.319C885.032 118.263 885.282 118.262 885.519 118.261C885.787 118.26 886.038 118.259 886.271 118.178L789.037 442.063C858.367 456.785 908.104 447.489 911.803 433.321C912.945 428.949 909.123 420.079 895.123 408.286C889.661 403.657 888.961 395.603 893.59 390.14C898.218 384.677 906.273 383.978 911.736 388.606C937.779 410.483 939.72 428.601 936.753 439.968C930.7 463.441 901.652 474.161 863.651 475.491C896.089 495.234 916.177 518.782 910.077 542.145C904.038 565.563 874.955 576.291 836.913 577.63C869.387 597.381 889.505 620.944 883.402 644.322C872.956 684.333 795.364 687.302 720.714 669.645L704.115 724.936C703.077 728.401 699.486 730.399 696.114 729.518C692.616 728.605 690.493 724.982 691.249 721.577L703.808 665.278C629.313 644.395 561.578 603.451 572.124 563.057C578.23 539.668 607.322 528.947 645.331 527.598C612.832 507.842 592.693 484.269 598.8 460.88C604.906 437.491 633.997 426.77 672.006 425.421C639.507 405.664 619.369 382.091 625.475 358.703C628.443 347.336 638.993 332.478 672.407 326.124C679.435 324.757 686.212 329.462 687.487 336.332C688.854 343.361 684.15 350.138 677.279 351.413C659.301 354.858 651.631 360.728 650.49 365.1C646.751 379.421 686.486 412.397 755.532 433.419L829.154 103.4C829.387 103.527 829.589 103.647 829.79 103.766L829.791 103.766L829.792 103.767C829.995 103.886 830.197 104.006 830.431 104.134C833.26 106.073 836.187 107.638 839.272 109.11C839.864 109.398 840.447 109.717 841.031 110.037C841.615 110.356 842.199 110.675 842.791 110.963C847.217 112.919 851.708 114.625 856.455 115.864C861.076 117.071 865.828 117.778 870.646 118.235C871.17 118.254 871.7 118.249 872.241 118.244H872.241C872.93 118.238 873.636 118.231 874.372 118.274ZM597.106 569.579C600.926 554.946 653.859 545.51 726.766 562.366L709.438 640.041C635.911 619.186 593.238 584.397 597.106 569.579ZM750.999 568.765L728.151 644.872C801.372 661.922 854.589 652.474 858.419 637.8C862.201 623.315 821.51 589.748 750.999 568.765ZM749.747 459.353C678.752 443.655 627.537 453.017 623.782 467.402C619.977 481.973 661.179 515.856 732.467 536.811L749.747 459.353ZM758.57 543.547C829.855 559.419 881.33 550.046 885.095 535.623C888.811 521.391 849.593 488.737 781.341 467.698L758.57 543.547ZM991.84 128.795C987.859 129.223 984.573 132.101 983.529 136.098C965.975 198.228 909.937 221.223 879.983 229.147L860.456 294.231C894.023 339.419 939.351 346.716 969.266 345.587C955.951 334.238 943.201 319.702 932.223 300.425C928.623 294.282 930.835 286.32 936.946 282.845C943.214 279.278 951.051 281.457 954.526 287.568C970.086 314.846 989.483 331.518 1008.89 341.521L1010.66 342.385C1034.77 354.284 1059.02 355.945 1076.92 354.878C1064.41 344.008 1052.02 330.634 1040.05 313.632C1035.98 307.766 1037.28 299.701 1043.15 295.628C1048.89 291.524 1057.08 292.861 1061.15 298.728C1110.16 368.093 1164.75 372.606 1192.56 369.325L1000.23 132.452C997.815 129.421 992.813 128.649 991.84 128.795Z" fill="#DC8C8C" fill-opacity="0.2"/>
</g>
</svg>
