<svg width="24" height="25" viewBox="0 0 24 25" fill="none" xmlns="http://www.w3.org/2000/svg">
<g clip-path="url(#clip0_3130_44193)">
<path d="M12.0007 24.1103C18.4028 24.1103 23.625 18.8947 23.625 12.4993C23.625 6.1039 18.4028 0.889709 12.0007 0.889709C5.59861 0.889709 0.375 6.1053 0.375 12.4993C0.375 18.8933 5.5972 24.1103 12.0007 24.1103Z" fill="#67854A"/>
<path d="M12.0007 0.889709C5.5972 0.889709 0.375 6.1053 0.375 12.4993C0.375 18.8933 5.5972 24.1103 12.0007 24.1103C18.4042 24.1103 23.625 18.8947 23.625 12.4993C23.625 6.1039 18.4028 0.889709 12.0007 0.889709ZM12.0007 21.363C7.1122 21.363 3.12572 17.3816 3.12572 12.4992C3.12572 7.61693 7.1122 3.63551 12.0007 3.63551C16.8892 3.63551 20.8757 7.61833 20.8757 12.4992C20.8757 17.3801 16.8878 21.363 12.0007 21.363Z" fill="#C6EB8B"/>
<path d="M3.78711 4.28145L5.73027 6.22213C7.33794 4.61647 9.55653 3.62084 12.0007 3.62084V0.875C8.79926 0.875 5.89306 2.17864 3.78711 4.28145Z" fill="#7FA55E"/>
<path d="M20.2146 20.6877L18.2714 18.747C16.6635 20.3528 14.4447 21.3483 12.001 21.3483V24.0955C15.2023 24.0955 18.1086 22.7914 20.2145 20.6877L20.2146 20.6877Z" fill="#7FA55E"/>
<path d="M20.2133 4.28204L18.2705 6.22239C19.8784 7.82818 20.8753 10.0441 20.8753 12.4846H23.6247C23.6247 9.28759 22.3191 6.38518 20.2133 4.28204Z" fill="#7FA55E"/>
<path d="M3.78652 20.6883L5.73 18.7473C4.12233 17.1416 3.12567 14.9257 3.12567 12.4846H0.375C0.375 15.6822 1.68056 18.585 3.78652 20.6883Z" fill="#7FA55E"/>
<path d="M15.7191 16.9148H15.309H8.64941H8.23926H7.8291V18.0025H16.1293V16.9148H15.7191Z" fill="#C6EB8B"/>
<path d="M8.79625 10.1625L8.22559 11.5541L8.59418 11.7356L8.96305 11.9172L9.41313 12.1387L9.74754 11.661L9.98379 11.3236L10.2198 10.9864L8.79625 10.1625Z" fill="#C6EB8B"/>
<path d="M15.2035 10.1625L13.7529 11.002L13.9892 11.3391L14.2252 11.6766L14.5486 12.1387L15.0304 11.9016L15.399 11.72L15.7679 11.5385L15.2035 10.1625Z" fill="#C6EB8B"/>
<path d="M17.8434 10.0652C17.2519 10.0652 16.763 10.5109 16.6949 11.0843C16.6895 11.1294 16.6867 11.1753 16.6867 11.2218C16.6867 11.3263 16.7007 11.4277 16.7269 11.524C16.7633 11.6588 16.8237 11.784 16.903 11.8945L16.0805 12.2994L15.7116 12.481L15.6657 12.5037H15.6654L15.3428 12.6623L14.2805 13.1854L13.5129 12.0892L13.3065 11.7941V11.7938L13.2767 11.7515L13.0407 11.4143L12.2472 10.2806C12.3861 10.2484 12.5157 10.191 12.6305 10.1133C12.7462 10.0356 12.8471 9.93693 12.928 9.82318C13.0626 9.63423 13.1419 9.40318 13.1419 9.15408C13.1419 8.51615 12.6232 7.99744 11.9852 7.99744C11.3476 7.99744 10.8286 8.51615 10.8286 9.15408C10.8286 9.40072 10.9062 9.62959 11.0383 9.81744C11.1187 9.93173 11.2191 10.031 11.3342 10.1095C11.4485 10.1877 11.5775 10.2459 11.7162 10.279L10.9322 11.3987L10.6962 11.7359L10.6457 11.8083L10.46 12.0736L9.6818 13.1854L8.65066 12.6779L8.31105 12.5105L8.28207 12.4963L7.9132 12.3147L7.01797 11.8742C7.10957 11.772 7.1834 11.6533 7.23426 11.5234C7.28512 11.3935 7.31301 11.2524 7.31328 11.1051V11.1029C7.31328 10.4649 6.79457 9.94595 6.15664 9.94595C5.51898 9.94595 5 10.4649 5 11.1029C5 11.6877 5.43668 12.1731 6.00133 12.2491C6.05219 12.256 6.10387 12.2595 6.15664 12.2595C6.25016 12.2595 6.34094 12.2483 6.42816 12.2272C6.56461 12.1944 6.69176 12.1373 6.80469 12.0607L8.09313 15.6843L8.23887 16.0945H15.7231L15.8689 15.6843L17.1319 12.1329C17.2404 12.2179 17.3643 12.2838 17.4988 12.326C17.6077 12.3601 17.7233 12.3785 17.8434 12.3785C17.868 12.3785 17.8923 12.3776 17.9164 12.376C18.5201 12.3383 19 11.8349 19 11.2218C19 10.5839 18.481 10.0652 17.8434 10.0652Z" fill="#C6EB8B"/>
</g>
<defs>
<clipPath id="clip0_3130_44193">
<rect width="24" height="24" fill="white" transform="translate(0 0.5)"/>
</clipPath>
</defs>
</svg>
