<svg width="101" height="101" viewBox="0 0 101 101" fill="none" xmlns="http://www.w3.org/2000/svg">
<path d="M85.9992 55.7524C83.8484 55.1824 81.6799 56.2997 81.165 58.2428L79.0786 66.1172C79.0429 66.2524 78.9549 66.3253 78.8875 66.3628C78.82 66.4003 78.7115 66.4362 78.5779 66.3952C78.4242 66.3479 78.3148 66.2139 78.2993 66.0538L77.0789 53.4645C76.9621 52.2597 76.3539 51.2022 75.41 50.5631C74.502 49.9482 73.3498 49.7655 72.2289 50.0542C69.9052 50.3522 68.2173 52.4527 68.4451 54.8006L69.5667 66.37C69.5797 66.5051 69.4244 66.7346 69.2941 66.7726C69.1142 66.8251 68.9253 66.7215 68.8729 66.5415L65.5687 55.2084C64.8956 52.8996 62.4698 51.5691 60.1611 52.2422C57.8524 52.9153 56.5218 55.341 57.1949 57.6498L60.6472 69.4912C60.6806 69.6056 60.6491 69.7291 60.5649 69.8135C60.4756 69.9031 60.3738 69.9144 60.3042 69.9084C60.2345 69.902 60.1364 69.8727 60.0643 69.7684L53.6777 60.5197C53.0158 59.561 52.0202 58.9176 50.8743 58.7078C49.7283 58.4981 48.5694 58.747 47.6108 59.4089C46.6522 60.0709 46.0088 61.0664 45.799 62.2124C45.5913 63.3471 45.8335 64.4947 46.481 65.4478L53.76 77.0039L54.4841 78.2091L49.9865 76.6035C48.9412 76.1357 47.6922 76.1611 46.5446 76.6772C45.4767 77.1575 44.5869 78.017 44.1034 79.035C43.6191 80.0548 43.5314 81.3293 43.863 82.5323C44.2227 83.8374 45.0358 84.8743 46.089 85.3744L54.4868 89.3994L59.0054 91.9666L64.287 98.558L87.1468 91.8933L86.1636 81.474C85.8164 77.7968 86.0685 74.1089 86.9127 70.5129L88.9786 60.2608C89.4584 58.3324 88.1319 56.3175 85.9992 55.7524ZM86.1339 59.5592L86.1226 59.6019L84.055 69.8662C83.1424 73.765 82.8705 77.7628 83.2466 81.7492L84.0025 89.7581L65.348 95.1968L62.7998 92.0167L60.9406 89.6965L55.8898 86.8269L55.8454 86.8016L47.3506 82.7302C47.071 82.5975 46.8169 82.2233 46.6875 81.7538C46.5443 81.2346 46.5682 80.6745 46.7499 80.2921C46.9369 79.8984 47.3094 79.5461 47.7464 79.3495C48.1361 79.1743 48.5222 79.1506 48.8049 79.2849L48.8713 79.3164L61.2149 83.7233L56.2634 75.482L48.9451 63.8628L48.9111 63.8111C48.6938 63.4965 48.6121 63.1161 48.681 62.74C48.7498 62.364 48.961 62.0373 49.2756 61.82C49.59 61.6029 49.9705 61.5212 50.3466 61.5899C50.7227 61.6588 51.0494 61.87 51.2667 62.1846L57.6531 71.4334C58.2044 72.232 59.075 72.7397 60.0415 72.8267C61.008 72.9134 61.9551 72.5691 62.64 71.8818C63.4779 71.041 63.792 69.8108 63.4598 68.6713L60.0074 56.8298C59.7865 56.0721 60.2232 55.276 60.9809 55.055C61.7386 54.8341 62.5347 55.2708 62.7557 56.0286L66.0597 67.3614C66.1095 67.532 66.172 67.6955 66.246 67.8512C66.9221 69.2744 68.5537 70.0401 70.1138 69.5852C71.5905 69.1547 72.6309 67.6181 72.4825 66.087L72.2409 63.5945L71.361 54.5176C71.2847 53.732 71.8618 53.0315 72.6475 52.9548L72.7842 52.9416L72.9162 52.9031C73.2425 52.8079 73.5446 52.8384 73.7668 52.9888C73.989 53.1393 74.1295 53.4085 74.1623 53.747L74.9524 61.8966L75.3828 66.3364C75.5129 67.6777 76.4291 68.8 77.717 69.1957C78.5902 69.464 79.5109 69.3675 80.3094 68.9242C81.1081 68.4809 81.6766 67.7505 81.9105 66.8676L83.9969 58.993C84.0834 58.6665 84.6371 58.4225 85.2485 58.5844C85.8602 58.7465 86.2202 59.2327 86.1339 59.5592Z" fill="white"/>
<path d="M50.5001 23.5401C56.9718 23.5401 62.2181 18.2705 62.2181 11.7701C62.2181 5.26964 56.9718 0 50.5001 0C44.0284 0 38.7821 5.26964 38.7821 11.7701C38.7821 18.2705 44.0284 23.5401 50.5001 23.5401Z" fill="white"/>
<path fill-rule="evenodd" clip-rule="evenodd" d="M75.6321 60.1586L72.6922 39.5811C71.6135 32.4948 65.3257 26.7293 58.6757 26.7293H57.6551C55.4889 27.776 53.0615 28.3637 50.5001 28.3637C47.9387 28.3637 45.5116 27.776 43.3451 26.7293H42.3256C35.6749 26.7293 29.3867 32.4948 28.3053 39.5988L25.3678 60.1589C25.2613 60.904 25.6055 61.6413 26.2455 62.0378L34.6686 67.2555L38.594 94.7768C39.0504 98.2659 41.9953 101 45.2988 101H55.7011C59.0045 101 61.9498 98.2659 62.4031 94.7982L62.7998 92.0167L60.9406 89.6965L55.8898 86.8269L55.8454 86.8016L47.3506 82.7302C47.071 82.5975 46.8169 82.2233 46.6875 81.7538C46.5443 81.2346 46.5682 80.6745 46.7499 80.2921C46.9369 79.8984 47.3094 79.5461 47.7464 79.3495C48.1361 79.1743 48.5222 79.1506 48.8049 79.2849L48.8713 79.3164L61.2149 83.7233L56.2634 75.482L48.9451 63.8628L48.9111 63.8111C48.6938 63.4965 48.6121 63.1161 48.681 62.74C48.7498 62.364 48.961 62.0373 49.2756 61.82C49.59 61.6029 49.9705 61.5212 50.3466 61.5899C50.7227 61.6588 51.0494 61.87 51.2667 62.1846L57.6531 71.4334C58.2044 72.232 59.075 72.7397 60.0415 72.8267C61.008 72.9134 61.9551 72.5691 62.64 71.8818C63.4779 71.041 63.792 69.8108 63.4598 68.6713L60.0074 56.8298C59.7865 56.0721 60.2232 55.276 60.9809 55.055C61.7386 54.8341 62.5347 55.2708 62.7557 56.0286L66.0597 67.3614C66.1095 67.532 66.172 67.6955 66.246 67.8512L66.3309 67.2555L72.2409 63.5945L71.361 54.5176C71.2847 53.732 71.8618 53.0315 72.6475 52.9548L72.7842 52.9416L72.9162 52.9031C73.2425 52.8079 73.5446 52.8384 73.7668 52.9888C73.989 53.1393 74.1295 53.4085 74.1623 53.747L74.9524 61.8966C75.4637 61.4809 75.7273 60.823 75.6321 60.1586Z" fill="white"/>
</svg>
