<svg width="36" height="36" viewBox="0 0 36 36" fill="none" xmlns="http://www.w3.org/2000/svg">
<path d="M18 30.75C25.0416 30.75 30.75 25.0416 30.75 18C30.75 10.9584 25.0416 5.25 18 5.25C10.9584 5.25 5.25 10.9584 5.25 18C5.25 25.0416 10.9584 30.75 18 30.75Z" fill="#EBFFD7"/>
<path d="M22.5 23.625C22.3522 23.6252 22.2059 23.5962 22.0694 23.5396C21.9329 23.483 21.8089 23.4 21.7046 23.2954L17.2046 18.7954C16.9936 18.5844 16.8751 18.2983 16.875 18V10.5C16.875 10.2016 16.9935 9.91548 17.2045 9.7045C17.4155 9.49353 17.7016 9.375 18 9.375C18.2984 9.375 18.5845 9.49353 18.7955 9.7045C19.0065 9.91548 19.125 10.2016 19.125 10.5V17.5342L23.2954 21.7046C23.4527 21.8619 23.5598 22.0624 23.6032 22.2806C23.6466 22.4988 23.6243 22.7249 23.5392 22.9305C23.4541 23.136 23.3099 23.3117 23.1249 23.4353C22.9399 23.559 22.7225 23.625 22.5 23.625Z" fill="#67854A"/>
</svg>
