<svg width="124" height="164" viewBox="0 0 124 164" fill="none" xmlns="http://www.w3.org/2000/svg">
<path d="M0.833984 24.8347V139.168C0.833984 141.334 1.69443 143.411 3.22592 144.943C4.7575 146.475 6.83469 147.335 9.00065 147.335H33.5007V131.001H17.1673V33.0013H33.5007V16.668H9.00065C6.83469 16.668 4.7575 17.5284 3.22592 19.06C1.69443 20.5915 0.833984 22.6688 0.833984 24.8347ZM117.144 16.913L51.8103 0.579661C50.6065 0.279455 49.3505 0.257405 48.137 0.515145C46.9234 0.772966 45.785 1.30372 44.8074 2.0673C43.8298 2.8308 43.0385 3.80705 42.4946 4.92188C41.9507 6.03671 41.6673 7.26081 41.6673 8.50133V155.501C41.6645 156.743 41.945 157.968 42.4881 159.085C43.0312 160.202 43.8225 161.18 44.8009 161.943C45.7792 162.708 46.9193 163.238 48.1345 163.495C49.3489 163.751 50.6065 163.727 51.8103 163.423L117.144 147.09C118.911 146.649 120.481 145.629 121.603 144.194C122.724 142.759 123.333 140.99 123.334 139.168V24.8347C123.333 23.013 122.724 21.2438 121.603 19.8084C120.481 18.373 118.911 17.3538 117.144 16.913ZM82.5007 83.5366C82.4067 85.6395 81.5051 87.6248 79.9837 89.0793C78.4622 90.5346 76.4385 91.3464 74.334 91.3464C72.2294 91.3464 70.2057 90.5346 68.6843 89.0793C67.1628 87.6248 66.2612 85.6395 66.1673 83.5366V80.4578C66.1681 78.292 67.0297 76.2152 68.5618 74.6847C70.0947 73.1535 72.1723 72.2943 74.3381 72.2952C76.5039 72.296 78.5807 73.1576 80.1119 74.6905C81.6423 76.2225 82.5015 78.3001 82.5007 80.4659V83.5366Z" fill="white"/>
</svg>
