<svg width="128" height="128" viewBox="0 0 128 128" fill="none" xmlns="http://www.w3.org/2000/svg">
<path d="M22.6401 99.4725C22.3384 99.7916 21.9356 99.9965 21.5001 100.053C19.6935 100.296 18.019 101.133 16.7403 102.432C9.05721 110.522 20.6108 122.025 28.6802 114.373C29.9721 113.088 30.808 111.417 31.0602 109.613C31.1173 109.182 31.314 108.781 31.6202 108.473L47.9402 92.1526L38.9402 83.1726L22.6401 99.4725Z" fill="white"/>
<path d="M40.4801 72.8925C40.0685 72.4995 39.5195 72.2831 38.9504 72.2897C38.3814 72.2963 37.8375 72.5253 37.4351 72.9277C37.0327 73.3301 36.8038 73.874 36.7973 74.4431C36.7907 75.0121 37.0072 75.5611 37.4002 75.9727L55.1201 93.6925C55.5308 94.0896 56.0811 94.3093 56.6524 94.3044C57.2236 94.2995 57.7701 94.0704 58.174 93.6665C58.578 93.2625 58.807 92.7161 58.8119 92.1448C58.8167 91.5736 58.5969 91.0233 58.1999 90.6125L40.4801 72.8925Z" fill="white"/>
<path d="M80.4399 74.312L78.0199 71.332L67.1399 80.252L71.1999 83.552L80.4399 74.312Z" fill="white"/>
<path d="M87.5201 72.8925L69.8003 90.6125C69.4032 91.0233 69.1835 91.5736 69.1883 92.1448C69.1931 92.716 69.4222 93.2625 69.8262 93.6665C70.2301 94.0704 70.7765 94.2995 71.3478 94.3044C71.919 94.3093 72.4693 94.0895 72.8801 93.6925L90.6001 75.9725C90.9931 75.561 91.2095 75.012 91.2029 74.4429C91.1964 73.8739 90.9674 73.33 90.565 72.9276C90.1626 72.5252 89.6188 72.2963 89.0497 72.2897C88.4807 72.2831 87.9317 72.4995 87.5201 72.8925Z" fill="white"/>
<path d="M106.5 100.053C106.065 99.9966 105.662 99.7917 105.36 99.4726L89.0601 83.1726L80.0601 92.1526L96.3801 108.473C96.6862 108.781 96.8829 109.182 96.9401 109.613C97.1922 111.417 98.0281 113.088 99.3201 114.372C100.265 115.318 101.421 116.026 102.693 116.437C103.965 116.848 105.317 116.952 106.636 116.738C107.956 116.525 109.206 116.001 110.284 115.211C111.362 114.42 112.236 113.384 112.835 112.189C113.434 110.994 113.741 109.674 113.73 108.337C113.719 107 113.391 105.685 112.773 104.5C112.154 103.315 111.263 102.294 110.172 101.52C109.082 100.747 107.823 100.244 106.5 100.053Z" fill="white"/>
<path d="M61.42 51.0721L28.68 11.1121H8V31.7921L49.42 65.7121L61.42 51.0721Z" fill="white"/>
<path d="M99.32 11.1121L47.54 74.3121L56.8 83.5521L120 31.7921V11.1121H99.32Z" fill="white"/>
</svg>
