<svg width="150" height="60" viewBox="0 0 150 60" fill="none" xmlns="http://www.w3.org/2000/svg">
<path d="M117.63 30.2216C115.864 30.2216 114.219 29.9174 112.696 29.3089C111.195 28.7004 109.893 27.8553 108.789 26.7735C107.685 25.6692 106.824 24.3846 106.206 22.9197C105.588 21.4549 105.279 19.8548 105.279 18.1194C105.279 16.3841 105.588 14.784 106.206 13.3191C106.824 11.8543 107.685 10.5809 108.789 9.49919C109.893 8.39489 111.195 7.5385 112.696 6.93001C114.197 6.32152 115.842 6.01728 117.63 6.01728C119.396 6.01728 121.019 6.32152 122.498 6.93001C123.999 7.51596 125.301 8.36109 126.405 9.46538C127.531 10.5471 128.392 11.8205 128.988 13.2853C129.606 14.7502 129.915 16.3616 129.915 18.1194C129.915 19.8773 129.606 21.4887 128.988 22.9536C128.392 24.4184 127.531 25.703 126.405 26.8073C125.301 27.8891 123.999 28.7342 122.498 29.3427C121.019 29.9286 119.396 30.2216 117.63 30.2216ZM117.63 27.213C118.91 27.213 120.091 26.9876 121.173 26.5369C122.277 26.0861 123.226 25.4551 124.021 24.6438C124.838 23.8099 125.467 22.8409 125.908 21.7366C126.372 20.6323 126.604 19.4266 126.604 18.1194C126.604 16.8123 126.372 15.6066 125.908 14.5023C125.467 13.398 124.838 12.4402 124.021 11.6289C123.226 10.795 122.277 10.1527 121.173 9.70202C120.091 9.25128 118.91 9.02592 117.63 9.02592C116.328 9.02592 115.125 9.25128 114.021 9.70202C112.939 10.1527 111.99 10.795 111.173 11.6289C110.356 12.4402 109.716 13.398 109.252 14.5023C108.811 15.6066 108.59 16.8123 108.59 18.1194C108.59 19.4266 108.811 20.6323 109.252 21.7366C109.716 22.8409 110.356 23.8099 111.173 24.6438C111.99 25.4551 112.939 26.0861 114.021 26.5369C115.125 26.9876 116.328 27.213 117.63 27.213Z" fill="white"/>
<path d="M129.639 29.9512V6.28772H132.917V24.5424L146.626 6.28772H149.672V29.9512H146.427V11.7303L132.685 29.9512H129.639ZM139.606 4.63128C137.796 4.63128 136.394 4.22562 135.4 3.4143C134.429 2.60298 133.932 1.46488 133.91 0H136.261C136.283 0.878928 136.593 1.56629 137.189 2.0621C137.785 2.53537 138.59 2.77201 139.606 2.77201C140.599 2.77201 141.394 2.53537 141.99 2.0621C142.608 1.56629 142.928 0.878928 142.95 0H145.268C145.246 1.46488 144.738 2.60298 143.745 3.4143C142.774 4.22562 141.394 4.63128 139.606 4.63128Z" fill="white"/>
<path fill-rule="evenodd" clip-rule="evenodd" d="M80.9443 6.28772V29.9512H84.1231V12.8028L92.5008 27.0778H94.024L102.404 12.6954L102.435 29.9512H105.614L105.58 6.28772H102.865L93.3239 22.9096L83.6595 6.28772H80.9443ZM102.402 11.3923L102.404 12.6954L103.163 11.3923H102.402Z" fill="white"/>
<path d="M103.163 11.3923H102.402L102.404 12.6954L103.163 11.3923Z" fill="white"/>
<path d="M84.8555 50.678L77.0426 49.7841H76.4151V60H83.1925V55.6263H95.6805V60H102.458V51.7448C101.971 51.1387 101.546 50.4852 101.185 49.7841H99.5712V52.4339H92.2918V49.7841H85.5105C85.3153 50.1214 85.097 50.4193 84.8555 50.678Z" fill="#229EC5"/>
<path d="M92.2918 52.4339H99.5712V49.7841H92.2918V52.4339Z" fill="#229EC5"/>
<path d="M87.2401 39.1213H92.2918V49.7841H99.5712V33.279H80.9961L80.7451 40.079C80.6824 41.505 80.5778 42.8139 80.4313 44.0057C80.3058 45.1763 80.1071 46.1979 79.8352 47.0705C79.5632 47.9218 79.1972 48.5922 78.737 49.0818C78.2977 49.55 77.7329 49.7841 77.0426 49.7841H85.5105C85.6365 49.5664 85.7529 49.3323 85.8595 49.0818C86.1315 48.422 86.3511 47.6664 86.5184 46.8151C86.7067 45.9638 86.8531 45.0273 86.9577 44.0057C87.0623 42.9841 87.1355 41.8881 87.1774 40.7175L87.2401 39.1213Z" fill="#229EC5"/>
<path d="M77.0426 49.7841L84.8555 50.678C85.097 50.4193 85.3153 50.1214 85.5105 49.7841H77.0426Z" fill="#229EC5"/>
<path fill-rule="evenodd" clip-rule="evenodd" d="M107.392 55.2751C108.919 55.8498 110.572 56.1371 112.35 56.1371C114.149 56.1371 115.801 55.8498 117.307 55.2751C118.813 54.7005 120.121 53.8917 121.229 52.8489C122.245 51.8745 123.049 50.7484 123.643 49.4706V39.435C123.049 38.1588 122.245 37.0433 121.229 36.0884C120.121 35.0243 118.813 34.2049 117.307 33.6302C115.801 33.0556 114.149 32.7682 112.35 32.7682C110.572 32.7682 108.919 33.0556 107.392 33.6302C105.886 34.2049 104.579 35.0243 103.47 36.0884C102.361 37.1313 101.493 38.3657 100.866 39.7917C100.259 41.1964 99.9558 42.75 99.9558 44.4527C99.9558 46.134 100.259 47.6877 100.866 49.1137C100.966 49.3418 101.073 49.5653 101.185 49.7841H102.458V51.7448C102.769 52.1322 103.107 52.5002 103.47 52.8489C104.579 53.8917 105.886 54.7005 107.392 55.2751ZM114.264 49.6564C113.678 49.9118 113.04 50.0395 112.35 50.0395C111.659 50.0395 111.011 49.9118 110.404 49.6564C109.819 49.401 109.296 49.0392 108.835 48.571C108.396 48.0814 108.051 47.4962 107.8 46.8151C107.549 46.1128 107.424 45.3253 107.424 44.4527C107.424 43.5801 107.549 42.8032 107.8 42.1222C108.051 41.4198 108.396 40.8345 108.835 40.3663C109.296 39.8768 109.819 39.5044 110.404 39.249C111.011 38.9936 111.659 38.8659 112.35 38.8659C113.04 38.8659 113.678 38.9936 114.264 39.249C114.87 39.5044 115.393 39.8768 115.833 40.3663C116.293 40.8345 116.648 41.4198 116.899 42.1222C117.15 42.8032 117.276 43.5801 117.276 44.4527C117.276 45.3253 117.15 46.1128 116.899 46.8151C116.648 47.4962 116.293 48.0814 115.833 48.571C115.393 49.0392 114.87 49.401 114.264 49.6564Z" fill="#229EC5"/>
<path d="M102.458 51.7448V49.7841H101.185C101.546 50.4852 101.971 51.1387 102.458 51.7448Z" fill="#229EC5"/>
<path d="M124.744 44.4527C124.744 42.75 124.43 41.1964 123.802 39.7917C123.751 39.6714 123.698 39.5525 123.643 39.435V49.4706C123.698 49.3529 123.751 49.2339 123.802 49.1137C124.43 47.6877 124.744 46.134 124.744 44.4527Z" fill="#229EC5"/>
<path d="M130.389 43.6226H129.072L130.389 45.7859V43.6226Z" fill="#229EC5"/>
<path d="M135.316 47.8686H138.516L136.893 45.1727L135.316 47.8686Z" fill="#229EC5"/>
<path d="M123.802 39.7917C124.43 41.1964 124.744 42.75 124.744 44.4527C124.744 46.134 124.43 47.6877 123.802 49.1137C123.751 49.2339 123.698 49.3529 123.643 49.4706V55.6263H130.389V45.7859L129.072 43.6226H130.389V45.7859L135.159 53.6151H138.422L143.201 45.433L143.191 43.6226H144.258L143.201 45.433L143.254 55.6263H150L149.937 33.279H143.85L136.893 45.1727L138.516 47.8686H135.316L136.893 45.1727L129.731 33.279H123.643V39.435C123.698 39.5525 123.751 39.6714 123.802 39.7917Z" fill="#229EC5"/>
<path d="M144.258 43.6226H143.191L143.201 45.433L144.258 43.6226Z" fill="#229EC5"/>
<path d="M4.26579 60H0L7.73175 51.8059V46.9977H11.5976V48.0813L20.3958 39.0068L50.7896 50.1129L58.3214 60H35.3927L20.3958 43.2731L4.26579 60Z" fill="white"/>
<path d="M17.2631 53.0248V50.1129H20.2625V53.0248H17.2631Z" fill="white"/>
<path d="M20.6624 53.0248V50.1129H23.5285V53.0248H20.6624Z" fill="white"/>
<path d="M20.2625 53.6343H17.2631V56.614H20.2625V53.6343Z" fill="white"/>
<path d="M20.6624 56.614V53.6343H23.5285V56.614H20.6624Z" fill="white"/>
<path fill-rule="evenodd" clip-rule="evenodd" d="M58.9212 60H67.2529V13.7472L61.1208 9.20993L58.6546 11.3761L50.7896 18.2844V49.0971L52.4559 50.6546V20.0451L58.9212 14.4921V60ZM49.7231 48.7585V30.3386L46.6041 28.1038L38.1922 22.0767L30.927 27.2912V28.9842L36.7258 25.0564V44.0181L49.7231 48.7585Z" fill="white"/>
<path d="M50.7896 49.0971V18.2844L58.6546 11.3761V7.51693L47.6569 0L39.8585 4.94357V6.97517L46.6041 3.0474V28.1038L49.7231 30.3386V48.7585L50.7896 49.0971Z" fill="#229EC5"/>
<path d="M68.3193 60H73.5849V18.2844L68.3193 14.4921V60Z" fill="#229EC5"/>
</svg>
