<svg width="48" height="48" viewBox="0 0 48 48" fill="none" xmlns="http://www.w3.org/2000/svg">
<g clip-path="url(#clip0_1793_51140)">
<path d="M24 0C10.745 0 0 10.7453 0 24C0 37.2554 10.745 48 24 48C37.255 48 48 37.2554 48 24C48 10.7453 37.255 0 24 0ZM24 12C25.6569 12 27 13.3433 27 15C27 16.6575 25.6569 18 24 18C22.3431 18 21 16.6575 21 15C21 13.3433 22.3431 12 24 12ZM28.5 36H19.5C18.6716 36 18 35.3291 18 34.5C18 33.6716 18.6716 33 19.5 33H21V24H19.5C18.6716 24 18 23.3291 18 22.5C18 21.6716 18.6716 21 19.5 21H25.5C26.3284 21 27 21.6716 27 22.5V33H28.5C29.3284 33 30 33.6716 30 34.5C30 35.3291 29.3284 36 28.5 36Z" fill="white" fill-opacity="0.5"/>
</g>
<defs>
<clipPath id="clip0_1793_51140">
<rect width="48" height="48" fill="white"/>
</clipPath>
</defs>
</svg>
