<svg width="26" height="25" viewBox="0 0 26 25" fill="none" xmlns="http://www.w3.org/2000/svg">
<path d="M24.571 5.92839H16.821C16.4784 5.92839 16.1498 6.06448 15.9076 6.3067C15.6654 6.54894 15.5293 6.87748 15.5293 7.22005V11.0951H12.946V2.05339C12.946 1.71081 12.8098 1.38227 12.5676 1.14004C12.3254 0.897809 11.9968 0.761719 11.6543 0.761719H1.32096C0.978388 0.761719 0.649852 0.897809 0.407613 1.14004C0.165387 1.38227 0.0292969 1.71081 0.0292969 2.05339V22.7201C0.0292969 23.0626 0.165387 23.3912 0.407613 23.6334C0.649852 23.8756 0.978388 24.0117 1.32096 24.0117H24.571C24.9135 24.0117 25.2421 23.8756 25.4843 23.6334C25.7265 23.3912 25.8626 23.0626 25.8626 22.7201V7.22005C25.8626 6.87748 25.7265 6.54894 25.4843 6.3067C25.2421 6.06448 24.9135 5.92839 24.571 5.92839ZM7.7793 4.63672H10.3626V7.22005H7.7793V4.63672ZM5.19596 17.5534H2.61263V14.9701H5.19596V17.5534ZM5.19596 12.3867H2.61263V9.80338H5.19596V12.3867ZM5.19596 7.22005H2.61263V4.63672H5.19596V7.22005ZM10.3626 17.5534H7.7793V14.9701H10.3626V17.5534ZM10.3626 12.3867H7.7793V9.80338H10.3626V12.3867ZM21.9876 17.5534H19.4043V14.9701H21.9876V17.5534ZM21.9876 12.3867H19.4043V9.80338H21.9876V12.3867Z" fill="url(#paint0_linear_662_36951)"/>
<defs>
<linearGradient id="paint0_linear_662_36951" x1="12.946" y1="0.761719" x2="12.946" y2="24.0117" gradientUnits="userSpaceOnUse">
<stop stop-color="#FFBD01"/>
<stop offset="1" stop-color="#FFE001"/>
</linearGradient>
</defs>
</svg>
