<svg width="200" height="200" viewBox="0 0 200 200" fill="none" xmlns="http://www.w3.org/2000/svg">
<path d="M199.375 60.25V95.1638C199.375 104.969 192.021 113.449 182.283 114.774L119.875 123.717V113.25C119.875 109.606 116.894 106.625 113.25 106.625H86.75C83.1062 106.625 80.125 109.606 80.125 113.25V123.717L17.7175 114.774C7.97875 113.449 0.625 104.969 0.625 95.1638V60.25C0.625 49.3188 9.56875 40.375 20.5 40.375H179.5C190.431 40.375 199.375 49.3188 199.375 60.25ZM184.204 127.891L119.875 137.1V153C119.875 156.644 116.894 159.625 113.25 159.625H86.75C83.1062 159.625 80.125 156.644 80.125 153V137.1L15.7962 127.891C12.815 127.494 9.9 126.633 7.25 125.44V179.5C7.25 190.431 16.1938 199.375 27.125 199.375H172.875C183.806 199.375 192.75 190.431 192.75 179.5V125.44C190.1 126.633 187.185 127.494 184.204 127.891ZM133.125 20.5C133.125 9.56875 124.181 0.625 113.25 0.625H86.75C75.8188 0.625 66.875 9.56875 66.875 20.5V27.125H80.125V20.5C80.125 16.8562 83.1062 13.875 86.75 13.875H113.25C116.894 13.875 119.875 16.8562 119.875 20.5V27.125H133.125V20.5Z" fill="white"/>
</svg>
