<svg width="22" height="23" viewBox="0 0 22 23" fill="none" xmlns="http://www.w3.org/2000/svg">
<path d="M21.8698 11.5017C21.8698 17.5045 17.0025 22.3675 10.9998 22.3675C4.99716 22.3675 0.129883 17.5045 0.129883 11.5017C0.129883 5.49911 4.99716 0.631836 10.9998 0.631836C17.0025 0.631836 21.8698 5.49911 21.8698 11.5017Z" fill="#F9B938"/>
<path d="M21.8685 11.5003C21.8685 17.5025 17.0034 22.3677 11.0012 22.3677C7.75778 22.3677 4.8465 20.9491 2.85748 18.6944C4.77223 20.3825 7.28491 21.4024 10.036 21.4024C16.0382 21.4024 20.9033 16.5373 20.9033 10.5351C20.9033 7.78405 19.8795 5.27141 18.1835 3.35266C20.4422 5.3339 21.8685 8.24904 21.8685 11.5003Z" fill="#E5A320"/>
<g opacity="0.3">
<path d="M2.16078 7.37021C2.01615 7.29694 1.95853 7.12063 2.0318 6.97638C3.01789 5.03054 4.6405 3.43311 6.60085 2.47869C6.74663 2.40695 6.92217 2.46877 6.99239 2.61378C7.06337 2.75918 7.00307 2.93472 6.8573 3.00532C5.01143 3.9044 3.48345 5.40872 2.55461 7.24122C2.48197 7.38488 2.30619 7.44357 2.16078 7.37021Z" fill="white"/>
</g>
<g opacity="0.3">
<path d="M8.45036 2.09323C8.41296 1.93563 8.51066 1.77764 8.66788 1.74062C9.17695 1.62041 9.70129 1.53951 10.2264 1.5002C10.3874 1.49448 10.5286 1.60935 10.5405 1.77077C10.5523 1.93219 10.4313 2.07262 10.2699 2.08484C9.77532 2.12185 9.2819 2.19779 8.80297 2.31075C8.64187 2.34834 8.48677 2.24808 8.45036 2.09323Z" fill="white"/>
</g>
<path d="M19.9998 11.504C19.9998 12.9843 19.6419 14.3792 19.0034 15.6115C17.5108 18.5112 14.4851 20.4999 10.9998 20.4999C7.51854 20.4999 4.48873 18.5112 2.99612 15.6115C2.35769 14.3792 1.99976 12.9843 1.99976 11.504C1.99976 6.53834 6.03819 2.49991 10.9998 2.49991C15.9654 2.49991 19.9998 6.53834 19.9998 11.504Z" fill="#272727"/>
<path d="M7.66044 13.4268C11.7997 12.8913 14.9448 15.2525 16 16.5C11.5695 14.1388 6.82061 15.5081 5 16.4878C5.17854 7.46172 12.4038 5.40398 15.9941 5.50338C13.8846 8.21511 15.1151 13.3801 15.9941 15.6237C13.5557 12.7951 9.95479 12.5992 8.45916 12.8547C10.1881 11.5062 12.2883 11.5788 13.1223 11.7837C12.7746 9.70973 13.181 7.77532 13.4277 7.06737C9.56562 8.24067 7.97366 11.7959 7.66044 13.4268Z" fill="#FBCE73"/>
<mask id="mask0_896_155" style="mask-type:alpha" maskUnits="userSpaceOnUse" x="5" y="5" width="11" height="12">
<path d="M7.66044 13.4268C11.7997 12.8913 14.9448 15.2525 16 16.5C11.5695 14.1388 6.82061 15.5081 5 16.4878C5.17854 7.46172 12.4038 5.40398 15.9941 5.50338C13.8846 8.21511 15.1151 13.3801 15.9941 15.6237C13.5557 12.7951 9.95479 12.5992 8.45916 12.8547C10.1881 11.5062 12.2883 11.5788 13.1223 11.7837C12.7746 9.70973 13.181 7.77532 13.4277 7.06737C9.56562 8.24067 7.97366 11.7959 7.66044 13.4268Z" fill="#F9B938"/>
</mask>
<g mask="url(#mask0_896_155)">
<path d="M16 5.5C5.5 7 5.5 14.5 5 16.4997H17.6096L16 5.5Z" fill="#F9B938"/>
<path d="M16 16.5C14.6666 14.3333 12.8 9.1 16 5.5V16.5Z" fill="#E5A320"/>
</g>
</svg>
