<svg width="18" height="18" viewBox="0 0 18 18" fill="none" xmlns="http://www.w3.org/2000/svg">
<g clip-path="url(#clip0_3178_2320)">
<path d="M8.42998 18C8.18426 17.9992 7.94167 17.9449 7.71898 17.841C7.35524 17.6791 7.0631 17.3899 6.8974 17.0278C6.7317 16.6658 6.70381 16.2557 6.81898 15.8745L7.98973 12H5.23123C4.87978 12.0005 4.53312 11.9186 4.21903 11.7609C3.90494 11.6032 3.63216 11.3741 3.42254 11.092C3.21292 10.8099 3.0723 10.4827 3.01194 10.1364C2.95159 9.79022 2.97318 9.43467 3.07498 9.09829L5.34298 1.59829C5.48123 1.1344 5.76619 0.727856 6.15512 0.43968C6.54404 0.151504 7.01594 -0.00276122 7.49998 3.7417e-05H10.2697C10.5845 0.000300774 10.8946 0.0767819 11.1734 0.222945C11.4523 0.369107 11.6916 0.580606 11.8709 0.839365C12.0502 1.09812 12.1642 1.39645 12.2031 1.70885C12.2421 2.02125 12.2048 2.33843 12.0945 2.63329L10.8322 6.00004H12.75C13.1588 6.00001 13.5598 6.11135 13.9101 6.32209C14.2604 6.53284 14.5466 6.83504 14.7381 7.19622C14.9296 7.5574 15.019 7.96392 14.9968 8.3721C14.9747 8.78029 14.8417 9.17473 14.6122 9.51304L9.81223 17.238C9.66384 17.4704 9.45959 17.6619 9.21813 17.795C8.97667 17.9282 8.7057 17.9986 8.42998 18Z" fill="#33462E"/>
</g>
<defs>
<clipPath id="clip0_3178_2320">
<rect width="18" height="18" fill="white"/>
</clipPath>
</defs>
</svg>
