<svg width="26" height="25" viewBox="0 0 26 25" fill="none" xmlns="http://www.w3.org/2000/svg">
<g clip-path="url(#clip0_491_127)">
<path d="M2.69331 25H10.0528V13.8159H1.90881V24.2155C1.90881 24.6489 2.25996 25 2.69331 25Z" fill="#210101"/>
<path d="M15.969 25H23.3285C23.7618 25 24.113 24.6489 24.113 24.2155V13.8159H15.969V25Z" fill="#210101"/>
<path d="M0.744141 9.72297V11.4625C0.744141 11.8958 1.09528 12.247 1.52863 12.247H10.0528V8.93848H1.52863C1.09528 8.93848 0.744141 9.28981 0.744141 9.72297Z" fill="#210101"/>
<path d="M15.969 8.93848V12.247H24.4931C24.9265 12.247 25.2776 11.8956 25.2776 11.4625V9.72297C25.2776 9.28962 24.9265 8.93848 24.4931 8.93848H15.969Z" fill="#210101"/>
<path d="M7.69469 2.65579C8.00635 2.35443 8.50264 2.36282 8.804 2.67467L12.2264 6.21414V4.69971C12.2264 2.10819 10.1182 0 7.52627 0H5.11843C4.97404 0 4.85693 0.117111 4.85693 0.261498V2.66933C4.85693 5.26524 6.96131 7.36942 9.55702 7.36942H11.1609L7.6758 3.76511C7.37521 3.45325 7.3836 2.95696 7.69469 2.65579Z" fill="#210101"/>
<path d="M14.8891 7.36942H16.4647C19.0605 7.36942 21.1648 5.26524 21.1648 2.66933V0.261498C21.1648 0.117111 21.0477 0 20.9033 0H18.4955C15.9036 0 13.7954 2.10819 13.7954 4.69971V6.24409L16.9496 3.05214C17.2538 2.7441 17.7509 2.74105 18.0587 3.04546C18.3673 3.35026 18.37 3.84712 18.0656 4.15516L14.8891 7.36942Z" fill="#210101"/>
<path d="M11.6219 25.0001H14.4C14.4 24.5536 14.4 9.19273 14.4 8.93848H11.6219V25.0001Z" fill="#210101"/>
</g>
<defs>
<clipPath id="clip0_491_127">
<rect width="25" height="25" fill="white" transform="translate(0.5)"/>
</clipPath>
</defs>
</svg>
