<svg width="64" height="64" viewBox="0 0 64 64" fill="none" xmlns="http://www.w3.org/2000/svg">
<path d="M32 58C46.3594 58 58 46.3594 58 32C58 17.6406 46.3594 6 32 6C17.6406 6 6 17.6406 6 32C6 46.3594 17.6406 58 32 58Z" fill="#EBFFD7"/>
<path d="M32 37.1999C33.104 37.1999 34 36.3039 34 35.1999V21.3333C34 20.2293 33.104 19.3333 32 19.3333C30.896 19.3333 30 20.2293 30 21.3333V35.1999C30 36.3039 30.896 37.1999 32 37.1999Z" fill="#7FA55E"/>
<path d="M32.0005 45.3333C33.1787 45.3333 34.1339 44.3782 34.1339 43.2C34.1339 42.0218 33.1787 41.0667 32.0005 41.0667C30.8223 41.0667 29.8672 42.0218 29.8672 43.2C29.8672 44.3782 30.8223 45.3333 32.0005 45.3333Z" fill="#7FA55E"/>
</svg>
