<svg width="34" height="34" viewBox="0 0 34 34" fill="none" xmlns="http://www.w3.org/2000/svg">
<rect width="34" height="34" rx="17" fill="black"/>
<path d="M16.6555 11.1833C15.6857 11.1833 14.1849 10.0604 12.6044 10.1C10.5174 10.1281 8.60436 11.3322 7.52917 13.2395C5.36344 17.0676 6.9706 22.7217 9.08313 25.8332C10.1194 27.3478 11.342 29.0519 12.9624 28.9988C14.5174 28.9311 15.1005 27.9707 16.988 27.9707C18.8611 27.9707 19.3921 28.9988 21.0391 28.9582C22.7138 28.9311 23.7767 27.4165 24.7997 25.8874C25.9824 24.129 26.4734 22.4238 26.5 22.3301C26.4601 22.3165 23.2448 21.0582 23.2059 17.2707C23.1793 14.1041 25.743 12.5895 25.8627 12.5218C24.4008 10.3447 22.1563 10.101 21.3716 10.0468C19.3256 9.88434 17.612 11.1833 16.6555 11.1833ZM20.1113 7.98956C20.9737 6.9354 21.5435 5.46145 21.3849 4C20.1501 4.05417 18.6616 4.83854 17.7716 5.89374C16.9737 6.82706 16.2842 8.32914 16.4693 9.76246C17.8381 9.87079 19.2468 9.0458 20.1102 7.9906" fill="white"/>
</svg>
