<svg width="212" height="202" viewBox="0 0 212 202" fill="none" xmlns="http://www.w3.org/2000/svg">
<path d="M156.117 1.89306C150.172 -1.13131 142.9 1.23843 139.876 7.18572L50.0469 183.867C47.0233 189.813 49.393 197.083 55.3395 200.107C57.0933 200.998 58.9622 201.421 60.8037 201.421C65.205 201.421 69.4476 199.007 71.5798 194.814L161.409 18.1334C164.433 12.1869 162.063 4.91663 156.117 1.89306Z" fill="white"/>
<path d="M91.6153 60.076C91.6153 34.8174 71.0655 14.2676 45.8068 14.2676C20.5498 14.2676 0 34.8174 0 60.076C0 85.3339 20.5498 105.884 45.8077 105.884C71.0663 105.884 91.6153 85.3339 91.6153 60.076ZM45.8077 81.7273C33.8696 81.7273 24.1563 72.0141 24.1563 60.076C24.1563 48.1372 33.8696 38.4239 45.8077 38.4239C57.7465 38.4239 67.4598 48.1364 67.4598 60.076C67.459 72.0141 57.7465 81.7273 45.8077 81.7273Z" fill="white"/>
<path d="M166.193 96.1172C140.935 96.1172 120.385 116.667 120.385 141.925C120.385 167.183 140.934 187.732 166.193 187.732C191.451 187.732 212.001 167.184 212.001 141.925C212.001 116.666 191.452 96.1172 166.193 96.1172ZM166.193 163.575C154.254 163.575 144.541 153.862 144.541 141.924C144.541 129.986 154.254 120.273 166.193 120.273C178.131 120.273 187.845 129.986 187.845 141.924C187.845 153.862 178.132 163.575 166.193 163.575Z" fill="white"/>
</svg>
