<svg width="27" height="20" viewBox="0 0 27 20" fill="none" xmlns="http://www.w3.org/2000/svg">
<path d="M12.6938 20H7.12229V0.719849H12.6938V7.87217H13.9377L16.3737 0.719849H22.3598L18.4209 9.99713V10.1267L22.8781 20H16.866L13.9377 12.3812H12.6938V20Z" fill="url(#paint0_linear_8738_311)"/>
<path d="M1.43945 5.60323H26.6338V7.76275H1.43945V5.60323Z" fill="url(#paint1_linear_8738_311)"/>
<path d="M1.43945 12.8016H26.6338V14.9611H1.43945V12.8016Z" fill="url(#paint2_linear_8738_311)"/>
<path d="M11.2544 19.2802H5.68283V0H11.2544V7.15232H12.4983L14.9342 0H20.9204L16.9814 9.27728V9.40685L21.4387 19.2802H15.4266L12.4983 11.6614H11.2544V19.2802Z" fill="url(#paint3_linear_8738_311)"/>
<path d="M0 4.88339H25.1944V7.0429H0V4.88339Z" fill="url(#paint4_linear_8738_311)"/>
<path d="M0 12.0818H25.1944V14.2413H0V12.0818Z" fill="url(#paint5_linear_8738_311)"/>
<defs>
<linearGradient id="paint0_linear_8738_311" x1="14.0366" y1="0.719849" x2="14.0366" y2="20" gradientUnits="userSpaceOnUse">
<stop stop-color="#315B92"/>
<stop offset="1" stop-color="#501548"/>
</linearGradient>
<linearGradient id="paint1_linear_8738_311" x1="14.0366" y1="0.719849" x2="14.0366" y2="20" gradientUnits="userSpaceOnUse">
<stop stop-color="#315B92"/>
<stop offset="1" stop-color="#501548"/>
</linearGradient>
<linearGradient id="paint2_linear_8738_311" x1="14.0366" y1="0.719849" x2="14.0366" y2="20" gradientUnits="userSpaceOnUse">
<stop stop-color="#315B92"/>
<stop offset="1" stop-color="#501548"/>
</linearGradient>
<linearGradient id="paint3_linear_8738_311" x1="12.5972" y1="0" x2="12.5972" y2="19.2802" gradientUnits="userSpaceOnUse">
<stop stop-color="#98CDFF"/>
<stop offset="1" stop-color="#FF00FB"/>
</linearGradient>
<linearGradient id="paint4_linear_8738_311" x1="12.5972" y1="0" x2="12.5972" y2="19.2802" gradientUnits="userSpaceOnUse">
<stop stop-color="#98CDFF"/>
<stop offset="1" stop-color="#FF00FB"/>
</linearGradient>
<linearGradient id="paint5_linear_8738_311" x1="12.5972" y1="0" x2="12.5972" y2="19.2802" gradientUnits="userSpaceOnUse">
<stop stop-color="#98CDFF"/>
<stop offset="1" stop-color="#FF00FB"/>
</linearGradient>
</defs>
</svg>
