<svg width="34" height="34" viewBox="0 0 34 34" fill="none" xmlns="http://www.w3.org/2000/svg">
<rect width="34" height="34" rx="17" fill="black"/>
<path d="M16.3864 3.01384L16.403 3.01292C16.9515 2.98442 17.5344 3.00662 18.082 3.04501C21.2951 3.26566 24.3391 4.51965 26.7276 6.60666C29.0683 8.64679 30.6538 11.3701 31.2424 14.3612C31.3732 15.0476 31.4551 15.7418 31.4876 16.439C31.6452 20.1108 30.3007 23.6951 27.7442 26.4176C25.582 28.7193 22.6867 30.2592 19.5163 30.7935C18.8649 30.9032 18.2706 30.955 17.6113 30.9863C13.9198 31.1443 10.3054 29.933 7.50901 27.6007C4.60462 25.1791 2.81754 21.7411 2.5421 18.0455C2.24688 14.3135 3.51317 10.6229 6.05772 7.79937C8.1913 5.43207 11.0889 3.82811 14.2827 3.24642C15.0259 3.11081 15.6352 3.06342 16.3864 3.01384ZM5.95875 10.1749L12.0108 21.9653C12.1237 22.1858 12.6024 23.1856 12.7501 23.319C12.8683 23.3437 12.9226 23.2593 12.9652 23.1645C13.186 22.6734 13.398 22.1781 13.6149 21.6852L14.9682 18.6065C15.1268 18.2456 15.3015 17.7955 15.5022 17.4611C15.5603 17.3643 16.5535 17.3899 16.7248 17.3917C17.2444 17.3971 17.7674 17.3739 18.284 17.411C18.4259 17.4218 18.6353 17.9568 18.6913 18.0798L20.8178 22.7561C20.8901 22.9155 20.9588 23.079 21.0474 23.2305C21.0855 23.2957 21.1359 23.3428 21.2196 23.3168C21.3493 23.2139 21.5745 22.7219 21.6606 22.5548L22.2515 21.4116C22.6726 20.5987 23.1501 19.7232 23.5466 18.9056C23.7165 18.6086 23.8928 18.2437 24.051 17.9368L28.0724 10.1721C26.8777 8.39886 25.2573 6.93026 23.349 5.89107L19.0435 15.1337C18.8686 15.509 18.6966 15.887 18.5145 16.259C18.4449 16.4012 18.3264 16.4359 18.1713 16.4459C17.4033 16.4433 16.635 16.4464 15.867 16.4446C15.7941 16.4444 15.7066 16.4255 15.6379 16.4035C15.5847 16.3853 15.5089 16.253 15.4836 16.2003C15.3313 15.8829 15.183 15.5602 15.0343 15.2411L11.5048 7.66457C11.4346 7.51385 10.7275 5.9486 10.6738 5.89197C9.0754 6.77981 7.8097 7.79865 6.66772 9.21025C6.45179 9.47716 6.13301 9.88459 5.95875 10.1749ZM29.3465 12.5579L28.3157 14.5627C28.1334 14.9166 27.9186 15.3664 27.7254 15.7086C27.2483 16.6056 26.7821 17.5419 26.3159 18.447L21.8474 27.1243C21.7693 27.2762 21.6956 27.4287 21.6078 27.5765C21.5275 27.7118 21.4895 27.7614 21.3281 27.8177C21.1281 27.8875 20.9 27.7712 20.8041 27.5977C20.706 27.4202 20.6212 27.2218 20.5355 27.0368L17.5018 20.4783C17.4523 20.3712 17.1588 19.6249 17.0107 19.6697C16.8563 19.7162 16.7058 20.1622 16.6271 20.3306L15.9877 21.7058L13.5383 27C13.4194 27.2574 13.2626 27.7502 12.9553 27.8261C12.7241 27.8831 12.5166 27.7331 12.4246 27.5393C12.1534 27.028 11.8942 26.5123 11.6312 25.9975L5.05815 13.2355C5.00319 13.1287 4.75455 12.6145 4.70307 12.5621C3.47986 15.7042 3.6041 19.1875 5.04828 22.2409C6.51628 25.3414 9.20147 27.7508 12.5115 28.9373C15.736 30.0847 19.3001 29.9505 22.4224 28.5642C25.6511 27.1254 28.155 24.5063 29.3829 21.2841C30.2941 18.9081 30.4329 16.3203 29.7805 13.8663C29.6718 13.462 29.5142 12.9449 29.3465 12.5579ZM12.7084 4.99322C13.0603 5.73266 13.4013 6.49527 13.7435 7.24003L16.388 12.9956C16.4817 13.1998 16.8191 14.0168 16.9737 14.1159C17.1212 14.1299 17.1889 13.9158 17.2379 13.8093C17.5836 13.0346 17.9511 12.2541 18.3058 11.4824L20.3047 7.13198C20.6291 6.42599 20.9756 5.70025 21.2879 4.9923C19.7371 4.4464 18.0892 4.20414 16.4404 4.27965C15.1656 4.3296 13.9066 4.57032 12.7084 4.99322Z" fill="#97BFFF"/>
</svg>
