<svg width="212" height="212" viewBox="0 0 212 212" fill="none" xmlns="http://www.w3.org/2000/svg">
<path d="M106 37.3691C68.1568 37.3691 37.3691 68.1568 37.3691 106C37.3691 143.843 68.1568 174.631 106 174.631C143.843 174.631 174.631 143.843 174.631 106C174.631 68.1568 143.843 37.3691 106 37.3691ZM136.966 106L106 136.966L75.0335 106L106 75.0335L136.966 106Z" fill="white"/>
<path d="M180.954 31.0464C160.932 11.0261 134.314 0 106 0C77.6864 0 51.0676 11.0261 31.0464 31.0464C11.0261 51.0676 0 77.6864 0 106C0 134.314 11.0261 160.932 31.0464 180.954C51.0676 200.974 77.6864 212 106 212C134.314 212 160.932 200.974 180.954 180.954C200.974 160.932 212 134.314 212 106C212 77.6864 200.974 51.0676 180.954 31.0464ZM106 187.053C61.3073 187.053 24.9473 150.693 24.9473 106C24.9473 61.3073 61.3073 24.9473 106 24.9473C150.693 24.9473 187.053 61.3073 187.053 106C187.053 150.693 150.693 187.053 106 187.053Z" fill="white"/>
</svg>
