<svg width="512" height="392" viewBox="0 0 512 392" fill="none" xmlns="http://www.w3.org/2000/svg">
<path d="M374.518 90.0136C401.126 63.5111 442.689 59.0157 464.612 58.6459C473.439 58.4894 479.838 64.8767 479.681 73.654C479.309 95.4905 474.796 136.887 448.187 163.39C421.579 189.892 380.016 194.388 358.093 194.757C349.266 194.914 342.867 188.527 343.024 179.749C343.396 157.913 347.909 116.516 374.518 90.0136Z" fill="url(#paint0_linear_432_3119)"/>
<path d="M399.655 142.094C432.291 123.416 473.582 129.874 494.849 135.209C503.404 137.357 507.917 145.167 505.475 153.617C499.391 174.6 484.194 213.393 451.558 232.058C418.922 250.736 377.631 244.277 356.364 238.943C347.809 236.795 343.296 228.985 345.738 220.535C351.822 199.552 367.019 160.758 399.655 142.094Z" fill="url(#paint1_linear_432_3119)"/>
<path d="M414.111 188.086C451.289 182.268 487.539 202.995 505.478 215.556C512.705 220.606 514.104 229.511 508.791 236.525C495.58 253.951 467.457 284.764 430.279 290.582C393.102 296.401 356.852 275.674 338.913 263.112C331.686 258.062 330.287 249.157 335.6 242.144C348.811 224.717 376.934 193.904 414.111 188.086Z" fill="url(#paint2_linear_432_3119)"/>
<path d="M392.2 230.535C427.678 243.025 449.659 278.447 459.443 297.993C463.385 305.86 460.357 314.353 452.33 318.009C432.377 327.085 392.929 340.855 357.451 328.365C321.972 315.875 299.991 280.453 290.208 260.907C286.266 253.04 289.294 244.547 297.321 240.891C317.273 231.815 356.722 218.045 392.2 230.535Z" fill="url(#paint3_linear_432_3119)"/>
<path d="M137.482 90.0131C110.874 63.5106 69.3113 59.0153 47.3874 58.6454C38.5608 58.4889 32.1621 64.8762 32.3192 73.6535C32.6906 95.49 37.2039 136.887 63.8125 163.389C90.421 189.892 131.983 194.387 153.907 194.757C162.734 194.913 169.133 188.526 168.976 179.749C168.604 157.912 164.091 116.516 137.482 90.0131Z" fill="url(#paint4_linear_432_3119)"/>
<path d="M112.343 142.094C79.7074 123.415 38.4163 129.874 17.1494 135.208C8.59414 137.357 4.08084 145.166 6.52317 153.617C12.6076 174.599 27.8043 213.393 60.4401 232.057C93.076 250.735 134.367 244.277 155.634 238.942C164.189 236.794 168.703 228.984 166.26 220.534C160.176 199.551 144.979 160.758 112.343 142.094Z" fill="url(#paint5_linear_432_3119)"/>
<path d="M97.8907 188.086C60.713 182.267 24.4637 202.994 6.5247 215.555C-0.70232 220.606 -2.10202 229.511 3.21112 236.524C16.4226 253.951 44.5451 284.763 81.7228 290.582C118.9 296.4 155.15 275.673 173.089 263.112C180.316 258.062 181.716 249.157 176.402 242.143C163.191 224.717 135.068 193.904 97.8907 188.086Z" fill="url(#paint6_linear_432_3119)"/>
<path d="M119.8 230.535C84.3221 243.025 62.3411 278.447 52.5575 297.993C48.6155 305.86 51.6434 314.352 59.6703 318.008C79.6231 327.084 119.072 340.855 154.55 328.365C190.028 315.875 212.009 280.453 221.792 260.906C225.734 253.04 222.707 244.547 214.68 240.891C194.727 231.815 155.278 218.044 119.8 230.535Z" fill="url(#paint7_linear_432_3119)"/>
<path d="M235.433 4.03299L135.369 44.875C115.002 53.1828 101.705 72.9423 101.705 94.8641V225.783C101.705 343.544 204.911 380.687 242.518 390.304C251.373 392.565 260.642 392.565 269.512 390.304C307.118 380.687 410.324 343.544 410.324 225.783V94.8641C410.324 72.9423 397.027 53.197 376.66 44.875L276.596 4.03299C263.413 -1.34433 248.645 -1.34433 235.462 4.03299H235.433Z" fill="url(#paint8_linear_432_3119)"/>
<path d="M256.001 364.996C253.73 364.996 251.459 364.711 249.26 364.142C233.049 359.988 201.884 349.76 175.319 327.81C144.468 302.303 128.814 267.976 128.814 225.783V94.8637C128.814 83.853 135.427 74.0515 145.654 69.8691L245.718 29.0271C249.003 27.6899 252.459 27.0071 256.001 27.0071C259.543 27.0071 263 27.6899 266.285 29.0271L366.349 69.8691C376.575 74.0373 383.188 83.853 383.188 94.8637V225.783C383.188 267.991 367.549 302.317 336.684 327.81C310.133 349.76 278.968 359.988 262.757 364.142C260.558 364.711 258.287 364.996 256.016 364.996H256.001Z" fill="url(#paint9_linear_432_3119)"/>
<path d="M256 298.633C312.913 298.633 359.05 252.68 359.05 195.995C359.05 139.309 312.913 93.3562 256 93.3562C199.088 93.3562 152.951 139.309 152.951 195.995C152.951 252.68 199.088 298.633 256 298.633Z" fill="url(#paint10_linear_432_3119)"/>
<path d="M215.537 263.766V244.69L239.746 241.716V156.092L215.352 155.807V137.755L272.454 128.266V241.731L296.663 244.704V263.781H215.552L215.537 263.766Z" fill="url(#paint11_linear_432_3119)"/>
<defs>
<linearGradient id="paint0_linear_432_3119" x1="351.461" y1="195.263" x2="479.251" y2="66.9609" gradientUnits="userSpaceOnUse">
<stop offset="0.5" stop-color="#F27A00"/>
<stop offset="1" stop-color="#FCD34F"/>
</linearGradient>
<linearGradient id="paint1_linear_432_3119" x1="365.302" y1="253.234" x2="471.628" y2="120.054" gradientUnits="userSpaceOnUse">
<stop offset="0.5" stop-color="#F27A00"/>
<stop offset="1" stop-color="#FCD34F"/>
</linearGradient>
<linearGradient id="paint2_linear_432_3119" x1="355.797" y1="274.31" x2="507.58" y2="180.344" gradientUnits="userSpaceOnUse">
<stop offset="0.5" stop-color="#F27A00"/>
<stop offset="1" stop-color="#FCD34F"/>
</linearGradient>
<linearGradient id="paint3_linear_432_3119" x1="298.568" y1="234.766" x2="443.111" y2="334.989" gradientUnits="userSpaceOnUse">
<stop offset="0.5" stop-color="#F27A00"/>
<stop offset="1" stop-color="#FCD34F"/>
</linearGradient>
<linearGradient id="paint4_linear_432_3119" x1="166.786" y1="187.901" x2="38.996" y2="59.5988" gradientUnits="userSpaceOnUse">
<stop offset="0.5" stop-color="#F27A00"/>
<stop offset="1" stop-color="#FCD34F"/>
</linearGradient>
<linearGradient id="paint5_linear_432_3119" x1="147.048" y1="245.197" x2="40.7087" y2="112.01" gradientUnits="userSpaceOnUse">
<stop offset="0.5" stop-color="#F27A00"/>
<stop offset="1" stop-color="#FCD34F"/>
</linearGradient>
<linearGradient id="paint6_linear_432_3119" x1="157.635" y1="270.359" x2="5.85214" y2="176.394" gradientUnits="userSpaceOnUse">
<stop offset="0.5" stop-color="#F27A00"/>
<stop offset="1" stop-color="#FCD34F"/>
</linearGradient>
<linearGradient id="paint7_linear_432_3119" x1="217.194" y1="239.93" x2="72.6438" y2="340.138" gradientUnits="userSpaceOnUse">
<stop offset="0.5" stop-color="#F27A00"/>
<stop offset="1" stop-color="#FCD34F"/>
</linearGradient>
<linearGradient id="paint8_linear_432_3119" x1="256" y1="392.011" x2="256" y2="-0.00710329" gradientUnits="userSpaceOnUse">
<stop stop-color="#FFBF00"/>
<stop offset="1" stop-color="#FFDF3D"/>
</linearGradient>
<linearGradient id="paint9_linear_432_3119" x1="256.001" y1="364.996" x2="256.001" y2="27.0071" gradientUnits="userSpaceOnUse">
<stop stop-color="#FF8C00"/>
<stop offset="1" stop-color="#FCC000"/>
</linearGradient>
<linearGradient id="paint10_linear_432_3119" x1="256" y1="298.647" x2="256" y2="93.3562" gradientUnits="userSpaceOnUse">
<stop stop-color="#FFE187"/>
<stop offset="1" stop-color="#FFF8E0"/>
</linearGradient>
<linearGradient id="paint11_linear_432_3119" x1="256" y1="263.766" x2="256" y2="128.238" gradientUnits="userSpaceOnUse">
<stop stop-color="#FD7600"/>
<stop offset="0.71" stop-color="#FDBF30"/>
</linearGradient>
</defs>
</svg>
