<svg width="212" height="152" viewBox="0 0 212 152" fill="none" xmlns="http://www.w3.org/2000/svg">
<path d="M162.312 135.281H156.101H55.2559H49.0449H42.834V151.753H168.523V135.281H162.312Z" fill="white"/>
<path d="M57.4833 33.0332L48.8418 54.1048L54.4234 56.8542L60.0091 59.6036L66.8245 62.9575L71.8885 55.7238L75.466 50.6143L79.0394 45.5089L57.4833 33.0332Z" fill="white"/>
<path d="M154.515 33.0332L132.549 45.7449L136.126 50.8503L139.7 55.9598L144.598 62.9575L151.894 59.3676L157.475 56.6182L163.061 53.8688L154.515 33.0332Z" fill="white"/>
<path d="M194.485 31.5595C185.529 31.5595 178.126 38.3087 177.095 46.9916C177.012 47.6748 176.97 48.3704 176.97 49.0743C176.97 50.656 177.181 52.1922 177.579 53.6497C178.13 55.691 179.045 57.5874 180.246 59.2603L167.791 65.3925L162.205 68.1419L161.509 68.4856H161.505L156.619 70.8871L140.533 78.8081L128.91 62.2084L125.784 57.7406V57.7365L125.333 57.0947L121.759 51.9893L109.743 34.8223C111.847 34.3337 113.809 33.4641 115.548 32.2882C117.3 31.1123 118.828 29.6175 120.053 27.895C122.09 25.0338 123.291 21.535 123.291 17.7629C123.291 8.10281 115.436 0.248047 105.776 0.248047C96.1205 0.248047 88.2616 8.10281 88.2616 17.7629C88.2616 21.4977 89.4375 24.9634 91.4374 27.8081C92.6548 29.5388 94.1744 31.0419 95.9176 32.2302C97.6484 33.4145 99.6027 34.2964 101.702 34.7974L89.8309 51.7533L86.2575 56.8587L85.4915 57.956L82.68 61.9724L70.8958 78.8081L55.2815 71.1231L50.1388 68.5891L49.6999 68.3738L44.1142 65.6244L30.5578 58.9538C31.9449 57.4053 33.0629 55.6082 33.833 53.6414C34.6032 51.6746 35.0255 49.5381 35.0297 47.3063V47.2731C35.0297 37.6131 27.1749 29.7541 17.5148 29.7541C7.85891 29.7541 0 37.6131 0 47.2731C0 56.1299 6.61258 63.4795 15.163 64.6306C15.9331 64.7342 16.7157 64.788 17.5148 64.788C18.9309 64.788 20.3056 64.6182 21.6265 64.2994C23.6927 63.8025 25.618 62.9371 27.3281 61.7777L46.8388 116.649L49.0457 122.86H162.379L164.586 116.649L183.711 62.8709C185.355 64.1586 187.231 65.1565 189.268 65.7942C190.916 66.3117 192.667 66.5892 194.485 66.5892C194.858 66.5892 195.226 66.5767 195.591 66.5519C204.733 65.9805 212 58.3576 212 49.0743C212 39.4142 204.141 31.5595 194.485 31.5595Z" fill="white"/>
</svg>
