<svg width="1108" height="676" viewBox="0 0 1108 676" fill="none" xmlns="http://www.w3.org/2000/svg">
<path d="M-721.741 -154.268C-721.745 -154.266 -721.746 -154.261 -721.743 -154.258C-672.795 -100.221 -625.452 -70.6062 -568.232 -58.2271C-536.586 -51.3825 -503.668 -48.5883 -471.009 -48.596C-378.892 -48.596 -288.844 -70.8122 -235.382 -87.0367C-205.401 -96.1349 -177.209 -106.124 -149.938 -115.785C-91.3465 -136.547 -36.0044 -156.152 30.1502 -165.007C121.393 -177.227 255.406 -158.01 349.099 -87.5544C368.282 -73.1268 385.091 -58.0596 401.352 -43.4873C443.005 -6.15051 479.514 26.5877 534.247 26.5801C540.015 26.5801 545.996 26.2146 552.197 25.4533C607.904 18.6239 668.223 -25.0397 736.592 -108.027C743.919 -116.927 751.209 -125.889 758.263 -134.553C799.535 -185.297 838.525 -233.224 877.865 -258.6L877.866 -258.601C877.946 -258.651 878.015 -258.715 878.07 -258.79C882.164 -264.418 886.81 -270.452 892.003 -276.699C892.43 -277.212 892.066 -277.992 891.399 -277.992C891.164 -277.992 890.942 -277.887 890.793 -277.706C886.822 -272.889 882.934 -267.917 879.132 -262.799C877.666 -260.826 875.867 -259.131 873.83 -257.754C835.386 -231.764 797.321 -184.974 757.091 -135.52C750.045 -126.855 742.755 -117.894 735.428 -109.002C667.317 -26.3264 607.318 17.1545 552.022 23.9382C487.663 31.8334 448.141 -3.59997 402.379 -44.6293C386.095 -59.2244 369.264 -74.3145 350.027 -88.7802C308.192 -120.239 253.953 -144.062 193.171 -157.675C137.844 -170.07 79.8766 -173.207 29.9601 -166.53C-36.3545 -157.652 -91.765 -138.017 -150.432 -117.232C-177.688 -107.578 -205.865 -97.589 -235.808 -88.5061C-308.08 -66.5715 -447.329 -33.6582 -567.898 -59.7269C-624.792 -72.0304 -671.886 -101.502 -720.607 -155.292C-746.783 -184.193 -769.672 -218.698 -793.907 -255.235C-798.825 -262.646 -803.803 -270.139 -808.846 -277.662C-808.988 -277.873 -809.225 -277.999 -809.478 -277.999C-810.087 -277.999 -810.449 -277.319 -810.11 -276.814C-805.064 -269.3 -800.086 -261.804 -795.17 -254.397C-770.906 -217.817 -747.989 -183.262 -721.739 -154.278C-721.736 -154.275 -721.737 -154.27 -721.741 -154.268Z" fill="#9DA1C9" fill-opacity="0.3"/>
<path d="M-808.433 -177.957C-808.434 -177.959 -808.436 -177.957 -808.435 -177.956C-787.421 -142.8 -767.57 -109.585 -744.721 -79.8419C-721.81 -50.0121 -699.347 -26.5929 -676.063 -8.23662C-648.198 13.7284 -618.986 28.7499 -586.761 37.6882C-534.919 52.0702 -475.156 54.0877 -409.146 43.6724C-341.12 32.945 -281.516 11.2845 -243.493 -5.00087C-209.876 -19.3981 -178.191 -35.4093 -147.556 -50.8876C-88.4473 -80.7555 -32.6184 -108.971 34.4189 -125.5C129.428 -148.935 273.524 -137.72 365.375 -57.7246C387.556 -38.4014 405.978 -16.208 423.784 5.25456C443.499 29.0164 462.119 51.4535 483.653 67.2287C504.236 82.3035 525.085 89.5288 548.43 89.5288C552.524 89.5288 556.702 89.308 560.963 88.8664C621.281 82.6157 689.422 36.9878 743.25 -33.1862C767.561 -64.8813 790.161 -95.0613 812.014 -124.252C831.509 -150.29 849.931 -174.889 866.276 -196.123C887.547 -223.739 910.48 -251.907 936.284 -276.719C936.76 -277.177 936.437 -277.984 935.776 -277.984C935.587 -277.984 935.406 -277.911 935.269 -277.781C909.242 -252.82 886.322 -224.645 865.073 -197.052C848.721 -175.81 830.299 -151.211 810.797 -125.165C788.943 -95.975 766.344 -65.7949 742.04 -34.115C688.463 35.7391 620.711 81.1463 560.803 87.3513C499.184 93.739 464.782 52.2834 424.955 4.28764C407.104 -17.2206 388.652 -39.4673 366.372 -58.8666C325.236 -94.6883 269.719 -119.684 205.825 -131.149C148.025 -141.519 87.0216 -140.034 34.0537 -126.97C-33.1434 -110.395 -89.0561 -82.1412 -148.241 -52.2352C-178.853 -36.7645 -210.507 -20.7685 -244.087 -6.39412C-302.708 18.7077 -453.409 73.114 -586.35 36.2264C-644.69 20.0401 -694.629 -17.1369 -743.504 -80.7631C-766.301 -110.441 -786.131 -143.613 -807.124 -178.734C-823.659 -206.402 -840.765 -235.006 -859.704 -262.262C-863.375 -267.547 -867.096 -272.678 -870.855 -277.677C-870.997 -277.866 -871.219 -277.976 -871.454 -277.976C-872.074 -277.976 -872.427 -277.269 -872.056 -276.773C-868.328 -271.797 -864.627 -266.67 -860.952 -261.394C-842.038 -234.186 -824.957 -205.601 -808.431 -177.959C-808.43 -177.958 -808.432 -177.956 -808.433 -177.957Z" fill="#9DA1C9" fill-opacity="0.3"/>
<path d="M-881.748 -202.915C-860.191 -170.23 -841.503 -135.512 -823.431 -101.936C-805.085 -67.8506 -787.759 -35.6605 -767.693 -5.42719C-718.378 68.8733 -666.772 113.047 -605.305 133.596C-551.675 151.526 -490.169 153.802 -422.493 140.38C-351.59 126.31 -290.442 98.1625 -251.635 77.0274C-215.636 57.4225 -181.577 35.4651 -148.636 14.2309C-87.8996 -24.9255 -30.5335 -61.9044 38.6497 -86.0012C143.49 -122.523 294.967 -114.285 381.636 -27.9023C404.7 -4.90946 422.825 21.8292 440.349 47.6924C474.674 98.3453 507.097 146.196 569.569 152.249C573.092 152.592 576.653 152.759 580.245 152.759C608.452 152.759 638.889 142.313 668.945 122.214C698.074 102.731 726.821 74.1114 749.885 41.6244C783.563 -5.8155 810.751 -54.8771 834.743 -98.16C841.622 -110.57 848.12 -122.295 854.542 -133.586C890.566 -196.904 929 -244.547 970.375 -276.896C970.834 -277.255 970.577 -277.992 969.994 -277.992C969.858 -277.992 969.726 -277.946 969.619 -277.863C966.699 -275.589 963.794 -273.248 960.904 -270.827C922.249 -238.401 887.026 -193.756 853.218 -134.34C846.796 -123.049 840.298 -111.316 833.411 -98.8986C809.443 -55.6461 782.277 -6.62254 748.645 40.7489C707.753 98.3453 639.277 157.495 569.714 150.742C507.957 144.75 475.724 97.1956 441.604 46.8397C424.035 20.9156 405.871 -5.88401 382.701 -28.9835C342.304 -69.2515 285.539 -95.4344 218.54 -104.692C158.122 -113.045 94.0525 -106.923 38.1323 -87.4402C-31.2183 -63.2824 -88.6605 -26.2502 -149.474 12.9519C-182.391 34.1708 -216.427 56.113 -252.381 75.695C-311.999 108.167 -465.69 178.668 -604.841 132.157C-665.973 111.722 -717.32 67.7389 -766.446 -6.26469C-786.473 -36.4371 -803.784 -68.6043 -822.115 -102.652C-840.202 -136.258 -858.905 -171.006 -880.5 -203.752C-896.182 -227.565 -916.516 -254.043 -941.352 -277.781C-941.493 -277.916 -941.681 -277.992 -941.876 -277.992C-942.564 -277.992 -942.898 -277.15 -942.401 -276.675C-917.662 -253.027 -897.399 -226.646 -881.748 -202.915Z" fill="#9DA1C9" fill-opacity="0.3"/>
<path d="M-902.521 -144.424C-902.521 -144.425 -902.52 -144.425 -902.519 -144.425C-878.764 -106.609 -859.049 -65.9616 -839.989 -26.6464C-824.504 5.29238 -808.486 38.3199 -790.643 68.9948C-742.164 152.31 -687.599 204.813 -623.826 229.503C-592.445 241.655 -558.531 247.738 -522.402 247.738C-494.781 247.738 -465.858 244.182 -435.786 237.064C-377.667 223.306 -316.801 196.331 -259.777 159.055C-222.02 134.372 -186.112 106.613 -151.391 79.768C-91.2552 33.2721 -29.0801 -14.8074 42.888 -46.5101C154.515 -95.6783 312.308 -94.8332 397.927 1.91957C421.333 28.3766 438.713 60.4981 455.514 91.5689C486.491 148.846 515.741 202.94 578.281 215.639C585.541 217.116 592.96 217.847 600.5 217.847C625.558 217.847 651.931 209.769 677.924 193.986C707.867 175.805 735.785 148.267 756.551 116.45C786.638 70.35 806.178 20.8392 825.072 -27.0499C831.113 -42.3531 836.813 -56.8036 842.809 -71.0333C860.377 -112.715 915.051 -225.204 1010.5 -276.411C1011.26 -276.822 1010.97 -278 1010.11 -278C1009.97 -278 1009.84 -277.966 1009.72 -277.902C988.355 -266.509 967.734 -251.421 947.953 -232.638C894.635 -182.001 860.584 -117.133 841.409 -71.6272C835.405 -57.3899 829.698 -42.9241 823.656 -27.6133C804.785 20.1997 785.275 69.6419 755.272 115.612C716.724 174.686 647.13 228.064 578.578 214.147C516.738 201.592 487.64 147.795 456.846 90.8457C440.006 59.6987 422.589 27.501 399.061 0.91457C359.455 -43.8454 301.473 -71.216 231.376 -78.2433C199.752 -81.4106 166.987 -80.2761 133.986 -74.8705C101.784 -69.5943 70.928 -60.519 42.2792 -47.8958C-29.8563 -16.1245 -92.1151 32.0159 -152.319 78.5726C-187.017 105.403 -222.895 133.139 -260.606 157.791C-321.48 197.58 -478.679 284.085 -623.278 228.095C-686.724 203.534 -741.038 151.244 -789.334 68.2411C-807.155 37.6118 -823.157 4.61477 -838.627 -27.3012C-857.703 -66.6555 -877.434 -107.342 -901.235 -145.227C-920.895 -176.529 -942.621 -203.615 -965.965 -226.014C-966.419 -226.449 -967.169 -226.126 -967.169 -225.497C-967.169 -225.302 -967.09 -225.116 -966.949 -224.981C-940.245 -199.285 -918.8 -170.329 -902.523 -144.423C-902.523 -144.422 -902.521 -144.423 -902.521 -144.424Z" fill="#9DA1C9" fill-opacity="0.3"/>
<path d="M-857.905 47.7534C-857.903 47.7504 -857.899 47.7505 -857.898 47.7536C-844.035 79.4387 -829.707 112.205 -813.6 143.433C-791.952 185.406 -768.066 221.243 -742.613 249.954C-712.192 284.268 -678.46 309.659 -642.354 325.427C-610.213 339.458 -575.568 346.478 -538.739 346.478C-510.113 346.478 -480.171 342.237 -449.057 333.741C-389.104 317.379 -326.464 285.341 -267.927 241.091C-228.754 211.482 -191.317 178.09 -155.12 145.793C-92.625 90.039 -28.0073 32.3893 47.1187 -7.00311C162.665 -67.5916 330.586 -74.5961 414.211 31.7574C437.495 61.3664 453.749 98.6195 469.469 134.654C483.569 166.974 496.893 197.504 514.927 223.253C535.129 252.108 558.703 270.35 586.986 279.03C598.073 282.433 609.236 284.009 620.322 284.001C678.046 284.001 733.464 241.267 763.209 191.276C789.057 147.833 802.191 97.8886 814.898 49.5959C819.935 30.4555 825.14 10.6603 831.06 -8.44967C871.374 -138.466 974.365 -271.65 1113.58 -276.126C1138.5 -276.926 1163.74 -273.492 1188.15 -270.173C1215.74 -266.419 1244.26 -262.544 1272.43 -264.752C1291.59 -266.253 1310.08 -270.474 1328.05 -276.503C1328.88 -276.783 1328.68 -277.992 1327.8 -277.992C1327.71 -277.992 1327.63 -277.978 1327.55 -277.951C1309.69 -271.958 1291.33 -267.763 1272.31 -266.274C1244.3 -264.082 1215.87 -267.949 1188.37 -271.688C1163.89 -275.015 1138.58 -278.456 1113.55 -277.649C1049.25 -275.586 987.438 -245.756 934.805 -191.388C888.693 -143.757 851.331 -78.951 829.615 -8.89886C823.679 10.2416 818.467 30.0519 813.43 49.2152C800.753 97.4089 787.65 147.239 761.907 190.507C726.753 249.588 655.53 298.467 587.443 277.583C525.169 258.488 498.803 198.045 470.877 134.06C455.118 97.9419 438.819 60.5899 415.421 30.8286C395.454 5.42979 369.864 -14.5862 339.374 -28.6712C311.091 -41.736 279.101 -49.5095 244.281 -51.7783C179.261 -56.0114 107.148 -40.1753 46.4186 -8.33547C-28.8671 31.1407 -93.5609 88.8589 -156.124 144.674C-192.306 176.948 -229.713 210.325 -268.84 239.896C-331.106 286.963 -492.095 389.373 -641.738 324.041C-707.672 295.254 -765.038 234.262 -812.246 142.748C-828.332 111.562 -842.652 78.8167 -856.509 47.152C-876.118 2.31586 -896.396 -44.0429 -922.001 -86.694C-935.501 -109.182 -950.151 -129.643 -965.803 -147.931C-966.276 -148.484 -967.177 -148.148 -967.177 -147.421C-967.177 -147.233 -967.11 -147.052 -966.988 -146.91C-951.414 -128.753 -936.777 -108.355 -923.31 -85.9098C-897.76 -43.345 -877.505 2.96525 -857.912 47.7532C-857.911 47.7564 -857.906 47.7564 -857.905 47.7534Z" fill="#9DA1C9" fill-opacity="0.3"/>
<path d="M-927.974 -28.8994C-927.97 -28.9033 -927.964 -28.9026 -927.961 -28.8979C-904.504 9.31945 -884.448 50.2007 -865.053 89.7346C-845.901 128.777 -826.094 169.151 -803.175 206.534C-778.932 246.079 -750.991 280.202 -720.12 307.954C-686.236 338.408 -649.712 360.297 -611.559 372.996C-584.661 381.95 -556.438 386.426 -527.082 386.426C-495.237 386.426 -462.061 381.158 -427.789 370.628C-370.788 353.11 -312.349 321.118 -258.803 278.116C-223.039 249.398 -188.79 217.292 -155.667 186.244C-96.2162 130.52 -34.7412 72.9011 37.5618 32.9377C145.369 -26.6534 306.008 -37.32 391.368 60.2931C416.357 88.8743 434.475 125.99 451.991 161.896C466.875 192.396 482.261 223.938 501.565 249.208C523.214 277.545 547.791 295.094 576.714 302.86C609.51 311.669 646.103 305.54 682.528 285.151C713.034 268.074 742.504 241.609 765.499 210.645C796.096 169.448 811.718 123.112 826.83 78.2991C831.448 64.5947 836.235 50.4184 841.325 36.7901C865.667 -28.336 901.796 -86.8689 943.061 -128.02C994.339 -179.16 1050.25 -201.612 1109.25 -194.768C1120.94 -193.413 1133.03 -191.791 1144.72 -190.223C1190.48 -184.094 1237.8 -177.752 1283.82 -183.401C1344.03 -190.801 1397.75 -222.542 1449.7 -253.247C1462.9 -261.053 1476.3 -268.966 1489.9 -276.544C1490.59 -276.926 1490.32 -277.976 1489.53 -277.976C1489.4 -277.976 1489.28 -277.943 1489.16 -277.88C1475.54 -270.288 1462.14 -262.366 1448.92 -254.557C1397.1 -223.935 1343.53 -192.271 1283.63 -184.908C1237.8 -179.282 1190.58 -185.609 1144.92 -191.73C1133.22 -193.298 1121.13 -194.92 1109.42 -196.275C1078.45 -199.869 1047.82 -195.27 1018.36 -182.601C991.821 -171.181 966.117 -153.183 941.973 -129.101C900.563 -87.7977 864.305 -29.0745 839.887 36.2572C834.781 49.9083 830.003 64.0922 825.376 77.8118C810.302 122.511 794.719 168.733 764.266 209.739C720.529 268.63 645.692 319.816 577.095 301.398C513.382 284.291 484.216 224.525 453.346 161.241C435.783 125.252 417.628 88.0368 392.502 59.311C372.163 36.044 346.786 17.9086 317.102 5.40715C289.458 -6.23393 258.557 -12.8273 225.251 -14.1901C193.612 -15.4844 160.938 -12.0431 128.119 -3.9651C95.9323 3.96059 65.2137 15.9367 36.8161 31.6282C-35.6543 71.683 -97.1978 129.371 -156.717 185.155C-189.817 216.18 -224.051 248.271 -259.769 276.944C-315.773 321.917 -462.122 421.167 -611.095 371.565C-683.33 347.514 -751.09 288.631 -801.897 205.75C-824.778 168.428 -844.562 128.092 -863.707 89.0799C-883.118 49.5123 -903.191 8.59722 -926.688 -29.6912C-937.591 -47.4633 -950.64 -66.6004 -965.837 -85.5113C-966.286 -86.0698 -967.185 -85.752 -967.185 -85.0355C-967.185 -84.8621 -967.125 -84.6936 -967.016 -84.5584C-951.865 -65.7024 -938.858 -46.6181 -927.987 -28.901C-927.985 -28.8963 -927.978 -28.8955 -927.974 -28.8994Z" fill="#9DA1C9" fill-opacity="0.3"/>
<path d="M-932.643 28.099C-932.64 28.1066 -932.637 28.1138 -932.632 28.1206C-911.451 61.9598 -892.323 97.7015 -873.827 132.264C-848.998 178.668 -823.317 226.649 -792.766 269.619C-765.761 307.603 -733.848 340.014 -697.917 365.953C-660.761 392.776 -621.353 411.147 -580.78 420.55C-560.357 425.286 -539.401 427.646 -517.981 427.646C-482.111 427.646 -444.94 421.014 -406.894 407.79C-352.838 388.992 -298.47 356.947 -249.679 315.125C-217.333 287.397 -186.264 256.669 -156.223 226.953C-99.8232 171.169 -41.506 113.489 28.0043 72.8704C130.919 12.7311 280.928 -1.09511 368.518 88.8284C395.447 116.481 415.528 153.612 434.946 189.517C451.177 219.53 467.955 250.563 488.454 275.253C511.457 302.959 536.963 319.777 566.426 326.668C600.797 334.7 638.303 327.277 677.886 304.603C707.623 287.572 737.87 262.463 767.767 229.976C803.431 191.23 821.914 149.12 839.796 108.387C843.623 99.6776 847.572 90.6708 851.575 82.0066C880.764 18.8067 963.918 -126.749 1105.05 -113.433C1121.36 -111.895 1137.68 -109.679 1154.95 -107.342C1201.23 -101.068 1249.1 -94.5817 1295.21 -102.089C1356.05 -111.986 1410.49 -144.61 1463.14 -176.153C1493.72 -194.479 1525.33 -213.421 1558.02 -227.849C1676.33 -280.07 1826.01 -262.73 1953.66 -185.285C1954.15 -184.988 1954.78 -185.339 1954.78 -185.912C1954.78 -186.168 1954.64 -186.406 1954.42 -186.539C1938.63 -196.102 1922.34 -204.862 1905.65 -212.744C1868.5 -230.278 1830.15 -243.122 1791.66 -250.918C1708.62 -267.729 1627.61 -260.237 1557.4 -229.25C1524.63 -214.792 1492.97 -195.819 1462.35 -177.47C1409.83 -145.996 1355.52 -113.456 1294.96 -103.604C1249.07 -96.1348 1201.33 -102.606 1155.16 -108.865C1137.87 -111.21 1121.54 -113.418 1105.19 -114.963C1049.48 -120.224 996.858 -101.091 948.767 -58.09C900.662 -15.0736 868.612 41.4874 850.198 81.3594C846.188 90.0389 842.231 99.0533 838.403 107.771C820.575 148.381 802.138 190.378 766.648 228.94C717.249 282.608 642.473 342.877 566.769 325.175C501.824 309.994 469.987 251.118 436.278 188.779C416.813 152.774 396.679 115.552 369.598 87.7472C329.452 46.5276 273.014 24.2351 206.395 23.2834C145.605 22.4307 81.969 39.5535 27.2358 71.538C-42.442 112.255 -100.835 170.004 -157.296 225.857C-187.322 255.55 -218.36 286.255 -250.669 313.953C-356.604 404.767 -476.8 443.078 -580.43 419.058C-659.718 400.679 -736.663 345.884 -791.526 268.721C-822.023 225.826 -847.674 177.891 -872.488 131.525C-891.001 96.9367 -910.138 61.1684 -931.353 27.2805C-942.534 9.41392 -954.026 -7.23844 -965.815 -22.6765C-966.256 -23.2547 -967.177 -22.9415 -967.177 -22.214C-967.177 -22.0468 -967.122 -21.8844 -967.021 -21.7515C-955.268 -6.3564 -943.81 10.2532 -932.653 28.0773C-932.649 28.0841 -932.645 28.0914 -932.643 28.099Z" fill="#9DA1C9" fill-opacity="0.3"/>
<path d="M-937.303 85.1281C-918.486 114.653 -900.817 145.542 -883.734 175.409C-852.993 229.153 -821.209 284.725 -782.341 332.713C-752.794 369.204 -716.004 400.793 -675.956 424.067C-636.13 447.22 -592.567 462.447 -549.978 468.119C-537.347 469.802 -524.594 470.639 -511.711 470.639C-470.827 470.639 -428.793 462.181 -386.296 445.355C-335.245 425.149 -284.849 392.913 -240.541 352.142C-211.595 325.503 -183.715 296.259 -156.755 267.975C-103.43 212.031 -48.2935 154.183 18.47 112.811C114.126 53.532 257.24 36.0665 345.69 117.371C374.811 144.141 396.984 181.424 418.427 217.482C435.928 246.916 454.03 277.362 475.641 301.406C499.899 328.403 526.234 344.46 556.161 350.498C591.719 357.677 629.552 349.272 671.829 324.802C707.912 303.918 741.317 274.576 768.162 251.004L770.057 249.344C811.969 212.541 833.959 174.922 855.227 138.537C857.434 134.761 859.633 131.007 861.832 127.284C932.21 8.20863 1012.6 -45.3983 1100.79 -32.067C1108.9 -30.8412 1117.29 -29.5088 1125.41 -28.2221C1185.25 -18.7281 1247.13 -8.90659 1306.61 -20.738C1368.18 -32.9806 1423.43 -66.5867 1476.86 -99.0889C1507.7 -117.841 1539.58 -137.24 1572.44 -152.414C1687.25 -205.438 1828.79 -195.184 1953.74 -127.441C1954.21 -127.185 1954.79 -127.525 1954.79 -128.063C1954.79 -128.323 1954.65 -128.562 1954.42 -128.685C1904.6 -155.535 1851.05 -173.844 1796.83 -182.32C1717.03 -194.799 1639.23 -184.931 1571.8 -153.792C1538.86 -138.58 1506.94 -119.166 1476.07 -100.383C1422.75 -67.9495 1367.62 -34.4195 1306.31 -22.2227C1247.1 -10.4445 1185.35 -20.2431 1125.64 -29.722C1117.53 -31.0087 1109.12 -32.341 1101.02 -33.5668C1012.16 -47.0123 931.243 6.85341 860.523 126.515C858.324 130.238 856.125 133.992 853.918 137.776C832.712 174.054 810.782 211.566 769.053 248.21L767.158 249.87C711.801 298.49 635.998 365.07 556.458 349.021C490.486 335.705 456.115 277.903 419.728 216.713C398.232 180.564 376.005 143.181 346.717 116.26C306.168 78.9917 251.183 59.7827 187.715 60.7648C129.443 61.6556 69.0486 79.6768 17.6635 111.524C-49.2598 153.003 -104.472 210.919 -157.859 266.932C-184.803 295.193 -212.66 324.422 -241.568 351.031C-336.052 437.985 -448.387 480.111 -549.765 466.619C-636.784 455.039 -721.125 405.886 -781.146 331.761C-819.931 283.864 -851.692 228.346 -882.403 174.663C-899.493 144.78 -917.169 113.877 -936.01 84.3211C-945.826 68.9154 -955.746 54.387 -965.784 40.7291C-966.221 40.1341 -967.162 40.4444 -967.162 41.1828C-967.162 41.346 -967.11 41.5048 -967.013 41.6363C-956.997 55.2666 -947.093 69.764 -937.296 85.1434L-937.303 85.1281Z" fill="#9DA1C9" fill-opacity="0.3"/>
<path d="M-894.452 219.161C-894.45 219.156 -894.444 219.155 -894.442 219.159C-857.668 280.209 -819.647 343.329 -771.932 395.798C-711.788 461.937 -628.756 485.075 -548.464 507.443C-538.876 510.116 -528.961 512.879 -519.381 515.643C-504.551 519.922 -489.583 521.878 -474.57 521.878C-385.345 521.878 -295.221 452.588 -231.432 389.159C-205.873 363.745 -181.181 336.101 -157.303 309.362C-107.082 253.128 -55.1417 194.984 8.89758 152.744C97.644 94.2111 233.971 73.0683 322.832 145.907C354.41 171.793 378.813 209.358 402.402 245.69C421.105 274.484 440.44 304.261 463.078 327.612C488.485 353.817 515.566 369.098 545.859 374.328C577.521 379.787 610.971 373.3 648.127 354.48C680.489 338.088 711.512 314.44 738.882 293.579C750.585 284.656 761.634 276.235 772.302 268.698C821.199 234.148 848.379 202.262 872.028 172.57C928.131 102.122 996.379 28.6966 1096.52 49.2912C1169 64.1985 1245.81 77.3547 1317.98 60.6126C1380.43 46.124 1436.6 11.4139 1490.93 -22.1542C1521.9 -41.2946 1553.92 -61.0822 1586.85 -76.9792C1696.48 -129.921 1832.57 -126.177 1953.71 -69.3633C1954.21 -69.1318 1954.78 -69.4906 1954.78 -70.0357C1954.78 -70.3238 1954.61 -70.586 1954.35 -70.7082C1905.78 -93.4574 1854.02 -108.127 1802 -113.669C1764.74 -117.643 1727.86 -116.844 1692.39 -111.293C1655.13 -105.469 1619.39 -94.3838 1586.19 -78.3497C1553.19 -62.4221 1521.13 -42.6041 1490.13 -23.4485C1435.91 10.0511 1379.85 44.7003 1317.63 59.1355C1245.76 75.8092 1169.15 62.6758 1096.82 47.8066C1049.99 38.1755 1006.19 48.1492 962.928 78.2988C926.107 103.956 896.089 139.93 870.841 171.625C847.26 201.235 820.156 233.021 771.427 267.465C760.736 275.017 749.672 283.453 737.961 292.376C681.014 335.781 616.472 384.98 546.117 372.844C479.301 361.317 442.563 304.756 403.68 244.883C380.023 208.46 355.559 170.788 323.798 144.75C283.051 111.349 229.581 95.2237 169.148 98.132C113.388 100.812 56.1738 119.762 8.06061 151.495C-56.1461 193.842 -108.148 252.062 -158.437 308.372C-182.3 335.088 -206.976 362.718 -232.505 388.101C-306.734 461.907 -416.687 543.699 -518.963 514.204C-528.55 511.44 -538.465 508.677 -548.06 506.004C-628.148 483.689 -710.959 460.612 -770.813 394.801C-818.432 342.443 -856.417 279.38 -893.154 218.388C-908.472 192.966 -924.307 166.677 -940.705 141.346C-949.102 128.379 -957.452 116.08 -965.787 104.412C-966.221 103.805 -967.177 104.113 -967.177 104.859C-967.177 105.02 -967.127 105.176 -967.034 105.307C-958.674 117.002 -950.328 129.284 -941.983 142.176C-925.595 167.48 -909.77 193.751 -894.462 219.162C-894.459 219.166 -894.453 219.165 -894.452 219.161Z" fill="#9DA1C9" fill-opacity="0.3"/>
<path d="M-905.687 263.445C-905.688 263.444 -905.69 263.445 -905.689 263.446C-862.835 331.767 -818.528 402.417 -761.507 458.876C-696.882 522.868 -610.502 539.511 -526.968 555.614C-514.298 558.058 -501.203 560.578 -488.594 563.205C-478.466 565.314 -468.148 566.372 -457.625 566.372C-387.353 566.372 -308.362 519.351 -222.294 426.176C-200.09 402.14 -178.571 376.239 -157.76 351.191C-110.682 294.523 -61.9977 235.929 -0.64447 192.692C79.009 136.557 207.065 106.903 299.996 174.458C334.322 199.407 361.083 237.376 386.962 274.088C406.769 302.19 427.261 331.251 450.819 353.855C477.261 379.224 504.989 393.72 535.578 398.166C565.178 402.468 596.224 396.651 630.488 380.388C660.613 366.083 689.14 345.869 716.731 326.317C736.911 312.019 755.965 298.505 774.577 288.044C803.096 272.01 824.052 257.156 842.543 244.053C856.84 233.919 869.19 225.164 882.095 217.961L882.099 217.959C882.187 217.91 882.263 217.844 882.324 217.763C909.922 182.361 985.619 102.989 1092.27 130.649C1187.13 155.249 1264.68 158.949 1329.37 141.963C1392.9 125.282 1450.12 89.3307 1505.47 54.5673C1536.44 35.1148 1568.46 15.0074 1601.27 -1.55202C1707.9 -55.3535 1836.15 -58.2042 1953.81 -11.3123C1954.28 -11.1274 1954.78 -11.4681 1954.78 -11.9676C1954.78 -12.2569 1954.61 -12.5171 1954.34 -12.6234C1907.09 -31.2916 1857.1 -42.346 1807.2 -44.972C1771.47 -46.8525 1736.1 -44.401 1702.06 -37.6782C1666.52 -30.6585 1632.38 -18.9642 1600.58 -2.91485C1567.7 13.675 1535.65 33.8052 1504.66 53.273C1449.41 87.9755 1392.29 123.858 1328.98 140.486C1264.55 157.403 1187.25 153.703 1092.65 129.172C1049.29 117.927 1006.67 122.922 965.957 144.011C928.923 163.199 901.154 191.794 883.715 213.55C882.051 215.627 880.018 217.365 877.721 218.708C866.046 225.534 854.656 233.603 841.667 242.812C823.207 255.9 802.282 270.723 773.839 286.719C755.166 297.218 736.074 310.747 715.856 325.076C662.211 363.098 601.406 406.198 535.807 396.659C468.328 386.852 429.414 331.654 388.218 273.213C362.263 236.394 335.425 198.326 300.902 173.232C260.139 143.6 208.214 130.512 150.734 135.377C97.4691 139.885 43.3979 159.802 -1.51184 191.451C-63.0325 234.803 -111.777 293.48 -158.924 350.224C-179.72 375.257 -201.231 401.143 -223.405 425.148C-321.975 531.86 -411.087 577.815 -488.275 561.728C-500.891 559.101 -513.994 556.573 -526.671 554.129C-609.984 538.072 -696.136 521.475 -760.427 457.803C-817.321 401.463 -861.584 330.885 -904.393 262.63C-917.679 241.449 -931.414 219.553 -945.354 198.341C-952.284 187.804 -959.088 177.761 -965.802 168.17C-966.219 167.574 -967.154 167.869 -967.154 168.597C-967.154 168.749 -967.107 168.898 -967.02 169.024C-959.871 179.259 -953.082 189.358 -946.625 199.186C-932.694 220.379 -918.961 242.273 -905.685 263.443C-905.684 263.444 -905.686 263.446 -905.687 263.445Z" fill="#9DA1C9" fill-opacity="0.3"/>
<path d="M-917.314 308.201C-917.314 308.203 -917.313 308.206 -917.312 308.208C-868.385 383.786 -817.792 461.938 -751.098 521.955C-711.537 557.563 -663.082 584.507 -610.974 599.872C-577.501 609.746 -543 614.741 -509.124 614.741C-491.714 614.741 -474.456 613.424 -457.602 610.767C-412.669 603.686 -368.216 586.837 -325.467 560.685C-284.005 535.316 -246.225 502.51 -213.163 463.178C-194.277 440.711 -175.9 416.72 -158.133 393.514C-114.258 336.238 -68.8992 277.02 -10.2015 232.61C79.8157 164.514 197.98 152.325 277.154 202.978C314.508 226.869 343.78 265.34 372.087 302.548C392.913 329.918 414.447 358.226 438.827 380.061C466.19 404.562 494.473 418.274 525.291 421.974C530.8 422.636 536.248 422.948 541.651 422.948C598.233 422.948 648.979 388.307 698.196 354.708C725.33 336.184 750.95 318.689 776.837 307.36C782.59 304.84 788.091 302.418 793.372 300.096C836.082 281.306 864.298 268.888 892.147 263.216C892.277 263.191 892.397 263.132 892.495 263.043L892.497 263.041C954.497 207.904 1020.27 190.72 1088 211.977C1130.33 225.263 1172.35 233.31 1212.87 235.899C1258.87 238.838 1301.88 234.589 1340.73 223.283C1405.57 204.409 1464.03 167.073 1520.57 130.962C1551.34 111.311 1583.16 90.983 1615.68 73.8525C1717.91 19.9699 1840.81 10.8353 1953.78 46.9316C1954.27 47.0886 1954.78 46.7227 1954.78 46.2068C1954.78 45.8762 1954.56 45.5832 1954.25 45.4826C1840.89 9.25725 1717.57 18.4263 1614.97 72.5049C1582.4 89.6734 1550.56 110.009 1519.76 129.683C1463.31 165.733 1404.94 203.008 1340.31 221.822C1247.75 248.766 1152.26 230.547 1088.45 210.523C1049.26 198.22 1010.14 198.813 972.204 212.289C946.128 221.552 920.409 236.995 895.68 258.231C893.014 260.521 889.82 262.112 886.397 262.913C860.113 269.064 832.785 281.085 792.755 298.695C787.475 301.018 781.973 303.439 776.221 305.959C750.212 317.349 724.523 334.883 697.336 353.444C643.66 390.088 588.158 427.981 525.473 420.459C457.493 412.297 416.593 358.538 373.296 301.627C344.914 264.32 315.557 225.735 277.976 201.699C237.373 175.729 187.03 165.626 132.396 172.486C81.6343 178.866 30.6677 199.788 -11.1147 231.399C-69.9721 275.931 -115.407 335.233 -159.343 392.586C-177.102 415.769 -195.471 439.751 -214.334 462.196C-281.25 541.818 -370.004 595.418 -457.838 609.251C-559.664 625.293 -671.642 591.405 -750.078 520.82C-816.621 460.932 -867.161 382.871 -916.035 307.375C-927.114 290.26 -938.574 272.558 -950.041 255.344C-955.377 247.331 -960.63 239.595 -965.805 232.124C-966.224 231.52 -967.169 231.817 -967.169 232.551C-967.169 232.703 -967.123 232.852 -967.037 232.978C-961.665 240.755 -956.429 248.502 -951.312 256.181C-939.853 273.387 -928.394 291.08 -917.316 308.194C-917.314 308.196 -917.314 308.198 -917.314 308.201Z" fill="#9DA1C9" fill-opacity="0.3"/>
<path d="M-929.154 353.395C-929.156 353.394 -929.158 353.396 -929.157 353.398C-874.189 436.208 -817.357 521.827 -740.681 585.025C-697.323 620.756 -644.964 646.405 -589.264 659.204C-562.427 665.371 -535.307 668.447 -508.599 668.447C-480.605 668.447 -453.067 665.059 -426.807 658.29C-344.125 636.972 -265.012 580.823 -204.032 500.18C-188.395 479.494 -173.108 457.613 -158.331 436.455C-117.758 378.371 -75.8085 318.308 -19.7436 272.543C63.296 204.752 175.996 187.881 254.326 231.514C294.997 254.164 326.91 293.237 357.766 331.023C379.513 357.647 401.998 385.185 427.109 406.237C455.286 429.861 484.041 442.797 515.003 445.789C519.492 446.223 523.936 446.428 528.35 446.428C584.194 446.428 633.859 413.035 682.011 380.663C715.042 358.454 746.24 337.479 779.089 326.675C830.185 309.88 866.991 304.421 902.184 308.41C902.327 308.425 902.473 308.399 902.602 308.334C946.873 286.468 1007.47 264.998 1083.74 293.313C1134.11 312.012 1187.26 321.452 1238.68 321.452C1278.21 321.452 1316.71 315.872 1352.12 304.619C1418.55 283.506 1478.48 244.578 1536.44 206.945C1566.78 187.233 1598.16 166.86 1630.11 149.272C1730.17 94.1833 1845.55 78.9435 1953.92 105.192C1954.36 105.299 1954.78 104.964 1954.78 104.51C1954.78 104.185 1954.56 103.903 1954.25 103.828C1909.92 93.2432 1863.54 89.359 1817.65 92.5514C1751.99 97.1272 1686.89 116.275 1629.38 147.94C1597.38 165.55 1565.98 185.947 1535.61 205.673C1477.75 243.261 1417.91 282.128 1351.66 303.18C1270.52 328.967 1173.06 324.856 1084.28 291.897C1049.13 278.847 1013.52 275.132 978.428 280.834C950.178 285.428 926.043 295.4 907.408 304.324C903.955 305.978 900.119 306.634 896.304 306.319C862.695 303.551 827.026 309.334 778.625 325.244C745.578 336.108 714.289 357.145 681.174 379.414C629.446 414.193 575.961 450.159 515.163 444.289C446.839 437.688 404.144 385.414 358.953 330.071C328.006 292.171 296.002 252.984 255.072 230.189C214.765 207.744 166.043 200.587 114.156 209.495C65.9287 217.771 18.0363 239.751 -20.7024 271.37C-76.927 317.272 -118.945 377.419 -159.571 435.587C-174.34 456.737 -189.62 478.603 -205.242 499.266C-266.009 579.642 -344.833 635.594 -427.18 656.821C-532.423 683.955 -652.178 655.991 -739.699 583.853C-816.202 520.797 -872.975 435.267 -927.883 352.554C-936.649 339.344 -945.711 325.693 -954.706 312.362C-958.232 307.134 -961.922 301.7 -965.765 296.108C-966.189 295.491 -967.154 295.791 -967.154 296.54C-967.154 296.694 -967.107 296.845 -967.02 296.972C-963.299 302.381 -959.615 307.798 -955.961 313.214C-946.976 326.536 -937.915 340.192 -929.151 353.392C-929.15 353.394 -929.152 353.396 -929.154 353.395Z" fill="#9DA1C9" fill-opacity="0.3"/>
<path d="M-941.165 398.939C-941.162 398.941 -941.16 398.944 -941.158 398.947C-880.217 488.968 -817.198 582.065 -730.271 648.103C-682.881 684.108 -626.534 708.608 -567.342 718.962C-546.455 722.617 -525.613 724.429 -505.099 724.429C-467.045 724.429 -430.102 718.178 -396.028 705.814C-357.266 691.752 -319.791 669.368 -284.651 639.302C-251.566 610.995 -221.373 576.635 -194.916 537.174C-182.414 518.536 -170.148 498.992 -158.277 480.095C-121.144 420.969 -82.7404 359.824 -29.3083 312.468C47.1113 244.738 154.348 223.177 231.475 260.041C275.731 281.192 310.406 320.957 343.94 359.413C366.509 385.299 389.846 412.061 415.604 432.351C444.496 455.108 473.639 467.297 504.7 469.612C564.828 474.088 617.066 438.982 667.583 405.026C704.047 380.518 741.751 355.173 781.342 345.998C829.653 334.799 871.252 337.205 912.251 353.566C912.361 353.611 912.48 353.629 912.598 353.617L914.518 353.429C954.52 349.554 1009.3 344.247 1079.46 374.663C1122.3 393.24 1170.68 404.158 1219.37 406.244C1268.79 408.361 1318.61 401.349 1363.48 385.962C1431.9 362.497 1493.6 321.734 1553.26 282.319C1582.86 262.759 1613.46 242.538 1644.51 224.692C1741.34 169.006 1851.45 147.726 1953.89 163.699C1954.35 163.771 1954.77 163.415 1954.77 162.948C1954.77 162.574 1954.5 162.256 1954.13 162.198C1851.34 146.171 1740.89 167.516 1643.75 223.375C1612.67 241.251 1582.04 261.48 1552.42 281.055C1492.84 320.417 1431.23 361.126 1362.98 384.53C1273.15 415.342 1167.39 411.132 1080.07 373.27C1009.55 342.694 954.543 348.023 914.374 351.914C913.234 352.024 912.082 351.857 911.014 351.442C870.29 335.606 828.916 333.409 780.992 344.514C741.134 353.756 703.309 379.178 666.731 403.762C616.427 437.574 564.402 472.543 504.814 468.096C436.278 462.988 391.985 412.19 345.089 358.408C311.456 319.838 276.674 279.951 232.13 258.663C192.242 239.599 145.149 235.343 95.9321 246.345C50.2767 256.554 5.44305 279.631 -30.3204 311.326C-83.9199 358.835 -122.377 420.07 -159.571 479.288C-171.434 498.178 -183.7 517.706 -196.187 536.329C-250.676 617.588 -321.838 677.278 -396.553 704.39C-502.26 742.747 -632.896 720.173 -729.358 646.893C-816.088 581.005 -879.032 488.021 -939.913 398.09C-946.297 388.664 -952.895 378.912 -959.4 369.372C-961.496 366.295 -963.634 363.177 -965.795 360.035C-966.217 359.422 -967.177 359.72 -967.177 360.464C-967.177 360.618 -967.13 360.768 -967.043 360.894C-964.897 364.012 -962.773 367.129 -960.656 370.225C-954.151 379.763 -947.555 389.507 -941.172 398.931C-941.17 398.934 -941.167 398.936 -941.165 398.939Z" fill="#9DA1C9" fill-opacity="0.3"/>
<path d="M-965.324 427.231C-965.322 427.243 -965.317 427.255 -965.309 427.266C-961.288 433.1 -957.266 438.95 -953.245 444.799C-886.397 542.031 -817.275 642.576 -719.862 711.166C-668.187 747.551 -607.755 771.047 -545.093 779.109C-529.395 781.127 -513.849 782.132 -498.532 782.132C-450.814 782.132 -405.41 772.394 -365.241 753.338C-329.485 736.375 -295.396 711.326 -263.916 678.87C-235.579 649.664 -209.29 614.436 -185.785 574.168C-176.273 557.875 -166.883 540.943 -157.805 524.566C-124.294 464.122 -89.642 401.623 -38.8503 352.394C20.4257 294.942 119.939 252.93 208.655 288.569C256.738 307.885 294.29 348.419 330.601 387.621C353.908 412.784 378.014 438.8 404.334 458.351C433.851 480.278 463.321 491.752 494.42 493.427C496.984 493.564 499.526 493.632 502.06 493.632C558.254 493.632 607.204 460.414 654.602 428.247C695.373 400.58 737.535 371.968 783.609 365.299C836.121 357.7 874.897 376.133 912.396 393.956C915.782 395.562 919.145 397.161 922.485 398.73C938.191 406.077 955.692 411.528 975.963 417.84C1004.86 426.846 1037.62 437.048 1075.21 455.991C1118.59 477.857 1169.48 490.282 1222.37 491.934C1273.78 493.541 1326.52 485.021 1374.85 467.289C1445.78 441.282 1509.65 398.341 1571.42 356.809C1599.85 337.699 1629.25 317.935 1658.93 300.096C1754.86 242.442 1857.77 215.555 1953.95 222.213C1954.39 222.244 1954.77 221.894 1954.77 221.451C1954.77 221.051 1954.46 220.718 1954.06 220.691C1857.56 214.012 1754.34 240.974 1658.15 298.787C1628.43 316.648 1599.02 336.42 1570.58 355.546C1508.88 397.024 1445.09 439.911 1374.34 465.858C1274.25 502.563 1162.69 498.36 1075.9 454.628C1038.19 435.625 1005.37 425.4 976.42 416.378C956.209 410.081 938.754 404.645 923.14 397.336C919.799 395.776 916.444 394.177 913.057 392.57C875.354 374.648 836.364 356.109 783.396 363.776C736.972 370.499 694.665 399.209 653.75 426.976C604.419 460.452 553.399 495.079 494.504 491.896C425.869 488.196 380.137 438.838 331.719 386.571C295.286 347.247 257.621 306.583 209.218 287.138C169.825 271.309 124.368 269.901 77.746 283.065C34.7234 295.216 -7.06653 319.442 -39.9156 351.274C-90.8671 400.663 -125.58 463.262 -159.145 523.797C-168.223 540.166 -177.605 557.091 -187.109 573.369C-236.622 658.184 -298.455 719.929 -365.903 751.929C-470.751 801.668 -612.648 784.774 -718.994 709.887C-816.179 641.449 -885.226 541.019 -951.997 443.901C-956.022 438.038 -960.047 432.191 -964.073 426.351C-964.645 425.522 -965.218 424.692 -965.79 423.862C-966.214 423.248 -967.177 423.548 -967.177 424.294C-967.177 424.449 -967.13 424.6 -967.042 424.727C-966.474 425.549 -965.907 426.375 -965.339 427.196C-965.332 427.206 -965.327 427.218 -965.324 427.231Z" fill="#9DA1C9" fill-opacity="0.3"/>
<path d="M-709.464 774.233C-709.457 774.23 -709.449 774.231 -709.442 774.236C-654.072 810.541 -587.663 833.744 -522.44 839.576C-511.277 840.573 -500.252 841.068 -489.363 841.068C-432.157 841.068 -379.12 827.379 -334.454 800.853C-301.468 781.271 -270.666 753.551 -242.915 718.475C-219.387 688.744 -197.716 653.638 -176.654 611.162C-169.904 597.549 -163.201 583.51 -156.725 569.943C-127.102 507.892 -96.4753 443.725 -48.3925 392.326C5.78522 334.41 99.2114 288.691 185.827 317.105C237.92 334.189 278.447 375.569 317.635 415.586C341.611 440.063 366.402 465.378 393.217 484.245C423.289 505.395 453.026 516.191 484.132 517.265C485.791 517.325 487.427 517.348 489.071 517.348C546.071 517.348 595.227 483.46 642.8 450.661C687.436 419.887 733.586 388.07 785.877 384.614C844.346 380.754 890.952 410.797 932.613 443.84C973.573 476.327 1017.52 506.035 1070.94 537.341C1114.6 562.93 1167.9 577.016 1225.07 578.074C1278.5 579.071 1334.22 568.892 1386.23 548.647C1460.37 519.785 1527 474.172 1591.44 430.059C1618.09 411.809 1645.65 392.943 1673.34 375.539C1769.21 315.285 1865.16 283.091 1953.99 280.966C1954.42 280.955 1954.76 280.604 1954.76 280.173C1954.76 279.729 1954.4 279.372 1953.95 279.382C1914.9 280.255 1874.57 286.873 1833.49 299.205C1780.69 315.049 1726.55 340.295 1672.53 374.244C1644.81 391.672 1617.23 410.546 1590.57 428.795C1526.2 472.862 1459.64 518.422 1385.67 547.224C1274.73 590.408 1157.36 586.22 1071.7 536.024C1018.35 504.755 974.448 475.086 933.549 442.644C891.652 409.411 844.757 379.201 785.77 383.091C733.061 386.571 686.728 418.517 641.925 449.405C593.188 483.011 542.792 517.767 484.17 515.742C415.52 513.374 368.495 465.363 318.708 414.52C279.391 374.374 238.734 332.857 186.284 315.658C147.431 302.913 103.594 304.314 59.5217 319.708C19.2079 333.794 -19.5231 359.215 -49.5187 391.283C-97.7612 442.857 -128.442 507.131 -158.11 569.288C-164.586 582.855 -171.282 596.887 -178.031 610.492C-223.291 701.771 -274.714 763.616 -335.253 799.552C-439.743 861.587 -589.79 850.905 -708.638 772.965C-816.492 702.235 -891.549 594.367 -964.141 490.038L-965.807 487.644C-966.233 487.033 -967.193 487.334 -967.193 488.079C-967.193 488.234 -967.145 488.386 -967.056 488.514L-965.389 490.906C-892.723 595.346 -817.577 703.34 -709.485 774.23C-709.479 774.234 -709.471 774.235 -709.464 774.233Z" fill="#9DA1C9" fill-opacity="0.3"/>
<path d="M-699.043 837.299C-639.059 874.088 -568.149 896.441 -499.377 900.248C-492.262 900.644 -485.224 900.834 -478.246 900.834C-411.49 900.834 -351.484 882.859 -303.675 848.362C-272.644 825.97 -245.814 796.422 -221.647 758.035C-197.998 720.47 -180.299 679.577 -167.515 648.141C-163.216 637.558 -158.917 626.732 -154.762 616.256C-129.4 552.294 -103.171 486.148 -57.9268 432.237C-8.68744 373.567 78.7274 324.025 163.007 345.625C219.24 360.03 262.81 402.323 304.95 443.215C329.536 467.076 354.95 491.744 382.222 509.971C412.796 530.405 442.769 540.577 473.852 541.08C474.636 541.095 475.412 541.095 476.188 541.095C534.308 541.095 583.958 506.202 631.995 472.436C679.941 438.739 729.507 403.899 787.391 403.899C787.65 403.899 787.916 403.899 788.175 403.899C840.016 404.181 892.048 432.792 942.825 488.935C954.201 501.52 965.242 514.859 975.925 527.764C1002.91 560.365 1030.81 594.077 1066.7 618.662C1089.24 634.094 1114.88 645.834 1142.91 653.554C1169.15 660.78 1197.57 664.518 1227.4 664.663C1228.02 664.663 1228.63 664.663 1229.24 664.663C1284.17 664.663 1342.35 652.679 1397.63 629.975C1476.04 597.77 1546.28 548.739 1614.2 501.322C1638.19 484.58 1662.99 467.259 1687.79 450.943C1753.59 407.644 1848.81 352.339 1954.08 339.741C1954.49 339.692 1954.79 339.348 1954.79 338.939C1954.79 338.457 1954.37 338.083 1953.89 338.139C1916.84 342.496 1878.82 352.429 1838.85 368.161C1791.95 386.616 1742.27 413.279 1686.95 449.679C1662.13 466.003 1637.32 483.323 1613.33 500.081C1545.47 547.452 1475.3 596.438 1397.04 628.574C1302.41 667.441 1166.15 684.922 1067.56 617.405C1031.84 592.943 1004 559.314 977.089 526.797C966.398 513.884 955.35 500.53 943.951 487.922C892.885 431.445 840.473 402.666 788.182 402.384C787.916 402.384 787.657 402.384 787.391 402.384C729.028 402.384 679.256 437.36 631.12 471.195C582.641 505.266 532.504 540.493 473.875 539.557C405.263 538.453 357.05 491.66 306.008 442.119C263.731 401.082 220.008 358.652 163.388 344.148C125.068 334.327 82.8441 338.499 41.2824 356.2C3.75366 372.189 -31.8956 398.844 -59.0986 431.254C-104.503 485.356 -130.778 551.609 -156.185 615.692C-160.339 626.169 -164.631 636.995 -168.93 647.57C-199.322 722.312 -236.782 798.212 -304.565 847.129C-423.102 932.667 -591.73 901.322 -698.244 835.998C-812.816 765.736 -894.282 652.954 -965.789 551.259C-966.217 550.651 -967.17 550.959 -967.17 551.703C-967.17 551.86 -967.122 552.012 -967.031 552.141C-932.734 600.915 -894.277 654.868 -851.89 703.606C-801.798 761.21 -751.805 804.942 -699.043 837.299Z" fill="#9DA1C9" fill-opacity="0.3"/>
<path d="M-947.408 588.942C-947.408 588.939 -947.404 588.937 -947.402 588.94C-870.109 696.06 -790.183 806.825 -674.922 877.263C-612.206 915.46 -537.392 937.547 -464.252 939.458C-460.714 939.549 -457.198 939.595 -453.691 939.595C-379.28 939.595 -312.281 918.787 -259.374 879.136C-194.353 830.417 -156.71 755.264 -128.464 688.173C-124.317 678.329 -120.178 668.256 -116.168 658.511C-91.1105 597.61 -65.1934 534.639 -21.6077 483.179C25.4021 427.691 108.761 379.871 189.001 398.136C243.939 410.576 287.107 450.167 328.851 488.455C341.566 500.119 354.722 512.179 367.947 523.226C399.274 549.455 438.043 576.566 488.021 578.782C490.281 578.889 492.518 578.934 494.755 578.934C548.507 578.934 594.992 549.363 639.993 520.729C685.351 491.866 732.247 462.036 786.805 462.036C787.125 462.036 787.452 462.036 787.772 462.036C798.052 462.105 808.529 463.269 818.924 465.508C857.86 473.89 897.299 497.713 936.144 536.321C947.033 547.201 957.617 558.72 967.852 569.867C993.959 598.28 1020.95 627.669 1055.35 648.979C1073.86 660.422 1094.66 669.52 1117.18 676.03C1146.29 684.42 1178.26 688.562 1211.67 688.562C1263.3 688.562 1318.35 678.664 1371.49 659.219C1381.46 655.564 1391.64 651.522 1401.75 647.212C1445.41 628.59 1485.35 602.399 1523.97 577.069C1563.15 551.366 1603.67 524.794 1647.58 506.598C1680.81 492.833 1718.93 483.095 1759.28 472.779C1785.91 465.972 1813.46 458.937 1840.75 450.41C1850.08 447.494 1859.43 444.548 1868.79 441.609C1897.06 432.712 1925.8 423.666 1954.21 415.23C1954.53 415.134 1954.75 414.837 1954.75 414.499C1954.75 413.989 1954.26 413.622 1953.78 413.767C1925.35 422.204 1896.61 431.25 1868.33 440.155C1858.98 443.101 1849.63 446.04 1840.3 448.956C1813.05 457.476 1785.53 464.503 1758.91 471.309C1718.5 481.633 1680.33 491.386 1647.01 505.197C1602.96 523.447 1562.38 550.064 1523.14 575.798C1484.57 601.09 1444.7 627.242 1401.16 645.812C1391.07 650.113 1380.91 654.148 1370.97 657.795C1283.73 689.719 1191.38 695.833 1117.61 674.576C1095.22 668.104 1074.54 659.059 1056.16 647.692C1021.94 626.488 995.017 597.184 968.978 568.846C958.736 557.693 948.136 546.158 937.225 535.255C898.174 496.434 858.477 472.474 819.251 464.031C808.758 461.777 798.173 460.597 787.794 460.529C787.467 460.529 787.14 460.529 786.813 460.529C731.813 460.529 684.727 490.488 639.186 519.457C592.511 549.15 544.253 579.863 488.105 577.267C438.576 575.074 400.073 548.13 368.936 522.069C355.734 511.044 342.593 499 329.886 487.343C287.989 448.926 244.67 409.191 189.343 396.666C152.758 388.337 112.558 393.042 73.0739 410.264C37.379 425.834 3.34296 451.385 -22.7643 482.204C-66.5098 533.847 -92.4649 596.933 -117.568 657.94C-121.578 667.678 -125.717 677.75 -129.864 687.595C-158.026 754.495 -195.547 829.427 -260.279 877.933C-368.68 959.162 -538.861 958.355 -674.13 875.976C-789.136 805.703 -868.972 695.056 -946.176 588.055L-946.465 587.652C-952.924 578.704 -959.364 569.803 -965.821 560.961C-966.247 560.378 -967.169 560.679 -967.169 561.401C-967.169 561.559 -967.119 561.713 -967.027 561.84C-960.434 570.901 -953.998 579.82 -947.705 588.55L-947.415 588.945C-947.413 588.947 -947.408 588.946 -947.408 588.942Z" fill="#9DA1C9" fill-opacity="0.3"/>
<path d="M-917.207 640.539C-917.207 640.537 -917.206 640.537 -917.205 640.538C-841.083 743.175 -762.374 849.299 -650.8 917.218C-585.27 956.877 -506.537 978.72 -429.105 978.713C-389.545 978.713 -351.43 973.079 -315.827 961.963C-278.42 950.291 -244.521 932.78 -215.058 909.909C-153.37 862.02 -116.921 791.184 -89.3986 728.205C-85.4266 719.114 -81.447 709.818 -77.5967 700.826C-52.8287 642.971 -27.2159 583.152 14.7338 534.121C56.227 485.638 133.582 434.688 215.024 450.653C268.897 461.084 311.859 498.116 353.413 533.923C364.629 543.592 376.233 553.588 387.853 562.892C418.29 587.408 455.681 612.943 502.219 616.476C556.443 620.785 603.164 594.481 648.332 569.044C690.997 545.008 735.1 520.165 786.204 520.165C786.599 520.165 787.01 520.165 787.414 520.165C797.176 520.241 807.175 521.261 817.151 523.203C854.276 530.428 892.086 550.787 929.516 583.707C940.146 593.057 950.472 602.962 960.463 612.54C985.505 636.561 1011.4 661.396 1044.05 679.288C1061.64 688.873 1081.47 696.494 1103.01 701.938C1173.88 719.7 1262.23 714.79 1345.41 688.454C1354.9 685.432 1364.59 682.097 1374.2 678.534C1433.57 656.538 1488.16 626.701 1540.96 597.846C1561.2 586.784 1582.08 575.378 1603 564.531C1605.92 563.015 1609.18 562.264 1612.47 562.288C1614.08 562.3 1615.7 562.306 1617.32 562.306C1685.11 562.306 1764.71 551.274 1842.78 530.984C1878.03 521.803 1915.29 510.154 1954.27 496.142C1954.58 496.034 1954.78 495.748 1954.78 495.428C1954.78 494.902 1954.25 494.536 1953.76 494.714C1914.82 508.704 1877.61 520.344 1842.4 529.514C1760.56 550.787 1677.06 561.857 1607.29 560.707H1607.28C1607.16 560.707 1607.04 560.736 1606.93 560.791C1584.44 572.348 1561.97 584.636 1540.23 596.513C1487.49 625.346 1432.94 655.153 1373.68 677.11C1364.09 680.666 1354.42 683.993 1344.95 687.008C1262.03 713.259 1173.99 718.162 1103.38 700.469C1081.97 695.063 1062.25 687.488 1044.78 677.963C1012.31 660.17 986.486 635.403 961.521 611.451C951.522 601.858 941.181 591.945 930.528 582.573C892.893 549.477 854.847 528.997 817.447 521.718C807.38 519.761 797.283 518.734 787.436 518.657C787.026 518.657 786.622 518.657 786.219 518.657C734.72 518.657 690.434 543.599 647.602 567.734C602.631 593.064 556.131 619.263 502.356 614.976C456.222 611.482 419.073 586.098 388.819 561.727C377.215 552.431 365.626 542.45 354.418 532.788C312.711 496.852 269.59 459.683 215.321 449.176C180.478 442.339 142.287 447.577 104.888 464.32C71.027 479.478 38.6039 503.918 13.5848 533.146C-28.5171 582.352 -54.1755 642.278 -78.9892 700.24C-82.8395 709.232 -86.8191 718.528 -90.7911 727.611C-118.238 790.415 -154.572 861.038 -215.993 908.722C-329.181 996.597 -511.719 999.635 -650.017 915.932C-761.332 848.171 -839.958 742.16 -915.99 639.644L-919.528 634.87C-934.869 614.185 -950.168 593.736 -965.757 573.656C-966.218 573.061 -967.17 573.388 -967.17 574.14C-967.17 574.316 -967.111 574.486 -967.003 574.625C-951.612 594.415 -936.273 614.846 -920.746 635.769L-917.21 640.539C-917.209 640.54 -917.207 640.54 -917.207 640.539Z" fill="#9DA1C9" fill-opacity="0.3"/>
<path d="M-886.884 692.052C-886.886 692.051 -886.888 692.054 -886.887 692.055C-811.998 790.245 -734.56 891.768 -626.687 957.182C-561.087 996.658 -482.408 1018.15 -404.056 1018.15C-400.692 1018.15 -397.314 1018.11 -393.943 1018.03C-352.655 1017.05 -312.828 1010.16 -275.558 997.565C-236.614 984.401 -201.353 965.26 -170.749 940.684C-112.485 893.891 -77.1856 827.25 -50.3403 768.237C-46.5585 759.923 -42.7614 751.419 -39.0862 743.204C-14.592 688.371 10.7391 631.673 51.0681 585.063C102.986 525.084 177.556 492.94 241.033 503.172C294.427 511.585 337.7 546.47 379.551 580.206C388.751 587.621 398.262 595.288 407.743 602.574C438.888 626.488 473.609 649.283 516.403 654.179C522.331 654.857 528.167 655.176 533.927 655.176C578.639 655.176 618.413 635.998 657.014 617.375C696.856 598.159 738.038 578.295 785.519 578.295C786.029 578.295 786.531 578.295 787.041 578.295C796.271 578.379 805.798 579.254 815.363 580.899C851.02 587.035 886.189 603.458 922.889 631.095C933.108 638.784 943.046 646.938 952.656 654.818C976.755 674.591 1001.68 695.033 1032.74 709.598C1049.37 717.326 1068.23 723.462 1088.82 727.832C1156.55 742.024 1240.55 738.324 1319.3 717.676C1328.34 715.285 1337.53 712.651 1346.62 709.849C1402.82 692.521 1454.36 668.926 1504.22 646.109C1522.89 637.565 1542.13 628.758 1561.43 620.36C1565.25 618.698 1569.49 618.303 1573.57 619.128C1611.91 626.872 1654 630.322 1698.82 629.412C1747.03 628.43 1796.14 622.415 1844.79 611.543C1880.99 603.433 1917.84 592.389 1954.28 578.875C1954.58 578.764 1954.78 578.48 1954.78 578.162C1954.78 577.633 1954.25 577.266 1953.75 577.45C1917.37 590.943 1880.59 601.965 1844.46 610.059C1747.33 631.772 1648.93 633.98 1567.4 616.279C1567.25 616.244 1567.09 616.26 1566.94 616.324C1545.58 625.506 1524.24 635.274 1503.6 644.723C1453.79 667.518 1402.29 691.097 1346.18 708.395C1337.12 711.189 1327.94 713.816 1318.93 716.206C1240.4 736.793 1156.64 740.486 1089.14 726.34C1068.67 721.993 1049.92 715.894 1033.4 708.212C1002.5 693.724 977.66 673.342 953.63 653.631C944.004 645.736 934.059 637.574 923.817 629.869C886.92 602.08 851.529 585.573 815.636 579.391C805.995 577.731 796.385 576.856 787.071 576.772C738.608 576.361 696.795 596.499 656.375 615.997C611.001 637.878 568.146 658.549 516.601 652.664C474.172 647.814 439.664 625.141 408.695 601.364C399.221 594.093 389.717 586.434 380.525 579.018C338.522 545.153 295.081 510.138 241.291 501.665C208.184 496.328 172.017 502.099 136.695 518.353C104.667 533.093 73.8501 556.429 49.9343 584.066C9.46075 630.851 -15.9161 687.648 -40.4559 742.587C-44.1235 750.802 -47.9205 759.307 -51.7023 767.613C-78.4716 826.458 -113.664 892.901 -171.685 939.504C-291.173 1035.46 -482.187 1042.35 -625.88 955.888C-733.505 890.632 -810.861 789.213 -885.667 691.135L-892.569 682.09C-915.673 651.818 -939.892 620.511 -965.731 589.993C-966.217 589.419 -967.154 589.762 -967.154 590.515C-967.154 590.706 -967.086 590.892 -966.963 591.038C-941.966 620.533 -917.823 651.503 -893.778 683.011L-886.882 692.049C-886.881 692.051 -886.883 692.053 -886.884 692.052Z" fill="#9DA1C9" fill-opacity="0.3"/>
<path d="M1527.47 671.872C1527.46 671.877 1527.45 671.878 1527.44 671.875L1527.31 671.826C1527.24 671.802 1527.17 671.801 1527.1 671.823L1526.96 671.872C1506.65 678.679 1486.38 685.942 1466.77 692.962C1419.97 709.727 1371.57 727.055 1318.68 739.694C1310.11 741.742 1301.44 743.668 1292.89 745.419C1218.9 760.342 1139.43 762.831 1074.88 752.233C1054.83 748.868 1037.53 744.368 1021.98 738.483C992.612 727.352 968.719 711.318 945.617 695.809C936.403 689.62 926.868 683.224 917.075 677.187C881.395 655.191 847.618 642.073 813.81 637.094C804.58 635.739 795.457 635 786.698 634.909C742.123 634.46 703.423 649.679 666.016 664.411C622.019 681.74 580.465 698.101 530.838 690.366C494.268 684.663 463.504 666.512 428.554 641.015C421.622 635.952 414.637 630.721 407.88 625.666C365.162 593.689 320.99 560.616 267.239 554.175C235.843 550.414 201.693 556.733 168.478 572.47C137.821 586.989 109.393 608.619 86.2606 635.008C47.385 679.395 22.2669 733.1 -2.02173 785.032C-5.49158 792.448 -9.0755 800.122 -12.6442 807.622C-38.7896 862.66 -72.8714 925.022 -127.407 970.285C-252.952 1074.49 -452.451 1085.23 -601.774 995.836C-705.716 933.07 -781.74 836.203 -855.261 742.518C-858.723 738.11 -862.177 733.702 -865.64 729.301C-895.057 691.873 -928.804 649.74 -965.902 610.337C-966.357 609.853 -967.17 610.175 -967.17 610.84C-967.17 611.027 -967.098 611.207 -966.97 611.344C-932.088 648.432 -899.378 688.853 -866.834 730.245C-863.38 734.646 -859.917 739.047 -856.455 743.463C-782.851 837.254 -706.744 934.227 -602.558 997.145C-536.677 1036.58 -457.845 1057.86 -378.572 1057.86C-371.96 1057.86 -365.34 1057.7 -358.728 1057.41C-315.697 1055.47 -274.143 1047.33 -235.237 1033.23C-194.756 1018.57 -158.156 997.785 -126.433 971.45C-71.6767 925.997 -37.4884 863.452 -11.267 808.269C-7.69824 800.754 -4.11432 793.088 -0.644531 785.664C23.5985 733.824 48.671 680.217 87.4097 635.997C136.489 580 207.004 548.472 267.056 555.675C320.397 562.07 362.445 593.552 406.967 626.876C413.732 631.939 420.717 637.17 427.656 642.233C462.788 667.868 493.735 686.11 530.602 691.858C580.64 699.654 622.377 683.217 666.571 665.812C703.294 651.346 741.241 636.401 784.712 636.401C785.367 636.401 786.029 636.401 786.683 636.409C795.38 636.5 804.436 637.231 813.597 638.571C847.192 643.52 880.787 656.569 916.291 678.458C926.062 684.48 935.581 690.876 944.788 697.05C967.966 712.605 991.927 728.7 1021.47 739.884C1037.1 745.808 1054.5 750.33 1074.65 753.71C1101.14 758.058 1130.13 760.212 1160.21 760.212C1203.65 760.212 1249.39 755.728 1293.21 746.889C1301.78 745.137 1310.47 743.211 1319.05 741.156C1372.02 728.502 1420.45 711.151 1467.3 694.378C1484.67 688.159 1502.56 681.752 1520.53 675.642C1524.84 674.174 1529.52 674.262 1533.82 675.769C1624.43 707.532 1738.01 713.519 1846.82 692.102C1882.62 685.039 1918.79 674.816 1954.3 661.921C1954.6 661.812 1954.8 661.526 1954.8 661.206C1954.8 660.677 1954.27 660.309 1953.78 660.489C1918.34 673.356 1882.26 683.559 1846.54 690.609C1735.23 712.52 1618.94 705.692 1527.49 671.87C1527.49 671.867 1527.48 671.868 1527.47 671.872Z" fill="#9DA1C9" fill-opacity="0.3"/>
<path d="M1848.56 771.184C1848.56 771.188 1848.56 771.192 1848.55 771.192C1721.5 793.605 1589.89 777.677 1487.49 727.482L1487.48 727.479C1487.33 727.402 1487.15 727.382 1486.98 727.421C1467.6 731.852 1448.25 736.603 1429.53 741.194C1385.86 751.921 1340.7 763.007 1291.2 770.986C1283.13 772.287 1274.95 773.513 1266.86 774.625C1197.25 783.967 1122.09 785.238 1060.62 778.119C1041.51 775.904 1025.14 772.836 1010.57 768.747C982.606 760.898 959.557 749.165 937.262 737.821C928.557 733.39 919.556 728.807 910.318 724.482C875.255 708.052 844.011 698.611 811.976 694.766C803.013 693.693 794.612 693.122 786.318 693.023C785.412 693.015 784.515 693.008 783.617 693.008C744.574 693.008 710.256 703.187 677.049 713.031C633.974 725.807 593.287 737.867 545.075 728.06C508.634 720.652 477.337 700.576 448.407 680.651C444.739 678.123 441.079 675.588 437.427 673.053C391.262 641.038 347.653 610.804 293.186 606.663C263.525 604.409 231.399 611.276 200.277 626.504C171.477 640.604 144.616 661.145 122.602 685.92C85.2867 727.946 60.3893 778.599 36.3213 827.577C33.0874 834.155 29.7469 840.954 26.4293 847.616C0.854675 898.977 -32.1542 957.372 -83.1133 1001.06C-214.456 1113.66 -422.44 1128.27 -577.653 1035.78C-677.92 975.5 -752.536 883.133 -824.702 793.811C-829.366 788.04 -834.023 782.269 -838.688 776.521C-878.137 727.838 -919.595 678.602 -965.885 635.242C-966.37 634.788 -967.162 635.133 -967.162 635.797C-967.162 636.008 -967.075 636.209 -966.921 636.352C-920.693 679.657 -879.275 728.845 -839.875 777.48C-835.218 783.228 -830.561 788.992 -825.896 794.77C-753.647 884.199 -678.939 976.673 -578.444 1037.09C-512.092 1076.63 -432.895 1097.78 -352.678 1097.78C-342.953 1097.78 -333.214 1097.47 -323.489 1096.84C-278.686 1093.96 -235.42 1084.59 -194.885 1068.98C-152.867 1052.8 -114.935 1030.34 -82.1317 1002.22C-30.9672 958.355 2.14062 899.799 27.7838 848.301C31.1014 841.639 34.4418 834.833 37.6758 828.255C61.7058 779.36 86.5499 728.807 123.729 686.932C170.769 633.995 235.668 603.823 293.064 608.178C347.128 612.281 390.569 642.408 436.559 674.301C440.212 676.837 443.872 679.372 447.547 681.9C476.607 701.916 508.056 722.076 544.778 729.545C593.363 739.427 634.224 727.307 677.483 714.478C711.352 704.436 746.369 694.02 786.303 694.538C794.551 694.637 802.891 695.2 811.801 696.266C843.669 700.088 874.768 709.491 909.679 725.853C918.886 730.169 927.88 734.745 936.578 739.169C958.933 750.543 982.058 762.314 1010.17 770.201C1024.81 774.313 1041.27 777.396 1060.46 779.619C1122.04 786.753 1197.35 785.482 1267.07 776.125C1275.17 775.013 1283.36 773.787 1291.44 772.485C1341 764.499 1386.2 753.406 1429.9 742.671C1446.3 738.64 1463.2 734.492 1480.17 730.548C1484.63 729.512 1489.29 730.068 1493.43 732.015C1595.14 779.832 1724.17 794.674 1848.83 772.676C1884.25 766.418 1919.63 757.122 1954.26 745.148C1954.57 745.041 1954.78 744.752 1954.78 744.428C1954.78 743.903 1954.26 743.536 1953.76 743.707C1919.21 755.65 1883.91 764.924 1848.57 771.175C1848.56 771.175 1848.56 771.179 1848.56 771.184Z" fill="#9DA1C9" fill-opacity="0.3"/>
<path d="M1447.5 783.064C1447.5 783.073 1447.49 783.078 1447.48 783.074L1447.32 782.975C1447.3 782.962 1447.27 782.956 1447.25 782.959L1447.04 782.985C1427.98 785.025 1408.97 787.256 1390.59 789.41C1350.57 794.108 1309.19 798.965 1263.72 802.293C1256.15 802.848 1248.46 803.374 1240.85 803.846C1177.33 807.553 1106.45 807.614 1046.36 804.013C1027.43 802.879 1012.43 801.295 999.141 799.019C972.288 794.428 950.822 787.294 928.109 779.749C920.157 777.107 911.939 774.381 903.546 771.793C880.132 764.59 848.356 755.88 810.158 752.454C801.521 751.685 793.6 751.259 785.953 751.152C751.315 750.673 720.605 756.512 690.921 762.162C647.83 770.361 607.128 778.112 559.334 765.771C525.139 756.939 494.93 737.479 468.275 720.302C422.771 690.983 375.716 660.673 319.134 659.173C291.215 658.443 261.106 665.835 232.069 680.567C205.117 694.241 179.831 713.709 158.929 736.862C123.112 776.582 98.3973 824.235 74.4968 870.327C71.4988 876.106 68.5083 881.877 65.4951 887.633C40.4379 935.453 8.44104 989.989 -38.8275 1031.86C-175.664 1153.06 -392.14 1171.51 -553.547 1075.75C-650.131 1017.94 -723.294 930.025 -794.044 845.005C-799.957 837.901 -805.854 830.813 -811.758 823.747C-848.983 779.216 -889.7 732.309 -935.142 690.922C-945.455 681.528 -955.732 672.677 -966.001 664.357C-966.473 663.975 -967.177 664.311 -967.177 664.919C-967.177 665.137 -967.079 665.344 -966.909 665.481C-909.436 712.035 -859.746 768.735 -812.93 824.722C-807.026 831.78 -801.128 838.868 -795.216 845.971C-724.382 931.091 -651.143 1019.1 -554.33 1077.05C-487.339 1116.8 -407.594 1137.93 -326.343 1137.92C-313.65 1137.92 -300.905 1137.4 -288.182 1136.36C-241.591 1132.54 -196.597 1121.93 -154.45 1104.81C-110.887 1087.11 -71.6462 1062.94 -37.8231 1032.98C9.63568 990.948 41.7162 936.268 66.8419 888.326C69.8552 882.57 72.8531 876.791 75.8512 871.012C99.7137 825.011 124.383 777.442 160.063 737.867C204.31 688.836 265.245 659.265 319.088 660.681C375.244 662.166 422.117 692.361 467.445 721.566C494.199 738.803 524.515 758.34 558.946 767.225C607.075 779.658 647.936 771.877 691.203 763.639C720.81 758.005 751.414 752.173 785.93 752.652C793.539 752.759 801.422 753.185 810.021 753.947C848.082 757.358 879.759 766.037 903.104 773.224C911.482 775.797 919.693 778.531 927.637 781.165C949.414 788.398 971.93 795.882 998.897 800.488C1012.24 802.772 1027.29 804.363 1046.28 805.498C1106.42 809.099 1177.36 809.038 1240.95 805.33C1248.56 804.858 1256.26 804.333 1263.84 803.777C1309.34 800.45 1350.73 795.593 1390.77 790.888C1406.95 788.988 1423.63 787.029 1440.39 785.195C1444.64 784.729 1448.93 785.666 1452.66 787.782C1506.64 818.447 1570.13 840.646 1636.76 852.116C1707.45 864.29 1779.49 864.655 1850.85 853.22C1885.71 847.622 1920.26 839.228 1954.26 828.128C1954.57 828.027 1954.78 827.737 1954.78 827.41C1954.78 826.895 1954.27 826.531 1953.79 826.69C1919.98 837.701 1885.41 846.133 1850.61 851.72C1707.75 874.612 1560.83 849.59 1447.52 783.055C1447.51 783.051 1447.5 783.056 1447.5 783.064Z" fill="#9DA1C9" fill-opacity="0.3"/>
</svg>
