<svg width="105" height="105" viewBox="0 0 105 105" fill="none" xmlns="http://www.w3.org/2000/svg">
<g clip-path="url(#clip0_24047_1085)">
<path d="M74.5978 18.8831C70.1188 17.0058 65.1863 16.9633 60.7085 18.7634C56.2304 20.5635 52.7434 23.9908 50.8894 28.4137L38.3965 58.2205C36.1004 63.6989 38.7456 70.0472 44.2936 72.3728C49.8414 74.6978 56.2227 72.1322 58.5188 66.6538L65.7277 49.4543C66.4943 47.6253 65.6142 45.5131 63.762 44.7369C61.9099 43.9606 59.7869 44.814 59.0203 46.643L51.8115 63.8426C51.046 65.6689 48.9186 66.5239 47.0697 65.7493C45.2205 64.9742 44.3385 62.8579 45.1039 61.0318L57.5968 31.2249C58.7091 28.5711 60.8016 26.5147 63.4883 25.4347C66.1753 24.3546 69.1346 24.3801 71.8218 25.5064C77.3697 27.8317 80.0152 34.1801 77.7193 39.6583L63.8386 72.7765C60.0113 81.9069 49.3757 86.1827 40.1297 82.3075C35.6508 80.4302 32.1614 76.9431 30.3053 72.4881C28.4489 68.0332 28.4477 63.1437 30.3015 58.7205L44.1818 25.6023C44.9484 23.7731 44.0682 21.6612 42.2161 20.8849C40.364 20.1086 38.2409 20.9621 37.4744 22.7911L23.5942 55.9092C20.9985 62.1015 21.0005 68.9466 23.5992 75.1839C26.198 81.4209 31.0827 86.3032 37.3535 88.9313C50.2977 94.3565 65.1877 88.3708 70.5458 75.5882L84.4266 42.4698C88.2532 33.3394 83.844 22.7584 74.5978 18.8831Z" fill="white"/>
</g>
<defs>
<clipPath id="clip0_24047_1085">
<rect width="80" height="79" fill="white" transform="translate(31 0.609375) rotate(22.7399)"/>
</clipPath>
</defs>
</svg>
