<svg width="28" height="28" viewBox="0 0 28 28" fill="none" xmlns="http://www.w3.org/2000/svg">
<g clip-path="url(#clip0_3127_2853)">
<path d="M15.0303 1.26942L18.7338 8.7735L27.015 9.97684C27.9574 10.1137 28.3337 11.2718 27.6518 11.9366L21.6593 17.7776L23.0739 26.0254C23.2349 26.9639 22.2498 27.6797 21.407 27.2365L14 23.3425L6.593 27.2365C5.75016 27.6796 4.76502 26.9639 4.92602 26.0254L6.34062 17.7776L0.348204 11.9365C-0.333691 11.2718 0.0426117 10.1138 0.984983 9.97679L9.26622 8.77345L12.9697 1.26942C13.3912 0.415482 14.6088 0.415482 15.0303 1.26942Z" fill="#C6EB8B"/>
<path d="M18.7337 8.77349L15.0303 1.26941C14.8195 0.842466 14.4098 0.628967 14 0.628967V14.8361L18.7337 8.77349Z" fill="#7FA55E"/>
<path d="M21.6594 17.7776L27.6518 11.9364C27.9881 11.6085 28.0666 11.1607 27.947 10.7745L14 14.836L21.6594 17.7776Z" fill="#7FA55E"/>
<path d="M22.6204 27.1464L14 14.8361V23.3424L21.407 27.2365C21.8299 27.4589 22.2886 27.3893 22.6204 27.1464Z" fill="#7FA55E"/>
<path d="M13.9996 14.8361L6.34018 17.7776L4.92564 26.0254C4.84541 26.4929 5.04983 26.9051 5.37921 27.1464L13.9996 14.8361Z" fill="#7FA55E"/>
<path d="M0.0527344 10.7746L13.9997 14.8361L9.26601 8.77344L0.98477 9.97683C0.507295 10.0462 0.175562 10.3779 0.0527344 10.7746Z" fill="#7FA55E"/>
<path d="M6.34029 17.7776L0.347876 11.9365C0.0114944 11.6086 -0.0669819 11.1607 0.0526192 10.7745L13.9996 14.8361L6.34029 17.7776Z" fill="#C6EB8B"/>
</g>
<defs>
<clipPath id="clip0_3127_2853">
<rect width="28" height="28" fill="white"/>
</clipPath>
</defs>
</svg>
