<svg width="46" height="35" viewBox="0 0 46 35" fill="none" xmlns="http://www.w3.org/2000/svg">
<path d="M3.25591 24.9659C2.34346 19.0349 1.43101 13.1041 0.51856 7.17305C0.31621 5.8583 1.81216 4.9616 2.87626 5.75975C5.71906 7.89185 8.56171 10.0238 11.4045 12.1559C12.3405 12.8579 13.674 12.6295 14.3229 11.656L21.4229 1.00595C22.1732 -0.119497 23.8268 -0.119497 24.5771 1.00595L31.677 11.656C32.3259 12.6295 33.6594 12.8578 34.5954 12.1559C37.4382 10.0238 40.2809 7.89185 43.1237 5.75975C44.1878 4.9616 45.6837 5.8583 45.4815 7.17305C44.5691 13.1041 43.6566 19.0349 42.7442 24.9659H3.25591Z" fill="url(#paint0_linear_6009_39640)"/>
<path d="M40.6852 34.8378H5.31461C4.17761 34.8378 3.25586 33.9161 3.25586 32.7791V28.2566H42.7441V32.7791C42.744 33.9161 41.8222 34.8378 40.6852 34.8378Z" fill="url(#paint1_linear_6009_39640)"/>
<defs>
<linearGradient id="paint0_linear_6009_39640" x1="23" y1="0.161865" x2="23" y2="24.9659" gradientUnits="userSpaceOnUse">
<stop stop-color="#FFFAEB"/>
<stop offset="1" stop-color="#CEB895"/>
</linearGradient>
<linearGradient id="paint1_linear_6009_39640" x1="23" y1="28.2566" x2="23" y2="34.8378" gradientUnits="userSpaceOnUse">
<stop stop-color="#FFFAEB"/>
<stop offset="1" stop-color="#CEB895"/>
</linearGradient>
</defs>
</svg>
