<svg width="16" height="16" viewBox="0 0 16 16" fill="none" xmlns="http://www.w3.org/2000/svg">
<path d="M0.804355 15.1957C0.707863 15.0992 0.631321 14.9846 0.579099 14.8585C0.526878 14.7325 0.5 14.5973 0.5 14.4609C0.5 14.3244 0.526878 14.1893 0.579099 14.0632C0.631321 13.9371 0.707863 13.8226 0.804355 13.7261L3.00868 11.5217L1.53913 10.0522C1.34426 9.85728 1.23478 9.59297 1.23478 9.31738C1.23478 9.04178 1.34426 8.77747 1.53913 8.5826C1.734 8.38773 1.99831 8.27825 2.27391 8.27825C2.5495 8.27825 2.81381 8.38773 3.00868 8.5826L7.41741 12.9913C7.61229 13.1861 7.72178 13.4504 7.72179 13.726C7.72179 14.0016 7.61232 14.266 7.41744 14.4608C7.22257 14.6557 6.95826 14.7652 6.68266 14.7652C6.40706 14.7652 6.14274 14.6557 5.94785 14.4609L4.47831 12.9913L2.27391 15.1957C2.17741 15.2921 2.06286 15.3687 1.93679 15.4209C1.81072 15.4731 1.67559 15.5 1.53913 15.5C1.40267 15.5 1.26755 15.4731 1.14147 15.4209C1.0154 15.3687 0.900847 15.2921 0.804355 15.1957ZM14.75 0.5H12.8716C12.6726 0.500003 12.4819 0.579022 12.3412 0.719675L4.80411 8.2568L7.74313 11.1961L15.2806 3.65855C15.4211 3.51791 15.5 3.32724 15.5 3.12845V1.25C15.5 1.05109 15.421 0.860322 15.2803 0.71967C15.1397 0.579018 14.9489 0.5 14.75 0.5ZM12.9913 11.5217L14.4609 10.0522C14.6558 9.85728 14.7652 9.59297 14.7652 9.31738C14.7652 9.04178 14.6558 8.77747 14.4609 8.5826C14.266 8.38773 14.0017 8.27825 13.7261 8.27825C13.4505 8.27825 13.1862 8.38773 12.9913 8.5826L8.58261 12.9913C8.48611 13.0877 8.40956 13.2023 8.35734 13.3284C8.30511 13.4544 8.27823 13.5896 8.27822 13.726C8.27822 14.0016 8.38769 14.266 8.58257 14.4608C8.77744 14.6557 9.04175 14.7652 9.31735 14.7652C9.59295 14.7652 9.85727 14.6557 10.0522 14.4609L11.5217 12.9913L13.7261 15.1957C13.921 15.3905 14.1853 15.5 14.4609 15.5C14.7365 15.5 15.0008 15.3905 15.1957 15.1957C15.3905 15.0008 15.5 14.7365 15.5 14.4609C15.5 14.1853 15.3905 13.921 15.1957 13.7261L12.9913 11.5217ZM3.12846 0.5H1.25001C1.05109 0.5 0.860328 0.579018 0.719675 0.71967C0.579023 0.860322 0.500005 1.05109 0.500005 1.25V3.12845C0.499997 3.22695 0.519393 3.32449 0.557085 3.4155C0.594777 3.50651 0.650027 3.5892 0.71968 3.65885L4.00063 6.93972L6.93965 4.00048L3.65878 0.719675C3.51813 0.579022 3.32737 0.500003 3.12846 0.5Z" fill="white"/>
</svg>
