<svg width="120" height="120" viewBox="0 0 120 120" fill="none" xmlns="http://www.w3.org/2000/svg">
<path d="M100.831 93.7491C109.065 83.9251 114.033 71.2767 114.033 57.4846C114.033 26.3043 88.6649 0.938477 57.4846 0.938477C26.3043 0.938477 0.938477 26.3055 0.938477 57.4846C0.938477 88.6649 26.3055 114.032 57.4846 114.032C71.2617 114.032 83.8987 109.075 93.7177 100.857L110.513 117.623C111.494 118.602 112.78 119.092 114.065 119.092C115.352 119.092 116.641 118.6 117.623 117.617C119.585 115.652 119.583 112.468 117.617 110.506L100.831 93.7491ZM10.9925 57.4846C10.9925 31.8485 31.8485 10.9938 57.4833 10.9938C83.1194 10.9938 103.977 31.8498 103.977 57.4846C103.977 83.1206 83.1194 103.977 57.4833 103.977C31.8485 103.977 10.9925 83.1206 10.9925 57.4846Z" fill="white"/>
<path d="M79.3133 57.8489C77.9186 57.8489 76.7841 59.021 76.7841 60.4617C76.7841 61.9025 77.9186 63.0745 79.3133 63.0745C80.7079 63.0745 81.8426 61.9025 81.8426 60.4617C81.8426 59.021 80.7078 57.8489 79.3133 57.8489Z" fill="white"/>
<path d="M84.7337 39.9028H30.2656C25.8766 39.9028 22.306 43.5914 22.306 48.1253V66.874C22.306 71.4079 25.8766 75.0965 30.2656 75.0965H84.7337C89.1227 75.0965 92.6933 71.4079 92.6933 66.874V48.1253C92.6933 43.5914 89.1227 39.9028 84.7337 39.9028ZM43.1063 65.4238C42.7956 65.6674 42.4305 65.7852 42.0685 65.7852C41.5492 65.7852 41.036 65.5431 40.6978 65.0828L37.0663 60.1396L33.6236 64.8561C33.2857 65.3191 32.7709 65.5628 32.2498 65.5628C31.8895 65.5628 31.5262 65.4462 31.2162 65.2047C30.4581 64.6143 30.3071 63.5009 30.8786 62.7179L34.9066 57.1995L31.3419 52.3474C30.7679 51.5662 30.9158 50.4522 31.672 49.8594C32.4282 49.2663 33.5066 49.419 34.0804 50.2003L37.0575 54.2526L40.0122 50.2047C40.5836 49.4215 41.6611 49.2654 42.4195 49.856C43.1777 50.4463 43.3286 51.5598 42.7571 52.3428L39.2172 57.1925L43.4363 62.9356C44.0103 63.7169 43.8625 64.831 43.1063 65.4238ZM48.3309 59.4174H45.5876C44.6383 59.4174 43.8687 58.6223 43.8687 57.6417C43.8687 56.6611 44.6383 55.866 45.5876 55.866H48.3309C49.2802 55.866 50.0499 56.6611 50.0499 57.6417C50.0499 58.6223 49.2802 59.4174 48.3309 59.4174ZM62.1379 61.1886C62.1379 64.284 59.7002 66.8024 56.7036 66.8024C54.0076 66.8024 51.6937 64.7247 51.3216 61.9694C51.2868 61.7122 51.2692 61.4496 51.2692 61.1886C51.2692 60.208 52.0389 59.4129 52.9882 59.4129C53.9375 59.4129 54.7071 60.208 54.7071 61.1886C54.7071 61.2859 54.7136 61.3834 54.7265 61.4785C54.8629 62.489 55.7129 63.251 56.7036 63.251C57.8044 63.251 58.7 62.3258 58.7 61.1886C58.7 60.0514 57.8044 59.1262 56.7036 59.1262C55.7543 59.1262 54.9846 58.3311 54.9846 57.3505C54.9846 56.3699 55.7543 55.5748 56.7036 55.5748C57.8044 55.5748 58.7 54.6495 58.7 53.5124C58.7 52.3752 57.8044 51.45 56.7036 51.45C55.7514 51.45 54.9276 52.1483 54.7447 53.1106C54.5616 54.0728 53.6582 54.7004 52.7266 54.5108C51.7951 54.3218 51.1882 53.3885 51.3711 52.4261C51.8699 49.8025 54.1127 47.8984 56.7035 47.8984C59.6999 47.8984 62.1378 50.4168 62.1378 53.5122C62.1378 54.9956 61.5769 56.3456 60.664 57.3503C61.5772 58.3553 62.1379 59.7051 62.1379 61.1886ZM70.3661 64.8501C70.3661 65.8308 69.5964 66.6259 68.6471 66.6259C67.6979 66.6259 66.9282 65.8308 66.9282 64.8501V51.6266H65.5437C64.5944 51.6266 63.8247 50.8315 63.8247 49.8508C63.8247 48.8702 64.5944 48.0751 65.5437 48.0751H68.6471C69.5964 48.0751 70.3661 48.8702 70.3661 49.8508V64.8501ZM79.3133 66.6259C76.0231 66.6259 73.3462 63.8606 73.3462 60.4617C73.3462 58.599 74.1512 56.9279 75.4195 55.7967C74.8403 54.9754 74.4972 53.9654 74.4972 52.8738C74.4972 50.1306 76.6577 47.8987 79.3133 47.8987C81.9688 47.8987 84.1294 50.1306 84.1294 52.8738C84.1294 53.9654 83.7864 54.9754 83.207 55.7967C84.4754 56.9279 85.2804 58.599 85.2804 60.4617C85.2804 63.8606 82.6036 66.6259 79.3133 66.6259Z" fill="white"/>
<path d="M79.3134 54.2975C80.0733 54.2975 80.6915 53.6588 80.6915 52.8739C80.6915 52.0889 80.0733 51.4502 79.3134 51.4502C78.5534 51.4502 77.9352 52.0889 77.9352 52.8739C77.9352 53.6588 78.5533 54.2975 79.3134 54.2975Z" fill="white"/>
</svg>
