<svg width="18" height="18" viewBox="0 0 18 18" fill="none" xmlns="http://www.w3.org/2000/svg">
<g clip-path="url(#clip0_1273_22015)">
<path d="M9 0C7.21997 0 5.47991 0.527841 3.99987 1.51677C2.51983 2.50571 1.36628 3.91131 0.685088 5.55585C0.00389956 7.20038 -0.17433 9.00998 0.172936 10.7558C0.520203 12.5016 1.37737 14.1053 2.63604 15.364C3.89471 16.6226 5.49836 17.4798 7.24419 17.8271C8.99002 18.1743 10.7996 17.9961 12.4442 17.3149C14.0887 16.6337 15.4943 15.4802 16.4832 14.0001C17.4722 12.5201 18 10.78 18 9C17.9973 6.61389 17.0482 4.32631 15.3609 2.63907C13.6737 0.951842 11.3861 0.00274844 9 0ZM10.0385 10.3846H7.61539V11.0769H10.3846C10.5682 11.0769 10.7443 11.1499 10.8742 11.2797C11.004 11.4095 11.0769 11.5856 11.0769 11.7692C11.0769 11.9528 11.004 12.1289 10.8742 12.2588C10.7443 12.3886 10.5682 12.4615 10.3846 12.4615H7.61539V13.1538C7.61539 13.3375 7.54245 13.5135 7.41261 13.6434C7.28278 13.7732 7.10669 13.8462 6.92308 13.8462C6.73947 13.8462 6.56338 13.7732 6.43354 13.6434C6.30371 13.5135 6.23077 13.3375 6.23077 13.1538V12.4615H5.53846C5.35485 12.4615 5.17876 12.3886 5.04893 12.2588C4.9191 12.1289 4.84616 11.9528 4.84616 11.7692C4.84616 11.5856 4.9191 11.4095 5.04893 11.2797C5.17876 11.1499 5.35485 11.0769 5.53846 11.0769H6.23077V10.3846H5.53846C5.35485 10.3846 5.17876 10.3117 5.04893 10.1818C4.9191 10.052 4.84616 9.87592 4.84616 9.69231C4.84616 9.50869 4.9191 9.3326 5.04893 9.20277C5.17876 9.07294 5.35485 9 5.53846 9H6.23077V4.84615C6.23077 4.66254 6.30371 4.48645 6.43354 4.35662C6.56338 4.22678 6.73947 4.15385 6.92308 4.15385H10.0385C10.8647 4.15385 11.6571 4.48207 12.2414 5.06632C12.8256 5.65057 13.1538 6.44298 13.1538 7.26923C13.1538 8.09548 12.8256 8.88789 12.2414 9.47214C11.6571 10.0564 10.8647 10.3846 10.0385 10.3846Z" fill="white" fill-opacity="0.8"/>
<path d="M9.97359 5.57812H7.55859V8.99813H9.97359C10.4311 8.99813 10.8699 8.81796 11.1934 8.49728C11.5169 8.17659 11.6986 7.74165 11.6986 7.28813C11.6986 6.8346 11.5169 6.39966 11.1934 6.07897C10.8699 5.75829 10.4311 5.57812 9.97359 5.57812Z" fill="white" fill-opacity="0.8"/>
</g>
<defs>
<clipPath id="clip0_1273_22015">
<rect width="18" height="18" fill="white"/>
</clipPath>
</defs>
</svg>
