<svg width="12" height="12" viewBox="0 0 12 12" fill="none" xmlns="http://www.w3.org/2000/svg">
<path d="M10.9067 3.85299C10.9067 3.93831 10.8899 4.0228 10.8572 4.10159C10.8244 4.18039 10.7765 4.25194 10.716 4.31215L6.42126 8.60752C6.29928 8.72939 6.13391 8.79785 5.96147 8.79785C5.78904 8.79785 5.62367 8.72939 5.50169 8.60752L1.20695 4.31278C1.09285 4.18937 1.03095 4.02658 1.03422 3.85854C1.03749 3.69049 1.10567 3.53023 1.22447 3.41135C1.34328 3.29246 1.50349 3.22417 1.67153 3.22079C1.83957 3.2174 2.0024 3.27919 2.1259 3.3932L5.96147 7.22878L9.79705 3.3932C9.88803 3.30231 10.0039 3.24041 10.13 3.21535C10.2562 3.19028 10.3869 3.20316 10.5057 3.25237C10.6246 3.30157 10.7261 3.38489 10.7976 3.49179C10.8691 3.59869 10.9073 3.72439 10.9074 3.85299H10.9067Z" fill="#86898B"/>
</svg>
