<svg width="1108" height="676" viewBox="0 0 1108 676" fill="none" xmlns="http://www.w3.org/2000/svg">
<mask id="mask0_6009_36866" style="mask-type:alpha" maskUnits="userSpaceOnUse" x="0" y="0" width="1108" height="676">
<rect width="1108" height="676" rx="18" fill="#EDEDF7"/>
</mask>
<g mask="url(#mask0_6009_36866)">
<path d="M-601.457 -128.887C-560.666 -83.8531 -521.212 -59.1725 -473.527 -48.8562C-447.155 -43.1524 -419.723 -40.8239 -392.508 -40.8303C-315.743 -40.8303 -240.703 -59.3439 -196.151 -72.8642C-171.168 -80.446 -147.674 -88.7702 -124.948 -96.8215C-76.1221 -114.123 -30.0037 -130.461 25.1252 -137.839C101.16 -148.022 212.839 -132.009 290.916 -73.2957C306.901 -61.2726 320.909 -48.7166 334.46 -36.573C369.17 -5.45906 399.595 21.8228 445.206 21.8164C450.012 21.8164 454.996 21.5119 460.164 20.8774C506.587 15.1863 556.852 -21.2001 613.826 -90.3563C619.933 -97.7732 626.007 -105.241 631.886 -112.461C666.279 -154.748 698.771 -194.687 731.554 -215.834L731.655 -215.897L731.725 -215.992C735.371 -221.005 739.544 -226.404 744.236 -231.993H742.524C738.504 -227.127 734.585 -222.07 730.774 -216.836C697.858 -195.563 665.334 -155.585 630.909 -113.267C625.037 -106.047 618.963 -98.5789 612.856 -91.1684C556.098 -22.2723 506.099 13.9618 460.018 19.6148C406.386 26.1942 373.451 -3.33362 335.316 -37.5247C321.746 -49.6873 307.72 -62.2624 291.689 -74.3171C256.826 -100.533 211.628 -120.385 160.975 -131.73C114.87 -142.059 66.5638 -144.673 24.9667 -139.108C-30.2954 -131.71 -76.4708 -115.348 -125.36 -98.027C-148.074 -89.982 -171.555 -81.6579 -196.507 -74.0887C-256.734 -55.8099 -372.775 -28.3822 -473.248 -50.1061C-520.66 -60.359 -559.905 -84.919 -600.506 -129.744C-622.319 -153.828 -641.393 -182.582 -661.589 -213.029C-665.749 -219.298 -669.96 -225.636 -674.227 -232H-675.755C-671.323 -225.408 -666.954 -218.828 -662.642 -212.331C-642.42 -181.846 -623.321 -153.047 -601.445 -128.893L-601.457 -128.887Z" fill="#C9BC8C" fill-opacity="0.15"/>
<path d="M-673.701 -148.638C-656.187 -119.338 -639.643 -91.657 -620.601 -66.8686C-601.508 -42.0104 -582.789 -22.4944 -563.386 -7.19749C-540.165 11.1067 -515.822 23.6246 -488.967 31.0732C-445.766 43.0582 -395.964 44.7395 -340.955 36.0601C-284.266 27.1205 -234.597 9.07008 -202.911 -4.50104C-174.896 -16.4987 -148.492 -29.8414 -122.963 -42.74C-73.7061 -67.6299 -27.182 -91.143 28.6825 -104.917C107.857 -124.446 227.937 -115.1 304.479 -48.4375C322.963 -32.3349 338.315 -13.8403 353.153 4.04515C369.583 23.8467 385.099 42.5443 403.044 55.6903C420.197 68.2526 437.571 74.2737 457.025 74.2737C460.437 74.2737 463.918 74.0897 467.469 73.7217C517.734 68.5128 574.518 30.4895 619.375 -27.9888C639.634 -54.4014 658.467 -79.5514 676.679 -103.877C692.924 -125.575 708.276 -146.075 721.896 -163.77C739.924 -187.175 759.385 -211.056 781.337 -231.987H779.568C757.806 -211.145 738.65 -187.6 720.895 -164.544C707.268 -146.842 691.916 -126.343 675.664 -104.638C657.453 -80.3128 638.62 -55.1628 618.367 -28.7628C573.719 29.449 517.259 67.2882 467.336 72.4591C415.986 77.7822 387.318 43.2358 354.13 3.2394C339.253 -14.6841 323.876 -33.2231 305.31 -49.3892C271.03 -79.2406 224.766 -100.07 171.521 -109.625C123.354 -118.266 72.518 -117.029 28.3781 -106.142C-27.6195 -92.3295 -74.2134 -68.7846 -123.534 -43.863C-149.044 -30.9708 -175.423 -17.6407 -203.406 -5.66209C-252.257 15.2561 -377.841 60.5947 -488.625 29.855C-537.242 16.3664 -578.858 -14.6143 -619.586 -67.6363C-638.584 -92.3676 -655.109 -120.011 -672.604 -149.279C-686.383 -172.335 -700.637 -196.172 -716.42 -218.885C-719.54 -223.377 -722.704 -227.736 -725.9 -231.981H-727.466C-724.106 -227.52 -720.77 -222.914 -717.46 -218.162C-701.696 -195.487 -687.461 -171.662 -673.688 -148.625L-673.701 -148.638Z" fill="#C9BC8C" fill-opacity="0.15"/>
<path d="M-734.79 -169.429C-716.826 -142.192 -701.253 -113.26 -686.193 -85.2806C-670.904 -56.8758 -656.466 -30.0508 -639.745 -4.85631C-598.648 57.0608 -555.643 93.8722 -504.421 110.996C-459.729 125.938 -408.474 127.835 -352.077 116.649C-292.992 104.924 -242.035 81.4685 -209.696 63.8558C-179.696 47.5185 -151.314 29.2206 -123.864 11.5255C-73.2496 -21.1049 -25.4446 -51.9206 32.2081 -72.0013C119.575 -102.436 245.806 -95.5716 318.03 -23.5856C337.25 -4.42487 352.354 17.8574 366.957 39.41C395.562 81.6207 422.581 121.497 474.641 126.541C477.577 126.826 480.544 126.966 483.537 126.966C507.043 126.966 532.407 118.261 557.455 101.511C581.728 85.2753 605.685 61.4258 624.904 34.3534C652.97 -5.1799 675.626 -46.0646 695.619 -82.1337C701.352 -92.4754 706.767 -102.246 712.119 -111.655C742.48 -165.02 774.895 -205.022 809.821 -231.993H808.154C805.674 -230.065 803.208 -228.079 800.754 -226.023C768.541 -199.001 739.189 -161.797 711.015 -112.283C705.664 -102.874 700.248 -93.0972 694.51 -82.7491C674.535 -46.7054 651.898 -5.85242 623.87 33.6237C589.794 81.6207 532.731 130.912 474.761 125.284C423.297 120.291 396.437 80.6627 368.004 38.6994C353.362 17.096 338.226 -5.23698 318.918 -24.4865C285.253 -58.0432 237.949 -79.8623 182.116 -87.5774C131.769 -94.5374 78.3771 -89.4363 31.7769 -73.2005C-26.0152 -53.069 -73.8837 -22.2088 -124.561 10.4596C-151.992 28.142 -180.356 46.4272 -210.317 62.7455C-259.999 89.8053 -388.075 148.556 -504.034 109.797C-554.978 92.7682 -597.767 56.1154 -638.705 -5.55423C-655.394 -30.6979 -669.82 -57.5039 -685.096 -85.877C-700.168 -113.882 -715.754 -142.839 -733.75 -170.127C-746.857 -190.03 -763.864 -212.166 -784.643 -231.993H-786.489C-765.348 -212.008 -748.075 -189.573 -734.79 -169.429Z" fill="#C9BC8C" fill-opacity="0.15"/>
<path d="M-752.101 -120.69C-732.305 -89.1765 -715.875 -55.3026 -699.991 -22.539C-687.087 4.07666 -673.739 31.5996 -658.869 57.162C-618.47 126.591 -572.999 170.344 -519.855 190.919C-493.704 201.045 -465.442 206.114 -435.335 206.114C-412.317 206.114 -388.215 203.152 -363.155 197.219C-314.722 185.755 -264 163.276 -216.481 132.212C-185.017 111.643 -155.093 88.5107 -126.159 66.1396C-76.0461 27.3931 -24.2335 -12.6731 35.74 -39.0921C128.763 -80.0656 260.257 -79.3613 331.606 1.26599C351.111 23.3135 365.594 50.0814 379.595 75.9738C405.409 123.704 429.784 168.783 481.901 179.366C487.95 180.596 494.133 181.206 500.417 181.206C521.298 181.206 543.276 174.474 564.937 161.322C589.889 146.171 613.154 123.222 630.459 96.708C655.531 58.2914 671.815 17.0324 687.56 -22.8752C692.595 -35.6279 697.344 -47.67 702.341 -59.5281C717.134 -94.6265 763.5 -189.973 844.589 -232H841.583C823.727 -222.496 806.492 -209.895 789.961 -194.199C745.53 -152.001 717.153 -97.9447 701.174 -60.023C696.171 -48.1585 691.415 -36.1038 686.38 -23.3448C670.655 16.4994 654.396 57.7013 629.394 96.0101C597.27 145.238 539.275 189.72 482.148 178.122C430.615 167.66 406.367 122.829 380.705 75.3711C366.672 49.4153 352.157 22.5839 332.551 0.428497C299.546 -36.8715 251.227 -59.6803 192.814 -65.5364C166.46 -68.1758 139.156 -67.2304 111.655 -62.7258C84.8195 -58.3289 59.1067 -50.7662 35.2327 -40.2468C-24.8802 -13.7707 -76.7626 26.3463 -126.933 65.1436C-155.848 87.502 -185.746 110.615 -217.172 131.159C-267.9 164.316 -398.9 236.404 -519.398 189.745C-572.27 169.278 -617.532 125.703 -657.778 56.5339C-672.629 31.0096 -685.964 3.51198 -698.856 -23.0846C-714.753 -55.8799 -731.195 -89.7855 -751.03 -121.356C-767.694 -147.889 -786.14 -170.787 -805.975 -189.637V-187.994C-783.635 -166.536 -765.703 -142.332 -752.101 -120.684V-120.69Z" fill="#C9BC8C" fill-opacity="0.15"/>
<path d="M-714.918 39.4546C-703.364 65.8608 -691.424 93.1681 -678 119.194C-659.96 154.172 -640.055 184.036 -618.845 207.961C-593.493 236.556 -565.383 257.716 -535.295 270.855C-508.511 282.548 -479.64 288.398 -448.949 288.398C-425.094 288.398 -400.142 284.864 -374.214 277.784C-324.253 264.149 -272.054 237.451 -223.272 200.576C-190.629 175.902 -159.431 148.074 -129.266 121.16C-77.1876 74.6989 -23.3395 26.6575 39.2654 -6.16953C135.554 -56.6599 275.488 -62.497 345.176 26.1309C364.579 50.8051 378.124 81.8493 391.224 111.878C402.974 138.811 414.077 164.253 429.106 185.711C445.941 209.757 465.586 224.958 489.155 232.191C498.394 235.027 507.696 236.341 516.935 236.334C565.038 236.334 611.22 200.722 636.007 159.063C657.548 122.861 668.492 81.2402 679.082 40.9963C683.279 25.046 687.617 8.54997 692.55 -7.375C726.145 -115.722 811.971 -226.708 927.986 -230.439C948.747 -231.105 969.78 -228.244 990.128 -225.477C1013.11 -222.349 1036.88 -219.12 1060.36 -220.96C1077.61 -222.311 1094.2 -226.309 1110.31 -231.993H1106.39C1091.48 -226.981 1076.14 -223.472 1060.26 -222.229C1036.92 -220.402 1013.22 -223.625 990.306 -226.74C969.907 -229.513 948.816 -232.38 927.954 -231.708C874.373 -229.988 822.865 -205.13 779.004 -159.823C740.577 -120.131 709.443 -66.1261 691.345 -7.74933C686.399 8.20102 682.056 24.7097 677.858 40.6791C667.294 80.8405 656.375 122.366 634.923 158.422C605.627 207.657 546.275 248.389 489.536 230.986C437.641 215.073 415.669 164.704 392.397 111.383C379.265 81.2846 365.683 50.1579 346.184 25.3568C329.545 4.19122 308.22 -12.4888 282.812 -24.2263C259.242 -35.1136 232.584 -41.5915 203.568 -43.4822C149.384 -47.0098 89.2899 -33.813 38.6821 -7.27983C-24.056 25.617 -77.9675 73.7155 -130.103 120.228C-160.255 147.123 -191.428 174.937 -224.033 199.58C-275.922 238.802 -410.079 324.144 -534.782 269.701C-589.727 245.712 -637.532 194.885 -676.871 118.623C-690.276 92.6351 -702.21 65.3469 -713.757 38.9597C-730.098 1.59628 -746.997 -37.0361 -768.334 -72.5786C-779.913 -91.8662 -792.506 -109.365 -805.981 -124.941V-122.942C-792.944 -107.766 -780.693 -90.7051 -769.425 -71.9251C-748.132 -36.4524 -731.252 2.14191 -714.924 39.4673L-714.918 39.4546Z" fill="#C9BC8C" fill-opacity="0.15"/>
<path d="M-773.306 -24.4229C-753.756 7.42709 -737.041 41.4977 -720.878 74.4452C-704.918 106.98 -688.412 140.626 -669.313 171.778C-649.11 204.732 -625.826 233.168 -600.1 256.294C-571.864 281.673 -541.427 299.914 -509.633 310.496C-487.217 317.958 -463.698 321.688 -439.235 321.688C-412.698 321.688 -385.051 317.298 -356.491 308.523C-308.99 293.924 -260.291 267.264 -215.669 231.43C-185.866 207.498 -157.325 180.743 -129.723 154.869C-80.1803 108.433 -28.951 60.4173 31.3014 27.1144C121.141 -22.5448 255.007 -31.4337 326.14 49.9106C346.964 73.7283 362.062 104.658 376.659 134.579C389.062 159.996 401.884 186.282 417.971 207.339C436.011 230.954 456.493 245.578 480.595 252.05C507.925 259.391 538.419 254.283 568.773 237.292C594.195 223.061 618.753 201.007 637.916 175.204C663.413 140.873 676.431 102.26 689.025 64.9156C692.874 53.4953 696.862 41.6816 701.104 30.3248C721.389 -23.947 751.496 -72.7244 785.884 -107.017C828.616 -149.634 875.21 -168.344 924.378 -162.64C934.118 -161.511 944.194 -160.159 953.934 -158.852C992.069 -153.745 1031.5 -148.46 1069.85 -153.168C1120.02 -159.335 1164.79 -185.785 1208.08 -211.373C1219.78 -218.289 1231.66 -225.306 1243.74 -231.98H1241.11C1229.71 -225.63 1218.49 -218.999 1207.44 -212.464C1164.25 -186.946 1119.61 -160.559 1069.69 -154.424C1031.5 -149.735 992.151 -155.008 954.099 -160.109C944.353 -161.416 934.277 -162.767 924.518 -163.896C898.71 -166.891 873.181 -163.059 848.635 -152.502C826.517 -142.985 805.097 -127.986 784.977 -107.918C750.469 -73.4984 720.254 -24.5624 699.906 29.8807C695.651 41.2566 691.669 53.0766 687.813 64.5096C675.252 101.759 662.266 140.277 636.889 174.449C600.44 223.525 538.076 266.179 480.912 250.832C427.819 236.575 403.513 186.77 377.788 134.034C363.153 104.043 348.023 73.0304 327.085 49.0922C310.135 29.703 288.988 14.5902 264.252 4.17232C241.215 -5.52859 215.464 -11.023 187.709 -12.1587C161.343 -13.2373 134.115 -10.3695 106.766 -3.63791C79.9434 2.96684 54.3447 12.9469 30.68 26.0232C-29.712 59.4022 -80.9983 107.475 -130.598 153.962C-158.181 179.816 -186.71 206.559 -216.474 230.453C-263.144 267.93 -385.101 350.639 -509.246 309.304C-569.441 289.261 -625.908 240.192 -668.247 171.124C-687.315 140.023 -703.801 106.409 -719.756 73.8996C-735.931 40.9266 -752.659 6.8307 -772.24 -25.0764C-781.593 -40.3224 -792.842 -56.774 -805.987 -72.9845V-70.9733C-793.299 -55.2006 -782.411 -39.2312 -773.318 -24.4102L-773.306 -24.4229Z" fill="#C9BC8C" fill-opacity="0.15"/>
<path d="M-777.199 23.0917C-759.546 51.2935 -743.604 81.0815 -728.189 109.886C-707.498 148.556 -686.097 188.54 -660.638 224.349C-638.134 256.002 -611.54 283.011 -581.597 304.628C-550.634 326.98 -517.794 342.289 -483.983 350.125C-466.964 354.071 -449.501 356.038 -431.651 356.038C-401.759 356.038 -370.783 350.512 -339.078 339.491C-294.032 323.826 -248.725 297.122 -208.066 262.271C-181.111 239.164 -155.22 213.557 -130.186 188.794C-83.186 142.307 -34.5884 94.2402 23.3369 60.3917C109.099 10.2756 234.106 -1.24622 307.098 73.69C329.539 96.7336 346.273 127.676 362.455 157.597C375.981 182.608 389.963 208.469 407.045 229.044C426.214 252.132 447.469 266.147 472.022 271.889C500.664 278.583 531.919 272.397 564.905 253.503C589.686 239.31 614.892 218.385 639.806 191.313C669.526 159.025 684.928 123.933 699.83 89.9893C703.019 82.7311 706.31 75.2254 709.646 68.0052C733.97 15.3386 803.265 -105.958 920.872 -94.8609C934.467 -93.5793 948.068 -91.7331 962.462 -89.7853C1001.03 -84.5573 1040.91 -79.1517 1079.34 -85.4075C1130.04 -93.6555 1175.41 -120.842 1219.28 -147.128C1244.76 -162.399 1271.11 -178.185 1298.35 -190.208C1397.23 -233.852 1522.41 -219.19 1628.98 -154.17V-155.604C1615.73 -163.643 1602.06 -171.003 1588.04 -177.62C1557.09 -192.232 1525.13 -202.935 1493.05 -209.432C1423.85 -223.441 1356.34 -217.198 1297.83 -191.375C1270.53 -179.327 1244.14 -163.516 1218.63 -148.225C1174.86 -121.997 1129.6 -94.88 1079.14 -86.67C1040.89 -80.446 1001.11 -85.8389 962.634 -91.0542C948.227 -93.0083 934.613 -94.8483 920.992 -96.1362C874.569 -100.52 830.715 -84.5763 790.64 -48.742C750.552 -12.8949 723.843 34.2392 708.498 67.4659C705.156 74.6988 701.859 82.2108 698.669 89.4754C683.812 123.318 668.448 158.314 638.873 190.45C597.707 235.173 535.394 285.397 472.307 270.646C418.187 257.995 391.656 208.932 363.565 156.982C347.344 126.978 330.566 95.9596 307.998 72.7891C274.543 38.4393 227.512 19.8623 171.996 19.0692C121.338 18.3586 68.3075 32.6277 22.6965 59.2814C-35.3683 93.2124 -84.0294 141.336 -131.08 187.88C-156.102 212.624 -181.967 238.212 -208.891 261.294C-297.17 336.972 -397.333 368.898 -483.692 348.881C-549.765 333.565 -613.886 287.903 -659.605 223.6C-685.019 187.855 -706.395 147.909 -727.073 109.271C-742.501 80.447 -758.449 50.64 -776.127 22.4002C-785.804 6.93834 -795.759 -7.43219 -805.981 -20.7115V-18.6304C-796.14 -5.75087 -786.546 8.15016 -777.205 23.0727L-777.199 23.0917Z" fill="#C9BC8C" fill-opacity="0.15"/>
<path d="M-781.086 70.6065C-765.405 95.2109 -750.681 120.951 -736.445 145.841C-710.827 190.628 -684.341 236.937 -651.951 276.927C-627.329 307.337 -596.67 333.66 -563.297 353.056C-530.108 372.35 -493.806 385.039 -458.315 389.766C-447.789 391.168 -437.161 391.866 -426.426 391.866C-392.356 391.866 -357.328 384.817 -321.913 370.795C-279.371 353.957 -237.375 327.094 -200.451 293.118C-176.329 270.919 -153.096 246.549 -130.63 222.979C-86.1917 176.358 -40.2446 128.152 15.3916 93.6755C95.1047 44.2763 214.367 29.7218 288.075 97.4759C312.342 119.784 330.82 150.853 348.689 180.901C363.273 205.429 378.359 230.802 396.367 250.838C416.582 273.336 438.528 286.717 463.468 291.748C493.099 297.731 524.627 290.726 559.858 270.335C589.927 252.932 617.764 228.479 640.135 208.837L641.714 207.453C676.641 176.784 694.966 145.435 712.689 115.114C714.528 111.967 716.361 108.839 718.193 105.737C776.841 6.50688 843.834 -38.1655 917.327 -27.0561C924.08 -26.0346 931.074 -24.9243 937.84 -23.8521C987.706 -15.9404 1039.27 -7.7558 1088.84 -17.6153C1140.15 -27.8175 1186.19 -55.8226 1230.72 -82.9077C1256.41 -98.5345 1282.98 -114.701 1310.37 -127.345C1406.31 -171.656 1524.65 -162.939 1628.99 -106.059V-107.404C1587.39 -129.871 1542.65 -145.186 1497.36 -152.267C1430.86 -162.666 1366.02 -154.443 1309.84 -128.494C1282.39 -115.817 1255.79 -99.6385 1230.06 -83.9863C1185.63 -56.9583 1139.68 -29.0166 1088.59 -18.8525C1039.25 -9.03743 987.795 -17.2029 938.037 -25.102C931.271 -26.1742 924.27 -27.2845 917.517 -28.306C843.467 -39.5106 776.036 5.37752 717.103 105.096C715.27 108.198 713.438 111.326 711.599 114.479C693.926 144.712 675.651 175.971 640.877 206.508L639.298 207.891C593.167 248.408 529.998 303.891 463.715 290.517C408.738 279.42 380.096 231.252 349.773 180.26C331.86 150.136 313.338 118.984 288.931 96.5496C255.14 65.4927 209.319 49.4853 156.429 50.3037C107.869 51.046 57.5405 66.0637 14.7195 92.6032C-41.0499 127.169 -87.0604 175.432 -131.549 222.109C-154.003 245.661 -177.217 270.018 -201.307 292.192C-280.043 364.654 -373.656 399.759 -458.137 388.516C-530.653 378.866 -600.937 337.905 -650.955 276.134C-683.276 236.22 -709.743 189.955 -735.336 145.219C-749.577 120.316 -764.308 94.5637 -780.008 69.9339C-788.562 56.5088 -797.211 43.883 -805.968 32.0503V34.1947C-797.579 45.6024 -789.285 57.7396 -781.08 70.6192L-781.086 70.6065Z" fill="#C9BC8C" fill-opacity="0.15"/>
<path d="M-745.373 182.291C-714.727 233.168 -683.041 285.771 -643.276 329.498C-593.157 384.614 -523.964 403.895 -457.053 422.536C-449.063 424.763 -440.801 427.066 -432.818 429.369C-420.459 432.935 -407.986 434.565 -395.475 434.565C-321.12 434.565 -246.017 376.823 -192.86 323.966C-171.561 302.788 -150.984 279.75 -131.086 257.468C-89.2354 210.607 -45.9515 162.153 7.41461 126.953C81.37 78.1756 194.976 60.5567 269.026 121.256C295.342 142.827 315.677 174.132 335.335 204.408C350.921 228.403 367.033 253.217 385.898 272.676C407.071 294.514 429.638 307.248 454.882 311.607C481.267 316.156 509.142 310.75 540.105 295.066C567.074 281.406 592.926 261.7 615.735 244.316C625.487 236.88 634.695 229.863 643.585 223.581C684.332 194.79 706.982 168.218 726.69 143.474C773.443 84.7677 830.315 23.5803 913.763 40.7424C974.168 53.1652 1038.17 64.1287 1098.31 50.1769C1150.36 38.1031 1197.17 9.17799 1242.44 -18.7954C1268.25 -34.7458 1294.94 -51.2354 1322.37 -64.483C1414 -108.73 1527.8 -105.463 1628.98 -57.7196V-59.09C1588.4 -78.1429 1545.14 -90.4261 1501.67 -95.0576C1470.61 -98.3695 1439.88 -97.7033 1410.32 -93.0781C1379.27 -88.2245 1349.49 -78.9867 1321.82 -65.625C1294.33 -52.352 1267.61 -35.837 1241.77 -19.874C1196.59 8.0423 1149.87 36.9166 1098.03 48.946C1038.14 62.8407 974.288 51.8963 914.017 39.5052C874.988 31.4793 838.489 39.7908 802.44 64.9154C771.756 86.2968 746.741 116.275 725.701 142.688C706.05 167.362 683.464 193.851 642.856 222.554C633.946 228.847 624.727 235.877 614.968 243.313C567.511 279.484 513.727 320.483 455.098 310.369C399.417 300.764 368.803 253.63 336.4 203.736C316.686 173.383 296.299 141.99 269.832 120.291C235.875 92.4574 191.317 79.0195 140.957 81.4431C94.4896 83.6764 46.8114 99.4682 6.7171 125.912C-46.7885 161.201 -90.1232 209.718 -132.031 256.643C-151.917 278.906 -172.48 301.931 -193.755 323.084C-255.611 384.589 -347.239 452.749 -432.469 428.17C-440.459 425.867 -448.721 423.564 -456.717 421.337C-523.456 402.741 -592.466 383.51 -642.344 328.667C-682.027 285.035 -713.681 232.483 -744.295 181.656C-757.06 160.472 -770.256 138.564 -783.921 117.455C-791.308 106.048 -798.651 95.2617 -805.981 85.0596V87.2548C-798.974 97.0509 -791.98 107.342 -784.986 118.147C-771.327 139.236 -758.138 161.131 -745.38 182.31L-745.373 182.291Z" fill="#C9BC8C" fill-opacity="0.15"/>
<path d="M-754.745 219.197C-719.033 276.134 -682.109 335.012 -634.589 382.063C-580.735 435.39 -508.751 449.259 -439.14 462.678C-428.582 464.715 -417.669 466.815 -407.162 469.004C-398.722 470.761 -390.124 471.643 -381.354 471.643C-322.794 471.643 -256.968 432.459 -185.245 354.813C-166.742 334.783 -148.809 313.199 -131.467 292.325C-92.2346 245.102 -51.6647 196.274 -0.536987 160.243C65.8409 113.464 172.554 88.752 249.997 145.048C278.602 165.839 300.903 197.48 322.469 228.073C338.974 251.491 356.051 275.709 375.683 294.546C397.718 315.686 420.824 327.766 446.315 331.471C470.982 335.056 496.853 330.209 525.407 316.657C550.511 304.735 574.284 287.89 597.276 271.597C614.093 259.682 629.971 248.421 645.481 239.703C669.247 226.341 686.71 213.963 702.119 203.044C714.034 194.599 724.325 187.303 735.08 181.301L735.194 181.237L735.27 181.136C758.269 151.633 821.349 85.4908 910.225 108.541C989.272 129.04 1053.9 132.124 1107.81 117.969C1160.75 104.068 1208.44 74.1086 1254.56 45.1391C1280.37 28.9286 1307.05 12.1725 1334.4 -1.627C1423.49 -46.5849 1530.71 -48.8499 1628.99 -9.43722V-10.7061C1589.5 -26.3519 1547.71 -35.6151 1506 -37.8103C1476.23 -39.3774 1446.75 -37.3345 1418.38 -31.7322C1388.77 -25.8824 1360.32 -16.1371 1333.82 -2.76269C1306.42 11.0622 1279.71 27.8374 1253.88 44.0605C1207.84 72.9793 1160.24 102.881 1107.48 116.738C1053.79 130.836 989.374 127.752 910.542 107.31C874.405 97.939 838.889 102.101 804.964 119.676C772.587 136.451 748.706 161.855 734.35 180.254C723.583 186.281 713.292 193.571 701.39 202.01C686.006 212.916 668.568 225.269 644.866 238.599C629.305 247.348 613.395 258.623 596.547 270.563C551.843 302.248 501.172 338.165 446.506 330.215C390.273 322.043 357.845 276.045 323.515 227.344C301.886 196.661 279.521 164.938 250.752 144.026C216.783 119.333 173.512 108.427 125.612 112.481C81.2242 116.237 36.1649 132.834 -1.25983 159.209C-52.527 195.335 -93.1478 244.233 -132.437 291.519C-149.767 312.38 -167.693 333.952 -186.171 353.957C-268.312 442.883 -342.572 481.179 -406.896 467.773C-417.409 465.584 -428.328 463.477 -438.892 461.441C-508.32 448.06 -580.113 434.229 -633.689 381.169C-681.101 334.219 -717.986 275.404 -753.661 218.525C-764.733 200.874 -776.178 182.627 -787.795 164.951C-793.958 155.58 -800.001 146.678 -805.962 138.202V140.359C-799.963 148.943 -794.269 157.413 -788.854 165.655C-777.243 183.318 -765.798 201.566 -754.733 219.21L-754.745 219.197Z" fill="#C9BC8C" fill-opacity="0.15"/>
<path d="M-764.428 256.504C-723.655 319.487 -681.494 384.614 -625.915 434.629C-592.948 464.302 -552.568 486.756 -509.145 499.559C-481.25 507.788 -452.5 511.95 -424.27 511.95C-409.762 511.95 -395.38 510.853 -381.335 508.638C-343.891 502.738 -306.847 488.697 -271.223 466.904C-236.671 445.763 -205.187 418.424 -177.636 385.648C-161.897 366.925 -146.584 346.933 -131.777 327.595C-95.2149 279.864 -57.416 230.516 -8.50128 193.508C66.5131 136.762 164.983 126.604 230.961 168.815C262.089 188.724 286.483 220.783 310.072 251.79C327.427 274.598 345.373 298.188 365.689 316.384C388.492 336.801 412.061 348.228 437.742 351.311C442.333 351.863 446.873 352.123 451.376 352.123C498.527 352.123 540.816 323.255 581.83 295.257C604.442 279.82 625.792 265.24 647.364 255.799C652.158 253.699 656.742 251.682 661.143 249.747C696.735 234.088 720.248 223.74 743.456 219.013L743.621 218.982L743.748 218.867C795.414 172.92 850.226 158.6 906.668 176.314C941.943 187.385 976.958 194.092 1010.72 196.249C1049.06 198.698 1084.9 195.158 1117.28 185.736C1171.31 170.008 1220.03 138.894 1267.14 108.801C1292.79 92.4256 1319.3 75.4855 1346.4 61.2101C1431.84 16.1761 1534.61 8.65137 1628.98 39.0421V37.7097C1534.39 7.35707 1431.44 14.9516 1345.81 60.0871C1318.67 74.3942 1292.13 91.3407 1266.46 107.735C1219.43 137.777 1170.78 168.84 1116.92 184.518C1039.79 206.971 960.218 191.789 907.042 175.102C874.379 164.849 841.786 165.344 810.17 176.574C787.254 184.714 764.667 198.584 743.031 217.801C719.747 222.573 696.209 232.927 660.63 248.579C656.229 250.514 651.644 252.532 646.85 254.632C625.177 264.123 603.77 278.735 581.113 294.203C536.383 324.74 490.132 356.317 437.895 350.049C381.244 343.247 347.161 298.448 311.08 251.022C287.428 219.933 262.964 187.779 231.646 167.749C197.81 146.107 155.858 137.688 110.33 143.405C68.0286 148.721 25.5563 166.156 -9.26227 192.499C-58.3101 229.609 -96.1724 279.027 -132.785 326.821C-147.585 346.14 -162.893 366.126 -178.612 384.83C-234.375 451.182 -308.337 495.848 -381.531 507.376C-466.387 520.744 -559.702 492.504 -625.065 433.683C-680.517 383.776 -722.634 318.725 -763.363 255.812C-772.595 241.549 -782.145 226.798 -791.701 212.453C-796.539 205.188 -801.295 198.197 -805.975 191.465V193.654C-801.46 200.189 -797.059 206.698 -792.76 213.151C-783.21 227.49 -773.661 242.235 -764.428 256.497V256.504Z" fill="#C9BC8C" fill-opacity="0.15"/>
<path d="M-774.301 294.159C-728.494 363.169 -681.132 434.521 -617.234 487.187C-581.103 516.963 -537.47 538.338 -491.054 549.003C-468.689 554.142 -446.089 556.705 -423.832 556.705C-400.504 556.705 -377.556 553.882 -355.673 548.242C-286.771 530.477 -220.843 483.685 -170.026 416.483C-156.996 399.245 -144.256 381.01 -131.942 363.379C-98.1318 314.976 -63.1737 264.923 -16.453 226.785C52.7467 170.293 146.664 156.233 211.938 192.594C245.831 211.47 272.425 244.03 298.138 275.518C316.261 297.706 334.999 320.654 355.924 338.197C379.405 357.884 403.368 368.664 429.169 371.157C432.91 371.519 436.614 371.69 440.292 371.69C486.828 371.69 528.216 343.863 568.342 316.885C595.869 298.378 621.867 280.899 649.241 271.896C691.821 257.899 722.493 253.35 751.82 256.675L752.004 256.694L752.169 256.611C789.061 238.39 839.554 220.498 903.117 244.094C945.094 259.676 989.386 267.543 1032.23 267.543C1065.17 267.543 1097.26 262.893 1126.77 253.515C1182.13 235.922 1232.07 203.482 1280.36 172.12C1305.65 155.694 1331.8 138.716 1358.42 124.06C1442.03 78.0297 1538.47 65.3849 1628.99 87.5022V86.2968C1591.91 77.3953 1553.1 74.1214 1514.71 76.7925C1459.99 80.6056 1405.74 96.5623 1357.81 122.95C1331.15 137.625 1304.99 154.622 1279.68 171.061C1231.46 202.384 1181.59 234.773 1126.38 252.316C1058.77 273.805 977.554 270.379 903.567 242.913C874.278 232.039 844.602 228.943 815.357 233.695C789.53 237.895 767.831 247.488 751.782 255.406C722.328 252.094 691.529 256.675 648.854 270.703C621.315 279.757 595.241 297.287 567.645 315.845C524.538 344.827 479.967 374.799 429.302 369.907C372.366 364.406 336.787 320.844 299.127 274.725C273.339 243.142 246.668 210.486 212.56 191.49C178.971 172.786 138.37 166.823 95.1301 174.246C54.9407 181.142 15.0302 199.459 -17.252 225.808C-64.1058 264.06 -99.121 314.183 -132.976 362.655C-145.284 380.281 -158.016 398.502 -171.035 415.722C-221.674 482.702 -287.361 529.328 -355.983 547.017C-443.686 569.629 -543.481 546.325 -616.416 486.21C-680.169 433.664 -727.479 362.389 -773.236 293.461C-780.541 282.453 -788.093 271.077 -795.588 259.968C-798.879 255.089 -802.341 249.994 -805.962 244.741V246.98C-802.823 251.542 -799.716 256.11 -796.634 260.678C-789.146 271.781 -781.593 283.164 -774.288 294.165L-774.301 294.159Z" fill="#C9BC8C" fill-opacity="0.15"/>
<path d="M-784.301 332.119C-733.516 407.137 -680.999 484.719 -608.559 539.752C-569.067 569.756 -522.112 590.173 -472.785 598.802C-455.379 601.847 -438.011 603.357 -420.916 603.357C-389.204 603.357 -358.418 598.148 -330.023 587.845C-297.722 576.126 -266.492 557.473 -237.21 532.418C-209.639 508.829 -184.478 480.196 -162.43 447.311C-152.011 431.78 -141.79 415.493 -131.898 399.746C-100.953 350.474 -68.9503 299.52 -24.4236 260.057C39.2593 203.615 128.623 185.647 192.896 216.368C229.776 233.993 258.672 267.131 286.617 299.177C305.424 320.749 324.872 343.05 346.336 359.959C370.413 378.923 394.699 389.081 420.583 391.009C470.69 394.74 514.221 365.485 556.32 337.188C586.706 316.765 618.125 295.644 651.118 287.998C691.377 278.665 726.044 280.67 760.209 294.305L760.349 294.362L762.099 294.191C795.433 290.961 841.083 286.539 899.553 311.886C935.253 327.367 975.569 336.465 1016.14 338.203C1057.32 339.967 1098.85 334.124 1136.23 321.301C1193.25 301.747 1244.66 267.778 1294.38 234.932C1319.05 218.633 1344.55 201.781 1370.43 186.91C1451.35 140.372 1543.4 122.67 1628.97 136.197V134.915C1543.17 121.401 1450.91 139.166 1369.79 185.812C1343.89 200.709 1318.37 217.567 1293.69 233.879C1244.04 266.68 1192.69 300.605 1135.82 320.108C1060.96 345.785 972.824 342.276 900.06 310.725C841.292 285.245 795.453 289.686 761.978 292.928L760.532 293.068C726.158 279.389 691.295 277.384 650.826 286.761C617.612 294.463 586.091 315.648 555.609 336.135C513.689 364.311 470.335 393.452 420.679 389.747C363.565 385.49 326.654 343.158 287.574 298.34C259.547 266.198 230.562 232.959 193.441 215.219C160.202 199.332 120.957 195.786 79.9434 204.954C41.8972 213.462 4.53583 232.692 -25.267 259.105C-69.9332 298.695 -101.981 349.725 -132.976 399.073C-142.861 414.814 -153.083 431.088 -163.489 446.607C-208.897 514.323 -268.198 564.065 -330.461 586.658C-418.55 618.622 -527.413 599.811 -607.798 538.744C-680.073 483.837 -732.526 406.351 -783.261 331.408C-788.581 323.553 -794.079 315.426 -799.5 307.476C-801.618 304.367 -803.787 301.208 -805.981 298.023V300.25C-804.155 302.902 -802.348 305.554 -800.547 308.187C-795.125 316.137 -789.627 324.258 -784.307 332.112L-784.301 332.119Z" fill="#C9BC8C" fill-opacity="0.15"/>
<path d="M-804.434 355.708C-801.079 360.574 -797.725 365.453 -794.371 370.332C-738.665 451.359 -681.063 535.146 -599.885 592.305C-556.823 622.626 -506.462 642.205 -454.244 648.924C-441.162 650.605 -428.208 651.443 -415.443 651.443C-375.679 651.443 -337.842 643.328 -304.367 627.448C-274.571 613.312 -246.163 592.438 -219.93 565.391C-196.316 541.053 -174.408 511.697 -154.821 478.14C-146.894 464.562 -139.069 450.452 -131.505 436.805C-103.579 386.435 -74.7017 334.352 -32.3753 293.328C17.0213 245.451 99.9493 210.442 173.879 240.141C213.948 256.237 245.241 290.016 275.501 322.684C294.923 343.653 315.012 365.333 336.945 381.626C361.542 399.898 386.101 409.459 412.017 410.855C414.154 410.969 416.272 411.027 418.383 411.027C465.212 411.027 506.004 383.345 545.502 356.539C579.477 333.483 614.613 309.64 653.008 304.082C696.767 297.75 729.081 313.11 760.33 327.963C763.151 329.302 765.954 330.634 768.738 331.941C781.826 338.064 796.41 342.606 813.302 347.866C837.386 355.372 864.684 363.873 896.009 379.659C932.159 397.881 974.568 408.235 1018.64 409.612C1061.48 410.95 1105.43 403.851 1145.71 389.074C1204.82 367.401 1258.04 331.617 1309.52 297.008C1333.21 281.083 1357.71 264.612 1382.44 249.747C1462.61 201.566 1548.63 179.169 1628.97 184.892V183.617C1548.39 177.9 1462.15 200.36 1381.79 248.655C1357.03 263.54 1332.51 280.017 1308.82 295.954C1257.4 330.52 1204.24 366.259 1145.28 387.881C1061.87 418.469 968.905 414.967 896.579 378.523C865.159 362.687 837.811 354.166 813.683 346.648C796.841 341.401 782.295 336.871 769.283 330.78C766.499 329.479 763.703 328.147 760.881 326.808C729.461 311.873 696.97 296.424 652.83 302.813C614.144 308.415 578.887 332.341 544.792 355.48C503.683 383.377 461.166 412.232 412.087 409.58C354.891 406.497 316.781 365.364 276.433 321.809C246.072 289.039 214.684 255.152 174.349 238.948C141.521 225.758 103.64 224.584 64.7883 235.554C28.9361 245.68 -5.88885 265.868 -33.2631 292.395C-75.7226 333.553 -104.65 385.718 -132.621 436.164C-140.185 449.805 -148.004 463.909 -155.924 477.474C-197.185 548.153 -248.712 599.608 -304.919 626.274C-392.292 667.723 -510.54 653.645 -599.162 591.239C-680.15 534.207 -737.688 450.515 -793.331 369.584C-796.685 364.698 -800.039 359.826 -803.394 354.959C-804.256 353.709 -805.119 352.459 -805.981 351.21V353.443C-805.467 354.185 -804.954 354.934 -804.44 355.676L-804.434 355.708Z" fill="#C9BC8C" fill-opacity="0.15"/>
<path d="M-591.21 644.857C-545.067 675.115 -489.722 694.453 -435.367 699.313C-426.065 700.144 -416.876 700.557 -407.802 700.557C-360.13 700.557 -315.934 689.149 -278.712 667.044C-251.223 650.726 -225.555 627.625 -202.429 598.396C-182.823 573.62 -164.763 544.365 -147.211 508.968C-141.587 497.624 -136 485.925 -130.604 474.619C-105.919 422.91 -80.396 369.438 -40.327 326.605C4.82111 278.342 82.6763 240.242 154.856 263.92C198.267 278.158 232.039 312.641 264.696 345.988C284.676 366.386 305.335 387.482 327.681 403.204C352.741 420.829 377.521 429.826 403.444 430.72C404.826 430.771 406.189 430.79 407.559 430.79C455.06 430.79 496.023 402.55 535.667 375.218C572.863 349.573 611.322 323.059 654.897 320.178C703.622 316.961 742.46 341.997 777.177 369.533C811.311 396.605 847.937 421.362 892.451 447.451C928.836 468.775 973.249 480.513 1020.9 481.395C1065.42 482.226 1111.85 473.743 1155.19 456.873C1216.98 432.82 1272.5 394.81 1326.2 358.049C1348.41 342.841 1371.38 327.119 1394.45 312.615C1474.57 262.258 1554.77 235.42 1628.97 233.79V232.47C1596.22 233.136 1562.38 238.656 1527.9 249.004C1483.91 262.207 1438.79 283.246 1393.77 311.537C1370.67 326.06 1347.69 341.788 1325.47 356.996C1271.83 393.719 1216.37 431.685 1154.72 455.686C1062.28 491.673 964.466 488.183 893.085 446.353C848.628 420.296 812.04 395.571 777.957 368.537C743.044 340.843 703.964 315.667 654.808 318.909C610.884 321.809 572.273 348.431 534.938 374.171C494.323 402.176 452.327 431.139 403.475 429.451C346.266 427.478 307.079 387.469 265.59 345.1C232.826 311.645 198.945 277.047 155.237 262.715C122.859 252.094 86.3287 253.262 49.6015 266.09C16.0067 277.828 -16.2692 299.013 -41.2655 325.736C-81.4677 368.714 -107.035 422.276 -131.758 474.073C-137.155 485.379 -142.735 497.072 -148.359 508.41C-186.076 584.476 -228.928 636.013 -279.377 665.96C-366.452 717.655 -491.491 708.754 -590.532 643.804C-680.41 584.863 -742.957 494.972 -803.451 408.032L-805.994 404.377V406.598L-804.491 408.755C-743.934 495.791 -681.31 585.789 -591.229 644.864L-591.21 644.857Z" fill="#C9BC8C" fill-opacity="0.15"/>
<path d="M-582.536 697.416C-532.549 728.073 -473.457 746.701 -416.147 749.873C-410.218 750.203 -404.353 750.362 -398.538 750.362C-342.908 750.362 -292.903 735.382 -253.062 706.635C-227.203 687.975 -204.845 663.352 -184.706 631.362C-164.998 600.058 -150.249 565.981 -139.596 539.784C-136.013 530.965 -132.43 521.943 -128.968 513.213C-107.833 459.912 -85.976 404.79 -48.2722 359.864C-7.23944 310.972 65.6063 269.688 135.84 287.687C182.7 299.691 219.009 334.936 254.125 369.013C274.613 388.897 295.792 409.453 318.518 424.642C343.997 441.671 368.974 450.148 394.877 450.566C395.53 450.579 396.177 450.579 396.824 450.579C445.256 450.579 486.632 421.502 526.663 393.363C566.618 365.282 607.923 336.249 656.159 336.249C656.375 336.249 656.597 336.249 656.812 336.249C700.014 336.484 743.374 360.327 785.687 407.112C795.167 417.6 804.368 428.715 813.271 439.469C835.756 466.637 859.009 494.731 888.919 515.218C907.701 528.078 929.071 537.862 952.425 544.295C974.289 550.316 997.979 553.431 1022.84 553.552C1023.35 553.552 1023.86 553.552 1024.37 553.552C1070.14 553.552 1118.62 543.566 1164.69 524.646C1230.04 497.808 1288.56 456.949 1345.17 417.435C1365.16 403.483 1385.83 389.049 1406.49 375.452C1461.45 339.288 1541.04 293.074 1628.99 282.713V281.362C1597.88 284.947 1565.95 293.252 1532.38 306.467C1493.3 321.847 1451.89 344.066 1405.79 374.399C1385.11 388.002 1364.43 402.436 1344.44 416.401C1287.89 455.877 1229.41 496.698 1164.2 523.479C1085.34 555.868 971.79 570.435 889.63 514.171C859.865 493.786 836.669 465.762 814.241 438.664C805.332 427.903 796.125 416.775 786.626 406.268C744.071 359.204 700.394 335.221 656.819 334.986C656.597 334.986 656.381 334.986 656.159 334.986C607.523 334.986 566.047 364.134 525.933 392.329C485.535 420.721 443.754 450.078 394.896 449.297C337.719 448.377 297.542 409.383 255.006 368.099C219.776 333.902 183.34 298.543 136.157 286.457C104.223 278.272 69.0368 281.749 34.4021 296.5C3.12817 309.824 -26.5796 332.036 -49.2488 359.045C-87.0857 404.13 -108.981 459.341 -130.154 512.743C-133.616 521.474 -137.193 530.496 -140.775 539.308C-166.101 601.593 -197.318 664.843 -253.804 705.607C-352.585 776.889 -493.108 750.768 -581.87 696.331C-677.962 637.402 -746.109 542.582 -805.975 457.412V459.62C-777.364 500.308 -745.278 545.336 -709.908 586.005C-668.165 634.008 -626.504 670.451 -582.536 697.416Z" fill="#C9BC8C" fill-opacity="0.15"/>
<path d="M-789.507 490.442C-725.095 579.711 -658.489 672.019 -562.435 730.719C-510.172 762.55 -447.827 780.956 -386.877 782.548C-383.928 782.624 -380.999 782.662 -378.076 782.662C-316.067 782.662 -260.234 765.322 -216.145 732.28C-161.961 691.68 -130.591 629.053 -107.054 573.144C-103.598 564.941 -100.148 556.547 -96.8065 548.426C-75.9255 497.675 -54.3279 445.199 -18.0065 402.315C21.1684 356.076 90.6344 316.225 157.501 331.446C203.283 341.813 239.255 374.805 274.042 406.712C284.638 416.432 295.602 426.482 306.623 435.688C332.729 457.545 365.036 480.138 406.684 481.985C408.567 482.074 410.432 482.112 412.296 482.112C457.089 482.112 495.826 457.469 533.327 433.607C571.126 409.555 610.206 384.696 655.671 384.696C655.937 384.696 656.21 384.696 656.476 384.696C665.043 384.754 673.775 385.724 682.436 387.59C714.883 394.575 747.749 414.427 780.12 446.601C789.194 455.667 798.014 465.267 806.543 474.555C828.299 498.233 850.791 522.724 879.458 540.482C894.88 550.018 912.216 557.6 930.986 563.025C955.24 570.016 981.885 573.468 1009.73 573.468C1052.75 573.468 1098.62 565.22 1142.91 549.016C1151.22 545.97 1159.7 542.601 1168.13 539.01C1204.51 523.491 1237.79 501.666 1269.97 480.557C1302.63 459.138 1336.39 436.995 1372.99 421.832C1400.68 410.36 1432.44 402.246 1466.07 393.649C1488.26 387.977 1511.22 382.114 1533.96 375.008C1541.73 372.578 1549.52 370.123 1557.32 367.674C1581.04 360.213 1605.14 352.624 1628.96 345.557V344.231C1605.01 351.33 1580.78 358.956 1556.94 366.462C1549.15 368.917 1541.35 371.366 1533.59 373.796C1510.87 380.896 1487.94 386.752 1465.76 392.424C1432.09 401.027 1400.28 409.155 1372.51 420.664C1335.8 435.872 1301.99 458.053 1269.28 479.498C1237.14 500.574 1203.92 522.368 1167.63 537.843C1159.22 541.427 1150.76 544.79 1142.48 547.829C1069.78 574.432 992.817 579.527 931.341 561.813C912.686 556.42 895.451 548.882 880.131 539.41C851.615 521.74 829.18 497.32 807.481 473.705C798.946 464.41 790.113 454.798 781.02 445.713C748.478 413.361 715.397 393.395 682.709 386.359C673.965 384.481 665.144 383.497 656.495 383.44C656.223 383.44 655.95 383.44 655.677 383.44C609.844 383.44 570.606 408.406 532.655 432.548C493.759 457.292 453.544 482.886 406.754 480.722C365.48 478.895 333.394 456.441 307.447 434.724C296.445 425.537 285.494 415.5 274.905 405.786C239.991 373.771 203.891 340.659 157.786 330.222C127.298 323.281 93.7985 327.202 60.8949 341.553C31.1491 354.528 2.78571 375.82 -18.9703 401.503C-55.4249 444.539 -77.0541 497.11 -97.9732 547.95C-101.315 556.064 -104.764 564.458 -108.22 572.662C-131.688 628.412 -162.956 690.856 -216.899 731.277C-307.234 798.968 -449.051 798.295 -561.775 729.647C-657.614 671.086 -724.144 578.88 -788.48 489.712L-788.721 489.376C-794.478 481.401 -800.217 473.47 -805.975 465.597V467.703C-800.439 475.31 -795.036 482.797 -789.754 490.125L-789.507 490.461V490.442Z" fill="#C9BC8C" fill-opacity="0.15"/>
<path d="M-764.339 533.446C-700.904 618.978 -635.312 707.415 -542.334 764.015C-487.725 797.064 -422.114 815.267 -357.588 815.261C-324.621 815.261 -292.858 810.566 -263.189 801.303C-232.016 791.576 -203.767 776.984 -179.215 757.925C-127.808 718.017 -97.4342 658.987 -74.4987 606.504C-71.1887 598.929 -67.8724 591.182 -64.6639 583.689C-44.0238 535.476 -22.6798 485.627 12.2783 444.767C46.8559 404.365 111.319 361.907 179.187 375.211C224.081 383.903 259.883 414.764 294.511 444.602C303.858 452.66 313.528 460.99 323.211 468.743C348.575 489.173 379.735 510.453 418.516 513.397C463.703 516.988 502.636 495.067 540.277 473.87C575.831 453.84 612.584 433.138 655.17 433.138C655.5 433.138 655.842 433.138 656.178 433.138C664.314 433.201 672.646 434.051 680.959 435.669C711.897 441.69 743.405 458.656 774.597 486.09C783.455 493.881 792.06 502.135 800.386 510.117C821.254 530.134 842.833 550.83 870.042 565.74C884.696 573.728 901.221 580.079 919.172 584.615C978.233 599.417 1051.86 595.325 1121.17 573.379C1129.09 570.86 1137.16 568.081 1145.17 565.112C1194.65 546.782 1240.14 521.918 1284.14 497.872C1302.2 487.999 1320.87 477.797 1339.54 468.192C1342.26 468.236 1345 468.255 1347.77 468.255C1404.26 468.255 1470.59 459.062 1535.65 442.153C1565.15 434.47 1596.34 424.712 1628.98 412.968V411.623C1596.22 423.418 1564.93 433.22 1535.33 440.929C1467.13 458.656 1397.55 467.881 1339.41 466.923H1339.25L1339.11 466.992C1320.37 476.623 1301.64 486.864 1283.53 496.761C1239.57 520.788 1194.12 545.628 1144.73 563.925C1136.74 566.888 1128.69 569.661 1120.79 572.173C1051.69 594.05 978.322 598.136 919.483 583.391C901.64 578.886 885.21 572.573 870.651 564.636C843.594 549.809 822.072 529.17 801.267 509.209C792.935 501.215 784.318 492.955 775.44 485.144C744.078 457.564 712.372 440.497 681.206 434.432C672.817 432.801 664.402 431.945 656.197 431.881C655.855 431.881 655.519 431.881 655.183 431.881C612.266 431.881 575.362 452.666 539.668 472.779C502.193 493.887 463.443 515.719 418.63 512.147C380.185 509.235 349.228 488.082 324.016 467.773C314.346 460.026 304.688 451.708 295.348 443.657C260.593 413.71 224.658 382.736 179.434 373.98C150.399 368.283 118.573 372.648 87.4068 386.6C59.1892 399.232 32.17 419.598 11.3207 443.955C-23.7642 484.96 -45.1461 534.899 -65.8242 583.2C-69.0328 590.693 -72.3492 598.44 -75.6592 606.009C-98.5312 658.346 -128.81 717.198 -179.994 756.935C-274.317 830.164 -426.432 832.696 -541.68 762.943C-634.443 706.476 -699.965 618.134 -763.325 532.704L-766.273 528.725C-779.444 510.967 -792.576 493.418 -805.975 476.198V478.343C-793.102 494.89 -780.274 511.976 -767.288 529.474L-764.339 533.452V533.446Z" fill="#C9BC8C" fill-opacity="0.15"/>
<path d="M-739.077 576.374C-676.668 658.2 -612.136 742.805 -522.239 797.318C-467.573 830.215 -402.007 848.126 -336.713 848.126C-333.91 848.126 -331.095 848.094 -328.286 848.024C-293.879 847.206 -260.69 841.47 -229.632 830.97C-197.179 820 -167.794 804.05 -142.291 783.57C-93.7374 744.576 -64.3214 689.041 -41.9503 639.864C-38.7988 632.936 -35.6345 625.849 -32.5718 619.003C-12.16 573.309 8.94922 526.061 42.5567 487.219C85.8215 437.236 147.964 410.449 200.861 418.976C245.355 425.987 281.417 455.058 316.293 483.171C323.959 489.351 331.885 495.74 339.786 501.812C365.74 521.74 394.674 540.736 430.336 544.815C435.276 545.38 440.139 545.647 444.939 545.647C482.199 545.647 515.344 529.665 547.512 514.146C580.714 498.132 615.031 481.579 654.599 481.579C655.024 481.579 655.443 481.579 655.868 481.579C663.559 481.648 671.498 482.378 679.469 483.749C709.183 488.862 738.491 502.548 769.074 525.579C777.59 531.987 785.871 538.782 793.88 545.348C813.962 561.825 834.735 578.861 860.619 590.998C874.474 597.438 890.194 602.551 907.346 606.193C963.788 618.02 1033.79 614.936 1099.42 597.73C1106.95 595.737 1114.61 593.542 1122.18 591.207C1169.02 576.767 1211.97 557.105 1253.52 538.09C1270.65 530.248 1288.37 522.14 1306.09 514.514C1339.42 521.734 1376.29 524.976 1415.68 524.176C1455.86 523.358 1496.78 518.346 1537.32 509.286C1567.62 502.497 1598.47 493.24 1628.98 481.909V480.557C1598.39 491.946 1567.44 501.241 1537.05 508.048C1456.11 526.143 1374.11 527.983 1306.17 513.232L1305.97 513.188L1305.78 513.27C1287.98 520.922 1270.2 529.062 1253 536.935C1211.49 555.931 1168.58 575.58 1121.82 589.995C1114.27 592.324 1106.62 594.513 1099.11 596.505C1033.67 613.661 963.87 616.738 907.619 604.95C890.562 601.327 874.931 596.245 861.165 589.843C835.42 577.769 814.717 560.785 794.692 544.359C786.67 537.779 778.383 530.978 769.848 524.557C739.1 501.399 709.608 487.644 679.697 482.492C671.663 481.109 663.654 480.38 655.893 480.31C615.507 479.967 580.663 496.749 546.979 512.997C509.168 531.232 473.455 548.457 430.501 543.553C395.143 539.511 366.387 520.617 340.579 500.803C332.684 494.744 324.764 488.361 317.104 482.181C282.102 453.961 245.901 424.782 201.076 417.72C173.486 413.273 143.347 418.082 113.912 431.628C87.2228 443.911 61.5417 463.357 41.6119 486.388C7.88391 525.376 -13.2634 572.706 -33.7133 618.489C-36.7696 625.335 -39.9338 632.422 -43.0853 639.344C-65.3931 688.381 -94.7203 743.751 -143.071 782.586C-242.644 862.554 -401.823 868.295 -521.567 796.24C-611.254 741.86 -675.717 657.343 -738.056 575.612L-743.807 568.075C-763.414 542.385 -783.984 515.802 -805.962 489.928V492.009C-785.075 516.645 -764.904 542.519 -744.815 568.842L-739.064 576.38L-739.077 576.374Z" fill="#C9BC8C" fill-opacity="0.15"/>
<path d="M1272.88 559.567L1272.67 559.49L1272.46 559.56C1255.54 565.232 1238.65 571.285 1222.31 577.135C1183.31 591.106 1142.97 605.546 1098.9 616.078C1091.76 617.785 1084.53 619.39 1077.41 620.849C1015.75 633.285 949.527 635.359 895.736 626.528C879.027 623.723 864.608 619.974 851.653 615.069C827.177 605.793 807.266 592.432 788.015 579.508C780.336 574.35 772.39 569.02 764.229 563.989C734.496 545.659 706.348 534.728 678.175 530.578C670.484 529.449 662.88 528.833 655.582 528.757C618.436 528.383 586.186 541.066 555.013 553.343C518.35 567.783 483.721 581.417 442.365 574.971C411.89 570.219 386.253 555.094 357.129 533.846C351.352 529.626 345.531 525.268 339.9 521.055C304.302 494.407 267.492 466.846 222.699 461.479C196.536 458.345 168.077 463.611 140.399 476.725C114.851 488.824 91.1607 506.849 71.884 528.84C39.4876 565.829 18.5558 610.584 -1.68469 653.86C-4.57623 660.04 -7.56281 666.435 -10.5367 672.685C-32.3245 718.55 -60.7261 770.519 -106.172 808.237C-210.793 895.076 -377.042 904.028 -501.478 829.53C-588.097 777.225 -651.45 696.502 -712.717 618.432C-715.602 614.758 -718.481 611.085 -721.366 607.418C-746.16 575.872 -774.644 540.317 -805.975 507.16V508.943C-776.844 539.898 -749.533 573.645 -722.362 608.204C-719.483 611.872 -716.598 615.539 -713.713 619.219C-652.376 697.378 -588.953 778.189 -502.131 830.621C-447.231 863.486 -381.538 881.213 -315.477 881.213C-309.967 881.213 -304.45 881.086 -298.94 880.839C-263.081 879.221 -228.453 872.445 -196.031 860.695C-162.297 848.475 -131.796 831.154 -105.361 809.208C-59.7305 771.331 -31.2402 719.21 -9.38904 673.224C-6.4151 666.962 -3.42853 660.573 -0.536987 654.387C19.6655 611.186 40.5593 566.514 72.8414 529.664C113.741 483 172.503 456.727 222.547 462.729C266.997 468.058 302.038 494.293 339.139 522.064C344.776 526.283 350.598 530.642 356.38 534.861C385.657 556.223 411.446 571.425 442.168 576.215C483.867 582.712 518.648 569.014 555.476 554.51C586.078 542.455 617.701 530.001 653.927 530.001C654.472 530.001 655.024 530.001 655.569 530.007C662.817 530.083 670.363 530.692 677.998 531.809C705.993 535.933 733.989 546.808 763.576 565.048C771.718 570.067 779.651 575.396 787.323 580.542C806.638 593.504 826.606 606.916 851.222 616.237C864.253 621.173 878.748 624.941 895.546 627.758C917.619 631.381 941.772 633.177 966.844 633.177C1003.05 633.177 1041.16 629.44 1077.67 622.074C1084.81 620.614 1092.06 619.009 1099.21 617.296C1143.35 606.751 1183.71 592.292 1222.75 578.315C1239.01 572.491 1255.83 566.47 1272.67 560.823C1349.05 589.018 1446.12 594.703 1539.02 576.418C1568.99 570.505 1599.27 561.933 1629 551.116V549.764C1599.2 560.633 1568.84 569.242 1538.78 575.174C1446.02 593.434 1349.11 587.743 1272.9 559.554L1272.88 559.567Z" fill="#C9BC8C" fill-opacity="0.15"/>
<path d="M1540.47 642.326C1434.58 661.004 1324.91 647.731 1239.57 605.901L1239.37 605.8L1239.15 605.85C1223 609.543 1206.87 613.502 1191.28 617.328C1154.88 626.267 1117.25 635.505 1076 642.154C1069.28 643.239 1062.45 644.261 1055.72 645.187C997.712 652.972 935.076 654.031 883.853 648.099C867.924 646.253 854.285 643.696 842.141 640.289C818.838 633.748 799.631 623.971 781.052 614.517C773.798 610.825 766.296 607.005 758.598 603.401C729.379 589.71 703.343 581.842 676.647 578.638C669.177 577.744 662.177 577.268 655.265 577.185C654.51 577.179 653.762 577.173 653.014 577.173C620.478 577.173 591.88 585.656 564.208 593.859C528.311 604.505 494.406 614.555 454.229 606.383C423.862 600.21 397.781 583.479 373.672 566.875C370.616 564.769 367.566 562.656 364.522 560.544C326.052 533.864 289.711 508.67 244.322 505.218C219.604 503.34 192.833 509.063 166.898 521.753C142.897 533.503 120.513 550.621 102.169 571.266C71.0723 606.288 50.3245 648.499 30.2678 689.314C27.5728 694.796 24.7891 700.461 22.0244 706.013C0.712219 748.814 -26.7952 797.477 -69.2611 833.882C-178.714 927.719 -352.033 939.888 -481.377 862.82C-564.933 812.583 -627.113 735.61 -687.251 661.175C-691.139 656.366 -695.019 651.557 -698.906 646.767C-732.083 605.825 -766.965 564.414 -805.968 528.04V529.772C-767.364 565.905 -732.786 606.967 -699.896 647.566C-696.015 652.356 -692.134 657.159 -688.247 661.975C-628.039 736.499 -565.783 813.56 -482.037 863.911C-426.743 896.859 -360.746 914.484 -293.898 914.484C-285.795 914.484 -277.678 914.224 -269.574 913.704C-232.238 911.299 -196.183 903.489 -162.404 890.482C-127.389 877 -95.7792 858.283 -68.4431 834.853C-25.806 798.295 1.78387 749.499 23.1531 706.584C25.9178 701.032 28.7015 695.36 31.3965 689.878C51.4214 649.133 72.1249 607.005 103.107 572.11C142.307 527.996 196.39 502.852 244.22 506.481C289.273 509.901 325.474 535.006 363.8 561.584C366.843 563.697 369.893 565.81 372.956 567.916C397.172 584.596 423.38 601.396 453.982 607.621C494.469 615.856 528.521 605.755 564.569 595.065C592.793 586.696 621.975 578.017 655.252 578.448C662.126 578.53 669.076 579 676.501 579.888C703.057 583.073 728.973 590.909 758.066 604.543C765.739 608.141 773.234 611.954 780.481 615.64C799.111 625.119 818.382 634.928 841.806 641.501C854.012 644.927 867.721 647.496 883.713 649.349C935.031 655.294 997.788 654.234 1055.89 646.437C1062.64 645.511 1069.47 644.489 1076.2 643.404C1117.5 636.749 1155.17 627.505 1191.58 618.559C1207.1 614.746 1223.15 610.806 1239.22 607.132C1324.76 648.994 1434.63 662.279 1540.69 643.563C1570.35 638.322 1599.98 630.525 1628.98 620.475V619.13C1599.91 629.224 1570.21 637.053 1540.47 642.313V642.326Z" fill="#C9BC8C" fill-opacity="0.15"/>
<path d="M1206.25 652.236L1206.07 652.128L1205.86 652.154C1189.98 653.854 1174.15 655.713 1158.83 657.508C1125.48 661.423 1091 665.471 1053.1 668.243C1046.79 668.707 1040.38 669.144 1034.04 669.538C981.105 672.628 922.038 672.678 871.969 669.677C856.193 668.732 843.689 667.412 832.617 665.515C810.24 661.689 792.352 655.745 773.424 649.457C766.797 647.255 759.949 644.984 752.955 642.827C733.443 636.825 706.963 629.567 675.131 626.712C667.934 626.071 661.333 625.715 654.96 625.627C626.096 625.227 600.504 630.093 575.767 634.801C539.858 641.634 505.94 648.093 466.112 637.808C437.615 630.449 412.442 614.232 390.229 599.918C352.309 575.485 313.097 550.227 265.945 548.977C242.679 548.368 217.588 554.529 193.391 566.806C170.931 578.201 149.859 594.424 132.441 613.718C102.593 646.818 81.9977 686.529 62.0806 724.939C59.5822 729.754 57.0902 734.564 54.5792 739.36C33.6982 779.211 7.03412 824.657 -32.3563 859.546C-146.387 960.546 -326.783 975.925 -461.289 896.123C-541.776 847.948 -602.745 774.687 -661.704 703.837C-666.63 697.917 -671.545 692.01 -676.465 686.123C-707.486 649.013 -741.417 609.924 -779.285 575.434C-788.207 567.307 -797.097 559.668 -805.981 552.505V554.053C-757.992 592.882 -716.515 640.207 -677.442 686.935C-672.521 692.816 -667.607 698.723 -662.68 704.642C-603.651 775.575 -542.619 848.919 -461.942 897.208C-406.116 930.333 -339.662 947.939 -271.952 947.933C-261.375 947.933 -250.754 947.502 -240.152 946.632C-201.326 943.454 -163.831 934.609 -128.708 920.34C-92.4059 905.589 -59.7052 885.451 -31.5193 860.485C8.02966 825.457 34.7635 779.89 55.7015 739.938C58.2126 735.141 60.7109 730.325 63.2093 725.51C83.0948 687.176 103.652 647.535 133.385 614.555C170.259 573.696 221.038 549.054 265.907 550.234C312.703 551.471 351.764 576.634 389.538 600.972C411.833 615.336 437.095 631.616 465.789 639.02C505.896 649.381 539.947 642.897 576.002 636.032C600.675 631.337 626.179 626.477 654.941 626.877C661.282 626.965 667.852 627.321 675.017 627.955C706.735 630.798 733.133 638.03 752.587 644.02C759.568 646.164 766.41 648.442 773.03 650.637C791.178 656.665 809.942 662.901 832.414 666.74C843.53 668.643 856.079 669.969 871.9 670.914C922.013 673.915 981.137 673.865 1034.12 670.775C1040.47 670.382 1046.89 669.944 1053.2 669.481C1091.12 666.708 1125.61 662.66 1158.97 658.739C1174.21 656.95 1189.98 655.097 1205.79 653.403C1251.78 680.381 1306.47 699.865 1363.96 709.763C1422.88 719.908 1482.91 720.212 1542.37 710.683C1571.58 705.994 1600.51 698.951 1628.98 689.631V688.305C1600.55 697.613 1571.46 704.731 1542.18 709.433C1423.12 728.511 1300.68 707.656 1206.25 652.204V652.236Z" fill="#C9BC8C" fill-opacity="0.15"/>
<path d="M1172.91 698.558L1172.76 698.457H1172.57C1125.74 696.934 1082.23 695.735 1030.2 694.326C1024.38 694.174 1018.43 694.022 1012.36 693.876C961.068 692.467 907.048 691.103 860.074 691.249C846.587 691.287 834.501 691.281 823.074 690.742C800.595 689.676 782.396 687.132 763.126 684.435C757.983 683.718 752.663 682.969 747.28 682.259C724.008 679.188 700.863 676.301 673.597 674.785C666.356 674.385 660.331 674.157 654.637 674.068C632.596 673.713 612.609 675.293 593.281 676.815C555.356 679.804 519.535 682.627 477.976 669.233C454.907 661.798 433.627 649.045 413.044 636.717C410.952 635.461 408.859 634.211 406.76 632.961C372.931 612.792 333.027 591.379 287.549 592.743C265.736 593.39 242.331 600.001 219.877 611.853C198.965 622.892 179.193 638.221 162.713 656.164C134.051 687.404 113.538 724.698 93.7034 760.767C91.5157 764.745 89.3281 768.73 87.1277 772.701C66.6082 809.735 40.7495 852.06 4.53583 885.204C-111.885 991.781 -303.511 1010.79 -441.207 929.426C-518.637 883.301 -578.319 813.707 -636.041 746.403C-641.932 739.532 -648.026 732.426 -654.025 725.485C-697.346 675.324 -746.8 621.135 -805.987 580.745V582.287C-747.231 622.55 -698.069 676.422 -654.982 726.316C-648.983 733.257 -642.896 740.363 -637.005 747.234C-579.219 814.614 -519.462 884.29 -441.854 930.524C-385.349 963.915 -318.28 981.566 -249.632 981.566C-236.683 981.566 -223.665 980.938 -210.666 979.669C-128.442 971.643 -51.709 938.429 5.39825 886.149C41.7451 852.878 67.6735 810.445 88.2438 773.323C90.4441 769.351 92.6318 765.373 94.8194 761.389C114.622 725.383 135.098 688.159 163.651 657.033C198.73 618.838 245.057 595.281 287.587 594.018C332.716 592.679 372.436 613.985 406.113 634.059C408.206 635.309 410.298 636.559 412.391 637.815C433.037 650.181 454.381 662.971 477.589 670.452C519.389 683.928 555.33 681.092 593.383 678.091C612.685 676.568 632.64 674.994 654.618 675.343C660.293 675.432 666.298 675.66 673.527 676.06C700.749 677.577 723.869 680.457 747.115 683.528C752.498 684.238 757.812 684.981 762.955 685.704C782.25 688.407 800.481 690.957 823.017 692.023C834.469 692.563 846.58 692.575 860.08 692.531C907.061 692.385 961.049 693.749 1012.33 695.157C1018.4 695.303 1024.34 695.449 1030.17 695.608C1082.12 697.016 1125.6 698.209 1172.35 699.726C1222.71 733.301 1283 758.172 1346.73 771.674C1410.94 785.27 1479.18 787.415 1544.06 777.866C1572.36 773.691 1600.86 767.175 1628.97 758.502V757.328C1601.11 765.881 1572.63 772.365 1543.87 776.603C1411.6 796.068 1276.39 767.626 1172.9 698.565L1172.91 698.558Z" fill="#C9BC8C" fill-opacity="0.15"/>
<path d="M1139.57 744.886L1139.45 744.804L1139.31 744.779C1128.55 742.691 1117.8 740.528 1107.41 738.434C1076.02 732.121 1043.57 725.586 1007.34 720.434C1001.81 719.654 996.222 718.912 990.705 718.245C939.032 711.755 888.418 709.839 848.191 712.846C839.351 713.506 830.937 714.324 822.795 715.111C819.656 715.416 816.574 715.714 813.543 715.999C788.351 718.347 766.48 720.225 741.611 721.729C721.212 722.966 698.466 723.34 672.088 722.877C668.79 722.82 665.487 722.75 662.189 722.68C659.577 722.623 656.964 722.572 654.352 722.522C647.624 722.401 641.055 722.312 634.701 722.23C582.324 721.551 540.955 721.018 489.885 700.677C472.796 693.869 456.398 684.594 440.545 675.622C434.914 672.437 429.093 669.144 423.329 666.01C379.709 642.3 344.504 633.202 309.184 636.514C269.375 640.245 225.952 663.466 193.017 698.622C165.433 728.099 144.907 763.095 125.06 796.944C123.278 799.983 121.496 803.022 119.708 806.055C98.4401 842.149 74.2364 879.83 41.4659 910.88C-78.8551 1024.86 -277.71 1047.16 -421.087 962.741C-495.454 918.659 -553.805 852.681 -610.227 788.88C-617.215 780.981 -624.437 772.815 -631.552 764.847C-660.543 732.381 -695.438 694.815 -734.46 662.299C-758.48 642.281 -782.164 625.76 -805.968 612.449V613.896C-736.908 652.636 -680.847 711.558 -632.497 765.697C-625.382 773.666 -618.16 781.831 -611.178 789.724C-554.686 853.595 -496.272 919.649 -421.734 963.833C-364.423 997.573 -296.574 1015.33 -226.886 1015.33C-211.674 1015.33 -196.367 1014.49 -181.072 1012.77C-95.6524 1003.22 -16.3134 967.36 42.3348 911.8C75.2257 880.642 99.4865 842.873 120.799 806.696C122.587 803.663 124.369 800.624 126.15 797.585C145.966 763.8 166.454 728.86 193.942 699.491C226.668 664.551 269.794 641.476 309.298 637.777C344.352 634.497 379.329 643.544 422.72 667.127C428.472 670.255 434.293 673.548 439.917 676.726C455.808 685.717 472.244 695.018 489.409 701.857C540.695 722.287 582.172 722.82 634.676 723.499C641.029 723.581 647.599 723.664 654.32 723.791C656.933 723.841 659.545 723.892 662.158 723.949C665.461 724.019 668.759 724.089 672.062 724.146C698.479 724.609 721.256 724.228 741.687 722.997C766.569 721.494 788.458 719.622 813.658 717.268C816.689 716.983 819.777 716.685 822.916 716.38C831.051 715.593 839.459 714.775 848.286 714.115C888.431 711.114 938.95 713.03 990.553 719.508C996.064 720.18 1001.65 720.916 1007.16 721.697C1043.36 726.849 1075.8 733.371 1107.16 739.684C1117.51 741.765 1128.21 743.922 1138.93 746.003C1193.65 786.164 1259.55 816.435 1329.52 833.546C1399.86 850.746 1474.63 854.705 1545.75 845.004C1573.53 841.21 1601.42 835.234 1628.98 827.246V825.875C1601.53 833.895 1573.62 839.916 1545.58 843.748C1402.25 863.302 1250.47 826.345 1139.57 744.899V744.886Z" fill="#C9BC8C" fill-opacity="0.15"/>
<path d="M1106.14 791.151C1068.64 769.77 1027.75 758.483 984.466 746.536C979.387 745.134 974.2 743.808 969.051 742.602C921.779 731.328 874.633 728.422 836.295 734.424C826.454 735.966 816.486 738.072 803.988 741.251C789.968 744.817 777.247 748.757 764.946 752.57C755.092 755.622 745.783 758.508 735.923 761.192C713.628 767.264 692.855 770.36 670.56 770.937C665.455 771.071 660.052 771.077 654.041 770.95C599.198 769.789 556.504 758.895 501.768 732.102C491.406 727.026 481.102 721.285 471.141 715.727C460.963 710.048 450.431 704.173 439.867 699.04C401.725 680.501 366.051 674.36 330.788 680.267C293.503 686.516 254.322 708.671 223.295 741.054C196.599 768.945 175.889 801.848 155.858 833.673L152.269 839.377C127.825 878.13 105.904 909.478 78.3708 936.526C-45.4505 1058.15 -251.534 1083.73 -400.992 996.025C-472.303 953.967 -529.252 891.574 -584.318 831.23C-592.434 822.335 -600.823 813.142 -609.105 804.19C-666.282 742.349 -729.47 681.358 -805.968 647.738V649.121C-729.901 682.697 -666.986 743.453 -610.037 805.052C-601.755 814.005 -593.366 823.198 -585.256 832.093C-530.127 892.507 -473.115 954.976 -401.639 997.129C-341.779 1032.25 -272.865 1049.26 -203.767 1049.26C-99.7805 1049.26 4.63098 1010.74 79.2585 937.439C106.88 910.31 128.852 878.891 153.341 840.062L156.93 834.358C176.929 802.591 197.608 769.738 224.208 741.943C255.045 709.75 293.966 687.728 330.991 681.529C365.981 675.667 401.408 681.77 439.302 700.189C449.835 705.309 460.348 711.171 470.513 716.843C480.487 722.408 490.804 728.162 501.197 733.25C556.117 760.139 598.957 771.064 654.003 772.232C660.033 772.359 665.455 772.359 670.579 772.219C692.982 771.642 713.844 768.533 736.24 762.429C746.126 759.739 755.441 756.852 765.307 753.794C777.596 749.988 790.297 746.048 804.286 742.488C816.746 739.316 826.676 737.222 836.479 735.687C874.652 729.71 921.626 732.61 968.747 743.846C973.883 745.052 979.051 746.371 984.117 747.773C1027.32 759.701 1068.14 770.969 1105.5 792.268C1184.96 837.569 1252.21 868.048 1317.13 888.199C1355.89 900.228 1394.01 908.425 1430.44 912.568C1470.29 917.098 1509.66 916.952 1547.44 912.143C1574.69 908.673 1601.99 903.216 1628.97 895.882V894.492C1602.08 901.865 1574.76 907.385 1547.28 910.887C1379.82 932.205 1223.55 858.106 1106.13 791.164L1106.14 791.151Z" fill="#C9BC8C" fill-opacity="0.15"/>
</g>
</svg>
