<svg width="80" height="80" viewBox="0 0 80 80" fill="none" xmlns="http://www.w3.org/2000/svg">
<path d="M10.3928 0V80H69.6072V0H10.3928ZM64.9197 75.3125H15.0803V4.6875H64.9197V75.3125Z" fill="white"/>
<path d="M57.8796 49.8359H22.1187V54.5234H57.8796V49.8359Z" fill="white"/>
<path d="M57.8796 59.2188H22.1187V63.9062H57.8796V59.2188Z" fill="white"/>
<g clip-path="url(#clip0_24047_1113)">
<path d="M52.1793 32.2451C50.184 30.2497 47.7677 28.829 45.1312 28.0632C47.1322 26.6207 48.4375 24.2705 48.4375 21.6208V19.6151C50.0014 19.1717 51.1508 17.732 51.1508 16.028C51.1508 14.4853 50.1809 13.083 48.7372 12.5387L37.6846 8.37226C35.9055 7.70157 33.9099 7.94705 32.3465 9.02865C30.7828 10.1103 29.8494 11.891 29.8494 13.7922V13.9645C29.8494 16.0275 30.9343 17.8409 32.5627 18.8672V21.6207C32.5627 24.2704 33.868 26.6206 35.869 28.0631C33.2325 28.8289 30.8162 30.2497 28.8209 32.245C25.7013 35.3646 23.9832 39.5124 23.9832 43.9242V45H57.0171V43.9242C57.0171 39.5124 55.299 35.3646 52.1793 32.2451ZM51.7826 35.0425L48.4012 33.6053V31.9328C49.6877 32.7832 50.8298 33.8347 51.7826 35.0425ZM42.572 36.1692L40.7468 42.8485H40.2534L38.4283 36.1692L39.0914 33.5439H41.9089L42.572 36.1692ZM41.6709 31.3923H39.3293V29.6071C39.7155 29.5758 40.1058 29.5589 40.5 29.5589C40.8942 29.5589 41.2846 29.5758 41.6708 29.6071L41.6709 31.3923ZM32.001 13.7923C32.001 12.5794 32.573 11.4881 33.5705 10.7981C34.1944 10.3667 34.9062 10.1462 35.6297 10.1462C36.063 10.1462 36.5006 10.2254 36.9258 10.3857L47.9784 14.5521C48.589 14.7823 48.9993 15.3754 48.9993 16.028C48.9993 16.8977 48.2918 17.6053 47.4221 17.6053H35.6416C33.6341 17.6053 32.001 15.9721 32.001 13.9647V13.7923ZM34.7143 21.6207V19.6816C35.0164 19.7305 35.3259 19.7568 35.6416 19.7568H46.2859V21.6207C46.2859 24.811 43.6904 27.4066 40.5001 27.4066C37.3098 27.4066 34.7143 24.8111 34.7143 21.6207ZM32.599 31.9327V33.6053L29.2176 35.0424C30.1705 33.8347 31.3126 32.7832 32.599 31.9327ZM27.3335 38.1811L34.7506 35.0286V30.7607C35.5265 30.4206 36.3379 30.1471 37.1777 29.9475V32.3342L36.2036 36.1908L38.0229 42.8485H26.1746C26.2972 41.2002 26.6996 39.6289 27.3335 38.1811ZM42.9773 42.8485L44.7966 36.1908L43.8225 32.3343V29.9476C44.6623 30.1472 45.4738 30.4206 46.2496 30.7608V35.0287L53.6667 38.1812C54.3006 39.629 54.7031 41.2003 54.8256 42.8485H42.9773V42.8485Z" fill="white"/>
</g>
<defs>
<clipPath id="clip0_24047_1113">
<rect width="37" height="37" fill="white" transform="translate(22 8)"/>
</clipPath>
</defs>
</svg>
