<svg width="132" height="148" viewBox="0 0 132 148" fill="none" xmlns="http://www.w3.org/2000/svg">
<path fill-rule="evenodd" clip-rule="evenodd" d="M14.6667 0.666016C10.6166 0.666016 7.33333 3.9493 7.33333 7.99935V139.999H3.66667C1.64164 139.999 0 141.641 0 143.666C0 145.691 1.64164 147.333 3.66667 147.333H33V125.333C33 121.282 36.2833 117.999 40.3333 117.999H55C59.0502 117.999 62.3333 121.282 62.3333 125.333V147.333H128.333C130.358 147.333 132 145.691 132 143.666C132 141.641 130.358 139.999 128.333 139.999H124.667V29.9993C124.667 25.9493 121.384 22.666 117.333 22.666H88V7.99935C88 3.9493 84.7169 0.666016 80.6667 0.666016H14.6667ZM33 22.666C30.975 22.666 29.3333 24.3077 29.3333 26.3327V33.666C29.3333 35.691 30.975 37.3327 33 37.3327H40.3333C42.3584 37.3327 44 35.691 44 33.666V26.3327C44 24.3077 42.3584 22.666 40.3333 22.666H33ZM29.3333 48.3327C29.3333 46.3077 30.975 44.666 33 44.666H40.3333C42.3584 44.666 44 46.3077 44 48.3327V55.666C44 57.691 42.3584 59.3327 40.3333 59.3327H33C30.975 59.3327 29.3333 57.691 29.3333 55.666V48.3327ZM33 66.666C30.975 66.666 29.3333 68.308 29.3333 70.3327V77.666C29.3333 79.6908 30.975 81.3327 33 81.3327H40.3333C42.3584 81.3327 44 79.6908 44 77.666V70.3327C44 68.308 42.3584 66.666 40.3333 66.666H33ZM29.3333 92.3327C29.3333 90.308 30.975 88.666 33 88.666H40.3333C42.3584 88.666 44 90.308 44 92.3327V99.666C44 101.691 42.3584 103.333 40.3333 103.333H33C30.975 103.333 29.3333 101.691 29.3333 99.666V92.3327ZM55 22.666C52.9753 22.666 51.3333 24.3077 51.3333 26.3327V33.666C51.3333 35.691 52.9753 37.3327 55 37.3327H62.3333C64.3581 37.3327 66 35.691 66 33.666V26.3327C66 24.3077 64.3581 22.666 62.3333 22.666H55ZM95.3333 48.3327C95.3333 46.3077 96.9753 44.666 99 44.666H106.333C108.358 44.666 110 46.3077 110 48.3327V55.666C110 57.691 108.358 59.3327 106.333 59.3327H99C96.9753 59.3327 95.3333 57.691 95.3333 55.666V48.3327ZM99 66.666C96.9753 66.666 95.3333 68.308 95.3333 70.3327V77.666C95.3333 79.6908 96.9753 81.3327 99 81.3327H106.333C108.358 81.3327 110 79.6908 110 77.666V70.3327C110 68.308 108.358 66.666 106.333 66.666H99ZM95.3333 92.3327C95.3333 90.308 96.9753 88.666 99 88.666H106.333C108.358 88.666 110 90.308 110 92.3327V99.666C110 101.691 108.358 103.333 106.333 103.333H99C96.9753 103.333 95.3333 101.691 95.3333 99.666V92.3327ZM99 110.666C96.9753 110.666 95.3333 112.308 95.3333 114.333V121.666C95.3333 123.691 96.9753 125.333 99 125.333H106.333C108.358 125.333 110 123.691 110 121.666V114.333C110 112.308 108.358 110.666 106.333 110.666H99ZM51.3333 48.3327C51.3333 46.3077 52.9753 44.666 55 44.666H62.3333C64.3581 44.666 66 46.3077 66 48.3327V55.666C66 57.691 64.3581 59.3327 62.3333 59.3327H55C52.9753 59.3327 51.3333 57.691 51.3333 55.666V48.3327ZM55 66.666C52.9753 66.666 51.3333 68.308 51.3333 70.3327V77.666C51.3333 79.6908 52.9753 81.3327 55 81.3327H62.3333C64.3581 81.3327 66 79.6908 66 77.666V70.3327C66 68.308 64.3581 66.666 62.3333 66.666H55ZM51.3333 92.3327C51.3333 90.308 52.9753 88.666 55 88.666H62.3333C64.3581 88.666 66 90.308 66 92.3327V99.666C66 101.691 64.3581 103.333 62.3333 103.333H55C52.9753 103.333 51.3333 101.691 51.3333 99.666V92.3327Z" fill="white"/>
<path d="M55.0007 147.332V125.332H40.334V147.332H55.0007Z" fill="white"/>
</svg>
