<svg width="28" height="28" viewBox="0 0 28 28" fill="none" xmlns="http://www.w3.org/2000/svg">
<path d="M14 16.12V23.4473H18.3929C19.3736 24.1206 20.5615 24.5145 21.8423 24.5145V16.12H14Z" fill="#F1563C"/>
<path d="M6.15771 16.12V24.5145C7.43855 24.5145 8.62636 24.1206 9.60707 23.4473H14.0001V16.12H6.15771Z" fill="#F57D47"/>
<path d="M11.5391 16.12L14 26.1707C15.1067 27.2997 16.6491 28 18.3568 28V16.12H11.5391Z" fill="#C82F37"/>
<path d="M9.64307 16.12V28C11.3508 28 12.8933 27.2997 13.9999 26.1707V16.12H9.64307Z" fill="#ED2B2D"/>
<path d="M14.0003 21.7842C20.0158 21.7842 24.8924 16.9077 24.8924 10.8921C24.8924 4.87654 20.0158 0 14.0003 0L8.5542 10.8921L14.0003 21.7842Z" fill="#ED2B2D"/>
<path d="M14 0C7.98445 0 3.10791 4.87654 3.10791 10.8921C3.10791 16.9077 7.98445 21.7842 14 21.7842V0Z" fill="#F1563C"/>
<path d="M17.2625 11.9522L20.1458 8.89521L16.0164 8.11684L14 4.43008L12.3594 11.9522L14 14.3226L17.7983 16.12L17.2625 11.9522Z" fill="#FDD35E"/>
<path d="M13.9998 4.43008L11.9834 8.11684L7.854 8.89526L10.7372 11.9522L10.2015 16.12L13.9998 14.3226V4.43008Z" fill="#FFF173"/>
</svg>
