<svg width="176" height="134" viewBox="0 0 176 134" fill="none" xmlns="http://www.w3.org/2000/svg">
<path d="M148.991 11.1728C137.774 6.05653 125.745 2.2871 113.167 0.128197C112.938 0.0865307 112.709 0.190657 112.591 0.398914C111.044 3.13398 109.331 6.7021 108.131 9.50662C94.603 7.49354 81.1447 7.49354 67.8944 9.50662C66.6941 6.63976 64.9182 3.13398 63.3642 0.398914C63.2462 0.197605 63.0174 0.0934792 62.7884 0.128197C50.218 2.28021 38.1888 6.04963 26.9642 11.1728C26.867 11.2144 26.7837 11.2839 26.7285 11.3741C3.91154 45.2575 -2.33897 78.3082 0.727321 110.949C0.741195 111.109 0.831379 111.261 0.956252 111.359C16.0102 122.347 30.5925 129.019 44.904 133.441C45.1331 133.51 45.3758 133.427 45.5215 133.239C48.9069 128.644 51.9247 123.799 54.5122 118.703C54.6649 118.405 54.5191 118.051 54.207 117.932C49.4203 116.128 44.8624 113.927 40.478 111.428C40.1312 111.227 40.1035 110.734 40.4225 110.498C41.3451 109.81 42.268 109.095 43.149 108.373C43.3084 108.242 43.5305 108.214 43.7179 108.297C72.5214 121.369 103.705 121.369 132.168 108.297C132.356 108.207 132.578 108.235 132.744 108.366C133.625 109.088 134.548 109.81 135.478 110.498C135.797 110.734 135.776 111.227 135.429 111.428C131.045 113.976 126.487 116.128 121.693 117.926C121.381 118.044 121.242 118.405 121.395 118.703C124.038 123.791 127.056 128.637 130.379 133.232C130.517 133.427 130.767 133.51 130.996 133.441C145.377 129.019 159.959 122.347 175.013 111.359C175.145 111.261 175.228 111.116 175.242 110.956C178.912 73.2195 169.096 40.4399 149.22 11.381C149.172 11.2839 149.089 11.2144 148.991 11.1728ZM58.8135 91.0741C50.1417 91.0741 42.9963 83.1605 42.9963 73.4418C42.9963 63.723 50.0031 55.8094 58.8135 55.8094C67.6931 55.8094 74.7693 63.7925 74.6304 73.4418C74.6304 83.1605 67.6237 91.0741 58.8135 91.0741ZM117.295 91.0741C108.623 91.0741 101.478 83.1605 101.478 73.4418C101.478 63.723 108.484 55.8094 117.295 55.8094C126.175 55.8094 133.251 63.7925 133.112 73.4418C133.112 83.1605 126.175 91.0741 117.295 91.0741Z" fill="white"/>
</svg>
