<svg width="94" height="94" viewBox="0 0 94 94" fill="none" xmlns="http://www.w3.org/2000/svg">
<path d="M90.1429 24.0487C86.561 21.8881 82.0593 22.7637 80.1075 25.9997L72.1983 39.1142C72.0626 39.3393 71.8654 39.4247 71.7241 39.4568C71.5825 39.4889 71.3679 39.4966 71.1483 39.3523C70.8957 39.1862 70.7688 38.8867 70.825 38.5897L75.2471 15.2255C75.6702 12.9895 75.1288 10.7609 73.7616 9.11075C72.4463 7.52322 70.463 6.58707 68.2879 6.51841C63.9371 5.83342 59.7855 8.73641 58.9612 13.0938L54.8975 34.5651C54.85 34.8157 54.4488 35.1484 54.1936 35.1484C53.8415 35.1484 53.5551 34.862 53.5551 34.5097V12.3163C53.5551 7.79512 49.877 4.11719 45.356 4.11719C40.835 4.11719 37.1569 7.79512 37.1569 12.3163V35.5049C37.1569 35.7289 37.035 35.9353 36.8387 36.0434C36.6303 36.1582 36.4407 36.1249 36.3182 36.0774C36.1958 36.0293 36.0342 35.9248 35.9589 35.6986L29.2987 15.6452C28.6086 13.5668 27.1501 11.8816 25.1924 10.8999C23.2344 9.91838 21.0118 9.75774 18.9333 10.4481C16.8549 11.1384 15.1697 12.5966 14.188 14.5545C13.2161 16.4932 13.0494 18.692 13.7165 20.7528L20.7731 45.4403L21.4458 47.9965L14.1733 42.7319C12.5327 41.3375 10.2652 40.7262 7.92231 41.0539C5.74214 41.3586 3.68387 42.4418 2.27552 44.0248C0.864784 45.6105 0.0358583 47.8646 0.00134267 50.2102C-0.0361105 52.7552 0.885714 55.0544 2.52355 56.5112L15.5624 68.1947L22.3669 75.206L28.431 89.8817H73.1967L76.9047 70.559C78.2132 63.7396 80.6087 57.2162 84.0247 51.1701L93.148 33.7536C95.0287 30.5255 93.6947 26.1908 90.1429 24.0487ZM88.3828 30.9904L88.34 31.0614L79.2072 48.4991C75.5085 55.0556 72.9141 62.128 71.4953 69.5208L68.6452 84.3735H32.1146L27.0542 72.1271L19.4481 64.29L19.3813 64.221L6.19194 52.4027C5.75701 52.0161 5.49539 51.207 5.50879 50.2916C5.52366 49.279 5.86147 48.2808 6.39059 47.6862C6.93531 47.0741 7.79306 46.6342 8.68514 46.5094C9.48084 46.3981 10.1901 46.5586 10.6296 46.9496L10.7329 47.0416L30.6923 61.4906L26.0922 44.0106L18.998 19.1888L18.9636 19.0775C18.7371 18.3955 18.7898 17.6659 19.112 17.0233C19.434 16.3809 19.9872 15.9024 20.6692 15.6757C21.3511 15.4493 22.0807 15.502 22.7235 15.824C23.366 16.1462 23.8445 16.6994 24.071 17.3815L30.7309 37.4349C31.3057 39.1663 32.6098 40.5407 34.3084 41.2062C36.0072 41.8714 37.8977 41.7484 39.4957 40.8683C41.4502 39.7917 42.6645 37.7365 42.6645 35.5051V12.3163C42.6645 10.8325 43.8716 9.62537 45.3554 9.62537C46.8392 9.62537 48.0464 10.8325 48.0464 12.3163V34.5091C48.0464 37.8986 50.8039 40.656 54.1931 40.656C57.0849 40.656 59.7714 38.4301 60.3091 35.5886L64.3728 14.1174C64.6486 12.6594 66.0587 11.6987 67.5172 11.9737L67.7709 12.0218H68.0293C68.6684 12.0218 69.1976 12.2357 69.5195 12.6242C69.8413 13.0127 69.9531 13.5724 69.8344 14.2007L65.4125 37.565C64.9416 40.0544 66.0046 42.5621 68.1209 43.9539C69.5557 44.8976 71.2682 45.2079 72.9426 44.828C74.6173 44.4481 76.0279 43.429 76.9146 41.9586L84.8239 28.844C85.1518 28.3002 86.2796 28.1513 87.2978 28.765C88.3166 29.3795 88.7105 30.4466 88.3828 30.9904Z" fill="white"/>
</svg>
