<svg width="27" height="30" viewBox="0 0 27 30" fill="none" xmlns="http://www.w3.org/2000/svg">
<path d="M26.625 26.6665C26.625 27.4401 26.3177 28.1819 25.7707 28.7289C25.2237 29.2759 24.4819 29.5832 23.7083 29.5832H3.29167C2.51812 29.5832 1.77625 29.2759 1.22927 28.7289C0.682291 28.1819 0.375 27.4401 0.375 26.6665C0.389463 24.0096 1.31037 21.4372 2.98542 19.3748C3.44631 18.8111 4.1014 18.4401 4.82193 18.3349C5.54245 18.2297 6.27628 18.3977 6.87917 18.8061C8.83006 20.1315 11.1342 20.8401 13.4927 20.8401C15.8512 20.8401 18.1554 20.1315 20.1063 18.8061C20.7103 18.3935 21.4474 18.2229 22.1713 18.3283C22.8953 18.4336 23.5532 18.8072 24.0146 19.3748C25.6896 21.4372 26.6105 24.0096 26.625 26.6665ZM13.5 17.9165C15.2306 17.9165 16.9223 17.4033 18.3612 16.4419C19.8002 15.4804 20.9217 14.1138 21.5839 12.515C22.2462 10.9161 22.4195 9.1568 22.0819 7.45947C21.7443 5.76213 20.9109 4.20303 19.6872 2.97932C18.4635 1.75561 16.9044 0.922257 15.207 0.584637C13.5097 0.247016 11.7504 0.420295 10.1515 1.08256C8.55267 1.74483 7.1861 2.86634 6.22464 4.30527C5.26318 5.7442 4.75 7.43592 4.75 9.16651C4.75 11.4872 5.67187 13.7127 7.31282 15.3537C8.95376 16.9946 11.1794 17.9165 13.5 17.9165Z" fill="white"/>
</svg>
