<svg width="48" height="34" viewBox="0 0 48 34" fill="none" xmlns="http://www.w3.org/2000/svg">
<path d="M5.72447 33.0654H17.4604L9.19331 22.9233L0 15.605V27.3408C0 30.4974 2.568 33.0654 5.72447 33.0654Z" fill="#FDD278"/>
<path d="M42.2755 0.93457H30.5396L38.3322 9.66476L47.9999 18.3949V6.65904C47.9999 3.50257 45.4319 0.93457 42.2755 0.93457Z" fill="#F6B16D"/>
<path d="M24 0.93457L23.0625 17.8608L24 33.0653H42.2755C45.432 33.0653 48 30.4973 48 27.3409V18.3949L30.5396 0.93457H24Z" fill="#363C40"/>
<path d="M5.72447 0.93457C2.568 0.93457 0 3.50257 0 6.65904V15.6049L17.4603 33.0652H24V0.93457H5.72447Z" fill="#474F54"/>
<path d="M32.7873 10.2502H28.4054H28.4009L28.4054 23.7496H31.2179V19.1C31.7988 19.0971 32.4235 19.0943 32.7873 19.0943C35.2582 19.0943 37.2685 17.1106 37.2685 14.6722C37.2684 12.234 35.2582 10.2502 32.7873 10.2502ZM32.7873 16.2819C32.4246 16.2819 31.8081 16.2846 31.2309 16.2874C31.2279 15.6887 31.2237 13.6884 31.222 13.0627H32.7873C33.6918 13.0627 34.4559 13.7998 34.4559 14.6723C34.4559 15.5449 33.6918 16.2819 32.7873 16.2819Z" fill="#FAEEE5"/>
<path d="M14.9586 18.6587L12.0494 10.2375H9.07373L13.7417 23.7496H16.2314L20.7189 10.2375H17.7554L14.9586 18.6587Z" fill="#FFF7F7"/>
<path d="M25.4062 10.2502H24L23.3438 16.9289L24 23.7497H25.4062V10.2502Z" fill="#FAEEE5"/>
<path d="M22.5938 10.2502H24V23.7496H22.5938V10.2502Z" fill="#FFF7F7"/>
</svg>
