<svg width="46" height="46" viewBox="0 0 46 46" fill="none" xmlns="http://www.w3.org/2000/svg">
<path d="M41.4309 5.46996L23.3873 0.0568711C23.261 0.018957 23.1305 0 23 0V46H23.0001C23.1879 46 23.3756 45.9608 23.5508 45.8823C23.7401 45.7976 28.2411 43.7678 32.8121 40.4591C35.533 38.4894 37.7108 36.4722 39.2851 34.4633C41.3462 31.833 42.3912 29.1903 42.3912 26.6087V6.76074C42.3912 6.16562 42.0009 5.64093 41.4309 5.46996Z" fill="url(#paint0_linear_148_283)"/>
<path d="M4.94096 5.46996L22.6205 0.0568711C22.7443 0.018957 22.8722 0 23 0V46H22.9999C22.8159 46 22.6319 45.9608 22.4603 45.8823C22.2748 45.7976 17.8646 43.7678 13.3859 40.4591C10.7198 38.4894 8.58598 36.4722 7.0435 34.4633C5.02398 31.833 4 29.1903 4 26.6087V6.76074C4 6.16562 4.38249 5.64093 4.94096 5.46996Z" fill="url(#paint1_linear_148_283)"/>
<path d="M30.821 24.4903L29.8932 22.4068C29.7884 22.2405 29.6446 22.0994 29.4731 21.9943V25.6501C29.473 26.549 28.9034 27.3595 28.0296 27.7042C27.1558 28.0488 26.1497 27.8597 25.4797 27.225C25.4493 27.1962 25.4213 27.1673 25.3943 27.1385C25.0094 28.0437 24.0891 28.64 23.0616 28.65C22.64 28.6505 22.2261 28.5415 21.865 28.3347C21.865 28.3419 21.8637 28.3493 21.8623 28.3565C21.8611 28.3633 21.8598 28.37 21.8598 28.376C21.9151 29.2542 22.6575 29.9521 23.5823 29.9952C23.6466 29.9982 23.7109 29.9896 23.772 29.9703C24.3456 29.8112 24.9385 29.7242 25.5358 29.7116C26.4579 29.7547 27.3764 29.851 28.2861 30C29.0468 29.989 29.7118 29.5101 29.9288 28.8173L30.9516 25.4627C31.0447 25.145 31.0024 24.8051 30.8341 24.5166C30.8314 24.5118 30.8288 24.5069 30.8263 24.5019C30.8245 24.4981 30.8227 24.4943 30.821 24.4903Z" fill="black"/>
<path fill-rule="evenodd" clip-rule="evenodd" d="M22.5 37C30.5081 37 37 30.5081 37 22.5C37 14.4919 30.5081 8 22.5 8C14.4919 8 8 14.4919 8 22.5C8 30.5081 14.4919 37 22.5 37ZM23.0616 28.0731C22.6283 28.0746 22.2113 27.9199 21.8944 27.6417L24.9287 23.4808V26.4231C24.8673 27.3575 24.0469 28.0826 23.0616 28.0731ZM16.5 33.4685L21.3327 26.7581L24.9287 21.765L25.5358 20.922L28.444 16.8838L31 13.3348C31.2656 13.5812 31.5205 13.8391 31.7639 14.1075C33.7748 16.326 35 19.2699 35 22.5C35 29.4036 29.4036 35 22.5 35C20.6598 35 18.9125 34.6024 17.3393 33.8883C17.0536 33.7586 16.7737 33.6186 16.5 33.4685ZM28.866 18.0814L25.5358 22.6482V25.6501C25.5358 26.2096 25.6509 26.5696 25.9088 26.8171C26.4052 27.2869 27.1503 27.4266 27.7973 27.1713C28.4442 26.9159 28.8659 26.3157 28.866 25.6501V18.0814ZM29.8932 22.4068L30.821 24.4903C30.8227 24.4943 30.8245 24.4981 30.8263 24.5019C30.8288 24.5069 30.8314 24.5118 30.8341 24.5166C31.0024 24.8051 31.0447 25.145 30.9516 25.4627L29.9288 28.8173C29.7118 29.5101 29.0468 29.989 28.2861 30C27.3764 29.851 26.4579 29.7547 25.5358 29.7116C24.9385 29.7242 24.3456 29.8112 23.772 29.9703C23.7109 29.9896 23.6466 29.9982 23.5823 29.9952C22.6575 29.9521 21.9151 29.2542 21.8598 28.376C21.8598 28.37 21.8611 28.3633 21.8623 28.3565C21.8637 28.3493 21.865 28.3419 21.865 28.3347C22.2261 28.5415 22.64 28.6505 23.0616 28.65C24.0891 28.64 25.0094 28.0437 25.3943 27.1385C25.4213 27.1673 25.4493 27.1962 25.4797 27.225C26.1497 27.8597 27.1558 28.0488 28.0296 27.7042C28.9034 27.3595 29.473 26.549 29.4731 25.6501V21.9943C29.6446 22.0994 29.7884 22.2405 29.8932 22.4068ZM13.5 31.1747C11.3328 28.9268 10 25.869 10 22.5C10 15.5964 15.5964 10 22.5 10C24.5411 10 26.468 10.4892 28.1697 11.3568C28.4529 11.5012 28.7298 11.656 29 11.8208L24.9287 17.5162L21.2858 22.6123L20.6787 23.4617L17.9137 27.3297L14.5 32.1051C14.1499 31.8132 13.8161 31.5026 13.5 31.1747Z" fill="white"/>
<path d="M15.3266 26.9106C16.0914 26.8835 16.7045 26.3003 16.7321 25.5735V21.6346C16.7321 21.4753 16.8681 21.3461 17.0358 21.3461C17.2033 21.3461 17.3393 21.4753 17.3393 21.6346V25.9881L20.6787 21.4768V21.0577C20.6787 20.8984 20.8146 20.7692 20.9822 20.7692C21.0492 20.7692 21.1111 20.7898 21.1613 20.8247L24.8679 15.8173C24.6745 15.3048 24.0515 15 23.4684 15H22.6549C21.9225 15.0006 21.329 15.5646 21.3282 16.2605L21.2858 17.7164V17.8845C21.2858 18.0439 21.1499 18.1731 20.9822 18.1731C20.8146 18.1731 20.6787 18.0439 20.6787 17.8845V17.7087C20.6787 17.0827 20.3295 16.451 19.5494 16.451H18.584C18.2496 16.4363 17.9242 16.556 17.6874 16.7806C17.4507 17.0054 17.3242 17.3144 17.3393 17.6321V18.4615C17.3393 18.6208 17.2033 18.75 17.0358 18.75C16.8681 18.75 16.7321 18.6208 16.7321 18.4615V18.4081C16.7329 18.1761 16.6358 17.9536 16.4626 17.79C16.2503 17.6488 15.9917 17.5852 15.734 17.6106C14.7769 17.6112 14.001 18.3482 14 19.2576V25.6501C13.9992 25.9846 14.1387 26.3056 14.3877 26.5422C14.6366 26.7788 14.9746 26.9114 15.3266 26.9106Z" fill="white"/>
<defs>
<linearGradient id="paint0_linear_148_283" x1="32.6956" y1="0" x2="32.6956" y2="46" gradientUnits="userSpaceOnUse">
<stop stop-color="#61DE56"/>
<stop offset="1" stop-color="#61DE56" stop-opacity="0.15"/>
</linearGradient>
<linearGradient id="paint1_linear_148_283" x1="13.5" y1="0" x2="13.5" y2="46" gradientUnits="userSpaceOnUse">
<stop stop-color="#61DE56" stop-opacity="0.25"/>
<stop offset="1" stop-color="#61DE56"/>
</linearGradient>
</defs>
</svg>
