<svg width="28" height="28" viewBox="0 0 28 28" fill="none" xmlns="http://www.w3.org/2000/svg">
<rect x="28" width="28" height="28" rx="7.89743" transform="rotate(90 28 0)" fill="white" fill-opacity="0.2"/>
<rect x="3.39632" y="3.39645" width="21.2071" height="21.2071" rx="5.92358" stroke="white" stroke-opacity="0.5" stroke-width="1.76726"/>
<path d="M12.6507 16.6014L12.5226 7.6571H14.809L14.681 16.6014H12.6507ZM13.675 20.5157C13.2604 20.5157 12.9128 20.3694 12.6324 20.0767C12.3641 19.7841 12.23 19.4305 12.23 19.0159C12.23 18.6257 12.3641 18.2964 12.6324 18.0281C12.9128 17.7477 13.2543 17.6074 13.6567 17.6074C14.0713 17.6074 14.4188 17.7477 14.6993 18.0281C14.9797 18.2964 15.12 18.6257 15.12 19.0159C15.12 19.4183 14.9919 19.7719 14.7359 20.0767C14.4798 20.3694 14.1262 20.5157 13.675 20.5157Z" fill="white"/>
</svg>
