<svg width="88" height="16" viewBox="0 0 88 16" fill="none" xmlns="http://www.w3.org/2000/svg">
<path d="M0.48 15L6.48 0.899999H9.32L15.32 15H12.1L10.82 11.86H4.9L3.62 15H0.48ZM6 9.14H9.72L7.86 4.6L6 9.14ZM17.4808 15V0.999999H22.9408C25.1274 0.999999 26.9141 1.66667 28.3008 3C29.6874 4.32 30.3808 5.98667 30.3808 8C30.3808 10 29.6808 11.6667 28.2808 13C26.8941 14.3333 25.1141 15 22.9408 15H17.4808ZM20.5608 12.22H22.9408C24.2074 12.22 25.2274 11.8333 26.0008 11.06C26.7741 10.2733 27.1608 9.25333 27.1608 8C27.1608 6.76 26.7674 5.74667 25.9808 4.96C25.2074 4.17333 24.1941 3.78 22.9408 3.78H20.5608V12.22ZM33.1253 15V0.999999H38.5853C40.772 0.999999 42.5586 1.66667 43.9453 3C45.332 4.32 46.0253 5.98667 46.0253 8C46.0253 10 45.3253 11.6667 43.9253 13C42.5386 14.3333 40.7586 15 38.5853 15H33.1253ZM36.2053 12.22H38.5853C39.852 12.22 40.872 11.8333 41.6453 11.06C42.4186 10.2733 42.8053 9.25333 42.8053 8C42.8053 6.76 42.412 5.74667 41.6253 4.96C40.852 4.17333 39.8386 3.78 38.5853 3.78H36.2053V12.22ZM59.2259 15.1L53.5659 0.999999H56.9659L60.6259 10.86L64.2859 0.999999H67.6059L61.9459 15.1H59.2259ZM69.9059 15V0.999999H72.9859V15H69.9059ZM76.4847 15V0.999999H82.2047C83.858 0.999999 85.1647 1.44667 86.1247 2.34C87.0847 3.23333 87.5647 4.41333 87.5647 5.88C87.5647 7.44 87.0314 8.65333 85.9647 9.52C84.898 10.3733 83.5447 10.8 81.9047 10.8H79.5647V15H76.4847ZM79.5647 8.06H82.0047C82.7647 8.06 83.358 7.86 83.7847 7.46C84.2247 7.06 84.4447 6.54 84.4447 5.9C84.4447 5.22 84.2247 4.7 83.7847 4.34C83.3447 3.96667 82.7314 3.78 81.9447 3.78H79.5647V8.06Z" fill="url(#paint0_linear_15689_113)"/>
<defs>
<linearGradient id="paint0_linear_15689_113" x1="-6.63102e-07" y1="9.5" x2="89" y2="9.5" gradientUnits="userSpaceOnUse">
<stop stop-color="#F0BC1F"/>
<stop offset="1" stop-color="#FFDF7C"/>
</linearGradient>
</defs>
</svg>
