<?xml version="1.0" encoding="UTF-8"?>
<!DOCTYPE svg PUBLIC "-//W3C//DTD SVG 1.1//EN" "http://www.w3.org/Graphics/SVG/1.1/DTD/svg11.dtd">
<svg xmlns="http://www.w3.org/2000/svg" version="1.1" width="512px" height="512px" style="shape-rendering:geometricPrecision; text-rendering:geometricPrecision; image-rendering:optimizeQuality; fill-rule:evenodd; clip-rule:evenodd" xmlns:xlink="http://www.w3.org/1999/xlink">
<g><path style="opacity:0.004" fill="#fe0000" d="M 263.5,15.5 C 264.833,16.1667 264.833,16.1667 263.5,15.5 Z"/></g>
<g><path style="opacity:0.004" fill="#fe0000" d="M 254.5,20.5 C 253.833,19.1667 253.833,19.1667 254.5,20.5 Z"/></g>
<g><path style="opacity:0.999" fill="#fe3231" d="M 260.5,20.5 C 256.798,37.0121 252.465,53.3454 247.5,69.5C 247.631,70.3764 247.298,71.0431 246.5,71.5C 245.3,70.4688 243.966,69.6355 242.5,69C 236.991,63.658 231.658,58.158 226.5,52.5C 225.833,51.8333 225.167,51.1667 224.5,50.5C 226.17,47.9984 228.336,45.9984 231,44.5C 232.094,42.9221 232.928,41.2554 233.5,39.5C 233.5,38.8333 233.833,38.5 234.5,38.5C 234.897,39.525 235.563,39.6917 236.5,39C 244.37,31.461 252.537,24.2943 261,17.5C 261.47,18.5768 261.303,19.5768 260.5,20.5 Z"/></g>
<g><path style="opacity:0.004" fill="#fe0000" d="M 272.5,27.5 C 273.833,28.1667 273.833,28.1667 272.5,27.5 Z"/></g>
<g><path style="opacity:0.004" fill="#fe0000" d="M 278.5,36.5 C 279.833,37.1667 279.833,37.1667 278.5,36.5 Z"/></g>
<g><path style="opacity:0.999" fill="#d81314" d="M 263.5,20.5 C 264.279,27.2714 266.446,33.6048 270,39.5C 275.103,43.7111 278.103,49.0444 279,55.5C 280.055,58.7036 281.555,61.7036 283.5,64.5C 283.376,65.1067 283.043,65.44 282.5,65.5C 280.251,66.0798 278.585,67.4131 277.5,69.5C 276.391,69.5569 275.391,69.8902 274.5,70.5C 273.5,70.5 272.5,70.5 271.5,70.5C 270.277,65.724 267.777,61.724 264,58.5C 263.667,56.5 263.333,54.5 263,52.5C 261.315,50.9825 259.815,49.3159 258.5,47.5C 257.833,48.8333 257.167,50.1667 256.5,51.5C 255.702,51.0431 255.369,50.3764 255.5,49.5C 257.656,40.5401 259.656,31.5401 261.5,22.5C 262.268,21.7375 262.768,20.7375 263,19.5C 263.399,19.7284 263.565,20.0618 263.5,20.5 Z"/></g>
<g><path style="opacity:0.004" fill="#fe0000" d="M 220.5,48.5 C 221.833,49.1667 221.833,49.1667 220.5,48.5 Z"/></g>
<g><path style="opacity:1" fill="#ffbcab" d="M 260.5,20.5 C 261.338,20.8417 261.672,21.5084 261.5,22.5C 259.656,31.5401 257.656,40.5401 255.5,49.5C 252.74,56.8687 250.74,64.5354 249.5,72.5C 249.167,72.5 248.833,72.5 248.5,72.5C 248.737,71.209 248.404,70.209 247.5,69.5C 252.465,53.3454 256.798,37.0121 260.5,20.5 Z"/></g>
<g><path style="opacity:0.608" fill="#df6c62" d="M 233.5,39.5 C 232.928,41.2554 232.094,42.9221 231,44.5C 228.336,45.9984 226.17,47.9984 224.5,50.5C 217.482,57.0188 210.648,63.6855 204,70.5C 203.601,70.2716 203.435,69.9382 203.5,69.5C 206.167,66.5 208.833,63.5 211.5,60.5C 218.833,53.5 226.167,46.5 233.5,39.5 Z"/></g>
<g><path style="opacity:0.004" fill="#fe0000" d="M 211.5,60.5 C 210.833,59.1667 210.833,59.1667 211.5,60.5 Z"/></g>
<g><path style="opacity:0.999" fill="#f92a2a" d="M 274.5,70.5 C 272.14,72.8532 269.473,74.8532 266.5,76.5C 262.237,72.1257 256.571,70.7924 249.5,72.5C 250.74,64.5354 252.74,56.8687 255.5,49.5C 255.369,50.3764 255.702,51.0431 256.5,51.5C 257.167,50.1667 257.833,48.8333 258.5,47.5C 259.815,49.3159 261.315,50.9825 263,52.5C 263.333,54.5 263.667,56.5 264,58.5C 267.777,61.724 270.277,65.724 271.5,70.5C 272.5,70.5 273.5,70.5 274.5,70.5 Z"/></g>
<g><path style="opacity:0.997" fill="#ffebe7" d="M 225.5,52.5 C 225.833,52.5 226.167,52.5 226.5,52.5C 231.658,58.158 236.991,63.658 242.5,69C 243.966,69.6355 245.3,70.4688 246.5,71.5C 247.298,71.0431 247.631,70.3764 247.5,69.5C 248.404,70.209 248.737,71.209 248.5,72.5C 249.355,77.511 252.355,79.6777 257.5,79C 258.333,79.8333 259.167,80.6667 260,81.5C 262.352,79.9697 264.519,78.3031 266.5,76.5C 269.473,74.8532 272.14,72.8532 274.5,70.5C 275.391,69.8902 276.391,69.5569 277.5,69.5C 276.167,71.1667 274.833,72.8333 273.5,74.5C 270.833,76.5 268.5,78.8333 266.5,81.5C 264.188,83.1455 262.188,85.1455 260.5,87.5C 263.611,92.0824 266.945,96.4157 270.5,100.5C 274.754,105.988 279.254,111.321 284,116.5C 284.667,117.167 284.667,117.833 284,118.5C 277.631,111.964 271.131,105.631 264.5,99.5C 258.286,92.5484 256.952,93.5484 260.5,102.5C 265.156,115.818 269.823,129.151 274.5,142.5C 274.565,142.938 274.399,143.272 274,143.5C 273.722,142.584 273.222,141.918 272.5,141.5C 271.452,137.736 270.119,134.069 268.5,130.5C 267.639,125.557 265.639,121.224 262.5,117.5C 262.372,113.583 261.372,109.917 259.5,106.5C 257.89,101.336 255.89,96.3357 253.5,91.5C 251.187,92.5005 249.187,93.8338 247.5,95.5C 244.675,97.8989 241.675,99.7323 238.5,101C 241.754,98.2532 244.42,95.0865 246.5,91.5C 249.313,89.5297 250.48,86.8631 250,83.5C 248.333,81.5 246.667,79.5 245,77.5C 243.603,79.0703 242.103,80.4036 240.5,81.5C 237.383,82.782 235.05,84.9487 233.5,88C 229.114,90.1932 224.78,92.3599 220.5,94.5C 225.703,89.8106 231.37,85.6439 237.5,82C 239.785,80.0403 241.785,77.8736 243.5,75.5C 237.476,67.8146 231.476,60.1479 225.5,52.5 Z"/></g>
<g><path style="opacity:0.996" fill="#f6968c" d="M 282.5,65.5 C 282.5,65.8333 282.5,66.1667 282.5,66.5C 281.078,67.925 279.411,68.925 277.5,69.5C 278.585,67.4131 280.251,66.0798 282.5,65.5 Z"/></g>
<g><path style="opacity:0.997" fill="#ff5755" d="M 266.5,76.5 C 264.519,78.3031 262.352,79.9697 260,81.5C 259.167,80.6667 258.333,79.8333 257.5,79C 252.355,79.6777 249.355,77.511 248.5,72.5C 248.833,72.5 249.167,72.5 249.5,72.5C 256.571,70.7924 262.237,72.1257 266.5,76.5 Z"/></g>
<g><path style="opacity:0.996" fill="#ff5651" d="M 266.5,81.5 C 267.497,81.4701 268.164,81.9701 268.5,83C 270.354,88.3899 271.687,93.8899 272.5,99.5C 271.8,99.7871 271.133,100.12 270.5,100.5C 266.945,96.4157 263.611,92.0824 260.5,87.5C 262.188,85.1455 264.188,83.1455 266.5,81.5 Z"/></g>
<g><path style="opacity:0.998" fill="#ff8d88" d="M 246.5,91.5 C 246.565,91.0618 246.399,90.7284 246,90.5C 245,91.5 244,92.5 243,93.5C 242.173,92.3379 241.34,91.1712 240.5,90C 239.39,86.747 239.39,83.9136 240.5,81.5C 242.103,80.4036 243.603,79.0703 245,77.5C 246.667,79.5 248.333,81.5 250,83.5C 250.48,86.8631 249.313,89.5297 246.5,91.5 Z"/></g>
<g><path style="opacity:0.004" fill="#fe0000" d="M 323.5,99.5 C 324.833,100.167 324.833,100.167 323.5,99.5 Z"/></g>
<g><path style="opacity:0.995" fill="#fd6467" d="M 202.5,70.5 C 201.909,73.6136 200.242,76.1136 197.5,78C 198.451,78.7175 198.617,79.5509 198,80.5C 195.489,82.6793 193.322,85.1793 191.5,88C 191.957,88.414 192.291,88.914 192.5,89.5C 188.897,94.1269 185.564,98.9603 182.5,104C 178.806,105.355 175.639,107.522 173,110.5C 170.727,115.258 167.894,119.592 164.5,123.5C 163.867,123.12 163.2,122.787 162.5,122.5C 164.54,119.819 164.54,117.486 162.5,115.5C 164.46,113.844 166.46,112.177 168.5,110.5C 171.037,105.397 174.037,100.73 177.5,96.5C 185.111,87.2205 193.445,78.5538 202.5,70.5 Z"/></g>
<g><path style="opacity:0.996" fill="#ff8984" d="M 259.5,106.5 C 257.736,107.326 256.402,108.659 255.5,110.5C 252.044,106.898 248.71,103.065 245.5,99C 246.5,98 247.5,97 248.5,96C 248.272,95.6012 247.938,95.4346 247.5,95.5C 249.187,93.8338 251.187,92.5005 253.5,91.5C 255.89,96.3357 257.89,101.336 259.5,106.5 Z"/></g>
<g><path style="opacity:1" fill="#ff6c66" d="M 264.5,99.5 C 264.062,99.4346 263.728,99.6012 263.5,100C 267.558,103.149 266.891,104.649 261.5,104.5C 261.754,102.599 261.42,101.933 260.5,102.5C 256.952,93.5484 258.286,92.5484 264.5,99.5 Z"/></g>
<g><path style="opacity:0.998" fill="#ff4a51" d="M 224.5,50.5 C 225.167,51.1667 225.833,51.8333 226.5,52.5C 226.167,52.5 225.833,52.5 225.5,52.5C 215.832,64.4321 205.665,76.0987 195,87.5C 193.692,92.4214 192.192,97.2547 190.5,102C 191.308,102.308 191.975,102.808 192.5,103.5C 189.12,105.309 188.453,107.476 190.5,110C 190.241,111.261 189.574,112.261 188.5,113C 190.972,111.773 193.639,110.607 196.5,109.5C 196.833,109.5 197.167,109.5 197.5,109.5C 193.447,112.883 189.114,115.883 184.5,118.5C 174.762,124.898 164.762,130.898 154.5,136.5C 157.794,132.197 161.128,127.864 164.5,123.5C 167.894,119.592 170.727,115.258 173,110.5C 175.639,107.522 178.806,105.355 182.5,104C 185.564,98.9603 188.897,94.1269 192.5,89.5C 192.291,88.914 191.957,88.414 191.5,88C 193.322,85.1793 195.489,82.6793 198,80.5C 198.617,79.5509 198.451,78.7175 197.5,78C 200.242,76.1136 201.909,73.6136 202.5,70.5C 202.5,69.8333 202.833,69.5 203.5,69.5C 203.435,69.9382 203.601,70.2716 204,70.5C 210.648,63.6855 217.482,57.0188 224.5,50.5 Z"/></g>
<g><path style="opacity:0.998" fill="#fe3137" d="M 231.5,107.5 C 236.539,112.537 241.206,117.871 245.5,123.5C 245.804,124.15 246.137,124.817 246.5,125.5C 244.243,128.5 242.576,131.833 241.5,135.5C 239.742,136.128 238.242,137.128 237,138.5C 236.282,137.549 235.449,137.383 234.5,138C 233.167,138.667 233.167,139.333 234.5,140C 231.898,140.935 230.398,142.768 230,145.5C 224.382,148.95 219.549,153.284 215.5,158.5C 214.317,156.78 212.483,156.447 210,157.5C 201.59,155.616 193.09,155.116 184.5,156C 182.792,157.062 182.126,158.229 182.5,159.5C 181.614,158.675 181.281,157.675 181.5,156.5C 179.326,156.92 177.326,156.92 175.5,156.5C 174.41,157.391 174.41,158.391 175.5,159.5C 178.255,161.211 180.589,163.378 182.5,166C 182.167,166.333 181.833,166.667 181.5,167C 187.667,174 194,180.833 200.5,187.5C 199.91,188.799 198.91,189.632 197.5,190C 201.659,193.199 201.325,195.865 196.5,198C 197.711,198.893 197.711,199.726 196.5,200.5C 195.833,199.5 195.167,198.5 194.5,197.5C 193.094,198.951 191.594,200.284 190,201.5C 188.667,200.833 187.667,199.833 187,198.5C 185,201.167 183,201.167 181,198.5C 179.322,199.682 179.488,200.848 181.5,202C 180.898,203.563 180.065,203.396 179,201.5C 178.219,202.944 178.386,204.277 179.5,205.5C 182.503,209.831 185.836,213.831 189.5,217.5C 189.167,217.5 188.833,217.5 188.5,217.5C 185.379,215.552 182.379,213.385 179.5,211C 178.563,210.308 177.897,210.475 177.5,211.5C 173.094,207.754 168.427,204.42 163.5,201.5C 162.833,200.5 162.167,199.5 161.5,198.5C 163.426,199.242 165.259,200.242 167,201.5C 166.758,199.862 165.925,198.362 164.5,197C 166.076,196.56 167.41,195.727 168.5,194.5C 169.086,194.709 169.586,195.043 170,195.5C 170.309,194.234 170.809,193.067 171.5,192C 170.205,189.242 168.539,186.742 166.5,184.5C 165.611,181.171 165.611,177.671 166.5,174C 162.787,173.77 162.12,172.603 164.5,170.5C 163.61,169.289 163.61,167.955 164.5,166.5C 162.921,164.386 160.921,161.886 158.5,159C 160.203,156.411 161.703,153.244 163,149.5C 163.914,150.654 164.747,150.487 165.5,149C 165.167,148.667 164.833,148.333 164.5,148C 166.769,147.242 168.936,147.409 171,148.5C 172,147.5 173,146.5 174,145.5C 174.563,144.275 174.23,143.275 173,142.5C 169.944,143.623 169.778,142.956 172.5,140.5C 174.5,142.167 176.5,143.833 178.5,145.5C 178.911,144.738 179.077,143.738 179,142.5C 181.95,143.232 183.45,141.899 183.5,138.5C 185.143,138.52 186.476,137.853 187.5,136.5C 190.399,137.494 191.066,136.494 189.5,133.5C 189.833,132.5 190.5,131.833 191.5,131.5C 193.331,132.929 195.331,133.429 197.5,133C 193.835,131.503 190.502,129.503 187.5,127C 190.649,128.45 193.982,129.45 197.5,130C 200.58,127.71 203.747,125.543 207,123.5C 207.496,121.965 207.33,120.465 206.5,119C 206.82,117.347 207.82,116.347 209.5,116C 208.66,114.334 209.16,114.167 211,115.5C 211.782,112.812 213.282,111.812 215.5,112.5C 219.11,110.556 222.443,108.223 225.5,105.5C 227.332,106.248 228.999,107.248 230.5,108.5C 231.107,108.376 231.44,108.043 231.5,107.5 Z"/></g>
<g><path style="opacity:0.997" fill="#ff5c5d" d="M 240.5,81.5 C 239.39,83.9136 239.39,86.747 240.5,90C 241.34,91.1712 242.173,92.3379 243,93.5C 244,92.5 245,91.5 246,90.5C 246.399,90.7284 246.565,91.0618 246.5,91.5C 244.42,95.0865 241.754,98.2532 238.5,101C 241.675,99.7323 244.675,97.8989 247.5,95.5C 247.938,95.4346 248.272,95.6012 248.5,96C 247.5,97 246.5,98 245.5,99C 248.71,103.065 252.044,106.898 255.5,110.5C 252.397,115.052 249.064,119.386 245.5,123.5C 241.206,117.871 236.539,112.537 231.5,107.5C 228.061,102.941 224.394,98.6077 220.5,94.5C 224.78,92.3599 229.114,90.1932 233.5,88C 235.05,84.9487 237.383,82.782 240.5,81.5 Z"/></g>
<g><path style="opacity:0.998" fill="#ffae9c" d="M 262.5,117.5 C 265.639,121.224 267.639,125.557 268.5,130.5C 265.281,127.526 261.947,124.526 258.5,121.5C 259.689,120.571 261.022,120.238 262.5,120.5C 262.5,119.5 262.5,118.5 262.5,117.5 Z"/></g>
<g><path style="opacity:0.999" fill="#e71414" d="M 273.5,74.5 C 276.748,79.2628 280.248,83.9295 284,88.5C 284.642,90.7619 285.475,92.9285 286.5,95C 285.833,95.6667 285.167,96.3333 284.5,97C 286.432,100.464 287.765,104.131 288.5,108C 284.672,113.642 285.005,118.642 289.5,123C 288.004,123.507 286.837,123.007 286,121.5C 285.952,123.544 286.452,125.544 287.5,127.5C 286.998,128.716 286.665,129.883 286.5,131C 287.984,132.574 289.651,133.907 291.5,135C 290.833,135.333 290.167,135.667 289.5,136C 291.087,136.862 292.754,137.529 294.5,138C 294.381,139.281 294.881,140.448 296,141.5C 296.604,139.314 297.77,139.148 299.5,141C 299.167,141.333 298.833,141.667 298.5,142C 300.481,142.605 300.815,143.605 299.5,145C 300.167,145.333 300.833,145.667 301.5,146C 300.289,146.893 300.289,147.726 301.5,148.5C 302.842,147.098 303.676,147.431 304,149.5C 304.925,148.953 305.758,148.287 306.5,147.5C 302.721,140.778 299.054,133.944 295.5,127C 297.095,127.617 298.428,127.284 299.5,126C 298.549,125.282 298.383,124.449 299,123.5C 304.016,130.353 308.849,137.353 313.5,144.5C 313.911,143.738 314.077,142.738 314,141.5C 316.292,142.006 318.458,142.673 320.5,143.5C 321.08,140.395 321.247,137.395 321,134.5C 317.526,135.928 317.026,135.428 319.5,133C 314.403,126.246 309.736,119.246 305.5,112C 306.416,111.722 307.082,111.222 307.5,110.5C 314.488,116.068 320.655,122.402 326,129.5C 326.643,134.129 328.477,138.129 331.5,141.5C 330.669,143.473 330.502,145.473 331,147.5C 334.095,148.711 337.095,150.044 340,151.5C 339.44,157.071 337.94,162.405 335.5,167.5C 336.087,171.347 336.753,175.18 337.5,179C 337.248,181.394 336.248,183.394 334.5,185C 333.101,185.595 331.768,185.428 330.5,184.5C 329.833,185.167 329.167,185.833 328.5,186.5C 328.089,185.738 327.923,184.738 328,183.5C 327.667,183.833 327.333,184.167 327,184.5C 322.728,180.741 319.728,176.074 318,170.5C 314.791,168.922 312.624,166.422 311.5,163C 310.167,162.333 308.833,162.333 307.5,163C 305.9,164.815 303.9,165.982 301.5,166.5C 299.49,164.829 297.157,164.162 294.5,164.5C 294.649,163.448 294.483,162.448 294,161.5C 292.287,160.122 290.953,158.455 290,156.5C 289.692,157.308 289.192,157.975 288.5,158.5C 287.094,157.049 285.594,155.716 284,154.5C 283.392,156.154 282.892,157.821 282.5,159.5C 279.833,153.833 277.167,148.167 274.5,142.5C 269.823,129.151 265.156,115.818 260.5,102.5C 261.42,101.933 261.754,102.599 261.5,104.5C 266.891,104.649 267.558,103.149 263.5,100C 263.728,99.6012 264.062,99.4346 264.5,99.5C 271.131,105.631 277.631,111.964 284,118.5C 284.667,117.833 284.667,117.167 284,116.5C 279.254,111.321 274.754,105.988 270.5,100.5C 271.133,100.12 271.8,99.7871 272.5,99.5C 271.687,93.8899 270.354,88.3899 268.5,83C 268.164,81.9701 267.497,81.4701 266.5,81.5C 268.5,78.8333 270.833,76.5 273.5,74.5 Z"/></g>
<g><path style="opacity:0.998" fill="#fe252c" d="M 225.5,52.5 C 231.476,60.1479 237.476,67.8146 243.5,75.5C 241.785,77.8736 239.785,80.0403 237.5,82C 231.37,85.6439 225.703,89.8106 220.5,94.5C 224.394,98.6077 228.061,102.941 231.5,107.5C 231.44,108.043 231.107,108.376 230.5,108.5C 228.999,107.248 227.332,106.248 225.5,105.5C 222.443,108.223 219.11,110.556 215.5,112.5C 213.282,111.812 211.782,112.812 211,115.5C 209.16,114.167 208.66,114.334 209.5,116C 207.82,116.347 206.82,117.347 206.5,119C 207.33,120.465 207.496,121.965 207,123.5C 203.747,125.543 200.58,127.71 197.5,130C 193.982,129.45 190.649,128.45 187.5,127C 190.502,129.503 193.835,131.503 197.5,133C 195.331,133.429 193.331,132.929 191.5,131.5C 190.5,131.833 189.833,132.5 189.5,133.5C 191.066,136.494 190.399,137.494 187.5,136.5C 186.476,137.853 185.143,138.52 183.5,138.5C 183.45,141.899 181.95,143.232 179,142.5C 179.077,143.738 178.911,144.738 178.5,145.5C 176.5,143.833 174.5,142.167 172.5,140.5C 169.778,142.956 169.944,143.623 173,142.5C 174.23,143.275 174.563,144.275 174,145.5C 173,146.5 172,147.5 171,148.5C 168.936,147.409 166.769,147.242 164.5,148C 164.833,148.333 165.167,148.667 165.5,149C 164.747,150.487 163.914,150.654 163,149.5C 161.703,153.244 160.203,156.411 158.5,159C 160.921,161.886 162.921,164.386 164.5,166.5C 163.61,167.955 163.61,169.289 164.5,170.5C 162.12,172.603 162.787,173.77 166.5,174C 165.611,177.671 165.611,181.171 166.5,184.5C 168.539,186.742 170.205,189.242 171.5,192C 170.809,193.067 170.309,194.234 170,195.5C 169.586,195.043 169.086,194.709 168.5,194.5C 167.41,195.727 166.076,196.56 164.5,197C 165.925,198.362 166.758,199.862 167,201.5C 165.259,200.242 163.426,199.242 161.5,198.5C 156.064,194.91 150.73,191.077 145.5,187C 143.371,184.561 141.371,182.061 139.5,179.5C 143.643,180.523 147.477,182.856 151,186.5C 151.222,182.818 150.889,179.152 150,175.5C 147.994,173.094 146.161,170.594 144.5,168C 150.143,160.867 153.143,152.7 153.5,143.5C 152.5,143.5 151.5,143.5 150.5,143.5C 162.395,135.939 173.729,127.606 184.5,118.5C 189.114,115.883 193.447,112.883 197.5,109.5C 199.389,108.396 201.055,107.063 202.5,105.5C 199.802,105.845 197.802,107.178 196.5,109.5C 193.639,110.607 190.972,111.773 188.5,113C 189.574,112.261 190.241,111.261 190.5,110C 188.453,107.476 189.12,105.309 192.5,103.5C 191.975,102.808 191.308,102.308 190.5,102C 192.192,97.2547 193.692,92.4214 195,87.5C 205.665,76.0987 215.832,64.4321 225.5,52.5 Z"/></g>
<g><path style="opacity:1" fill="#ffa79a" d="M 202.5,105.5 C 201.055,107.063 199.389,108.396 197.5,109.5C 197.167,109.5 196.833,109.5 196.5,109.5C 197.802,107.178 199.802,105.845 202.5,105.5 Z"/></g>
<g><path style="opacity:0.996" fill="#ffa697" d="M 208.5,101.5 C 207.198,103.822 205.198,105.155 202.5,105.5C 204.147,103.674 206.147,102.34 208.5,101.5 Z"/></g>
<g><path style="opacity:0.996" fill="#ffad9f" d="M 208.5,101.5 C 209.002,99.9153 210.002,99.4153 211.5,100C 210.756,101.039 209.756,101.539 208.5,101.5 Z"/></g>
<g><path style="opacity:0.998" fill="#d90e0d" d="M 282.5,66.5 C 285.288,74.3158 287.454,82.3158 289,90.5C 294.326,97.9905 300.492,104.657 307.5,110.5C 307.082,111.222 306.416,111.722 305.5,112C 309.736,119.246 314.403,126.246 319.5,133C 317.026,135.428 317.526,135.928 321,134.5C 321.247,137.395 321.08,140.395 320.5,143.5C 318.458,142.673 316.292,142.006 314,141.5C 314.077,142.738 313.911,143.738 313.5,144.5C 308.849,137.353 304.016,130.353 299,123.5C 298.383,124.449 298.549,125.282 299.5,126C 298.428,127.284 297.095,127.617 295.5,127C 299.054,133.944 302.721,140.778 306.5,147.5C 305.758,148.287 304.925,148.953 304,149.5C 303.676,147.431 302.842,147.098 301.5,148.5C 300.289,147.726 300.289,146.893 301.5,146C 300.833,145.667 300.167,145.333 299.5,145C 300.815,143.605 300.481,142.605 298.5,142C 298.833,141.667 299.167,141.333 299.5,141C 297.77,139.148 296.604,139.314 296,141.5C 294.881,140.448 294.381,139.281 294.5,138C 292.754,137.529 291.087,136.862 289.5,136C 290.167,135.667 290.833,135.333 291.5,135C 289.651,133.907 287.984,132.574 286.5,131C 286.665,129.883 286.998,128.716 287.5,127.5C 286.452,125.544 285.952,123.544 286,121.5C 286.837,123.007 288.004,123.507 289.5,123C 285.005,118.642 284.672,113.642 288.5,108C 287.765,104.131 286.432,100.464 284.5,97C 285.167,96.3333 285.833,95.6667 286.5,95C 285.475,92.9285 284.642,90.7619 284,88.5C 280.248,83.9295 276.748,79.2628 273.5,74.5C 274.833,72.8333 276.167,71.1667 277.5,69.5C 279.411,68.925 281.078,67.925 282.5,66.5 Z"/></g>
<g><path style="opacity:0.996" fill="#ffc6b7" d="M 184.5,118.5 C 173.729,127.606 162.395,135.939 150.5,143.5C 147.47,146.014 144.137,148.014 140.5,149.5C 144.786,144.702 149.453,140.369 154.5,136.5C 164.762,130.898 174.762,124.898 184.5,118.5 Z"/></g>
<g><path style="opacity:0.998" fill="#ff4846" d="M 259.5,106.5 C 261.372,109.917 262.372,113.583 262.5,117.5C 262.5,118.5 262.5,119.5 262.5,120.5C 261.022,120.238 259.689,120.571 258.5,121.5C 261.947,124.526 265.281,127.526 268.5,130.5C 270.119,134.069 271.452,137.736 272.5,141.5C 272.279,142.735 271.612,143.735 270.5,144.5C 280.226,157.486 287.393,171.82 292,187.5C 292.667,189.833 292.667,192.167 292,194.5C 290.926,197.5 290.093,200.5 289.5,203.5C 289.66,201.801 289.494,200.134 289,198.5C 288.557,206.624 286.724,207.29 283.5,200.5C 282.141,196.118 279.974,192.118 277,188.5C 272.087,181.863 266.587,175.696 260.5,170C 258.768,170.648 256.935,171.482 255,172.5C 254.127,172.265 253.293,171.931 252.5,171.5C 252.002,172.603 251.669,173.603 251.5,174.5C 249.854,173.221 248.687,171.555 248,169.5C 245.202,169.091 243.036,167.257 241.5,164C 241.833,163.667 242.167,163.333 242.5,163C 238.032,162.787 234.032,164.12 230.5,167C 226.941,170.222 223.774,173.722 221,177.5C 220.5,177.167 220,176.833 219.5,176.5C 220.653,173.848 222.487,171.848 225,170.5C 224.813,168.199 223.646,167.865 221.5,169.5C 220.858,172.797 219.691,173.131 218,170.5C 213.431,171.957 208.764,172.957 204,173.5C 202.755,173.539 201.422,173.205 200,172.5C 198.831,171.991 197.998,171.158 197.5,170C 198.761,165.142 198.761,160.809 197.5,157C 202.964,157.543 208.464,158.377 214,159.5C 214.765,159.43 215.265,159.097 215.5,158.5C 219.549,153.284 224.382,148.95 230,145.5C 230.398,142.768 231.898,140.935 234.5,140C 233.167,139.333 233.167,138.667 234.5,138C 235.449,137.383 236.282,137.549 237,138.5C 238.242,137.128 239.742,136.128 241.5,135.5C 242.576,131.833 244.243,128.5 246.5,125.5C 246.137,124.817 245.804,124.15 245.5,123.5C 249.064,119.386 252.397,115.052 255.5,110.5C 256.402,108.659 257.736,107.326 259.5,106.5 Z"/></g>
<g><path style="opacity:0.996" fill="#ffb39c" d="M 263.5,135.5 C 264.693,135.97 265.36,136.97 265.5,138.5C 266.337,143.189 266.837,147.856 267,152.5C 262.821,147.439 261.655,141.772 263.5,135.5 Z"/></g>
<g><path style="opacity:0.998" fill="#ff9988" d="M 247.5,143.5 C 250.75,145.018 252.084,147.351 251.5,150.5C 248.875,148.919 247.542,146.585 247.5,143.5 Z"/></g>
<g><path style="opacity:1" fill="#ffbcad" d="M 272.5,141.5 C 273.222,141.918 273.722,142.584 274,143.5C 274.399,143.272 274.565,142.938 274.5,142.5C 277.167,148.167 279.833,153.833 282.5,159.5C 286.621,169.024 290.454,178.69 294,188.5C 294.903,189.701 296.069,190.535 297.5,191C 296.748,191.671 296.414,192.504 296.5,193.5C 295.13,193.856 294.13,194.69 293.5,196C 291.583,202.579 289.583,209.079 287.5,215.5C 287.167,215.5 286.833,215.5 286.5,215.5C 287.754,211.565 288.754,207.565 289.5,203.5C 290.093,200.5 290.926,197.5 292,194.5C 292.667,192.167 292.667,189.833 292,187.5C 287.393,171.82 280.226,157.486 270.5,144.5C 271.612,143.735 272.279,142.735 272.5,141.5 Z"/></g>
<g><path style="opacity:0.004" fill="#fe0000" d="M 125.5,154.5 C 124.475,154.103 124.308,153.437 125,152.5C 125.464,153.094 125.631,153.761 125.5,154.5 Z"/></g>
<g><path style="opacity:0.994" fill="#fe3132" d="M 294.5,64.5 C 323.016,104.666 350.683,145.332 377.5,186.5C 378.167,186.5 378.5,186.833 378.5,187.5C 377.539,189.265 377.205,191.265 377.5,193.5C 373.445,194.871 369.445,196.205 365.5,197.5C 367.707,194.42 369.373,191.086 370.5,187.5C 364.416,174.006 357.249,161.006 349,148.5C 340.344,140.495 333.677,131.161 329,120.5C 319.5,109.499 311.5,97.4986 305,84.5C 301.089,79.6776 297.422,74.6776 294,69.5C 293.36,67.735 293.527,66.0683 294.5,64.5 Z"/></g>
<g><path style="opacity:0.004" fill="#fe0000" d="M 359.5,155.5 C 360.833,156.167 360.833,156.167 359.5,155.5 Z"/></g>
<g><path style="opacity:0.998" fill="#fb121f" d="M 150.5,143.5 C 147.814,151.207 144.314,158.54 140,165.5C 138.167,167.333 136.333,169.167 134.5,171C 133.181,171.195 131.847,171.028 130.5,170.5C 129.183,166.243 128.683,161.91 129,157.5C 133.162,155.181 136.995,152.514 140.5,149.5C 144.137,148.014 147.47,146.014 150.5,143.5 Z"/></g>
<g><path style="opacity:0.082" fill="#d45c4f" d="M 263.5,16.5 C 266.025,20.8962 269.025,24.8962 272.5,28.5C 274.265,31.7089 276.265,34.7089 278.5,37.5C 305.924,76.9158 332.924,116.582 359.5,156.5C 364.474,164.795 369.808,172.795 375.5,180.5C 376.167,182.5 376.833,184.5 377.5,186.5C 350.683,145.332 323.016,104.666 294.5,64.5C 284.912,49.2557 274.579,34.5891 263.5,20.5C 263.565,20.0618 263.399,19.7284 263,19.5C 262.768,20.7375 262.268,21.7375 261.5,22.5C 261.672,21.5084 261.338,20.8417 260.5,20.5C 261.303,19.5768 261.47,18.5768 261,17.5C 252.537,24.2943 244.37,31.461 236.5,39C 235.563,39.6917 234.897,39.525 234.5,38.5C 241.491,32.8416 248.157,26.8416 254.5,20.5C 257.104,18.2177 260.104,16.8843 263.5,16.5 Z"/></g>
<g><path style="opacity:0.999" fill="#ff3641" d="M 215.5,158.5 C 215.265,159.097 214.765,159.43 214,159.5C 208.464,158.377 202.964,157.543 197.5,157C 198.761,160.809 198.761,165.142 197.5,170C 197.998,171.158 198.831,171.991 200,172.5C 201.422,173.205 202.755,173.539 204,173.5C 208.764,172.957 213.431,171.957 218,170.5C 219.691,173.131 220.858,172.797 221.5,169.5C 223.646,167.865 224.813,168.199 225,170.5C 222.487,171.848 220.653,173.848 219.5,176.5C 220,176.833 220.5,177.167 221,177.5C 223.774,173.722 226.941,170.222 230.5,167C 234.032,164.12 238.032,162.787 242.5,163C 242.167,163.333 241.833,163.667 241.5,164C 243.036,167.257 245.202,169.091 248,169.5C 248.687,171.555 249.854,173.221 251.5,174.5C 251.669,173.603 252.002,172.603 252.5,171.5C 253.293,171.931 254.127,172.265 255,172.5C 256.935,171.482 258.768,170.648 260.5,170C 266.587,175.696 272.087,181.863 277,188.5C 279.974,192.118 282.141,196.118 283.5,200.5C 283.539,201.756 283.039,202.756 282,203.5C 280.475,203.112 278.808,203.112 277,203.5C 274.942,202.891 274.109,201.891 274.5,200.5C 273.914,200.709 273.414,201.043 273,201.5C 270.521,198.04 268.521,194.373 267,190.5C 266.02,192.259 265.353,193.926 265,195.5C 263.388,195.048 262.388,193.715 262,191.5C 261.692,192.308 261.192,192.975 260.5,193.5C 256.928,188.953 255.095,189.62 255,195.5C 254.667,194.833 254.333,194.167 254,193.5C 252.667,197.5 251.333,197.5 250,193.5C 249.405,194.899 249.572,196.232 250.5,197.5C 249.635,198.583 248.635,198.749 247.5,198C 248.458,196.853 248.125,195.853 246.5,195C 247.641,194.259 247.641,193.425 246.5,192.5C 246.846,191.304 247.346,191.304 248,192.5C 248.676,187.534 247.343,183.201 244,179.5C 243.748,181.931 244.248,184.265 245.5,186.5C 244.926,188.059 244.26,189.559 243.5,191C 244.167,191.333 244.833,191.667 245.5,192C 245.852,194.138 245.352,196.304 244,198.5C 243.5,198 243,197.5 242.5,197C 243.747,195.542 243.747,194.042 242.5,192.5C 240.684,190.559 238.684,189.892 236.5,190.5C 237.025,191.192 237.692,191.692 238.5,192C 237.069,192.465 235.903,193.299 235,194.5C 234.667,194.167 234.333,193.833 234,193.5C 233.508,194.549 233.674,195.549 234.5,196.5C 233.758,197.287 232.925,197.953 232,198.5C 232.42,195.894 232.086,193.228 231,190.5C 229.705,191.841 229.205,193.174 229.5,194.5C 228.169,193.408 227.336,192.074 227,190.5C 224.517,193.521 225.017,195.854 228.5,197.5C 228.333,197.833 228.167,198.167 228,198.5C 226.326,196.991 224.66,196.324 223,196.5C 222.517,197.448 222.351,198.448 222.5,199.5C 220.856,199.714 219.356,199.38 218,198.5C 215.942,199.109 215.109,200.109 215.5,201.5C 214.676,199.252 213.676,199.086 212.5,201C 213.807,202.943 213.807,204.777 212.5,206.5C 212.908,203.401 211.741,201.067 209,199.5C 208.505,201.473 208.338,203.473 208.5,205.5C 208.565,205.938 208.399,206.272 208,206.5C 207.751,205.376 207.251,204.376 206.5,203.5C 200.691,208.171 195.024,212.838 189.5,217.5C 185.836,213.831 182.503,209.831 179.5,205.5C 178.386,204.277 178.219,202.944 179,201.5C 180.065,203.396 180.898,203.563 181.5,202C 179.488,200.848 179.322,199.682 181,198.5C 183,201.167 185,201.167 187,198.5C 187.667,199.833 188.667,200.833 190,201.5C 191.594,200.284 193.094,198.951 194.5,197.5C 195.167,198.5 195.833,199.5 196.5,200.5C 197.711,199.726 197.711,198.893 196.5,198C 201.325,195.865 201.659,193.199 197.5,190C 198.91,189.632 199.91,188.799 200.5,187.5C 194,180.833 187.667,174 181.5,167C 181.833,166.667 182.167,166.333 182.5,166C 180.589,163.378 178.255,161.211 175.5,159.5C 174.41,158.391 174.41,157.391 175.5,156.5C 177.326,156.92 179.326,156.92 181.5,156.5C 181.281,157.675 181.614,158.675 182.5,159.5C 182.126,158.229 182.792,157.062 184.5,156C 193.09,155.116 201.59,155.616 210,157.5C 212.483,156.447 214.317,156.78 215.5,158.5 Z"/></g>
<g><path style="opacity:0.991" fill="#fb787e" d="M 177.5,96.5 C 174.037,100.73 171.037,105.397 168.5,110.5C 166.46,112.177 164.46,113.844 162.5,115.5C 164.54,117.486 164.54,119.819 162.5,122.5C 163.2,122.787 163.867,123.12 164.5,123.5C 161.128,127.864 157.794,132.197 154.5,136.5C 149.453,140.369 144.786,144.702 140.5,149.5C 136.995,152.514 133.162,155.181 129,157.5C 128.683,161.91 129.183,166.243 130.5,170.5C 132.5,172.833 134.5,175.167 136.5,177.5C 134.914,176.587 133.414,176.587 132,177.5C 131.774,182.022 132.274,186.355 133.5,190.5C 134.22,196.138 134.553,201.804 134.5,207.5C 134.666,214.175 134.5,220.842 134,227.5C 133.333,224.833 132.667,224.833 132,227.5C 131.382,233.683 131.549,239.849 132.5,246C 132.333,247.5 132.167,249 132,250.5C 131.617,251.056 131.117,251.389 130.5,251.5C 128.545,222.133 126.212,192.799 123.5,163.5C 124.17,160.481 124.837,157.481 125.5,154.5C 141.722,134.272 159.055,114.939 177.5,96.5 Z"/></g>
<g><path style="opacity:0.999" fill="#f31818" d="M 263.5,20.5 C 274.579,34.5891 284.912,49.2557 294.5,64.5C 293.527,66.0683 293.36,67.735 294,69.5C 297.422,74.6776 301.089,79.6776 305,84.5C 311.5,97.4986 319.5,109.499 329,120.5C 333.677,131.161 340.344,140.495 349,148.5C 357.249,161.006 364.416,174.006 370.5,187.5C 369.373,191.086 367.707,194.42 365.5,197.5C 359.167,196.833 352.833,196.167 346.5,195.5C 333.139,194.259 319.639,192.926 306,191.5C 302.528,191.261 299.361,191.927 296.5,193.5C 296.414,192.504 296.748,191.671 297.5,191C 296.069,190.535 294.903,189.701 294,188.5C 290.454,178.69 286.621,169.024 282.5,159.5C 282.892,157.821 283.392,156.154 284,154.5C 285.594,155.716 287.094,157.049 288.5,158.5C 289.192,157.975 289.692,157.308 290,156.5C 290.953,158.455 292.287,160.122 294,161.5C 294.483,162.448 294.649,163.448 294.5,164.5C 297.157,164.162 299.49,164.829 301.5,166.5C 303.9,165.982 305.9,164.815 307.5,163C 308.833,162.333 310.167,162.333 311.5,163C 312.624,166.422 314.791,168.922 318,170.5C 319.728,176.074 322.728,180.741 327,184.5C 327.333,184.167 327.667,183.833 328,183.5C 327.923,184.738 328.089,185.738 328.5,186.5C 329.167,185.833 329.833,185.167 330.5,184.5C 331.768,185.428 333.101,185.595 334.5,185C 336.248,183.394 337.248,181.394 337.5,179C 336.753,175.18 336.087,171.347 335.5,167.5C 337.94,162.405 339.44,157.071 340,151.5C 337.095,150.044 334.095,148.711 331,147.5C 330.502,145.473 330.669,143.473 331.5,141.5C 328.477,138.129 326.643,134.129 326,129.5C 320.655,122.402 314.488,116.068 307.5,110.5C 300.492,104.657 294.326,97.9905 289,90.5C 287.454,82.3158 285.288,74.3158 282.5,66.5C 282.5,66.1667 282.5,65.8333 282.5,65.5C 283.043,65.44 283.376,65.1067 283.5,64.5C 281.555,61.7036 280.055,58.7036 279,55.5C 278.103,49.0444 275.103,43.7111 270,39.5C 266.446,33.6048 264.279,27.2714 263.5,20.5 Z"/></g>
<g><path style="opacity:0.004" fill="#fe0000" d="M 375.5,179.5 C 376.833,180.167 376.833,180.167 375.5,179.5 Z"/></g>
<g><path style="opacity:0.999" fill="#e10818" d="M 150.5,143.5 C 151.5,143.5 152.5,143.5 153.5,143.5C 153.143,152.7 150.143,160.867 144.5,168C 146.161,170.594 147.994,173.094 150,175.5C 150.889,179.152 151.222,182.818 151,186.5C 147.477,182.856 143.643,180.523 139.5,179.5C 137.973,179.573 136.973,178.906 136.5,177.5C 134.5,175.167 132.5,172.833 130.5,170.5C 131.847,171.028 133.181,171.195 134.5,171C 136.333,169.167 138.167,167.333 140,165.5C 144.314,158.54 147.814,151.207 150.5,143.5 Z"/></g>
<g><path style="opacity:0.999" fill="#820000" d="M 346.5,195.5 C 338.5,195.833 338.5,196.167 346.5,196.5C 344.525,204.125 341.692,211.458 338,218.5C 336.334,221.331 334.168,223.664 331.5,225.5C 331.824,221.445 331.491,217.445 330.5,213.5C 323.998,218.09 324.331,222.423 331.5,226.5C 328.079,234.596 323.412,241.929 317.5,248.5C 312.115,238.733 306.948,228.733 302,218.5C 301.107,217.289 300.274,217.289 299.5,218.5C 298.937,219.939 298.603,221.439 298.5,223C 299.074,226.312 300.074,229.478 301.5,232.5C 301.307,236.449 300.807,236.449 300,232.5C 298.933,231.809 297.766,231.309 296.5,231C 297.167,230.667 297.833,230.333 298.5,230C 297.663,228.989 297.33,227.822 297.5,226.5C 295.058,226.354 294.391,227.187 295.5,229C 293.939,229.318 292.772,230.151 292,231.5C 291,231.5 290,231.5 289,231.5C 288.157,235.062 287.49,239.395 287,244.5C 286,241.833 285,241.833 284,244.5C 282.007,242.594 282.507,241.427 285.5,241C 284.344,239.385 283.011,239.385 281.5,241C 281.106,244.389 280.106,247.889 278.5,251.5C 277.749,250.624 277.249,249.624 277,248.5C 276.768,249.737 276.268,250.737 275.5,251.5C 275.5,250.833 275.5,250.167 275.5,249.5C 278.732,241.699 281.399,233.699 283.5,225.5C 285.729,222.646 287.062,219.313 287.5,215.5C 289.583,209.079 291.583,202.579 293.5,196C 294.13,194.69 295.13,193.856 296.5,193.5C 299.361,191.927 302.528,191.261 306,191.5C 319.639,192.926 333.139,194.259 346.5,195.5 Z"/></g>
<g><path style="opacity:0.999" fill="#600000" d="M 346.5,195.5 C 352.833,196.167 359.167,196.833 365.5,197.5C 365.611,198.117 365.944,198.617 366.5,199C 365.355,202.122 364.355,205.289 363.5,208.5C 362.755,206.329 362.588,203.995 363,201.5C 361.007,204.385 358.34,206.385 355,207.5C 346.498,223.846 337.331,239.846 327.5,255.5C 327.667,255.833 327.833,256.167 328,256.5C 330.218,255.076 331.718,253.076 332.5,250.5C 333.244,251.991 333.91,253.491 334.5,255C 336.833,255.333 339.167,255.667 341.5,256C 341,256.5 340.5,257 340,257.5C 334.489,256.269 333.989,257.602 338.5,261.5C 335.508,266.15 333.008,271.15 331,276.5C 329.806,277.43 328.473,278.097 327,278.5C 324.699,277.2 322.699,275.533 321,273.5C 317.282,277.391 314.116,281.725 311.5,286.5C 307.368,294.734 302.201,302.4 296,309.5C 296.249,300.173 297.749,291.007 300.5,282C 298.465,283.313 296.299,284.813 294,286.5C 292.02,285.685 290.52,284.352 289.5,282.5C 295.74,275.675 301.74,268.675 307.5,261.5C 306.753,251.429 304.753,241.762 301.5,232.5C 300.074,229.478 299.074,226.312 298.5,223C 298.603,221.439 298.937,219.939 299.5,218.5C 300.274,217.289 301.107,217.289 302,218.5C 306.948,228.733 312.115,238.733 317.5,248.5C 323.412,241.929 328.079,234.596 331.5,226.5C 331.5,226.167 331.5,225.833 331.5,225.5C 334.168,223.664 336.334,221.331 338,218.5C 341.692,211.458 344.525,204.125 346.5,196.5C 338.5,196.167 338.5,195.833 346.5,195.5 Z"/></g>
<g><path style="opacity:1" fill="#ff9293" d="M 212.5,206.5 C 211.041,206.567 209.708,206.234 208.5,205.5C 208.338,203.473 208.505,201.473 209,199.5C 211.741,201.067 212.908,203.401 212.5,206.5 Z"/></g>
<g><path style="opacity:0.998" fill="#ff3347" d="M 283.5,200.5 C 286.724,207.29 288.557,206.624 289,198.5C 289.494,200.134 289.66,201.801 289.5,203.5C 288.754,207.565 287.754,211.565 286.5,215.5C 285.5,215.5 284.5,215.5 283.5,215.5C 283.66,213.801 283.494,212.134 283,210.5C 282.25,211.126 281.416,211.626 280.5,212C 281.357,212.689 282.023,213.522 282.5,214.5C 281.167,215.833 281.167,217.167 282.5,218.5C 281.998,219.521 281.332,219.688 280.5,219C 279.789,217.745 278.956,216.579 278,215.5C 277.735,217.163 278.235,218.663 279.5,220C 277.613,220.163 276.113,219.329 275,217.5C 272.912,218.308 270.912,219.308 269,220.5C 266.86,219.272 265.193,217.605 264,215.5C 263.323,217.689 262.156,218.022 260.5,216.5C 258.608,219.044 256.775,219.044 255,216.5C 254.653,218.18 253.653,219.18 252,219.5C 248.003,218.116 244.17,216.449 240.5,214.5C 239.74,215.489 238.573,216.155 237,216.5C 234.973,215.268 233.64,215.602 233,217.5C 232,216.167 231,216.167 230,217.5C 229.331,214.972 228.498,214.972 227.5,217.5C 227.709,218.086 228.043,218.586 228.5,219C 227.167,219.667 225.833,220.333 224.5,221C 225.942,226.964 228.775,232.131 233,236.5C 233.402,237.872 233.902,239.205 234.5,240.5C 234.376,241.107 234.043,241.44 233.5,241.5C 226.558,235.358 219.225,229.692 211.5,224.5C 208.539,225.183 208.205,226.016 210.5,227C 209.747,228.487 208.914,228.654 208,227.5C 207.383,228.449 207.549,229.282 208.5,230C 207.975,230.692 207.308,231.192 206.5,231.5C 204.292,228.946 201.959,226.446 199.5,224C 194.958,223.287 191.292,221.12 188.5,217.5C 188.833,217.5 189.167,217.5 189.5,217.5C 195.024,212.838 200.691,208.171 206.5,203.5C 207.251,204.376 207.751,205.376 208,206.5C 208.399,206.272 208.565,205.938 208.5,205.5C 209.708,206.234 211.041,206.567 212.5,206.5C 213.807,204.777 213.807,202.943 212.5,201C 213.676,199.086 214.676,199.252 215.5,201.5C 215.109,200.109 215.942,199.109 218,198.5C 219.356,199.38 220.856,199.714 222.5,199.5C 222.351,198.448 222.517,197.448 223,196.5C 224.66,196.324 226.326,196.991 228,198.5C 228.167,198.167 228.333,197.833 228.5,197.5C 225.017,195.854 224.517,193.521 227,190.5C 227.336,192.074 228.169,193.408 229.5,194.5C 229.205,193.174 229.705,191.841 231,190.5C 232.086,193.228 232.42,195.894 232,198.5C 232.925,197.953 233.758,197.287 234.5,196.5C 233.674,195.549 233.508,194.549 234,193.5C 234.333,193.833 234.667,194.167 235,194.5C 235.903,193.299 237.069,192.465 238.5,192C 237.692,191.692 237.025,191.192 236.5,190.5C 238.684,189.892 240.684,190.559 242.5,192.5C 243.747,194.042 243.747,195.542 242.5,197C 243,197.5 243.5,198 244,198.5C 245.352,196.304 245.852,194.138 245.5,192C 244.833,191.667 244.167,191.333 243.5,191C 244.26,189.559 244.926,188.059 245.5,186.5C 244.248,184.265 243.748,181.931 244,179.5C 247.343,183.201 248.676,187.534 248,192.5C 247.346,191.304 246.846,191.304 246.5,192.5C 247.641,193.425 247.641,194.259 246.5,195C 248.125,195.853 248.458,196.853 247.5,198C 248.635,198.749 249.635,198.583 250.5,197.5C 249.572,196.232 249.405,194.899 250,193.5C 251.333,197.5 252.667,197.5 254,193.5C 254.333,194.167 254.667,194.833 255,195.5C 255.095,189.62 256.928,188.953 260.5,193.5C 261.192,192.975 261.692,192.308 262,191.5C 262.388,193.715 263.388,195.048 265,195.5C 265.353,193.926 266.02,192.259 267,190.5C 268.521,194.373 270.521,198.04 273,201.5C 273.414,201.043 273.914,200.709 274.5,200.5C 274.109,201.891 274.942,202.891 277,203.5C 278.808,203.112 280.475,203.112 282,203.5C 283.039,202.756 283.539,201.756 283.5,200.5 Z"/></g>
<g><path style="opacity:0.999" fill="#a2020b" d="M 136.5,177.5 C 136.973,178.906 137.973,179.573 139.5,179.5C 141.371,182.061 143.371,184.561 145.5,187C 150.73,191.077 156.064,194.91 161.5,198.5C 162.167,199.5 162.833,200.5 163.5,201.5C 162.504,201.586 161.671,201.252 161,200.5C 160.726,203.649 161.392,206.649 163,209.5C 172.041,217.705 181.541,225.372 191.5,232.5C 193.334,235.436 193.334,238.102 191.5,240.5C 194.106,241.924 194.106,243.257 191.5,244.5C 181.037,238.428 171.037,231.595 161.5,224C 159.61,222.888 157.61,222.054 155.5,221.5C 153.962,221.453 152.962,222.12 152.5,223.5C 149.738,228.229 147.238,233.229 145,238.5C 144.51,239.793 144.343,241.127 144.5,242.5C 140.447,230.324 137.947,217.657 137,204.5C 135.675,198.982 134.675,193.315 134,187.5C 133.517,188.448 133.351,189.448 133.5,190.5C 132.274,186.355 131.774,182.022 132,177.5C 133.414,176.587 134.914,176.587 136.5,177.5 Z"/></g>
<g><path style="opacity:0.999" fill="#fe3851" d="M 286.5,215.5 C 286.833,215.5 287.167,215.5 287.5,215.5C 287.062,219.313 285.729,222.646 283.5,225.5C 280.213,232.166 277.38,239.166 275,246.5C 274.623,247.942 273.79,248.942 272.5,249.5C 270.606,250.048 268.94,251.048 267.5,252.5C 264.728,249.306 261.728,246.306 258.5,243.5C 257.571,244.689 257.238,246.022 257.5,247.5C 256.5,247.5 255.5,247.5 254.5,247.5C 254.5,248.5 254.5,249.5 254.5,250.5C 252.599,250.567 250.766,250.233 249,249.5C 247.395,251.064 245.562,251.564 243.5,251C 240.28,247.611 236.947,244.444 233.5,241.5C 234.043,241.44 234.376,241.107 234.5,240.5C 233.902,239.205 233.402,237.872 233,236.5C 228.775,232.131 225.942,226.964 224.5,221C 225.833,220.333 227.167,219.667 228.5,219C 228.043,218.586 227.709,218.086 227.5,217.5C 228.498,214.972 229.331,214.972 230,217.5C 231,216.167 232,216.167 233,217.5C 233.64,215.602 234.973,215.268 237,216.5C 238.573,216.155 239.74,215.489 240.5,214.5C 244.17,216.449 248.003,218.116 252,219.5C 253.653,219.18 254.653,218.18 255,216.5C 256.775,219.044 258.608,219.044 260.5,216.5C 262.156,218.022 263.323,217.689 264,215.5C 265.193,217.605 266.86,219.272 269,220.5C 270.912,219.308 272.912,218.308 275,217.5C 276.113,219.329 277.613,220.163 279.5,220C 278.235,218.663 277.735,217.163 278,215.5C 278.956,216.579 279.789,217.745 280.5,219C 281.332,219.688 281.998,219.521 282.5,218.5C 281.167,217.167 281.167,215.833 282.5,214.5C 282.023,213.522 281.357,212.689 280.5,212C 281.416,211.626 282.25,211.126 283,210.5C 283.494,212.134 283.66,213.801 283.5,215.5C 284.5,215.5 285.5,215.5 286.5,215.5 Z"/></g>
<g><path style="opacity:0.999" fill="#b90000" d="M 331.5,225.5 C 331.5,225.833 331.5,226.167 331.5,226.5C 324.331,222.423 323.998,218.09 330.5,213.5C 331.491,217.445 331.824,221.445 331.5,225.5 Z"/></g>
<g><path style="opacity:0.998" fill="#b30107" d="M 163.5,201.5 C 168.427,204.42 173.094,207.754 177.5,211.5C 188.457,219.788 199.123,228.455 209.5,237.5C 209.631,238.239 209.464,238.906 209,239.5C 206.851,236.554 205.018,236.387 203.5,239C 206.286,243.632 209.286,248.132 212.5,252.5C 211.609,253.59 210.609,253.59 209.5,252.5C 208.833,253.833 208.167,255.167 207.5,256.5C 201.848,252.837 196.514,248.837 191.5,244.5C 194.106,243.257 194.106,241.924 191.5,240.5C 193.334,238.102 193.334,235.436 191.5,232.5C 181.541,225.372 172.041,217.705 163,209.5C 161.392,206.649 160.726,203.649 161,200.5C 161.671,201.252 162.504,201.586 163.5,201.5 Z"/></g>
<g><path style="opacity:0.004" fill="#fe0000" d="M 375.5,220.5 C 376.833,221.167 376.833,221.833 375.5,222.5C 375.5,221.833 375.5,221.167 375.5,220.5 Z"/></g>
<g><path style="opacity:0.998" fill="#710000" d="M 363.5,208.5 C 358.937,226.927 355.437,245.594 353,264.5C 352.277,269.398 350.944,274.065 349,278.5C 348.854,283.843 348.854,289.176 349,294.5C 346.829,298.844 344.163,302.844 341,306.5C 338.117,312.923 335.283,319.257 332.5,325.5C 329.576,329.733 328.243,329.066 328.5,323.5C 327.5,323.5 326.5,323.5 325.5,323.5C 325.2,318.614 325.7,313.614 327,308.5C 329.028,304.949 331.195,301.449 333.5,298C 331.966,295.034 330.8,291.867 330,288.5C 329.111,287.112 328.611,287.278 328.5,289C 330.425,292.036 330.758,295.203 329.5,298.5C 328.186,297.687 327.019,296.687 326,295.5C 322.995,297.735 320.162,300.068 317.5,302.5C 318.429,305.525 319.762,308.358 321.5,311C 320.934,311.995 320.267,312.828 319.5,313.5C 317.772,311.123 315.439,309.456 312.5,308.5C 316.37,305.703 316.37,302.87 312.5,300C 316.567,297.016 316.234,295.016 311.5,294C 313.982,291.347 313.982,288.847 311.5,286.5C 314.116,281.725 317.282,277.391 321,273.5C 322.699,275.533 324.699,277.2 327,278.5C 328.473,278.097 329.806,277.43 331,276.5C 333.008,271.15 335.508,266.15 338.5,261.5C 333.989,257.602 334.489,256.269 340,257.5C 340.5,257 341,256.5 341.5,256C 339.167,255.667 336.833,255.333 334.5,255C 333.91,253.491 333.244,251.991 332.5,250.5C 331.718,253.076 330.218,255.076 328,256.5C 327.833,256.167 327.667,255.833 327.5,255.5C 337.331,239.846 346.498,223.846 355,207.5C 358.34,206.385 361.007,204.385 363,201.5C 362.588,203.995 362.755,206.329 363.5,208.5 Z"/></g>
<g><path style="opacity:0.999" fill="#800000" d="M 301.5,232.5 C 304.753,241.762 306.753,251.429 307.5,261.5C 301.74,268.675 295.74,275.675 289.5,282.5C 278.8,291.578 270.8,302.578 265.5,315.5C 262.733,317.599 260.733,320.266 259.5,323.5C 257.78,324.751 257.447,326.251 258.5,328C 256.841,333.359 255.508,338.526 254.5,343.5C 254.833,344.5 255.167,345.5 255.5,346.5C 256.609,345.41 257.609,345.41 258.5,346.5C 254.864,348.207 254.864,349.374 258.5,350C 257.542,351.147 257.875,352.147 259.5,353C 257.573,355.566 255.24,356.066 252.5,354.5C 252.665,351.482 252.498,348.482 252,345.5C 251.667,346.167 251.333,346.833 251,347.5C 250.833,346.333 250.667,345.167 250.5,344C 253.362,332.264 255.696,320.43 257.5,308.5C 259.103,307.404 260.603,306.07 262,304.5C 266.928,286.925 271.428,269.258 275.5,251.5C 276.268,250.737 276.768,249.737 277,248.5C 277.249,249.624 277.749,250.624 278.5,251.5C 280.106,247.889 281.106,244.389 281.5,241C 283.011,239.385 284.344,239.385 285.5,241C 282.507,241.427 282.007,242.594 284,244.5C 285,241.833 286,241.833 287,244.5C 287.49,239.395 288.157,235.062 289,231.5C 290,231.5 291,231.5 292,231.5C 292.772,230.151 293.939,229.318 295.5,229C 294.391,227.187 295.058,226.354 297.5,226.5C 297.33,227.822 297.663,228.989 298.5,230C 297.833,230.333 297.167,230.667 296.5,231C 297.766,231.309 298.933,231.809 300,232.5C 300.807,236.449 301.307,236.449 301.5,232.5 Z"/></g>
<g><path style="opacity:0.998" fill="#c70001" d="M 344.5,234.5 C 345.158,235.793 345.492,237.293 345.5,239C 345.577,241.051 345.077,242.884 344,244.5C 343.253,241.076 343.42,237.743 344.5,234.5 Z"/></g>
<g><path style="opacity:0.999" fill="#fe4d64" d="M 177.5,211.5 C 177.897,210.475 178.563,210.308 179.5,211C 182.379,213.385 185.379,215.552 188.5,217.5C 191.292,221.12 194.958,223.287 199.5,224C 201.959,226.446 204.292,228.946 206.5,231.5C 207.308,231.192 207.975,230.692 208.5,230C 207.549,229.282 207.383,228.449 208,227.5C 208.914,228.654 209.747,228.487 210.5,227C 208.205,226.016 208.539,225.183 211.5,224.5C 219.225,229.692 226.558,235.358 233.5,241.5C 236.947,244.444 240.28,247.611 243.5,251C 245.562,251.564 247.395,251.064 249,249.5C 250.766,250.233 252.599,250.567 254.5,250.5C 254.5,249.5 254.5,248.5 254.5,247.5C 255.5,247.5 256.5,247.5 257.5,247.5C 257.238,246.022 257.571,244.689 258.5,243.5C 261.728,246.306 264.728,249.306 267.5,252.5C 268.94,251.048 270.606,250.048 272.5,249.5C 271.075,250.922 270.075,252.589 269.5,254.5C 267.407,253.027 265.74,253.527 264.5,256C 260.571,257.228 256.737,258.728 253,260.5C 249.67,260.133 246.836,258.8 244.5,256.5C 243.5,257.167 242.5,257.833 241.5,258.5C 237.083,252.571 231.583,248.238 225,245.5C 224.667,246.5 224.333,247.5 224,248.5C 222.871,246.859 221.371,245.859 219.5,245.5C 215.878,243.213 212.545,240.547 209.5,237.5C 199.123,228.455 188.457,219.788 177.5,211.5 Z"/></g>
<g><path style="opacity:0.999" fill="#fa4e5b" d="M 134.5,207.5 C 134.907,226.974 137.407,246.308 142,265.5C 142.499,269.821 142.666,274.154 142.5,278.5C 138.043,270.118 134.377,261.452 131.5,252.5C 130.833,252.5 130.5,252.167 130.5,251.5C 131.117,251.389 131.617,251.056 132,250.5C 132.167,249 132.333,247.5 132.5,246C 131.549,239.849 131.382,233.683 132,227.5C 132.667,224.833 133.333,224.833 134,227.5C 134.5,220.842 134.666,214.175 134.5,207.5 Z"/></g>
<g><path style="opacity:0.996" fill="#fc909b" d="M 283.5,225.5 C 281.399,233.699 278.732,241.699 275.5,249.5C 273.5,251.167 271.5,252.833 269.5,254.5C 270.075,252.589 271.075,250.922 272.5,249.5C 273.79,248.942 274.623,247.942 275,246.5C 277.38,239.166 280.213,232.166 283.5,225.5 Z"/></g>
<g><path style="opacity:0.999" fill="#b00104" d="M 152.5,223.5 C 159.662,228.478 166.996,233.311 174.5,238C 184.214,241.608 192.714,247.108 200,254.5C 200.148,256.577 199.648,258.577 198.5,260.5C 197.719,259.271 197.219,257.938 197,256.5C 196.667,257.167 196.333,257.833 196,258.5C 195.333,257.167 194.667,257.167 194,258.5C 193.383,259.449 193.549,260.282 194.5,261C 192.616,261.216 190.949,261.883 189.5,263C 191.095,262.383 192.428,262.716 193.5,264C 191.109,264.691 191.109,265.691 193.5,267C 192.5,267.333 191.5,267.667 190.5,268C 190.07,268.92 189.736,269.753 189.5,270.5C 188.139,268.972 186.972,267.305 186,265.5C 184.297,267.347 184.464,269.181 186.5,271C 181.318,272.196 180.151,275.03 183,279.5C 183.865,277.775 184.531,276.108 185,274.5C 186.025,277.389 187.359,279.389 189,280.5C 190.359,277.456 191.859,275.123 193.5,273.5C 194.833,275.167 196.167,276.833 197.5,278.5C 198.167,277.833 198.833,277.167 199.5,276.5C 199.833,276.833 200.167,277.167 200.5,277.5C 199.284,279.304 198.284,280.971 197.5,282.5C 198.716,283.096 200.049,283.263 201.5,283C 200.5,284 199.5,285 198.5,286C 199.167,286.333 199.833,286.667 200.5,287C 199.76,288.785 199.093,290.618 198.5,292.5C 198.624,293.107 198.957,293.44 199.5,293.5C 198.405,295.358 197.071,297.025 195.5,298.5C 193.971,297.716 192.304,296.716 190.5,295.5C 187.957,291.246 184.623,287.746 180.5,285C 178.588,284.721 177.254,285.554 176.5,287.5C 174.904,290.901 175.571,293.901 178.5,296.5C 178.694,297.968 180.028,298.635 182.5,298.5C 184.259,300.633 184.926,302.966 184.5,305.5C 182.169,307.617 181.003,310.284 181,313.5C 179.414,314.376 177.914,315.376 176.5,316.5C 178.055,318.943 178.722,321.61 178.5,324.5C 175.604,327.264 173.438,326.597 172,322.5C 168.521,314.487 165.354,306.487 162.5,298.5C 158.161,286.8 154.661,274.8 152,262.5C 148.588,256.189 146.088,249.523 144.5,242.5C 144.343,241.127 144.51,239.793 145,238.5C 147.238,233.229 149.738,228.229 152.5,223.5 Z"/></g>
<g><path style="opacity:0.999" fill="#e8131b" d="M 377.5,193.5 C 377.665,196.85 377.498,200.183 377,203.5C 370.327,230.857 363.661,258.19 357,285.5C 349.312,303.24 343.312,321.573 339,340.5C 335.71,348.654 332.876,356.987 330.5,365.5C 328.992,363.819 327.992,361.819 327.5,359.5C 328.434,351.889 328.767,344.222 328.5,336.5C 330.116,332.935 331.449,329.269 332.5,325.5C 335.283,319.257 338.117,312.923 341,306.5C 344.163,302.844 346.829,298.844 349,294.5C 348.854,289.176 348.854,283.843 349,278.5C 350.944,274.065 352.277,269.398 353,264.5C 355.437,245.594 358.937,226.927 363.5,208.5C 364.355,205.289 365.355,202.122 366.5,199C 365.944,198.617 365.611,198.117 365.5,197.5C 369.445,196.205 373.445,194.871 377.5,193.5 Z"/></g>
<g><path style="opacity:0.227" fill="#bc3730" d="M 378.5,187.5 C 379.567,192.782 379.733,198.115 379,203.5C 377.353,209.084 376.187,214.751 375.5,220.5C 374.167,221.167 374.167,221.833 375.5,222.5C 369.399,242.897 363.899,263.564 359,284.5C 357.607,288.286 355.941,291.952 354,295.5C 347.004,318.489 340.004,341.489 333,364.5C 327.03,376.263 320.53,387.596 313.5,398.5C 312.761,398.631 312.094,398.464 311.5,398C 318.345,387.61 324.679,376.777 330.5,365.5C 332.876,356.987 335.71,348.654 339,340.5C 343.312,321.573 349.312,303.24 357,285.5C 363.661,258.19 370.327,230.857 377,203.5C 377.498,200.183 377.665,196.85 377.5,193.5C 377.205,191.265 377.539,189.265 378.5,187.5 Z"/></g>
<g><path style="opacity:0.999" fill="#c00304" d="M 191.5,244.5 C 196.514,248.837 201.848,252.837 207.5,256.5C 208.167,255.167 208.833,253.833 209.5,252.5C 210.609,253.59 211.609,253.59 212.5,252.5C 209.286,248.132 206.286,243.632 203.5,239C 205.018,236.387 206.851,236.554 209,239.5C 209.464,238.906 209.631,238.239 209.5,237.5C 212.545,240.547 215.878,243.213 219.5,245.5C 229.179,254.511 239.179,263.178 249.5,271.5C 249.833,272.167 250.167,272.833 250.5,273.5C 250.662,275.527 250.495,277.527 250,279.5C 249.586,279.957 249.086,280.291 248.5,280.5C 247.571,279.311 247.238,277.978 247.5,276.5C 245.5,276.5 243.5,276.5 241.5,276.5C 241.324,280.265 239.324,282.265 235.5,282.5C 235.33,283.822 235.663,284.989 236.5,286C 235.833,286.333 235.167,286.667 234.5,287C 236.973,291.519 239.973,295.519 243.5,299C 240.672,302.001 241.005,303.501 244.5,303.5C 245.379,306.701 247.045,309.368 249.5,311.5C 251.303,307.207 253.303,306.874 255.5,310.5C 256.182,309.757 256.849,309.091 257.5,308.5C 255.696,320.43 253.362,332.264 250.5,344C 250.667,345.167 250.833,346.333 251,347.5C 251.333,346.833 251.667,346.167 252,345.5C 252.498,348.482 252.665,351.482 252.5,354.5C 247.592,361.918 245.258,370.252 245.5,379.5C 244.207,381.364 244.207,383.364 245.5,385.5C 250.523,384.583 255.523,384.916 260.5,386.5C 259.833,387.5 259.167,388.5 258.5,389.5C 258.624,390.107 258.957,390.44 259.5,390.5C 257.539,392.963 255.372,395.297 253,397.5C 248.963,393.631 245.13,389.631 241.5,385.5C 239.078,381.572 236.078,378.072 232.5,375C 233.167,374 233.833,373 234.5,372C 230.831,370.592 230.831,368.925 234.5,367C 234.064,364.822 233.564,362.322 233,359.5C 231.927,360.28 230.76,360.113 229.5,359C 230.641,358.259 230.641,357.425 229.5,356.5C 230.868,355.406 232.035,355.74 233,357.5C 233.309,356.234 233.809,355.067 234.5,354C 233.833,353.667 233.167,353.333 232.5,353C 231.921,351.575 231.921,349.908 232.5,348C 227.915,343.077 223.082,338.577 218,334.5C 217.51,333.207 217.343,331.873 217.5,330.5C 221.419,333.075 225.085,336.075 228.5,339.5C 229.349,337.49 228.682,335.823 226.5,334.5C 227.465,333.086 228.465,332.253 229.5,332C 224.059,326.84 218.892,321.34 214,315.5C 213.749,313.567 213.249,311.734 212.5,310C 214.004,307.505 215.004,304.839 215.5,302C 214.553,299.134 214.553,296.467 215.5,294C 214.833,292 214.167,290 213.5,288C 213.833,286.333 214.167,284.667 214.5,283C 212.667,283.167 210.833,283.333 209,283.5C 208.667,282.5 208.333,281.5 208,280.5C 204.974,284.695 202.141,289.029 199.5,293.5C 198.957,293.44 198.624,293.107 198.5,292.5C 199.093,290.618 199.76,288.785 200.5,287C 199.833,286.667 199.167,286.333 198.5,286C 199.5,285 200.5,284 201.5,283C 200.049,283.263 198.716,283.096 197.5,282.5C 198.284,280.971 199.284,279.304 200.5,277.5C 200.167,277.167 199.833,276.833 199.5,276.5C 198.833,277.167 198.167,277.833 197.5,278.5C 196.167,276.833 194.833,275.167 193.5,273.5C 191.859,275.123 190.359,277.456 189,280.5C 187.359,279.389 186.025,277.389 185,274.5C 184.531,276.108 183.865,277.775 183,279.5C 180.151,275.03 181.318,272.196 186.5,271C 184.464,269.181 184.297,267.347 186,265.5C 186.972,267.305 188.139,268.972 189.5,270.5C 189.736,269.753 190.07,268.92 190.5,268C 191.5,267.667 192.5,267.333 193.5,267C 191.109,265.691 191.109,264.691 193.5,264C 192.428,262.716 191.095,262.383 189.5,263C 190.949,261.883 192.616,261.216 194.5,261C 193.549,260.282 193.383,259.449 194,258.5C 194.667,257.167 195.333,257.167 196,258.5C 196.333,257.833 196.667,257.167 197,256.5C 197.219,257.938 197.719,259.271 198.5,260.5C 199.648,258.577 200.148,256.577 200,254.5C 192.714,247.108 184.214,241.608 174.5,238C 166.996,233.311 159.662,228.478 152.5,223.5C 152.962,222.12 153.962,221.453 155.5,221.5C 157.61,222.054 159.61,222.888 161.5,224C 171.037,231.595 181.037,238.428 191.5,244.5 Z"/></g>
<g><path style="opacity:0.998" fill="#fe5e72" d="M 219.5,245.5 C 221.371,245.859 222.871,246.859 224,248.5C 224.333,247.5 224.667,246.5 225,245.5C 231.583,248.238 237.083,252.571 241.5,258.5C 242.5,257.833 243.5,257.167 244.5,256.5C 246.836,258.8 249.67,260.133 253,260.5C 256.737,258.728 260.571,257.228 264.5,256C 265.74,253.527 267.407,253.027 269.5,254.5C 265.199,260.135 260.533,265.468 255.5,270.5C 253.402,269.516 251.402,269.849 249.5,271.5C 239.179,263.178 229.179,254.511 219.5,245.5 Z"/></g>
<g><path style="opacity:0.999" fill="#8a0105" d="M 144.5,242.5 C 146.088,249.523 148.588,256.189 152,262.5C 154.661,274.8 158.161,286.8 162.5,298.5C 160.709,297.518 159.043,295.685 157.5,293C 157.833,292.667 158.167,292.333 158.5,292C 157.207,291.51 155.873,291.343 154.5,291.5C 154.421,292.93 154.754,294.264 155.5,295.5C 153.527,296.801 151.527,298.801 149.5,301.5C 149.001,306.157 149.668,310.824 151.5,315.5C 150.667,317.167 149.833,318.833 149,320.5C 148.802,318.618 148.302,316.952 147.5,315.5C 147.204,302.848 145.537,290.515 142.5,278.5C 142.666,274.154 142.499,269.821 142,265.5C 137.407,246.308 134.907,226.974 134.5,207.5C 134.553,201.804 134.22,196.138 133.5,190.5C 133.351,189.448 133.517,188.448 134,187.5C 134.675,193.315 135.675,198.982 137,204.5C 137.947,217.657 140.447,230.324 144.5,242.5 Z"/></g>
<g><path style="opacity:0.996" fill="#fed9d9" d="M 255.5,270.5 C 254.33,272.279 252.664,273.279 250.5,273.5C 250.167,272.833 249.833,272.167 249.5,271.5C 251.402,269.849 253.402,269.516 255.5,270.5 Z"/></g>
<g><path style="opacity:0.999" fill="#d0090b" d="M 275.5,249.5 C 275.5,250.167 275.5,250.833 275.5,251.5C 271.428,269.258 266.928,286.925 262,304.5C 260.603,306.07 259.103,307.404 257.5,308.5C 256.849,309.091 256.182,309.757 255.5,310.5C 253.303,306.874 251.303,307.207 249.5,311.5C 247.045,309.368 245.379,306.701 244.5,303.5C 241.005,303.501 240.672,302.001 243.5,299C 239.973,295.519 236.973,291.519 234.5,287C 235.167,286.667 235.833,286.333 236.5,286C 235.663,284.989 235.33,283.822 235.5,282.5C 239.324,282.265 241.324,280.265 241.5,276.5C 243.5,276.5 245.5,276.5 247.5,276.5C 247.238,277.978 247.571,279.311 248.5,280.5C 249.086,280.291 249.586,279.957 250,279.5C 250.495,277.527 250.662,275.527 250.5,273.5C 252.664,273.279 254.33,272.279 255.5,270.5C 260.533,265.468 265.199,260.135 269.5,254.5C 271.5,252.833 273.5,251.167 275.5,249.5 Z"/></g>
<g><path style="opacity:0.998" fill="#f55c68" d="M 131.5,252.5 C 134.377,261.452 138.043,270.118 142.5,278.5C 142.649,279.552 142.483,280.552 142,281.5C 141.333,280.167 140.667,280.167 140,281.5C 139.667,283.167 139.333,284.833 139,286.5C 138.586,286.043 138.086,285.709 137.5,285.5C 136.335,292.811 136.169,300.144 137,307.5C 139.398,310.066 141.064,313.066 142,316.5C 143.828,315.248 145.661,315.248 147.5,316.5C 147.5,318.167 147.5,319.833 147.5,321.5C 144.739,329.193 142.406,337.027 140.5,345C 144.318,350.823 148.151,356.656 152,362.5C 152.246,365.89 152.746,369.223 153.5,372.5C 153.376,373.107 153.043,373.44 152.5,373.5C 148.183,365.902 143.683,357.236 139,347.5C 138.16,341.416 136.993,335.416 135.5,329.5C 136.046,328.228 136.379,326.894 136.5,325.5C 134.374,301.198 132.708,276.864 131.5,252.5 Z"/></g>
<g><path style="opacity:0.998" fill="#6d0000" d="M 332.5,325.5 C 331.449,329.269 330.116,332.935 328.5,336.5C 324.376,344.073 320.21,351.74 316,359.5C 315.831,364.161 315.997,368.828 316.5,373.5C 314.244,377.097 311.577,380.431 308.5,383.5C 307.527,382.016 306.193,381.516 304.5,382C 300.518,386.145 295.851,389.311 290.5,391.5C 288.59,389.089 287.256,386.423 286.5,383.5C 284.703,376.774 282.703,370.108 280.5,363.5C 280.657,362.127 280.49,360.793 280,359.5C 279,358.167 278,358.167 277,359.5C 275.343,356.911 275.009,354.244 276,351.5C 274.647,350.315 273.48,348.981 272.5,347.5C 273.025,346.808 273.692,346.308 274.5,346C 272.567,345.749 270.734,345.249 269,344.5C 268.932,341.681 267.766,339.514 265.5,338C 265.833,337.667 266.167,337.333 266.5,337C 261.672,337.861 260.339,335.861 262.5,331C 261.376,330.751 260.376,330.251 259.5,329.5C 259.972,327.599 259.972,325.599 259.5,323.5C 260.733,320.266 262.733,317.599 265.5,315.5C 265.435,315.938 265.601,316.272 266,316.5C 267,315.167 268,313.833 269,312.5C 270.827,312.806 271.994,314.306 272.5,317C 273.744,317.456 274.577,316.956 275,315.5C 276.214,317.049 277.714,318.215 279.5,319C 277.538,318.859 275.704,319.026 274,319.5C 272.715,319.05 271.548,318.383 270.5,317.5C 269.24,319.353 269.24,321.186 270.5,323C 271.449,323.617 272.282,323.451 273,322.5C 273.617,323.449 273.451,324.282 272.5,325C 273.126,325.75 273.626,326.584 274,327.5C 274.333,327.167 274.667,326.833 275,326.5C 275.167,327.5 275.333,328.5 275.5,329.5C 274.114,334.428 273.114,339.428 272.5,344.5C 276.212,344.188 278.879,345.688 280.5,349C 279.903,350.889 279.569,352.722 279.5,354.5C 281.535,356.111 282.202,357.944 281.5,360C 282.786,362.022 283.786,364.189 284.5,366.5C 286.296,367.141 287.796,368.141 289,369.5C 289.739,367.779 290.573,366.113 291.5,364.5C 292.281,365.729 292.781,367.062 293,368.5C 294,366.833 295,365.167 296,363.5C 297.086,365.847 298.419,365.847 300,363.5C 302.073,363.761 304.073,363.761 306,363.5C 307.353,362.315 308.52,360.981 309.5,359.5C 308.975,358.808 308.308,358.308 307.5,358C 308.646,357.355 309.646,356.522 310.5,355.5C 311.842,356.902 312.676,356.569 313,354.5C 313.333,354.833 313.667,355.167 314,355.5C 314.353,354.328 314.187,353.162 313.5,352C 314.384,350.902 315.384,350.402 316.5,350.5C 315.376,349.086 314.376,347.586 313.5,346C 316.394,345.131 317.561,343.298 317,340.5C 316.576,342.615 315.409,343.448 313.5,343C 315.014,341.561 315.347,340.061 314.5,338.5C 315.747,336.677 316.414,334.677 316.5,332.5C 319.907,332.875 320.407,331.875 318,329.5C 315.849,332.112 315.015,332.112 315.5,329.5C 315.154,328.304 314.654,328.304 314,329.5C 313.333,328.5 313.333,327.5 314,326.5C 315.526,326.527 317.026,327.027 318.5,328C 317.167,327.333 317.167,326.667 318.5,326C 317.833,325.667 317.167,325.333 316.5,325C 317.517,323.951 317.684,322.784 317,321.5C 315.893,322.712 315.393,322.379 315.5,320.5C 316.806,318.184 318.139,315.85 319.5,313.5C 320.267,312.828 320.934,311.995 321.5,311C 319.762,308.358 318.429,305.525 317.5,302.5C 320.162,300.068 322.995,297.735 326,295.5C 327.019,296.687 328.186,297.687 329.5,298.5C 330.758,295.203 330.425,292.036 328.5,289C 328.611,287.278 329.111,287.112 330,288.5C 330.8,291.867 331.966,295.034 333.5,298C 331.195,301.449 329.028,304.949 327,308.5C 325.7,313.614 325.2,318.614 325.5,323.5C 326.5,323.5 327.5,323.5 328.5,323.5C 328.243,329.066 329.576,329.733 332.5,325.5 Z"/></g>
<g><path style="opacity:0.999" fill="#660000" d="M 311.5,286.5 C 313.982,288.847 313.982,291.347 311.5,294C 316.234,295.016 316.567,297.016 312.5,300C 316.37,302.87 316.37,305.703 312.5,308.5C 312.334,313.179 312.501,317.845 313,322.5C 313.708,321.619 314.542,320.953 315.5,320.5C 315.393,322.379 315.893,322.712 317,321.5C 317.684,322.784 317.517,323.951 316.5,325C 317.167,325.333 317.833,325.667 318.5,326C 317.167,326.667 317.167,327.333 318.5,328C 317.026,327.027 315.526,326.527 314,326.5C 313.333,327.5 313.333,328.5 314,329.5C 314.654,328.304 315.154,328.304 315.5,329.5C 315.015,332.112 315.849,332.112 318,329.5C 320.407,331.875 319.907,332.875 316.5,332.5C 316.414,334.677 315.747,336.677 314.5,338.5C 315.347,340.061 315.014,341.561 313.5,343C 315.409,343.448 316.576,342.615 317,340.5C 317.561,343.298 316.394,345.131 313.5,346C 314.376,347.586 315.376,349.086 316.5,350.5C 315.384,350.402 314.384,350.902 313.5,352C 314.187,353.162 314.353,354.328 314,355.5C 313.667,355.167 313.333,354.833 313,354.5C 312.676,356.569 311.842,356.902 310.5,355.5C 309.646,356.522 308.646,357.355 307.5,358C 308.308,358.308 308.975,358.808 309.5,359.5C 308.52,360.981 307.353,362.315 306,363.5C 304.073,363.761 302.073,363.761 300,363.5C 298.419,365.847 297.086,365.847 296,363.5C 295,365.167 294,366.833 293,368.5C 292.781,367.062 292.281,365.729 291.5,364.5C 290.573,366.113 289.739,367.779 289,369.5C 287.796,368.141 286.296,367.141 284.5,366.5C 283.786,364.189 282.786,362.022 281.5,360C 282.202,357.944 281.535,356.111 279.5,354.5C 279.569,352.722 279.903,350.889 280.5,349C 278.879,345.688 276.212,344.188 272.5,344.5C 273.114,339.428 274.114,334.428 275.5,329.5C 275.333,328.5 275.167,327.5 275,326.5C 274.667,326.833 274.333,327.167 274,327.5C 273.626,326.584 273.126,325.75 272.5,325C 273.451,324.282 273.617,323.449 273,322.5C 272.282,323.451 271.449,323.617 270.5,323C 269.24,321.186 269.24,319.353 270.5,317.5C 271.548,318.383 272.715,319.05 274,319.5C 275.704,319.026 277.538,318.859 279.5,319C 277.714,318.215 276.214,317.049 275,315.5C 274.577,316.956 273.744,317.456 272.5,317C 271.994,314.306 270.827,312.806 269,312.5C 268,313.833 267,315.167 266,316.5C 265.601,316.272 265.435,315.938 265.5,315.5C 270.8,302.578 278.8,291.578 289.5,282.5C 290.52,284.352 292.02,285.685 294,286.5C 296.299,284.813 298.465,283.313 300.5,282C 297.749,291.007 296.249,300.173 296,309.5C 302.201,302.4 307.368,294.734 311.5,286.5 Z"/></g>
<g><path style="opacity:0.997" fill="#f84258" d="M 142.5,278.5 C 145.537,290.515 147.204,302.848 147.5,315.5C 147.5,315.833 147.5,316.167 147.5,316.5C 145.661,315.248 143.828,315.248 142,316.5C 141.064,313.066 139.398,310.066 137,307.5C 136.169,300.144 136.335,292.811 137.5,285.5C 138.086,285.709 138.586,286.043 139,286.5C 139.333,284.833 139.667,283.167 140,281.5C 140.667,280.167 141.333,280.167 142,281.5C 142.483,280.552 142.649,279.552 142.5,278.5 Z"/></g>
<g><path style="opacity:0.998" fill="#d00203" d="M 176.5,287.5 C 177.228,289.735 178.561,291.568 180.5,293C 184.931,295.596 188.931,298.762 192.5,302.5C 197.833,308.833 203.167,315.167 208.5,321.5C 198.703,315.89 190.369,308.057 183.5,298C 181.975,296.991 180.308,296.491 178.5,296.5C 175.571,293.901 174.904,290.901 176.5,287.5 Z"/></g>
<g><path style="opacity:0.998" fill="#d50202" d="M 312.5,308.5 C 315.439,309.456 317.772,311.123 319.5,313.5C 318.139,315.85 316.806,318.184 315.5,320.5C 314.542,320.953 313.708,321.619 313,322.5C 312.501,317.845 312.334,313.179 312.5,308.5 Z"/></g>
<g><path style="opacity:0.999" fill="#900000" d="M 162.5,298.5 C 165.354,306.487 168.521,314.487 172,322.5C 173.438,326.597 175.604,327.264 178.5,324.5C 179.29,323.391 179.79,322.058 180,320.5C 181,321.833 182,321.833 183,320.5C 184.701,322.41 186.867,323.577 189.5,324C 188.66,325.666 189.16,325.833 191,324.5C 191.273,326.101 191.773,327.601 192.5,329C 191.366,330.016 191.699,330.683 193.5,331C 190.988,332.873 191.154,334.707 194,336.5C 194.718,335.549 195.551,335.383 196.5,336C 194.388,336.906 193.555,338.406 194,340.5C 194.333,339.833 194.667,339.167 195,338.5C 195.667,339.833 196.333,339.833 197,338.5C 197.87,339.108 198.37,339.941 198.5,341C 197.385,342.235 197.385,343.402 198.5,344.5C 196.443,346.269 194.61,348.269 193,350.5C 192.632,349.09 191.799,348.09 190.5,347.5C 189.692,349.423 189.192,351.423 189,353.5C 188.717,350.258 187.883,349.924 186.5,352.5C 186.833,353.167 187.167,353.833 187.5,354.5C 186.372,355.262 185.205,355.929 184,356.5C 181.034,354.227 177.867,352.227 174.5,350.5C 174.28,344.441 173.113,338.441 171,332.5C 166.524,328.34 163.19,323.34 161,317.5C 160.501,321.486 160.334,325.486 160.5,329.5C 158.379,329.325 156.379,329.659 154.5,330.5C 154.276,325.664 151.943,322.664 147.5,321.5C 147.5,319.833 147.5,318.167 147.5,316.5C 147.5,316.167 147.5,315.833 147.5,315.5C 148.302,316.952 148.802,318.618 149,320.5C 149.833,318.833 150.667,317.167 151.5,315.5C 149.668,310.824 149.001,306.157 149.5,301.5C 151.527,298.801 153.527,296.801 155.5,295.5C 154.754,294.264 154.421,292.93 154.5,291.5C 155.873,291.343 157.207,291.51 158.5,292C 158.167,292.333 157.833,292.667 157.5,293C 159.043,295.685 160.709,297.518 162.5,298.5 Z"/></g>
<g><path style="opacity:0.998" fill="#9f0001" d="M 217.5,330.5 C 217.631,329.624 217.298,328.957 216.5,328.5C 215.408,329.831 214.074,330.664 212.5,331C 213.308,331.308 213.975,331.808 214.5,332.5C 213.593,334.256 213.593,336.089 214.5,338C 214.158,340.515 212.825,342.348 210.5,343.5C 211.526,349.067 211.526,354.567 210.5,360C 212.623,361.773 214.623,362.94 216.5,363.5C 217.803,362.282 218.803,362.615 219.5,364.5C 218.814,369.177 218.814,373.677 219.5,378C 218.315,379.353 216.981,380.52 215.5,381.5C 215.709,382.086 216.043,382.586 216.5,383C 215.258,383.311 214.258,382.811 213.5,381.5C 212.5,382.833 211.5,384.167 210.5,385.5C 208.207,383.77 205.707,382.437 203,381.5C 201.77,382.275 201.437,383.275 202,384.5C 203.873,386.709 206.04,388.542 208.5,390C 206.5,390 204.5,390 202.5,390C 203.161,392.89 202.161,395.39 199.5,397.5C 198.094,396.332 196.928,396.665 196,398.5C 195.667,396.833 195.333,395.167 195,393.5C 194.722,394.416 194.222,395.082 193.5,395.5C 191.691,388.886 188.524,382.886 184,377.5C 183.517,376.552 183.351,375.552 183.5,374.5C 184.5,374.5 185.5,374.5 186.5,374.5C 186.382,368.599 183.882,363.932 179,360.5C 177.554,363.941 176.721,367.274 176.5,370.5C 177.167,371.5 177.833,372.5 178.5,373.5C 174.082,376.715 170.916,375.715 169,370.5C 168.28,372.112 168.446,373.612 169.5,375C 167.408,375.953 167.075,377.286 168.5,379C 167.139,380.584 166.472,382.418 166.5,384.5C 165.661,382.219 164.661,379.885 163.5,377.5C 164.325,376.614 165.325,376.281 166.5,376.5C 165.195,369.14 163.695,361.806 162,354.5C 158.68,346.708 156.18,338.708 154.5,330.5C 156.379,329.659 158.379,329.325 160.5,329.5C 160.334,325.486 160.501,321.486 161,317.5C 163.19,323.34 166.524,328.34 171,332.5C 173.113,338.441 174.28,344.441 174.5,350.5C 177.867,352.227 181.034,354.227 184,356.5C 185.205,355.929 186.372,355.262 187.5,354.5C 187.167,353.833 186.833,353.167 186.5,352.5C 187.883,349.924 188.717,350.258 189,353.5C 189.192,351.423 189.692,349.423 190.5,347.5C 191.799,348.09 192.632,349.09 193,350.5C 194.61,348.269 196.443,346.269 198.5,344.5C 197.385,343.402 197.385,342.235 198.5,341C 198.37,339.941 197.87,339.108 197,338.5C 196.333,339.833 195.667,339.833 195,338.5C 194.667,339.167 194.333,339.833 194,340.5C 193.555,338.406 194.388,336.906 196.5,336C 195.551,335.383 194.718,335.549 194,336.5C 191.154,334.707 190.988,332.873 193.5,331C 191.699,330.683 191.366,330.016 192.5,329C 191.773,327.601 191.273,326.101 191,324.5C 189.16,325.833 188.66,325.666 189.5,324C 186.867,323.577 184.701,322.41 183,320.5C 182,321.833 181,321.833 180,320.5C 179.79,322.058 179.29,323.391 178.5,324.5C 178.722,321.61 178.055,318.943 176.5,316.5C 177.914,315.376 179.414,314.376 181,313.5C 181.003,310.284 182.169,307.617 184.5,305.5C 184.926,302.966 184.259,300.633 182.5,298.5C 180.028,298.635 178.694,297.968 178.5,296.5C 180.308,296.491 181.975,296.991 183.5,298C 190.369,308.057 198.703,315.89 208.5,321.5C 203.167,315.167 197.833,308.833 192.5,302.5C 188.931,298.762 184.931,295.596 180.5,293C 178.561,291.568 177.228,289.735 176.5,287.5C 177.254,285.554 178.588,284.721 180.5,285C 184.623,287.746 187.957,291.246 190.5,295.5C 192.304,296.716 193.971,297.716 195.5,298.5C 197.071,297.025 198.405,295.358 199.5,293.5C 202.141,289.029 204.974,284.695 208,280.5C 208.333,281.5 208.667,282.5 209,283.5C 210.833,283.333 212.667,283.167 214.5,283C 214.167,284.667 213.833,286.333 213.5,288C 214.167,290 214.833,292 215.5,294C 214.553,296.467 214.553,299.134 215.5,302C 215.004,304.839 214.004,307.505 212.5,310C 213.249,311.734 213.749,313.567 214,315.5C 218.892,321.34 224.059,326.84 229.5,332C 228.465,332.253 227.465,333.086 226.5,334.5C 228.682,335.823 229.349,337.49 228.5,339.5C 225.085,336.075 221.419,333.075 217.5,330.5 Z"/></g>
<g><path style="opacity:0.998" fill="#760000" d="M 259.5,323.5 C 259.972,325.599 259.972,327.599 259.5,329.5C 260.376,330.251 261.376,330.751 262.5,331C 260.339,335.861 261.672,337.861 266.5,337C 266.167,337.333 265.833,337.667 265.5,338C 267.766,339.514 268.932,341.681 269,344.5C 270.734,345.249 272.567,345.749 274.5,346C 273.692,346.308 273.025,346.808 272.5,347.5C 273.48,348.981 274.647,350.315 276,351.5C 275.009,354.244 275.343,356.911 277,359.5C 278,358.167 279,358.167 280,359.5C 280.49,360.793 280.657,362.127 280.5,363.5C 279.176,362.15 278.176,362.317 277.5,364C 275.867,369.231 274.034,374.398 272,379.5C 268.389,378.05 265.555,375.717 263.5,372.5C 262.757,373.908 261.923,375.241 261,376.5C 258.577,374.257 255.91,373.59 253,374.5C 251.762,378.014 249.429,380.348 246,381.5C 245.536,380.906 245.369,380.239 245.5,379.5C 245.258,370.252 247.592,361.918 252.5,354.5C 255.24,356.066 257.573,355.566 259.5,353C 257.875,352.147 257.542,351.147 258.5,350C 254.864,349.374 254.864,348.207 258.5,346.5C 257.609,345.41 256.609,345.41 255.5,346.5C 255.167,345.5 254.833,344.5 254.5,343.5C 255.508,338.526 256.841,333.359 258.5,328C 257.447,326.251 257.78,324.751 259.5,323.5 Z"/></g>
<g><path style="opacity:1" fill="#d20000" d="M 296.5,323.5 C 297.239,323.369 297.906,323.536 298.5,324C 297.994,326.532 296.827,328.698 295,330.5C 294.535,329.069 293.701,327.903 292.5,327C 294.093,326.051 295.426,324.885 296.5,323.5 Z"/></g>
<g><path style="opacity:0.998" fill="#bf0812" d="M 147.5,321.5 C 151.943,322.664 154.276,325.664 154.5,330.5C 156.18,338.708 158.68,346.708 162,354.5C 163.695,361.806 165.195,369.14 166.5,376.5C 165.325,376.281 164.325,376.614 163.5,377.5C 164.661,379.885 165.661,382.219 166.5,384.5C 166.34,386.199 166.506,387.866 167,389.5C 169.454,394.073 171.621,398.739 173.5,403.5C 172.596,404.209 172.263,405.209 172.5,406.5C 171.778,405.449 170.778,404.782 169.5,404.5C 168.833,404.5 168.5,404.167 168.5,403.5C 169.097,403.265 169.43,402.765 169.5,402C 164.974,392.444 159.807,383.278 154,374.5C 153.601,374.728 153.435,375.062 153.5,375.5C 152.662,375.158 152.328,374.492 152.5,373.5C 153.043,373.44 153.376,373.107 153.5,372.5C 152.746,369.223 152.246,365.89 152,362.5C 148.151,356.656 144.318,350.823 140.5,345C 142.406,337.027 144.739,329.193 147.5,321.5 Z"/></g>
<g><path style="opacity:0.998" fill="#b30102" d="M 217.5,330.5 C 217.343,331.873 217.51,333.207 218,334.5C 223.082,338.577 227.915,343.077 232.5,348C 231.921,349.908 231.921,351.575 232.5,353C 233.167,353.333 233.833,353.667 234.5,354C 233.809,355.067 233.309,356.234 233,357.5C 232.035,355.74 230.868,355.406 229.5,356.5C 230.641,357.425 230.641,358.259 229.5,359C 230.76,360.113 231.927,360.28 233,359.5C 233.564,362.322 234.064,364.822 234.5,367C 230.831,368.925 230.831,370.592 234.5,372C 233.833,373 233.167,374 232.5,375C 236.078,378.072 239.078,381.572 241.5,385.5C 238.203,382.704 235.036,379.704 232,376.5C 231.333,377.167 231.333,377.833 232,378.5C 233.376,379.705 234.542,381.038 235.5,382.5C 231.679,387.334 228.679,392.667 226.5,398.5C 226.709,399.086 227.043,399.586 227.5,400C 226.833,402.333 226.167,404.667 225.5,407C 226.167,407.333 226.833,407.667 227.5,408C 226.778,411.102 226.611,414.268 227,417.5C 226.5,418.5 226,419.5 225.5,420.5C 223.07,422.253 220.736,423.42 218.5,424C 219.313,425.314 220.313,426.481 221.5,427.5C 220.265,430.044 219.099,430.044 218,427.5C 218.057,430.972 217.057,433.972 215,436.5C 214.503,434.19 214.337,431.857 214.5,429.5C 213.167,429.5 211.833,429.5 210.5,429.5C 210.531,434.107 212.197,437.94 215.5,441C 214.549,441.718 214.383,442.551 215,443.5C 217.185,442.072 219.185,440.405 221,438.5C 221.17,440.983 220.336,443.149 218.5,445C 220.434,446.729 220.434,448.729 218.5,451C 220.397,452.11 222.23,452.276 224,451.5C 223.155,454.879 223.322,457.879 224.5,460.5C 222.841,463.833 220.175,465.5 216.5,465.5C 216.665,468.518 216.498,471.518 216,474.5C 214.883,473.051 214.216,471.384 214,469.5C 213.667,470.167 213.333,470.833 213,471.5C 212.184,470.177 211.017,469.511 209.5,469.5C 208.833,469.5 208.5,469.167 208.5,468.5C 209.338,468.158 209.672,467.492 209.5,466.5C 211.379,467.341 213.379,467.675 215.5,467.5C 215.661,463.156 214.161,459.489 211,456.5C 210.814,458.9 210.314,461.234 209.5,463.5C 206.462,458.089 203.962,452.422 202,446.5C 200.521,443.172 198.355,440.506 195.5,438.5C 196.317,436.031 196.817,433.365 197,430.5C 197.689,429.643 198.522,428.977 199.5,428.5C 200.696,428.846 200.696,429.346 199.5,430C 200.448,430.483 201.448,430.649 202.5,430.5C 202.688,428.897 202.188,427.563 201,426.5C 199.951,427.517 198.784,427.684 197.5,427C 199.152,425.53 200.152,423.697 200.5,421.5C 196.321,414.961 193.654,407.794 192.5,400C 192.605,398.408 192.939,396.908 193.5,395.5C 194.222,395.082 194.722,394.416 195,393.5C 195.333,395.167 195.667,396.833 196,398.5C 196.928,396.665 198.094,396.332 199.5,397.5C 202.161,395.39 203.161,392.89 202.5,390C 204.5,390 206.5,390 208.5,390C 206.04,388.542 203.873,386.709 202,384.5C 201.437,383.275 201.77,382.275 203,381.5C 205.707,382.437 208.207,383.77 210.5,385.5C 211.5,384.167 212.5,382.833 213.5,381.5C 214.258,382.811 215.258,383.311 216.5,383C 216.043,382.586 215.709,382.086 215.5,381.5C 216.981,380.52 218.315,379.353 219.5,378C 218.814,373.677 218.814,369.177 219.5,364.5C 218.803,362.615 217.803,362.282 216.5,363.5C 214.623,362.94 212.623,361.773 210.5,360C 211.526,354.567 211.526,349.067 210.5,343.5C 212.825,342.348 214.158,340.515 214.5,338C 213.593,336.089 213.593,334.256 214.5,332.5C 213.975,331.808 213.308,331.308 212.5,331C 214.074,330.664 215.408,329.831 216.5,328.5C 217.298,328.957 217.631,329.624 217.5,330.5 Z"/></g>
<g><path style="opacity:0.998" fill="#d50726" d="M 328.5,336.5 C 328.767,344.222 328.434,351.889 327.5,359.5C 324.366,361.609 322.533,364.609 322,368.5C 320.333,370.833 318.667,373.167 317,375.5C 316.536,374.906 316.369,374.239 316.5,373.5C 315.997,368.828 315.831,364.161 316,359.5C 320.21,351.74 324.376,344.073 328.5,336.5 Z"/></g>
<g><path style="opacity:0.998" fill="#c7050e" d="M 327.5,359.5 C 327.992,361.819 328.992,363.819 330.5,365.5C 324.679,376.777 318.345,387.61 311.5,398C 312.094,398.464 312.761,398.631 313.5,398.5C 311.256,402.595 308.756,406.595 306,410.5C 305.241,412.063 304.074,413.063 302.5,413.5C 300.164,415.004 298.331,417.004 297,419.5C 295.738,414.213 295.404,408.88 296,403.5C 299.995,396.683 304.162,390.016 308.5,383.5C 311.577,380.431 314.244,377.097 316.5,373.5C 316.369,374.239 316.536,374.906 317,375.5C 318.667,373.167 320.333,370.833 322,368.5C 322.533,364.609 324.366,361.609 327.5,359.5 Z"/></g>
<g><path style="opacity:0.999" fill="#b80307" d="M 280.5,363.5 C 282.703,370.108 284.703,376.774 286.5,383.5C 286.411,386.709 286.744,389.875 287.5,393C 283.375,399.384 280.042,406.217 277.5,413.5C 272.311,416.931 268.311,421.431 265.5,427C 261.261,428.22 258.427,431.053 257,435.5C 256.259,436.641 255.425,436.641 254.5,435.5C 253.614,436.325 253.281,437.325 253.5,438.5C 254.791,438.263 255.791,438.596 256.5,439.5C 252.936,443.614 249.603,447.948 246.5,452.5C 245.475,452.103 245.308,451.437 246,450.5C 247.955,448.089 249.789,445.589 251.5,443C 249.587,436.862 247.587,430.695 245.5,424.5C 246.29,423.391 246.79,422.058 247,420.5C 249.089,422.503 251.589,423.67 254.5,424C 255.218,425.987 256.218,427.821 257.5,429.5C 259.757,426.526 261.257,423.192 262,419.5C 264.158,418.95 264.658,417.95 263.5,416.5C 263.5,415.833 263.5,415.167 263.5,414.5C 264.568,413.566 265.901,413.232 267.5,413.5C 267.662,411.176 268.828,409.509 271,408.5C 271.293,403.312 272.127,398.312 273.5,393.5C 271.007,393.329 269.174,394.329 268,396.5C 266.506,393.686 264.34,391.686 261.5,390.5C 260.833,389.167 260.167,389.167 259.5,390.5C 258.957,390.44 258.624,390.107 258.5,389.5C 259.167,388.5 259.833,387.5 260.5,386.5C 255.523,384.916 250.523,384.583 245.5,385.5C 244.207,383.364 244.207,381.364 245.5,379.5C 245.369,380.239 245.536,380.906 246,381.5C 249.429,380.348 251.762,378.014 253,374.5C 255.91,373.59 258.577,374.257 261,376.5C 261.923,375.241 262.757,373.908 263.5,372.5C 265.555,375.717 268.389,378.05 272,379.5C 274.034,374.398 275.867,369.231 277.5,364C 278.176,362.317 279.176,362.15 280.5,363.5 Z"/></g>
<g><path style="opacity:0.494" fill="#aa2e2e" d="M 168.5,403.5 C 163.487,394.14 158.487,384.806 153.5,375.5C 153.435,375.062 153.601,374.728 154,374.5C 159.807,383.278 164.974,392.444 169.5,402C 169.43,402.765 169.097,403.265 168.5,403.5 Z"/></g>
<g><path style="opacity:0.997" fill="#fff0ed" d="M 241.5,385.5 C 245.13,389.631 248.963,393.631 253,397.5C 255.372,395.297 257.539,392.963 259.5,390.5C 260.167,389.167 260.833,389.167 261.5,390.5C 259.528,393.084 258.528,396.084 258.5,399.5C 260.857,399.337 263.19,399.503 265.5,400C 259.576,404.122 258.909,408.956 263.5,414.5C 263.5,415.167 263.5,415.833 263.5,416.5C 260.5,413.833 257.5,411.167 254.5,408.5C 254.134,407.305 253.301,406.639 252,406.5C 249.845,407.579 247.845,408.913 246,410.5C 246.679,407.28 247.845,404.113 249.5,401C 248.326,397.809 246.326,395.309 243.5,393.5C 241.565,389.293 238.898,385.627 235.5,382.5C 234.542,381.038 233.376,379.705 232,378.5C 231.333,377.833 231.333,377.167 232,376.5C 235.036,379.704 238.203,382.704 241.5,385.5 Z"/></g>
<g><path style="opacity:0.999" fill="#940102" d="M 308.5,383.5 C 304.162,390.016 299.995,396.683 296,403.5C 295.404,408.88 295.738,414.213 297,419.5C 298.331,417.004 300.164,415.004 302.5,413.5C 301.005,417.998 298.339,421.665 294.5,424.5C 293.448,424.229 292.115,424.062 290.5,424C 291.196,422.512 290.862,421.012 289.5,419.5C 286.954,420.495 283.954,421.329 280.5,422C 277.197,425.155 273.53,427.655 269.5,429.5C 268.742,428.189 267.742,427.689 266.5,428C 263.031,431.812 259.698,435.645 256.5,439.5C 255.791,438.596 254.791,438.263 253.5,438.5C 253.281,437.325 253.614,436.325 254.5,435.5C 255.425,436.641 256.259,436.641 257,435.5C 258.427,431.053 261.261,428.22 265.5,427C 268.311,421.431 272.311,416.931 277.5,413.5C 280.042,406.217 283.375,399.384 287.5,393C 286.744,389.875 286.411,386.709 286.5,383.5C 287.256,386.423 288.59,389.089 290.5,391.5C 295.851,389.311 300.518,386.145 304.5,382C 306.193,381.516 307.527,382.016 308.5,383.5 Z"/></g>
<g><path style="opacity:0.995" fill="#850000" d="M 304.5,395.5 C 305.649,395.791 306.316,396.624 306.5,398C 306.348,401.523 304.682,403.689 301.5,404.5C 301.647,401.208 302.647,398.208 304.5,395.5 Z"/></g>
<g><path style="opacity:0.999" fill="#e92022" d="M 261.5,390.5 C 264.34,391.686 266.506,393.686 268,396.5C 269.174,394.329 271.007,393.329 273.5,393.5C 272.127,398.312 271.293,403.312 271,408.5C 268.828,409.509 267.662,411.176 267.5,413.5C 265.901,413.232 264.568,413.566 263.5,414.5C 258.909,408.956 259.576,404.122 265.5,400C 263.19,399.503 260.857,399.337 258.5,399.5C 258.528,396.084 259.528,393.084 261.5,390.5 Z"/></g>
<g><path style="opacity:1" fill="#f83133" d="M 243.5,393.5 C 246.326,395.309 248.326,397.809 249.5,401C 247.845,404.113 246.679,407.28 246,410.5C 247.845,408.913 249.845,407.579 252,406.5C 253.301,406.639 254.134,407.305 254.5,408.5C 255.203,410.716 256.536,412.549 258.5,414C 255.251,416.61 251.584,417.11 247.5,415.5C 245.353,413.183 242.686,411.85 239.5,411.5C 238.988,404.969 239.822,398.636 242,392.5C 242.383,393.056 242.883,393.389 243.5,393.5 Z"/></g>
<g><path style="opacity:0.999" fill="#8e0002" d="M 193.5,395.5 C 192.939,396.908 192.605,398.408 192.5,400C 193.654,407.794 196.321,414.961 200.5,421.5C 200.152,423.697 199.152,425.53 197.5,427C 198.784,427.684 199.951,427.517 201,426.5C 202.188,427.563 202.688,428.897 202.5,430.5C 201.448,430.649 200.448,430.483 199.5,430C 200.696,429.346 200.696,428.846 199.5,428.5C 198.522,428.977 197.689,429.643 197,430.5C 196.817,433.365 196.317,436.031 195.5,438.5C 192.043,437.606 189.043,435.94 186.5,433.5C 182.714,423.262 178.381,413.262 173.5,403.5C 171.621,398.739 169.454,394.073 167,389.5C 166.506,387.866 166.34,386.199 166.5,384.5C 166.472,382.418 167.139,380.584 168.5,379C 167.075,377.286 167.408,375.953 169.5,375C 168.446,373.612 168.28,372.112 169,370.5C 170.916,375.715 174.082,376.715 178.5,373.5C 177.833,372.5 177.167,371.5 176.5,370.5C 176.721,367.274 177.554,363.941 179,360.5C 183.882,363.932 186.382,368.599 186.5,374.5C 185.5,374.5 184.5,374.5 183.5,374.5C 183.351,375.552 183.517,376.552 184,377.5C 188.524,382.886 191.691,388.886 193.5,395.5 Z"/></g>
<g><path style="opacity:0.973" fill="#ee324e" d="M 173.5,403.5 C 178.381,413.262 182.714,423.262 186.5,433.5C 186.5,433.833 186.5,434.167 186.5,434.5C 181.835,425.17 177.168,415.836 172.5,406.5C 172.263,405.209 172.596,404.209 173.5,403.5 Z"/></g>
<g><path style="opacity:0.999" fill="#d20c0e" d="M 235.5,382.5 C 238.898,385.627 241.565,389.293 243.5,393.5C 242.883,393.389 242.383,393.056 242,392.5C 239.822,398.636 238.988,404.969 239.5,411.5C 242.686,411.85 245.353,413.183 247.5,415.5C 251.584,417.11 255.251,416.61 258.5,414C 256.536,412.549 255.203,410.716 254.5,408.5C 257.5,411.167 260.5,413.833 263.5,416.5C 264.658,417.95 264.158,418.95 262,419.5C 261.257,423.192 259.757,426.526 257.5,429.5C 256.218,427.821 255.218,425.987 254.5,424C 251.589,423.67 249.089,422.503 247,420.5C 246.79,422.058 246.29,423.391 245.5,424.5C 244.513,421.854 243.513,419.188 242.5,416.5C 241.675,415.614 240.675,415.281 239.5,415.5C 237.032,427.016 235.365,438.683 234.5,450.5C 230.281,452.93 226.947,456.263 224.5,460.5C 223.322,457.879 223.155,454.879 224,451.5C 222.23,452.276 220.397,452.11 218.5,451C 220.434,448.729 220.434,446.729 218.5,445C 220.336,443.149 221.17,440.983 221,438.5C 219.185,440.405 217.185,442.072 215,443.5C 214.383,442.551 214.549,441.718 215.5,441C 212.197,437.94 210.531,434.107 210.5,429.5C 211.833,429.5 213.167,429.5 214.5,429.5C 214.337,431.857 214.503,434.19 215,436.5C 217.057,433.972 218.057,430.972 218,427.5C 219.099,430.044 220.265,430.044 221.5,427.5C 220.313,426.481 219.313,425.314 218.5,424C 220.736,423.42 223.07,422.253 225.5,420.5C 226,419.5 226.5,418.5 227,417.5C 226.611,414.268 226.778,411.102 227.5,408C 226.833,407.667 226.167,407.333 225.5,407C 226.167,404.667 226.833,402.333 227.5,400C 227.043,399.586 226.709,399.086 226.5,398.5C 228.679,392.667 231.679,387.334 235.5,382.5 Z"/></g>
<g><path style="opacity:0.998" fill="#8f0201" d="M 281.5,448.5 C 280.2,451.432 278.2,453.766 275.5,455.5C 274.167,455.5 272.833,455.5 271.5,455.5C 270.659,451.134 269.659,446.801 268.5,442.5C 274.228,436.942 279.394,430.942 284,424.5C 284.21,425.803 284.043,427.136 283.5,428.5C 283.818,429.647 284.484,430.481 285.5,431C 284.7,435.08 284.2,439.247 284,443.5C 282.117,444.653 281.284,446.319 281.5,448.5 Z"/></g>
<g><path style="opacity:0.999" fill="#8d0002" d="M 245.5,424.5 C 247.587,430.695 249.587,436.862 251.5,443C 249.789,445.589 247.955,448.089 246,450.5C 245.308,451.437 245.475,452.103 246.5,452.5C 245.432,453.434 244.099,453.768 242.5,453.5C 239.868,452.249 237.201,451.249 234.5,450.5C 235.365,438.683 237.032,427.016 239.5,415.5C 240.675,415.281 241.675,415.614 242.5,416.5C 243.513,419.188 244.513,421.854 245.5,424.5 Z"/></g>
<g><path style="opacity:0.998" fill="#7d0301" d="M 294.5,424.5 C 292.539,426.963 290.372,429.297 288,431.5C 286.898,435.416 286.231,439.416 286,443.5C 284.807,445.497 283.307,447.164 281.5,448.5C 281.284,446.319 282.117,444.653 284,443.5C 284.2,439.247 284.7,435.08 285.5,431C 284.484,430.481 283.818,429.647 283.5,428.5C 284.043,427.136 284.21,425.803 284,424.5C 279.394,430.942 274.228,436.942 268.5,442.5C 269.659,446.801 270.659,451.134 271.5,455.5C 272.833,455.5 274.167,455.5 275.5,455.5C 263.483,468.692 251.15,481.859 238.5,495C 237.255,495.791 235.922,496.291 234.5,496.5C 233.71,495.206 232.71,494.039 231.5,493C 232.5,492.5 233.5,492 234.5,491.5C 235.314,489.234 235.814,486.9 236,484.5C 239.941,476.939 243.774,468.939 247.5,460.5C 246.61,459.045 246.61,457.711 247.5,456.5C 245.456,455.935 243.79,454.935 242.5,453.5C 244.099,453.768 245.432,453.434 246.5,452.5C 249.603,447.948 252.936,443.614 256.5,439.5C 259.698,435.645 263.031,431.812 266.5,428C 267.742,427.689 268.742,428.189 269.5,429.5C 273.53,427.655 277.197,425.155 280.5,422C 283.954,421.329 286.954,420.495 289.5,419.5C 290.862,421.012 291.196,422.512 290.5,424C 292.115,424.062 293.448,424.229 294.5,424.5 Z"/></g>
<g><path style="opacity:0.996" fill="#e21429" d="M 186.5,433.5 C 189.043,435.94 192.043,437.606 195.5,438.5C 198.355,440.506 200.521,443.172 202,446.5C 203.962,452.422 206.462,458.089 209.5,463.5C 210.314,461.234 210.814,458.9 211,456.5C 214.161,459.489 215.661,463.156 215.5,467.5C 213.379,467.675 211.379,467.341 209.5,466.5C 205.108,460.066 200.941,453.399 197,446.5C 192.918,442.924 189.418,438.924 186.5,434.5C 186.5,434.167 186.5,433.833 186.5,433.5 Z"/></g>
<g><path style="opacity:0.999" fill="#660000" d="M 234.5,450.5 C 237.201,451.249 239.868,452.249 242.5,453.5C 243.79,454.935 245.456,455.935 247.5,456.5C 246.61,457.711 246.61,459.045 247.5,460.5C 243.774,468.939 239.941,476.939 236,484.5C 235.814,486.9 235.314,489.234 234.5,491.5C 233.5,492 232.5,492.5 231.5,493C 232.71,494.039 233.71,495.206 234.5,496.5C 231.282,495.308 228.115,493.975 225,492.5C 220.787,484.133 215.62,476.466 209.5,469.5C 211.017,469.511 212.184,470.177 213,471.5C 213.333,470.833 213.667,470.167 214,469.5C 214.216,471.384 214.883,473.051 216,474.5C 216.498,471.518 216.665,468.518 216.5,465.5C 220.175,465.5 222.841,463.833 224.5,460.5C 226.947,456.263 230.281,452.93 234.5,450.5 Z"/></g>
<g><path style="opacity:0.051" fill="#a03230" d="M 169.5,404.5 C 170.778,404.782 171.778,405.449 172.5,406.5C 177.168,415.836 181.835,425.17 186.5,434.5C 189.418,438.924 192.918,442.924 197,446.5C 200.941,453.399 205.108,460.066 209.5,466.5C 209.672,467.492 209.338,468.158 208.5,468.5C 204.759,462.692 201.259,456.692 198,450.5C 193.667,445.5 189.333,440.5 185,435.5C 179.173,425.027 174.006,414.694 169.5,404.5 Z"/></g>
</svg>
