<svg width="80" height="80" viewBox="0 0 80 80" fill="none" xmlns="http://www.w3.org/2000/svg">
<path d="M71.8329 17.9592C71.8327 17.5344 71.6709 17.1169 71.3588 16.8047L55.0322 0.478204C54.7201 0.166041 54.3024 0.0042449 53.8778 0.00408163V0H9.79598C8.89427 0 8.16333 0.730939 8.16333 1.63265V78.3673C8.16333 79.2691 8.89427 80 9.79598 80H70.2041C71.1057 80 71.8368 79.2691 71.8368 78.3673V17.9592H71.8329ZM55.5103 5.5742L66.2624 16.3265H55.5103V5.5742ZM68.5715 76.7347H11.4286V3.26531H52.245V17.9592C52.245 18.8609 52.9761 19.5918 53.8776 19.5918H68.5715V76.7347Z" fill="white"/>
<path d="M61.9507 55.4276C60.7005 53.4071 58.5262 52.248 55.9858 52.248C54.7595 52.248 53.5045 52.5158 52.245 53.0451C50.9856 52.5158 49.7306 52.248 48.5043 52.248C45.9639 52.248 43.79 53.4071 42.5397 55.4278C41.2277 57.5485 41.1453 60.2742 42.2865 63.0038C41.1449 65.7284 41.2269 68.4516 42.5383 70.5734C43.7898 72.5984 45.9665 73.7597 48.51 73.7596C49.7347 73.7596 50.988 73.4923 52.245 72.9641C53.5022 73.4923 54.7552 73.7596 55.9796 73.7596H55.9802C58.5237 73.7594 60.7004 72.5978 61.9518 70.5726C63.263 68.4508 63.3449 65.728 62.2036 63.004C63.3451 60.2737 63.2627 57.5481 61.9507 55.4276ZM59.1742 68.856C58.5214 69.9122 57.3871 70.4941 55.9801 70.4943C55.0303 70.4943 54.0192 70.2296 52.9753 69.7076C52.7456 69.5927 52.4953 69.5352 52.2452 69.5352C51.9951 69.5352 51.7448 69.5927 51.5151 69.7076C50.4713 70.2294 49.4602 70.4941 48.51 70.4943C47.103 70.4943 45.9686 69.9127 45.3159 68.8567C44.4958 67.5297 44.5781 65.6627 45.5422 63.7347C45.7717 63.2756 45.7719 62.7352 45.543 62.276C44.5784 60.3419 44.496 58.4722 45.3165 57.1458C45.9678 56.0931 47.1001 55.5134 48.5043 55.5134C49.456 55.5134 50.4689 55.7787 51.5149 56.3016C51.9745 56.5313 52.5156 56.5313 52.975 56.3016C54.021 55.7785 55.0339 55.5134 55.9856 55.5134C57.3902 55.5134 58.5224 56.0931 59.1737 57.1457C59.9943 58.4719 59.9116 60.3418 58.9469 62.276C58.7182 62.7352 58.7183 63.2756 58.948 63.7347C59.9118 65.6622 59.9943 67.5289 59.1742 68.856Z" fill="white"/>
<path d="M53.8776 58.9219H50.6123V62.1872H53.8776V58.9219Z" fill="white"/>
<path d="M55.5103 63.8203H48.9797V67.0856H55.5103V63.8203Z" fill="white"/>
<path d="M35.1021 64.4902H15.5103V67.7555H35.1021V64.4902Z" fill="white"/>
<path d="M35.1022 70.2031H31.8369V73.4684H35.1022V70.2031Z" fill="white"/>
<path d="M30.204 70.2031H26.9387V73.4684H30.204V70.2031Z" fill="white"/>
<path d="M18.7756 70.2031H15.5103V73.4684H18.7756V70.2031Z" fill="white"/>
<path d="M25.3062 6.53125H15.5103V9.79656H25.3062V6.53125Z" fill="white"/>
<path d="M35.1021 11.4277H15.5103V14.693H35.1021V11.4277Z" fill="white"/>
<path d="M53.0612 24.4902H26.9387V27.7555H53.0612V24.4902Z" fill="white"/>
<path d="M64.4898 31.0195H15.5103V34.2848H64.4898V31.0195Z" fill="white"/>
<path d="M64.4898 37.5508H15.5103V40.8161H64.4898V37.5508Z" fill="white"/>
<path d="M54.6939 44.082H15.5103V47.3473H54.6939V44.082Z" fill="white"/>
<path d="M64.4899 44.082H61.2246V47.3473H64.4899V44.082Z" fill="white"/>
<path d="M59.592 44.082H56.3267V47.3473H59.592V44.082Z" fill="white"/>
</svg>
