<svg width="73" height="70" viewBox="0 0 73 70" fill="none" xmlns="http://www.w3.org/2000/svg">
<path d="M36.5006 17.4987H27.3756C26.5689 17.4987 25.7953 17.806 25.2249 18.353C24.6544 18.9 24.334 19.6418 24.334 20.4154V49.582C24.334 50.3556 24.6544 51.0974 25.2249 51.6444C25.7953 52.1914 26.5689 52.4987 27.3756 52.4987C28.1824 52.4987 28.956 52.1914 29.5264 51.6444C30.0969 51.0974 30.4173 50.3556 30.4173 49.582V40.832H36.5006C39.7275 40.832 42.8221 39.6029 45.1038 37.4149C47.3855 35.227 48.6673 32.2596 48.6673 29.1654C48.6673 26.0712 47.3855 23.1037 45.1038 20.9158C42.8221 18.7279 39.7275 17.4987 36.5006 17.4987ZM36.5006 34.9987H30.4173V23.332H36.5006C38.114 23.332 39.6614 23.9466 40.8022 25.0406C41.9431 26.1345 42.584 27.6183 42.584 29.1654C42.584 30.7125 41.9431 32.1962 40.8022 33.2902C39.6614 34.3841 38.114 34.9987 36.5006 34.9987ZM57.7923 5.83203H15.209C12.7889 5.83203 10.4679 6.7539 8.75664 8.39485C7.04537 10.0358 6.08398 12.2614 6.08398 14.582V55.4154C6.08398 57.736 7.04537 59.9616 8.75664 61.6025C10.4679 63.2435 12.7889 64.1654 15.209 64.1654H57.7923C60.2124 64.1654 62.5334 63.2435 64.2447 61.6025C65.9559 59.9616 66.9173 57.736 66.9173 55.4154V14.582C66.9173 12.2614 65.9559 10.0358 64.2447 8.39485C62.5334 6.7539 60.2124 5.83203 57.7923 5.83203ZM60.834 55.4154C60.834 56.1889 60.5135 56.9308 59.9431 57.4778C59.3727 58.0247 58.599 58.332 57.7923 58.332H15.209C14.4023 58.332 13.6286 58.0247 13.0582 57.4778C12.4878 56.9308 12.1673 56.1889 12.1673 55.4154V14.582C12.1673 13.8085 12.4878 13.0666 13.0582 12.5196C13.6286 11.9727 14.4023 11.6654 15.209 11.6654H57.7923C58.599 11.6654 59.3727 11.9727 59.9431 12.5196C60.5135 13.0666 60.834 13.8085 60.834 14.582V55.4154Z" fill="white"/>
</svg>
