<svg width="48" height="35" viewBox="0 0 48 35" fill="none" xmlns="http://www.w3.org/2000/svg">
<path d="M40.9675 34.7321H7.03246C3.15476 34.7321 0 31.5773 0 27.6996V7.63365C0 3.75596 3.15476 0.601196 7.03246 0.601196H40.9675C44.8452 0.601196 48 3.75596 48 7.63365V27.6997C48 31.5774 44.8453 34.7321 40.9675 34.7321Z" fill="#00347B"/>
<path d="M40.9675 0.601196H24V34.7321H40.9675C44.8452 34.7321 48 31.5773 48 27.6996V7.63365C48 3.75596 44.8453 0.601196 40.9675 0.601196Z" fill="#001737"/>
<path d="M19.5371 18.157C18.824 17.8488 17.9961 18.1774 17.6883 18.8904L15.3694 24.258L13.0505 18.8904C12.7425 18.1774 11.9152 17.8491 11.2015 18.157C10.4885 18.4651 10.1601 19.2929 10.4683 20.006C10.4683 20.006 14.0302 28.2509 14.0331 28.2574C14.5164 29.3762 16.2232 29.375 16.7059 28.2574L20.2706 20.006C20.5787 19.2929 20.2503 18.4651 19.5371 18.157Z" fill="#FFD321"/>
<path d="M24.0002 29.1059C23.2235 29.1059 22.5938 28.4762 22.5938 27.6994V19.5422C22.5938 18.7655 23.2235 18.1357 24.0002 18.1357C24.777 18.1357 25.4067 18.7655 25.4067 19.5422V27.6994C25.4067 28.4762 24.777 29.1059 24.0002 29.1059Z" fill="#FFD321"/>
<path d="M32.4351 18.1355H29.6218C28.8451 18.1355 28.2153 18.7652 28.2153 19.542C28.2153 19.5706 28.2179 27.6995 28.2179 27.6995C28.2179 28.4762 28.8476 29.1059 29.6244 29.1059C30.4011 29.1059 31.0308 28.4762 31.0308 27.6995V26.5744H32.4351C34.7617 26.5744 36.6546 24.6816 36.6546 22.355C36.6546 20.0284 34.7618 18.1355 32.4351 18.1355ZM32.4351 23.7615H31.0308V20.9485H32.4351C33.2106 20.9485 33.8416 21.5794 33.8416 22.355C33.8416 23.1305 33.2107 23.7615 32.4351 23.7615Z" fill="#FF9D21"/>
<path d="M30.1017 15.3225H17.8982C17.1214 15.3225 16.4917 14.6927 16.4917 13.916V7.63364C16.4917 7.14409 16.7463 6.68979 17.1638 6.43409C17.5813 6.17858 18.1017 6.15842 18.5378 6.38102L21.2783 7.7802L23.2009 6.45275C23.6818 6.12073 24.3182 6.12073 24.7991 6.45275L26.7217 7.7802L29.4622 6.38102C29.8984 6.15842 30.4188 6.17858 30.8361 6.43409C31.2537 6.68979 31.5082 7.14409 31.5082 7.63364V13.916C31.5082 14.6927 30.8784 15.3225 30.1017 15.3225Z" fill="#FFD321"/>
<path fill-rule="evenodd" clip-rule="evenodd" d="M10.9666 12.1813C11.7412 12.1813 12.373 11.5495 12.373 10.7748C12.373 10.0001 11.7412 9.36829 10.9666 9.36829C10.1919 9.36829 9.56006 10.0001 9.56006 10.7748C9.56006 11.5495 10.1919 12.1813 10.9666 12.1813Z" fill="#FFD321"/>
<path fill-rule="evenodd" clip-rule="evenodd" d="M37.0334 12.1813C37.8081 12.1813 38.4399 11.5495 38.4399 10.7748C38.4399 10.0001 37.8081 9.36829 37.0334 9.36829C36.2587 9.36829 35.627 10.0001 35.627 10.7748C35.627 11.5495 36.2588 12.1813 37.0334 12.1813Z" fill="#FF9D21"/>
<path d="M24 18.1356V29.1058C24.7768 29.1058 25.4065 28.4761 25.4065 27.6993V19.5421C25.4065 18.7654 24.7768 18.1356 24 18.1356Z" fill="#FF9D21"/>
<path d="M30.8361 6.43412C30.4188 6.17851 29.8984 6.15845 29.4622 6.38105L26.7217 7.78023L24.7991 6.45278C24.5587 6.28672 24.2793 6.20374 24 6.20374V15.3225H30.1017C30.8785 15.3225 31.5082 14.6928 31.5082 13.916V7.63367C31.5082 7.14412 31.2537 6.68982 30.8361 6.43412Z" fill="#FF9D21"/>
</svg>
