<svg width="58" height="57" viewBox="0 0 58 57" fill="none" xmlns="http://www.w3.org/2000/svg">
<path fill-rule="evenodd" clip-rule="evenodd" d="M3.625 46.3129C3.625 48.2794 5.249 49.8754 7.25 49.8754H50.75C52.751 49.8754 54.375 48.2794 54.375 46.3129V21.3754C54.375 19.4089 52.751 17.8129 50.75 17.8129H7.25C5.249 17.8129 3.625 19.4089 3.625 21.3754V46.3129ZM7.25 14.2504H11.0563L30.1491 3.77664C31.0155 3.30282 32.1248 3.58602 32.625 4.40362C33.1252 5.22121 32.828 6.26687 31.9616 6.7389L18.1703 14.2504H50.75C54.7538 14.2504 58 17.4406 58 21.3754V46.3129C58 50.2477 54.7538 53.4379 50.75 53.4379H7.25C3.24619 53.4379 0 50.2477 0 46.3129V21.3754C0 17.4406 3.24619 14.2504 7.25 14.2504ZM19.9375 40.9691C23.9413 40.9691 27.1875 37.7789 27.1875 33.8441C27.1875 29.9094 23.9413 26.7191 19.9375 26.7191C15.9337 26.7191 12.6875 29.9094 12.6875 33.8441C12.6875 37.7789 15.9337 40.9691 19.9375 40.9691ZM19.9375 23.1566C25.9423 23.1566 30.8125 27.9429 30.8125 33.8441C30.8125 39.7472 25.9423 44.5316 19.9375 44.5316C13.9327 44.5316 9.0625 39.7472 9.0625 33.8441C9.0625 27.9429 13.9327 23.1566 19.9375 23.1566ZM38.0625 32.0629H48.9375C49.9398 32.0629 50.75 32.8591 50.75 33.8441C50.75 34.8292 49.9398 35.6254 48.9375 35.6254H38.0625C37.0602 35.6254 36.25 34.8292 36.25 33.8441C36.25 32.8591 37.0602 32.0629 38.0625 32.0629ZM38.0625 39.1879H48.9375C49.9398 39.1879 50.75 39.9859 50.75 40.9691C50.75 41.9542 49.9398 42.7504 48.9375 42.7504H38.0625C37.0602 42.7504 36.25 41.9542 36.25 40.9691C36.25 39.9859 37.0602 39.1879 38.0625 39.1879ZM38.0625 24.9379H48.9375C49.9398 24.9379 50.75 25.7341 50.75 26.7191C50.75 27.7042 49.9398 28.5004 48.9375 28.5004H38.0625C37.0602 28.5004 36.25 27.7042 36.25 26.7191C36.25 25.7341 37.0602 24.9379 38.0625 24.9379Z" fill="white"/>
</svg>
