<svg width="18" height="18" viewBox="0 0 18 18" fill="none" xmlns="http://www.w3.org/2000/svg">
<path d="M17.1526 9.00008C17.1526 13.5021 13.5021 17.1494 9.00012 17.1494C4.49811 17.1494 0.847656 13.5021 0.847656 9.00008C0.847656 4.49811 4.49811 0.847656 9.00012 0.847656C13.5021 0.847656 17.1526 4.49811 17.1526 9.00008Z" fill="#F9B938"/>
<path d="M17.1528 8.99744C17.1528 13.4991 13.504 17.148 9.00229 17.148C6.56975 17.148 4.38629 16.0841 2.89453 14.393C4.33059 15.6591 6.2151 16.4241 8.27839 16.4241C12.7801 16.4241 16.4289 12.7752 16.4289 8.27355C16.4289 6.21026 15.6611 4.32578 14.3891 2.88672C16.0831 4.37265 17.1528 6.55901 17.1528 8.99744Z" fill="#E5A320"/>
<g opacity="0.3">
<path d="M2.37059 5.90205C2.26211 5.84709 2.2189 5.71486 2.27385 5.60668C3.01341 4.14729 4.23038 2.94922 5.70064 2.23341C5.80997 2.1796 5.94163 2.22597 5.99429 2.33473C6.04752 2.44377 6.0023 2.57543 5.89297 2.62838C4.50857 3.30269 3.36259 4.43093 2.66596 5.80531C2.61148 5.91305 2.47964 5.95706 2.37059 5.90205Z" fill="white"/>
</g>
<g opacity="0.3">
<path d="M7.08801 1.94492C7.05997 1.82672 7.13324 1.70823 7.25115 1.68047C7.63296 1.59031 8.02621 1.52963 8.42003 1.50015C8.54082 1.49586 8.64671 1.58201 8.65559 1.70308C8.66446 1.82414 8.57373 1.92947 8.45266 1.93863C8.08173 1.96639 7.71167 2.02335 7.35247 2.10806C7.23165 2.13626 7.11532 2.06106 7.08801 1.94492Z" fill="white"/>
</g>
<path d="M15.75 9.00305C15.75 10.1133 15.4816 11.1595 15.0027 12.0837C13.8833 14.2585 11.614 15.75 9.00004 15.75C6.38908 15.75 4.11673 14.2585 2.99727 12.0837C2.51845 11.1595 2.25 10.1133 2.25 9.00305C2.25 5.27882 5.27882 2.25 9.00004 2.25C12.7243 2.25 15.75 5.27882 15.75 9.00305Z" fill="#272727"/>
<path d="M6.49533 10.4451C9.59976 10.0434 11.9586 11.8143 12.75 12.75C9.4271 10.9791 5.86546 12.006 4.5 12.7409C4.6339 5.97129 10.0529 4.42799 12.7456 4.50253C11.1634 6.53633 12.0864 10.4101 12.7456 12.0928C10.9168 9.97133 8.21609 9.82436 7.09437 10.0161C8.39111 9.00464 9.96623 9.0591 10.5917 9.21277C10.3309 7.65729 10.6357 6.20649 10.8207 5.67553C7.92421 6.5555 6.73025 9.22189 6.49533 10.4451Z" fill="#FBCE73"/>
<mask id="mask0_1273_4731" style="mask-type:alpha" maskUnits="userSpaceOnUse" x="4" y="4" width="9" height="9">
<path d="M6.49533 10.4451C9.59976 10.0434 11.9586 11.8143 12.75 12.75C9.4271 10.9791 5.86546 12.006 4.5 12.7409C4.6339 5.97129 10.0529 4.42799 12.7456 4.50253C11.1634 6.53633 12.0864 10.4101 12.7456 12.0928C10.9168 9.97133 8.21609 9.82436 7.09437 10.0161C8.39111 9.00464 9.96623 9.0591 10.5917 9.21277C10.3309 7.65729 10.6357 6.20649 10.8207 5.67553C7.92421 6.5555 6.73025 9.22189 6.49533 10.4451Z" fill="#F9B938"/>
</mask>
<g mask="url(#mask0_1273_4731)">
<path d="M12.75 4.5C4.875 5.625 4.875 11.25 4.5 12.7498H13.9572L12.75 4.5Z" fill="#F9B938"/>
</g>
</svg>
