<svg width="111" height="64" viewBox="0 0 111 64" fill="none" xmlns="http://www.w3.org/2000/svg">
<path d="M62.7242 2L39.8177 24.9065C39.504 25.2227 39.1309 25.4737 38.7198 25.6449C38.3087 25.8162 37.8678 25.9044 37.4224 25.9044C36.9771 25.9044 36.5361 25.8162 36.125 25.6449C35.7139 25.4737 35.3408 25.2227 35.0272 24.9065L26.3234 16.2027C26.0098 15.8865 25.6367 15.6355 25.2256 15.4643C24.8145 15.293 24.3735 15.2048 23.9282 15.2048C23.4828 15.2048 23.0419 15.293 22.6308 15.4643C22.2197 15.6355 21.8466 15.8865 21.5329 16.2027L2 35.7356" stroke="white" stroke-width="3" stroke-linecap="round" stroke-linejoin="round"/>
<path d="M62.7242 15.4943V2H49.2299" stroke="white" stroke-width="3" stroke-linecap="round" stroke-linejoin="round"/>
<path d="M60.7069 33.3706L67.6278 24.0363H72.4902L69.083 41.6047H63.9367L65.3918 34.0095H65.2499L61.3813 39.3687H57.9031L56.0575 34.0805H55.951L54.4959 41.6047H49.3851L52.7923 24.0363H57.2642L60.494 33.3706H60.7069Z" fill="white"/>
<path d="M89.2232 35.3937C88.8446 37.3339 88.0165 38.8955 86.7388 40.0786C85.4847 41.238 83.6865 41.8177 81.344 41.8177C80.2319 41.8177 79.2027 41.6875 78.2562 41.4273C77.3334 41.167 76.529 40.7766 75.8428 40.256C75.1566 39.7355 74.6124 39.073 74.2102 38.2685C73.8316 37.464 73.6423 36.5057 73.6423 35.3937C73.6423 35.1334 73.6541 34.8731 73.6778 34.6128C73.7015 34.3526 73.7369 34.0805 73.7843 33.7965L74.4231 30.2829C74.8254 28.0587 75.7718 26.4261 77.2625 25.385C78.7531 24.3439 80.575 23.8234 82.7282 23.8234C83.7929 23.8234 84.7749 23.9771 85.674 24.2847C86.5731 24.5687 87.3421 24.9946 87.981 25.5624C88.6435 26.1067 89.1522 26.7692 89.5071 27.55C89.862 28.3308 90.0395 29.2063 90.0395 30.1764C90.0395 30.413 90.0277 30.6614 90.004 30.9217C89.9803 31.182 89.9448 31.4422 89.8975 31.7025L89.2232 35.3937ZM84.7157 31.6315C84.7394 31.5132 84.7512 31.3949 84.7512 31.2766C84.7749 31.1583 84.7867 31.04 84.7867 30.9217C84.7867 30.0936 84.5383 29.5139 84.0414 29.1826C83.5445 28.8277 83.0121 28.6502 82.4443 28.6502C81.7817 28.6502 81.1665 28.8395 80.5987 29.2181C80.0308 29.5967 79.6641 30.2474 79.4984 31.1701L79.0016 34.1869C78.9779 34.3053 78.9661 34.4117 78.9661 34.5064C78.9661 34.601 78.9661 34.6957 78.9661 34.7903C78.9661 35.6184 79.2263 36.1863 79.7469 36.4939C80.2674 36.8015 80.8116 36.9553 81.3795 36.9553C82.2076 36.9553 82.8347 36.7424 83.2606 36.3165C83.7101 35.8905 84.0177 35.2635 84.1833 34.4354L84.7157 31.6315Z" fill="white"/>
<path d="M99.7756 24.0718L97.6816 34.7548C97.6579 34.8731 97.6343 34.9796 97.6106 35.0742C97.6106 35.1452 97.6106 35.228 97.6106 35.3227C97.6106 35.9142 97.7881 36.3283 98.143 36.5649C98.4979 36.7778 98.841 36.8843 99.1722 36.8843C99.4089 36.8843 99.6455 36.8725 99.8821 36.8488C100.142 36.8015 100.414 36.7305 100.698 36.6359C101.006 36.5412 101.337 36.4111 101.692 36.2455C102.071 36.0562 102.497 35.8314 102.97 35.5711L105.206 24.0718H110.459L107.051 41.6047H102.154L102.047 40.2205C101.385 40.5991 100.769 40.8949 100.201 41.1078C99.6573 41.3208 99.1486 41.4864 98.6754 41.6047C98.2258 41.6994 97.8117 41.7585 97.4331 41.7822C97.0782 41.8295 96.7588 41.8532 96.4749 41.8532C95.6704 41.8532 94.9842 41.7467 94.4163 41.5337C93.8721 41.2971 93.4226 40.9895 93.0677 40.611C92.7127 40.2087 92.4525 39.7355 92.2868 39.1913C92.1449 38.6471 92.0739 38.0437 92.0739 37.3812C92.0739 37.0263 92.0975 36.6595 92.1449 36.281C92.1922 35.9024 92.2513 35.512 92.3223 35.1097L94.4873 24.0718H99.7756ZM103.005 21.6229C101.988 21.6229 101.148 21.4336 100.485 21.055C99.8466 20.6528 99.3497 20.1677 98.9948 19.5998C98.6399 19.0083 98.4032 18.3813 98.2849 17.7188C98.1903 17.0563 98.1666 16.4529 98.214 15.9087H101.763C101.716 16.1453 101.704 16.4056 101.728 16.6895C101.751 16.9498 101.822 17.2101 101.941 17.4703C102.059 17.7069 102.225 17.9081 102.437 18.0737C102.674 18.2393 102.958 18.3221 103.289 18.3221C103.621 18.3221 103.928 18.2393 104.212 18.0737C104.496 17.9081 104.744 17.7069 104.957 17.4703C105.17 17.2101 105.336 16.9498 105.454 16.6895C105.596 16.4056 105.691 16.1453 105.738 15.9087H109.287C109.169 16.5239 108.956 17.1746 108.649 17.8607C108.365 18.5233 107.974 19.1384 107.477 19.7063C106.98 20.2505 106.365 20.7119 105.632 21.0905C104.898 21.4454 104.023 21.6229 103.005 21.6229Z" fill="white"/>
<path d="M17.6851 63.9645C16.715 63.9645 15.8159 63.8462 14.9877 63.6096C14.1596 63.373 13.4498 63.0181 12.8582 62.5449C12.2667 62.0716 11.8053 61.4919 11.4741 60.8058C11.1428 60.0959 10.9772 59.2678 10.9772 58.3213C10.9772 58.1084 10.989 57.8954 11.0127 57.6825C11.0363 57.4459 11.0718 57.2093 11.1191 56.9727C11.4267 55.2927 11.687 53.8967 11.9 52.7846C12.1366 51.6489 12.3377 50.6788 12.5033 49.8743C12.6689 49.0462 12.8227 48.3245 12.9647 47.7093C13.1067 47.0941 13.2486 46.4671 13.3906 45.8282C13.6272 44.7635 13.9466 43.8052 14.3489 42.9534C14.7748 42.0779 15.3072 41.3208 15.946 40.6819C16.5849 40.0431 17.3657 39.5225 18.2885 39.1203C19.2113 38.6944 20.2997 38.3986 21.5537 38.233C22.4292 38.1147 23.2573 38.0319 24.0381 37.9846C24.8426 37.9136 25.6234 37.8189 26.3806 37.7006L26.7 40.398C25.6353 40.54 24.7243 40.6464 23.9672 40.7174C23.21 40.7647 22.5002 40.8476 21.8377 40.9659C20.205 41.2261 18.9392 41.8058 18.04 42.705C17.1646 43.5804 16.5494 44.9646 16.1945 46.8575L15.8041 48.6321C16.7978 48.1115 17.7324 47.733 18.6079 47.4964C19.4834 47.2361 20.2642 47.1059 20.9504 47.1059C22.7013 47.1059 24.0263 47.52 24.9254 48.3482C25.8246 49.1763 26.2741 50.4777 26.2741 52.2522C26.2741 52.3706 26.2623 52.5244 26.2386 52.7136C26.2386 52.9029 26.215 53.1987 26.1676 53.6009C26.1203 53.9795 26.0375 54.4882 25.9192 55.1271C25.8246 55.7659 25.6944 56.5822 25.5288 57.576C25.1739 59.6582 24.3457 61.2435 23.0444 62.3319C21.7667 63.4203 19.9802 63.9645 17.6851 63.9645ZM17.6851 61.1252C18.4896 61.1252 19.1758 61.0424 19.7436 60.8767C20.3115 60.6875 20.7847 60.4272 21.1633 60.0959C21.5419 59.741 21.8377 59.3033 22.0506 58.7827C22.2872 58.2622 22.4765 57.6588 22.6185 56.9727C22.7604 56.2628 22.8669 55.6713 22.9379 55.1981C23.0089 54.7248 23.0562 54.3463 23.0799 54.0623C23.1272 53.7547 23.1508 53.5181 23.1508 53.3525C23.1508 53.1869 23.1508 53.0449 23.1508 52.9266C23.1508 52.5243 23.1035 52.1458 23.0089 51.7909C22.9379 51.4359 22.7959 51.1283 22.583 50.8681C22.3937 50.5841 22.1216 50.3594 21.7667 50.1937C21.4354 50.0281 20.9977 49.9453 20.4535 49.9453C19.6963 49.9453 18.8563 50.1109 17.9336 50.4422C17.0344 50.7734 16.1235 51.1875 15.2007 51.6844C15.1534 51.8737 15.106 52.0748 15.0587 52.2877C15.0351 52.5007 14.9759 52.7965 14.8813 53.175C14.8103 53.5299 14.7156 54.0032 14.5973 54.5947C14.479 55.1626 14.3371 55.8961 14.1714 56.7952C14.1004 57.2211 14.065 57.6115 14.065 57.9664C14.065 59.0312 14.3489 59.8238 14.9168 60.3444C15.5083 60.8649 16.4311 61.1252 17.6851 61.1252Z" fill="white"/>
<path d="M39.095 63.7871L39.024 61.9415C38.2905 62.4147 37.628 62.7815 37.0364 63.0417C36.4449 63.302 35.9007 63.5031 35.4038 63.6451C34.9306 63.7871 34.4929 63.8699 34.0906 63.8935C33.712 63.9409 33.369 63.9645 33.0614 63.9645C31.5707 63.9645 30.3758 63.5623 29.4767 62.7578C28.6012 61.9297 28.1635 60.7703 28.1635 59.2796C28.1635 59.0193 28.1753 58.7591 28.199 58.4988C28.2463 58.2385 28.2936 57.9664 28.341 57.6825L30.6124 46.1832H33.6647L31.4997 57.2921C31.4524 57.5287 31.4169 57.7535 31.3932 57.9664C31.3696 58.1557 31.3578 58.345 31.3578 58.5343C31.3578 59.4097 31.5825 60.0368 32.0321 60.4154C32.5053 60.7939 33.1087 60.9832 33.8422 60.9832C34.552 60.9832 35.4275 60.7703 36.4686 60.3444C37.5333 59.9185 38.5981 59.3506 39.6628 58.6408L42.1118 46.1832H45.1286L41.7213 63.7871H39.095Z" fill="white"/>
<path d="M54.0716 46.1122C54.8761 46.1122 55.6333 46.2068 56.3431 46.3961C57.053 46.5854 57.6681 46.8693 58.1887 47.2479C58.7329 47.6265 59.1588 48.0997 59.4664 48.6676C59.774 49.2354 59.9278 49.898 59.9278 50.6551C59.9278 51.5779 59.6912 52.4297 59.218 53.2105C58.7447 53.9677 58.0112 54.5474 57.0175 54.9496C57.7746 55.3282 58.2833 55.7896 58.5436 56.3338C58.8275 56.878 58.9695 57.4459 58.9695 58.0374C58.9695 59.0075 58.7802 59.8593 58.4016 60.5928C58.0231 61.3263 57.5025 61.9415 56.84 62.4384C56.1775 62.9353 55.3848 63.3138 54.4621 63.5741C53.5629 63.8344 52.5692 63.9645 51.4807 63.9645C50.8656 63.9645 50.2385 63.9054 49.5997 63.7871C48.9845 63.6924 48.393 63.5623 47.8251 63.3967C47.2572 63.2074 46.7367 62.9826 46.2635 62.7223C45.7902 62.462 45.3998 62.1781 45.0922 61.8705L46.9733 59.812C47.4938 60.2379 48.1682 60.5928 48.9963 60.8767C49.8481 61.137 50.6999 61.2672 51.5517 61.2672C52.9241 61.2672 53.977 61.0187 54.7105 60.5218C55.4677 60.0013 55.8462 59.2323 55.8462 58.2149C55.8462 57.5287 55.5623 56.9963 54.9944 56.6177C54.4266 56.2392 53.7286 56.0499 52.9004 56.0499H50.203L50.7354 53.4945H53.4328C53.835 53.4945 54.2373 53.459 54.6395 53.388C55.0418 53.317 55.3967 53.1869 55.7043 52.9976C56.0355 52.8083 56.2958 52.5598 56.4851 52.2522C56.6744 51.921 56.769 51.5187 56.769 51.0455C56.769 50.312 56.4733 49.756 55.8817 49.3774C55.3139 48.9752 54.533 48.7741 53.5393 48.7741C52.8294 48.7741 52.1078 48.8687 51.3743 49.058C50.6408 49.2236 49.8008 49.5312 48.8544 49.9808L47.7896 47.6738C48.8307 47.1769 49.8363 46.7983 50.8064 46.5381C51.7765 46.2541 52.8649 46.1122 54.0716 46.1122Z" fill="white"/>
<path d="M72.5293 63.7871L73.9845 56.2983H65.7149L64.2597 63.7871H61.2074L64.6146 46.2186H67.6669L66.2473 53.53H74.5168L75.9365 46.2186H78.9888L75.5816 63.7871H72.5293Z" fill="white"/>
<path d="M89.0288 46.0057C90.8034 46.0057 92.2349 46.4316 93.3233 47.2834C94.4117 48.1352 94.9559 49.3064 94.9559 50.7971C94.9559 51.5306 94.8258 52.2641 94.5655 52.9976C94.3053 53.7074 93.7965 54.3463 93.0394 54.9141C92.3059 55.482 91.2766 55.9434 89.9516 56.2983C88.6266 56.6296 86.9111 56.7952 84.8053 56.7952C84.545 56.7952 84.2966 56.7952 84.06 56.7952C83.8233 56.7952 83.5631 56.7834 83.2791 56.7597C83.1608 57.2329 83.1017 57.6588 83.1017 58.0374C83.1017 58.9602 83.3974 59.7292 83.989 60.3444C84.6042 60.9359 85.5151 61.2317 86.7218 61.2317C87.408 61.2317 88.0942 61.1015 88.7804 60.8413C89.4665 60.581 90.0817 60.1551 90.6259 59.5635L92.6845 61.764C91.809 62.5685 90.8507 63.1482 89.8096 63.5031C88.7922 63.8344 87.7156 64 86.5799 64C84.5214 64 82.9361 63.4795 81.824 62.4384C80.7119 61.3973 80.1559 59.9894 80.1559 58.2149C80.1559 57.4104 80.2387 56.4639 80.4043 55.3755C80.5936 54.2871 80.842 53.2224 81.1496 52.1813C81.6938 50.2411 82.6166 48.7267 83.918 47.6383C85.243 46.5499 86.9466 46.0057 89.0288 46.0057ZM88.8513 48.7741C87.337 48.7741 86.1776 49.2473 85.3732 50.1937C84.5687 51.1402 84.0008 52.4415 83.6695 54.0978C83.9535 54.1215 84.2256 54.1333 84.4859 54.1333C84.7461 54.1333 85.0064 54.1333 85.2667 54.1333C86.6863 54.1333 87.8221 54.0387 88.6739 53.8494C89.5257 53.6601 90.1764 53.4235 90.6259 53.1395C91.0992 52.8319 91.4068 52.5007 91.5487 52.1458C91.7143 51.7909 91.7972 51.4478 91.7972 51.1165C91.7972 50.3594 91.5606 49.7797 91.0873 49.3774C90.6141 48.9752 89.8688 48.7741 88.8513 48.7741Z" fill="white"/>
<path d="M105.239 46.0057C106.256 46.0057 107.297 46.1713 108.362 46.5026C109.427 46.8338 110.279 47.4372 110.918 48.3127L109.001 50.4422C108.457 49.7797 107.83 49.3419 107.12 49.129C106.434 48.916 105.83 48.8095 105.31 48.8095C104.15 48.8095 103.157 49.1408 102.329 49.8033C101.5 50.4422 100.944 51.5069 100.66 52.9976L99.8796 56.9727C99.8086 57.3276 99.7731 57.6588 99.7731 57.9664C99.7731 58.5343 99.8796 59.0193 100.093 59.4216C100.305 59.8238 100.578 60.1551 100.909 60.4154C101.24 60.652 101.619 60.8294 102.045 60.9477C102.47 61.066 102.896 61.1252 103.322 61.1252C103.866 61.1252 104.505 61.0187 105.239 60.8058C105.996 60.5928 106.706 60.2142 107.368 59.67L109.107 61.977C108.208 62.7341 107.215 63.2547 106.126 63.5386C105.038 63.8226 103.985 63.9645 102.967 63.9645C102.163 63.9645 101.382 63.8581 100.625 63.6451C99.8914 63.4085 99.2289 63.0654 98.6374 62.6158C98.0695 62.1663 97.6081 61.5984 97.2532 60.9122C96.8983 60.2261 96.7208 59.4097 96.7208 58.4633C96.7208 57.9428 96.7681 57.4577 96.8628 57.0081L97.7501 52.2877C98.1286 50.2765 98.945 48.7267 100.199 47.6383C101.477 46.5499 103.157 46.0057 105.239 46.0057Z" fill="white"/>
</svg>
