<svg width="48" height="42" viewBox="0 0 48 42" fill="none" xmlns="http://www.w3.org/2000/svg">
<path d="M47.4092 13.0716L26.2126 40.3555C25.0878 41.8034 22.8998 41.803 21.7754 40.3547L0.594038 13.0696C-0.202529 12.0435 -0.191639 10.605 0.620363 9.59108L7.00864 1.61416C7.54175 0.948478 8.3484 0.561035 9.20124 0.561035H38.7876C39.6394 0.561035 40.4452 0.947533 40.9783 1.61182L47.3816 9.59001C48.1956 10.6042 48.207 12.0446 47.4092 13.0716Z" fill="#6CCDDE"/>
<path d="M23.9995 0.558838L12.9733 11.3107L7.98145 0.833135C8.3654 0.654845 8.77681 0.558838 9.20194 0.558838H23.9995Z" fill="#88D4E9"/>
<path d="M40.0039 0.833135L35.0394 11.3244L23.9995 0.558838H38.7833C39.2084 0.558838 39.6199 0.654845 40.0039 0.833135Z" fill="#88D4E9"/>
<path d="M35.0397 11.3244H12.9736V11.3107L23.9998 0.558838L35.0397 11.3244Z" fill="#50B7D3"/>
<path d="M23.3551 41.3585C22.7517 41.235 22.1895 40.8921 21.778 40.3574L0.589695 13.0662C0.191932 12.545 0 11.9416 0 11.3245H12.9735L23.3551 41.3585Z" fill="#50B7D3"/>
<path d="M47.9993 11.3245C47.9993 11.9416 47.8072 12.5588 47.4096 13.0662L26.2075 40.3574C25.7961 40.8921 25.2337 41.235 24.644 41.3585L35.0394 11.3245H47.9993Z" fill="#50B7D3"/>
<path opacity="0.1" d="M33.2292 31.3196L26.2076 40.3573C25.083 41.7973 22.9024 41.7973 21.7779 40.3573L0.589577 13.0661C-0.205866 12.0376 -0.192141 10.6113 0.616952 9.59641L7.00778 1.61485C7.54265 0.942793 8.35175 0.558838 9.20201 0.558838H17.5677C16.3608 3.93247 15.8945 7.71757 16.3471 11.6124C17.5402 21.6786 24.5893 29.4956 33.2292 31.3196Z" fill="black"/>
</svg>
