<svg width="28" height="28" viewBox="0 0 28 28" fill="none" xmlns="http://www.w3.org/2000/svg">
<path d="M16.6725 9.50901H22.9998V8.95175C22.9998 4.30434 19.4601 0.468851 14.9341 0V7.70833C15.7597 8.00097 16.4085 8.67031 16.6725 9.50901Z" fill="white" fill-opacity="0.5"/>
<path d="M16.8022 13.0283C16.8022 14.5731 15.5451 15.8302 14.0003 15.8302C12.4549 15.8302 11.1984 14.5731 11.1984 13.0283V11.2227H5V18.0998C5 23.0628 9.03722 27.1001 13.9997 27.1001C18.9628 27.1001 23 23.0628 23 18.0998V11.3783H16.8022V13.0283Z" fill="white" fill-opacity="0.5"/>
<path d="M14.0004 9.41797C13.4848 9.41797 13.0664 9.83701 13.0664 10.3519V13.0293C13.0664 13.5442 13.4848 13.9633 14.0004 13.9633C14.5153 13.9633 14.9343 13.5442 14.9343 13.0293V10.3519C14.9343 9.83701 14.5153 9.41797 14.0004 9.41797Z" fill="white" fill-opacity="0.5"/>
<path d="M13.0663 7.70895V0C12.9798 0.00871701 12.8933 0.0193023 12.8073 0.0305099C8.40648 0.615795 5 4.39337 5 8.95237V9.35397H11.3815C11.6741 8.58875 12.2924 7.98354 13.0663 7.70895Z" fill="white"/>
</svg>
