<?xml version="1.0" encoding="UTF-8"?>
<!DOCTYPE svg PUBLIC "-//W3C//DTD SVG 1.1//EN" "http://www.w3.org/Graphics/SVG/1.1/DTD/svg11.dtd">
<svg xmlns="http://www.w3.org/2000/svg" version="1.1" width="512px" height="512px" style="shape-rendering:geometricPrecision; text-rendering:geometricPrecision; image-rendering:optimizeQuality; fill-rule:evenodd; clip-rule:evenodd" xmlns:xlink="http://www.w3.org/1999/xlink">
<g><path style="opacity:1" fill="#ffab02" d="M 295.5,56.5 C 293.863,56.2949 292.196,56.7949 290.5,58C 291.428,58.3879 292.095,59.0546 292.5,60C 292.167,62.6676 292.167,65.501 292.5,68.5C 293.675,68.281 294.675,68.6143 295.5,69.5C 294.665,72.1404 294.498,74.8071 295,77.5C 293.312,72.2596 291.145,67.2596 288.5,62.5C 287.653,64.061 287.986,65.561 289.5,67C 287.519,67.6054 287.185,68.6054 288.5,70C 287,73.0114 286.166,72.5114 286,68.5C 284.684,69.9743 283.684,71.641 283,73.5C 282.692,72.6919 282.192,72.0253 281.5,71.5C 280.575,72.6405 279.741,72.6405 279,71.5C 278.02,73.2594 277.353,74.9261 277,76.5C 275.984,75.3659 275.317,75.6992 275,77.5C 274.692,76.6919 274.192,76.0253 273.5,75.5C 273.167,76.8333 272.833,78.1667 272.5,79.5C 271.28,80.7111 270.113,80.7111 269,79.5C 268.966,81.1796 268.799,82.6796 268.5,84C 269.26,85.4411 269.926,86.9411 270.5,88.5C 269.559,88.4895 268.892,88.9895 268.5,90C 269.022,90.9503 269.689,91.7836 270.5,92.5C 269.873,100.699 269.706,109.033 270,117.5C 270.671,118.252 271.504,118.586 272.5,118.5C 273.899,119.89 275.566,120.89 277.5,121.5C 283.022,124.839 288.689,128.006 294.5,131C 295.696,131.654 295.696,132.154 294.5,132.5C 287.042,128.868 279.709,125.035 272.5,121C 270.527,120.505 268.527,120.338 266.5,120.5C 266.5,117.167 266.5,113.833 266.5,110.5C 264.786,80.9297 262.786,51.4297 260.5,22C 261.5,21.6667 262.5,21.3333 263.5,21C 260.905,20.3996 258.571,20.8996 256.5,22.5C 258.317,19.4254 260.984,18.2587 264.5,19C 273.559,29.6341 282.725,40.1341 292,50.5C 293.421,52.4048 294.588,54.4048 295.5,56.5 Z"/></g>
<g><path style="opacity:1" fill="#ffe608" d="M 266.5,110.5 C 265.834,113.358 265.167,116.358 264.5,119.5C 261.204,122.296 257.537,124.463 253.5,126C 251.192,130.128 248.525,133.961 245.5,137.5C 245.856,134.436 245.023,131.769 243,129.5C 237.025,121.357 230.858,113.357 224.5,105.5C 223.675,104.614 222.675,104.281 221.5,104.5C 225.047,100.433 227.88,95.7664 230,90.5C 233.747,80.264 238.08,70.264 243,60.5C 243.49,59.2068 243.657,57.8734 243.5,56.5C 246.833,50.5 250.167,44.5 253.5,38.5C 252.42,40.0447 252.42,41.5447 253.5,43C 252.206,46.6711 250.539,50.1711 248.5,53.5C 249.167,54.1667 249.833,54.8333 250.5,55.5C 249.263,56.2807 248.263,57.2807 247.5,58.5C 248.025,59.1924 248.692,59.6924 249.5,60C 241.744,67.5759 236.244,77.7425 233,90.5C 231.142,92.7745 229.642,95.2745 228.5,98C 229.285,100.042 228.952,102.042 227.5,104C 229.449,106.424 231.616,107.924 234,108.5C 234.333,107.833 234.667,107.167 235,106.5C 236.117,107.949 236.784,109.616 237,111.5C 238.751,106.844 240.918,106.511 243.5,110.5C 244.105,109.413 243.772,108.246 242.5,107C 243.449,106.383 244.282,106.549 245,107.5C 245.605,105.519 246.605,105.185 248,106.5C 249.852,104.77 249.686,103.604 247.5,103C 248.126,102.25 248.626,101.416 249,100.5C 250.592,105.382 252.425,105.215 254.5,100C 254.167,99.6667 253.833,99.3333 253.5,99C 254.191,97.9326 254.691,96.7659 255,95.5C 255.718,96.4506 256.551,96.6172 257.5,96C 258.46,94.5806 259.293,93.0806 260,91.5C 260.654,92.6956 261.154,92.6956 261.5,91.5C 258.923,86.6558 258.923,81.4891 261.5,76C 261.227,73.8491 260.561,71.8491 259.5,70C 260.806,66.1979 260.806,62.3646 259.5,58.5C 260.639,55.6106 261.306,52.6106 261.5,49.5C 260.93,43.1285 260.096,36.7951 259,30.5C 257.748,32.0009 256.748,33.6675 256,35.5C 255.23,34.4019 254.397,34.4019 253.5,35.5C 252.115,36.5736 250.949,37.9069 250,39.5C 250.132,36.5606 250.465,33.5606 251,30.5C 251.925,29.9535 252.758,29.2868 253.5,28.5C 253.376,27.8933 253.043,27.56 252.5,27.5C 253.08,25.2512 254.413,23.5846 256.5,22.5C 258.571,20.8996 260.905,20.3996 263.5,21C 262.5,21.3333 261.5,21.6667 260.5,22C 262.786,51.4297 264.786,80.9297 266.5,110.5 Z"/></g>
<g><path style="opacity:1" fill="#ffdd00" d="M 253.5,38.5 C 253.5,37.5 253.5,36.5 253.5,35.5C 254.397,34.4019 255.23,34.4019 256,35.5C 256.748,33.6675 257.748,32.0009 259,30.5C 260.096,36.7951 260.93,43.1285 261.5,49.5C 261.306,52.6106 260.639,55.6106 259.5,58.5C 260.806,62.3646 260.806,66.1979 259.5,70C 260.561,71.8491 261.227,73.8491 261.5,76C 258.923,81.4891 258.923,86.6558 261.5,91.5C 261.154,92.6956 260.654,92.6956 260,91.5C 259.293,93.0806 258.46,94.5806 257.5,96C 256.551,96.6172 255.718,96.4506 255,95.5C 254.691,96.7659 254.191,97.9326 253.5,99C 253.833,99.3333 254.167,99.6667 254.5,100C 252.425,105.215 250.592,105.382 249,100.5C 248.626,101.416 248.126,102.25 247.5,103C 249.686,103.604 249.852,104.77 248,106.5C 246.605,105.185 245.605,105.519 245,107.5C 244.282,106.549 243.449,106.383 242.5,107C 243.772,108.246 244.105,109.413 243.5,110.5C 240.918,106.511 238.751,106.844 237,111.5C 236.784,109.616 236.117,107.949 235,106.5C 234.667,107.167 234.333,107.833 234,108.5C 231.616,107.924 229.449,106.424 227.5,104C 228.952,102.042 229.285,100.042 228.5,98C 229.642,95.2745 231.142,92.7745 233,90.5C 236.244,77.7425 241.744,67.5759 249.5,60C 248.692,59.6924 248.025,59.1924 247.5,58.5C 248.263,57.2807 249.263,56.2807 250.5,55.5C 249.833,54.8333 249.167,54.1667 248.5,53.5C 250.539,50.1711 252.206,46.6711 253.5,43C 252.42,41.5447 252.42,40.0447 253.5,38.5 Z"/></g>
<g><path style="opacity:1" fill="#ffa100" d="M 295.5,56.5 C 301.751,62.9239 307.917,69.5905 314,76.5C 317.138,79.7916 319.638,83.4582 321.5,87.5C 321.631,88.2389 321.464,88.9056 321,89.5C 319.471,88.2713 318.304,86.7713 317.5,85C 316.004,84.4926 314.837,84.9926 314,86.5C 313.667,86.1667 313.333,85.8333 313,85.5C 313.594,87.5095 313.427,89.5095 312.5,91.5C 313.167,92.1667 313.833,92.8333 314.5,93.5C 311.997,95.8028 311.33,98.4695 312.5,101.5C 311.817,104.461 310.984,104.795 310,102.5C 306.984,105.198 306.817,108.031 309.5,111C 309,111.167 308.5,111.333 308,111.5C 305.268,109.567 303.101,107.067 301.5,104C 301.957,103.586 302.291,103.086 302.5,102.5C 300.823,96.7965 298.99,91.1299 297,85.5C 296.009,86.4296 295.509,87.5962 295.5,89C 297.407,93.715 296.407,94.5484 292.5,91.5C 291.757,90.0921 290.923,88.7588 290,87.5C 287.922,89.4761 285.755,90.6427 283.5,91C 284.416,91.3742 285.25,91.8742 286,92.5C 287.133,90.7888 288.633,90.2888 290.5,91C 290.167,91.3333 289.833,91.6667 289.5,92C 291.158,92.7253 291.658,93.892 291,95.5C 288.72,95.5796 286.387,94.9129 284,93.5C 282.387,94.6223 281.22,94.1223 280.5,92C 282.657,90.9153 282.824,89.7487 281,88.5C 280.395,90.4812 279.395,90.8146 278,89.5C 277.316,90.7839 277.483,91.9505 278.5,93C 276.854,94.5548 276.521,96.2215 277.5,98C 277.167,98.1667 276.833,98.3333 276.5,98.5C 275.749,97.624 275.249,96.624 275,95.5C 274.5,96 274,96.5 273.5,97C 273.539,99.2969 273.872,101.63 274.5,104C 273.991,106.693 272.991,109.193 271.5,111.5C 272.902,112.842 272.569,113.676 270.5,114C 271.448,114.483 272.448,114.649 273.5,114.5C 273.567,115.959 273.234,117.292 272.5,118.5C 271.504,118.586 270.671,118.252 270,117.5C 269.706,109.033 269.873,100.699 270.5,92.5C 269.689,91.7836 269.022,90.9503 268.5,90C 268.892,88.9895 269.559,88.4895 270.5,88.5C 269.926,86.9411 269.26,85.4411 268.5,84C 268.799,82.6796 268.966,81.1796 269,79.5C 270.113,80.7111 271.28,80.7111 272.5,79.5C 272.833,78.1667 273.167,76.8333 273.5,75.5C 274.192,76.0253 274.692,76.6919 275,77.5C 275.317,75.6992 275.984,75.3659 277,76.5C 277.353,74.9261 278.02,73.2594 279,71.5C 279.741,72.6405 280.575,72.6405 281.5,71.5C 282.192,72.0253 282.692,72.6919 283,73.5C 283.684,71.641 284.684,69.9743 286,68.5C 286.166,72.5114 287,73.0114 288.5,70C 287.185,68.6054 287.519,67.6054 289.5,67C 287.986,65.561 287.653,64.061 288.5,62.5C 291.145,67.2596 293.312,72.2596 295,77.5C 294.498,74.8071 294.665,72.1404 295.5,69.5C 294.675,68.6143 293.675,68.281 292.5,68.5C 292.167,65.501 292.167,62.6676 292.5,60C 292.095,59.0546 291.428,58.3879 290.5,58C 292.196,56.7949 293.863,56.2949 295.5,56.5 Z"/></g>
<g><path style="opacity:1" fill="#ff9900" d="M 321.5,87.5 C 333.089,99.3144 343.756,111.981 353.5,125.5C 353.631,126.239 353.464,126.906 353,127.5C 350.872,124.37 348.372,121.537 345.5,119C 342.394,118.721 339.561,118.888 337,119.5C 335.246,116.801 333.079,115.468 330.5,115.5C 329.376,116.914 328.376,118.414 327.5,120C 328.811,122.274 328.811,124.44 327.5,126.5C 325.735,118.575 324.401,110.575 323.5,102.5C 323.739,100.533 323.406,98.6995 322.5,97C 323.167,96.6667 323.833,96.3333 324.5,96C 323.167,95.3333 323.167,94.6667 324.5,94C 323.322,93.0331 321.989,92.5331 320.5,92.5C 320.071,96.9286 320.071,101.429 320.5,106C 318.524,109.21 317.858,112.543 318.5,116C 318.07,117.434 317.236,118.601 316,119.5C 314.817,118.269 313.651,118.269 312.5,119.5C 312.709,120.086 313.043,120.586 313.5,121C 310.783,122.033 308.949,121.2 308,118.5C 307.333,119.833 306.333,120.833 305,121.5C 304.333,120.167 303.667,120.167 303,121.5C 302.308,120.975 301.808,120.308 301.5,119.5C 304.815,119.119 304.982,117.786 302,115.5C 301.009,116.939 299.676,117.939 298,118.5C 296.312,114.974 294.145,114.641 291.5,117.5C 290.497,115.458 289.163,115.125 287.5,116.5C 286.808,115.975 286.308,115.308 286,114.5C 284.981,115.687 283.814,116.687 282.5,117.5C 281.673,115.838 280.507,114.505 279,113.5C 277.625,115.937 277.125,118.603 277.5,121.5C 275.566,120.89 273.899,119.89 272.5,118.5C 273.234,117.292 273.567,115.959 273.5,114.5C 272.448,114.649 271.448,114.483 270.5,114C 272.569,113.676 272.902,112.842 271.5,111.5C 272.991,109.193 273.991,106.693 274.5,104C 273.872,101.63 273.539,99.2969 273.5,97C 274,96.5 274.5,96 275,95.5C 275.249,96.624 275.749,97.624 276.5,98.5C 276.833,98.3333 277.167,98.1667 277.5,98C 276.521,96.2215 276.854,94.5548 278.5,93C 277.483,91.9505 277.316,90.7839 278,89.5C 279.395,90.8146 280.395,90.4812 281,88.5C 282.824,89.7487 282.657,90.9153 280.5,92C 281.22,94.1223 282.387,94.6223 284,93.5C 286.387,94.9129 288.72,95.5796 291,95.5C 291.658,93.892 291.158,92.7253 289.5,92C 289.833,91.6667 290.167,91.3333 290.5,91C 288.633,90.2888 287.133,90.7888 286,92.5C 285.25,91.8742 284.416,91.3742 283.5,91C 285.755,90.6427 287.922,89.4761 290,87.5C 290.923,88.7588 291.757,90.0921 292.5,91.5C 296.407,94.5484 297.407,93.715 295.5,89C 295.509,87.5962 296.009,86.4296 297,85.5C 298.99,91.1299 300.823,96.7965 302.5,102.5C 302.291,103.086 301.957,103.586 301.5,104C 303.101,107.067 305.268,109.567 308,111.5C 308.5,111.333 309,111.167 309.5,111C 306.817,108.031 306.984,105.198 310,102.5C 310.984,104.795 311.817,104.461 312.5,101.5C 311.33,98.4695 311.997,95.8028 314.5,93.5C 313.833,92.8333 313.167,92.1667 312.5,91.5C 313.427,89.5095 313.594,87.5095 313,85.5C 313.333,85.8333 313.667,86.1667 314,86.5C 314.837,84.9926 316.004,84.4926 317.5,85C 318.304,86.7713 319.471,88.2713 321,89.5C 321.464,88.9056 321.631,88.2389 321.5,87.5 Z"/></g>
<g><path style="opacity:1" fill="#ffdf18" d="M 243.5,56.5 C 236.534,69.7714 230.034,83.438 224,97.5C 214.995,107.672 205.495,117.339 195.5,126.5C 194.957,126.44 194.624,126.107 194.5,125.5C 197.642,119.728 199.975,113.728 201.5,107.5C 206.832,96.8245 211.666,85.8245 216,74.5C 217.667,75.8333 219.333,75.8333 221,74.5C 223.158,70.0691 226.492,66.7358 231,64.5C 231.953,62.5448 233.287,60.8782 235,59.5C 236.309,55.9009 237.809,52.4009 239.5,49C 240.5,48.5 241.5,48 242.5,47.5C 243.696,47.8457 243.696,48.3457 242.5,49C 243.624,49.2492 244.624,49.7492 245.5,50.5C 244.628,52.4496 243.961,54.4496 243.5,56.5 Z"/></g>
<g><path style="opacity:1" fill="#ffe438" d="M 201.5,107.5 C 199.975,113.728 197.642,119.728 194.5,125.5C 194.624,126.107 194.957,126.44 195.5,126.5C 183.241,138.424 170.907,150.424 158.5,162.5C 155.894,163.652 153.227,163.818 150.5,163C 146.835,160.498 142.835,158.664 138.5,157.5C 138.261,155.533 138.594,153.699 139.5,152C 142.614,150.92 145.614,150.754 148.5,151.5C 148.547,148.432 149.047,145.432 150,142.5C 150.626,144.991 151.459,144.991 152.5,142.5C 154.021,142.88 155.687,143.046 157.5,143C 158.337,144.011 158.67,145.178 158.5,146.5C 159.552,146.649 160.552,146.483 161.5,146C 160.664,144.757 160.997,143.59 162.5,142.5C 163.086,142.709 163.586,143.043 164,143.5C 164.54,141.865 164.04,140.532 162.5,139.5C 163.274,138.289 164.107,138.289 165,139.5C 167.197,137.844 169.697,136.678 172.5,136C 173.447,132.723 175.447,130.39 178.5,129C 174.788,126.609 175.455,125.276 180.5,125C 179.5,124.167 178.5,123.333 177.5,122.5C 178.771,122.874 179.938,122.208 181,120.5C 181.233,118.22 182.066,116.22 183.5,114.5C 187.643,114.175 189.476,111.841 189,107.5C 190.073,108.28 191.24,108.113 192.5,107C 192.167,106.667 191.833,106.333 191.5,106C 193.896,104.065 196.396,102.231 199,100.5C 201.137,102.321 201.97,104.654 201.5,107.5 Z"/></g>
<g><path style="opacity:1" fill="#ffe346" d="M 252.5,27.5 C 253.043,27.56 253.376,27.8933 253.5,28.5C 252.758,29.2868 251.925,29.9535 251,30.5C 250.465,33.5606 250.132,36.5606 250,39.5C 250.949,37.9069 252.115,36.5736 253.5,35.5C 253.5,36.5 253.5,37.5 253.5,38.5C 250.167,44.5 246.833,50.5 243.5,56.5C 243.961,54.4496 244.628,52.4496 245.5,50.5C 244.624,49.7492 243.624,49.2492 242.5,49C 243.696,48.3457 243.696,47.8457 242.5,47.5C 241.5,48 240.5,48.5 239.5,49C 237.809,52.4009 236.309,55.9009 235,59.5C 233.287,60.8782 231.953,62.5448 231,64.5C 226.492,66.7358 223.158,70.0691 221,74.5C 219.333,75.8333 217.667,75.8333 216,74.5C 211.666,85.8245 206.832,96.8245 201.5,107.5C 201.97,104.654 201.137,102.321 199,100.5C 196.396,102.231 193.896,104.065 191.5,106C 191.833,106.333 192.167,106.667 192.5,107C 191.24,108.113 190.073,108.28 189,107.5C 189.476,111.841 187.643,114.175 183.5,114.5C 182.066,116.22 181.233,118.22 181,120.5C 179.938,122.208 178.771,122.874 177.5,122.5C 178.5,123.333 179.5,124.167 180.5,125C 175.455,125.276 174.788,126.609 178.5,129C 175.447,130.39 173.447,132.723 172.5,136C 169.697,136.678 167.197,137.844 165,139.5C 164.107,138.289 163.274,138.289 162.5,139.5C 164.04,140.532 164.54,141.865 164,143.5C 163.586,143.043 163.086,142.709 162.5,142.5C 160.997,143.59 160.664,144.757 161.5,146C 160.552,146.483 159.552,146.649 158.5,146.5C 158.67,145.178 158.337,144.011 157.5,143C 155.687,143.046 154.021,142.88 152.5,142.5C 151.459,144.991 150.626,144.991 150,142.5C 149.047,145.432 148.547,148.432 148.5,151.5C 145.614,150.754 142.614,150.92 139.5,152C 138.594,153.699 138.261,155.533 138.5,157.5C 136.95,156.559 135.284,155.893 133.5,155.5C 139.485,148.071 145.652,140.738 152,133.5C 185.311,98.0213 218.811,62.688 252.5,27.5 Z"/></g>
<g><path style="opacity:1" fill="#ffd305" d="M 221.5,104.5 C 222.675,104.281 223.675,104.614 224.5,105.5C 230.858,113.357 237.025,121.357 243,129.5C 245.023,131.769 245.856,134.436 245.5,137.5C 244.2,138.601 243.7,139.934 244,141.5C 251.628,134.609 259.128,127.609 266.5,120.5C 266.505,124.534 266.838,128.534 267.5,132.5C 266.303,131.739 265.47,130.072 265,127.5C 264.282,126.549 263.449,126.383 262.5,127C 250.489,139.536 237.822,152.202 224.5,165C 223.906,165.464 223.239,165.631 222.5,165.5C 227.759,158.737 233.593,152.403 240,146.5C 240.667,145.833 240.667,145.167 240,144.5C 235.631,149.037 231.131,153.37 226.5,157.5C 228.096,154.207 229.762,150.874 231.5,147.5C 231.117,144.549 231.117,141.716 231.5,139C 230.978,138.05 230.311,137.216 229.5,136.5C 230.902,135.158 230.569,134.324 228.5,134C 229.956,133.577 230.456,132.744 230,131.5C 228.627,131.404 227.127,131.57 225.5,132C 224.828,130.511 224.828,128.678 225.5,126.5C 223.002,127.121 220.668,126.455 218.5,124.5C 219.716,123.904 221.049,123.737 222.5,124C 222.112,122.192 222.112,120.525 222.5,119C 216.002,117.882 216.002,115.882 222.5,113C 220.723,110.848 219.223,111.015 218,113.5C 217.667,113.167 217.333,112.833 217,112.5C 212.777,116.602 208.777,120.935 205,125.5C 204.667,125.167 204.333,124.833 204,124.5C 200.39,127.463 196.557,130.963 192.5,135C 191.552,135.483 190.552,135.649 189.5,135.5C 199.585,124.412 210.252,114.079 221.5,104.5 Z"/></g>
<g><path style="opacity:1" fill="#ff7900" d="M 323.5,102.5 C 324.401,110.575 325.735,118.575 327.5,126.5C 328.744,131.298 328.744,135.965 327.5,140.5C 325.194,140.646 322.861,140.979 320.5,141.5C 322.004,136.479 322.671,131.313 322.5,126C 321.771,117.169 321.604,108.336 322,99.5C 322.232,100.737 322.732,101.737 323.5,102.5 Z"/></g>
<g><path style="opacity:1" fill="#ffcb00" d="M 226.5,157.5 C 225.167,159.5 223.5,161.167 221.5,162.5C 220.081,161.549 218.415,161.216 216.5,161.5C 216.781,159.037 217.781,156.87 219.5,155C 218.72,152.302 217.387,149.969 215.5,148C 218.318,145.885 218.151,144.052 215,142.5C 214.085,143.328 213.419,144.328 213,145.5C 212,144.167 211,144.167 210,145.5C 207.967,143.65 207.967,142.984 210,143.5C 210.46,141.286 209.793,140.619 208,141.5C 206.376,139.842 204.709,138.175 203,136.5C 202.667,137.167 202.333,137.833 202,138.5C 201.149,135.388 199.983,135.054 198.5,137.5C 198.709,138.086 199.043,138.586 199.5,139C 197.633,139.711 196.133,139.211 195,137.5C 188.054,142.27 181.221,147.27 174.5,152.5C 172.411,155.378 170.077,158.045 167.5,160.5C 166.817,160.137 166.15,159.804 165.5,159.5C 173.167,151.167 181.167,143.167 189.5,135.5C 190.552,135.649 191.552,135.483 192.5,135C 196.557,130.963 200.39,127.463 204,124.5C 204.333,124.833 204.667,125.167 205,125.5C 208.777,120.935 212.777,116.602 217,112.5C 217.333,112.833 217.667,113.167 218,113.5C 219.223,111.015 220.723,110.848 222.5,113C 216.002,115.882 216.002,117.882 222.5,119C 222.112,120.525 222.112,122.192 222.5,124C 221.049,123.737 219.716,123.904 218.5,124.5C 220.668,126.455 223.002,127.121 225.5,126.5C 224.828,128.678 224.828,130.511 225.5,132C 227.127,131.57 228.627,131.404 230,131.5C 230.456,132.744 229.956,133.577 228.5,134C 230.569,134.324 230.902,135.158 229.5,136.5C 230.311,137.216 230.978,138.05 231.5,139C 231.117,141.716 231.117,144.549 231.5,147.5C 229.762,150.874 228.096,154.207 226.5,157.5 Z"/></g>
<g><path style="opacity:1" fill="#ff910d" d="M 353.5,125.5 C 362.229,135.283 370.729,145.283 379,155.5C 379.814,160.02 379.647,164.354 378.5,168.5C 378.5,165.5 378.5,162.5 378.5,159.5C 375.882,155.709 373.049,152.043 370,148.5C 369.632,149.91 368.799,150.91 367.5,151.5C 364.823,149.155 362.49,146.488 360.5,143.5C 358.807,142.772 357.307,141.772 356,140.5C 355.577,141.956 354.744,142.456 353.5,142C 353.833,141.667 354.167,141.333 354.5,141C 353.584,140.626 352.75,140.126 352,139.5C 351.759,136.711 351.092,134.044 350,131.5C 348.667,130.167 347.333,130.167 346,131.5C 345.517,130.552 345.351,129.552 345.5,128.5C 344.448,128.351 343.448,128.517 342.5,129C 341.167,129.667 341.167,130.333 342.5,131C 341.146,132.294 339.812,132.46 338.5,131.5C 337.522,131.977 336.689,132.643 336,133.5C 334.186,132.24 332.353,132.24 330.5,133.5C 330.974,138.524 330.307,143.524 328.5,148.5C 328.685,149.584 329.018,150.584 329.5,151.5C 329.5,151.833 329.5,152.167 329.5,152.5C 328.167,152.5 326.833,152.5 325.5,152.5C 327.048,149.416 328.048,146.082 328.5,142.5C 328.376,141.893 328.043,141.56 327.5,141.5C 327.5,141.167 327.5,140.833 327.5,140.5C 328.744,135.965 328.744,131.298 327.5,126.5C 328.811,124.44 328.811,122.274 327.5,120C 328.376,118.414 329.376,116.914 330.5,115.5C 333.079,115.468 335.246,116.801 337,119.5C 339.561,118.888 342.394,118.721 345.5,119C 348.372,121.537 350.872,124.37 353,127.5C 353.464,126.906 353.631,126.239 353.5,125.5 Z"/></g>
<g><path style="opacity:1" fill="#fff871" d="M 266.5,110.5 C 266.5,113.833 266.5,117.167 266.5,120.5C 259.128,127.609 251.628,134.609 244,141.5C 243.7,139.934 244.2,138.601 245.5,137.5C 248.525,133.961 251.192,130.128 253.5,126C 257.537,124.463 261.204,122.296 264.5,119.5C 265.167,116.358 265.834,113.358 266.5,110.5 Z"/></g>
<g><path style="opacity:1" fill="#ff9000" d="M 323.5,102.5 C 322.732,101.737 322.232,100.737 322,99.5C 321.604,108.336 321.771,117.169 322.5,126C 322.671,131.313 322.004,136.479 320.5,141.5C 319.797,143.629 318.797,145.629 317.5,147.5C 312.879,143.517 307.879,140.017 302.5,137C 300.633,136.289 299.133,136.789 298,138.5C 296.899,136.606 295.566,135.939 294,136.5C 291.729,134.566 289.729,134.566 288,136.5C 287.667,135.833 287.333,135.167 287,134.5C 284.962,135.425 282.629,135.425 280,134.5C 278.72,134.613 277.887,135.28 277.5,136.5C 277.566,139.034 277.566,141.534 277.5,144C 274.972,145.316 274.972,146.483 277.5,147.5C 275.882,151.644 275.049,155.978 275,160.5C 274.722,159.584 274.222,158.918 273.5,158.5C 272.117,152.72 270.784,147.053 269.5,141.5C 269.324,138.273 268.657,135.273 267.5,132.5C 266.838,128.534 266.505,124.534 266.5,120.5C 268.527,120.338 270.527,120.505 272.5,121C 279.709,125.035 287.042,128.868 294.5,132.5C 295.696,132.154 295.696,131.654 294.5,131C 288.689,128.006 283.022,124.839 277.5,121.5C 277.125,118.603 277.625,115.937 279,113.5C 280.507,114.505 281.673,115.838 282.5,117.5C 283.814,116.687 284.981,115.687 286,114.5C 286.308,115.308 286.808,115.975 287.5,116.5C 289.163,115.125 290.497,115.458 291.5,117.5C 294.145,114.641 296.312,114.974 298,118.5C 299.676,117.939 301.009,116.939 302,115.5C 304.982,117.786 304.815,119.119 301.5,119.5C 301.808,120.308 302.308,120.975 303,121.5C 303.667,120.167 304.333,120.167 305,121.5C 306.333,120.833 307.333,119.833 308,118.5C 308.949,121.2 310.783,122.033 313.5,121C 313.043,120.586 312.709,120.086 312.5,119.5C 313.651,118.269 314.817,118.269 316,119.5C 317.236,118.601 318.07,117.434 318.5,116C 317.858,112.543 318.524,109.21 320.5,106C 320.071,101.429 320.071,96.9286 320.5,92.5C 321.989,92.5331 323.322,93.0331 324.5,94C 323.167,94.6667 323.167,95.3333 324.5,96C 323.833,96.3333 323.167,96.6667 322.5,97C 323.406,98.6995 323.739,100.533 323.5,102.5 Z"/></g>
<g><path style="opacity:1" fill="#ff8500" d="M 378.5,159.5 C 371.332,161.723 364.165,164.056 357,166.5C 356.098,166.257 355.265,165.923 354.5,165.5C 346.328,160.58 337.995,155.913 329.5,151.5C 329.018,150.584 328.685,149.584 328.5,148.5C 330.307,143.524 330.974,138.524 330.5,133.5C 332.353,132.24 334.186,132.24 336,133.5C 336.689,132.643 337.522,131.977 338.5,131.5C 339.812,132.46 341.146,132.294 342.5,131C 341.167,130.333 341.167,129.667 342.5,129C 343.448,128.517 344.448,128.351 345.5,128.5C 345.351,129.552 345.517,130.552 346,131.5C 347.333,130.167 348.667,130.167 350,131.5C 351.092,134.044 351.759,136.711 352,139.5C 352.75,140.126 353.584,140.626 354.5,141C 354.167,141.333 353.833,141.667 353.5,142C 354.744,142.456 355.577,141.956 356,140.5C 357.307,141.772 358.807,142.772 360.5,143.5C 362.49,146.488 364.823,149.155 367.5,151.5C 368.799,150.91 369.632,149.91 370,148.5C 373.049,152.043 375.882,155.709 378.5,159.5 Z"/></g>
<g><path style="opacity:1" fill="#ffc101" d="M 267.5,132.5 C 268.657,135.273 269.324,138.273 269.5,141.5C 269.565,141.938 269.399,142.272 269,142.5C 268.026,140.122 267.359,140.456 267,143.5C 264.131,139.363 262.797,140.029 263,145.5C 260.495,147.196 258.995,149.53 258.5,152.5C 257.575,151.359 256.741,151.359 256,152.5C 255.464,154.567 255.964,156.401 257.5,158C 257,158.5 256.5,159 256,159.5C 253.849,154.427 251.682,154.593 249.5,160C 250.672,161.868 250.505,163.702 249,165.5C 247.442,164.655 246.442,165.321 246,167.5C 244.766,162.696 242.932,162.696 240.5,167.5C 240.709,168.086 241.043,168.586 241.5,169C 239.953,169.333 238.62,168.833 237.5,167.5C 237.711,170.261 236.877,172.927 235,175.5C 234.333,174.833 233.667,174.167 233,173.5C 231.75,174.573 230.416,174.573 229,173.5C 225.077,173.962 221.41,175.629 218,178.5C 215.332,177.02 215.165,175.52 217.5,174C 217.167,173.833 216.833,173.667 216.5,173.5C 214.854,174.779 213.687,176.445 213,178.5C 211.261,178.434 209.428,177.767 207.5,176.5C 205.317,177.732 203.151,177.732 201,176.5C 198.459,177.007 195.959,177.674 193.5,178.5C 195.5,179.167 197.5,179.833 199.5,180.5C 199.333,180.833 199.167,181.167 199,181.5C 197.333,181.167 195.667,180.833 194,180.5C 192.518,182.781 190.851,182.781 189,180.5C 187.795,181.071 186.628,181.738 185.5,182.5C 185.048,187.344 183.048,188.344 179.5,185.5C 177.618,186.531 175.618,187.365 173.5,188C 172.035,191.929 170.035,195.595 167.5,199C 168.5,200.667 169.5,202.333 170.5,204C 169.663,205.724 169.33,207.224 169.5,208.5C 168.26,205.976 167.093,203.309 166,200.5C 163.012,189.233 160.512,177.899 158.5,166.5C 160.5,163.833 162.833,161.5 165.5,159.5C 166.15,159.804 166.817,160.137 167.5,160.5C 170.077,158.045 172.411,155.378 174.5,152.5C 181.221,147.27 188.054,142.27 195,137.5C 196.133,139.211 197.633,139.711 199.5,139C 199.043,138.586 198.709,138.086 198.5,137.5C 199.983,135.054 201.149,135.388 202,138.5C 202.333,137.833 202.667,137.167 203,136.5C 204.709,138.175 206.376,139.842 208,141.5C 209.793,140.619 210.46,141.286 210,143.5C 207.967,142.984 207.967,143.65 210,145.5C 211,144.167 212,144.167 213,145.5C 213.419,144.328 214.085,143.328 215,142.5C 218.151,144.052 218.318,145.885 215.5,148C 217.387,149.969 218.72,152.302 219.5,155C 217.781,156.87 216.781,159.037 216.5,161.5C 218.415,161.216 220.081,161.549 221.5,162.5C 211.349,164.585 201.016,166.418 190.5,168C 188.119,168.223 186.453,169.39 185.5,171.5C 181.258,175.213 178.092,179.547 176,184.5C 179.343,180.99 182.843,177.657 186.5,174.5C 193.775,173.103 201.109,171.937 208.5,171C 213.603,170.026 218.27,168.193 222.5,165.5C 223.239,165.631 223.906,165.464 224.5,165C 237.822,152.202 250.489,139.536 262.5,127C 263.449,126.383 264.282,126.549 265,127.5C 265.47,130.072 266.303,131.739 267.5,132.5 Z"/></g>
<g><path style="opacity:1" fill="#fffa8b" d="M 243.5,56.5 C 243.657,57.8734 243.49,59.2068 243,60.5C 238.08,70.264 233.747,80.264 230,90.5C 227.88,95.7664 225.047,100.433 221.5,104.5C 210.252,114.079 199.585,124.412 189.5,135.5C 181.167,143.167 173.167,151.167 165.5,159.5C 162.833,161.5 160.5,163.833 158.5,166.5C 157.778,166.918 157.278,167.584 157,168.5C 156.167,167.667 155.333,166.833 154.5,166C 148.375,163.013 142.041,160.513 135.5,158.5C 134.167,158.5 133.5,159.167 133.5,160.5C 133.5,161.5 133.5,162.5 133.5,163.5C 132.167,160.833 132.167,158.167 133.5,155.5C 135.284,155.893 136.95,156.559 138.5,157.5C 142.835,158.664 146.835,160.498 150.5,163C 153.227,163.818 155.894,163.652 158.5,162.5C 170.907,150.424 183.241,138.424 195.5,126.5C 205.495,117.339 214.995,107.672 224,97.5C 230.034,83.438 236.534,69.7714 243.5,56.5 Z"/></g>
<g><path style="opacity:1" fill="#ffba00" d="M 269.5,141.5 C 270.784,147.053 272.117,152.72 273.5,158.5C 273.963,161.482 274.296,164.482 274.5,167.5C 274.643,169.262 274.309,170.929 273.5,172.5C 275.504,178.224 277.504,183.891 279.5,189.5C 280.794,193.758 281.794,198.091 282.5,202.5C 281.472,201.47 280.305,199.803 279,197.5C 275.636,202.022 272.136,206.355 268.5,210.5C 268.5,210.167 268.5,209.833 268.5,209.5C 269.777,207.05 271.277,204.717 273,202.5C 273.684,201.216 273.517,200.049 272.5,199C 276.172,197.635 276.506,195.635 273.5,193C 274.5,192.667 275.5,192.333 276.5,192C 275.069,191.535 273.903,190.701 273,189.5C 272.84,185.713 272.174,182.046 271,178.5C 270.667,178.833 270.333,179.167 270,179.5C 268.418,178.04 267.085,176.373 266,174.5C 265.667,174.833 265.333,175.167 265,175.5C 264.311,174.643 263.478,173.977 262.5,173.5C 260.806,175.861 258.806,177.861 256.5,179.5C 256.977,180.478 257.643,181.311 258.5,182C 255.614,184.659 255.281,187.493 257.5,190.5C 256.738,190.911 255.738,191.077 254.5,191C 255.313,192.314 256.313,193.481 257.5,194.5C 255.577,194.63 253.744,194.964 252,195.5C 251.667,197.047 252.167,198.38 253.5,199.5C 252.068,199.585 250.735,200.585 249.5,202.5C 250.664,205.66 249.664,207.993 246.5,209.5C 245.833,208.167 245.167,206.833 244.5,205.5C 241.223,207.6 238.056,209.934 235,212.5C 230,209.159 225.5,210.159 221.5,215.5C 220.808,214.975 220.308,214.308 220,213.5C 218.653,217.375 217.486,217.375 216.5,213.5C 214.844,214.992 213.344,216.658 212,218.5C 210.853,217.542 209.853,217.875 209,219.5C 208.664,227.954 206.33,228.954 202,222.5C 200.311,224.76 199.144,227.26 198.5,230C 199.711,231.113 199.711,232.28 198.5,233.5C 197.04,235.422 195.373,236.089 193.5,235.5C 195.375,236.969 195.375,238.802 193.5,241C 200.416,245.945 207.083,251.111 213.5,256.5C 200.232,247.746 187.065,238.746 174,229.5C 173.667,231.167 173.333,232.833 173,234.5C 172.71,232.08 172.21,229.746 171.5,227.5C 172.152,226.551 172.486,225.385 172.5,224C 171.684,218.756 170.684,213.589 169.5,208.5C 169.33,207.224 169.663,205.724 170.5,204C 169.5,202.333 168.5,200.667 167.5,199C 170.035,195.595 172.035,191.929 173.5,188C 175.618,187.365 177.618,186.531 179.5,185.5C 183.048,188.344 185.048,187.344 185.5,182.5C 186.628,181.738 187.795,181.071 189,180.5C 190.851,182.781 192.518,182.781 194,180.5C 195.667,180.833 197.333,181.167 199,181.5C 199.167,181.167 199.333,180.833 199.5,180.5C 197.5,179.833 195.5,179.167 193.5,178.5C 195.959,177.674 198.459,177.007 201,176.5C 203.151,177.732 205.317,177.732 207.5,176.5C 209.428,177.767 211.261,178.434 213,178.5C 213.687,176.445 214.854,174.779 216.5,173.5C 216.833,173.667 217.167,173.833 217.5,174C 215.165,175.52 215.332,177.02 218,178.5C 221.41,175.629 225.077,173.962 229,173.5C 230.416,174.573 231.75,174.573 233,173.5C 233.667,174.167 234.333,174.833 235,175.5C 236.877,172.927 237.711,170.261 237.5,167.5C 238.62,168.833 239.953,169.333 241.5,169C 241.043,168.586 240.709,168.086 240.5,167.5C 242.932,162.696 244.766,162.696 246,167.5C 246.442,165.321 247.442,164.655 249,165.5C 250.505,163.702 250.672,161.868 249.5,160C 251.682,154.593 253.849,154.427 256,159.5C 256.5,159 257,158.5 257.5,158C 255.964,156.401 255.464,154.567 256,152.5C 256.741,151.359 257.575,151.359 258.5,152.5C 258.995,149.53 260.495,147.196 263,145.5C 262.797,140.029 264.131,139.363 267,143.5C 267.359,140.456 268.026,140.122 269,142.5C 269.399,142.272 269.565,141.938 269.5,141.5 Z"/></g>
<g><path style="opacity:1" fill="#ff8100" d="M 317.5,147.5 C 315.035,154.06 312.869,160.727 311,167.5C 308.02,170.151 305.353,173.151 303,176.5C 301.094,186.88 297.094,196.213 291,204.5C 288.67,201.818 288.17,202.151 289.5,205.5C 288.758,206.287 287.925,206.953 287,207.5C 286.68,213.891 287.18,220.224 288.5,226.5C 286.722,221.728 285.389,216.728 284.5,211.5C 284.01,208.345 283.344,205.345 282.5,202.5C 281.794,198.091 280.794,193.758 279.5,189.5C 278.436,181.92 276.769,174.587 274.5,167.5C 274.296,164.482 273.963,161.482 273.5,158.5C 274.222,158.918 274.722,159.584 275,160.5C 275.049,155.978 275.882,151.644 277.5,147.5C 274.972,146.483 274.972,145.316 277.5,144C 277.566,141.534 277.566,139.034 277.5,136.5C 277.887,135.28 278.72,134.613 280,134.5C 282.629,135.425 284.962,135.425 287,134.5C 287.333,135.167 287.667,135.833 288,136.5C 289.729,134.566 291.729,134.566 294,136.5C 295.566,135.939 296.899,136.606 298,138.5C 299.133,136.789 300.633,136.289 302.5,137C 307.879,140.017 312.879,143.517 317.5,147.5 Z"/></g>
<g><path style="opacity:1" fill="#ffd300" d="M 327.5,141.5 C 328.043,141.56 328.376,141.893 328.5,142.5C 328.048,146.082 327.048,149.416 325.5,152.5C 324.167,154.167 322.833,155.833 321.5,157.5C 323.494,152.209 325.494,146.876 327.5,141.5 Z"/></g>
<g><path style="opacity:1" fill="#ffc400" d="M 329.5,152.5 C 329.5,152.167 329.5,151.833 329.5,151.5C 337.995,155.913 346.328,160.58 354.5,165.5C 354.5,166.5 354.5,167.5 354.5,168.5C 354.167,168.5 353.833,168.5 353.5,168.5C 353.5,167.833 353.167,167.5 352.5,167.5C 345.126,162.14 337.459,157.14 329.5,152.5 Z"/></g>
<g><path style="opacity:1" fill="#ff7000" d="M 325.5,152.5 C 326.833,152.5 328.167,152.5 329.5,152.5C 337.459,157.14 345.126,162.14 352.5,167.5C 339.885,182.115 326.218,195.782 311.5,208.5C 308.775,209.713 306.441,211.546 304.5,214C 303.365,214.749 302.365,214.583 301.5,213.5C 303.312,207.299 304.478,200.965 305,194.5C 308.133,187.895 312.466,182.228 318,177.5C 318.5,176 319,174.5 319.5,173C 319.43,172.235 319.097,171.735 318.5,171.5C 318.737,166.645 319.737,161.978 321.5,157.5C 322.833,155.833 324.167,154.167 325.5,152.5 Z"/></g>
<g><path style="opacity:1" fill="#fffa91" d="M 222.5,165.5 C 218.27,168.193 213.603,170.026 208.5,171C 201.109,171.937 193.775,173.103 186.5,174.5C 186.737,173.209 186.404,172.209 185.5,171.5C 186.453,169.39 188.119,168.223 190.5,168C 201.016,166.418 211.349,164.585 221.5,162.5C 223.5,161.167 225.167,159.5 226.5,157.5C 231.131,153.37 235.631,149.037 240,144.5C 240.667,145.167 240.667,145.833 240,146.5C 233.593,152.403 227.759,158.737 222.5,165.5 Z"/></g>
<g><path style="opacity:1" fill="#ff5900" d="M 135.5,158.5 C 142.189,162.336 149.022,166.003 156,169.5C 161.025,188.606 166.192,207.606 171.5,226.5C 170.175,225.047 169.342,225.381 169,227.5C 168.333,226.833 167.667,226.167 167,225.5C 167.195,227.126 167.195,228.793 167,230.5C 164.236,225.507 160.069,222.007 154.5,220C 149.941,215.72 146.774,210.553 145,204.5C 143.882,206.267 143.382,208.101 143.5,210C 142.576,211.811 141.743,211.645 141,209.5C 140.536,210.094 140.369,210.761 140.5,211.5C 140.167,211.5 139.833,211.5 139.5,211.5C 138.631,209.283 138.298,206.95 138.5,204.5C 139.152,203.551 139.486,202.385 139.5,201C 137.853,187.3 135.853,173.8 133.5,160.5C 133.5,159.167 134.167,158.5 135.5,158.5 Z"/></g>
<g><path style="opacity:0.975" fill="#ff4300" d="M 378.5,159.5 C 378.5,162.5 378.5,165.5 378.5,168.5C 370.089,210.887 361.423,253.22 352.5,295.5C 351.883,295.389 351.383,295.056 351,294.5C 345.955,300.174 340.955,305.841 336,311.5C 331.864,321.411 328.031,331.411 324.5,341.5C 321.893,347.213 318.893,352.713 315.5,358C 299.835,363.168 284.169,368.002 268.5,372.5C 268.5,368.5 268.5,364.5 268.5,360.5C 269.048,358.374 269.715,356.374 270.5,354.5C 271.268,353.737 271.768,352.737 272,351.5C 272.333,351.833 272.667,352.167 273,352.5C 273.29,350.048 273.956,347.715 275,345.5C 275.359,348.544 276.026,348.878 277,346.5C 277.29,348.044 277.956,349.377 279,350.5C 283.295,347.476 284.962,348.476 284,353.5C 285.028,351.639 286.528,350.305 288.5,349.5C 289.541,351.991 290.374,351.991 291,349.5C 291.333,350.167 291.667,350.833 292,351.5C 293.339,348.623 295.173,346.956 297.5,346.5C 296.52,347.981 295.353,349.315 294,350.5C 293.333,351.5 293.333,352.5 294,353.5C 294.845,350.588 296.512,349.588 299,350.5C 299.317,348.699 299.984,348.366 301,349.5C 302.848,347.047 305.348,346.047 308.5,346.5C 308.181,344.25 308.681,342.25 310,340.5C 310.249,341.624 310.749,342.624 311.5,343.5C 311.749,342.418 311.915,341.085 312,339.5C 312.333,340.167 312.667,340.833 313,341.5C 314.46,341.018 315.96,339.851 317.5,338C 317.167,337.667 316.833,337.333 316.5,337C 318.608,333.955 320.275,330.621 321.5,327C 318.207,326.745 317.04,325.245 318,322.5C 314.962,326.745 311.129,328.745 306.5,328.5C 312.471,326.372 317.138,322.539 320.5,317C 323.619,315.458 326.286,313.458 328.5,311C 326.877,309.124 327.21,307.79 329.5,307C 329.043,306.586 328.709,306.086 328.5,305.5C 329.268,301.555 329.768,297.555 330,293.5C 330.667,292.167 331.333,292.167 332,293.5C 332.318,291.939 333.151,290.772 334.5,290C 334.621,283.818 333.955,277.651 332.5,271.5C 336.169,258.84 338.502,246.174 339.5,233.5C 339.875,231.302 340.542,229.302 341.5,227.5C 346.354,208.084 350.687,188.417 354.5,168.5C 354.5,167.5 354.5,166.5 354.5,165.5C 355.265,165.923 356.098,166.257 357,166.5C 364.165,164.056 371.332,161.723 378.5,159.5 Z"/></g>
<g><path style="opacity:1" fill="#ffea35" d="M 135.5,158.5 C 142.041,160.513 148.375,163.013 154.5,166C 155.333,166.833 156.167,167.667 157,168.5C 157.278,167.584 157.778,166.918 158.5,166.5C 160.512,177.899 163.012,189.233 166,200.5C 167.093,203.309 168.26,205.976 169.5,208.5C 170.684,213.589 171.684,218.756 172.5,224C 172.486,225.385 172.152,226.551 171.5,227.5C 171.5,227.167 171.5,226.833 171.5,226.5C 166.192,207.606 161.025,188.606 156,169.5C 149.022,166.003 142.189,162.336 135.5,158.5 Z"/></g>
<g><path style="opacity:1" fill="#ffb400" d="M 268.5,209.5 C 259.338,218.495 250.005,227.328 240.5,236C 233.792,236.289 227.125,236.955 220.5,238C 228.809,239.499 237.143,240.499 245.5,241C 252.999,230.673 260.665,220.506 268.5,210.5C 272.136,206.355 275.636,202.022 279,197.5C 280.305,199.803 281.472,201.47 282.5,202.5C 283.344,205.345 284.01,208.345 284.5,211.5C 284.357,215.351 284.024,219.351 283.5,223.5C 284.139,226.475 284.639,229.475 285,232.5C 285.417,233.756 286.25,234.423 287.5,234.5C 287.5,235.5 287.5,236.5 287.5,237.5C 286.778,237.082 286.278,236.416 286,235.5C 285.617,236.056 285.117,236.389 284.5,236.5C 282.182,234.912 281.515,232.912 282.5,230.5C 281.538,226.58 280.038,222.914 278,219.5C 277.505,217.527 277.338,215.527 277.5,213.5C 275.088,213.244 273.421,214.244 272.5,216.5C 271.914,216.291 271.414,215.957 271,215.5C 269.172,217.081 267.172,218.415 265,219.5C 262.211,225.205 258.711,229.705 254.5,233C 254.957,233.414 255.291,233.914 255.5,234.5C 254.167,236.167 252.833,237.833 251.5,239.5C 250.425,243.375 249.591,247.041 249,250.5C 248,251.5 247,252.5 246,253.5C 245.727,251.899 245.227,250.399 244.5,249C 245.654,248.086 245.487,247.253 244,246.5C 243.51,247.793 243.343,249.127 243.5,250.5C 242.5,250.5 241.5,250.5 240.5,250.5C 241.036,253.665 240.203,256.331 238,258.5C 237.383,257.551 237.549,256.718 238.5,256C 235.182,258.452 232.682,257.619 231,253.5C 226.344,256.781 225.511,260.781 228.5,265.5C 235.16,269.162 240.493,274.162 244.5,280.5C 241.036,277.538 237.703,274.371 234.5,271C 231.752,268.959 228.752,267.459 225.5,266.5C 221.46,263.156 217.46,259.823 213.5,256.5C 207.083,251.111 200.416,245.945 193.5,241C 195.375,238.802 195.375,236.969 193.5,235.5C 195.373,236.089 197.04,235.422 198.5,233.5C 199.711,232.28 199.711,231.113 198.5,230C 199.144,227.26 200.311,224.76 202,222.5C 206.33,228.954 208.664,227.954 209,219.5C 209.853,217.875 210.853,217.542 212,218.5C 213.344,216.658 214.844,214.992 216.5,213.5C 217.486,217.375 218.653,217.375 220,213.5C 220.308,214.308 220.808,214.975 221.5,215.5C 225.5,210.159 230,209.159 235,212.5C 238.056,209.934 241.223,207.6 244.5,205.5C 245.167,206.833 245.833,208.167 246.5,209.5C 249.664,207.993 250.664,205.66 249.5,202.5C 250.735,200.585 252.068,199.585 253.5,199.5C 252.167,198.38 251.667,197.047 252,195.5C 253.744,194.964 255.577,194.63 257.5,194.5C 256.313,193.481 255.313,192.314 254.5,191C 255.738,191.077 256.738,190.911 257.5,190.5C 255.281,187.493 255.614,184.659 258.5,182C 257.643,181.311 256.977,180.478 256.5,179.5C 258.806,177.861 260.806,175.861 262.5,173.5C 263.478,173.977 264.311,174.643 265,175.5C 265.333,175.167 265.667,174.833 266,174.5C 267.085,176.373 268.418,178.04 270,179.5C 270.333,179.167 270.667,178.833 271,178.5C 272.174,182.046 272.84,185.713 273,189.5C 273.903,190.701 275.069,191.535 276.5,192C 275.5,192.333 274.5,192.667 273.5,193C 276.506,195.635 276.172,197.635 272.5,199C 273.517,200.049 273.684,201.216 273,202.5C 271.277,204.717 269.777,207.05 268.5,209.5 Z"/></g>
<g><path style="opacity:1" fill="#fe4200" d="M 352.5,167.5 C 353.167,167.5 353.5,167.833 353.5,168.5C 349.638,183.64 346.472,198.973 344,214.5C 343.535,215.931 342.701,217.097 341.5,218C 342.138,221.071 342.138,224.237 341.5,227.5C 340.542,229.302 339.875,231.302 339.5,233.5C 336.773,246.183 333.94,258.85 331,271.5C 327.739,274.216 324.572,277.049 321.5,280C 321.728,280.399 322.062,280.565 322.5,280.5C 307.267,292.89 292.434,305.89 278,319.5C 277.817,316.635 277.317,313.969 276.5,311.5C 276.5,310.5 276.5,309.5 276.5,308.5C 280.247,284.948 283.913,261.282 287.5,237.5C 287.5,236.5 287.5,235.5 287.5,234.5C 289.8,230.21 292.467,226.21 295.5,222.5C 296.5,221.833 297.5,221.167 298.5,220.5C 303.46,217.208 307.793,213.208 311.5,208.5C 326.218,195.782 339.885,182.115 352.5,167.5 Z"/></g>
<g><path style="opacity:1" fill="#fff362" d="M 185.5,171.5 C 186.404,172.209 186.737,173.209 186.5,174.5C 182.843,177.657 179.343,180.99 176,184.5C 178.092,179.547 181.258,175.213 185.5,171.5 Z"/></g>
<g><path style="opacity:0.337" fill="#ffb800" d="M 133.5,160.5 C 135.853,173.8 137.853,187.3 139.5,201C 139.486,202.385 139.152,203.551 138.5,204.5C 136.553,190.868 134.886,177.201 133.5,163.5C 133.5,162.5 133.5,161.5 133.5,160.5 Z"/></g>
<g><path style="opacity:1" fill="#ffda00" d="M 321.5,157.5 C 319.737,161.978 318.737,166.645 318.5,171.5C 315.287,177.386 310.954,182.386 305.5,186.5C 308.429,182.394 311.596,178.394 315,174.5C 316.736,169.956 318.07,165.29 319,160.5C 319.377,159.058 320.21,158.058 321.5,157.5 Z"/></g>
<g><path style="opacity:1" fill="#ffda00" d="M 274.5,167.5 C 276.769,174.587 278.436,181.92 279.5,189.5C 277.504,183.891 275.504,178.224 273.5,172.5C 274.309,170.929 274.643,169.262 274.5,167.5 Z"/></g>
<g><path style="opacity:1" fill="#ffdb00" d="M 305.5,186.5 C 302.218,197.631 299.884,208.964 298.5,220.5C 297.5,221.167 296.5,221.833 295.5,222.5C 298.188,211.226 300.688,199.893 303,188.5C 303.708,187.619 304.542,186.953 305.5,186.5 Z"/></g>
<g><path style="opacity:1" fill="#fff67a" d="M 252.5,181.5 C 253.525,181.897 253.692,182.563 253,183.5C 247.644,189.769 242.144,195.936 236.5,202C 225.442,203.294 214.442,204.961 203.5,207C 199.192,210.637 194.858,214.304 190.5,218C 187.966,219.934 185.299,221.268 182.5,222C 188.46,214.372 194.793,207.038 201.5,200C 212.856,198.465 224.189,196.798 235.5,195C 241.93,191.397 247.597,186.897 252.5,181.5 Z"/></g>
<g><path style="opacity:1" fill="#ff7400" d="M 327.5,140.5 C 327.5,140.833 327.5,141.167 327.5,141.5C 325.494,146.876 323.494,152.209 321.5,157.5C 320.21,158.058 319.377,159.058 319,160.5C 318.07,165.29 316.736,169.956 315,174.5C 311.596,178.394 308.429,182.394 305.5,186.5C 304.542,186.953 303.708,187.619 303,188.5C 300.688,199.893 298.188,211.226 295.5,222.5C 293.203,224.294 291.037,226.294 289,228.5C 288.536,227.906 288.369,227.239 288.5,226.5C 287.18,220.224 286.68,213.891 287,207.5C 287.925,206.953 288.758,206.287 289.5,205.5C 288.17,202.151 288.67,201.818 291,204.5C 297.094,196.213 301.094,186.88 303,176.5C 305.353,173.151 308.02,170.151 311,167.5C 312.869,160.727 315.035,154.06 317.5,147.5C 318.797,145.629 319.797,143.629 320.5,141.5C 322.861,140.979 325.194,140.646 327.5,140.5 Z"/></g>
<g><path style="opacity:0.992" fill="#ff7100" d="M 353.5,168.5 C 353.833,168.5 354.167,168.5 354.5,168.5C 350.687,188.417 346.354,208.084 341.5,227.5C 342.138,224.237 342.138,221.071 341.5,218C 342.701,217.097 343.535,215.931 344,214.5C 346.472,198.973 349.638,183.64 353.5,168.5 Z"/></g>
<g><path style="opacity:1" fill="#ffaa00" d="M 284.5,236.5 C 272.877,250.627 261.044,264.627 249,278.5C 247.097,280.441 246.264,282.774 246.5,285.5C 245.413,292.446 244.58,299.446 244,306.5C 243.927,297.841 244.094,289.174 244.5,280.5C 240.493,274.162 235.16,269.162 228.5,265.5C 225.511,260.781 226.344,256.781 231,253.5C 232.682,257.619 235.182,258.452 238.5,256C 237.549,256.718 237.383,257.551 238,258.5C 240.203,256.331 241.036,253.665 240.5,250.5C 241.5,250.5 242.5,250.5 243.5,250.5C 243.343,249.127 243.51,247.793 244,246.5C 245.487,247.253 245.654,248.086 244.5,249C 245.227,250.399 245.727,251.899 246,253.5C 247,252.5 248,251.5 249,250.5C 249.591,247.041 250.425,243.375 251.5,239.5C 252.833,237.833 254.167,236.167 255.5,234.5C 255.291,233.914 254.957,233.414 254.5,233C 258.711,229.705 262.211,225.205 265,219.5C 267.172,218.415 269.172,217.081 271,215.5C 271.414,215.957 271.914,216.291 272.5,216.5C 273.421,214.244 275.088,213.244 277.5,213.5C 277.338,215.527 277.505,217.527 278,219.5C 280.038,222.914 281.538,226.58 282.5,230.5C 281.515,232.912 282.182,234.912 284.5,236.5 Z"/></g>
<g><path style="opacity:1" fill="#ff8900" d="M 318.5,171.5 C 319.097,171.735 319.43,172.235 319.5,173C 319,174.5 318.5,176 318,177.5C 312.466,182.228 308.133,187.895 305,194.5C 304.478,200.965 303.312,207.299 301.5,213.5C 302.365,214.583 303.365,214.749 304.5,214C 306.441,211.546 308.775,209.713 311.5,208.5C 307.793,213.208 303.46,217.208 298.5,220.5C 299.884,208.964 302.218,197.631 305.5,186.5C 310.954,182.386 315.287,177.386 318.5,171.5 Z"/></g>
<g><path style="opacity:0.937" fill="#ffa300" d="M 139.5,211.5 C 139.833,211.5 140.167,211.5 140.5,211.5C 141.494,217.796 142.16,224.13 142.5,230.5C 145.856,229.862 147.856,231.196 148.5,234.5C 147.833,234.833 147.167,235.167 146.5,235.5C 145.379,232.953 143.712,231.953 141.5,232.5C 140.395,225.551 139.728,218.551 139.5,211.5 Z"/></g>
<g><path style="opacity:1" fill="#fef880" d="M 268.5,209.5 C 268.5,209.833 268.5,210.167 268.5,210.5C 260.665,220.506 252.999,230.673 245.5,241C 237.143,240.499 228.809,239.499 220.5,238C 227.125,236.955 233.792,236.289 240.5,236C 250.005,227.328 259.338,218.495 268.5,209.5 Z"/></g>
<g><path style="opacity:1" fill="#ffcc00" d="M 284.5,211.5 C 285.389,216.728 286.722,221.728 288.5,226.5C 288.369,227.239 288.536,227.906 289,228.5C 291.037,226.294 293.203,224.294 295.5,222.5C 292.467,226.21 289.8,230.21 287.5,234.5C 286.25,234.423 285.417,233.756 285,232.5C 284.639,229.475 284.139,226.475 283.5,223.5C 284.024,219.351 284.357,215.351 284.5,211.5 Z"/></g>
<g><path style="opacity:1" fill="#fe4d00" d="M 171.5,226.5 C 171.5,226.833 171.5,227.167 171.5,227.5C 172.21,229.746 172.71,232.08 173,234.5C 173.333,232.833 173.667,231.167 174,229.5C 187.065,238.746 200.232,247.746 213.5,256.5C 217.46,259.823 221.46,263.156 225.5,266.5C 226.368,272.472 227.201,278.472 228,284.5C 231.171,288.171 234.671,291.504 238.5,294.5C 238.215,299.261 238.215,303.761 238.5,308C 236.428,312.349 235.928,316.849 237,321.5C 236.667,320.833 236.333,320.167 236,319.5C 233.709,321.94 233.209,324.607 234.5,327.5C 232.995,331 231.495,330.666 230,326.5C 229.716,328.886 228.716,329.552 227,328.5C 227.353,326.772 227.519,325.106 227.5,323.5C 226.86,320.352 225.86,320.019 224.5,322.5C 223.914,322.291 223.414,321.957 223,321.5C 222.544,322.744 223.044,323.577 224.5,324C 222.954,325.44 222.121,327.273 222,329.5C 220.913,327.068 220.413,327.402 220.5,330.5C 218.738,330.357 217.071,330.691 215.5,331.5C 214.289,330.726 214.289,329.893 215.5,329C 214.167,328.333 212.833,327.667 211.5,327C 212.956,326.577 213.456,325.744 213,324.5C 211.667,325.833 210.333,325.833 209,324.5C 208.641,327.544 207.974,327.878 207,325.5C 206.641,328.544 205.974,328.878 205,326.5C 204.048,329.301 203.882,331.967 204.5,334.5C 201.571,329.901 197.904,325.901 193.5,322.5C 189.876,316.385 185.71,310.718 181,305.5C 179.224,289.527 177.557,273.527 176,257.5C 175.506,259.134 175.34,260.801 175.5,262.5C 174.677,259.023 174.177,255.356 174,251.5C 173.692,252.308 173.192,252.975 172.5,253.5C 171.5,252.833 170.5,252.167 169.5,251.5C 168.338,256.128 167.338,260.794 166.5,265.5C 166.247,259.321 166.08,253.321 166,247.5C 165.333,248.833 164.667,248.833 164,247.5C 163.676,249.569 162.842,249.902 161.5,248.5C 158.885,248.856 157.052,250.189 156,252.5C 155.377,249.474 154.21,247.474 152.5,246.5C 151.984,242.25 150.651,238.25 148.5,234.5C 147.856,231.196 145.856,229.862 142.5,230.5C 142.16,224.13 141.494,217.796 140.5,211.5C 140.369,210.761 140.536,210.094 141,209.5C 141.743,211.645 142.576,211.811 143.5,210C 143.382,208.101 143.882,206.267 145,204.5C 146.774,210.553 149.941,215.72 154.5,220C 160.069,222.007 164.236,225.507 167,230.5C 167.195,228.793 167.195,227.126 167,225.5C 167.667,226.167 168.333,226.833 169,227.5C 169.342,225.381 170.175,225.047 171.5,226.5 Z"/></g>
<g><path style="opacity:0.996" fill="#ff6b00" d="M 339.5,233.5 C 338.502,246.174 336.169,258.84 332.5,271.5C 329.585,274.959 326.252,277.959 322.5,280.5C 322.062,280.565 321.728,280.399 321.5,280C 324.572,277.049 327.739,274.216 331,271.5C 333.94,258.85 336.773,246.183 339.5,233.5 Z"/></g>
<g><path style="opacity:1" fill="#ff5e00" d="M 287.5,237.5 C 283.913,261.282 280.247,284.948 276.5,308.5C 276.664,305.813 276.497,303.146 276,300.5C 273.684,299.633 271.684,300.299 270,302.5C 267.812,305.567 265.645,308.567 263.5,311.5C 264.551,308.383 263.885,305.55 261.5,303C 261.667,302.167 261.833,301.333 262,300.5C 263.666,301.34 263.833,300.84 262.5,299C 263.471,297.796 264.471,297.296 265.5,297.5C 264.833,296.833 264.167,296.167 263.5,295.5C 263.938,294.494 264.604,294.494 265.5,295.5C 267.02,294.15 267.687,292.817 267.5,291.5C 268.262,292.628 268.929,293.795 269.5,295C 268.483,296.049 268.316,297.216 269,298.5C 270.257,296.321 271.757,294.321 273.5,292.5C 272.952,290.459 272.785,288.126 273,285.5C 273.667,286.167 274.333,286.833 275,287.5C 273.961,283.949 274.961,280.949 278,278.5C 278.333,278.833 278.667,279.167 279,279.5C 280.711,274.953 281.378,270.286 281,265.5C 280.667,266.167 280.333,266.833 280,267.5C 279.667,265.167 279.333,262.833 279,260.5C 278.232,263.863 277.399,267.53 276.5,271.5C 275.207,269.783 273.374,268.116 271,266.5C 268.907,269.044 267.907,272.044 268,275.5C 266.667,276.167 265.333,276.833 264,277.5C 263.654,279.218 263.154,280.885 262.5,282.5C 263.723,283.614 265.056,283.781 266.5,283C 266.57,281.376 267.07,279.543 268,277.5C 268.667,281.5 268.667,285.5 268,289.5C 266.647,288.315 265.48,286.981 264.5,285.5C 263.349,284.269 262.183,284.269 261,285.5C 260.167,284.667 259.333,283.833 258.5,283C 259.406,281.301 259.739,279.467 259.5,277.5C 258.448,277.351 257.448,277.517 256.5,278C 256.833,278.333 257.167,278.667 257.5,279C 256.5,279.833 255.5,280.667 254.5,281.5C 254.723,282.967 255.056,284.467 255.5,286C 253.359,287.308 251.359,288.808 249.5,290.5C 248.999,288.345 247.999,286.678 246.5,285.5C 246.264,282.774 247.097,280.441 249,278.5C 261.044,264.627 272.877,250.627 284.5,236.5C 285.117,236.389 285.617,236.056 286,235.5C 286.278,236.416 286.778,237.082 287.5,237.5 Z"/></g>
<g><path style="opacity:0.063" fill="#ff8900" d="M 144.5,259.5 C 143.18,252.945 142.513,246.278 142.5,239.5C 142.34,237.801 142.506,236.134 143,234.5C 143.448,239.53 144.114,244.53 145,249.5C 145.808,253.027 145.641,256.36 144.5,259.5 Z"/></g>
<g><path style="opacity:1" fill="#ff7e00" d="M 148.5,234.5 C 150.651,238.25 151.984,242.25 152.5,246.5C 153.668,251.158 154.501,255.824 155,260.5C 152.12,253.774 150.12,246.774 149,239.5C 148.338,238.016 147.504,236.683 146.5,235.5C 147.167,235.167 147.833,234.833 148.5,234.5 Z"/></g>
<g><path style="opacity:1" fill="#fe4500" d="M 146.5,235.5 C 147.504,236.683 148.338,238.016 149,239.5C 150.12,246.774 152.12,253.774 155,260.5C 154.501,255.824 153.668,251.158 152.5,246.5C 154.21,247.474 155.377,249.474 156,252.5C 157.052,250.189 158.885,248.856 161.5,248.5C 162.842,249.902 163.676,249.569 164,247.5C 164.667,248.833 165.333,248.833 166,247.5C 166.08,253.321 166.247,259.321 166.5,265.5C 167.338,260.794 168.338,256.128 169.5,251.5C 170.5,252.167 171.5,252.833 172.5,253.5C 173.192,252.975 173.692,252.308 174,251.5C 174.177,255.356 174.677,259.023 175.5,262.5C 177.199,282.853 178.865,303.186 180.5,323.5C 180.401,326.237 180.735,328.904 181.5,331.5C 182.376,345.256 183.709,358.923 185.5,372.5C 185.5,373.5 185.5,374.5 185.5,375.5C 184.609,374.89 183.609,374.557 182.5,374.5C 174.245,364.345 165.745,354.345 157,344.5C 155.297,338.619 154.131,332.619 153.5,326.5C 151.047,304.499 148.547,282.499 146,260.5C 145.503,262.81 145.337,265.143 145.5,267.5C 144.527,265.052 144.194,262.385 144.5,259.5C 145.641,256.36 145.808,253.027 145,249.5C 144.114,244.53 143.448,239.53 143,234.5C 142.506,236.134 142.34,237.801 142.5,239.5C 141.532,237.393 141.198,235.059 141.5,232.5C 143.712,231.953 145.379,232.953 146.5,235.5 Z"/></g>
<g><path style="opacity:1" fill="#ff5400" d="M 263.5,311.5 C 262.017,313.094 260.517,314.76 259,316.5C 258.333,315.833 257.667,315.167 257,314.5C 257.207,316.751 257.373,319.085 257.5,321.5C 255.319,321.284 253.653,322.117 252.5,324C 255.167,324.667 255.167,325.333 252.5,326C 253.022,326.561 253.355,327.228 253.5,328C 252.124,330.398 250.458,332.564 248.5,334.5C 247.226,331.633 246.393,328.633 246,325.5C 245.691,326.766 245.191,327.933 244.5,329C 245.283,331.513 245.617,334.18 245.5,337C 244.874,337.75 244.374,338.584 244,339.5C 242.064,337.192 241.231,334.525 241.5,331.5C 242.523,323.85 243.023,316.184 243,308.5C 241.69,316.12 240.857,323.786 240.5,331.5C 238.386,332.907 236.886,334.907 236,337.5C 235.316,338.784 235.483,339.951 236.5,341C 233.526,342.506 233.193,344.172 235.5,346C 234.299,346.903 233.465,348.069 233,349.5C 230.635,348.711 228.468,347.544 226.5,346C 227.784,344.703 227.617,343.536 226,342.5C 225.275,344.158 224.108,344.658 222.5,344C 223.258,342.636 222.758,341.469 221,340.5C 219.667,343.167 218.333,343.167 217,340.5C 215.53,341.267 214.03,341.933 212.5,342.5C 208.833,340.833 206.167,338.167 204.5,334.5C 203.882,331.967 204.048,329.301 205,326.5C 205.974,328.878 206.641,328.544 207,325.5C 207.974,327.878 208.641,327.544 209,324.5C 210.333,325.833 211.667,325.833 213,324.5C 213.456,325.744 212.956,326.577 211.5,327C 212.833,327.667 214.167,328.333 215.5,329C 214.289,329.893 214.289,330.726 215.5,331.5C 217.071,330.691 218.738,330.357 220.5,330.5C 220.413,327.402 220.913,327.068 222,329.5C 222.121,327.273 222.954,325.44 224.5,324C 223.044,323.577 222.544,322.744 223,321.5C 223.414,321.957 223.914,322.291 224.5,322.5C 225.86,320.019 226.86,320.352 227.5,323.5C 227.519,325.106 227.353,326.772 227,328.5C 228.716,329.552 229.716,328.886 230,326.5C 231.495,330.666 232.995,331 234.5,327.5C 233.209,324.607 233.709,321.94 236,319.5C 236.333,320.167 236.667,320.833 237,321.5C 235.928,316.849 236.428,312.349 238.5,308C 238.215,303.761 238.215,299.261 238.5,294.5C 234.671,291.504 231.171,288.171 228,284.5C 227.201,278.472 226.368,272.472 225.5,266.5C 228.752,267.459 231.752,268.959 234.5,271C 237.703,274.371 241.036,277.538 244.5,280.5C 244.094,289.174 243.927,297.841 244,306.5C 244.58,299.446 245.413,292.446 246.5,285.5C 247.999,286.678 248.999,288.345 249.5,290.5C 251.359,288.808 253.359,287.308 255.5,286C 255.056,284.467 254.723,282.967 254.5,281.5C 255.5,280.667 256.5,279.833 257.5,279C 257.167,278.667 256.833,278.333 256.5,278C 257.448,277.517 258.448,277.351 259.5,277.5C 259.739,279.467 259.406,281.301 258.5,283C 259.333,283.833 260.167,284.667 261,285.5C 262.183,284.269 263.349,284.269 264.5,285.5C 265.48,286.981 266.647,288.315 268,289.5C 268.667,285.5 268.667,281.5 268,277.5C 267.07,279.543 266.57,281.376 266.5,283C 265.056,283.781 263.723,283.614 262.5,282.5C 263.154,280.885 263.654,279.218 264,277.5C 265.333,276.833 266.667,276.167 268,275.5C 267.907,272.044 268.907,269.044 271,266.5C 273.374,268.116 275.207,269.783 276.5,271.5C 277.399,267.53 278.232,263.863 279,260.5C 279.333,262.833 279.667,265.167 280,267.5C 280.333,266.833 280.667,266.167 281,265.5C 281.378,270.286 280.711,274.953 279,279.5C 278.667,279.167 278.333,278.833 278,278.5C 274.961,280.949 273.961,283.949 275,287.5C 274.333,286.833 273.667,286.167 273,285.5C 272.785,288.126 272.952,290.459 273.5,292.5C 271.757,294.321 270.257,296.321 269,298.5C 268.316,297.216 268.483,296.049 269.5,295C 268.929,293.795 268.262,292.628 267.5,291.5C 267.687,292.817 267.02,294.15 265.5,295.5C 264.604,294.494 263.938,294.494 263.5,295.5C 264.167,296.167 264.833,296.833 265.5,297.5C 264.471,297.296 263.471,297.796 262.5,299C 263.833,300.84 263.666,301.34 262,300.5C 261.833,301.333 261.667,302.167 261.5,303C 263.885,305.55 264.551,308.383 263.5,311.5 Z"/></g>
<g><path style="opacity:0.063" fill="#ff8000" d="M 153.5,326.5 C 152.566,327.568 152.232,328.901 152.5,330.5C 149.523,309.711 147.19,288.711 145.5,267.5C 145.337,265.143 145.503,262.81 146,260.5C 148.547,282.499 151.047,304.499 153.5,326.5 Z"/></g>
<g><path style="opacity:1" fill="#ff5200" d="M 276.5,308.5 C 274.71,319.034 272.877,329.701 271,340.5C 270.377,336.068 269.377,335.735 268,339.5C 265.468,338.994 263.302,337.827 261.5,336C 262.167,335.667 262.833,335.333 263.5,335C 262.773,333.601 262.273,332.101 262,330.5C 261.581,331.672 260.915,332.672 260,333.5C 259.333,328.167 259.333,322.833 260,317.5C 261.947,315.937 263.114,313.937 263.5,311.5C 265.645,308.567 267.812,305.567 270,302.5C 271.684,300.299 273.684,299.633 276,300.5C 276.497,303.146 276.664,305.813 276.5,308.5 Z"/></g>
<g><path style="opacity:1" fill="#ff8a00" d="M 193.5,322.5 C 192.833,322.5 192.5,322.833 192.5,323.5C 189.824,322.039 188.324,319.706 188,316.5C 186.202,314.028 183.868,312.361 181,311.5C 181.406,315.662 181.239,319.662 180.5,323.5C 178.865,303.186 177.199,282.853 175.5,262.5C 175.34,260.801 175.506,259.134 176,257.5C 177.557,273.527 179.224,289.527 181,305.5C 185.71,310.718 189.876,316.385 193.5,322.5 Z"/></g>
<g><path style="opacity:1" fill="#fe5500" d="M 192.5,323.5 C 194.463,324.96 196.296,326.627 198,328.5C 200.926,334.026 204.093,339.359 207.5,344.5C 206.504,344.586 205.671,344.252 205,343.5C 204,345.167 203,346.833 202,348.5C 201.667,347.167 201.333,345.833 201,344.5C 200.692,345.308 200.192,345.975 199.5,346.5C 197.575,346.163 196.075,344.83 195,342.5C 191.841,343.745 192.007,344.912 195.5,346C 193.402,346.014 191.569,345.847 190,345.5C 189.5,346.667 188.667,347.5 187.5,348C 187.833,348.333 188.167,348.667 188.5,349C 187.584,349.374 186.75,349.874 186,350.5C 185.95,348.256 185.117,346.589 183.5,345.5C 183.187,340.647 182.521,335.98 181.5,331.5C 180.735,328.904 180.401,326.237 180.5,323.5C 181.239,319.662 181.406,315.662 181,311.5C 183.868,312.361 186.202,314.028 188,316.5C 188.324,319.706 189.824,322.039 192.5,323.5 Z"/></g>
<g><path style="opacity:1" fill="#ff5b00" d="M 352.5,295.5 C 343.15,313.534 333.817,331.534 324.5,349.5C 324.724,347.213 325.391,345.047 326.5,343C 326.164,341.97 325.497,341.47 324.5,341.5C 328.031,331.411 331.864,321.411 336,311.5C 340.955,305.841 345.955,300.174 351,294.5C 351.383,295.056 351.883,295.389 352.5,295.5 Z"/></g>
<g><path style="opacity:1" fill="#ffa300" d="M 241.5,331.5 C 241.167,331.5 240.833,331.5 240.5,331.5C 240.857,323.786 241.69,316.12 243,308.5C 243.023,316.184 242.523,323.85 241.5,331.5 Z"/></g>
<g><path style="opacity:1" fill="#fe3900" d="M 332.5,271.5 C 333.955,277.651 334.621,283.818 334.5,290C 333.151,290.772 332.318,291.939 332,293.5C 331.333,292.167 330.667,292.167 330,293.5C 329.768,297.555 329.268,301.555 328.5,305.5C 328.709,306.086 329.043,306.586 329.5,307C 327.21,307.79 326.877,309.124 328.5,311C 326.286,313.458 323.619,315.458 320.5,317C 317.138,322.539 312.471,326.372 306.5,328.5C 311.129,328.745 314.962,326.745 318,322.5C 317.04,325.245 318.207,326.745 321.5,327C 320.275,330.621 318.608,333.955 316.5,337C 316.833,337.333 317.167,337.667 317.5,338C 315.96,339.851 314.46,341.018 313,341.5C 312.667,340.833 312.333,340.167 312,339.5C 311.915,341.085 311.749,342.418 311.5,343.5C 310.749,342.624 310.249,341.624 310,340.5C 308.681,342.25 308.181,344.25 308.5,346.5C 305.348,346.047 302.848,347.047 301,349.5C 299.984,348.366 299.317,348.699 299,350.5C 296.512,349.588 294.845,350.588 294,353.5C 293.333,352.5 293.333,351.5 294,350.5C 295.353,349.315 296.52,347.981 297.5,346.5C 295.173,346.956 293.339,348.623 292,351.5C 291.667,350.833 291.333,350.167 291,349.5C 290.374,351.991 289.541,351.991 288.5,349.5C 286.528,350.305 285.028,351.639 284,353.5C 284.962,348.476 283.295,347.476 279,350.5C 277.956,349.377 277.29,348.044 277,346.5C 276.026,348.878 275.359,348.544 275,345.5C 273.956,347.715 273.29,350.048 273,352.5C 272.667,352.167 272.333,351.833 272,351.5C 271.768,352.737 271.268,353.737 270.5,354.5C 272.503,340.144 274.503,325.811 276.5,311.5C 277.317,313.969 277.817,316.635 278,319.5C 292.434,305.89 307.267,292.89 322.5,280.5C 326.252,277.959 329.585,274.959 332.5,271.5 Z"/></g>
<g><path style="opacity:1" fill="#ffa600" d="M 181.5,331.5 C 182.521,335.98 183.187,340.647 183.5,345.5C 184.562,352.788 185.229,360.121 185.5,367.5C 186.301,369.042 186.634,370.708 186.5,372.5C 186.167,372.5 185.833,372.5 185.5,372.5C 183.709,358.923 182.376,345.256 181.5,331.5 Z"/></g>
<g><path style="opacity:1" fill="#ff5e00" d="M 276.5,308.5 C 276.5,309.5 276.5,310.5 276.5,311.5C 274.503,325.811 272.503,340.144 270.5,354.5C 269.715,356.374 269.048,358.374 268.5,360.5C 267.5,361.167 266.5,361.833 265.5,362.5C 264.469,361.645 263.303,360.978 262,360.5C 258.785,361.634 255.618,361.3 252.5,359.5C 250.747,361.632 248.58,363.299 246,364.5C 245.308,363.975 244.808,363.308 244.5,362.5C 245.64,360.922 246.14,359.256 246,357.5C 244.515,360.3 242.849,362.966 241,365.5C 240.005,364.934 239.172,364.267 238.5,363.5C 239.429,354.175 239.929,344.841 240,335.5C 238.827,345.561 237.327,355.561 235.5,365.5C 229.686,358.518 223.686,351.685 217.5,345C 215.509,344.626 213.842,343.793 212.5,342.5C 214.03,341.933 215.53,341.267 217,340.5C 218.333,343.167 219.667,343.167 221,340.5C 222.758,341.469 223.258,342.636 222.5,344C 224.108,344.658 225.275,344.158 226,342.5C 227.617,343.536 227.784,344.703 226.5,346C 228.468,347.544 230.635,348.711 233,349.5C 233.465,348.069 234.299,346.903 235.5,346C 233.193,344.172 233.526,342.506 236.5,341C 235.483,339.951 235.316,338.784 236,337.5C 236.886,334.907 238.386,332.907 240.5,331.5C 240.833,331.5 241.167,331.5 241.5,331.5C 241.231,334.525 242.064,337.192 244,339.5C 244.374,338.584 244.874,337.75 245.5,337C 245.617,334.18 245.283,331.513 244.5,329C 245.191,327.933 245.691,326.766 246,325.5C 246.393,328.633 247.226,331.633 248.5,334.5C 250.458,332.564 252.124,330.398 253.5,328C 253.355,327.228 253.022,326.561 252.5,326C 255.167,325.333 255.167,324.667 252.5,324C 253.653,322.117 255.319,321.284 257.5,321.5C 257.373,319.085 257.207,316.751 257,314.5C 257.667,315.167 258.333,315.833 259,316.5C 260.517,314.76 262.017,313.094 263.5,311.5C 263.114,313.937 261.947,315.937 260,317.5C 259.333,322.833 259.333,328.167 260,333.5C 260.915,332.672 261.581,331.672 262,330.5C 262.273,332.101 262.773,333.601 263.5,335C 262.833,335.333 262.167,335.667 261.5,336C 263.302,337.827 265.468,338.994 268,339.5C 269.377,335.735 270.377,336.068 271,340.5C 272.877,329.701 274.71,319.034 276.5,308.5 Z"/></g>
<g><path style="opacity:1" fill="#ff6700" d="M 207.5,344.5 C 210.62,345.86 213.953,346.693 217.5,347C 222.027,351.892 226.193,357.059 230,362.5C 230.495,364.473 230.662,366.473 230.5,368.5C 229.062,366.407 227.062,365.073 224.5,364.5C 223.353,364.818 222.519,365.484 222,366.5C 220.333,365.5 218.667,364.5 217,363.5C 212.54,363.714 208.04,364.048 203.5,364.5C 202.201,363.91 201.368,362.91 201,361.5C 200.667,362.833 200.333,364.167 200,365.5C 196.935,364.589 194.102,364.589 191.5,365.5C 190.749,366.376 190.249,367.376 190,368.5C 188.532,366.964 187.032,366.63 185.5,367.5C 185.229,360.121 184.562,352.788 183.5,345.5C 185.117,346.589 185.95,348.256 186,350.5C 186.75,349.874 187.584,349.374 188.5,349C 188.167,348.667 187.833,348.333 187.5,348C 188.667,347.5 189.5,346.667 190,345.5C 191.569,345.847 193.402,346.014 195.5,346C 192.007,344.912 191.841,343.745 195,342.5C 196.075,344.83 197.575,346.163 199.5,346.5C 200.192,345.975 200.692,345.308 201,344.5C 201.333,345.833 201.667,347.167 202,348.5C 203,346.833 204,345.167 205,343.5C 205.671,344.252 206.504,344.586 207.5,344.5 Z"/></g>
<g><path style="opacity:1" fill="#ff7600" d="M 265.5,362.5 C 261.343,368.137 257.176,373.804 253,379.5C 250.667,381.833 248.333,384.167 246,386.5C 245.667,385.833 245.333,385.167 245,384.5C 244.261,385.574 243.261,386.241 242,386.5C 240.31,385.851 238.477,385.851 236.5,386.5C 236.334,382.154 236.501,377.821 237,373.5C 237.972,371.695 239.139,370.028 240.5,368.5C 240.062,367.494 239.396,367.494 238.5,368.5C 237.212,366.701 237.212,365.035 238.5,363.5C 239.172,364.267 240.005,364.934 241,365.5C 242.849,362.966 244.515,360.3 246,357.5C 246.14,359.256 245.64,360.922 244.5,362.5C 244.808,363.308 245.308,363.975 246,364.5C 248.58,363.299 250.747,361.632 252.5,359.5C 255.618,361.3 258.785,361.634 262,360.5C 263.303,360.978 264.469,361.645 265.5,362.5 Z"/></g>
<g><path style="opacity:1" fill="#ff8000" d="M 230.5,368.5 C 232.267,370.792 233.267,373.458 233.5,376.5C 233.938,379.893 233.105,382.893 231,385.5C 230.691,384.234 230.191,383.067 229.5,382C 227.324,381.837 225.491,381.004 224,379.5C 219.699,377.299 214.866,375.299 209.5,373.5C 207.671,374.282 206.171,373.616 205,371.5C 205.667,373.5 206.333,375.5 207,377.5C 201.38,376.864 195.547,376.864 189.5,377.5C 188.735,376.388 187.735,375.721 186.5,375.5C 186.5,374.5 186.5,373.5 186.5,372.5C 186.634,370.708 186.301,369.042 185.5,367.5C 187.032,366.63 188.532,366.964 190,368.5C 190.249,367.376 190.749,366.376 191.5,365.5C 194.102,364.589 196.935,364.589 200,365.5C 200.333,364.167 200.667,362.833 201,361.5C 201.368,362.91 202.201,363.91 203.5,364.5C 208.04,364.048 212.54,363.714 217,363.5C 218.667,364.5 220.333,365.5 222,366.5C 222.519,365.484 223.353,364.818 224.5,364.5C 227.062,365.073 229.062,366.407 230.5,368.5 Z"/></g>
<g><path style="opacity:0.999" fill="#ff9600" d="M 153.5,326.5 C 154.131,332.619 155.297,338.619 157,344.5C 165.745,354.345 174.245,364.345 182.5,374.5C 181.209,375.542 181.209,376.708 182.5,378C 180.685,379.676 178.851,380.509 177,380.5C 176.833,377.667 175.333,376.167 172.5,376C 171.333,374.167 170.167,372.333 169,370.5C 168.601,370.728 168.435,371.062 168.5,371.5C 163.441,362.385 158.608,353.052 154,343.5C 152.805,339.249 152.305,334.915 152.5,330.5C 152.232,328.901 152.566,327.568 153.5,326.5 Z"/></g>
<g><path style="opacity:1" fill="#ffa600" d="M 192.5,323.5 C 192.5,322.833 192.833,322.5 193.5,322.5C 197.904,325.901 201.571,329.901 204.5,334.5C 206.167,338.167 208.833,340.833 212.5,342.5C 213.842,343.793 215.509,344.626 217.5,345C 223.686,351.685 229.686,358.518 235.5,365.5C 237.327,355.561 238.827,345.561 240,335.5C 239.929,344.841 239.429,354.175 238.5,363.5C 237.212,365.035 237.212,366.701 238.5,368.5C 239.396,367.494 240.062,367.494 240.5,368.5C 239.139,370.028 237.972,371.695 237,373.5C 236.501,377.821 236.334,382.154 236.5,386.5C 238.477,385.851 240.31,385.851 242,386.5C 243.261,386.241 244.261,385.574 245,384.5C 245.333,385.167 245.667,385.833 246,386.5C 248.333,384.167 250.667,381.833 253,379.5C 257.176,373.804 261.343,368.137 265.5,362.5C 266.5,361.833 267.5,361.167 268.5,360.5C 268.5,364.5 268.5,368.5 268.5,372.5C 265.472,379.29 262.472,385.957 259.5,392.5C 259.5,391.833 259.167,391.5 258.5,391.5C 257.068,393.327 255.401,394.994 253.5,396.5C 250.864,395.029 248.364,393.363 246,391.5C 246,390.167 246,388.833 246,387.5C 244.25,389.734 242.75,392.068 241.5,394.5C 241.502,400.523 241.835,406.523 242.5,412.5C 241.659,413.009 241.159,412.343 241,410.5C 238.812,411.447 236.478,411.447 234,410.5C 233.821,406.975 233.321,403.641 232.5,400.5C 234.181,392.403 234.515,384.403 233.5,376.5C 233.267,373.458 232.267,370.792 230.5,368.5C 230.662,366.473 230.495,364.473 230,362.5C 226.193,357.059 222.027,351.892 217.5,347C 213.953,346.693 210.62,345.86 207.5,344.5C 204.093,339.359 200.926,334.026 198,328.5C 196.296,326.627 194.463,324.96 192.5,323.5 Z"/></g>
<g><path style="opacity:1" fill="#ff7a00" d="M 324.5,341.5 C 325.497,341.47 326.164,341.97 326.5,343C 325.391,345.047 324.724,347.213 324.5,349.5C 320.419,359.343 315.086,368.343 308.5,376.5C 308.631,375.761 308.464,375.094 308,374.5C 301.868,379.299 296.368,384.799 291.5,391C 286.543,395.393 281.043,398.893 275,401.5C 271.788,401.041 268.288,400.541 264.5,400C 263.663,398.989 263.33,397.822 263.5,396.5C 262.167,396.5 260.833,396.5 259.5,396.5C 259.762,397.978 259.429,399.311 258.5,400.5C 257.893,400.376 257.56,400.043 257.5,399.5C 258.167,397.167 258.833,394.833 259.5,392.5C 262.472,385.957 265.472,379.29 268.5,372.5C 284.169,368.002 299.835,363.168 315.5,358C 318.893,352.713 321.893,347.213 324.5,341.5 Z"/></g>
<g><path style="opacity:1" fill="#ff9500" d="M 233.5,376.5 C 234.515,384.403 234.181,392.403 232.5,400.5C 232.167,403.833 231.833,407.167 231.5,410.5C 231.167,410.5 230.833,410.5 230.5,410.5C 230.681,407.447 230.848,404.447 231,401.5C 227.292,398.157 223.625,394.824 220,391.5C 219.667,391.833 219.333,392.167 219,392.5C 217.414,390.33 216.08,387.996 215,385.5C 214.667,388.167 214.333,390.833 214,393.5C 213.632,392.09 212.799,391.09 211.5,390.5C 208.947,390.706 206.447,391.039 204,391.5C 201.147,390.125 198.481,388.458 196,386.5C 195.722,387.416 195.222,388.082 194.5,388.5C 192.582,385.974 190.249,383.974 187.5,382.5C 187.552,380.097 187.219,377.764 186.5,375.5C 187.735,375.721 188.735,376.388 189.5,377.5C 195.547,376.864 201.38,376.864 207,377.5C 206.333,375.5 205.667,373.5 205,371.5C 206.171,373.616 207.671,374.282 209.5,373.5C 214.866,375.299 219.699,377.299 224,379.5C 225.491,381.004 227.324,381.837 229.5,382C 230.191,383.067 230.691,384.234 231,385.5C 233.105,382.893 233.938,379.893 233.5,376.5 Z"/></g>
<g><path style="opacity:1" fill="#ffab00" d="M 182.5,374.5 C 183.609,374.557 184.609,374.89 185.5,375.5C 185.935,383.015 186.601,390.515 187.5,398C 187.167,399.5 186.833,401 186.5,402.5C 185.351,400.075 184.684,400.075 184.5,402.5C 178.42,392.676 173.087,382.343 168.5,371.5C 168.435,371.062 168.601,370.728 169,370.5C 170.167,372.333 171.333,374.167 172.5,376C 175.333,376.167 176.833,377.667 177,380.5C 178.851,380.509 180.685,379.676 182.5,378C 181.209,376.708 181.209,375.542 182.5,374.5 Z"/></g>
<g><path style="opacity:1" fill="#ffa200" d="M 230.5,410.5 C 228.958,409.699 227.292,409.366 225.5,409.5C 224.777,404.387 222.277,400.387 218,397.5C 217.667,396.5 217.333,395.5 217,394.5C 216.257,396.441 216.424,398.274 217.5,400C 213.866,402.093 210.366,401.593 207,398.5C 205.89,400.037 204.39,400.703 202.5,400.5C 199.35,396.881 196.684,392.881 194.5,388.5C 195.222,388.082 195.722,387.416 196,386.5C 198.481,388.458 201.147,390.125 204,391.5C 206.447,391.039 208.947,390.706 211.5,390.5C 212.799,391.09 213.632,392.09 214,393.5C 214.333,390.833 214.667,388.167 215,385.5C 216.08,387.996 217.414,390.33 219,392.5C 219.333,392.167 219.667,391.833 220,391.5C 223.625,394.824 227.292,398.157 231,401.5C 230.848,404.447 230.681,407.447 230.5,410.5 Z"/></g>
<g><path style="opacity:1" fill="#ffbf00" d="M 258.5,391.5 C 256.369,397.892 254.035,404.226 251.5,410.5C 250.808,409.975 250.308,409.308 250,408.5C 247.728,409.24 245.728,409.24 244,408.5C 243.646,403.611 242.813,398.944 241.5,394.5C 242.75,392.068 244.25,389.734 246,387.5C 246,388.833 246,390.167 246,391.5C 248.364,393.363 250.864,395.029 253.5,396.5C 255.401,394.994 257.068,393.327 258.5,391.5 Z"/></g>
<g><path style="opacity:1" fill="#ff9a00" d="M 308.5,376.5 C 304.732,383.048 300.732,389.381 296.5,395.5C 293.933,397.454 291.266,399.287 288.5,401C 287.107,402.171 286.273,403.671 286,405.5C 285.667,405.167 285.333,404.833 285,404.5C 274.213,409.954 264.546,416.954 256,425.5C 255.667,425.167 255.333,424.833 255,424.5C 253.239,428.051 250.572,429.051 247,427.5C 245.667,428.167 244.667,429.167 244,430.5C 243.601,430.272 243.435,429.938 243.5,429.5C 244.498,422.329 247.664,416.329 253,411.5C 254.63,407.429 256.13,403.429 257.5,399.5C 257.56,400.043 257.893,400.376 258.5,400.5C 259.429,399.311 259.762,397.978 259.5,396.5C 260.833,396.5 262.167,396.5 263.5,396.5C 263.33,397.822 263.663,398.989 264.5,400C 268.288,400.541 271.788,401.041 275,401.5C 281.043,398.893 286.543,395.393 291.5,391C 296.368,384.799 301.868,379.299 308,374.5C 308.464,375.094 308.631,375.761 308.5,376.5 Z"/></g>
<g><path style="opacity:1" fill="#ffc300" d="M 187.5,382.5 C 190.249,383.974 192.582,385.974 194.5,388.5C 196.684,392.881 199.35,396.881 202.5,400.5C 206.833,406.5 211.167,412.5 215.5,418.5C 214.903,418.735 214.57,419.235 214.5,420C 215.741,421.731 216.741,423.564 217.5,425.5C 217.539,426.756 217.039,427.756 216,428.5C 214.833,427.333 213.667,426.167 212.5,425C 211.551,424.383 210.718,424.549 210,425.5C 206.94,422.386 203.44,419.886 199.5,418C 199.833,417.667 200.167,417.333 200.5,417C 196.6,415.431 194.1,412.598 193,408.5C 192.667,408.833 192.333,409.167 192,409.5C 191.333,408.167 190.333,407.167 189,406.5C 188.61,398.486 188.11,390.486 187.5,382.5 Z"/></g>
<g><path style="opacity:1" fill="#ffb100" d="M 230.5,410.5 C 230.833,410.5 231.167,410.5 231.5,410.5C 231.518,414.446 230.518,418.112 228.5,421.5C 227.14,419.019 226.14,419.352 225.5,422.5C 224.675,423.386 223.675,423.719 222.5,423.5C 222.5,422.5 222.5,421.5 222.5,420.5C 220.079,420.122 217.746,419.455 215.5,418.5C 211.167,412.5 206.833,406.5 202.5,400.5C 204.39,400.703 205.89,400.037 207,398.5C 210.366,401.593 213.866,402.093 217.5,400C 216.424,398.274 216.257,396.441 217,394.5C 217.333,395.5 217.667,396.5 218,397.5C 222.277,400.387 224.777,404.387 225.5,409.5C 227.292,409.366 228.958,409.699 230.5,410.5 Z"/></g>
<g><path style="opacity:1" fill="#ffa800" d="M 296.5,395.5 C 291.678,403.332 286.678,410.999 281.5,418.5C 281.631,417.761 281.464,417.094 281,416.5C 276.667,418.167 273.667,421.167 272,425.5C 271.667,425.167 271.333,424.833 271,424.5C 269.255,425.956 267.422,427.289 265.5,428.5C 265.002,427.397 264.669,426.397 264.5,425.5C 261.762,428.904 258.429,431.571 254.5,433.5C 252.81,437.345 249.643,440.345 245,442.5C 243.701,442.034 242.201,442.034 240.5,442.5C 240.762,443.978 240.429,445.311 239.5,446.5C 238.571,447.55 237.905,447.55 237.5,446.5C 238.167,443.833 238.833,441.167 239.5,438.5C 240.553,435.392 241.886,432.392 243.5,429.5C 243.435,429.938 243.601,430.272 244,430.5C 244.667,429.167 245.667,428.167 247,427.5C 250.572,429.051 253.239,428.051 255,424.5C 255.333,424.833 255.667,425.167 256,425.5C 264.546,416.954 274.213,409.954 285,404.5C 285.333,404.833 285.667,405.167 286,405.5C 286.273,403.671 287.107,402.171 288.5,401C 291.266,399.287 293.933,397.454 296.5,395.5 Z"/></g>
<g><path style="opacity:1" fill="#ffce00" d="M 185.5,372.5 C 185.833,372.5 186.167,372.5 186.5,372.5C 186.5,373.5 186.5,374.5 186.5,375.5C 187.219,377.764 187.552,380.097 187.5,382.5C 188.11,390.486 188.61,398.486 189,406.5C 190.333,407.167 191.333,408.167 192,409.5C 192.333,409.167 192.667,408.833 193,408.5C 194.1,412.598 196.6,415.431 200.5,417C 200.167,417.333 199.833,417.667 199.5,418C 203.44,419.886 206.94,422.386 210,425.5C 210.718,424.549 211.551,424.383 212.5,425C 213.667,426.167 214.833,427.333 216,428.5C 217.039,427.756 217.539,426.756 217.5,425.5C 221.557,430.59 225.39,435.923 229,441.5C 231.207,444.532 232.707,447.866 233.5,451.5C 232.166,457.694 229.332,462.361 225,465.5C 223.562,464.1 222.729,462.433 222.5,460.5C 221.167,460.5 219.833,460.5 218.5,460.5C 218.66,458.801 218.494,457.134 218,455.5C 213.144,447.774 208.31,440.107 203.5,432.5C 203.193,433.887 203.193,435.554 203.5,437.5C 195.9,426.64 189.566,414.974 184.5,402.5C 184.684,400.075 185.351,400.075 186.5,402.5C 186.833,401 187.167,399.5 187.5,398C 186.601,390.515 185.935,383.015 185.5,375.5C 185.5,374.5 185.5,373.5 185.5,372.5 Z"/></g>
<g><path style="opacity:0.999" fill="#ffb700" d="M 281.5,418.5 C 277.228,426.101 272.561,433.434 267.5,440.5C 266.133,439.147 265.133,439.481 264.5,441.5C 262.922,442.298 261.256,442.798 259.5,443C 254.919,446.91 251.086,451.41 248,456.5C 247.439,455.978 246.772,455.645 246,455.5C 242.746,456.118 239.579,457.118 236.5,458.5C 236.5,456.5 236.5,454.5 236.5,452.5C 236.205,450.265 236.539,448.265 237.5,446.5C 237.905,447.55 238.571,447.55 239.5,446.5C 240.429,445.311 240.762,443.978 240.5,442.5C 242.201,442.034 243.701,442.034 245,442.5C 249.643,440.345 252.81,437.345 254.5,433.5C 258.429,431.571 261.762,428.904 264.5,425.5C 264.669,426.397 265.002,427.397 265.5,428.5C 267.422,427.289 269.255,425.956 271,424.5C 271.333,424.833 271.667,425.167 272,425.5C 273.667,421.167 276.667,418.167 281,416.5C 281.464,417.094 281.631,417.761 281.5,418.5 Z"/></g>
<g><path style="opacity:1" fill="#ffc200" d="M 232.5,400.5 C 233.321,403.641 233.821,406.975 234,410.5C 236.478,411.447 238.812,411.447 241,410.5C 241.159,412.343 241.659,413.009 242.5,412.5C 243.609,414.586 244.276,416.92 244.5,419.5C 243.649,425.179 241.149,429.179 237,431.5C 236.667,430.5 236.333,429.5 236,428.5C 232.334,429.989 230.334,428.655 230,424.5C 229.333,427.167 228.667,429.833 228,432.5C 227.329,433.252 226.496,433.586 225.5,433.5C 222.415,428.328 219.081,423.328 215.5,418.5C 217.746,419.455 220.079,420.122 222.5,420.5C 222.5,421.5 222.5,422.5 222.5,423.5C 223.675,423.719 224.675,423.386 225.5,422.5C 226.14,419.352 227.14,419.019 228.5,421.5C 230.518,418.112 231.518,414.446 231.5,410.5C 231.833,407.167 232.167,403.833 232.5,400.5 Z"/></g>
<g><path style="opacity:1" fill="#ffd000" d="M 258.5,391.5 C 259.167,391.5 259.5,391.833 259.5,392.5C 258.833,394.833 258.167,397.167 257.5,399.5C 256.13,403.429 254.63,407.429 253,411.5C 247.664,416.329 244.498,422.329 243.5,429.5C 241.886,432.392 240.553,435.392 239.5,438.5C 237.937,440.617 236.604,442.95 235.5,445.5C 234.141,443.308 232.308,441.641 230,440.5C 229.16,437.659 227.66,435.325 225.5,433.5C 226.496,433.586 227.329,433.252 228,432.5C 228.667,429.833 229.333,427.167 230,424.5C 230.334,428.655 232.334,429.989 236,428.5C 236.333,429.5 236.667,430.5 237,431.5C 241.149,429.179 243.649,425.179 244.5,419.5C 244.276,416.92 243.609,414.586 242.5,412.5C 241.835,406.523 241.502,400.523 241.5,394.5C 242.813,398.944 243.646,403.611 244,408.5C 245.728,409.24 247.728,409.24 250,408.5C 250.308,409.308 250.808,409.975 251.5,410.5C 254.035,404.226 256.369,397.892 258.5,391.5 Z"/></g>
<g><path style="opacity:1" fill="#ffcc00" d="M 267.5,440.5 C 257.618,454.573 248.118,468.906 239,483.5C 235.659,487.825 233.159,487.491 231.5,482.5C 234.622,485.345 236.955,484.679 238.5,480.5C 237.47,480.446 236.303,480.112 235,479.5C 234.125,470.277 234.625,461.277 236.5,452.5C 236.5,454.5 236.5,456.5 236.5,458.5C 239.579,457.118 242.746,456.118 246,455.5C 246.772,455.645 247.439,455.978 248,456.5C 251.086,451.41 254.919,446.91 259.5,443C 261.256,442.798 262.922,442.298 264.5,441.5C 265.133,439.481 266.133,439.147 267.5,440.5 Z"/></g>
<g><path style="opacity:1" fill="#ffde00" d="M 215.5,418.5 C 219.081,423.328 222.415,428.328 225.5,433.5C 227.66,435.325 229.16,437.659 230,440.5C 232.308,441.641 234.141,443.308 235.5,445.5C 236.604,442.95 237.937,440.617 239.5,438.5C 238.833,441.167 238.167,443.833 237.5,446.5C 236.539,448.265 236.205,450.265 236.5,452.5C 234.625,461.277 234.125,470.277 235,479.5C 236.303,480.112 237.47,480.446 238.5,480.5C 236.955,484.679 234.622,485.345 231.5,482.5C 221.919,467.676 212.586,452.676 203.5,437.5C 203.193,435.554 203.193,433.887 203.5,432.5C 208.31,440.107 213.144,447.774 218,455.5C 218.494,457.134 218.66,458.801 218.5,460.5C 219.833,460.5 221.167,460.5 222.5,460.5C 222.729,462.433 223.562,464.1 225,465.5C 229.332,462.361 232.166,457.694 233.5,451.5C 232.707,447.866 231.207,444.532 229,441.5C 225.39,435.923 221.557,430.59 217.5,425.5C 216.741,423.564 215.741,421.731 214.5,420C 214.57,419.235 214.903,418.735 215.5,418.5 Z"/></g>
</svg>
