<svg width="16" height="16" viewBox="0 0 16 16" fill="none" xmlns="http://www.w3.org/2000/svg">
<g clip-path="url(#clip0_3911_7426)">
<path d="M8.58872 0.72535L10.705 5.0134L15.4372 5.70102C15.9757 5.77924 16.1907 6.44102 15.801 6.82086L12.3768 10.1586L13.1851 14.8716C13.2771 15.4079 12.7142 15.8169 12.2326 15.5637L7.99997 13.3385L3.76743 15.5637C3.28581 15.8169 2.72287 15.4079 2.81487 14.8716L3.62321 10.1586L0.198974 6.82083C-0.190681 6.44098 0.0243495 5.77927 0.562847 5.70099L5.29498 5.01336L7.41126 0.72535C7.6521 0.237383 8.34788 0.237383 8.58872 0.72535Z" fill="#EBC8FF"/>
<path d="M10.705 5.01339L8.58872 0.725342C8.46831 0.481375 8.23416 0.359375 8 0.359375V8.47775L10.705 5.01339Z" fill="#D68FFF"/>
<path d="M12.3768 10.1585L15.801 6.8207C15.9932 6.63333 16.0381 6.37742 15.9697 6.15674L8 8.47764L12.3768 10.1585Z" fill="#D68FFF"/>
<path d="M12.9259 15.5123L8 8.47778V13.3386L12.2325 15.5638C12.4742 15.6908 12.7363 15.6511 12.9259 15.5123Z" fill="#D68FFF"/>
<path d="M7.99975 8.47778L3.62296 10.1587L2.81465 14.8717C2.76881 15.1389 2.88562 15.3744 3.07384 15.5123L7.99975 8.47778Z" fill="#D68FFF"/>
<path d="M0.0302734 6.15692L7.99999 8.47779L5.295 5.01343L0.562865 5.70108C0.290022 5.74071 0.100461 5.93024 0.0302734 6.15692Z" fill="#D68FFF"/>
<path d="M3.62302 10.1587L0.198786 6.82095C0.00656823 6.63357 -0.0382753 6.37767 0.0300681 6.15698L7.99979 8.47785L3.62302 10.1587Z" fill="#EBC8FF"/>
</g>
<defs>
<clipPath id="clip0_3911_7426">
<rect width="16" height="16" fill="white"/>
</clipPath>
</defs>
</svg>
