<svg width="141" height="164" viewBox="0 0 141 164" fill="none" xmlns="http://www.w3.org/2000/svg">
<path d="M117.653 49.2L138.563 21.32C139.474 20.1012 140.029 18.6528 140.164 17.1369C140.3 15.621 140.011 14.0973 139.331 12.736C138.65 11.3747 137.604 10.2296 136.31 9.42853C135.016 8.62748 133.525 8.20213 132.003 8.2H33.6027C33.6027 6.02522 32.7388 3.93952 31.201 2.40172C29.6632 0.863926 27.5775 0 25.4027 0C23.228 0 21.1423 0.863926 19.6045 2.40172C18.0667 3.93952 17.2027 6.02522 17.2027 8.2V147.6H9.00273C6.82796 147.6 4.74226 148.464 3.20446 150.002C1.66666 151.54 0.802734 153.625 0.802734 155.8C0.802734 157.975 1.66666 160.06 3.20446 161.598C4.74226 163.136 6.82796 164 9.00273 164H41.8027C43.9775 164 46.0632 163.136 47.601 161.598C49.1388 160.06 50.0027 157.975 50.0027 155.8C50.0027 153.625 49.1388 151.54 47.601 150.002C46.0632 148.464 43.9775 147.6 41.8027 147.6H33.6027V90.2H132.003C133.525 90.1979 135.016 89.7725 136.31 88.9715C137.604 88.1704 138.65 87.0253 139.331 85.664C140.011 84.3027 140.3 82.779 140.164 81.2631C140.029 79.7472 139.474 78.2988 138.563 77.08L117.653 49.2Z" fill="white"/>
</svg>
