<svg class="blueprint__cells-svg" preserveAspectRatio="xMidYMid slice" viewBox="0 0 1866 1032" fill="none" xmlns="http://www.w3.org/2000/svg">
    <g clip-path="url(#clip0_28_12)">
        <path d="M0 0V1032" stroke="white" stroke-opacity="0.3"/>
        <path d="M70 0V1032" stroke="white" stroke-opacity="0.3"/>
        <path d="M140 0V1032" stroke="white" stroke-opacity="0.3"/>
        <path d="M210 0V1032" stroke="white" stroke-opacity="0.3"/>
        <path d="M280 0V1032" stroke="white" stroke-opacity="0.3"/>
        <path d="M350 0V1032" stroke="white" stroke-opacity="0.3"/>
        <path d="M420 0V1032" stroke="white" stroke-opacity="0.3"/>
        <path d="M490 0V1032" stroke="white" stroke-opacity="0.3"/>
        <path d="M560 0V1032" stroke="white" stroke-opacity="0.3"/>
        <path d="M630 0V1032" stroke="white" stroke-opacity="0.3"/>
        <path d="M700 0V1032" stroke="white" stroke-opacity="0.3"/>
        <path d="M770 0V1032" stroke="white" stroke-opacity="0.3"/>
        <path d="M840 0V1032" stroke="white" stroke-opacity="0.3"/>
        <path d="M910 0V1032" stroke="white" stroke-opacity="0.3"/>
        <path d="M980 0V1032" stroke="white" stroke-opacity="0.3"/>
        <path d="M1050 0V1032" stroke="white" stroke-opacity="0.3"/>
        <path d="M1120 0V1032" stroke="white" stroke-opacity="0.3"/>
        <path d="M1190 0V1032" stroke="white" stroke-opacity="0.3"/>
        <path d="M1260 0V1032" stroke="white" stroke-opacity="0.3"/>
        <path d="M1330 0V1032" stroke="white" stroke-opacity="0.3"/>
        <path d="M1400 0V1032" stroke="white" stroke-opacity="0.3"/>
        <path d="M1470 0V1032" stroke="white" stroke-opacity="0.3"/>
        <path d="M1540 0V1032" stroke="white" stroke-opacity="0.3"/>
        <path d="M1610 0V1032" stroke="white" stroke-opacity="0.3"/>
        <path d="M1680 0V1032" stroke="white" stroke-opacity="0.3"/>
        <path d="M1750 0V1032" stroke="white" stroke-opacity="0.3"/>
        <path d="M1820 0V1032" stroke="white" stroke-opacity="0.3"/>
        <path d="M1969 3.00024L-103 3.0002" stroke="white" stroke-opacity="0.3"/>
        <path d="M1969 73.0005L-103 73.0004" stroke="white" stroke-opacity="0.3"/>
        <path d="M1969 143L-103 143" stroke="white" stroke-opacity="0.3"/>
        <path d="M1969 213L-103 213" stroke="white" stroke-opacity="0.3"/>
        <path d="M1969 283L-103 283" stroke="white" stroke-opacity="0.3"/>
        <path d="M1969 353L-103 353" stroke="white" stroke-opacity="0.3"/>
        <path d="M1969 423.001L-103 423.001" stroke="white" stroke-opacity="0.3"/>
        <path d="M1969 493.001L-103 493.001" stroke="white" stroke-opacity="0.3"/>
        <path d="M1969 563.001L-103 563.001" stroke="white" stroke-opacity="0.3"/>
        <path d="M1969 633.001L-103 633.001" stroke="white" stroke-opacity="0.3"/>
        <path d="M1969 703.001L-103 703.001" stroke="white" stroke-opacity="0.3"/>
        <path d="M1969 773.001L-103 773.001" stroke="white" stroke-opacity="0.3"/>
        <path d="M1969 843.001L-103 843.001" stroke="white" stroke-opacity="0.3"/>
        <path d="M1969 913.001L-103 913.001" stroke="white" stroke-opacity="0.3"/>
        <path d="M1969 983.001L-103 983.001" stroke="white" stroke-opacity="0.3"/>
    </g>
    <defs>
        <clipPath id="clip0_28_12">
            <rect width="100%" height="100%" fill="white"/>
        </clipPath>
    </defs>
</svg>