<svg width="128" height="128" viewBox="0 0 128 128" fill="none" xmlns="http://www.w3.org/2000/svg">
<g clip-path="url(#clip0_1793_51146)">
<path d="M127.434 123.709C125.861 106.176 108.551 94.6722 91.9672 99.5864C74.3737 78.2389 41.0214 79.5159 25.2072 102.51C12.4814 101.719 1.38809 111.172 0.121819 123.834C-0.129785 126.151 1.70272 127.993 3.85086 127.993C131.747 127.993 124.337 128.086 125.501 127.445C126.89 126.718 127.678 125.007 127.434 123.709Z" fill="white"/>
<path d="M84.354 77.144L80.1823 81.3157C63.7611 73.8244 45.5483 76.2384 32.2126 85.2298C27.7032 76.3162 29.1663 65.129 36.6044 57.691L50.7527 43.5426C52.2183 42.0795 54.5943 42.0795 56.0599 43.5426L67.5546 55.0374L59.919 62.6705C58.4534 64.1361 58.4534 66.5121 59.919 67.9777C61.3753 69.4341 63.7548 69.4491 65.2262 67.9777L72.8618 60.3446L84.354 71.8368C85.8171 73.3024 85.8171 75.6784 84.354 77.144Z" fill="white"/>
<path d="M126.798 18.0762C124.312 15.5902 113.257 4.53415 109.821 1.09873C108.356 -0.36612 105.981 -0.36637 104.515 1.09873C103.05 2.56384 103.05 4.93907 104.515 6.40417L110.351 12.2393L67.5547 55.0375L72.8619 60.3446L115.658 17.5465L121.493 23.3817C122.225 24.1142 123.186 24.4806 124.146 24.4806C127.457 24.4804 129.169 20.4465 126.798 18.0762Z" fill="white"/>
</g>
<defs>
<clipPath id="clip0_1793_51146">
<rect width="128" height="128" fill="white"/>
</clipPath>
</defs>
</svg>
