<svg width="164" height="164" viewBox="0 0 164 164" fill="none" xmlns="http://www.w3.org/2000/svg">
<path d="M112.75 25.625V30.75H102.5V25.625C102.5 22.8073 100.193 20.5 97.375 20.5H66.625C63.8073 20.5 61.5 22.8073 61.5 25.625V30.75H51.25V25.625C51.25 17.1693 58.1693 10.25 66.625 10.25H97.375C105.831 10.25 112.75 17.1693 112.75 25.625ZM158.875 56.375V138.375C158.875 146.853 151.978 153.75 143.5 153.75H20.5C12.0217 153.75 5.125 146.853 5.125 138.375V56.375C5.125 47.8967 12.0217 41 20.5 41H143.5C151.978 41 158.875 47.8967 158.875 56.375ZM112.75 92.25C112.75 89.4323 110.443 87.125 107.625 87.125H92.25V71.75C92.25 68.9323 89.9427 66.625 87.125 66.625H76.875C74.0573 66.625 71.75 68.9323 71.75 71.75V87.125H56.375C53.5573 87.125 51.25 89.4323 51.25 92.25V102.5C51.25 105.318 53.5573 107.625 56.375 107.625H71.75V123C71.75 125.818 74.0573 128.125 76.875 128.125H87.125C89.9427 128.125 92.25 125.818 92.25 123V107.625H107.625C110.443 107.625 112.75 105.318 112.75 102.5V92.25Z" fill="white"/>
</svg>
