<svg width="164" height="164" viewBox="0 0 164 164" fill="none" xmlns="http://www.w3.org/2000/svg">
<path d="M86.8267 2.05C84.1142 -0.683333 80.0455 -0.683333 77.333 2.05L2.06183 66.2833C0.027476 68.3333 -0.650642 71.0667 0.705595 73.8C2.06183 76.5333 4.09619 77.9 6.80866 77.9H17.6586V157.167C17.6586 160.583 20.371 164 24.4397 164H139.72C143.111 164 146.501 160.583 146.501 157.167V77.9H157.351C160.063 77.9 162.776 75.85 163.454 73.8C164.81 71.0667 163.454 68.3333 161.42 66.2833L86.8267 2.05ZM43.4271 86.1C41.3927 79.2667 44.7833 71.0667 52.2426 69.0167C59.0238 66.9667 66.4831 70.3833 69.1956 77.9C71.2299 84.7333 67.8393 92.25 60.38 94.9833C52.9207 97.0333 45.4614 92.9333 43.4271 86.1ZM61.0581 139.4C57.6676 137.35 56.9894 133.25 58.3457 129.833L90.8954 66.2833C92.9297 62.8667 96.9984 61.5 100.389 63.55C103.78 65.6 105.136 69.7 103.102 73.1167L70.5518 136.667C68.5175 140.083 64.4487 140.767 61.0581 139.4ZM112.595 131.2C105.814 133.25 98.3547 129.833 95.6422 122.317C93.6078 115.483 96.9984 107.967 104.458 105.233C111.239 103.183 119.376 106.6 121.411 114.117C123.445 121.633 119.376 129.15 112.595 131.2Z" fill="white"/>
</svg>
