<svg width="148" height="164" viewBox="0 0 148 164" fill="none" xmlns="http://www.w3.org/2000/svg">
<path d="M68.5932 108.132H0.00195312V122.549H68.5932V108.132Z" fill="white"/>
<path d="M147.998 108.132H79.4062V122.549H147.998V108.132Z" fill="white"/>
<path d="M129.498 48.588V5.96852L104.41 0C104.41 0 96.9784 13.0775 79.4062 15.3929V97.3187H147.998V67.0872C137.781 67.0872 129.498 58.8046 129.498 48.588Z" fill="white"/>
<path d="M147.998 133.362H79.4062V164H147.998V133.362Z" fill="white"/>
<path d="M43.5888 0L18.5008 5.96852V48.588C18.5008 58.8046 10.2186 67.0872 0.00195312 67.0872V97.3187H68.5929V15.3929C51.0204 13.0775 43.5888 0 43.5888 0Z" fill="white"/>
<path d="M68.5932 133.362H0.00195312V164H68.5932V133.362Z" fill="white"/>
</svg>
