<svg width="232" height="232" viewBox="0 0 232 232" fill="none" xmlns="http://www.w3.org/2000/svg">
<path d="M225.213 19.7774C220.573 14.8474 213.991 12.0051 207.205 12.0051H185.6C185.687 8.11902 185.745 4.11736 185.745 -0.000976562H46.3995C46.3995 4.1168 46.4573 8.11902 46.5445 12.0051H24.7945C18.0084 12.0051 11.4256 14.8474 6.78564 19.7774C2.0873 24.7368 -0.348246 31.5224 0.0573013 38.3957C3.94341 103.182 37.3806 143.84 90.3923 149.872L80.1262 185.6C67.9173 185.6 58.0284 195.488 58.0284 207.697V232H174.145V207.697C174.145 195.488 164.256 185.6 152.047 185.6L141.781 149.872C194.677 143.782 228.085 103.153 231.942 38.3957C232.347 31.5518 229.912 24.7657 225.213 19.7774ZM23.2284 37.0035C23.1995 36.3657 23.4606 35.9307 23.6923 35.6985C24.1273 35.2346 24.6495 35.2346 24.7945 35.2346H47.6468C51.0979 80.8518 61.1606 106.72 70.934 121.336C33.7268 105.733 24.8523 64.0607 23.2284 37.0035ZM161.211 121.248C170.983 106.603 181.018 80.7646 184.468 35.2057H207.233C207.407 35.2057 207.901 35.2057 208.336 35.6696C208.568 35.9018 208.828 36.3368 208.8 36.9746C207.147 64.0318 198.302 105.588 161.211 121.248Z" fill="white"/>
</svg>
