<svg width="80" height="80" viewBox="0 0 80 80" fill="none" xmlns="http://www.w3.org/2000/svg">
<g clip-path="url(#clip0_24047_1091)">
<path d="M67.8231 49.2711L60.9345 56.6661C60.0442 53.8036 57.3705 51.7192 54.2188 51.7192H43.2352C41.7194 51.7192 40.2577 51.1677 39.1195 50.1663C32.9989 44.78 23.7987 44.7327 17.6203 50.0172C16.3462 48.2133 14.2467 47.0317 11.875 47.0317H2.34375C1.04937 47.0317 0 48.0811 0 49.3755V77.6567C0 78.9511 1.04937 80.0005 2.34375 80.0005H11.875C13.9798 80.0005 15.8703 79.0695 17.16 77.5992C22.1142 78.9917 26.7488 80.0005 33.1348 80.0005H54.2188C59.3552 80.0005 64.2617 77.5472 67.3508 73.4288L78.5953 58.28C78.5956 58.2797 78.5959 58.2794 78.5961 58.2791C78.5972 58.2777 78.5981 58.2761 78.5992 58.2747L78.603 58.2697C78.6034 58.2689 78.6039 58.2681 78.6044 58.2675C79.5172 57.0453 80 55.5919 80 54.063C80 47.6791 72.1466 44.63 67.8231 49.2711ZM14.2188 72.9692C14.2188 74.2616 13.1673 75.313 11.875 75.313H4.6875V51.7192H11.875C13.1673 51.7192 14.2188 52.7706 14.2188 54.063V72.9692ZM74.8461 55.4664C74.845 55.468 74.8441 55.4697 74.8428 55.4711C74.8416 55.4727 74.8402 55.4742 74.8391 55.4758L63.5938 70.6255C61.3923 73.5606 57.8877 75.313 54.2188 75.313H33.1348C27.6389 75.313 23.3202 74.4705 18.8686 73.2192C18.878 72.9505 18.875 74.3931 18.875 55.1225L20.5395 53.6853C24.953 49.8014 31.6094 49.8014 36.0231 53.6853C38.0175 55.4402 40.5786 56.4067 43.2352 56.4067H54.2188C55.5111 56.4067 56.5625 57.4581 56.5625 58.7505C56.5625 60.0428 55.5111 61.0942 54.2188 61.0942H37.4053C36.1109 61.0942 35.0616 62.1436 35.0616 63.438C35.0616 64.7324 36.1109 65.7817 37.4053 65.7817H55.7897C57.7341 65.7817 59.6092 64.9658 60.9347 63.543L71.2531 52.4661C71.7019 51.9844 72.3111 51.7192 72.9688 51.7192C74.8995 51.7192 75.9961 53.9334 74.8461 55.4664Z" fill="white"/>
<path d="M54.2187 23.4375C52.9264 23.4375 51.875 22.3861 51.875 21.0938C51.875 20.1497 52.4369 19.3019 53.3061 18.9336C54.3556 18.4892 55.6117 18.8684 56.7528 19.9741C57.6826 20.8747 59.1661 20.8512 60.067 19.9217C60.9676 18.992 60.9442 17.5083 60.0145 16.6077C58.9564 15.5825 57.7801 14.858 56.5625 14.4491V11.7188C56.5625 10.4244 55.5131 9.375 54.2187 9.375C52.9244 9.375 51.875 10.4244 51.875 11.7188V14.4642C49.0042 15.4856 47.1875 18.1597 47.1875 21.0938C47.1875 24.9708 50.3417 28.125 54.2187 28.125C55.5111 28.125 56.5625 29.1764 56.5625 30.4688C56.5625 31.4509 55.943 32.3364 55.0209 32.6723C53.8178 33.1108 52.4156 32.5162 51.1762 31.0405C50.3439 30.0494 48.8655 29.9206 47.8741 30.7531C46.8828 31.5856 46.7542 33.0641 47.5867 34.0553C48.8537 35.5637 50.3287 36.5983 51.875 37.1191V39.8438C51.875 41.1381 52.9244 42.1875 54.2187 42.1875C55.5131 42.1875 56.5625 41.1381 56.5625 39.8438V37.098C56.5834 37.0906 56.6044 37.0842 56.6251 37.0767C59.3914 36.0692 61.25 33.4136 61.25 30.4688C61.25 26.5917 58.0958 23.4375 54.2187 23.4375Z" fill="white"/>
<path d="M54.2188 0C40.003 0 28.4375 11.5655 28.4375 25.7812C28.4375 39.997 40.003 51.5625 54.2188 51.5625C68.4345 51.5625 80 39.997 80 25.7812C80 11.5655 68.4345 0 54.2188 0ZM54.2188 46.875C42.5877 46.875 33.125 37.4123 33.125 25.7812C33.125 14.1502 42.5877 4.6875 54.2188 4.6875C65.8498 4.6875 75.3125 14.1502 75.3125 25.7812C75.3125 37.4123 65.8498 46.875 54.2188 46.875Z" fill="white"/>
</g>
<defs>
<clipPath id="clip0_24047_1091">
<rect width="80" height="80" fill="white"/>
</clipPath>
</defs>
</svg>
