<svg width="27" height="29" viewBox="0 0 27 29" fill="none" xmlns="http://www.w3.org/2000/svg">
<g filter="url(#filter0_d_2718_60)">
<path d="M7.64062 7.9082V10.0335C7.86743 10.0857 9.05 10.4364 10.7252 10.6491L13.4113 7.89185C11.4953 7.88462 9.57974 7.64385 7.71533 7.16934C7.68408 7.41396 7.64062 7.65518 7.64062 7.9082Z" fill="white"/>
<path d="M19.3594 7.9082C19.3594 7.65518 19.3159 7.41396 19.2846 7.16934C18.0579 7.48154 16.8083 7.68389 15.5516 7.79395L12.626 10.7972C16.4004 10.9469 19.1245 10.0769 19.3594 10.0335V7.9082Z" fill="white"/>
<path d="M13.5 2C11.0339 2 8.92852 3.58486 8.06538 5.74668C11.6216 6.65566 15.3783 6.65566 18.9346 5.74668C18.0715 3.58486 15.9661 2 13.5 2Z" fill="white"/>
<path d="M7.71392 11.5635C8.06245 13.6408 9.86035 15.2324 12.0352 15.2324H14.9648C17.1396 15.2324 18.9375 13.6408 19.2861 11.5635C17.3923 12.0455 15.446 12.2892 13.5 12.2892C11.6115 12.2892 9.51816 12.0228 7.71392 11.5635Z" fill="white"/>
<path d="M21.5566 27H23.7539C24.1587 27 24.4863 26.6724 24.4863 26.2676V21.8242C24.4863 19.9171 23.2581 18.3063 21.5566 17.6996V27Z" fill="white"/>
<path d="M2.51367 21.8242V26.2676C2.51367 26.6724 2.84126 27 3.24609 27H5.44336V17.6996C3.74194 18.3063 2.51367 19.9171 2.51367 21.8242Z" fill="white"/>
<path d="M20.0918 17.4297H16.4297V16.4892C15.9587 16.6116 15.4736 16.6973 14.9648 16.6973H14.2324V27H20.0918V17.4297ZM17.8945 24.0215H16.4297C16.0249 24.0215 15.6973 23.6939 15.6973 23.2891C15.6973 22.8842 16.0249 22.5566 16.4297 22.5566H17.8945C18.2994 22.5566 18.627 22.8842 18.627 23.2891C18.627 23.6939 18.2994 24.0215 17.8945 24.0215Z" fill="white"/>
<path d="M6.9082 27H12.7676V16.6973H12.0352C11.5264 16.6973 11.0413 16.6116 10.5703 16.4892V17.4297H6.9082V27ZM9.10547 22.5566H10.5703C10.9751 22.5566 11.3027 22.8842 11.3027 23.2891C11.3027 23.6939 10.9751 24.0215 10.5703 24.0215H9.10547C8.70063 24.0215 8.37305 23.6939 8.37305 23.2891C8.37305 22.8842 8.70063 22.5566 9.10547 22.5566Z" fill="white"/>
</g>
<defs>
<filter id="filter0_d_2718_60" x="0.513672" y="0" width="25.9727" height="29" filterUnits="userSpaceOnUse" color-interpolation-filters="sRGB">
<feFlood flood-opacity="0" result="BackgroundImageFix"/>
<feColorMatrix in="SourceAlpha" type="matrix" values="0 0 0 0 0 0 0 0 0 0 0 0 0 0 0 0 0 0 127 0" result="hardAlpha"/>
<feOffset/>
<feGaussianBlur stdDeviation="1"/>
<feComposite in2="hardAlpha" operator="out"/>
<feColorMatrix type="matrix" values="0 0 0 0 0.803922 0 0 0 0 0.0156863 0 0 0 0 0.0156863 0 0 0 1 0"/>
<feBlend mode="normal" in2="BackgroundImageFix" result="effect1_dropShadow_2718_60"/>
<feBlend mode="normal" in="SourceGraphic" in2="effect1_dropShadow_2718_60" result="shape"/>
</filter>
</defs>
</svg>
