<svg width="80" height="80" viewBox="0 0 80 80" fill="none" xmlns="http://www.w3.org/2000/svg">
<path d="M50.9939 60.9375C47.6495 60.9375 44.4481 59.5117 42.2108 57.0259L41.5125 56.25H38.4875L37.7892 57.0259C35.5519 59.5117 32.3505 60.9375 29.0061 60.9375H28.2812V65.625H29.0061C33.0752 65.625 36.9922 64.1142 40 61.4297C43.0078 64.1142 46.9248 65.625 50.9939 65.625H51.7188V60.9375H50.9939Z" fill="white"/>
<path d="M51.7188 42.1875H47.0312V46.875H51.7188V42.1875Z" fill="white"/>
<path d="M42.3438 14.0625H37.6562V18.75H42.3438V14.0625Z" fill="white"/>
<path d="M32.9688 42.1875H28.2812V46.875H32.9688V42.1875Z" fill="white"/>
<path d="M65.7813 32.8125V26.752L76.3806 16.1527L54.8438 0H25.1563L3.61938 16.1527L14.2188 26.752V32.8125C9.04938 32.8125 4.84376 37.0181 4.84376 42.1875C4.84376 47.3569 9.04938 51.5625 14.2188 51.5625V53.9062C14.2188 68.1003 25.6988 80 40 80C54.3055 80 65.7813 68.0959 65.7813 53.9062V51.5625C70.9506 51.5625 75.1562 47.3569 75.1562 42.1875C75.1562 37.0181 70.9506 32.8125 65.7813 32.8125ZM14.2188 46.875C11.6341 46.875 9.53126 44.7722 9.53126 42.1875C9.53126 39.6028 11.6341 37.5 14.2188 37.5V46.875ZM61.0938 32.8125C61.0938 34.6747 61.0938 51.2842 61.0938 53.9062C61.0938 65.7097 51.6311 75.3125 40 75.3125C28.3689 75.3125 18.9063 65.7097 18.9063 53.9062C18.9063 52.21 18.9063 35.6656 18.9063 32.8125V32.6238C22.4131 35.7406 26.9642 37.5 31.7316 37.5H48.2684C53.0355 37.5 57.5867 35.7408 61.0938 32.6238V32.8125ZM20.9939 28.125H59.0061C56.2863 31.0819 52.4347 32.8125 48.2684 32.8125H31.7316C27.5653 32.8125 23.7139 31.0819 20.9939 28.125ZM62.4667 23.4375H17.5333L10.7556 16.6598L26.7188 4.6875H53.2813L69.2444 16.6598L62.4667 23.4375ZM65.7813 46.875V37.5C68.3659 37.5 70.4688 39.6028 70.4688 42.1875C70.4688 44.7722 68.3659 46.875 65.7813 46.875Z" fill="white"/>
</svg>
