<?xml version="1.0" encoding="UTF-8"?>
<!DOCTYPE svg PUBLIC "-//W3C//DTD SVG 1.1//EN" "http://www.w3.org/Graphics/SVG/1.1/DTD/svg11.dtd">
<svg xmlns="http://www.w3.org/2000/svg" version="1.1" width="512px" height="512px" style="shape-rendering:geometricPrecision; text-rendering:geometricPrecision; image-rendering:optimizeQuality; fill-rule:evenodd; clip-rule:evenodd" xmlns:xlink="http://www.w3.org/1999/xlink">
<g><path style="opacity:0.996" fill="#ff50e4" d="M 305.5,22.5 C 305.739,26.8422 306.073,31.1756 306.5,35.5C 305.588,44.006 304.755,52.6726 304,61.5C 303.624,81.8433 302.957,102.177 302,122.5C 301.167,123.333 300.333,124.167 299.5,125C 294.177,125.499 288.844,125.666 283.5,125.5C 282.206,124.71 281.039,123.71 280,122.5C 276.91,107.664 275.743,92.6639 276.5,77.5C 276.5,75.5 276.5,73.5 276.5,71.5C 276.799,67.8945 277.965,64.5612 280,61.5C 288.085,48.931 295.918,36.2643 303.5,23.5C 304.167,23.1667 304.833,22.8333 305.5,22.5 Z"/></g>
<g><path style="opacity:0.995" fill="#ffa8fa" d="M 303.5,23.5 C 295.918,36.2643 288.085,48.931 280,61.5C 277.965,64.5612 276.799,67.8945 276.5,71.5C 275.732,72.2625 275.232,73.2625 275,74.5C 274.781,73.062 274.281,71.7287 273.5,70.5C 269.535,72.6348 265.702,74.9681 262,77.5C 261.722,76.5842 261.222,75.9175 260.5,75.5C 261.084,71.1643 261.751,66.831 262.5,62.5C 262.457,61.5836 262.124,60.9169 261.5,60.5C 261.167,60.5 260.833,60.5 260.5,60.5C 264.025,56.8166 268.025,53.6499 272.5,51C 274.141,49.871 275.141,48.371 275.5,46.5C 284.794,38.8439 294.127,31.1772 303.5,23.5 Z"/></g>
<g><path style="opacity:0.994" fill="#fe06b9" d="M 305.5,22.5 C 332.809,70.7844 357.809,120.451 380.5,171.5C 380.5,172.833 380.5,174.167 380.5,175.5C 376.085,175.861 372.085,177.194 368.5,179.5C 359.945,181.907 351.612,184.907 343.5,188.5C 341.914,188.307 340.247,187.973 338.5,187.5C 333.097,181.686 327.93,175.686 323,169.5C 316.936,162.933 310.436,156.933 303.5,151.5C 303.5,143.833 303.5,136.167 303.5,128.5C 305.012,97.5781 306.012,66.5781 306.5,35.5C 306.073,31.1756 305.739,26.8422 305.5,22.5 Z"/></g>
<g><path style="opacity:0.925" fill="#ffbdef" d="M 275.5,46.5 C 275.141,48.371 274.141,49.871 272.5,51C 268.025,53.6499 264.025,56.8166 260.5,60.5C 250.459,69.61 240.292,78.61 230,87.5C 229.536,86.9056 229.369,86.2389 229.5,85.5C 243.679,71.086 259.013,58.086 275.5,46.5 Z"/></g>
<g><path style="opacity:0.995" fill="#ff81f3" d="M 276.5,71.5 C 276.5,73.5 276.5,75.5 276.5,77.5C 275.677,80.977 275.177,84.6437 275,88.5C 274.308,89.0253 273.808,89.6919 273.5,90.5C 274.13,101.558 275.464,112.558 277.5,123.5C 276.552,126.968 274.552,129.801 271.5,132C 271.728,132.399 272.062,132.565 272.5,132.5C 272.167,133.5 271.5,134.167 270.5,134.5C 270.44,133.957 270.107,133.624 269.5,133.5C 267.833,134.833 266.167,136.167 264.5,137.5C 262.289,136.807 261.955,135.641 263.5,134C 263.37,132.941 262.87,132.108 262,131.5C 261.577,132.956 260.744,133.456 259.5,133C 258.002,130.518 256.502,128.018 255,125.5C 254.465,127.271 253.631,127.604 252.5,126.5C 251.04,123.08 250.04,119.747 249.5,116.5C 249.709,115.914 250.043,115.414 250.5,115C 249.09,114.632 248.09,113.799 247.5,112.5C 248.167,110.833 248.833,109.167 249.5,107.5C 248.767,106.913 247.767,106.913 246.5,107.5C 250.769,102.729 255.269,98.062 260,93.5C 259.347,87.4782 259.513,81.4782 260.5,75.5C 261.222,75.9175 261.722,76.5842 262,77.5C 265.702,74.9681 269.535,72.6348 273.5,70.5C 274.281,71.7287 274.781,73.062 275,74.5C 275.232,73.2625 275.732,72.2625 276.5,71.5 Z"/></g>
<g><path style="opacity:0.995" fill="#ff93f8" d="M 260.5,60.5 C 260.833,60.5 261.167,60.5 261.5,60.5C 260.978,63.2529 260.144,65.9196 259,68.5C 258.354,76.5894 257.354,84.5894 256,92.5C 245.471,103.363 234.637,113.863 223.5,124C 220.745,125.953 217.745,127.12 214.5,127.5C 213.648,124.777 212.481,122.11 211,119.5C 211.392,123.836 212.892,127.836 215.5,131.5C 218.193,130.153 220.86,128.82 223.5,127.5C 224.738,127.81 224.738,128.31 223.5,129C 222.167,129.667 220.833,130.333 219.5,131C 220.396,133.179 221.729,135.012 223.5,136.5C 222.448,138.43 221.114,139.93 219.5,141C 220.517,142.049 220.684,143.216 220,144.5C 218.745,145.211 217.579,146.044 216.5,147C 216.255,148.911 216.255,150.911 216.5,153C 213.832,155 211.665,157.167 210,159.5C 209.06,164.511 206.893,168.844 203.5,172.5C 204.025,173.192 204.692,173.692 205.5,174C 203.578,175.46 202.911,177.127 203.5,179C 201.003,181.27 198.67,183.604 196.5,186C 197.711,187.113 197.711,188.28 196.5,189.5C 197.243,190.182 197.909,190.849 198.5,191.5C 192.041,192.813 185.374,193.479 178.5,193.5C 173.138,190.545 172.138,186.379 175.5,181C 177.392,180.027 179.392,179.36 181.5,179C 178.918,176.216 179.251,174.716 182.5,174.5C 181.349,173.269 180.183,173.269 179,174.5C 178.5,174 178,173.5 177.5,173C 178.743,171.846 179.743,170.512 180.5,169C 181.449,168.383 182.282,168.549 183,169.5C 184.174,167.329 186.007,166.329 188.5,166.5C 187.499,163.329 187.499,160.329 188.5,157.5C 189.355,156.707 190.189,157.04 191,158.5C 191.333,157.167 191.667,155.833 192,154.5C 193.131,155.604 193.965,155.271 194.5,153.5C 192.636,152.503 190.636,151.67 188.5,151C 190.569,150.676 190.902,149.842 189.5,148.5C 190.14,145.352 191.14,145.019 192.5,147.5C 193.72,146.289 194.887,146.289 196,147.5C 197.667,145.372 199.834,144.039 202.5,143.5C 201.672,142.585 200.672,141.919 199.5,141.5C 196.681,141.519 193.847,141.852 191,142.5C 189.933,141.809 188.766,141.309 187.5,141C 190.167,140.333 190.167,139.667 187.5,139C 191.629,137.297 195.629,135.297 199.5,133C 198.5,132.5 197.5,132 196.5,131.5C 194.109,133.747 191.275,135.081 188,135.5C 185.79,134.251 183.624,134.418 181.5,136C 181.833,137.667 182.167,139.333 182.5,141C 180.559,141.743 178.726,141.576 177,140.5C 175.16,142.49 173.993,142.49 173.5,140.5C 174.838,138.33 176.672,136.664 179,135.5C 179.791,134.255 180.291,132.922 180.5,131.5C 181.922,131.291 183.255,130.791 184.5,130C 198.813,116.022 213.48,102.356 228.5,89C 227.906,88.5357 227.239,88.369 226.5,88.5C 227.167,87.1667 228.167,86.1667 229.5,85.5C 229.369,86.2389 229.536,86.9056 230,87.5C 240.292,78.61 250.459,69.61 260.5,60.5 Z"/></g>
<g><path style="opacity:0.322" fill="#ffc1fc" d="M 226.5,88.5 C 227.239,88.369 227.906,88.5357 228.5,89C 213.48,102.356 198.813,116.022 184.5,130C 183.255,130.791 181.922,131.291 180.5,131.5C 195.807,117.195 211.141,102.861 226.5,88.5 Z"/></g>
<g><path style="opacity:0.995" fill="#ff93f8" d="M 270.5,134.5 C 262.508,141.159 254.841,148.159 247.5,155.5C 247.167,155.5 246.833,155.5 246.5,155.5C 246.103,154.475 245.437,154.308 244.5,155C 239.943,159.228 235.11,163.061 230,166.5C 228.739,166.241 227.739,165.574 227,164.5C 226.283,157.382 226.95,150.382 229,143.5C 231.488,135.88 233.822,128.213 236,120.5C 238.985,115.689 242.485,111.356 246.5,107.5C 247.767,106.913 248.767,106.913 249.5,107.5C 248.833,109.167 248.167,110.833 247.5,112.5C 248.09,113.799 249.09,114.632 250.5,115C 250.043,115.414 249.709,115.914 249.5,116.5C 250.04,119.747 251.04,123.08 252.5,126.5C 253.631,127.604 254.465,127.271 255,125.5C 256.502,128.018 258.002,130.518 259.5,133C 260.744,133.456 261.577,132.956 262,131.5C 262.87,132.108 263.37,132.941 263.5,134C 261.955,135.641 262.289,136.807 264.5,137.5C 266.167,136.167 267.833,134.833 269.5,133.5C 270.107,133.624 270.44,133.957 270.5,134.5 Z"/></g>
<g><path style="opacity:0.996" fill="#fe76ee" d="M 306.5,35.5 C 306.012,66.5781 305.012,97.5781 303.5,128.5C 302.511,133.975 302.178,139.642 302.5,145.5C 296.632,141.143 291.132,136.143 286,130.5C 284.906,128.922 284.072,127.255 283.5,125.5C 288.844,125.666 294.177,125.499 299.5,125C 300.333,124.167 301.167,123.333 302,122.5C 302.957,102.177 303.624,81.8433 304,61.5C 304.755,52.6726 305.588,44.006 306.5,35.5 Z"/></g>
<g><path style="opacity:0.997" fill="#ffa1fb" d="M 209.5,183.5 C 206.01,186.411 202.344,189.078 198.5,191.5C 197.909,190.849 197.243,190.182 196.5,189.5C 197.711,188.28 197.711,187.113 196.5,186C 198.67,183.604 201.003,181.27 203.5,179C 202.911,177.127 203.578,175.46 205.5,174C 204.692,173.692 204.025,173.192 203.5,172.5C 206.893,168.844 209.06,164.511 210,159.5C 211.665,157.167 213.832,155 216.5,153C 216.255,150.911 216.255,148.911 216.5,147C 217.579,146.044 218.745,145.211 220,144.5C 220.684,143.216 220.517,142.049 219.5,141C 221.114,139.93 222.448,138.43 223.5,136.5C 221.729,135.012 220.396,133.179 219.5,131C 220.833,130.333 222.167,129.667 223.5,129C 224.738,128.31 224.738,127.81 223.5,127.5C 225.102,125.926 227.102,125.259 229.5,125.5C 225.78,144.299 220.28,162.632 213,180.5C 211.961,181.71 210.794,182.71 209.5,183.5 Z"/></g>
<g><path style="opacity:0.996" fill="#ff8cf8" d="M 178.5,193.5 C 176.856,193.714 175.356,193.38 174,192.5C 167.926,180.62 162.426,168.453 157.5,156C 162.171,150.162 167.504,144.995 173.5,140.5C 173.993,142.49 175.16,142.49 177,140.5C 178.726,141.576 180.559,141.743 182.5,141C 182.167,139.333 181.833,137.667 181.5,136C 183.624,134.418 185.79,134.251 188,135.5C 191.275,135.081 194.109,133.747 196.5,131.5C 197.5,132 198.5,132.5 199.5,133C 195.629,135.297 191.629,137.297 187.5,139C 190.167,139.667 190.167,140.333 187.5,141C 188.766,141.309 189.933,141.809 191,142.5C 193.847,141.852 196.681,141.519 199.5,141.5C 200.672,141.919 201.672,142.585 202.5,143.5C 199.834,144.039 197.667,145.372 196,147.5C 194.887,146.289 193.72,146.289 192.5,147.5C 191.14,145.019 190.14,145.352 189.5,148.5C 190.902,149.842 190.569,150.676 188.5,151C 190.636,151.67 192.636,152.503 194.5,153.5C 193.965,155.271 193.131,155.604 192,154.5C 191.667,155.833 191.333,157.167 191,158.5C 190.189,157.04 189.355,156.707 188.5,157.5C 187.499,160.329 187.499,163.329 188.5,166.5C 186.007,166.329 184.174,167.329 183,169.5C 182.282,168.549 181.449,168.383 180.5,169C 179.743,170.512 178.743,171.846 177.5,173C 178,173.5 178.5,174 179,174.5C 180.183,173.269 181.349,173.269 182.5,174.5C 179.251,174.716 178.918,176.216 181.5,179C 179.392,179.36 177.392,180.027 175.5,181C 172.138,186.379 173.138,190.545 178.5,193.5 Z"/></g>
<g><path style="opacity:0.996" fill="#ffd5fe" d="M 261.5,60.5 C 262.124,60.9169 262.457,61.5836 262.5,62.5C 261.751,66.831 261.084,71.1643 260.5,75.5C 259.513,81.4782 259.347,87.4782 260,93.5C 255.269,98.062 250.769,102.729 246.5,107.5C 242.485,111.356 238.985,115.689 236,120.5C 233.822,128.213 231.488,135.88 229,143.5C 226.95,150.382 226.283,157.382 227,164.5C 227.739,165.574 228.739,166.241 230,166.5C 235.11,163.061 239.943,159.228 244.5,155C 245.437,154.308 246.103,154.475 246.5,155.5C 239.872,160.958 233.372,166.624 227,172.5C 227.056,180.178 227.556,187.844 228.5,195.5C 229.884,198.248 231.884,198.914 234.5,197.5C 230.351,201.804 226.684,206.47 223.5,211.5C 222.391,211.443 221.391,211.11 220.5,210.5C 222.95,206.151 224.617,201.485 225.5,196.5C 224.347,191.221 223.514,185.888 223,180.5C 222.692,179.692 222.192,179.025 221.5,178.5C 218.149,180.859 214.815,183.192 211.5,185.5C 210.5,185.167 209.833,184.5 209.5,183.5C 210.794,182.71 211.961,181.71 213,180.5C 220.28,162.632 225.78,144.299 229.5,125.5C 227.102,125.259 225.102,125.926 223.5,127.5C 220.86,128.82 218.193,130.153 215.5,131.5C 212.892,127.836 211.392,123.836 211,119.5C 212.481,122.11 213.648,124.777 214.5,127.5C 217.745,127.12 220.745,125.953 223.5,124C 234.637,113.863 245.471,103.363 256,92.5C 257.354,84.5894 258.354,76.5894 259,68.5C 260.144,65.9196 260.978,63.2529 261.5,60.5 Z"/></g>
<g><path style="opacity:0.998" fill="#ff5ee7" d="M 246.5,155.5 C 246.833,155.5 247.167,155.5 247.5,155.5C 247.079,157.91 245.746,159.743 243.5,161C 245.594,163.421 247.26,166.088 248.5,169C 251.769,168.89 254.936,168.057 258,166.5C 258.902,166.743 259.735,167.077 260.5,167.5C 251.031,176.8 241.365,185.967 231.5,195C 230.552,195.483 229.552,195.649 228.5,195.5C 227.556,187.844 227.056,180.178 227,172.5C 233.372,166.624 239.872,160.958 246.5,155.5 Z"/></g>
<g><path style="opacity:0.996" fill="#ff91f2" d="M 276.5,77.5 C 275.743,92.6639 276.91,107.664 280,122.5C 281.039,123.71 282.206,124.71 283.5,125.5C 284.072,127.255 284.906,128.922 286,130.5C 291.132,136.143 296.632,141.143 302.5,145.5C 302.178,139.642 302.511,133.975 303.5,128.5C 303.5,136.167 303.5,143.833 303.5,151.5C 299.831,166.189 296.165,180.855 292.5,195.5C 291.833,195.5 291.167,195.5 290.5,195.5C 292.329,188.351 293.996,181.184 295.5,174C 287.558,175.211 280.558,178.544 274.5,184C 257.247,183.349 257.247,182.683 274.5,182C 280.104,177.786 286.104,174.12 292.5,171C 294.333,169.167 296.167,167.333 298,165.5C 298.834,160.666 299.667,155.833 300.5,151C 300.616,148.456 299.783,146.289 298,144.5C 292.5,139 287,133.5 281.5,128C 280.5,127.333 279.5,127.333 278.5,128C 276.34,129.332 274.34,130.832 272.5,132.5C 272.062,132.565 271.728,132.399 271.5,132C 274.552,129.801 276.552,126.968 277.5,123.5C 275.464,112.558 274.13,101.558 273.5,90.5C 273.808,89.6919 274.308,89.0253 275,88.5C 275.177,84.6437 275.677,80.977 276.5,77.5 Z"/></g>
<g><path style="opacity:0.998" fill="#ff44d9" d="M 290.5,195.5 C 288.14,205.267 285.307,214.934 282,224.5C 277.999,230.25 272.499,232.917 265.5,232.5C 266.798,228.45 267.965,224.45 269,220.5C 264.952,225.427 260.785,230.26 256.5,235C 246.549,241.799 237.215,249.299 228.5,257.5C 227.127,257.657 225.793,257.49 224.5,257C 218.878,249.708 214.544,241.708 211.5,233C 215.125,225.58 219.125,218.413 223.5,211.5C 226.684,206.47 230.351,201.804 234.5,197.5C 243.162,189.005 251.995,180.672 261,172.5C 263.994,169.18 266.494,165.513 268.5,161.5C 268.333,161.167 268.167,160.833 268,160.5C 265.957,163.378 263.457,165.711 260.5,167.5C 259.735,167.077 258.902,166.743 258,166.5C 254.936,168.057 251.769,168.89 248.5,169C 247.26,166.088 245.594,163.421 243.5,161C 245.746,159.743 247.079,157.91 247.5,155.5C 254.841,148.159 262.508,141.159 270.5,134.5C 271.5,134.167 272.167,133.5 272.5,132.5C 274.34,130.832 276.34,129.332 278.5,128C 279.5,127.333 280.5,127.333 281.5,128C 287,133.5 292.5,139 298,144.5C 299.783,146.289 300.616,148.456 300.5,151C 299.667,155.833 298.834,160.666 298,165.5C 296.167,167.333 294.333,169.167 292.5,171C 286.104,174.12 280.104,177.786 274.5,182C 257.247,182.683 257.247,183.349 274.5,184C 280.558,178.544 287.558,175.211 295.5,174C 293.996,181.184 292.329,188.351 290.5,195.5 Z"/></g>
<g><path style="opacity:0.997" fill="#ffbafc" d="M 234.5,197.5 C 231.884,198.914 229.884,198.248 228.5,195.5C 229.552,195.649 230.552,195.483 231.5,195C 241.365,185.967 251.031,176.8 260.5,167.5C 263.457,165.711 265.957,163.378 268,160.5C 268.167,160.833 268.333,161.167 268.5,161.5C 266.494,165.513 263.994,169.18 261,172.5C 251.995,180.672 243.162,189.005 234.5,197.5 Z"/></g>
<g><path style="opacity:0.998" fill="#ff60e7" d="M 220.5,210.5 C 216.53,215.989 212.696,221.656 209,227.5C 207.748,230.014 207.248,232.68 207.5,235.5C 206.275,234.848 205.608,233.681 205.5,232C 207.981,224.714 210.648,217.547 213.5,210.5C 212.961,207.797 211.295,206.297 208.5,206C 210.767,202.984 209.767,201.15 205.5,200.5C 205.5,199.5 205.5,198.5 205.5,197.5C 202.146,197.069 199.313,198.069 197,200.5C 196.098,200.257 195.265,199.923 194.5,199.5C 200.167,194.833 205.833,190.167 211.5,185.5C 214.815,183.192 218.149,180.859 221.5,178.5C 222.192,179.025 222.692,179.692 223,180.5C 223.514,185.888 224.347,191.221 225.5,196.5C 224.617,201.485 222.95,206.151 220.5,210.5 Z"/></g>
<g><path style="opacity:0.998" fill="#ff28c6" d="M 177.5,209.5 C 177.823,215.69 177.49,221.69 176.5,227.5C 176.649,226.448 176.483,225.448 176,224.5C 174.908,227.044 174.241,229.711 174,232.5C 161.016,244.985 148.516,257.985 136.5,271.5C 135.828,270.051 135.161,268.718 134.5,267.5C 140.371,234.143 146.371,200.81 152.5,167.5C 153.621,165.046 154.454,162.379 155,159.5C 163.301,175.772 170.801,192.438 177.5,209.5 Z"/></g>
<g><path style="opacity:0.997" fill="#ffbafc" d="M 180.5,131.5 C 180.291,132.922 179.791,134.255 179,135.5C 176.672,136.664 174.838,138.33 173.5,140.5C 167.504,144.995 162.171,150.162 157.5,156C 162.426,168.453 167.926,180.62 174,192.5C 175.356,193.38 176.856,193.714 178.5,193.5C 185.374,193.479 192.041,192.813 198.5,191.5C 202.344,189.078 206.01,186.411 209.5,183.5C 209.833,184.5 210.5,185.167 211.5,185.5C 205.833,190.167 200.167,194.833 194.5,199.5C 189.848,202.821 185.515,206.487 181.5,210.5C 180.041,210.567 178.708,210.234 177.5,209.5C 170.801,192.438 163.301,175.772 155,159.5C 154.454,162.379 153.621,165.046 152.5,167.5C 152.781,163.812 153.281,160.145 154,156.5C 163.005,148.328 171.838,139.995 180.5,131.5 Z"/></g>
<g><path style="opacity:0.998" fill="#b8049c" d="M 368.5,179.5 C 368.938,179.435 369.272,179.601 369.5,180C 368.842,181.905 367.675,183.405 366,184.5C 365.783,187.488 364.783,190.155 363,192.5C 362.667,192.167 362.333,191.833 362,191.5C 361.28,193.112 361.446,194.612 362.5,196C 361.257,197.154 360.257,198.488 359.5,200C 357.741,200.98 356.074,201.647 354.5,202C 355.624,202.249 356.624,202.749 357.5,203.5C 356.359,204.425 356.359,205.259 357.5,206C 355.956,206.29 354.623,206.956 353.5,208C 354.097,209.889 354.431,211.722 354.5,213.5C 354.154,214.696 353.654,214.696 353,213.5C 351.541,217.306 350.541,220.973 350,224.5C 349.107,223.289 348.274,223.289 347.5,224.5C 348.52,226.432 348.687,228.432 348,230.5C 347.586,230.043 347.086,229.709 346.5,229.5C 345.289,230.274 345.289,231.107 346.5,232C 345.262,231.923 344.262,232.089 343.5,232.5C 345.256,234.191 345.756,236.191 345,238.5C 344.174,236.595 343.007,236.261 341.5,237.5C 340.289,238.72 340.289,239.887 341.5,241C 339.23,243.502 340.063,245.002 344,245.5C 349.19,243.786 354.023,241.453 358.5,238.5C 359.647,240.765 359.814,243.098 359,245.5C 357.056,250.094 355.556,254.76 354.5,259.5C 354.511,261.045 354.844,262.378 355.5,263.5C 355.672,264.492 355.338,265.158 354.5,265.5C 354.19,264.262 353.69,264.262 353,265.5C 351.386,270.344 349.386,275.01 347,279.5C 346.667,278.5 346.333,277.5 346,276.5C 346.226,281.206 345.059,282.039 342.5,279C 343.451,278.282 343.617,277.449 343,276.5C 341.34,276.324 339.674,276.991 338,278.5C 337.311,277.643 336.478,276.977 335.5,276.5C 332.933,277.362 330.267,277.362 327.5,276.5C 329.734,274.11 332.401,272.276 335.5,271C 334.328,270.581 333.328,269.915 332.5,269C 336.959,265.886 339.792,261.719 341,256.5C 344.11,257.673 344.277,257.173 341.5,255C 342.576,253.274 342.743,251.441 342,249.5C 336.232,241.818 332.566,233.151 331,223.5C 329.961,222.29 328.794,221.29 327.5,220.5C 331.927,211.311 336.093,201.977 340,192.5C 340.69,190.65 341.856,189.316 343.5,188.5C 351.612,184.907 359.945,181.907 368.5,179.5 Z"/></g>
<g><path style="opacity:0.997" fill="#bb0ca7" d="M 380.5,171.5 C 381.613,172.946 381.78,174.613 381,176.5C 372.651,205.564 364.151,234.564 355.5,263.5C 354.844,262.378 354.511,261.045 354.5,259.5C 355.556,254.76 357.056,250.094 359,245.5C 359.814,243.098 359.647,240.765 358.5,238.5C 354.023,241.453 349.19,243.786 344,245.5C 340.063,245.002 339.23,243.502 341.5,241C 340.289,239.887 340.289,238.72 341.5,237.5C 343.007,236.261 344.174,236.595 345,238.5C 345.756,236.191 345.256,234.191 343.5,232.5C 344.262,232.089 345.262,231.923 346.5,232C 345.289,231.107 345.289,230.274 346.5,229.5C 347.086,229.709 347.586,230.043 348,230.5C 348.687,228.432 348.52,226.432 347.5,224.5C 348.274,223.289 349.107,223.289 350,224.5C 350.541,220.973 351.541,217.306 353,213.5C 353.654,214.696 354.154,214.696 354.5,213.5C 354.431,211.722 354.097,209.889 353.5,208C 354.623,206.956 355.956,206.29 357.5,206C 356.359,205.259 356.359,204.425 357.5,203.5C 356.624,202.749 355.624,202.249 354.5,202C 356.074,201.647 357.741,200.98 359.5,200C 360.257,198.488 361.257,197.154 362.5,196C 361.446,194.612 361.28,193.112 362,191.5C 362.333,191.833 362.667,192.167 363,192.5C 364.783,190.155 365.783,187.488 366,184.5C 367.675,183.405 368.842,181.905 369.5,180C 369.272,179.601 368.938,179.435 368.5,179.5C 372.085,177.194 376.085,175.861 380.5,175.5C 380.5,174.167 380.5,172.833 380.5,171.5 Z"/></g>
<g><path style="opacity:0.997" fill="#ec06a5" d="M 303.5,151.5 C 310.436,156.933 316.936,162.933 323,169.5C 327.93,175.686 333.097,181.686 338.5,187.5C 340.247,187.973 341.914,188.307 343.5,188.5C 341.856,189.316 340.69,190.65 340,192.5C 336.093,201.977 331.927,211.311 327.5,220.5C 320.127,236.266 313.127,252.266 306.5,268.5C 297.391,277.439 288.058,286.272 278.5,295C 274.957,298.049 271.291,300.882 267.5,303.5C 267.5,303.167 267.5,302.833 267.5,302.5C 271.945,284.148 276.278,265.815 280.5,247.5C 284.185,230.095 288.185,212.762 292.5,195.5C 296.165,180.855 299.831,166.189 303.5,151.5 Z"/></g>
<g><path style="opacity:0.996" fill="#ff45d8" d="M 207.5,235.5 C 211.916,243.331 214.916,251.664 216.5,260.5C 216.77,268.646 216.27,276.646 215,284.5C 217.94,279.145 220.773,273.812 223.5,268.5C 225.167,266.167 227.167,264.167 229.5,262.5C 227.432,269.136 224.432,275.303 220.5,281C 220.833,281.333 221.167,281.667 221.5,282C 220.272,282.779 219.272,283.779 218.5,285C 220.188,287.019 222.188,288.686 224.5,290C 223.692,290.308 223.025,290.808 222.5,291.5C 223.991,292.244 225.491,292.91 227,293.5C 229.186,292.978 231.519,292.978 234,293.5C 236.688,291.615 239.522,291.282 242.5,292.5C 243.696,292.154 243.696,291.654 242.5,291C 240.423,290.808 238.423,290.308 236.5,289.5C 237.274,288.289 238.107,288.289 239,289.5C 241.237,288.944 243.237,287.944 245,286.5C 248.383,286.229 251.883,286.562 255.5,287.5C 258.515,286.904 261.349,285.904 264,284.5C 266.954,284.594 267.121,285.094 264.5,286C 265.244,287.039 266.244,287.539 267.5,287.5C 266.702,292.06 265.202,296.394 263,300.5C 250.333,318.5 237.667,336.5 225,354.5C 222.831,358.19 219.664,359.857 215.5,359.5C 201.112,346.28 187.612,332.28 175,317.5C 173.853,314.245 173.02,310.912 172.5,307.5C 173.893,301.239 174.559,294.906 174.5,288.5C 175.452,287.548 176.452,286.548 177.5,285.5C 176.02,281.828 175.353,277.995 175.5,274C 177.05,253.841 178.55,233.674 180,213.5C 180.513,212.473 181.013,211.473 181.5,210.5C 185.515,206.487 189.848,202.821 194.5,199.5C 195.265,199.923 196.098,200.257 197,200.5C 199.313,198.069 202.146,197.069 205.5,197.5C 205.5,198.5 205.5,199.5 205.5,200.5C 209.767,201.15 210.767,202.984 208.5,206C 211.295,206.297 212.961,207.797 213.5,210.5C 210.648,217.547 207.981,224.714 205.5,232C 205.608,233.681 206.275,234.848 207.5,235.5 Z"/></g>
<g><path style="opacity:0.998" fill="#ffc9fd" d="M 220.5,210.5 C 221.391,211.11 222.391,211.443 223.5,211.5C 219.125,218.413 215.125,225.58 211.5,233C 214.544,241.708 218.878,249.708 224.5,257C 225.793,257.49 227.127,257.657 228.5,257.5C 228.389,258.117 228.056,258.617 227.5,259C 229.058,259.21 230.391,259.71 231.5,260.5C 230.5,260.833 229.833,261.5 229.5,262.5C 227.167,264.167 225.167,266.167 223.5,268.5C 222.022,268.762 220.689,268.429 219.5,267.5C 218.67,264.984 217.67,262.65 216.5,260.5C 214.916,251.664 211.916,243.331 207.5,235.5C 207.248,232.68 207.748,230.014 209,227.5C 212.696,221.656 216.53,215.989 220.5,210.5 Z"/></g>
<g><path style="opacity:0.999" fill="#ffa6f7" d="M 290.5,195.5 C 291.167,195.5 291.833,195.5 292.5,195.5C 288.185,212.762 284.185,230.095 280.5,247.5C 279.833,247.167 279.167,246.833 278.5,246.5C 279.244,242.881 279.577,239.215 279.5,235.5C 272.309,235.012 265.309,235.845 258.5,238C 249.1,245.032 240.1,252.532 231.5,260.5C 230.391,259.71 229.058,259.21 227.5,259C 228.056,258.617 228.389,258.117 228.5,257.5C 237.215,249.299 246.549,241.799 256.5,235C 260.785,230.26 264.952,225.427 269,220.5C 267.965,224.45 266.798,228.45 265.5,232.5C 272.499,232.917 277.999,230.25 282,224.5C 285.307,214.934 288.14,205.267 290.5,195.5 Z"/></g>
<g><path style="opacity:0.995" fill="#bd0190" d="M 327.5,220.5 C 328.794,221.29 329.961,222.29 331,223.5C 332.566,233.151 336.232,241.818 342,249.5C 342.743,251.441 342.576,253.274 341.5,255C 344.277,257.173 344.11,257.673 341,256.5C 339.792,261.719 336.959,265.886 332.5,269C 333.328,269.915 334.328,270.581 335.5,271C 332.401,272.276 329.734,274.11 327.5,276.5C 326.71,277.794 325.71,278.961 324.5,280C 325.833,281.84 325.666,282.34 324,281.5C 322.287,282.878 320.953,284.545 320,286.5C 319.086,285.346 318.253,285.513 317.5,287C 319.301,287.317 319.634,287.984 318.5,289C 316.775,288.591 315.108,288.758 313.5,289.5C 314.167,290.167 314.833,290.833 315.5,291.5C 314.234,292.724 313.067,294.057 312,295.5C 311.667,295.167 311.333,294.833 311,294.5C 310.505,296.473 310.338,298.473 310.5,300.5C 309.833,296.167 309.167,291.833 308.5,287.5C 307.768,281.176 307.101,274.842 306.5,268.5C 313.127,252.266 320.127,236.266 327.5,220.5 Z"/></g>
<g><path style="opacity:0.996" fill="#ff13b6" d="M 176.5,227.5 C 175.399,247.853 174.066,268.187 172.5,288.5C 173.704,298.988 171.537,308.654 166,317.5C 164.818,319.357 163.151,320.357 161,320.5C 157.673,319.588 154.506,318.254 151.5,316.5C 150.893,316.624 150.56,316.957 150.5,317.5C 144.298,313.899 137.964,310.566 131.5,307.5C 130.957,306.258 130.623,304.925 130.5,303.5C 132.2,291.534 133.533,279.534 134.5,267.5C 135.161,268.718 135.828,270.051 136.5,271.5C 148.516,257.985 161.016,244.985 174,232.5C 174.241,229.711 174.908,227.044 176,224.5C 176.483,225.448 176.649,226.448 176.5,227.5 Z"/></g>
<g><path style="opacity:0.997" fill="#ff82ea" d="M 177.5,209.5 C 178.708,210.234 180.041,210.567 181.5,210.5C 181.013,211.473 180.513,212.473 180,213.5C 178.55,233.674 177.05,253.841 175.5,274C 175.353,277.995 176.02,281.828 177.5,285.5C 176.452,286.548 175.452,287.548 174.5,288.5C 173.833,288.5 173.167,288.5 172.5,288.5C 174.066,268.187 175.399,247.853 176.5,227.5C 177.49,221.69 177.823,215.69 177.5,209.5 Z"/></g>
<g><path style="opacity:0.997" fill="#ffa9f8" d="M 216.5,260.5 C 217.67,262.65 218.67,264.984 219.5,267.5C 220.689,268.429 222.022,268.762 223.5,268.5C 220.773,273.812 217.94,279.145 215,284.5C 216.27,276.646 216.77,268.646 216.5,260.5 Z"/></g>
<g><path style="opacity:0.996" fill="#ff3ad2" d="M 278.5,246.5 C 275.039,260.216 271.373,273.883 267.5,287.5C 266.244,287.539 265.244,287.039 264.5,286C 267.121,285.094 266.954,284.594 264,284.5C 261.349,285.904 258.515,286.904 255.5,287.5C 251.883,286.562 248.383,286.229 245,286.5C 243.237,287.944 241.237,288.944 239,289.5C 238.107,288.289 237.274,288.289 236.5,289.5C 238.423,290.308 240.423,290.808 242.5,291C 243.696,291.654 243.696,292.154 242.5,292.5C 239.522,291.282 236.688,291.615 234,293.5C 231.519,292.978 229.186,292.978 227,293.5C 225.491,292.91 223.991,292.244 222.5,291.5C 223.025,290.808 223.692,290.308 224.5,290C 222.188,288.686 220.188,287.019 218.5,285C 219.272,283.779 220.272,282.779 221.5,282C 221.167,281.667 220.833,281.333 220.5,281C 224.432,275.303 227.432,269.136 229.5,262.5C 229.833,261.5 230.5,260.833 231.5,260.5C 240.1,252.532 249.1,245.032 258.5,238C 265.309,235.845 272.309,235.012 279.5,235.5C 279.577,239.215 279.244,242.881 278.5,246.5 Z"/></g>
<g><path style="opacity:0.994" fill="#cf03a1" d="M 354.5,265.5 C 350.369,279.893 346.036,294.226 341.5,308.5C 340.5,308.5 339.5,308.5 338.5,308.5C 337.472,316.265 335.139,323.598 331.5,330.5C 326.248,331.823 320.915,332.49 315.5,332.5C 313.688,321.854 312.021,311.187 310.5,300.5C 310.338,298.473 310.505,296.473 311,294.5C 311.333,294.833 311.667,295.167 312,295.5C 313.067,294.057 314.234,292.724 315.5,291.5C 314.833,290.833 314.167,290.167 313.5,289.5C 315.108,288.758 316.775,288.591 318.5,289C 319.634,287.984 319.301,287.317 317.5,287C 318.253,285.513 319.086,285.346 320,286.5C 320.953,284.545 322.287,282.878 324,281.5C 325.666,282.34 325.833,281.84 324.5,280C 325.71,278.961 326.71,277.794 327.5,276.5C 330.267,277.362 332.933,277.362 335.5,276.5C 336.478,276.977 337.311,277.643 338,278.5C 339.674,276.991 341.34,276.324 343,276.5C 343.617,277.449 343.451,278.282 342.5,279C 345.059,282.039 346.226,281.206 346,276.5C 346.333,277.5 346.667,278.5 347,279.5C 349.386,275.01 351.386,270.344 353,265.5C 353.69,264.262 354.19,264.262 354.5,265.5 Z"/></g>
<g><path style="opacity:0.993" fill="#cb0080" d="M 306.5,268.5 C 307.101,274.842 307.768,281.176 308.5,287.5C 307.272,289.01 307.272,290.51 308.5,292C 307.285,294.096 306.451,293.929 306,291.5C 304.247,294.38 302.08,297.046 299.5,299.5C 305.805,303.727 305.638,307.06 299,309.5C 299,310.833 299,312.167 299,313.5C 298.586,313.043 298.086,312.709 297.5,312.5C 295.391,314.227 293.391,315.227 291.5,315.5C 289.7,316.605 288.533,315.939 288,313.5C 285.313,314.713 282.48,315.38 279.5,315.5C 279.671,317.993 278.671,319.826 276.5,321C 279.332,322.908 278.999,323.741 275.5,323.5C 274.178,323.67 273.011,323.337 272,322.5C 271.311,323.357 270.478,324.023 269.5,324.5C 266.732,324.345 264.065,324.345 261.5,324.5C 263.098,317.373 265.098,310.373 267.5,303.5C 271.291,300.882 274.957,298.049 278.5,295C 288.058,286.272 297.391,277.439 306.5,268.5 Z"/></g>
<g><path style="opacity:0.994" fill="#ff66df" d="M 172.5,288.5 C 173.167,288.5 173.833,288.5 174.5,288.5C 174.559,294.906 173.893,301.239 172.5,307.5C 173.02,310.912 173.853,314.245 175,317.5C 187.612,332.28 201.112,346.28 215.5,359.5C 214.126,359.792 212.793,360.125 211.5,360.5C 199.141,347.976 186.475,335.476 173.5,323C 172.101,322.405 170.768,322.572 169.5,323.5C 168.479,325.188 167.145,326.521 165.5,327.5C 161.053,323.436 156.053,320.102 150.5,317.5C 150.56,316.957 150.893,316.624 151.5,316.5C 154.506,318.254 157.673,319.588 161,320.5C 163.151,320.357 164.818,319.357 166,317.5C 171.537,308.654 173.704,298.988 172.5,288.5 Z"/></g>
<g><path style="opacity:0.994" fill="#d30191" d="M 308.5,287.5 C 309.167,291.833 309.833,296.167 310.5,300.5C 312.021,311.187 313.688,321.854 315.5,332.5C 311.5,337.167 307.167,341.5 302.5,345.5C 300.61,343.958 298.61,342.458 296.5,341C 298.828,340.014 300.828,338.014 302.5,335C 300.557,331.668 299.39,331.834 299,335.5C 298.399,332.794 296.899,330.794 294.5,329.5C 295.808,327.359 297.308,325.359 299,323.5C 299.667,322.5 299.667,321.5 299,320.5C 297.214,318.901 295.047,318.067 292.5,318C 292.833,317.667 293.167,317.333 293.5,317C 292.584,316.722 291.918,316.222 291.5,315.5C 293.391,315.227 295.391,314.227 297.5,312.5C 298.086,312.709 298.586,313.043 299,313.5C 299,312.167 299,310.833 299,309.5C 305.638,307.06 305.805,303.727 299.5,299.5C 302.08,297.046 304.247,294.38 306,291.5C 306.451,293.929 307.285,294.096 308.5,292C 307.272,290.51 307.272,289.01 308.5,287.5 Z"/></g>
<g><path style="opacity:0.992" fill="#ff79e8" d="M 278.5,246.5 C 279.167,246.833 279.833,247.167 280.5,247.5C 276.278,265.815 271.945,284.148 267.5,302.5C 265.608,303.702 263.774,305.035 262,306.5C 248.841,324.15 236.175,342.15 224,360.5C 222.864,363.096 222.031,365.763 221.5,368.5C 220.222,368.782 219.222,369.449 218.5,370.5C 216.938,366.608 214.605,363.275 211.5,360.5C 212.793,360.125 214.126,359.792 215.5,359.5C 219.664,359.857 222.831,358.19 225,354.5C 237.667,336.5 250.333,318.5 263,300.5C 265.202,296.394 266.702,292.06 267.5,287.5C 271.373,273.883 275.039,260.216 278.5,246.5 Z"/></g>
<g><path style="opacity:0.994" fill="#f40298" d="M 131.5,307.5 C 137.964,310.566 144.298,313.899 150.5,317.5C 156.053,320.102 161.053,323.436 165.5,327.5C 167.36,339.303 169.027,351.136 170.5,363C 170.313,371.824 168.98,380.324 166.5,388.5C 156.053,364.433 145.72,340.266 135.5,316C 135.164,314.97 134.497,314.47 133.5,314.5C 132.833,312.167 132.167,309.833 131.5,307.5 Z"/></g>
<g><path style="opacity:0.995" fill="#df0191" d="M 291.5,315.5 C 291.918,316.222 292.584,316.722 293.5,317C 293.167,317.333 292.833,317.667 292.5,318C 295.047,318.067 297.214,318.901 299,320.5C 299.667,321.5 299.667,322.5 299,323.5C 297.308,325.359 295.808,327.359 294.5,329.5C 296.899,330.794 298.399,332.794 299,335.5C 299.39,331.834 300.557,331.668 302.5,335C 300.828,338.014 298.828,340.014 296.5,341C 298.61,342.458 300.61,343.958 302.5,345.5C 300.54,347.156 298.54,348.823 296.5,350.5C 296.564,349.421 296.064,348.421 295,347.5C 292.736,345.836 290.403,345.503 288,346.5C 287.667,345.167 287.333,343.833 287,342.5C 282.145,343.646 280.145,341.646 281,336.5C 285.106,337.03 286.106,335.363 284,331.5C 282.601,331.501 281.101,331.835 279.5,332.5C 278.749,331.624 278.249,330.624 278,329.5C 275.474,331.919 273.64,331.253 272.5,327.5C 273.524,326.148 274.524,324.815 275.5,323.5C 278.999,323.741 279.332,322.908 276.5,321C 278.671,319.826 279.671,317.993 279.5,315.5C 282.48,315.38 285.313,314.713 288,313.5C 288.533,315.939 289.7,316.605 291.5,315.5 Z"/></g>
<g><path style="opacity:0.996" fill="#fe23bc" d="M 267.5,302.5 C 267.5,302.833 267.5,303.167 267.5,303.5C 265.098,310.373 263.098,317.373 261.5,324.5C 253.963,346.806 247.296,369.473 241.5,392.5C 240.596,393.209 240.263,394.209 240.5,395.5C 239.5,397.167 238.167,398.5 236.5,399.5C 233.322,398.746 230.655,399.913 228.5,403C 226.527,403.495 224.527,403.662 222.5,403.5C 221.767,391.848 221.434,380.181 221.5,368.5C 222.031,365.763 222.864,363.096 224,360.5C 236.175,342.15 248.841,324.15 262,306.5C 263.774,305.035 265.608,303.702 267.5,302.5 Z"/></g>
<g><path style="opacity:0.995" fill="#f1028f" d="M 275.5,323.5 C 274.524,324.815 273.524,326.148 272.5,327.5C 273.64,331.253 275.474,331.919 278,329.5C 278.249,330.624 278.749,331.624 279.5,332.5C 281.101,331.835 282.601,331.501 284,331.5C 286.106,335.363 285.106,337.03 281,336.5C 280.145,341.646 282.145,343.646 287,342.5C 287.333,343.833 287.667,345.167 288,346.5C 290.403,345.503 292.736,345.836 295,347.5C 296.064,348.421 296.564,349.421 296.5,350.5C 295.71,351.794 294.71,352.961 293.5,354C 287.882,357.241 281.882,359.575 275.5,361C 265.551,373.12 254.218,383.62 241.5,392.5C 247.296,369.473 253.963,346.806 261.5,324.5C 264.065,324.345 266.732,324.345 269.5,324.5C 270.478,324.023 271.311,323.357 272,322.5C 273.011,323.337 274.178,323.67 275.5,323.5 Z"/></g>
<g><path style="opacity:0.995" fill="#fc0396" d="M 285.5,377.5 C 285.443,378.609 285.11,379.609 284.5,380.5C 282.097,379.608 279.931,380.275 278,382.5C 276.044,382.216 273.877,382.216 271.5,382.5C 271.649,383.552 271.483,384.552 271,385.5C 266.936,386.862 264.269,389.529 263,393.5C 262.161,388.079 262.494,382.746 264,377.5C 268.5,371.667 273.667,366.5 279.5,362C 283.416,360.549 287.416,359.882 291.5,360C 289.562,365.855 287.562,371.688 285.5,377.5 Z"/></g>
<g><path style="opacity:0.996" fill="#ff16ae" d="M 211.5,360.5 C 214.605,363.275 216.938,366.608 218.5,370.5C 221.301,387.602 220.968,404.602 217.5,421.5C 216.778,421.082 216.278,420.416 216,419.5C 215.311,420.357 214.478,421.023 213.5,421.5C 206.438,419.554 199.105,417.887 191.5,416.5C 188.596,418.526 185.596,418.359 182.5,416C 182.833,415.667 183.167,415.333 183.5,415C 180.333,413.167 177.833,410.667 176,407.5C 173.352,400.872 170.186,394.538 166.5,388.5C 168.98,380.324 170.313,371.824 170.5,363C 169.027,351.136 167.36,339.303 165.5,327.5C 167.145,326.521 168.479,325.188 169.5,323.5C 170.768,322.572 172.101,322.405 173.5,323C 186.475,335.476 199.141,347.976 211.5,360.5 Z"/></g>
<g><path style="opacity:0.996" fill="#fb11aa" d="M 341.5,308.5 C 338.911,316.436 336.411,324.436 334,332.5C 328.797,340.271 323.63,347.937 318.5,355.5C 318.539,354.244 318.039,353.244 317,352.5C 312.541,359.526 306.875,365.193 300,369.5C 299.667,370.5 299.333,371.5 299,372.5C 298.667,372.167 298.333,371.833 298,371.5C 296.559,372.26 295.059,372.926 293.5,373.5C 291.704,377.067 289.038,378.4 285.5,377.5C 287.562,371.688 289.562,365.855 291.5,360C 287.416,359.882 283.416,360.549 279.5,362C 273.667,366.5 268.5,371.667 264,377.5C 262.494,382.746 262.161,388.079 263,393.5C 264.269,389.529 266.936,386.862 271,385.5C 271.483,384.552 271.649,383.552 271.5,382.5C 273.877,382.216 276.044,382.216 278,382.5C 279.931,380.275 282.097,379.608 284.5,380.5C 282.42,388.777 280.42,397.11 278.5,405.5C 271.081,408.078 263.748,410.911 256.5,414C 255.061,414.991 254.061,416.324 253.5,418C 250.167,418.667 246.833,419.333 243.5,420C 234.843,424.27 226.176,428.436 217.5,432.5C 218.055,428.603 219.055,424.937 220.5,421.5C 221.117,421.611 221.617,421.944 222,422.5C 222.903,421.299 224.069,420.465 225.5,420C 225.167,419.667 224.833,419.333 224.5,419C 226.087,418.138 227.754,417.471 229.5,417C 230.833,416.333 230.833,415.667 229.5,415C 232.855,413.431 235.855,411.431 238.5,409C 243.093,407.524 247.76,406.357 252.5,405.5C 250.259,404.796 247.926,404.296 245.5,404C 247.101,403.727 248.601,403.227 250,402.5C 252.624,402.47 255.291,402.803 258,403.5C 260.345,397.357 261.011,391.024 260,384.5C 259.612,383.572 258.945,382.905 258,382.5C 251.887,386.472 246.054,390.805 240.5,395.5C 240.263,394.209 240.596,393.209 241.5,392.5C 254.218,383.62 265.551,373.12 275.5,361C 281.882,359.575 287.882,357.241 293.5,354C 294.71,352.961 295.71,351.794 296.5,350.5C 298.54,348.823 300.54,347.156 302.5,345.5C 307.167,341.5 311.5,337.167 315.5,332.5C 320.915,332.49 326.248,331.823 331.5,330.5C 335.139,323.598 337.472,316.265 338.5,308.5C 339.5,308.5 340.5,308.5 341.5,308.5 Z"/></g>
<g><path style="opacity:0.997" fill="#ff0ba2" d="M 220.5,421.5 C 220.73,417.496 221.897,413.829 224,410.5C 228.335,406.997 232.501,403.33 236.5,399.5C 238.167,398.5 239.5,397.167 240.5,395.5C 246.054,390.805 251.887,386.472 258,382.5C 258.945,382.905 259.612,383.572 260,384.5C 261.011,391.024 260.345,397.357 258,403.5C 255.291,402.803 252.624,402.47 250,402.5C 248.601,403.227 247.101,403.727 245.5,404C 247.926,404.296 250.259,404.796 252.5,405.5C 247.76,406.357 243.093,407.524 238.5,409C 235.855,411.431 232.855,413.431 229.5,415C 230.833,415.667 230.833,416.333 229.5,417C 227.754,417.471 226.087,418.138 224.5,419C 224.833,419.333 225.167,419.667 225.5,420C 224.069,420.465 222.903,421.299 222,422.5C 221.617,421.944 221.117,421.611 220.5,421.5 Z"/></g>
<g><path style="opacity:0.996" fill="#ff25bd" d="M 318.5,355.5 C 305.542,374.607 291.708,392.941 277,410.5C 276.329,411.252 275.496,411.586 274.5,411.5C 271.213,412.264 268.546,414.097 266.5,417C 264.283,418.275 261.949,419.275 259.5,420C 257.709,422.414 256.043,424.914 254.5,427.5C 247.677,434.742 239.677,440.242 230.5,444C 227.167,446.333 223.833,448.667 220.5,451C 217.639,451.2 214.972,451.367 212.5,451.5C 212.833,449.5 213.167,447.5 213.5,445.5C 214.833,441.167 216.167,436.833 217.5,432.5C 226.176,428.436 234.843,424.27 243.5,420C 246.833,419.333 250.167,418.667 253.5,418C 254.061,416.324 255.061,414.991 256.5,414C 263.748,410.911 271.081,408.078 278.5,405.5C 280.42,397.11 282.42,388.777 284.5,380.5C 285.11,379.609 285.443,378.609 285.5,377.5C 289.038,378.4 291.704,377.067 293.5,373.5C 295.059,372.926 296.559,372.26 298,371.5C 298.333,371.833 298.667,372.167 299,372.5C 299.333,371.5 299.667,370.5 300,369.5C 306.875,365.193 312.541,359.526 317,352.5C 318.039,353.244 318.539,354.244 318.5,355.5 Z"/></g>
<g><path style="opacity:0.995" fill="#fe2fc3" d="M 133.5,314.5 C 134.497,314.47 135.164,314.97 135.5,316C 145.72,340.266 156.053,364.433 166.5,388.5C 170.186,394.538 173.352,400.872 176,407.5C 177.833,410.667 180.333,413.167 183.5,415C 183.167,415.333 182.833,415.667 182.5,416C 185.596,418.359 188.596,418.526 191.5,416.5C 199.105,417.887 206.438,419.554 213.5,421.5C 214.478,421.023 215.311,420.357 216,419.5C 216.278,420.416 216.778,421.082 217.5,421.5C 216.168,427.994 214.335,434.328 212,440.5C 210.499,437.9 208.499,436.9 206,437.5C 202.399,435.481 198.565,434.147 194.5,433.5C 193.914,433.709 193.414,434.043 193,434.5C 191.667,432.5 190,430.833 188,429.5C 185.224,424.266 182.224,419.266 179,414.5C 178.329,413.748 177.496,413.414 176.5,413.5C 160.433,381.315 146.1,348.315 133.5,314.5 Z"/></g>
<g><path style="opacity:0.997" fill="#ff50d7" d="M 221.5,368.5 C 221.434,380.181 221.767,391.848 222.5,403.5C 224.527,403.662 226.527,403.495 228.5,403C 230.655,399.913 233.322,398.746 236.5,399.5C 232.501,403.33 228.335,406.997 224,410.5C 221.897,413.829 220.73,417.496 220.5,421.5C 219.055,424.937 218.055,428.603 217.5,432.5C 216.167,436.833 214.833,441.167 213.5,445.5C 212.25,445.577 211.417,446.244 211,447.5C 210.202,450.893 209.202,454.226 208,457.5C 202.198,453.864 198.031,448.864 195.5,442.5C 191.693,441.191 189.526,438.524 189,434.5C 188.23,433.402 187.397,433.402 186.5,434.5C 182.385,427.933 179.051,420.933 176.5,413.5C 177.496,413.414 178.329,413.748 179,414.5C 182.224,419.266 185.224,424.266 188,429.5C 190,430.833 191.667,432.5 193,434.5C 193.414,434.043 193.914,433.709 194.5,433.5C 198.565,434.147 202.399,435.481 206,437.5C 208.499,436.9 210.499,437.9 212,440.5C 214.335,434.328 216.168,427.994 217.5,421.5C 220.968,404.602 221.301,387.602 218.5,370.5C 219.222,369.449 220.222,368.782 221.5,368.5 Z"/></g>
<g><path style="opacity:0.996" fill="#ff4ed7" d="M 274.5,411.5 C 273.371,414.918 271.371,417.751 268.5,420C 261.833,425.667 255.167,431.333 248.5,437C 242.5,443 236.5,449 230.5,455C 223.243,460.212 215.743,465.045 208,469.5C 206.69,468.87 205.856,467.87 205.5,466.5C 206.5,466.5 207.5,466.5 208.5,466.5C 209.701,461.354 211.035,456.354 212.5,451.5C 214.972,451.367 217.639,451.2 220.5,451C 223.833,448.667 227.167,446.333 230.5,444C 239.677,440.242 247.677,434.742 254.5,427.5C 256.043,424.914 257.709,422.414 259.5,420C 261.949,419.275 264.283,418.275 266.5,417C 268.546,414.097 271.213,412.264 274.5,411.5 Z"/></g>
<g><path style="opacity:0.691" fill="#ff76e9" d="M 213.5,445.5 C 213.167,447.5 212.833,449.5 212.5,451.5C 211.035,456.354 209.701,461.354 208.5,466.5C 207.5,466.5 206.5,466.5 205.5,466.5C 199.167,455.833 192.833,445.167 186.5,434.5C 187.397,433.402 188.23,433.402 189,434.5C 189.526,438.524 191.693,441.191 195.5,442.5C 198.031,448.864 202.198,453.864 208,457.5C 209.202,454.226 210.202,450.893 211,447.5C 211.417,446.244 212.25,445.577 213.5,445.5 Z"/></g>
</svg>
