<svg width="171" height="94" viewBox="0 0 171 94" fill="none" xmlns="http://www.w3.org/2000/svg">
<path d="M164.487 1.04772C159.034 1.52568 148.203 2.6466 141.772 4.54804C138.92 5.3816 136.622 7.33497 135.332 10.0514C134.01 12.8028 133.948 15.9695 135.114 18.7787L151.074 56.9117C152.8 61.0087 156.912 63.6197 161.336 63.423L167.369 63.1549C169.112 63.0774 170.489 61.5689 170.412 59.822L167.948 4.12516C167.867 2.31114 166.294 0.900099 164.487 1.04772Z" fill="white"/>
<path d="M134.773 71.6075C134.861 72.8817 134.402 74.0854 133.537 75.023C131.877 76.811 128.999 76.9877 127.145 75.3065L103.678 54.4761C102.283 53.2551 100.181 53.3787 98.9276 54.7946C97.7092 56.1573 97.8504 58.2633 99.2101 59.5202L107.209 66.5993L117.409 75.4624C119.377 77.1718 118.777 80.3656 116.33 81.2543C115.523 81.547 114.754 81.834 114.103 82.0799C112.93 82.5232 111.615 82.282 110.67 81.4561L92.8003 65.838C91.476 64.5461 89.357 64.6346 88.068 65.9797C86.7966 67.307 86.8496 69.4661 88.2093 70.7049L90.7873 73.2005L91.6525 73.9968L100.093 81.6779C103.731 85.0048 102.724 88.2964 97.8504 89.0046L96.5546 89.1978C95.3591 89.3761 94.145 89.0283 93.2241 88.2437L87.5736 83.4295L79.6982 76.2091C78.3386 74.9522 76.2196 75.0585 74.966 76.4212C73.7122 77.784 73.8182 79.9081 75.1778 81.1464L83.8301 89.0931C85.2428 90.385 84.5541 92.7208 82.6647 93.0574L79.3627 93.6239C77.4723 93.9482 75.5405 93.5102 73.9744 92.4005C61.1373 83.304 42.9513 69.3765 27.9961 53.9274L37.5314 16.479C37.7609 15.5764 37.8492 14.6915 37.9375 13.7712L62.1817 12.6914C59.7273 15.6295 57.2905 19.1159 55.0125 23.2572C52.4699 27.8054 49.9095 36.9375 56.4429 42.3707C56.7431 42.6187 64.0004 48.5649 75.4957 40.3887C75.7252 40.1939 75.9371 40.0169 76.1313 39.7869C76.1667 39.716 81.9761 32.9201 88.8803 31.2389L133.148 68.3509C134.12 69.1831 134.685 70.3333 134.773 71.6075Z" fill="white"/>
<path d="M5.79737 62.257L11.2271 62.0157C15.9195 61.8071 19.8748 58.602 21.0163 54.041L31.0015 14.8222C31.7161 11.9967 31.2851 9.08756 29.7659 6.63067C28.2802 4.17228 25.9223 2.49316 23.1733 1.84118C15.4728 0.0965781 8.07527 -0.113179 3.07828 0.04159C1.30188 0.120542 -0.0769259 1.5955 0.00333358 3.40951L2.47206 59.2072C2.54935 60.954 4.05449 62.3345 5.79737 62.257Z" fill="white"/>
<path d="M127.737 16.7198L91.2757 4.03525C89.3995 3.37814 87.4496 3.33016 85.6605 3.8809C80.1286 5.60776 69.5457 10.824 60.8707 26.5244C60.8417 26.6266 56.8346 33.9741 60.74 37.2337C60.8436 37.2964 64.4497 39.8625 71.2921 35.1154C72.8921 33.3277 80.239 25.5626 89.352 24.3161C90.286 24.1736 91.2379 24.4342 91.9715 25.0748L137.382 63.1779C140.695 62.1555 142.982 59.1929 144.049 57.4962L128.951 21.3781C128.314 19.8917 127.909 18.3277 127.737 16.7198Z" fill="white"/>
</svg>
