<svg width="128" height="128" viewBox="0 0 128 128" fill="none" xmlns="http://www.w3.org/2000/svg">
<path d="M20.8734 38.2533C19.0795 37.2172 16.7865 37.8324 15.7513 39.6254C14.7152 41.4193 15.3304 43.7123 17.1234 44.7474C18.9164 45.7836 21.2103 45.1683 22.2455 43.3754C23.2816 41.5814 22.6664 39.2884 20.8734 38.2533Z" fill="white"/>
<path d="M116.498 30.251H112.748V26.501C112.748 24.4287 111.071 22.751 108.998 22.751C106.926 22.751 105.248 24.4287 105.248 26.501V30.251H101.498C99.4258 30.251 97.748 31.9287 97.748 34.001C97.748 36.0742 99.4258 37.751 101.498 37.751H105.248V41.501C105.248 43.5732 106.926 45.251 108.998 45.251C111.071 45.251 112.748 43.5732 112.748 41.501V37.751H116.498C118.57 37.751 120.248 36.0742 120.248 34.001C120.248 31.9287 118.57 30.251 116.498 30.251Z" fill="white"/>
<path d="M15.25 18.751C15.25 20.8242 16.9267 22.501 19 22.501C21.0723 22.501 22.75 20.8242 22.75 18.751V15.001H26.5C28.5722 15.001 30.25 13.3242 30.25 11.251C30.25 9.1787 28.5722 7.50097 26.5 7.50097H22.75V3.75097C22.75 1.67871 21.0723 0.000976562 19 0.000976562C16.9267 0.000976562 15.25 1.67871 15.25 3.75097V7.50097H11.5C9.42773 7.50097 7.75 9.1787 7.75 11.251C7.75 13.3242 9.42773 15.001 11.5 15.001H15.25V18.751Z" fill="white"/>
<path d="M38.937 7.01056C42.5064 14.1512 44.4888 22.034 44.9878 30.0008H83.0132C83.5112 22.035 85.4936 14.1512 89.063 7.01056L89.854 5.42853C90.5757 3.98615 90.2934 2.24299 89.1509 1.10041C88.0122 -0.0421662 86.269 -0.324393 84.8228 0.397287L72.2398 6.6883L66.6509 1.10041C65.186 -0.364431 62.813 -0.364431 61.3482 1.10041L55.7603 6.6883L43.1773 0.39631C41.7271 -0.324393 39.9956 -0.0460724 38.8492 1.10041C37.7066 2.24201 37.4244 3.98517 38.146 5.42853L38.937 7.01056Z" fill="white"/>
<path d="M86.9589 37.751H41.039L26.3975 55.4717C19.209 64.1767 15.25 75.4453 15.25 86.7509C15.25 111.81 34.3847 128 63.999 128C93.6142 128 112.749 111.81 112.749 86.7509C112.749 75.4453 108.79 64.4267 101.598 55.7217L86.9589 37.751ZM63.9589 76.5996C70.163 76.5996 75.2089 81.6455 75.2089 87.8496C75.2089 92.7167 72.0839 96.831 67.749 98.3955V101.751C67.749 103.823 66.0722 105.501 63.999 105.501C61.9267 105.501 60.25 103.823 60.25 101.751V98.4208C55.873 96.8788 52.709 92.746 52.709 87.8496C52.709 85.7763 54.3867 84.0996 56.4589 84.0996C58.5322 84.0996 60.2089 85.7763 60.2089 87.8496C60.2089 89.9189 61.8906 91.5996 63.9589 91.5996C66.0283 91.5996 67.7089 89.9189 67.7089 87.8496C67.7089 85.7802 66.0283 84.0996 63.9589 84.0996C57.7558 84.0996 52.709 79.0527 52.709 72.8496C52.709 67.9521 55.873 63.8203 60.25 62.2783V56.751C60.25 54.6787 61.9267 53.001 63.999 53.001C66.0722 53.001 67.749 54.6787 67.749 56.751V62.3037C72.0839 63.8681 75.2089 67.9824 75.2089 72.8496C75.2089 74.9228 73.5322 76.5996 71.4589 76.5996C69.3867 76.5996 67.7089 74.9228 67.7089 72.8496C67.7089 70.7812 66.0283 69.0996 63.9589 69.0996C61.8906 69.0996 60.2089 70.7812 60.2089 72.8496C60.2089 74.9189 61.8896 76.5996 63.9589 76.5996Z" fill="white"/>
</svg>
