<svg width="212" height="184" viewBox="0 0 212 184" fill="none" xmlns="http://www.w3.org/2000/svg">
<path d="M21.1999 183.997H38.8665C50.5266 183.997 60.0665 174.443 60.0665 162.766V99.7815C60.0665 88.0341 50.5266 78.5508 38.8665 78.5508H21.1999C9.53983 78.5508 0 88.0341 0 99.7815V162.766C0 174.443 9.53983 183.997 21.1999 183.997Z" fill="white"/>
<path d="M114.831 39.2754H97.1648C85.5047 39.2754 75.9648 48.8291 75.9648 60.5062V162.768C75.9648 174.444 85.5047 183.999 97.1648 183.999H114.831C126.491 183.999 136.031 174.444 136.031 162.768V60.5062C136.031 48.829 126.491 39.2754 114.831 39.2754Z" fill="white"/>
<path d="M190.8 0H173.134C161.473 0 151.934 9.5537 151.934 21.2308V162.769C151.934 174.446 161.473 184 173.134 184H190.8C202.46 184 212 174.446 212 162.769V21.2308C212 9.5537 202.46 0 190.8 0Z" fill="white"/>
</svg>
