<svg width="200" height="212" viewBox="0 0 200 212" fill="none" xmlns="http://www.w3.org/2000/svg">
<path d="M0.234375 87.2949H25.1755V99.7655H0.234375V87.2949Z" fill="white"/>
<path d="M0.234375 62.3535H37.6461V74.8241H0.234375V62.3535Z" fill="white"/>
<path d="M0.234375 112.234H37.6461V124.705H0.234375V112.234Z" fill="white"/>
<path d="M0.234375 0V49.8824H25.1756V24.9412H174.823V162.118H25.1756V137.176H0.234375V187.059H199.764V0H0.234375Z" fill="white"/>
<path d="M18.9395 212H41.3865L48.8689 199.529H18.9395V212Z" fill="white"/>
<path d="M158.611 212H181.058V199.529H151.129L158.611 212Z" fill="white"/>
<path d="M37.6465 87.2945V99.765H50.1171V137.177H37.6465V149.647H162.352V137.177H149.882V124.706H162.352V62.3533H149.882V49.8827H162.352V37.4121H37.6465V49.8827H50.1171V87.2945H37.6465ZM68.823 87.2945H82.0825C82.6728 85.0094 83.5836 82.8537 84.7575 80.8704L75.3717 71.4842L84.1896 62.6663L93.5754 72.0521C95.5587 70.8786 97.7148 69.9674 99.9994 69.3771V56.118H112.47V69.3775C114.755 69.9678 116.911 70.879 118.894 72.0525L128.28 62.6667L137.098 71.4847L127.712 80.8704C128.885 82.8537 129.797 85.0098 130.387 87.2945H143.647V99.765H130.387C129.797 102.05 128.885 104.206 127.712 106.189L137.098 115.575L128.28 124.393L118.894 115.007C116.91 116.18 114.755 117.092 112.47 117.682V130.942H99.9994V117.682C97.7148 117.092 95.5587 116.18 93.5754 115.007L84.1896 124.393L75.3717 115.575L84.7575 106.189C83.584 104.205 82.6728 102.049 82.0825 99.7646H68.823V87.2945Z" fill="white"/>
<path d="M106.234 106C113.122 106 118.705 100.417 118.705 93.5292C118.705 86.6419 113.122 81.0586 106.234 81.0586C99.3469 81.0586 93.7637 86.6419 93.7637 93.5292C93.7637 100.417 99.3469 106 106.234 106Z" fill="white"/>
</svg>
