<svg width="1108" height="676" viewBox="0 0 1108 676" fill="none" xmlns="http://www.w3.org/2000/svg">
<mask id="mask0_6009_35536" style="mask-type:alpha" maskUnits="userSpaceOnUse" x="0" y="0" width="1108" height="676">
<rect width="1108" height="676" rx="20" fill="#EDEDF7"/>
</mask>
<g mask="url(#mask0_6009_35536)">
<path fill-rule="evenodd" clip-rule="evenodd" d="M1183.9 153.643C1201.9 358.432 1114.67 504.806 922.21 645.685C729.75 504.806 642.52 358.432 660.518 153.643L922.21 62.2L1183.9 153.643ZM744.597 215.517C748.376 353.337 817.01 449.821 922.21 536.739C1027.41 449.821 1096.04 353.337 1099.82 215.517L922.21 153.454L744.597 215.517ZM896.833 289.976L922.21 211.365L947.587 289.976L1030.19 289.818L963.268 338.244L988.946 416.759L922.21 368.074L855.472 416.759L881.15 338.244L814.228 289.818L896.833 289.976ZM1210.72 213.214H1476C1476 264.817 1433.78 307.034 1382.18 307.034H1200.66C1206.77 277.331 1210.2 246.134 1210.72 213.214ZM1282.94 400.851H1170.62C1180.44 378.698 1188.58 355.67 1194.9 331.647H1373.45C1362.57 371.406 1326.03 400.851 1282.94 400.851ZM1115.71 494.67H1183.69C1226.78 494.67 1263.32 465.226 1274.21 425.464H1158.83C1146.45 449.509 1132.02 472.52 1115.71 494.67ZM1084.45 588.487H1030.96C1054.91 566.25 1076.85 543.26 1096.55 519.283H1174.96C1164.08 559.042 1127.54 588.487 1084.45 588.487ZM633.703 213.214H368.4C368.4 264.817 410.617 307.034 462.217 307.034H643.759C637.653 277.331 634.219 246.134 633.703 213.214ZM561.464 400.851H673.8C663.975 378.698 655.843 355.67 649.524 331.647H470.948C481.83 371.406 518.372 400.851 561.464 400.851ZM728.704 494.67H660.709C617.618 494.67 581.075 465.226 570.193 425.464H685.588C697.967 449.509 712.398 472.52 728.704 494.67ZM759.954 588.487H813.465C789.513 566.25 767.573 543.26 747.871 519.283H669.441C680.323 559.042 716.865 588.487 759.954 588.487Z" fill="#A7C98C" fill-opacity="0.2"/>
<path d="M64.608 577.09C64.608 577.8 64.4736 578.51 64.2048 579.221C63.9552 579.912 63.5904 580.546 63.1104 581.122C62.6304 581.678 62.0448 582.139 61.3536 582.504C60.6624 582.85 59.8752 583.022 58.992 583.022H53.4048V591H50.7552V571.157H58.992C59.952 571.157 60.7776 571.339 61.4688 571.704C62.1792 572.05 62.7648 572.51 63.2256 573.086C63.6864 573.643 64.032 574.277 64.2624 574.987C64.4928 575.678 64.608 576.379 64.608 577.09ZM61.9872 577.09C61.9872 576.014 61.6512 575.16 60.9792 574.526C60.3264 573.893 59.4816 573.576 58.4448 573.576H53.4048V580.574H58.4448C59.4816 580.574 60.3264 580.267 60.9792 579.653C61.6512 579.038 61.9872 578.184 61.9872 577.09ZM92.5933 589.186L80.8717 583.368V581.64L92.5933 575.794V577.838L83.2045 582.504L92.5933 587.141V589.186ZM122.459 591L120.904 586.536H113.012L111.486 591H108.721L115.633 571.157H118.312L125.252 591H122.459ZM116.9 574.786L115.46 579.394L113.876 584.117H120.068L118.484 579.394L117.016 574.786H116.9ZM149.81 571.157C150.808 571.157 151.662 571.339 152.373 571.704C153.083 572.05 153.669 572.51 154.13 573.086C154.59 573.643 154.926 574.277 155.138 574.987C155.349 575.678 155.454 576.379 155.454 577.09C155.454 577.646 155.378 578.203 155.224 578.76C155.07 579.298 154.84 579.806 154.533 580.286C154.226 580.766 153.851 581.208 153.41 581.611C152.987 581.995 152.498 582.302 151.941 582.533L155.656 591H152.718L149.349 583.022H144.222V591H141.573V571.157H149.81ZM152.805 577.09C152.805 576.014 152.469 575.16 151.797 574.526C151.144 573.893 150.299 573.576 149.262 573.576H144.222V580.574H149.262C150.299 580.574 151.144 580.267 151.797 579.653C152.469 579.038 152.805 578.184 152.805 577.09ZM173.117 591V571.157H175.766V591H173.117ZM206.523 573.432L196.616 588.61H206.494V591H193.534V588.667L203.326 573.576H193.938V571.157H206.523V573.432ZM238.101 584.52C238.101 585.538 237.909 586.459 237.525 587.285C237.16 588.11 236.641 588.811 235.969 589.387C235.317 589.963 234.539 590.414 233.637 590.741C232.753 591.048 231.793 591.202 230.757 591.202C229.681 591.202 228.693 591.048 227.79 590.741C226.888 590.414 226.11 589.963 225.457 589.387C224.824 588.811 224.325 588.11 223.96 587.285C223.614 586.459 223.441 585.538 223.441 584.52V577.666C223.441 576.667 223.614 575.755 223.96 574.93C224.325 574.104 224.824 573.403 225.457 572.827C226.11 572.232 226.888 571.771 227.79 571.445C228.693 571.118 229.681 570.955 230.757 570.955C231.813 570.955 232.792 571.118 233.694 571.445C234.597 571.771 235.374 572.232 236.027 572.827C236.68 573.403 237.189 574.104 237.553 574.93C237.918 575.755 238.101 576.667 238.101 577.666V584.52ZM235.422 577.982C235.422 577.176 235.297 576.485 235.048 575.909C234.798 575.333 234.462 574.862 234.04 574.498C233.617 574.114 233.118 573.835 232.542 573.662C231.985 573.49 231.39 573.403 230.757 573.403C230.123 573.403 229.518 573.49 228.942 573.662C228.385 573.835 227.896 574.114 227.473 574.498C227.07 574.862 226.744 575.333 226.494 575.909C226.245 576.485 226.12 577.176 226.12 577.982V584.203C226.12 585.01 226.245 585.701 226.494 586.277C226.744 586.853 227.08 587.323 227.502 587.688C227.925 588.053 228.414 588.322 228.971 588.494C229.547 588.667 230.142 588.754 230.757 588.754C231.39 588.754 231.985 588.667 232.542 588.494C233.099 588.322 233.589 588.053 234.011 587.688C234.453 587.323 234.798 586.853 235.048 586.277C235.297 585.701 235.422 585.01 235.422 584.203V577.982ZM268.233 586.018V571.157H270.883V591H268.32L261.379 580.632L258.557 576.283H258.355V591H255.705V571.157H258.211L265.382 581.899L268.032 586.018H268.233ZM301.081 591L299.526 586.536H291.634L290.108 591H287.343L294.255 571.157H296.934L303.874 591H301.081ZM295.522 574.786L294.082 579.394L292.498 584.117H298.69L297.106 579.394L295.638 574.786H295.522ZM331.6 589.186L319.878 583.368V581.64L331.6 575.794V577.838L322.211 582.504L331.6 587.141V589.186ZM358.24 584.52L360.688 579.25L364.633 571.157H367.081V591H364.432V577.493H364.288L362.473 581.323L359.132 588.062H357.145L353.977 581.87L351.817 577.493H351.673V591H349.024V571.157H351.558L355.561 579.25L358.067 584.52H358.24ZM385.432 591V571.157H388.082V591H385.432ZM406.685 591V571.157H409.335V588.61H419.933V591H406.685ZM436.901 591V571.157H439.55V591H436.901ZM465.124 573.605V591H462.445V573.605H456.714V571.157H470.826V573.605H465.124ZM498.096 591L496.541 586.536H488.65L487.124 591H484.359L491.271 571.157H493.949L500.89 591H498.096ZM492.538 574.786L491.098 579.394L489.514 584.117H495.706L494.122 579.394L492.653 574.786H492.538ZM525.447 571.157C526.446 571.157 527.3 571.339 528.01 571.704C528.721 572.05 529.306 572.51 529.767 573.086C530.228 573.643 530.564 574.277 530.775 574.987C530.986 575.678 531.092 576.379 531.092 577.09C531.092 577.646 531.015 578.203 530.862 578.76C530.708 579.298 530.478 579.806 530.17 580.286C529.863 580.766 529.489 581.208 529.047 581.611C528.625 581.995 528.135 582.302 527.578 582.533L531.294 591H528.356L524.986 583.022H519.86V591H517.21V571.157H525.447ZM528.442 577.09C528.442 576.014 528.106 575.16 527.434 574.526C526.782 573.893 525.937 573.576 524.9 573.576H519.86V580.574H524.9C525.937 580.574 526.782 580.267 527.434 579.653C528.106 579.038 528.442 578.184 528.442 577.09ZM553.721 580.517L555.852 575.736L558.099 571.157H560.979L554.96 583.368V591H552.281V583.397L546.233 571.157H549.142L551.446 575.88L553.52 580.517H553.721ZM588.803 589.186L577.081 583.368V581.64L588.803 575.794V577.838L579.414 582.504L588.803 587.141V589.186ZM608.963 573.576V579.854H618.035V582.274H608.963V591H606.313V571.157H619.561V573.576H608.963ZM650.526 584.52C650.526 585.538 650.334 586.459 649.95 587.285C649.585 588.11 649.066 588.811 648.394 589.387C647.742 589.963 646.964 590.414 646.062 590.741C645.178 591.048 644.218 591.202 643.182 591.202C642.106 591.202 641.118 591.048 640.215 590.741C639.313 590.414 638.535 589.963 637.882 589.387C637.249 588.811 636.75 588.11 636.385 587.285C636.039 586.459 635.866 585.538 635.866 584.52V577.666C635.866 576.667 636.039 575.755 636.385 574.93C636.75 574.104 637.249 573.403 637.882 572.827C638.535 572.232 639.313 571.771 640.215 571.445C641.118 571.118 642.106 570.955 643.182 570.955C644.238 570.955 645.217 571.118 646.119 571.445C647.022 571.771 647.799 572.232 648.452 572.827C649.105 573.403 649.614 574.104 649.978 574.93C650.343 575.755 650.526 576.667 650.526 577.666V584.52ZM647.847 577.982C647.847 577.176 647.722 576.485 647.473 575.909C647.223 575.333 646.887 574.862 646.465 574.498C646.042 574.114 645.543 573.835 644.967 573.662C644.41 573.49 643.815 573.403 643.182 573.403C642.548 573.403 641.943 573.49 641.367 573.662C640.81 573.835 640.321 574.114 639.898 574.498C639.495 574.862 639.169 575.333 638.919 575.909C638.67 576.485 638.545 577.176 638.545 577.982V584.203C638.545 585.01 638.67 585.701 638.919 586.277C639.169 586.853 639.505 587.323 639.927 587.688C640.35 588.053 640.839 588.322 641.396 588.494C641.972 588.667 642.567 588.754 643.182 588.754C643.815 588.754 644.41 588.667 644.967 588.494C645.524 588.322 646.014 588.053 646.436 587.688C646.878 587.323 647.223 586.853 647.473 586.277C647.722 585.701 647.847 585.01 647.847 584.203V577.982ZM676.31 571.157C677.308 571.157 678.162 571.339 678.873 571.704C679.583 572.05 680.169 572.51 680.63 573.086C681.09 573.643 681.426 574.277 681.638 574.987C681.849 575.678 681.954 576.379 681.954 577.09C681.954 577.646 681.878 578.203 681.724 578.76C681.57 579.298 681.34 579.806 681.033 580.286C680.726 580.766 680.351 581.208 679.91 581.611C679.487 581.995 678.998 582.302 678.441 582.533L682.156 591H679.218L675.849 583.022H670.722V591H668.073V571.157H676.31ZM679.305 577.09C679.305 576.014 678.969 575.16 678.297 574.526C677.644 573.893 676.799 573.576 675.762 573.576H670.722V580.574H675.762C676.799 580.574 677.644 580.267 678.297 579.653C678.969 579.038 679.305 578.184 679.305 577.09ZM706.039 570.955C707.114 570.955 708.122 571.099 709.063 571.387C710.004 571.675 710.849 572.126 711.597 572.741L710.273 574.814C709.754 574.373 709.101 574.027 708.314 573.778C707.546 573.528 706.788 573.403 706.039 573.403C705.482 573.403 704.935 573.49 704.397 573.662C703.86 573.835 703.38 574.104 702.957 574.469C702.535 574.834 702.189 575.304 701.921 575.88C701.671 576.456 701.546 577.157 701.546 577.982V584.174C701.546 584.981 701.681 585.682 701.949 586.277C702.218 586.853 702.564 587.323 702.986 587.688C703.409 588.053 703.879 588.322 704.397 588.494C704.935 588.667 705.463 588.754 705.981 588.754C706.73 588.754 707.489 588.648 708.257 588.437C709.044 588.226 709.745 587.87 710.359 587.371L711.626 589.416C711.012 589.915 710.215 590.338 709.236 590.683C708.257 591.029 707.191 591.202 706.039 591.202C705.079 591.202 704.157 591.058 703.274 590.77C702.41 590.462 701.652 590.03 700.999 589.474C700.346 588.917 699.828 588.235 699.444 587.429C699.06 586.622 698.868 585.71 698.868 584.693V577.435C698.868 576.437 699.06 575.544 699.444 574.757C699.847 573.95 700.375 573.269 701.028 572.712C701.681 572.136 702.439 571.704 703.303 571.416C704.167 571.109 705.079 570.955 706.039 570.955ZM728.657 591V571.157H741.905V573.576H731.306V579.883H740.378V582.274H731.306V588.61H741.905V591H728.657ZM772.451 585.499C772.451 586.382 772.279 587.179 771.933 587.89C771.606 588.581 771.126 589.176 770.493 589.675C769.878 590.155 769.139 590.53 768.275 590.798C767.411 591.048 766.451 591.173 765.395 591.173C764.032 591.173 762.746 590.981 761.536 590.597C760.346 590.213 759.194 589.589 758.08 588.725L759.578 586.824C760.461 587.438 761.392 587.918 762.371 588.264C763.37 588.61 764.387 588.782 765.424 588.782C766.768 588.782 767.824 588.494 768.592 587.918C769.36 587.342 769.744 586.536 769.744 585.499C769.744 584.846 769.59 584.318 769.283 583.915C768.995 583.493 768.611 583.157 768.131 582.907C767.67 582.658 767.152 582.466 766.576 582.331C766.019 582.197 765.472 582.072 764.934 581.957C764.147 581.803 763.389 581.611 762.659 581.381C761.93 581.131 761.286 580.795 760.73 580.373C760.173 579.95 759.722 579.432 759.376 578.818C759.03 578.184 758.858 577.406 758.858 576.485C758.858 575.659 759.002 574.901 759.29 574.21C759.597 573.499 760.029 572.894 760.586 572.395C761.142 571.896 761.814 571.502 762.602 571.214C763.389 570.926 764.282 570.782 765.28 570.782C766.432 570.782 767.555 570.888 768.65 571.099C769.744 571.31 770.791 571.723 771.789 572.338L770.55 574.584C769.706 574.085 768.822 573.73 767.901 573.518C766.998 573.307 766.115 573.202 765.251 573.202C764.733 573.202 764.243 573.269 763.782 573.403C763.322 573.538 762.918 573.749 762.573 574.037C762.227 574.306 761.949 574.651 761.738 575.074C761.546 575.496 761.45 575.986 761.45 576.542C761.45 577.099 761.594 577.55 761.882 577.896C762.17 578.242 762.534 578.53 762.976 578.76C763.418 578.971 763.898 579.144 764.416 579.278C764.934 579.413 765.424 579.528 765.885 579.624C766.71 579.816 767.517 580.037 768.304 580.286C769.091 580.517 769.792 580.843 770.407 581.266C771.021 581.688 771.51 582.235 771.875 582.907C772.259 583.579 772.451 584.443 772.451 585.499ZM800.781 589.186L789.059 583.368V581.64L800.781 575.794V577.838L791.392 582.504L800.781 587.141V589.186ZM829.581 589.186L817.859 583.368V581.64L829.581 575.794V577.838L820.192 582.504L829.581 587.141V589.186ZM858.381 589.186L846.659 583.368V581.64L858.381 575.794V577.838L848.992 582.504L858.381 587.141V589.186ZM887.181 589.186L875.459 583.368V581.64L887.181 575.794V577.838L877.792 582.504L887.181 587.141V589.186ZM915.981 589.186L904.259 583.368V581.64L915.981 575.794V577.838L906.592 582.504L915.981 587.141V589.186ZM944.781 589.186L933.059 583.368V581.64L944.781 575.794V577.838L935.392 582.504L944.781 587.141V589.186ZM973.581 589.186L961.859 583.368V581.64L973.581 575.794V577.838L964.192 582.504L973.581 587.141V589.186ZM1002.38 589.186L990.659 583.368V581.64L1002.38 575.794V577.838L992.992 582.504L1002.38 587.141V589.186ZM1031.18 589.186L1019.46 583.368V581.64L1031.18 575.794V577.838L1021.79 582.504L1031.18 587.141V589.186ZM1059.98 589.186L1048.26 583.368V581.64L1059.98 575.794V577.838L1050.59 582.504L1059.98 587.141V589.186Z" fill="#71874E" fill-opacity="0.3"/>
<path d="M63.312 625.8L61.7568 621.336H53.8656L52.3392 625.8H49.5744L56.4864 605.957H59.1648L66.1056 625.8H63.312ZM57.7536 609.586L56.3136 614.194L54.7296 618.917H60.9216L59.3376 614.194L57.8688 609.586H57.7536ZM94.8964 625.8L93.3412 621.336H85.45L83.9236 625.8H81.1588L88.0708 605.957H90.7492L97.69 625.8H94.8964ZM89.338 609.586L87.898 614.194L86.314 618.917H92.506L90.922 614.194L89.4532 609.586H89.338ZM125.617 620.846C125.617 621.653 125.434 622.373 125.07 623.006C124.724 623.64 124.263 624.178 123.687 624.619C123.111 625.042 122.458 625.368 121.729 625.598C121.018 625.829 120.298 625.944 119.569 625.944C118.82 625.944 118.081 625.829 117.351 625.598C116.641 625.368 115.998 625.042 115.422 624.619C114.865 624.178 114.404 623.64 114.039 623.006C113.694 622.373 113.521 621.653 113.521 620.846V610.939C113.521 610.133 113.694 609.413 114.039 608.779C114.404 608.126 114.874 607.579 115.45 607.138C116.026 606.677 116.67 606.331 117.38 606.101C118.11 605.87 118.839 605.755 119.569 605.755C120.298 605.755 121.018 605.87 121.729 606.101C122.458 606.331 123.111 606.677 123.687 607.138C124.263 607.579 124.724 608.126 125.07 608.779C125.434 609.413 125.617 610.133 125.617 610.939V620.846ZM123.111 611.573C123.111 610.939 122.996 610.402 122.766 609.96C122.535 609.518 122.247 609.163 121.902 608.894C121.556 608.606 121.172 608.405 120.75 608.29C120.346 608.174 119.953 608.117 119.569 608.117C119.185 608.117 118.782 608.174 118.359 608.29C117.956 608.405 117.582 608.606 117.236 608.894C116.89 609.163 116.602 609.518 116.372 609.96C116.161 610.402 116.055 610.939 116.055 611.573V620.213C116.055 620.846 116.161 621.384 116.372 621.826C116.602 622.248 116.89 622.603 117.236 622.891C117.582 623.16 117.956 623.352 118.359 623.467C118.782 623.582 119.185 623.64 119.569 623.64C119.953 623.64 120.346 623.582 120.75 623.467C121.172 623.352 121.556 623.16 121.902 622.891C122.247 622.603 122.535 622.248 122.766 621.826C122.996 621.384 123.111 620.846 123.111 620.213V611.573ZM154.417 620.846C154.417 621.653 154.234 622.373 153.87 623.006C153.524 623.64 153.063 624.178 152.487 624.619C151.911 625.042 151.258 625.368 150.529 625.598C149.818 625.829 149.098 625.944 148.369 625.944C147.62 625.944 146.881 625.829 146.151 625.598C145.441 625.368 144.798 625.042 144.222 624.619C143.665 624.178 143.204 623.64 142.839 623.006C142.494 622.373 142.321 621.653 142.321 620.846V610.939C142.321 610.133 142.494 609.413 142.839 608.779C143.204 608.126 143.674 607.579 144.25 607.138C144.826 606.677 145.47 606.331 146.18 606.101C146.91 605.87 147.639 605.755 148.369 605.755C149.098 605.755 149.818 605.87 150.529 606.101C151.258 606.331 151.911 606.677 152.487 607.138C153.063 607.579 153.524 608.126 153.87 608.779C154.234 609.413 154.417 610.133 154.417 610.939V620.846ZM151.911 611.573C151.911 610.939 151.796 610.402 151.566 609.96C151.335 609.518 151.047 609.163 150.702 608.894C150.356 608.606 149.972 608.405 149.55 608.29C149.146 608.174 148.753 608.117 148.369 608.117C147.985 608.117 147.582 608.174 147.159 608.29C146.756 608.405 146.382 608.606 146.036 608.894C145.69 609.163 145.402 609.518 145.172 609.96C144.961 610.402 144.855 610.939 144.855 611.573V620.213C144.855 620.846 144.961 621.384 145.172 621.826C145.402 622.248 145.69 622.603 146.036 622.891C146.382 623.16 146.756 623.352 147.159 623.467C147.582 623.582 147.985 623.64 148.369 623.64C148.753 623.64 149.146 623.582 149.55 623.467C149.972 623.352 150.356 623.16 150.702 622.891C151.047 622.603 151.335 622.248 151.566 621.826C151.796 621.384 151.911 620.846 151.911 620.213V611.573ZM183.217 620.846C183.217 621.653 183.034 622.373 182.67 623.006C182.324 623.64 181.863 624.178 181.287 624.619C180.711 625.042 180.058 625.368 179.329 625.598C178.618 625.829 177.898 625.944 177.169 625.944C176.42 625.944 175.681 625.829 174.951 625.598C174.241 625.368 173.598 625.042 173.022 624.619C172.465 624.178 172.004 623.64 171.639 623.006C171.294 622.373 171.121 621.653 171.121 620.846V610.939C171.121 610.133 171.294 609.413 171.639 608.779C172.004 608.126 172.474 607.579 173.05 607.138C173.626 606.677 174.27 606.331 174.98 606.101C175.71 605.87 176.439 605.755 177.169 605.755C177.898 605.755 178.618 605.87 179.329 606.101C180.058 606.331 180.711 606.677 181.287 607.138C181.863 607.579 182.324 608.126 182.67 608.779C183.034 609.413 183.217 610.133 183.217 610.939V620.846ZM180.711 611.573C180.711 610.939 180.596 610.402 180.366 609.96C180.135 609.518 179.847 609.163 179.502 608.894C179.156 608.606 178.772 608.405 178.35 608.29C177.946 608.174 177.553 608.117 177.169 608.117C176.785 608.117 176.382 608.174 175.959 608.29C175.556 608.405 175.182 608.606 174.836 608.894C174.49 609.163 174.202 609.518 173.972 609.96C173.761 610.402 173.655 610.939 173.655 611.573V620.213C173.655 620.846 173.761 621.384 173.972 621.826C174.202 622.248 174.49 622.603 174.836 622.891C175.182 623.16 175.556 623.352 175.959 623.467C176.382 623.582 176.785 623.64 177.169 623.64C177.553 623.64 177.946 623.582 178.35 623.467C178.772 623.352 179.156 623.16 179.502 622.891C179.847 622.603 180.135 622.248 180.366 621.826C180.596 621.384 180.711 620.846 180.711 620.213V611.573ZM212.017 620.846C212.017 621.653 211.834 622.373 211.47 623.006C211.124 623.64 210.663 624.178 210.087 624.619C209.511 625.042 208.858 625.368 208.129 625.598C207.418 625.829 206.698 625.944 205.969 625.944C205.22 625.944 204.481 625.829 203.751 625.598C203.041 625.368 202.398 625.042 201.822 624.619C201.265 624.178 200.804 623.64 200.439 623.006C200.094 622.373 199.921 621.653 199.921 620.846V610.939C199.921 610.133 200.094 609.413 200.439 608.779C200.804 608.126 201.274 607.579 201.85 607.138C202.426 606.677 203.07 606.331 203.78 606.101C204.51 605.87 205.239 605.755 205.969 605.755C206.698 605.755 207.418 605.87 208.129 606.101C208.858 606.331 209.511 606.677 210.087 607.138C210.663 607.579 211.124 608.126 211.47 608.779C211.834 609.413 212.017 610.133 212.017 610.939V620.846ZM209.511 611.573C209.511 610.939 209.396 610.402 209.166 609.96C208.935 609.518 208.647 609.163 208.302 608.894C207.956 608.606 207.572 608.405 207.15 608.29C206.746 608.174 206.353 608.117 205.969 608.117C205.585 608.117 205.182 608.174 204.759 608.29C204.356 608.405 203.982 608.606 203.636 608.894C203.29 609.163 203.002 609.518 202.772 609.96C202.561 610.402 202.455 610.939 202.455 611.573V620.213C202.455 620.846 202.561 621.384 202.772 621.826C203.002 622.248 203.29 622.603 203.636 622.891C203.982 623.16 204.356 623.352 204.759 623.467C205.182 623.582 205.585 623.64 205.969 623.64C206.353 623.64 206.746 623.582 207.15 623.467C207.572 623.352 207.956 623.16 208.302 622.891C208.647 622.603 208.935 622.248 209.166 621.826C209.396 621.384 209.511 620.846 209.511 620.213V611.573ZM240.817 620.846C240.817 621.653 240.634 622.373 240.27 623.006C239.924 623.64 239.463 624.178 238.887 624.619C238.311 625.042 237.658 625.368 236.929 625.598C236.218 625.829 235.498 625.944 234.769 625.944C234.02 625.944 233.281 625.829 232.551 625.598C231.841 625.368 231.198 625.042 230.622 624.619C230.065 624.178 229.604 623.64 229.239 623.006C228.894 622.373 228.721 621.653 228.721 620.846V610.939C228.721 610.133 228.894 609.413 229.239 608.779C229.604 608.126 230.074 607.579 230.65 607.138C231.226 606.677 231.87 606.331 232.58 606.101C233.31 605.87 234.039 605.755 234.769 605.755C235.498 605.755 236.218 605.87 236.929 606.101C237.658 606.331 238.311 606.677 238.887 607.138C239.463 607.579 239.924 608.126 240.27 608.779C240.634 609.413 240.817 610.133 240.817 610.939V620.846ZM238.311 611.573C238.311 610.939 238.196 610.402 237.966 609.96C237.735 609.518 237.447 609.163 237.102 608.894C236.756 608.606 236.372 608.405 235.95 608.29C235.546 608.174 235.153 608.117 234.769 608.117C234.385 608.117 233.982 608.174 233.559 608.29C233.156 608.405 232.782 608.606 232.436 608.894C232.09 609.163 231.802 609.518 231.572 609.96C231.361 610.402 231.255 610.939 231.255 611.573V620.213C231.255 620.846 231.361 621.384 231.572 621.826C231.802 622.248 232.09 622.603 232.436 622.891C232.782 623.16 233.156 623.352 233.559 623.467C233.982 623.582 234.385 623.64 234.769 623.64C235.153 623.64 235.546 623.582 235.95 623.467C236.372 623.352 236.756 623.16 237.102 622.891C237.447 622.603 237.735 622.248 237.966 621.826C238.196 621.384 238.311 620.846 238.311 620.213V611.573ZM269.617 620.846C269.617 621.653 269.434 622.373 269.07 623.006C268.724 623.64 268.263 624.178 267.687 624.619C267.111 625.042 266.458 625.368 265.729 625.598C265.018 625.829 264.298 625.944 263.569 625.944C262.82 625.944 262.081 625.829 261.351 625.598C260.641 625.368 259.998 625.042 259.422 624.619C258.865 624.178 258.404 623.64 258.039 623.006C257.694 622.373 257.521 621.653 257.521 620.846V610.939C257.521 610.133 257.694 609.413 258.039 608.779C258.404 608.126 258.874 607.579 259.45 607.138C260.026 606.677 260.67 606.331 261.38 606.101C262.11 605.87 262.839 605.755 263.569 605.755C264.298 605.755 265.018 605.87 265.729 606.101C266.458 606.331 267.111 606.677 267.687 607.138C268.263 607.579 268.724 608.126 269.07 608.779C269.434 609.413 269.617 610.133 269.617 610.939V620.846ZM267.111 611.573C267.111 610.939 266.996 610.402 266.766 609.96C266.535 609.518 266.247 609.163 265.902 608.894C265.556 608.606 265.172 608.405 264.75 608.29C264.346 608.174 263.953 608.117 263.569 608.117C263.185 608.117 262.782 608.174 262.359 608.29C261.956 608.405 261.582 608.606 261.236 608.894C260.89 609.163 260.602 609.518 260.372 609.96C260.161 610.402 260.055 610.939 260.055 611.573V620.213C260.055 620.846 260.161 621.384 260.372 621.826C260.602 622.248 260.89 622.603 261.236 622.891C261.582 623.16 261.956 623.352 262.359 623.467C262.782 623.582 263.185 623.64 263.569 623.64C263.953 623.64 264.346 623.582 264.75 623.467C265.172 623.352 265.556 623.16 265.902 622.891C266.247 622.603 266.535 622.248 266.766 621.826C266.996 621.384 267.111 620.846 267.111 620.213V611.573ZM298.215 623.986L286.494 618.168V616.44L298.215 610.594V612.638L288.826 617.304L298.215 621.941V623.986ZM327.217 620.846C327.217 621.653 327.034 622.373 326.67 623.006C326.324 623.64 325.863 624.178 325.287 624.619C324.711 625.042 324.058 625.368 323.329 625.598C322.618 625.829 321.898 625.944 321.169 625.944C320.42 625.944 319.681 625.829 318.951 625.598C318.241 625.368 317.598 625.042 317.022 624.619C316.465 624.178 316.004 623.64 315.639 623.006C315.294 622.373 315.121 621.653 315.121 620.846V610.939C315.121 610.133 315.294 609.413 315.639 608.779C316.004 608.126 316.474 607.579 317.05 607.138C317.626 606.677 318.27 606.331 318.98 606.101C319.71 605.87 320.439 605.755 321.169 605.755C321.898 605.755 322.618 605.87 323.329 606.101C324.058 606.331 324.711 606.677 325.287 607.138C325.863 607.579 326.324 608.126 326.67 608.779C327.034 609.413 327.217 610.133 327.217 610.939V620.846ZM324.711 611.573C324.711 610.939 324.596 610.402 324.366 609.96C324.135 609.518 323.847 609.163 323.502 608.894C323.156 608.606 322.772 608.405 322.35 608.29C321.946 608.174 321.553 608.117 321.169 608.117C320.785 608.117 320.382 608.174 319.959 608.29C319.556 608.405 319.182 608.606 318.836 608.894C318.49 609.163 318.202 609.518 317.972 609.96C317.761 610.402 317.655 610.939 317.655 611.573V620.213C317.655 620.846 317.761 621.384 317.972 621.826C318.202 622.248 318.49 622.603 318.836 622.891C319.182 623.16 319.556 623.352 319.959 623.467C320.382 623.582 320.785 623.64 321.169 623.64C321.553 623.64 321.946 623.582 322.35 623.467C322.772 623.352 323.156 623.16 323.502 622.891C323.847 622.603 324.135 622.248 324.366 621.826C324.596 621.384 324.711 620.846 324.711 620.213V611.573ZM356.881 625.8L355.326 621.336H347.434L345.908 625.8H343.143L350.055 605.957H352.734L359.674 625.8H356.881ZM351.322 609.586L349.882 614.194L348.298 618.917H354.49L352.906 614.194L351.438 609.586H351.322ZM384.232 605.957C385.23 605.957 386.084 606.139 386.795 606.504C387.505 606.85 388.091 607.31 388.552 607.886C389.012 608.443 389.348 609.077 389.56 609.787C389.771 610.478 389.876 611.179 389.876 611.89C389.876 612.446 389.8 613.003 389.646 613.56C389.492 614.098 389.262 614.606 388.955 615.086C388.648 615.566 388.273 616.008 387.832 616.411C387.409 616.795 386.92 617.102 386.363 617.333L390.078 625.8H387.14L383.771 617.822H378.644V625.8H375.995V605.957H384.232ZM387.227 611.89C387.227 610.814 386.891 609.96 386.219 609.326C385.566 608.693 384.721 608.376 383.684 608.376H378.644V615.374H383.684C384.721 615.374 385.566 615.067 386.219 614.453C386.891 613.838 387.227 612.984 387.227 611.89ZM419.289 608.232L409.382 623.41H419.26V625.8H406.3V623.467L416.092 608.376H406.703V605.957H419.289V608.232ZM447.583 620.702C447.583 621.528 447.42 622.267 447.093 622.92C446.767 623.573 446.325 624.12 445.769 624.562C445.231 625.003 444.588 625.349 443.839 625.598C443.109 625.829 442.341 625.944 441.535 625.944C440.268 625.944 439.202 625.752 438.338 625.368C437.474 624.965 436.725 624.485 436.092 623.928L437.532 621.912C438.127 622.45 438.741 622.862 439.375 623.15C440.028 623.419 440.719 623.554 441.449 623.554C441.813 623.554 442.197 623.496 442.601 623.381C443.023 623.266 443.407 623.074 443.753 622.805C444.117 622.536 444.415 622.19 444.645 621.768C444.895 621.326 445.02 620.789 445.02 620.155V616.814C444.079 617.371 443.225 617.774 442.457 618.024C441.708 618.274 441.045 618.398 440.469 618.398C438.991 618.398 437.829 617.957 436.985 617.074C436.14 616.19 435.717 614.933 435.717 613.301V611.083C435.717 610.258 435.881 609.518 436.207 608.866C436.533 608.194 436.965 607.627 437.503 607.166C438.06 606.706 438.693 606.36 439.404 606.13C440.133 605.88 440.892 605.755 441.679 605.755C442.447 605.755 443.186 605.87 443.897 606.101C444.607 606.331 445.231 606.667 445.769 607.109C446.325 607.55 446.767 608.098 447.093 608.75C447.42 609.384 447.583 610.114 447.583 610.939V620.702ZM438.223 613.07C438.223 614.088 438.473 614.827 438.972 615.288C439.471 615.73 440.085 615.95 440.815 615.95C441.487 615.95 442.159 615.806 442.831 615.518C443.522 615.211 444.252 614.818 445.02 614.338V611.486C445.02 610.872 444.914 610.354 444.703 609.931C444.511 609.509 444.252 609.163 443.925 608.894C443.599 608.626 443.234 608.434 442.831 608.318C442.447 608.184 442.063 608.117 441.679 608.117C441.295 608.117 440.901 608.184 440.498 608.318C440.095 608.434 439.721 608.626 439.375 608.894C439.049 609.163 438.77 609.518 438.54 609.96C438.329 610.382 438.223 610.891 438.223 611.486V613.07ZM470.277 625.8V609.01L467.57 611.227L466.245 609.413L470.421 605.957H472.754V625.8H470.277ZM499.481 605.784C500.21 605.784 500.921 605.899 501.612 606.13C502.322 606.36 502.956 606.715 503.513 607.195C504.069 607.675 504.511 608.27 504.837 608.981C505.183 609.672 505.356 610.488 505.356 611.429C505.356 612.35 505.154 613.205 504.751 613.992C504.348 614.76 503.753 615.326 502.965 615.691C503.465 615.902 503.887 616.171 504.233 616.498C504.597 616.824 504.885 617.189 505.097 617.592C505.327 617.995 505.49 618.427 505.586 618.888C505.701 619.33 505.759 619.762 505.759 620.184C505.759 621.182 505.577 622.046 505.212 622.776C504.847 623.506 504.367 624.11 503.772 624.59C503.177 625.051 502.495 625.397 501.727 625.627C500.978 625.858 500.22 625.973 499.452 625.973C498.607 625.973 497.801 625.858 497.033 625.627C496.284 625.397 495.621 625.051 495.045 624.59C494.489 624.13 494.037 623.554 493.692 622.862C493.365 622.152 493.202 621.317 493.202 620.357C493.202 619.858 493.279 619.368 493.433 618.888C493.586 618.408 493.788 617.966 494.037 617.563C494.306 617.141 494.613 616.766 494.959 616.44C495.324 616.114 495.708 615.864 496.111 615.691C495.305 615.384 494.69 614.837 494.268 614.05C493.845 613.262 493.634 612.379 493.634 611.4C493.634 610.478 493.797 609.672 494.124 608.981C494.469 608.27 494.921 607.685 495.477 607.224C496.034 606.744 496.658 606.389 497.349 606.158C498.041 605.909 498.751 605.784 499.481 605.784ZM499.509 608.174C499.087 608.174 498.665 608.242 498.242 608.376C497.839 608.51 497.474 608.712 497.148 608.981C496.841 609.25 496.591 609.586 496.399 609.989C496.207 610.392 496.111 610.862 496.111 611.4C496.111 611.899 496.207 612.35 496.399 612.754C496.591 613.157 496.841 613.502 497.148 613.79C497.474 614.059 497.839 614.27 498.242 614.424C498.645 614.578 499.068 614.654 499.509 614.654C499.932 614.654 500.345 614.578 500.748 614.424C501.17 614.27 501.535 614.05 501.842 613.762C502.149 613.474 502.399 613.128 502.591 612.725C502.783 612.322 502.879 611.87 502.879 611.371C502.879 610.853 502.783 610.392 502.591 609.989C502.418 609.586 502.178 609.25 501.871 608.981C501.564 608.712 501.199 608.51 500.777 608.376C500.373 608.242 499.951 608.174 499.509 608.174ZM499.509 616.958C499.01 616.958 498.54 617.035 498.098 617.189C497.657 617.342 497.273 617.563 496.946 617.851C496.62 618.139 496.351 618.494 496.14 618.917C495.948 619.32 495.852 619.781 495.852 620.299C495.852 621.355 496.169 622.171 496.802 622.747C497.455 623.323 498.357 623.611 499.509 623.611C500.623 623.611 501.506 623.323 502.159 622.747C502.812 622.171 503.138 621.336 503.138 620.242C503.138 619.742 503.042 619.291 502.85 618.888C502.658 618.485 502.399 618.139 502.073 617.851C501.746 617.563 501.362 617.342 500.921 617.189C500.479 617.035 500.009 616.958 499.509 616.958ZM534.156 620.702C534.156 621.509 533.983 622.238 533.637 622.891C533.311 623.525 532.86 624.072 532.284 624.533C531.727 624.994 531.074 625.349 530.325 625.598C529.577 625.829 528.789 625.944 527.964 625.944C526.716 625.944 525.641 625.752 524.738 625.368C523.855 624.965 523.097 624.485 522.463 623.928L523.903 621.941C525.113 623.054 526.447 623.611 527.906 623.611C528.175 623.611 528.521 623.573 528.943 623.496C529.365 623.4 529.778 623.237 530.181 623.006C530.585 622.757 530.93 622.421 531.218 621.998C531.506 621.576 531.65 621.029 531.65 620.357V617.794C531.65 616.834 531.41 616.123 530.93 615.662C530.45 615.202 529.826 614.971 529.058 614.971C528.751 614.971 528.405 615.029 528.021 615.144C527.637 615.259 527.253 615.403 526.869 615.576C526.485 615.73 526.121 615.912 525.775 616.123C525.449 616.315 525.18 616.498 524.969 616.67L522.636 615.749V605.957H533.58V608.29H525.199V613.934C525.929 613.435 526.658 613.061 527.388 612.811C528.117 612.562 528.761 612.437 529.317 612.437C530.066 612.437 530.738 612.562 531.333 612.811C531.929 613.042 532.428 613.387 532.831 613.848C533.253 614.29 533.58 614.827 533.81 615.461C534.041 616.075 534.156 616.757 534.156 617.506V620.702ZM554.316 608.376V614.654H563.388V617.074H554.316V625.8H551.666V605.957H564.914V608.376H554.316ZM586.231 605.784C586.941 605.784 587.642 605.87 588.333 606.043C589.044 606.216 589.677 606.504 590.234 606.907C590.81 607.291 591.271 607.81 591.616 608.462C591.962 609.115 592.135 609.912 592.135 610.853C592.135 611.832 591.895 612.734 591.415 613.56C590.954 614.366 590.263 614.942 589.341 615.288C589.802 615.48 590.205 615.749 590.551 616.094C590.916 616.421 591.213 616.795 591.444 617.218C591.693 617.64 591.876 618.091 591.991 618.571C592.125 619.051 592.192 619.522 592.192 619.982C592.192 620.981 592.01 621.854 591.645 622.603C591.3 623.352 590.829 623.986 590.234 624.504C589.658 625.003 588.976 625.378 588.189 625.627C587.421 625.877 586.605 626.002 585.741 626.002C584.532 626.002 583.428 625.81 582.429 625.426C581.45 625.022 580.653 624.552 580.039 624.014L581.364 622.056C581.92 622.555 582.583 622.949 583.351 623.237C584.138 623.525 584.887 623.669 585.597 623.669C586.826 623.669 587.805 623.371 588.535 622.776C589.284 622.162 589.658 621.307 589.658 620.213C589.658 619.118 589.36 618.235 588.765 617.563C588.17 616.891 587.392 616.555 586.432 616.555H584.186V614.338H586.49C586.855 614.338 587.22 614.27 587.584 614.136C587.968 614.002 588.304 613.8 588.592 613.531C588.9 613.243 589.14 612.888 589.312 612.466C589.504 612.043 589.6 611.544 589.6 610.968C589.6 610.45 589.495 610.008 589.284 609.643C589.072 609.278 588.784 608.981 588.42 608.75C588.074 608.52 587.68 608.357 587.239 608.261C586.797 608.165 586.346 608.117 585.885 608.117C585.175 608.117 584.445 608.27 583.696 608.578C582.967 608.885 582.343 609.259 581.824 609.701L580.471 607.8C581.085 607.262 581.892 606.792 582.89 606.389C583.908 605.986 585.021 605.784 586.231 605.784ZM620.445 622.747V625.8H617.911V622.747H609.271V620.616C610.365 618.197 611.46 615.758 612.554 613.301C613.668 610.843 614.772 608.395 615.866 605.957H618.516L612.064 620.501H617.911V614.568H620.445V620.501H622.144V622.747H620.445ZM650.368 620.702C650.368 621.509 650.196 622.238 649.85 622.891C649.524 623.525 649.072 624.072 648.496 624.533C647.94 624.994 647.287 625.349 646.538 625.598C645.789 625.829 645.002 625.944 644.176 625.944C642.928 625.944 641.853 625.752 640.951 625.368C640.067 624.965 639.309 624.485 638.675 623.928L640.115 621.941C641.325 623.054 642.66 623.611 644.119 623.611C644.387 623.611 644.733 623.573 645.156 623.496C645.578 623.4 645.991 623.237 646.394 623.006C646.797 622.757 647.143 622.421 647.431 621.998C647.719 621.576 647.863 621.029 647.863 620.357V617.794C647.863 616.834 647.623 616.123 647.143 615.662C646.663 615.202 646.039 614.971 645.271 614.971C644.964 614.971 644.618 615.029 644.234 615.144C643.85 615.259 643.466 615.403 643.082 615.576C642.698 615.73 642.333 615.912 641.987 616.123C641.661 616.315 641.392 616.498 641.181 616.67L638.848 615.749V605.957H649.792V608.29H641.411V613.934C642.141 613.435 642.871 613.061 643.6 612.811C644.33 612.562 644.973 612.437 645.53 612.437C646.279 612.437 646.951 612.562 647.546 612.811C648.141 613.042 648.64 613.387 649.044 613.848C649.466 614.29 649.792 614.827 650.023 615.461C650.253 616.075 650.368 616.757 650.368 617.506V620.702ZM670.615 616.267L679.024 605.957H682.221L675.827 613.79L682.883 625.8H679.773L674.042 615.979L670.413 620.299V625.8H667.763V605.957H670.413V616.267H670.615ZM703.771 625.8V609.01L701.064 611.227L699.739 609.413L703.915 605.957H706.248V625.8H703.771ZM732.312 605.784C733.022 605.784 733.723 605.87 734.414 606.043C735.125 606.216 735.758 606.504 736.315 606.907C736.891 607.291 737.352 607.81 737.698 608.462C738.043 609.115 738.216 609.912 738.216 610.853C738.216 611.832 737.976 612.734 737.496 613.56C737.035 614.366 736.344 614.942 735.422 615.288C735.883 615.48 736.286 615.749 736.632 616.094C736.997 616.421 737.294 616.795 737.525 617.218C737.774 617.64 737.957 618.091 738.072 618.571C738.206 619.051 738.274 619.522 738.274 619.982C738.274 620.981 738.091 621.854 737.726 622.603C737.381 623.352 736.91 623.986 736.315 624.504C735.739 625.003 735.058 625.378 734.27 625.627C733.502 625.877 732.686 626.002 731.822 626.002C730.613 626.002 729.509 625.81 728.51 625.426C727.531 625.022 726.734 624.552 726.12 624.014L727.445 622.056C728.002 622.555 728.664 622.949 729.432 623.237C730.219 623.525 730.968 623.669 731.678 623.669C732.907 623.669 733.886 623.371 734.616 622.776C735.365 622.162 735.739 621.307 735.739 620.213C735.739 619.118 735.442 618.235 734.846 617.563C734.251 616.891 733.474 616.555 732.514 616.555H730.267V614.338H732.571C732.936 614.338 733.301 614.27 733.666 614.136C734.05 614.002 734.386 613.8 734.674 613.531C734.981 613.243 735.221 612.888 735.394 612.466C735.586 612.043 735.682 611.544 735.682 610.968C735.682 610.45 735.576 610.008 735.365 609.643C735.154 609.278 734.866 608.981 734.501 608.75C734.155 608.52 733.762 608.357 733.32 608.261C732.878 608.165 732.427 608.117 731.966 608.117C731.256 608.117 730.526 608.27 729.778 608.578C729.048 608.885 728.424 609.259 727.906 609.701L726.552 607.8C727.166 607.262 727.973 606.792 728.971 606.389C729.989 605.986 731.102 605.784 732.312 605.784ZM767.794 610.968C767.794 611.698 767.611 612.398 767.246 613.07C766.901 613.742 766.459 614.376 765.922 614.971C765.403 615.547 764.837 616.075 764.222 616.555C763.627 617.035 763.07 617.448 762.552 617.794C762.187 618.043 761.765 618.341 761.285 618.686C760.824 619.032 760.373 619.416 759.931 619.838C759.509 620.261 759.144 620.722 758.837 621.221C758.549 621.72 758.405 622.258 758.405 622.834V623.582H767.736V625.8H755.813V623.467C755.813 622.661 755.947 621.912 756.216 621.221C756.485 620.53 756.85 619.886 757.31 619.291C757.771 618.696 758.299 618.149 758.894 617.65C759.49 617.131 760.114 616.651 760.766 616.21C761.323 615.864 761.861 615.49 762.379 615.086C762.917 614.683 763.397 614.27 763.819 613.848C764.242 613.406 764.578 612.955 764.827 612.494C765.077 612.034 765.202 611.563 765.202 611.083C765.202 610.565 765.086 610.123 764.856 609.758C764.645 609.374 764.357 609.067 763.992 608.837C763.627 608.587 763.214 608.405 762.754 608.29C762.312 608.174 761.861 608.117 761.4 608.117C760.594 608.117 759.845 608.261 759.154 608.549C758.462 608.818 757.858 609.173 757.339 609.614L756.043 607.742C756.696 607.186 757.474 606.715 758.376 606.331C759.278 605.947 760.286 605.755 761.4 605.755C762.206 605.755 762.994 605.851 763.762 606.043C764.53 606.235 765.211 606.542 765.806 606.965C766.402 607.368 766.882 607.906 767.246 608.578C767.611 609.23 767.794 610.027 767.794 610.968ZM795.326 622.747V625.8H792.792V622.747H784.152V620.616C785.246 618.197 786.341 615.758 787.435 613.301C788.549 610.843 789.653 608.395 790.747 605.957H793.397L786.946 620.501H792.792V614.568H795.326V620.501H797.026V622.747H795.326ZM825.394 610.968C825.394 611.698 825.211 612.398 824.846 613.07C824.501 613.742 824.059 614.376 823.522 614.971C823.003 615.547 822.437 616.075 821.822 616.555C821.227 617.035 820.67 617.448 820.152 617.794C819.787 618.043 819.365 618.341 818.885 618.686C818.424 619.032 817.973 619.416 817.531 619.838C817.109 620.261 816.744 620.722 816.437 621.221C816.149 621.72 816.005 622.258 816.005 622.834V623.582H825.336V625.8H813.413V623.467C813.413 622.661 813.547 621.912 813.816 621.221C814.085 620.53 814.45 619.886 814.91 619.291C815.371 618.696 815.899 618.149 816.494 617.65C817.09 617.131 817.714 616.651 818.366 616.21C818.923 615.864 819.461 615.49 819.979 615.086C820.517 614.683 820.997 614.27 821.419 613.848C821.842 613.406 822.178 612.955 822.427 612.494C822.677 612.034 822.802 611.563 822.802 611.083C822.802 610.565 822.686 610.123 822.456 609.758C822.245 609.374 821.957 609.067 821.592 608.837C821.227 608.587 820.814 608.405 820.354 608.29C819.912 608.174 819.461 608.117 819 608.117C818.194 608.117 817.445 608.261 816.754 608.549C816.062 608.818 815.458 609.173 814.939 609.614L813.643 607.742C814.296 607.186 815.074 606.715 815.976 606.331C816.878 605.947 817.886 605.755 819 605.755C819.806 605.755 820.594 605.851 821.362 606.043C822.13 606.235 822.811 606.542 823.406 606.965C824.002 607.368 824.482 607.906 824.846 608.578C825.211 609.23 825.394 610.027 825.394 610.968ZM847.512 605.784C848.222 605.784 848.923 605.87 849.614 606.043C850.325 606.216 850.958 606.504 851.515 606.907C852.091 607.291 852.552 607.81 852.898 608.462C853.243 609.115 853.416 609.912 853.416 610.853C853.416 611.832 853.176 612.734 852.696 613.56C852.235 614.366 851.544 614.942 850.622 615.288C851.083 615.48 851.486 615.749 851.832 616.094C852.197 616.421 852.494 616.795 852.725 617.218C852.974 617.64 853.157 618.091 853.272 618.571C853.406 619.051 853.474 619.522 853.474 619.982C853.474 620.981 853.291 621.854 852.926 622.603C852.581 623.352 852.11 623.986 851.515 624.504C850.939 625.003 850.258 625.378 849.47 625.627C848.702 625.877 847.886 626.002 847.022 626.002C845.813 626.002 844.709 625.81 843.71 625.426C842.731 625.022 841.934 624.552 841.32 624.014L842.645 622.056C843.202 622.555 843.864 622.949 844.632 623.237C845.419 623.525 846.168 623.669 846.878 623.669C848.107 623.669 849.086 623.371 849.816 622.776C850.565 622.162 850.939 621.307 850.939 620.213C850.939 619.118 850.642 618.235 850.046 617.563C849.451 616.891 848.674 616.555 847.714 616.555H845.467V614.338H847.771C848.136 614.338 848.501 614.27 848.866 614.136C849.25 614.002 849.586 613.8 849.874 613.531C850.181 613.243 850.421 612.888 850.594 612.466C850.786 612.043 850.882 611.544 850.882 610.968C850.882 610.45 850.776 610.008 850.565 609.643C850.354 609.278 850.066 608.981 849.701 608.75C849.355 608.52 848.962 608.357 848.52 608.261C848.078 608.165 847.627 608.117 847.166 608.117C846.456 608.117 845.726 608.27 844.978 608.578C844.248 608.885 843.624 609.259 843.106 609.701L841.752 607.8C842.366 607.262 843.173 606.792 844.171 606.389C845.189 605.986 846.302 605.784 847.512 605.784ZM882.85 623.986L871.128 618.168V616.44L882.85 610.594V612.638L873.461 617.304L882.85 621.941V623.986ZM911.65 623.986L899.928 618.168V616.44L911.65 610.594V612.638L902.261 617.304L911.65 621.941V623.986ZM940.45 623.986L928.728 618.168V616.44L940.45 610.594V612.638L931.061 617.304L940.45 621.941V623.986ZM969.25 623.986L957.528 618.168V616.44L969.25 610.594V612.638L959.861 617.304L969.25 621.941V623.986ZM998.251 620.846C998.251 621.653 998.069 622.373 997.704 623.006C997.358 623.64 996.898 624.178 996.322 624.619C995.746 625.042 995.093 625.368 994.363 625.598C993.653 625.829 992.933 625.944 992.203 625.944C991.454 625.944 990.715 625.829 989.986 625.598C989.275 625.368 988.632 625.042 988.056 624.619C987.499 624.178 987.038 623.64 986.674 623.006C986.328 622.373 986.155 621.653 986.155 620.846V610.939C986.155 610.133 986.328 609.413 986.674 608.779C987.038 608.126 987.509 607.579 988.085 607.138C988.661 606.677 989.304 606.331 990.014 606.101C990.744 605.87 991.474 605.755 992.203 605.755C992.933 605.755 993.653 605.87 994.363 606.101C995.093 606.331 995.746 606.677 996.322 607.138C996.898 607.579 997.358 608.126 997.704 608.779C998.069 609.413 998.251 610.133 998.251 610.939V620.846ZM995.746 611.573C995.746 610.939 995.63 610.402 995.4 609.96C995.17 609.518 994.882 609.163 994.536 608.894C994.19 608.606 993.806 608.405 993.384 608.29C992.981 608.174 992.587 608.117 992.203 608.117C991.819 608.117 991.416 608.174 990.994 608.29C990.59 608.405 990.216 608.606 989.87 608.894C989.525 609.163 989.237 609.518 989.006 609.96C988.795 610.402 988.69 610.939 988.69 611.573V620.213C988.69 620.846 988.795 621.384 989.006 621.826C989.237 622.248 989.525 622.603 989.87 622.891C990.216 623.16 990.59 623.352 990.994 623.467C991.416 623.582 991.819 623.64 992.203 623.64C992.587 623.64 992.981 623.582 993.384 623.467C993.806 623.352 994.19 623.16 994.536 622.891C994.882 622.603 995.17 622.248 995.4 621.826C995.63 621.384 995.746 620.846 995.746 620.213V611.573ZM1027.05 620.846C1027.05 621.653 1026.87 622.373 1026.5 623.006C1026.16 623.64 1025.7 624.178 1025.12 624.619C1024.55 625.042 1023.89 625.368 1023.16 625.598C1022.45 625.829 1021.73 625.944 1021 625.944C1020.25 625.944 1019.52 625.829 1018.79 625.598C1018.08 625.368 1017.43 625.042 1016.86 624.619C1016.3 624.178 1015.84 623.64 1015.47 623.006C1015.13 622.373 1014.96 621.653 1014.96 620.846V610.939C1014.96 610.133 1015.13 609.413 1015.47 608.779C1015.84 608.126 1016.31 607.579 1016.88 607.138C1017.46 606.677 1018.1 606.331 1018.81 606.101C1019.54 605.87 1020.27 605.755 1021 605.755C1021.73 605.755 1022.45 605.87 1023.16 606.101C1023.89 606.331 1024.55 606.677 1025.12 607.138C1025.7 607.579 1026.16 608.126 1026.5 608.779C1026.87 609.413 1027.05 610.133 1027.05 610.939V620.846ZM1024.55 611.573C1024.55 610.939 1024.43 610.402 1024.2 609.96C1023.97 609.518 1023.68 609.163 1023.34 608.894C1022.99 608.606 1022.61 608.405 1022.18 608.29C1021.78 608.174 1021.39 608.117 1021 608.117C1020.62 608.117 1020.22 608.174 1019.79 608.29C1019.39 608.405 1019.02 608.606 1018.67 608.894C1018.32 609.163 1018.04 609.518 1017.81 609.96C1017.6 610.402 1017.49 610.939 1017.49 611.573V620.213C1017.49 620.846 1017.6 621.384 1017.81 621.826C1018.04 622.248 1018.32 622.603 1018.67 622.891C1019.02 623.16 1019.39 623.352 1019.79 623.467C1020.22 623.582 1020.62 623.64 1021 623.64C1021.39 623.64 1021.78 623.582 1022.18 623.467C1022.61 623.352 1022.99 623.16 1023.34 622.891C1023.68 622.603 1023.97 622.248 1024.2 621.826C1024.43 621.384 1024.55 620.846 1024.55 620.213V611.573ZM1048.45 625.8H1045.74L1052.88 608.261H1046.29V611.227H1043.9V605.957H1055.71V608.174L1048.45 625.8Z" fill="#71874E" fill-opacity="0.3"/>
</g>
</svg>
