<svg width="32" height="32" viewBox="0 0 32 32" fill="none" xmlns="http://www.w3.org/2000/svg">
<path d="M20.44 11C18.14 11 15 11 15 8.83C15 7.44 19.49 2 22.67 2C27.77 2 29.91 11 20.45 11H20.44ZM17 9C17.67 9.27 19.68 9 20.44 9C27.08 9 25.25 4 22.66 4C20.92 4 17.67 7.73 16.99 9H17Z" fill="#EBFFD7"/>
<path d="M11.5609 11C2.02087 11 4.28086 2 9.33086 2C12.5109 2 17.0009 7.44 17.0009 8.83C17.0009 11 13.8509 11 11.5609 11ZM9.34087 4C8.05087 4 7.01087 5.12 7.01087 6.5C7.01087 8.76 10.2009 9 11.5709 9C12.3409 9 14.3409 9.27 15.0109 9C14.3309 7.73 11.0809 4 9.34087 4Z" fill="#EBFFD7"/>
<path d="M27 14H5C4.45 14 4 14.45 4 15V27C4 28.65 5.35 30 7 30H25C26.65 30 28 28.65 28 27V15C28 14.45 27.55 14 27 14Z" fill="#EBFFD7"/>
<path d="M29 9H3C2.44772 9 2 9.44772 2 10V15C2 15.5523 2.44772 16 3 16H29C29.5523 16 30 15.5523 30 15V10C30 9.44772 29.5523 9 29 9Z" fill="#EBFFD7"/>
<path d="M4 16H28V17H4V16Z" fill="#7FA55E"/>
<path d="M13 9H19V30H13V9Z" fill="#7FA55E"/>
</svg>
