<svg width="12" height="12" viewBox="0 0 12 12" fill="none" xmlns="http://www.w3.org/2000/svg">
<g clip-path="url(#clip0_632_3816)">
<path d="M11.9652 7.73694L11.1661 3.85529C11.0537 3.30954 10.5733 2.91797 10.0161 2.91797H1.98397C1.42678 2.91797 0.946314 3.30954 0.833979 3.85529L0.0348143 7.73694C-0.177955 8.77039 0.611506 9.73893 1.66665 9.73893C2.4573 9.73893 3.1391 9.1832 3.29849 8.40885L3.62872 6.80512H8.37134L8.70157 8.40885C8.86097 9.1832 9.54276 9.73893 10.3334 9.73893C11.3886 9.73893 12.178 8.77039 11.9652 7.73694Z" fill="#EBECEC"/>
<path d="M3.45257 2.91797H1.98397C1.42678 2.91797 0.946314 3.30954 0.833979 3.85529L0.0348143 7.73694C-0.177955 8.77039 0.611506 9.73893 1.66665 9.73893C2.4573 9.73893 3.1391 9.1832 3.29849 8.40885L3.62872 6.80512H4.73257C3.25812 5.65503 3.17874 4.12921 3.45257 2.91797Z" fill="#DADBDB"/>
<path d="M3.29849 8.40894L3.33026 8.25485L0.0600829 7.61426L0.0348143 7.73703C-0.177955 8.77048 0.611506 9.73902 1.66665 9.73902C2.4573 9.73902 3.1391 9.18329 3.29849 8.40894Z" fill="#BEBFC0"/>
<path d="M8.70169 8.40894L8.66992 8.25485L11.9401 7.61426L11.9654 7.73694C12.1781 8.77048 11.3887 9.73902 10.3335 9.73902C9.54288 9.73902 8.86108 9.18329 8.70169 8.40894Z" fill="#DADBDB"/>
<path d="M3.4534 2.27344H2.51746C2.33582 2.27344 2.17853 2.39987 2.13953 2.5773L2.06445 2.91806H3.9064L3.83142 2.5773C3.79242 2.39987 3.63513 2.27344 3.4534 2.27344Z" fill="#495059"/>
<path d="M5.53644 6.80533C5.53644 7.482 4.98786 8.03049 4.31119 8.03049C3.63452 8.03049 3.08594 7.482 3.08594 6.80533C3.08594 6.12866 3.63452 5.58008 4.31119 5.58008C4.98786 5.58008 5.53644 6.12866 5.53644 6.80533Z" fill="#BEBFC0"/>
<path d="M4.81384 6.80536C4.81384 7.08295 4.58881 7.30798 4.31122 7.30798C4.03363 7.30798 3.80859 7.08295 3.80859 6.80536C3.80859 6.52777 4.03363 6.30273 4.31122 6.30273C4.58881 6.30273 4.81384 6.52777 4.81384 6.80536Z" fill="#495059"/>
<path d="M8.54675 2.27344H9.48261C9.66434 2.27344 9.82163 2.39987 9.86063 2.5773L9.93561 2.91806H8.09375L8.16873 2.5773C8.20773 2.39987 8.36502 2.27344 8.54675 2.27344Z" fill="#495059"/>
<path d="M8.91339 6.80533C8.91339 7.482 8.36481 8.03049 7.68814 8.03049C7.01148 8.03049 6.46289 7.482 6.46289 6.80533C6.46289 6.12866 7.01148 5.58008 7.68814 5.58008C8.36481 5.58008 8.91339 6.12866 8.91339 6.80533Z" fill="#BEBFC0"/>
<path d="M8.1908 6.80536C8.1908 7.08295 7.96576 7.30798 7.68817 7.30798C7.41058 7.30798 7.18555 7.08295 7.18555 6.80536C7.18555 6.52777 7.41058 6.30273 7.68817 6.30273C7.96576 6.30273 8.1908 6.52777 8.1908 6.80536Z" fill="#495059"/>
<path d="M7.78577 2.91797H4.21484V4.2432C4.21484 4.58469 4.4917 4.86154 4.83319 4.86154H7.16742C7.50892 4.86154 7.78577 4.58469 7.78577 4.2432V2.91797Z" fill="#495059"/>
<path d="M2.80753 4.04822L2.53433 4.32141C2.47363 4.38202 2.37531 4.38202 2.3147 4.32141L2.0415 4.04822C2.00873 4.01535 1.99023 3.97095 1.99023 3.92453V3.67221C1.99023 3.58038 2.06467 3.50586 2.15649 3.50586H2.69244C2.78427 3.50586 2.8588 3.58038 2.8588 3.67221V3.92453C2.8588 3.97095 2.8403 4.01535 2.80753 4.04822Z" fill="#495059"/>
<path d="M1.84696 4.2421L2.12015 4.51529C2.18085 4.57599 2.18085 4.67432 2.12015 4.73502L1.84696 5.00812C1.81418 5.04099 1.76968 5.05939 1.72327 5.05939H1.47095C1.37912 5.05939 1.30469 4.98496 1.30469 4.89313V4.35718C1.30469 4.26535 1.37912 4.19092 1.47095 4.19092H1.72327C1.76968 4.19092 1.81418 4.20932 1.84696 4.2421Z" fill="#495059"/>
<path d="M2.0415 5.20202L2.3147 4.92883C2.37531 4.86813 2.47363 4.86813 2.53433 4.92883L2.80753 5.20202C2.8403 5.2348 2.8588 5.27929 2.8588 5.32571V5.57803C2.8588 5.66985 2.78427 5.74429 2.69244 5.74429H2.15649C2.06467 5.74429 1.99023 5.66985 1.99023 5.57803V5.32571C1.99023 5.27929 2.00873 5.2348 2.0415 5.20202Z" fill="#495059"/>
<path d="M3.00036 5.00812L2.72717 4.73492C2.66647 4.67432 2.66647 4.57599 2.72717 4.51529L3.00036 4.2421C3.03313 4.20932 3.07763 4.19092 3.12405 4.19092H3.37637C3.46819 4.19092 3.54263 4.26535 3.54263 4.35718V4.89313C3.54263 4.98496 3.46819 5.05939 3.37637 5.05939H3.12405C3.07763 5.05939 3.03313 5.04099 3.00036 5.00812Z" fill="#495059"/>
<path d="M9.95886 3.89056C9.95886 4.10306 9.78665 4.27527 9.57416 4.27527C9.36176 4.27527 9.18945 4.10306 9.18945 3.89056C9.18945 3.67816 9.36176 3.50586 9.57416 3.50586C9.78665 3.50586 9.95886 3.67816 9.95886 3.89056Z" fill="#495059"/>
<path d="M9.22449 4.62494C9.22449 4.83734 9.05219 5.00964 8.83978 5.00964C8.62729 5.00964 8.45508 4.83734 8.45508 4.62494C8.45508 4.41245 8.62729 4.24023 8.83978 4.24023C9.05219 4.24023 9.22449 4.41245 9.22449 4.62494Z" fill="#495059"/>
<path d="M9.95886 5.35931C9.95886 5.57181 9.78665 5.74402 9.57416 5.74402C9.36176 5.74402 9.18945 5.57181 9.18945 5.35931C9.18945 5.14691 9.36176 4.97461 9.57416 4.97461C9.78665 4.97461 9.95886 5.14691 9.95886 5.35931Z" fill="#495059"/>
<path d="M10.6932 4.62494C10.6932 4.83734 10.5209 5.00964 10.3085 5.00964C10.096 5.00964 9.92383 4.83734 9.92383 4.62494C9.92383 4.41245 10.096 4.24023 10.3085 4.24023C10.5209 4.24023 10.6932 4.41245 10.6932 4.62494Z" fill="#495059"/>
</g>
<defs>
<clipPath id="clip0_632_3816">
<rect width="12" height="12" fill="white"/>
</clipPath>
</defs>
</svg>
