<svg width="121" height="142" viewBox="0 0 121 142" fill="none" xmlns="http://www.w3.org/2000/svg">
<path d="M87.1058 0.599609H33.8831C7.27189 0.599609 0.654297 7.71001 0.654297 36.0812V115.352C0.654297 134.078 10.9327 138.513 23.3935 125.137L23.4639 125.067C29.2367 118.942 38.0367 119.435 43.0351 126.123L50.1458 135.627C55.8482 143.16 65.0706 143.16 70.773 135.627L77.8834 126.123C82.9522 119.364 91.7522 118.872 97.525 125.067C110.056 138.443 120.264 134.008 120.264 115.281V36.0812C120.335 7.71001 113.717 0.599609 87.1058 0.599609ZM39.3743 35.7996C43.2463 35.7996 46.4146 38.9676 46.4146 42.8396C46.4146 46.7116 43.3167 49.8796 39.3743 49.8796C35.4319 49.8796 32.3343 46.7116 32.3343 42.8396C32.3343 38.9676 35.4319 35.7996 39.3743 35.7996ZM81.6146 85.0796C77.6722 85.0796 74.5746 81.9116 74.5746 78.0396C74.5746 74.1676 77.7426 70.9996 81.6146 70.9996C85.4866 70.9996 88.6547 74.1676 88.6547 78.0396C88.6547 81.9116 85.557 85.0796 81.6146 85.0796ZM87.9507 39.9532L40.5711 87.3324C39.5151 88.3884 38.1775 88.8812 36.8399 88.8812C35.5023 88.8812 34.1647 88.3884 33.1087 87.3324C31.0671 85.2908 31.0671 81.9116 33.1087 79.87L80.4882 32.4908C82.5298 30.4492 85.909 30.4492 87.9507 32.4908C89.9922 34.5324 89.9922 37.9116 87.9507 39.9532Z" fill="white"/>
</svg>
