<svg width="44" height="44" viewBox="0 0 44 44" fill="none" xmlns="http://www.w3.org/2000/svg">
<path d="M22.0001 38.4965C20.3563 38.4965 18.7139 37.8715 17.4626 36.6203C16.7703 35.9273 15.8491 35.5464 14.8701 35.5464C11.3322 35.5464 8.45362 32.6678 8.45362 29.13C8.45362 28.1503 8.07206 27.229 7.37975 26.5374C4.87862 24.0349 4.87862 19.9635 7.37975 17.4624C8.07275 16.7701 8.45362 15.8488 8.45362 14.8698C8.45362 11.332 11.3322 8.45341 14.8701 8.45341C15.8498 8.45341 16.771 8.07185 17.4626 7.37953C19.9672 4.87703 24.0372 4.87841 26.5376 7.37953C27.2292 8.07253 28.1505 8.45341 29.1302 8.45341C32.6681 8.45341 35.5466 11.332 35.5466 14.8698C35.5466 15.8495 35.9282 16.7708 36.6205 17.4624C39.1216 19.9649 39.1216 24.0363 36.6205 26.5374C35.9275 27.2297 35.5466 28.151 35.5466 29.13C35.5466 32.6678 32.6681 35.5464 29.1302 35.5464C28.1505 35.5464 27.2292 35.928 26.5376 36.6203C25.2864 37.8708 23.6433 38.4965 22.0001 38.4965Z" fill="#EBFFD7"/>
<path d="M17.3594 19.4219C18.4985 19.4219 19.4219 18.4985 19.4219 17.3594C19.4219 16.2203 18.4985 15.2969 17.3594 15.2969C16.2203 15.2969 15.2969 16.2203 15.2969 17.3594C15.2969 18.4985 16.2203 19.4219 17.3594 19.4219Z" fill="#7FA55E"/>
<path d="M26.6406 28.7031C27.7797 28.7031 28.7031 27.7797 28.7031 26.6406C28.7031 25.5015 27.7797 24.5781 26.6406 24.5781C25.5015 24.5781 24.5781 25.5015 24.5781 26.6406C24.5781 27.7797 25.5015 28.7031 26.6406 28.7031Z" fill="#7FA55E"/>
<path d="M17.3748 28.0004C17.0228 28.0004 16.6715 27.8663 16.4027 27.5975C15.8658 27.0606 15.8658 26.1902 16.4027 25.6533L25.653 16.4029C26.19 15.866 27.0603 15.866 27.5973 16.4029C28.1342 16.9399 28.1342 17.8103 27.5973 18.3472L18.347 27.5975C18.0781 27.8663 17.7268 28.0004 17.3748 28.0004Z" fill="#7FA55E"/>
</svg>
