<svg width="12" height="12" viewBox="0 0 12 12" fill="none" xmlns="http://www.w3.org/2000/svg">
<g clip-path="url(#clip0_19_369)">
<path d="M4.82408 1.72015C3.77568 0.672287 1.7241 0.550781 0.272463 0.550781C0.121992 0.550781 0 0.672773 0 0.823244C0 2.27542 0.121506 4.327 1.16937 5.37542C1.66134 5.81358 2.30443 6.04319 2.96266 6.0157C3.64136 6.04244 4.30544 5.81402 4.82408 5.37542C5.60494 4.594 5.74824 2.64433 4.82408 1.72015Z" fill="#A0E66A"/>
<path d="M11.7277 1.62866C10.2755 1.62866 8.22397 1.75017 7.17554 2.79803C6.24919 3.72438 6.39468 5.67134 7.17554 6.45274C7.69434 6.89141 8.35863 7.11984 9.0375 7.09302C9.69571 7.12045 10.3388 6.89085 10.8308 6.45274C11.8792 5.40435 12.0002 3.35276 12.0002 1.90056C11.9999 1.75032 11.878 1.62866 11.7277 1.62866Z" fill="#A0E66A"/>
<path d="M5.72141 11.4491C5.57093 11.4491 5.44894 11.3271 5.44894 11.1766C5.44894 5.39786 3.3298 3.94786 2.53205 3.4024C2.43583 3.34097 2.34472 3.2719 2.25959 3.19588C2.15504 3.08766 2.15806 2.91517 2.26628 2.81062C2.37188 2.70863 2.53926 2.70863 2.64485 2.81062C2.70638 2.86265 2.77157 2.91019 2.83992 2.95285C3.54829 3.43726 5.21681 4.57886 5.79387 8.32346C6.23982 6.36575 7.56175 4.72208 9.37829 3.86666C9.5174 3.80122 9.68342 3.85363 9.75972 3.98709C9.82863 4.10855 9.78608 4.26285 9.66462 4.33179C9.66008 4.33437 9.65543 4.33682 9.65073 4.33912L9.60659 4.35984C6.61941 5.76407 5.99221 8.84172 5.99221 11.1767C5.99223 11.3265 5.87124 11.4482 5.72141 11.4491Z" fill="#659938"/>
</g>
<defs>
<clipPath id="clip0_19_369">
<rect width="12" height="12" fill="white"/>
</clipPath>
</defs>
</svg>
