<svg width="26" height="25" viewBox="0 0 26 25" fill="none" xmlns="http://www.w3.org/2000/svg">
<path d="M13 13.2812C16.4518 13.2812 19.25 10.483 19.25 7.03125C19.25 3.57947 16.4518 0.78125 13 0.78125C9.54822 0.78125 6.75 3.57947 6.75 7.03125C6.75 10.483 9.54822 13.2812 13 13.2812Z" fill="#210101"/>
<path d="M22.9297 23.2719C22.7166 23.5617 22.4392 23.7981 22.1193 23.9624C21.7993 24.1267 21.4456 24.2145 21.0859 24.2188H4.91405C4.55318 24.2145 4.19809 24.1275 3.87606 23.9646C3.55402 23.8017 3.27361 23.5671 3.05635 23.279C2.83909 22.9908 2.69076 22.6567 2.62275 22.3022C2.55475 21.9478 2.56887 21.5825 2.66405 21.2344L4.24217 15.6875C4.45926 14.9375 4.83443 14.2426 5.34246 13.6497C5.8505 13.0568 6.47961 12.5795 7.18749 12.25C7.92016 13.0658 8.81636 13.7183 9.81779 14.1649C10.8192 14.6115 11.9035 14.8423 13 14.8423C14.0965 14.8423 15.1807 14.6115 16.1822 14.1649C17.1836 13.7183 18.0798 13.0658 18.8125 12.25C19.5204 12.5795 20.1495 13.0568 20.6575 13.6497C21.1655 14.2426 21.5407 14.9375 21.7578 15.6875L23.3359 21.2344C23.4308 21.5822 23.4435 21.9474 23.373 22.301C23.3024 22.6546 23.1507 22.987 22.9297 23.2719Z" fill="#210101"/>
</svg>
