<svg width="176" height="176" viewBox="0 0 176 176" fill="none" xmlns="http://www.w3.org/2000/svg">
<path d="M168.475 70.5244C164.822 66.9883 161.163 63.4259 157.496 59.8372C157.393 54.8666 157.263 49.8982 157.108 44.9322C156.901 38.2806 154.014 31.935 149.095 27.0056C144.176 22.0763 137.796 19.2197 131.137 19.01C126.16 18.8565 121.182 18.7281 116.205 18.625C112.616 14.9721 109.058 11.3238 105.531 7.68C100.757 2.79188 94.576 0.0590657 88.0001 0.0625032C81.4241 0.0659407 75.2401 2.8125 70.4963 7.68C66.9511 11.3306 63.3818 14.987 59.7885 18.6491C54.811 18.7499 49.8347 18.8782 44.8595 19.0341C31.1507 19.5016 19.3532 31.2819 18.8857 44.9528C18.7322 49.9234 18.6027 54.8918 18.4973 59.8578C14.8306 63.4443 11.1708 67.0055 7.51789 70.5416C2.64008 75.2819 -0.0996094 81.4694 -0.0996094 88.0006C-0.0996094 94.5319 2.62289 100.719 7.51789 105.477C11.1708 109.011 14.8375 112.568 18.5179 116.15C18.6164 121.121 18.7448 126.093 18.9029 131.066C19.1126 137.728 21.9966 144.056 26.9123 148.992C31.8279 153.928 38.2044 156.778 44.8732 156.984C49.8507 157.143 54.8282 157.272 59.8057 157.373C63.3944 161.023 66.9591 164.669 70.4998 168.311C75.2538 173.199 81.4413 175.932 88.031 175.928C94.6207 175.925 100.791 173.199 105.562 168.314C109.103 164.666 112.669 161.013 116.26 157.356C121.237 157.253 126.214 157.123 131.189 156.967C144.894 156.503 156.692 144.723 157.159 131.048C157.315 126.082 157.443 121.116 157.544 116.15C161.211 112.562 164.872 108.999 168.527 105.463C173.405 100.726 176.144 94.5456 176.144 87.9903C176.144 81.435 173.36 75.2819 168.475 70.5244ZM131.759 76.8528C116.916 92.2769 101.836 108.045 87.0066 123.685C85.8016 124.962 84.3487 125.98 82.7369 126.676C81.1252 127.372 79.3883 127.733 77.6326 127.735H77.5741C75.8203 127.723 74.0865 127.361 72.4748 126.669C70.8632 125.977 69.4062 124.969 68.1898 123.706C60.2606 115.518 52.3062 107.359 44.3266 99.231C43.12 98.0176 42.1681 96.5753 41.5267 94.9888C40.8853 93.4024 40.5675 91.7037 40.5918 89.9927C40.6161 88.2816 40.9822 86.5927 41.6684 85.0252C42.3547 83.4576 43.3472 82.043 44.5879 80.8644C47.0879 78.4488 50.4404 77.1179 53.9165 77.161C57.3926 77.2041 60.7111 78.6178 63.1504 81.0947C67.8918 85.9553 72.639 90.8297 77.392 95.7178C89.1654 83.3806 100.997 70.9678 112.644 58.7509C117.587 53.55 125.833 53.4641 131.134 58.4828C136.434 63.5016 136.74 71.6794 131.759 76.8528Z" fill="white"/>
</svg>
