<svg width="46" height="46" viewBox="0 0 46 46" fill="none" xmlns="http://www.w3.org/2000/svg">
<path d="M6.77643 20.4149C17.0684 16.1816 23.9297 13.3905 27.3604 12.0421C37.167 8.1916 39.2022 7.52285 40.5314 7.5002C40.8237 7.49577 41.4746 7.564 41.8993 7.88821C42.2523 8.16165 42.3515 8.53144 42.4012 8.79107C42.4453 9.05045 42.506 9.64159 42.4563 10.103C41.9269 15.3738 39.6269 28.1644 38.4576 34.068C37.9667 36.5659 36.9905 37.4034 36.0473 37.4851C33.9955 37.6633 32.4402 36.206 30.4546 34.9773C27.3493 33.0539 25.5954 31.857 22.5784 29.9805C19.0926 27.8118 21.354 26.6196 23.3395 24.6717C23.858 24.1618 32.8924 16.404 33.0634 15.7004C33.0855 15.6124 33.1075 15.2843 32.8979 15.1113C32.6939 14.9379 32.3905 14.9973 32.1699 15.0442C31.8555 15.1108 26.8971 18.2087 17.278 24.3373C15.8715 25.2508 14.5974 25.6962 13.4502 25.6727C12.1927 25.6472 9.76585 24.9998 7.96227 24.4467C5.75606 23.768 3.99661 23.4092 4.15105 22.2566C4.22826 21.6566 5.10523 21.0425 6.77643 20.4149Z" fill="white"/>
</svg>
