<svg width="107" height="107" viewBox="0 0 107 107" fill="none" xmlns="http://www.w3.org/2000/svg">
<path d="M10.0182 26.7383C9.13143 26.7418 8.28234 27.0969 7.65773 27.7264C7.03312 28.3559 6.68413 29.2076 6.68752 30.0944V76.8946C6.68413 77.7814 7.03312 78.6331 7.65773 79.2626C8.28234 79.8921 9.13143 80.2472 10.0182 80.2507H96.9557C97.397 80.2524 97.8343 80.1673 98.2423 79.9992C98.6504 79.8311 99.0211 79.5839 99.3331 79.2719C99.6452 78.9598 99.8924 78.5892 100.06 78.1812C100.229 77.7731 100.314 77.3358 100.313 76.8946V30.0944C100.314 29.6532 100.229 29.2166 100.06 28.8086C99.8924 28.4006 99.6452 28.0292 99.3331 27.7171C99.0211 27.4051 98.6504 27.1579 98.2423 26.9898C97.8343 26.8217 97.397 26.7366 96.9557 26.7383H10.0182ZM13.375 33.4251H73.556V40.1127H80.2435V33.4251H93.625V73.5569H80.2435V70.2H73.556V73.5569H13.375V33.4251ZM73.556 43.4697V53.4949H80.2435V43.4697H73.556ZM73.556 56.851V66.8693H80.2435V56.851H73.556Z" fill="white"/>
<path d="M43 41.7629L46.8717 47.7517L47.1862 48.2382L47.7461 48.387L54.6382 50.2185L50.1389 55.7513L49.7734 56.2008L49.8049 56.7793L50.1928 63.9L43.5404 61.3307L43 61.122L42.4596 61.3307L35.8072 63.9L36.1951 56.7793L36.2266 56.2008L35.8611 55.7513L31.3618 50.2185L38.2539 48.387L38.8138 48.2382L39.1283 47.7517L43 41.7629Z" stroke="white" stroke-width="3"/>
</svg>
