<svg width="1108" height="676" viewBox="0 0 1108 676" fill="none" xmlns="http://www.w3.org/2000/svg">
<mask id="mask0_6009_38247" style="mask-type:alpha" maskUnits="userSpaceOnUse" x="0" y="0" width="1108" height="676">
<rect width="1108" height="676" rx="18" fill="#EDEDF7"/>
</mask>
<g mask="url(#mask0_6009_38247)">
<path fill-rule="evenodd" clip-rule="evenodd" d="M231.271 175.641L278.721 223.091C290.359 234.729 292.976 253.454 282.091 262.04L220.831 310.36C209.948 318.946 193.519 318.626 181.883 306.99L147.372 272.48C135.736 260.843 135.415 244.416 144.002 233.531L192.322 172.271C200.908 161.385 219.633 164.003 231.271 175.641ZM218.16 200.161L254.201 236.202C258.524 240.524 258.524 247.597 254.201 251.92C249.879 256.242 242.806 256.242 238.484 251.92L202.442 215.878C198.12 211.556 198.12 204.483 202.442 200.161C206.765 195.838 213.838 195.838 218.16 200.161Z" fill="#9997ED" fill-opacity="0.2"/>
<path fill-rule="evenodd" clip-rule="evenodd" d="M200.735 58C245.788 58 282.311 94.5226 282.311 139.576C282.311 160.737 274.252 180.016 261.038 194.512L251.491 184.966C262.27 172.92 268.828 157.016 268.828 139.576C268.828 101.965 238.345 71.4831 200.735 71.4831C183.274 71.4831 167.352 78.0558 155.301 88.8586C152.213 85.5731 148.942 82.4397 145.542 79.5112C160.067 66.1562 179.448 58 200.735 58ZM156.298 191.166C158.539 193.097 160.905 194.886 163.385 196.517L155.007 207.139C152.547 205.47 150.183 203.669 147.926 201.75C150.717 198.386 153.541 194.841 156.298 191.166Z" fill="#9997ED" fill-opacity="0.2"/>
<path fill-rule="evenodd" clip-rule="evenodd" d="M3.50259 269.764C22.4103 281.65 39.4928 287.338 60.2186 273.111C90.2487 252.496 182.216 170.701 171.847 130.952C164.909 104.369 134.146 73.6053 107.562 66.6676C67.8136 56.2986 -13.9826 148.264 -34.5955 178.297C-48.824 199.022 -43.1352 216.104 -31.2492 235.01C-22.3253 249.204 -10.701 260.838 3.50259 269.764ZM16.5942 241.817C27.4187 248.622 37.1992 251.879 49.0652 243.733C66.2589 231.931 118.912 185.101 112.975 162.344C109.004 147.124 91.3911 129.511 76.1707 125.539C53.4138 119.603 6.58316 172.256 -5.21878 189.449C-13.3645 201.315 -10.1078 211.095 -3.30302 221.92C1.80699 230.045 8.46209 236.707 16.5942 241.817ZM135.015 103.498C141.367 109.85 141.367 120.146 135.015 126.498C128.665 132.849 118.368 132.849 112.017 126.498C105.666 120.146 105.666 109.85 112.017 103.498C118.368 97.1475 128.665 97.1475 135.015 103.498Z" fill="#9997ED" fill-opacity="0.2"/>
<path fill-rule="evenodd" clip-rule="evenodd" d="M41.9264 130.892L107.622 196.588L94.0024 210.208L28.3064 144.512L41.9264 130.892ZM10.0063 162.22L76.2939 228.508L62.6747 242.128L-3.61377 175.84L10.0063 162.22Z" fill="#9997ED" fill-opacity="0.2"/>
<path fill-rule="evenodd" clip-rule="evenodd" d="M180.34 315.874L166.987 329.228L156.876 328.004L136.311 348.568L118.382 350.944L116.007 368.873L98.0772 371.248L97.9235 386.956L77.7724 391.553L75.3964 405.04L49.8423 404.52L49.3228 378.965L62.8091 376.59L67.4059 356.439L83.1138 356.285L85.4891 338.356L103.419 335.98L105.794 318.05L126.358 297.487L125.135 287.376L138.488 274.022C139.538 275.382 140.684 276.688 141.924 277.928L176.434 312.438C177.674 313.678 178.98 314.825 180.34 315.874Z" fill="#9997ED" fill-opacity="0.2"/>
<path d="M1297.85 356.4C1293.67 349.431 1252.4 331.605 1252.4 331.605C1259.58 327.898 1264.48 327.131 1264.48 311.8C1264.48 295.075 1264.4 289.5 1253.25 289.5H1215.42C1215.27 289.165 1215.1 288.817 1214.95 288.469C1190.53 235.144 1187.26 221.666 1150.84 203.52C1101.99 179.226 1010.4 178 974.5 178C938.597 178 847.013 179.226 798.204 203.52C761.744 221.638 762.65 230.962 734.092 288.469C734.092 288.622 733.799 289.026 733.535 289.5H695.666C684.6 289.5 684.516 295.075 684.516 311.8C684.516 327.131 689.422 327.898 696.6 331.605C696.6 331.605 656.725 350.825 651.15 356.4C645.575 361.975 640 401 640 467.9C640 534.8 645.575 601.7 645.575 601.7H662.216C662.216 621.212 665.088 624 673.45 624H784.95C793.312 624 796.1 621.212 796.1 601.7H1152.9C1152.9 621.212 1155.69 624 1164.05 624H1278.34C1283.91 624 1286.7 619.819 1286.7 601.7H1303.42C1303.42 601.7 1309 533.406 1309 467.9C1309 402.394 1302.03 363.369 1297.85 356.4ZM792.281 419.035C766.898 421.81 741.383 423.234 715.848 423.3C687.388 423.3 686.412 425.126 684.405 407.356C683.65 399.222 683.889 391.026 685.116 382.951L685.994 378.7H690.175C706.9 378.7 722.608 379.411 752.267 388.15C767.352 392.677 781.54 399.778 794.204 409.14C800.281 413.544 801.675 417.725 801.675 417.725L792.281 419.035ZM1136.76 519.385L1130.6 534.8H818.4C818.4 534.8 818.943 533.95 811.431 519.218C805.856 508.319 812.825 501.35 823.849 497.392C845.201 489.698 907.6 467.9 974.5 467.9C1041.4 467.9 1105.04 486.688 1125.72 497.392C1133.39 501.35 1142.91 504.137 1136.76 519.469V519.385ZM778.566 329.096C774.064 329.356 769.553 329.389 765.047 329.194C768.684 322.727 770.705 315.521 774.259 307.995C785.41 284.301 798.162 257.486 820.867 246.182C853.675 229.847 921.677 222.488 974.5 222.488C1027.32 222.488 1095.32 229.792 1128.13 246.182C1150.84 257.486 1163.53 284.315 1174.74 307.995C1178.32 315.591 1180.32 322.852 1184.05 329.361C1181.26 329.515 1178.06 329.361 1170.41 329.096H778.566ZM1263.2 407.3C1260.22 424.694 1263.01 423.3 1233.15 423.3C1207.62 423.234 1182.1 421.81 1156.72 419.035C1152.75 418.324 1151.62 411.62 1154.8 409.14C1167.4 399.673 1181.6 392.562 1196.73 388.15C1226.39 379.411 1243.09 378.24 1259.58 378.825C1260.69 378.867 1261.74 379.319 1262.53 380.09C1263.33 380.862 1263.81 381.901 1263.88 383.007C1264.67 391.12 1264.44 399.3 1263.2 407.356V407.3Z" fill="#9997ED" fill-opacity="0.2"/>
</g>
</svg>
