<?xml version="1.0" encoding="UTF-8"?>
<!DOCTYPE svg PUBLIC "-//W3C//DTD SVG 1.1//EN" "http://www.w3.org/Graphics/SVG/1.1/DTD/svg11.dtd">
<svg xmlns="http://www.w3.org/2000/svg" version="1.1" width="512px" height="512px" style="shape-rendering:geometricPrecision; text-rendering:geometricPrecision; image-rendering:optimizeQuality; fill-rule:evenodd; clip-rule:evenodd" xmlns:xlink="http://www.w3.org/1999/xlink">
<g><path style="opacity:0.004" fill="#00ff00" d="M 263.5,15.5 C 264.833,16.1667 264.833,16.1667 263.5,15.5 Z"/></g>
<g><path style="opacity:0.004" fill="#00ff00" d="M 254.5,20.5 C 253.833,19.1667 253.833,19.1667 254.5,20.5 Z"/></g>
<g><path style="opacity:0.004" fill="#00ff00" d="M 272.5,27.5 C 273.833,28.1667 273.833,28.1667 272.5,27.5 Z"/></g>
<g><path style="opacity:0.004" fill="#00ff00" d="M 278.5,36.5 C 279.833,37.1667 279.833,37.1667 278.5,36.5 Z"/></g>
<g><path style="opacity:0.269" fill="#1cfa04" d="M 263.5,16.5 C 266.025,20.8962 269.025,24.8962 272.5,28.5C 274.265,31.7089 276.265,34.7089 278.5,37.5C 305.924,76.9158 332.924,116.582 359.5,156.5C 364.474,164.795 369.808,172.795 375.5,180.5C 380.473,191.297 380.806,202.297 376.5,213.5C 375.844,212.378 375.511,211.045 375.5,209.5C 376.973,204.924 377.473,200.257 377,195.5C 376.439,194.978 375.772,194.645 375,194.5C 372.08,195.711 369.247,197.044 366.5,198.5C 362.26,197.181 357.927,196.181 353.5,195.5C 353.5,195.167 353.5,194.833 353.5,194.5C 356.455,195.159 359.455,195.492 362.5,195.5C 362.735,196.097 363.235,196.43 364,196.5C 368.695,193.777 370.695,189.777 370,184.5C 363.333,173.167 356.667,161.833 350,150.5C 347.027,147.527 344.027,144.527 341,141.5C 331.555,125.586 321.388,110.253 310.5,95.5C 305.31,86.1313 299.477,77.1313 293,68.5C 292.767,66.2199 291.934,64.2199 290.5,62.5C 290.846,61.3044 291.346,61.3044 292,62.5C 289.614,57.9342 286.781,53.4342 283.5,49C 282.551,48.3828 281.718,48.5494 281,49.5C 279.871,47.8588 278.371,46.8588 276.5,46.5C 269.259,39.2912 264.759,30.6246 263,20.5C 262.768,21.7375 262.268,22.7375 261.5,23.5C 261.649,22.448 261.483,21.448 261,20.5C 257.612,34.409 254.279,47.409 251,59.5C 250.355,60.646 249.522,61.646 248.5,62.5C 248.624,63.1067 248.957,63.44 249.5,63.5C 248.897,66.3076 247.897,68.9742 246.5,71.5C 245.482,70.8075 244.482,70.1408 243.5,69.5C 239.098,63.5914 234.098,58.0914 228.5,53C 227.207,52.51 225.873,52.3433 224.5,52.5C 224.046,55.1398 222.879,57.4732 221,59.5C 214.452,65.6364 208.619,72.303 203.5,79.5C 201.299,82.0214 198.966,84.5214 196.5,87C 196.715,91.3894 197.049,95.556 197.5,99.5C 195.66,102.169 193.66,104.669 191.5,107C 193.126,106.805 194.793,106.805 196.5,107C 194.665,107.928 194.332,109.094 195.5,110.5C 193.517,111.982 191.684,113.649 190,115.5C 189.439,114.978 188.772,114.645 188,114.5C 186.535,116.466 184.702,117.799 182.5,118.5C 173.854,125.494 164.521,131.494 154.5,136.5C 157.809,132.185 161.143,127.852 164.5,123.5C 163.833,123.167 163.167,122.833 162.5,122.5C 163.624,121.086 164.624,119.586 165.5,118C 163.765,115.604 161.765,114.771 159.5,115.5C 176.102,96.5622 193.435,78.2289 211.5,60.5C 225.257,46.4042 239.591,33.0709 254.5,20.5C 257.104,18.2177 260.104,16.8843 263.5,16.5 Z"/></g>
<g><path style="opacity:0.004" fill="#00ff00" d="M 220.5,48.5 C 221.833,49.1667 221.833,49.1667 220.5,48.5 Z"/></g>
<g><path style="opacity:1" fill="#6af459" d="M 261.5,23.5 C 259.167,34.1663 256.833,44.833 254.5,55.5C 253.359,58.2542 252.025,60.9209 250.5,63.5C 250.167,63.5 249.833,63.5 249.5,63.5C 248.957,63.44 248.624,63.1067 248.5,62.5C 249.522,61.646 250.355,60.646 251,59.5C 254.279,47.409 257.612,34.409 261,20.5C 261.483,21.448 261.649,22.448 261.5,23.5 Z"/></g>
<g><path style="opacity:0.999" fill="#04de02" d="M 276.5,46.5 C 278.371,46.8588 279.871,47.8588 281,49.5C 281.718,48.5494 282.551,48.3828 283.5,49C 286.781,53.4342 289.614,57.9342 292,62.5C 291.346,61.3044 290.846,61.3044 290.5,62.5C 291.934,64.2199 292.767,66.2199 293,68.5C 299.477,77.1313 305.31,86.1313 310.5,95.5C 309.85,95.8039 309.183,96.1373 308.5,96.5C 302.722,92.1329 297.722,86.9663 293.5,81C 291.866,80.5065 290.199,80.3398 288.5,80.5C 288.784,82.4147 288.451,84.0813 287.5,85.5C 286.262,79.0161 284.429,72.6828 282,66.5C 281,67.5 280,68.5 279,69.5C 279.195,67.255 280.362,65.4216 282.5,64C 280.344,58.1949 278.344,52.3615 276.5,46.5 Z"/></g>
<g><path style="opacity:0.999" fill="#03db01" d="M 270.5,71.5 C 266.781,67.6786 262.114,65.3452 256.5,64.5C 255.062,64.7189 253.729,65.2189 252.5,66C 251.837,67.5185 250.837,68.6851 249.5,69.5C 249.833,67.5 250.167,65.5 250.5,63.5C 252.025,60.9209 253.359,58.2542 254.5,55.5C 255.268,54.7375 255.768,53.7375 256,52.5C 257,53.5 258,54.5 259,55.5C 259.167,55.1667 259.333,54.8333 259.5,54.5C 256.242,44.8761 257.408,44.2094 263,52.5C 263.72,54.1124 263.554,55.6124 262.5,57C 266.048,61.3013 269.048,65.968 271.5,71C 271.272,71.3988 270.938,71.5654 270.5,71.5 Z"/></g>
<g><path style="opacity:0.998" fill="#09e404" d="M 243.5,69.5 C 238.535,65.0366 233.702,60.3699 229,55.5C 228.833,55.8333 228.667,56.1667 228.5,56.5C 233.597,62.2514 238.263,68.2514 242.5,74.5C 239.565,71.0622 236.399,67.7289 233,64.5C 229.115,69.7986 225.781,75.4653 223,81.5C 214.755,87.2372 206.921,93.5705 199.5,100.5C 199.167,100.333 198.833,100.167 198.5,100C 201.647,96.0188 204.98,92.1855 208.5,88.5C 206.801,85.1778 205.968,81.8444 206,78.5C 205.162,79.999 204.329,80.3324 203.5,79.5C 208.619,72.303 214.452,65.6364 221,59.5C 222.879,57.4732 224.046,55.1398 224.5,52.5C 225.873,52.3433 227.207,52.51 228.5,53C 234.098,58.0914 239.098,63.5914 243.5,69.5 Z"/></g>
<g><path style="opacity:0.004" fill="#00ff00" d="M 211.5,60.5 C 210.833,59.1667 210.833,59.1667 211.5,60.5 Z"/></g>
<g><path style="opacity:0.998" fill="#22fb09" d="M 270.5,71.5 C 269.075,72.922 268.075,74.5887 267.5,76.5C 264.943,78.0324 262.443,79.6991 260,81.5C 259.167,80.6667 258.333,79.8333 257.5,79C 250.535,79.2149 247.869,76.0482 249.5,69.5C 250.837,68.6851 251.837,67.5185 252.5,66C 253.729,65.2189 255.062,64.7189 256.5,64.5C 262.114,65.3452 266.781,67.6786 270.5,71.5 Z"/></g>
<g><path style="opacity:0.997" fill="#93fe83" d="M 243.5,69.5 C 244.482,70.1408 245.482,70.8075 246.5,71.5C 247.897,68.9742 248.897,66.3076 249.5,63.5C 249.833,63.5 250.167,63.5 250.5,63.5C 250.167,65.5 249.833,67.5 249.5,69.5C 247.869,76.0482 250.535,79.2149 257.5,79C 258.333,79.8333 259.167,80.6667 260,81.5C 262.443,79.6991 264.943,78.0324 267.5,76.5C 279.441,67.1078 280.108,67.7744 269.5,78.5C 266.236,81.0974 263.236,84.0974 260.5,87.5C 265.173,94.1639 270.173,100.497 275.5,106.5C 277.412,109.919 279.912,112.919 283,115.5C 283.667,116.167 283.667,116.833 283,117.5C 279.631,113.963 276.131,110.629 272.5,107.5C 268.503,102.67 264.003,98.3364 259,94.5C 259.314,102.43 261.48,109.763 265.5,116.5C 270.534,130.611 275.534,144.611 280.5,158.5C 276.836,154.153 273.502,149.487 270.5,144.5C 272.279,142.807 272.779,140.807 272,138.5C 269.22,132.602 266.22,126.935 263,121.5C 261.279,111.055 258.113,101.055 253.5,91.5C 248.746,94.0869 244.413,97.2536 240.5,101C 239.833,101.667 239.167,101.667 238.5,101C 241.423,98.5838 243.757,95.7504 245.5,92.5C 247.894,90.7225 249.56,88.3892 250.5,85.5C 248.65,81.7899 246.317,78.4566 243.5,75.5C 243.5,74.8333 243.167,74.5 242.5,74.5C 238.263,68.2514 233.597,62.2514 228.5,56.5C 228.667,56.1667 228.833,55.8333 229,55.5C 233.702,60.3699 238.535,65.0366 243.5,69.5 Z"/></g>
<g><path style="opacity:0.999" fill="#00cd00" d="M 310.5,95.5 C 321.388,110.253 331.555,125.586 341,141.5C 344.027,144.527 347.027,147.527 350,150.5C 356.667,161.833 363.333,173.167 370,184.5C 370.695,189.777 368.695,193.777 364,196.5C 363.235,196.43 362.735,196.097 362.5,195.5C 361.74,194.107 361.074,192.607 360.5,191C 361.245,189.415 361.745,187.915 362,186.5C 357.455,181.714 352.455,177.381 347,173.5C 346.218,170.743 346.718,168.243 348.5,166C 346.506,163.173 344.172,160.673 341.5,158.5C 342.167,158.167 342.833,157.833 343.5,157.5C 342.965,155.739 341.965,154.406 340.5,153.5C 340.489,151.983 339.823,150.816 338.5,150C 332.847,150.007 329.18,147.341 327.5,142C 327.684,138.943 327.684,135.943 327.5,133C 326.671,131.184 325.837,129.351 325,127.5C 315.997,118.164 306.664,109.164 297,100.5C 294.385,96.2171 291.385,92.2171 288,88.5C 287.517,87.552 287.351,86.552 287.5,85.5C 288.451,84.0813 288.784,82.4147 288.5,80.5C 290.199,80.3398 291.866,80.5065 293.5,81C 297.722,86.9663 302.722,92.1329 308.5,96.5C 309.183,96.1373 309.85,95.8039 310.5,95.5 Z"/></g>
<g><path style="opacity:0.999" fill="#67ff55" d="M 243.5,75.5 C 246.317,78.4566 248.65,81.7899 250.5,85.5C 249.56,88.3892 247.894,90.7225 245.5,92.5C 244.671,91.6676 243.838,92.001 243,93.5C 239.719,90.961 238.719,87.6277 240,83.5C 242.268,82.9236 243.268,81.5902 243,79.5C 241.259,80.7577 239.426,81.7577 237.5,82.5C 239.545,80.1592 241.545,77.8259 243.5,75.5 Z"/></g>
<g><path style="opacity:0.998" fill="#85fe75" d="M 234.5,84.5 C 234.67,85.8221 234.337,86.9887 233.5,88C 229.44,89.6891 225.773,91.8558 222.5,94.5C 221.833,94.5 221.167,94.5 220.5,94.5C 224.454,90.1879 229.12,86.8545 234.5,84.5 Z"/></g>
<g><path style="opacity:0.998" fill="#1ff30d" d="M 273.5,76.5 C 275.873,84.4936 277.873,92.6602 279.5,101C 279.333,102.833 279.167,104.667 279,106.5C 277.715,106.598 276.549,106.598 275.5,106.5C 270.173,100.497 265.173,94.1639 260.5,87.5C 263.236,84.0974 266.236,81.0974 269.5,78.5C 271.062,78.2671 272.395,77.6005 273.5,76.5 Z"/></g>
<g><path style="opacity:0.998" fill="#04f102" d="M 242.5,74.5 C 243.167,74.5 243.5,74.8333 243.5,75.5C 241.545,77.8259 239.545,80.1592 237.5,82.5C 237.027,83.9063 236.027,84.573 234.5,84.5C 229.12,86.8545 224.454,90.1879 220.5,94.5C 221.953,95.8249 221.619,96.6582 219.5,97C 220.357,97.6891 221.023,98.5224 221.5,99.5C 217.654,102.574 214.321,105.408 211.5,108C 210.234,108.309 209.067,108.809 208,109.5C 207.667,108.5 207.333,107.5 207,106.5C 205.246,109.097 204.079,111.931 203.5,115C 203.833,115.333 204.167,115.667 204.5,116C 203.062,116.219 201.729,116.719 200.5,117.5C 200.709,118.086 201.043,118.586 201.5,119C 199.422,120.486 198.089,122.486 197.5,125C 196.167,125.333 194.833,125.667 193.5,126C 193.07,126.92 192.736,127.753 192.5,128.5C 190.503,127.253 188.503,126.419 186.5,126C 188.984,128.744 191.984,130.744 195.5,132C 191.117,131.616 187.617,133.449 185,137.5C 182.512,136.588 180.845,137.588 180,140.5C 177.401,140.301 174.901,139.467 172.5,138C 172.833,138.333 173.167,138.667 173.5,139C 169.833,140 169.5,141.667 172.5,144C 171.124,146.543 169.957,146.709 169,144.5C 166.833,146 167,147.167 169.5,148C 164.316,151.978 163.15,156.811 166,162.5C 168.167,166 171,168.833 174.5,171C 175.725,171.563 176.725,171.23 177.5,170C 176.549,169.282 176.383,168.449 177,167.5C 179.587,170.68 181.921,173.346 184,175.5C 184.423,174.044 185.256,173.544 186.5,174C 189.8,177.73 192.967,182.23 196,187.5C 196.651,189.235 196.485,190.902 195.5,192.5C 196.167,192.833 196.833,193.167 197.5,193.5C 196.407,195.349 195.074,197.016 193.5,198.5C 196.076,199.883 195.742,200.717 192.5,201C 191.929,202.205 191.262,203.372 190.5,204.5C 189.304,204.154 189.304,203.654 190.5,203C 188.436,202.347 186.769,201.18 185.5,199.5C 183.259,200.032 181.759,201.365 181,203.5C 180,202.167 179,200.833 178,199.5C 177.333,200.5 177.333,201.5 178,202.5C 181.045,206.756 184.212,210.923 187.5,215C 182.852,213.16 178.518,210.493 174.5,207C 173.563,206.308 172.897,206.475 172.5,207.5C 165.985,202.741 159.652,197.741 153.5,192.5C 153.897,191.475 154.563,191.308 155.5,192C 158.128,195.673 161.462,198.006 165.5,199C 164.696,197.229 163.529,195.729 162,194.5C 161.667,194.833 161.333,195.167 161,195.5C 160.585,193.709 159.585,192.376 158,191.5C 157.186,189.098 157.353,186.765 158.5,184.5C 159.871,186.546 161.538,188.379 163.5,190C 165.065,189.723 166.398,189.557 167.5,189.5C 165.703,187.869 164.536,185.869 164,183.5C 160.387,180.377 157.054,177.044 154,173.5C 155.453,162.138 157.12,150.805 159,139.5C 168.1,133.366 176.933,126.866 185.5,120C 185.272,119.601 184.938,119.435 184.5,119.5C 184.158,118.662 183.492,118.328 182.5,118.5C 184.702,117.799 186.535,116.466 188,114.5C 188.772,114.645 189.439,114.978 190,115.5C 191.684,113.649 193.517,111.982 195.5,110.5C 194.332,109.094 194.665,107.928 196.5,107C 194.793,106.805 193.126,106.805 191.5,107C 193.66,104.669 195.66,102.169 197.5,99.5C 197.049,95.556 196.715,91.3894 196.5,87C 198.966,84.5214 201.299,82.0214 203.5,79.5C 204.329,80.3324 205.162,79.999 206,78.5C 205.968,81.8444 206.801,85.1778 208.5,88.5C 204.98,92.1855 201.647,96.0188 198.5,100C 198.833,100.167 199.167,100.333 199.5,100.5C 206.921,93.5705 214.755,87.2372 223,81.5C 225.781,75.4653 229.115,69.7986 233,64.5C 236.399,67.7289 239.565,71.0622 242.5,74.5 Z"/></g>
<g><path style="opacity:0.999" fill="#00b700" d="M 276.5,46.5 C 278.344,52.3615 280.344,58.1949 282.5,64C 280.362,65.4216 279.195,67.255 279,69.5C 280,68.5 281,67.5 282,66.5C 284.429,72.6828 286.262,79.0161 287.5,85.5C 287.351,86.552 287.517,87.552 288,88.5C 291.385,92.2171 294.385,96.2171 297,100.5C 306.664,109.164 315.997,118.164 325,127.5C 325.837,129.351 326.671,131.184 327.5,133C 327.684,135.943 327.684,138.943 327.5,142C 329.18,147.341 332.847,150.007 338.5,150C 339.823,150.816 340.489,151.983 340.5,153.5C 338.601,158.961 336.435,164.295 334,169.5C 331.254,165.526 329.254,161.193 328,156.5C 325.382,152.892 324.549,152.892 325.5,156.5C 325.192,157.308 324.692,157.975 324,158.5C 322.308,157.305 320.308,156.638 318,156.5C 314.352,145.874 309.019,136.208 302,127.5C 300.372,128.819 300.539,130.152 302.5,131.5C 302.167,131.833 301.833,132.167 301.5,132.5C 299.937,131.055 298.604,129.389 297.5,127.5C 297.167,127.833 296.833,128.167 296.5,128.5C 299.152,133.018 301.485,137.185 303.5,141C 306.132,145.49 308.798,150.49 311.5,156C 311.333,156.5 311.167,157 311,157.5C 310.293,155.919 309.46,154.419 308.5,153C 303.957,151.678 300.624,149.011 298.5,145C 298.833,144.667 299.167,144.333 299.5,144C 295.857,140.27 292.357,136.437 289,132.5C 288.216,129.24 288.383,126.073 289.5,123C 288.313,121.981 287.313,120.814 286.5,119.5C 287.833,118.5 287.833,117.5 286.5,116.5C 287.723,114.54 289.056,112.707 290.5,111C 289.469,107.411 288.136,103.911 286.5,100.5C 287.902,99.1575 287.569,98.3242 285.5,98C 286.705,93.7096 286.205,89.5429 284,85.5C 280.608,82.4342 278.275,78.1009 277,72.5C 275.624,73.7051 274.458,75.0384 273.5,76.5C 272.395,77.6005 271.062,78.2671 269.5,78.5C 280.108,67.7744 279.441,67.1078 267.5,76.5C 268.075,74.5887 269.075,72.922 270.5,71.5C 270.938,71.5654 271.272,71.3988 271.5,71C 269.048,65.968 266.048,61.3013 262.5,57C 263.554,55.6124 263.72,54.1124 263,52.5C 257.408,44.2094 256.242,44.8761 259.5,54.5C 259.333,54.8333 259.167,55.1667 259,55.5C 258,54.5 257,53.5 256,52.5C 255.768,53.7375 255.268,54.7375 254.5,55.5C 256.833,44.833 259.167,34.1663 261.5,23.5C 262.268,22.7375 262.768,21.7375 263,20.5C 264.759,30.6246 269.259,39.2912 276.5,46.5 Z"/></g>
<g><path style="opacity:0.004" fill="#00ff00" d="M 323.5,99.5 C 324.833,100.167 324.833,100.167 323.5,99.5 Z"/></g>
<g><path style="opacity:0.998" fill="#14fd02" d="M 220.5,94.5 C 221.167,94.5 221.833,94.5 222.5,94.5C 223.809,97.7777 225.642,100.778 228,103.5C 234.02,110.019 239.853,116.685 245.5,123.5C 248.547,120.455 251.213,117.122 253.5,113.5C 253.833,114 254.167,114.5 254.5,115C 254.207,120.163 253.874,125.33 253.5,130.5C 251.414,133.559 249.414,136.725 247.5,140C 249.31,142.644 251.31,145.144 253.5,147.5C 253.167,147.833 252.833,148.167 252.5,148.5C 251.185,146.684 249.685,145.017 248,143.5C 247.55,147.091 249.05,149.591 252.5,151C 252,151.5 251.5,152 251,152.5C 249.287,151.122 247.953,149.455 247,147.5C 246.833,148.167 246.667,148.833 246.5,149.5C 249.777,153.265 250.777,157.265 249.5,161.5C 250.098,162.795 250.598,164.128 251,165.5C 253.129,164.137 253.629,164.471 252.5,166.5C 254.862,167.271 257.196,168.105 259.5,169C 270.617,179.772 279.784,191.939 287,205.5C 288.044,203.285 288.71,200.952 289,198.5C 289.494,200.134 289.66,201.801 289.5,203.5C 289.159,207.559 287.826,211.225 285.5,214.5C 285.833,215.167 286.167,215.833 286.5,216.5C 283.988,217.712 283.321,220.045 284.5,223.5C 282.291,232.46 279.291,241.126 275.5,249.5C 270.866,254.305 266.366,259.305 262,264.5C 258.915,268.093 255.415,271.093 251.5,273.5C 243.82,267.483 236.153,261.483 228.5,255.5C 210.742,238.406 192.075,222.406 172.5,207.5C 172.897,206.475 173.563,206.308 174.5,207C 178.518,210.493 182.852,213.16 187.5,215C 184.212,210.923 181.045,206.756 178,202.5C 177.333,201.5 177.333,200.5 178,199.5C 179,200.833 180,202.167 181,203.5C 181.759,201.365 183.259,200.032 185.5,199.5C 186.769,201.18 188.436,202.347 190.5,203C 189.304,203.654 189.304,204.154 190.5,204.5C 191.262,203.372 191.929,202.205 192.5,201C 195.742,200.717 196.076,199.883 193.5,198.5C 195.074,197.016 196.407,195.349 197.5,193.5C 196.833,193.167 196.167,192.833 195.5,192.5C 196.485,190.902 196.651,189.235 196,187.5C 192.967,182.23 189.8,177.73 186.5,174C 185.256,173.544 184.423,174.044 184,175.5C 181.921,173.346 179.587,170.68 177,167.5C 176.383,168.449 176.549,169.282 177.5,170C 176.725,171.23 175.725,171.563 174.5,171C 171,168.833 168.167,166 166,162.5C 163.15,156.811 164.316,151.978 169.5,148C 167,147.167 166.833,146 169,144.5C 169.957,146.709 171.124,146.543 172.5,144C 169.5,141.667 169.833,140 173.5,139C 173.167,138.667 172.833,138.333 172.5,138C 174.901,139.467 177.401,140.301 180,140.5C 180.845,137.588 182.512,136.588 185,137.5C 187.617,133.449 191.117,131.616 195.5,132C 191.984,130.744 188.984,128.744 186.5,126C 188.503,126.419 190.503,127.253 192.5,128.5C 192.736,127.753 193.07,126.92 193.5,126C 194.833,125.667 196.167,125.333 197.5,125C 198.089,122.486 199.422,120.486 201.5,119C 201.043,118.586 200.709,118.086 200.5,117.5C 201.729,116.719 203.062,116.219 204.5,116C 204.167,115.667 203.833,115.333 203.5,115C 204.079,111.931 205.246,109.097 207,106.5C 207.333,107.5 207.667,108.5 208,109.5C 209.067,108.809 210.234,108.309 211.5,108C 214.321,105.408 217.654,102.574 221.5,99.5C 221.023,98.5224 220.357,97.6891 219.5,97C 221.619,96.6582 221.953,95.8249 220.5,94.5 Z"/></g>
<g><path style="opacity:0.998" fill="#1dec0c" d="M 272.5,107.5 C 273.754,110.093 275.42,112.427 277.5,114.5C 275.737,116.885 274.237,119.552 273,122.5C 271.667,123.833 270.333,123.833 269,122.5C 268.275,120.051 267.275,117.717 266,115.5C 265.601,115.728 265.435,116.062 265.5,116.5C 261.48,109.763 259.314,102.43 259,94.5C 264.003,98.3364 268.503,102.67 272.5,107.5 Z"/></g>
<g><path style="opacity:0.999" fill="#10d309" d="M 277.5,114.5 C 279.296,115.793 280.963,117.293 282.5,119C 278.043,128.034 279.71,136.034 287.5,143C 286.833,143.667 286.167,144.333 285.5,145C 287.333,146.167 288.833,147.667 290,149.5C 290.333,149.167 290.667,148.833 291,148.5C 295.563,154.467 300.063,159.8 304.5,164.5C 308.626,161.491 312.126,162.158 315,166.5C 319.248,173.599 322.914,180.932 326,188.5C 327.867,188.165 330.034,187.665 332.5,187C 337.113,183.353 338.78,178.52 337.5,172.5C 338.822,172.33 339.989,172.663 341,173.5C 341.252,175.931 340.752,178.265 339.5,180.5C 339.846,181.696 340.346,181.696 341,180.5C 341.496,182.035 341.33,183.535 340.5,185C 342.371,187.235 343.871,189.735 345,192.5C 347.826,193.213 350.66,193.88 353.5,194.5C 353.5,194.833 353.5,195.167 353.5,195.5C 351.167,195.5 348.833,195.5 346.5,195.5C 332.728,193.504 318.728,191.837 304.5,190.5C 302.181,191.064 299.847,191.564 297.5,192C 296.696,193.771 295.529,195.271 294,196.5C 291.888,205.99 288.722,214.99 284.5,223.5C 283.321,220.045 283.988,217.712 286.5,216.5C 286.167,215.833 285.833,215.167 285.5,214.5C 287.826,211.225 289.159,207.559 289.5,203.5C 290.093,200.5 290.926,197.5 292,194.5C 292.667,192.167 292.667,189.833 292,187.5C 288.714,177.598 284.88,167.931 280.5,158.5C 275.534,144.611 270.534,130.611 265.5,116.5C 265.435,116.062 265.601,115.728 266,115.5C 267.275,117.717 268.275,120.051 269,122.5C 270.333,123.833 271.667,123.833 273,122.5C 274.237,119.552 275.737,116.885 277.5,114.5 Z"/></g>
<g><path style="opacity:0.999" fill="#00c100" d="M 340.5,153.5 C 341.965,154.406 342.965,155.739 343.5,157.5C 342.833,157.833 342.167,158.167 341.5,158.5C 344.172,160.673 346.506,163.173 348.5,166C 346.718,168.243 346.218,170.743 347,173.5C 352.455,177.381 357.455,181.714 362,186.5C 361.745,187.915 361.245,189.415 360.5,191C 361.074,192.607 361.74,194.107 362.5,195.5C 359.455,195.492 356.455,195.159 353.5,194.5C 350.66,193.88 347.826,193.213 345,192.5C 343.871,189.735 342.371,187.235 340.5,185C 341.33,183.535 341.496,182.035 341,180.5C 340.346,181.696 339.846,181.696 339.5,180.5C 340.752,178.265 341.252,175.931 341,173.5C 339.989,172.663 338.822,172.33 337.5,172.5C 338.78,178.52 337.113,183.353 332.5,187C 330.034,187.665 327.867,188.165 326,188.5C 322.914,180.932 319.248,173.599 315,166.5C 312.126,162.158 308.626,161.491 304.5,164.5C 300.063,159.8 295.563,154.467 291,148.5C 290.667,148.833 290.333,149.167 290,149.5C 288.833,147.667 287.333,146.167 285.5,145C 286.167,144.333 286.833,143.667 287.5,143C 279.71,136.034 278.043,128.034 282.5,119C 280.963,117.293 279.296,115.793 277.5,114.5C 275.42,112.427 273.754,110.093 272.5,107.5C 276.131,110.629 279.631,113.963 283,117.5C 283.667,116.833 283.667,116.167 283,115.5C 279.912,112.919 277.412,109.919 275.5,106.5C 276.549,106.598 277.715,106.598 279,106.5C 279.167,104.667 279.333,102.833 279.5,101C 277.873,92.6602 275.873,84.4936 273.5,76.5C 274.458,75.0384 275.624,73.7051 277,72.5C 278.275,78.1009 280.608,82.4342 284,85.5C 286.205,89.5429 286.705,93.7096 285.5,98C 287.569,98.3242 287.902,99.1575 286.5,100.5C 288.136,103.911 289.469,107.411 290.5,111C 289.056,112.707 287.723,114.54 286.5,116.5C 287.833,117.5 287.833,118.5 286.5,119.5C 287.313,120.814 288.313,121.981 289.5,123C 288.383,126.073 288.216,129.24 289,132.5C 292.357,136.437 295.857,140.27 299.5,144C 299.167,144.333 298.833,144.667 298.5,145C 300.624,149.011 303.957,151.678 308.5,153C 309.46,154.419 310.293,155.919 311,157.5C 311.167,157 311.333,156.5 311.5,156C 308.798,150.49 306.132,145.49 303.5,141C 301.485,137.185 299.152,133.018 296.5,128.5C 296.833,128.167 297.167,127.833 297.5,127.5C 298.604,129.389 299.937,131.055 301.5,132.5C 301.833,132.167 302.167,131.833 302.5,131.5C 300.539,130.152 300.372,128.819 302,127.5C 309.019,136.208 314.352,145.874 318,156.5C 320.308,156.638 322.308,157.305 324,158.5C 324.692,157.975 325.192,157.308 325.5,156.5C 324.549,152.892 325.382,152.892 328,156.5C 329.254,161.193 331.254,165.526 334,169.5C 336.435,164.295 338.601,158.961 340.5,153.5 Z"/></g>
<g><path style="opacity:0.998" fill="#39fe11" d="M 245.5,92.5 C 243.757,95.7504 241.423,98.5838 238.5,101C 239.167,101.667 239.833,101.667 240.5,101C 244.413,97.2536 248.746,94.0869 253.5,91.5C 258.113,101.055 261.279,111.055 263,121.5C 266.22,126.935 269.22,132.602 272,138.5C 272.779,140.807 272.279,142.807 270.5,144.5C 273.502,149.487 276.836,154.153 280.5,158.5C 284.88,167.931 288.714,177.598 292,187.5C 292.667,189.833 292.667,192.167 292,194.5C 290.926,197.5 290.093,200.5 289.5,203.5C 289.66,201.801 289.494,200.134 289,198.5C 288.71,200.952 288.044,203.285 287,205.5C 279.784,191.939 270.617,179.772 259.5,169C 257.196,168.105 254.862,167.271 252.5,166.5C 253.629,164.471 253.129,164.137 251,165.5C 250.598,164.128 250.098,162.795 249.5,161.5C 250.777,157.265 249.777,153.265 246.5,149.5C 246.667,148.833 246.833,148.167 247,147.5C 247.953,149.455 249.287,151.122 251,152.5C 251.5,152 252,151.5 252.5,151C 249.05,149.591 247.55,147.091 248,143.5C 249.685,145.017 251.185,146.684 252.5,148.5C 252.833,148.167 253.167,147.833 253.5,147.5C 251.31,145.144 249.31,142.644 247.5,140C 249.414,136.725 251.414,133.559 253.5,130.5C 253.874,125.33 254.207,120.163 254.5,115C 254.167,114.5 253.833,114 253.5,113.5C 251.213,117.122 248.547,120.455 245.5,123.5C 239.853,116.685 234.02,110.019 228,103.5C 225.642,100.778 223.809,97.7777 222.5,94.5C 225.773,91.8558 229.44,89.6891 233.5,88C 234.337,86.9887 234.67,85.8221 234.5,84.5C 236.027,84.573 237.027,83.9063 237.5,82.5C 239.426,81.7577 241.259,80.7577 243,79.5C 243.268,81.5902 242.268,82.9236 240,83.5C 238.719,87.6277 239.719,90.961 243,93.5C 243.838,92.001 244.671,91.6676 245.5,92.5 Z"/></g>
<g><path style="opacity:1" fill="#7efd6d" d="M 182.5,118.5 C 183.492,118.328 184.158,118.662 184.5,119.5C 174.619,126.267 164.952,133.267 155.5,140.5C 152.109,141.529 149.443,143.529 147.5,146.5C 145.716,146.893 144.05,147.559 142.5,148.5C 142.062,148.565 141.728,148.399 141.5,148C 145.906,144.149 150.239,140.316 154.5,136.5C 164.521,131.494 173.854,125.494 182.5,118.5 Z"/></g>
<g><path style="opacity:0.997" fill="#78ff67" d="M 263.5,135.5 C 264.693,135.97 265.36,136.97 265.5,138.5C 266.265,143.22 266.765,147.886 267,152.5C 262.823,147.437 261.657,141.771 263.5,135.5 Z"/></g>
<g><path style="opacity:0.004" fill="#00ff00" d="M 125.5,154.5 C 124.475,154.103 124.308,153.437 125,152.5C 125.464,153.094 125.631,153.761 125.5,154.5 Z"/></g>
<g><path style="opacity:0.004" fill="#00ff00" d="M 359.5,155.5 C 360.833,156.167 360.833,156.167 359.5,155.5 Z"/></g>
<g><path style="opacity:0.998" fill="#01cc00" d="M 147.5,146.5 C 148.573,147.251 148.74,148.251 148,149.5C 144.375,157.256 139.875,164.423 134.5,171C 133.423,171.47 132.423,171.303 131.5,170.5C 129.397,166.411 128.73,162.078 129.5,157.5C 134.15,154.832 138.483,151.832 142.5,148.5C 144.05,147.559 145.716,146.893 147.5,146.5 Z"/></g>
<g><path style="opacity:0.998" fill="#01cc00" d="M 184.5,119.5 C 184.938,119.435 185.272,119.601 185.5,120C 176.933,126.866 168.1,133.366 159,139.5C 157.12,150.805 155.453,162.138 154,173.5C 157.054,177.044 160.387,180.377 164,183.5C 164.536,185.869 165.703,187.869 167.5,189.5C 166.398,189.557 165.065,189.723 163.5,190C 161.538,188.379 159.871,186.546 158.5,184.5C 157.353,186.765 157.186,189.098 158,191.5C 159.585,192.376 160.585,193.709 161,195.5C 161.333,195.167 161.667,194.833 162,194.5C 163.529,195.729 164.696,197.229 165.5,199C 161.462,198.006 158.128,195.673 155.5,192C 154.563,191.308 153.897,191.475 153.5,192.5C 151.036,190.43 148.369,188.596 145.5,187C 143.487,183.462 140.821,180.629 137.5,178.5C 137.833,178.5 138.167,178.5 138.5,178.5C 140.921,180.215 143.587,181.048 146.5,181C 145.912,177.402 144.912,173.902 143.5,170.5C 149.921,161.498 153.921,151.498 155.5,140.5C 164.952,133.267 174.619,126.267 184.5,119.5 Z"/></g>
<g><path style="opacity:0.999" fill="#00ac00" d="M 155.5,140.5 C 153.921,151.498 149.921,161.498 143.5,170.5C 144.912,173.902 145.912,177.402 146.5,181C 143.587,181.048 140.921,180.215 138.5,178.5C 135.457,176.457 133.124,173.79 131.5,170.5C 132.423,171.303 133.423,171.47 134.5,171C 139.875,164.423 144.375,157.256 148,149.5C 148.74,148.251 148.573,147.251 147.5,146.5C 149.443,143.529 152.109,141.529 155.5,140.5 Z"/></g>
<g><path style="opacity:0.988" fill="#57fd3f" d="M 154.5,136.5 C 150.239,140.316 145.906,144.149 141.5,148C 141.728,148.399 142.062,148.565 142.5,148.5C 138.483,151.832 134.15,154.832 129.5,157.5C 128.73,162.078 129.397,166.411 131.5,170.5C 133.124,173.79 135.457,176.457 138.5,178.5C 138.167,178.5 137.833,178.5 137.5,178.5C 136.193,177.847 134.86,177.18 133.5,176.5C 132.054,177.171 131.388,178.338 131.5,180C 133.562,189.725 134.562,199.559 134.5,209.5C 134.666,215.509 134.499,221.509 134,227.5C 133.578,217.15 132.911,206.817 132,196.5C 131.5,197 131,197.5 130.5,198C 130.658,199.977 130.825,202.143 131,204.5C 129.956,203.377 129.29,202.044 129,200.5C 127.476,186.169 126.476,171.835 126,157.5C 128.95,152.882 132.284,148.548 136,144.5C 136.692,143.563 136.525,142.897 135.5,142.5C 143.529,133.474 151.529,124.474 159.5,115.5C 161.765,114.771 163.765,115.604 165.5,118C 164.624,119.586 163.624,121.086 162.5,122.5C 163.167,122.833 163.833,123.167 164.5,123.5C 161.143,127.852 157.809,132.185 154.5,136.5 Z"/></g>
<g><path style="opacity:0.004" fill="#00ff00" d="M 375.5,179.5 C 376.833,180.167 376.833,180.167 375.5,179.5 Z"/></g>
<g><path style="opacity:0.999" fill="#00720d" d="M 346.5,195.5 C 338.606,195.527 338.606,196.193 346.5,197.5C 344.372,202.385 342.538,207.385 341,212.5C 334.387,224.892 326.887,236.725 318.5,248C 317.551,248.617 316.718,248.451 316,247.5C 311.611,237.722 306.944,228.055 302,218.5C 300.605,217.185 299.605,217.519 299,219.5C 298.333,221.833 298.333,224.167 299,226.5C 304.1,238.335 306.767,250.669 307,263.5C 299.698,271.803 292.031,279.803 284,287.5C 281.716,293.064 278.216,297.731 273.5,301.5C 268.503,309.018 264.169,316.852 260.5,325C 260.667,325.833 260.833,326.667 261,327.5C 262.494,326.253 263.994,326.253 265.5,327.5C 264.975,328.192 264.308,328.692 263.5,329C 265.23,330.852 266.396,330.686 267,328.5C 269.023,330.013 268.856,331.346 266.5,332.5C 270.403,334.283 270.07,335.45 265.5,336C 266.126,336.75 266.626,337.584 267,338.5C 267.333,338.167 267.667,337.833 268,337.5C 268.973,339.392 269.64,341.392 270,343.5C 270.333,343.167 270.667,342.833 271,342.5C 271.652,344.723 273.152,345.89 275.5,346C 275.167,346.333 274.833,346.667 274.5,347C 276.078,349.482 277.411,352.149 278.5,355C 276.346,356.184 276.68,357.35 279.5,358.5C 280.452,360.045 280.785,361.712 280.5,363.5C 279.85,363.196 279.183,362.863 278.5,362.5C 276.336,368.162 274.17,373.828 272,379.5C 271.333,378.167 270.667,378.167 270,379.5C 267.755,377.377 265.755,375.044 264,372.5C 263.76,374.977 264.594,377.144 266.5,379C 262.108,379.296 257.942,378.462 254,376.5C 252.624,377.705 251.458,379.038 250.5,380.5C 248.219,380.923 246.552,380.256 245.5,378.5C 245.604,371.072 247.271,364.072 250.5,357.5C 249.694,349.303 250.361,341.303 252.5,333.5C 254.966,326.492 256.3,319.158 256.5,311.5C 258.545,307.806 260.545,304.14 262.5,300.5C 267.596,283.783 271.93,266.783 275.5,249.5C 279.291,241.126 282.291,232.46 284.5,223.5C 288.722,214.99 291.888,205.99 294,196.5C 295.529,195.271 296.696,193.771 297.5,192C 299.847,191.564 302.181,191.064 304.5,190.5C 318.728,191.837 332.728,193.504 346.5,195.5 Z"/></g>
<g><path style="opacity:0.999" fill="#00680e" d="M 346.5,195.5 C 348.833,195.5 351.167,195.5 353.5,195.5C 357.927,196.181 362.26,197.181 366.5,198.5C 364.269,204.475 362.602,210.642 361.5,217C 365.802,220.608 365.469,223.775 360.5,226.5C 359.667,228.5 358.833,230.5 358,232.5C 355.997,245.841 353.997,259.174 352,272.5C 350.097,274.441 349.264,276.774 349.5,279.5C 349.666,284.844 349.499,290.177 349,295.5C 340.727,306.713 334.56,319.046 330.5,332.5C 328.93,335.314 327.597,338.314 326.5,341.5C 322.774,347.273 319.274,353.273 316,359.5C 315.781,364.515 315.781,369.515 316,374.5C 313.665,377.665 311.165,380.665 308.5,383.5C 307.527,382.016 306.193,381.516 304.5,382C 300.353,385.909 295.686,389.076 290.5,391.5C 289.141,390.376 288.141,389.042 287.5,387.5C 284.915,379.573 282.581,371.573 280.5,363.5C 280.785,361.712 280.452,360.045 279.5,358.5C 276.68,357.35 276.346,356.184 278.5,355C 277.411,352.149 276.078,349.482 274.5,347C 274.833,346.667 275.167,346.333 275.5,346C 273.152,345.89 271.652,344.723 271,342.5C 270.667,342.833 270.333,343.167 270,343.5C 269.64,341.392 268.973,339.392 268,337.5C 267.667,337.833 267.333,338.167 267,338.5C 266.626,337.584 266.126,336.75 265.5,336C 270.07,335.45 270.403,334.283 266.5,332.5C 268.856,331.346 269.023,330.013 267,328.5C 266.396,330.686 265.23,330.852 263.5,329C 264.308,328.692 264.975,328.192 265.5,327.5C 263.994,326.253 262.494,326.253 261,327.5C 260.833,326.667 260.667,325.833 260.5,325C 264.169,316.852 268.503,309.018 273.5,301.5C 278.216,297.731 281.716,293.064 284,287.5C 292.031,279.803 299.698,271.803 307,263.5C 306.767,250.669 304.1,238.335 299,226.5C 298.333,224.167 298.333,221.833 299,219.5C 299.605,217.519 300.605,217.185 302,218.5C 306.944,228.055 311.611,237.722 316,247.5C 316.718,248.451 317.551,248.617 318.5,248C 326.887,236.725 334.387,224.892 341,212.5C 342.538,207.385 344.372,202.385 346.5,197.5C 338.606,196.193 338.606,195.527 346.5,195.5 Z"/></g>
<g><path style="opacity:0.004" fill="#00ff00" d="M 375.5,220.5 C 376.833,221.167 376.833,221.833 375.5,222.5C 375.5,221.833 375.5,221.167 375.5,220.5 Z"/></g>
<g><path style="opacity:0.998" fill="#00c600" d="M 376.5,213.5 C 375.781,215.764 375.448,218.097 375.5,220.5C 374.167,221.167 374.167,221.833 375.5,222.5C 369.92,241.258 364.92,260.258 360.5,279.5C 359.504,279.414 358.671,279.748 358,280.5C 358.349,284.459 356.683,287.126 353,288.5C 351.673,285.489 350.506,282.489 349.5,279.5C 349.264,276.774 350.097,274.441 352,272.5C 353.997,259.174 355.997,245.841 358,232.5C 358.833,230.5 359.667,228.5 360.5,226.5C 365.469,223.775 365.802,220.608 361.5,217C 362.602,210.642 364.269,204.475 366.5,198.5C 369.247,197.044 372.08,195.711 375,194.5C 375.772,194.645 376.439,194.978 377,195.5C 377.473,200.257 376.973,204.924 375.5,209.5C 375.511,211.045 375.844,212.378 376.5,213.5 Z"/></g>
<g><path style="opacity:0.999" fill="#009106" d="M 137.5,178.5 C 140.821,180.629 143.487,183.462 145.5,187C 148.369,188.596 151.036,190.43 153.5,192.5C 159.652,197.741 165.985,202.741 172.5,207.5C 192.075,222.406 210.742,238.406 228.5,255.5C 226.494,254.834 224.66,254.834 223,255.5C 223.293,259.003 225.126,261.669 228.5,263.5C 229.883,260.924 230.717,261.258 231,264.5C 231.333,264.167 231.667,263.833 232,263.5C 233.543,265.378 235.376,266.878 237.5,268C 237.043,268.414 236.709,268.914 236.5,269.5C 238.762,270.345 239.429,271.678 238.5,273.5C 239.631,274.604 240.465,274.271 241,272.5C 243.113,274.271 242.947,275.771 240.5,277C 241.705,279.234 241.039,280.901 238.5,282C 235.059,281.949 232.226,283.115 230,285.5C 228.816,283.346 227.65,283.68 226.5,286.5C 228.024,288.792 227.691,290.792 225.5,292.5C 227.226,294.228 228.559,296.228 229.5,298.5C 228.369,299.604 227.535,299.271 227,297.5C 226.405,298.899 226.572,300.232 227.5,301.5C 224.327,305.526 225.327,308.026 230.5,309C 229.167,309.667 228.167,310.667 227.5,312C 231.23,311.512 231.564,312.845 228.5,316C 230.376,317.863 232.543,319.363 235,320.5C 234.561,323.216 234.395,325.882 234.5,328.5C 236.139,329.916 236.973,331.583 237,333.5C 235.187,331.528 234.02,331.528 233.5,333.5C 234.421,335.13 235.255,336.797 236,338.5C 236.654,337.304 237.154,337.304 237.5,338.5C 236.885,340.116 235.885,341.449 234.5,342.5C 235.919,344.127 235.586,344.627 233.5,344C 231.937,342.264 230.27,340.764 228.5,339.5C 229.335,338.964 229.335,338.131 228.5,337C 227.728,335.779 226.728,334.779 225.5,334C 228.71,332.818 229.21,330.985 227,328.5C 221.122,324.29 216.289,319.123 212.5,313C 213.657,307.704 214.657,302.371 215.5,297C 214.743,295.488 213.743,294.154 212.5,293C 213.167,292.667 213.833,292.333 214.5,292C 213.289,290.887 213.289,289.72 214.5,288.5C 213.197,286.623 211.697,284.957 210,283.5C 209.389,287.272 208.389,287.272 207,283.5C 203.04,288.803 199.04,294.137 195,299.5C 193.54,297.578 191.873,296.911 190,297.5C 188.229,296.696 186.729,295.529 185.5,294C 186.167,293.667 186.833,293.333 187.5,293C 186.109,290.766 184.109,288.433 181.5,286C 179.249,284.035 177.582,284.535 176.5,287.5C 174.904,290.901 175.571,293.901 178.5,296.5C 179.336,298.819 181.336,300.653 184.5,302C 183.289,303.113 183.289,304.28 184.5,305.5C 183.088,306.806 181.421,307.64 179.5,308C 178.167,309 178.167,310 179.5,311C 178.672,311.915 177.672,312.581 176.5,313C 176.072,315.686 176.738,318.186 178.5,320.5C 177.966,327.432 175.799,328.099 172,322.5C 168.253,314.429 165.253,306.096 163,297.5C 157.809,286.763 154.142,275.43 152,263.5C 144.055,245.265 138.722,226.265 136,206.5C 135.517,207.448 135.351,208.448 135.5,209.5C 135.167,209.5 134.833,209.5 134.5,209.5C 134.562,199.559 133.562,189.725 131.5,180C 131.388,178.338 132.054,177.171 133.5,176.5C 134.86,177.18 136.193,177.847 137.5,178.5 Z"/></g>
<g><path style="opacity:0.898" fill="#37fd12" d="M 135.5,142.5 C 136.525,142.897 136.692,143.563 136,144.5C 132.284,148.548 128.95,152.882 126,157.5C 126.476,171.835 127.476,186.169 129,200.5C 129.29,202.044 129.956,203.377 131,204.5C 130.825,202.143 130.658,199.977 130.5,198C 131,197.5 131.5,197 132,196.5C 132.911,206.817 133.578,217.15 134,227.5C 134.499,221.509 134.666,215.509 134.5,209.5C 134.833,209.5 135.167,209.5 135.5,209.5C 135.102,227.084 136.935,244.418 141,261.5C 141.333,266.833 141.667,272.167 142,277.5C 145.304,289.928 147.137,302.594 147.5,315.5C 147.665,318.518 147.498,321.518 147,324.5C 144.662,330.681 142.829,337.015 141.5,343.5C 141.577,345.299 142.077,346.966 143,348.5C 146,353.167 149,357.833 152,362.5C 152.333,365.833 152.667,369.167 153,372.5C 155.099,375.7 156.933,379.033 158.5,382.5C 158.5,382.833 158.5,383.167 158.5,383.5C 154.27,378.056 150.77,372.056 148,365.5C 145.422,360.343 142.422,354.343 139,347.5C 138.16,341.416 136.993,335.416 135.5,329.5C 136.046,328.228 136.379,326.894 136.5,325.5C 132.527,271.467 128.194,217.467 123.5,163.5C 124.17,160.481 124.837,157.481 125.5,154.5C 129.18,150.817 132.514,146.817 135.5,142.5 Z"/></g>
<g><path style="opacity:0.999" fill="#009c03" d="M 275.5,249.5 C 271.93,266.783 267.596,283.783 262.5,300.5C 260.395,299.181 258.395,299.514 256.5,301.5C 255.522,301.023 254.689,300.357 254,299.5C 253.333,302.833 253.333,306.167 254,309.5C 254.417,310.756 255.25,311.423 256.5,311.5C 256.3,319.158 254.966,326.492 252.5,333.5C 253.255,327.309 254.255,321.142 255.5,315C 255.001,312.125 254.335,311.958 253.5,314.5C 251.217,321.719 249.55,329.053 248.5,336.5C 249.063,337.939 249.397,339.439 249.5,341C 247.229,355.854 244.895,370.687 242.5,385.5C 239.25,383.757 236.416,381.423 234,378.5C 233.601,378.728 233.435,379.062 233.5,379.5C 231.299,376.979 228.966,374.479 226.5,372C 228.745,372.195 230.578,373.362 232,375.5C 232.374,374.584 232.874,373.75 233.5,373C 229.937,369.998 228.937,366.665 230.5,363C 229.929,361.795 229.262,360.628 228.5,359.5C 227.914,359.709 227.414,360.043 227,360.5C 226.51,359.207 226.343,357.873 226.5,356.5C 225.448,356.649 224.448,356.483 223.5,356C 226.579,353.673 226.912,351.173 224.5,348.5C 225.376,347.749 226.376,347.249 227.5,347C 226.549,346.282 226.383,345.449 227,344.5C 228,345.5 229,346.5 230,347.5C 227.195,342.35 223.195,338.016 218,334.5C 217.275,332.843 217.775,331.843 219.5,331.5C 222.5,334.167 225.5,336.833 228.5,339.5C 230.27,340.764 231.937,342.264 233.5,344C 235.586,344.627 235.919,344.127 234.5,342.5C 235.885,341.449 236.885,340.116 237.5,338.5C 237.154,337.304 236.654,337.304 236,338.5C 235.255,336.797 234.421,335.13 233.5,333.5C 234.02,331.528 235.187,331.528 237,333.5C 236.973,331.583 236.139,329.916 234.5,328.5C 234.395,325.882 234.561,323.216 235,320.5C 232.543,319.363 230.376,317.863 228.5,316C 231.564,312.845 231.23,311.512 227.5,312C 228.167,310.667 229.167,309.667 230.5,309C 225.327,308.026 224.327,305.526 227.5,301.5C 226.572,300.232 226.405,298.899 227,297.5C 227.535,299.271 228.369,299.604 229.5,298.5C 228.559,296.228 227.226,294.228 225.5,292.5C 227.691,290.792 228.024,288.792 226.5,286.5C 227.65,283.68 228.816,283.346 230,285.5C 232.226,283.115 235.059,281.949 238.5,282C 241.039,280.901 241.705,279.234 240.5,277C 242.947,275.771 243.113,274.271 241,272.5C 240.465,274.271 239.631,274.604 238.5,273.5C 239.429,271.678 238.762,270.345 236.5,269.5C 236.709,268.914 237.043,268.414 237.5,268C 235.376,266.878 233.543,265.378 232,263.5C 231.667,263.833 231.333,264.167 231,264.5C 230.717,261.258 229.883,260.924 228.5,263.5C 225.126,261.669 223.293,259.003 223,255.5C 224.66,254.834 226.494,254.834 228.5,255.5C 236.153,261.483 243.82,267.483 251.5,273.5C 255.415,271.093 258.915,268.093 262,264.5C 266.366,259.305 270.866,254.305 275.5,249.5 Z"/></g>
<g><path style="opacity:0.999" fill="#007a0c" d="M 178.5,320.5 C 179.496,320.414 180.329,320.748 181,321.5C 182.444,319.845 184.278,319.178 186.5,319.5C 186.351,320.552 186.517,321.552 187,322.5C 188.621,320.507 190.287,318.507 192,316.5C 192.667,320.5 193.333,320.5 194,316.5C 194.93,318.356 195.43,320.356 195.5,322.5C 194.833,322.833 194.167,323.167 193.5,323.5C 194.36,325.931 196.027,327.264 198.5,327.5C 198.649,328.552 198.483,329.552 198,330.5C 197.107,329.289 196.274,329.289 195.5,330.5C 196.025,331.192 196.692,331.692 197.5,332C 196.692,332.308 196.025,332.808 195.5,333.5C 197.916,335.267 200.583,336.767 203.5,338C 200.456,338.359 200.122,339.026 202.5,340C 198.569,342.141 198.902,343.808 203.5,345C 202.322,349.959 199.155,352.459 194,352.5C 193.428,349.293 191.595,347.626 188.5,347.5C 187.064,350.91 187.397,354.077 189.5,357C 188.285,359.096 187.451,358.929 187,356.5C 185.686,357.313 184.519,358.313 183.5,359.5C 182.667,358.5 181.833,357.5 181,356.5C 180.086,357.654 179.253,357.487 178.5,356C 179.167,355.667 179.833,355.333 180.5,355C 177.688,353.023 175.022,350.856 172.5,348.5C 172.709,347.914 173.043,347.414 173.5,347C 172.818,343.58 171.818,340.246 170.5,337C 170.833,336.667 171.167,336.333 171.5,336C 167.879,329.927 164.379,323.76 161,317.5C 160.667,320.833 160.333,324.167 160,327.5C 158.951,328.517 157.784,328.684 156.5,328C 158.929,327.549 159.096,326.715 157,325.5C 156.015,327.175 155.181,328.842 154.5,330.5C 152.443,325.189 150.11,320.189 147.5,315.5C 147.137,302.594 145.304,289.928 142,277.5C 141.667,272.167 141.333,266.833 141,261.5C 136.935,244.418 135.102,227.084 135.5,209.5C 135.351,208.448 135.517,207.448 136,206.5C 138.722,226.265 144.055,245.265 152,263.5C 154.142,275.43 157.809,286.763 163,297.5C 165.253,306.096 168.253,314.429 172,322.5C 175.799,328.099 177.966,327.432 178.5,320.5 Z"/></g>
<g><path style="opacity:0.999" fill="#00ad01" d="M 176.5,287.5 C 177.228,289.735 178.561,291.568 180.5,293C 189.54,298.438 196.54,305.771 201.5,315C 194.049,311.226 188.049,305.56 183.5,298C 181.975,296.991 180.308,296.491 178.5,296.5C 175.571,293.901 174.904,290.901 176.5,287.5 Z"/></g>
<g><path style="opacity:0.998" fill="#0ce601" d="M 262.5,300.5 C 260.545,304.14 258.545,307.806 256.5,311.5C 255.25,311.423 254.417,310.756 254,309.5C 253.333,306.167 253.333,302.833 254,299.5C 254.689,300.357 255.522,301.023 256.5,301.5C 258.395,299.514 260.395,299.181 262.5,300.5 Z"/></g>
<g><path style="opacity:0.998" fill="#00a501" d="M 312.5,308.5 C 315.34,309.423 317.674,311.09 319.5,313.5C 317.527,316.64 315.36,319.64 313,322.5C 312.501,317.845 312.334,313.179 312.5,308.5 Z"/></g>
<g><path style="opacity:0.997" fill="#00de00" d="M 349.5,279.5 C 350.506,282.489 351.673,285.489 353,288.5C 356.683,287.126 358.349,284.459 358,280.5C 358.671,279.748 359.504,279.414 360.5,279.5C 351.377,303.76 343.377,328.426 336.5,353.5C 335.861,352.903 335.528,352.07 335.5,351C 337.121,346.422 338.455,341.755 339.5,337C 337.561,334.303 335.728,331.469 334,328.5C 333.333,329.833 332.667,331.167 332,332.5C 331.31,333.738 330.81,333.738 330.5,332.5C 334.56,319.046 340.727,306.713 349,295.5C 349.499,290.177 349.666,284.844 349.5,279.5 Z"/></g>
<g><path style="opacity:0.998" fill="#00810b" d="M 228.5,339.5 C 225.5,336.833 222.5,334.167 219.5,331.5C 217.51,330.066 215.843,328.232 214.5,326C 213.5,325.333 212.5,325.333 211.5,326C 213.5,327.333 215.167,329 216.5,331C 215.036,336.251 213.369,341.751 211.5,347.5C 212.064,349.819 212.564,352.153 213,354.5C 215.398,355.856 217.898,357.023 220.5,358C 219.5,358.333 218.5,358.667 217.5,359C 217.833,359.333 218.167,359.667 218.5,360C 219.833,360 221.167,360 222.5,360C 221.134,363.786 221.468,367.452 223.5,371C 222.167,372.667 222.167,374.333 223.5,376C 221.946,378.675 220.613,381.508 219.5,384.5C 219.709,385.086 220.043,385.586 220.5,386C 218.146,389.351 215.146,392.018 211.5,394C 213.286,395.293 214.953,395.793 216.5,395.5C 215.833,396.5 215.167,397.5 214.5,398.5C 214.928,400.386 215.261,402.219 215.5,404C 212.167,405.799 211.834,407.966 214.5,410.5C 213.753,410.736 212.92,411.07 212,411.5C 210.76,408.588 209.094,405.921 207,403.5C 205.434,404.061 204.101,403.394 203,401.5C 202.612,402.428 201.945,403.095 201,403.5C 199.005,401.77 196.838,400.437 194.5,399.5C 194.768,397.901 194.434,396.568 193.5,395.5C 190.93,387.072 186.43,379.739 180,373.5C 179.692,374.308 179.192,374.975 178.5,375.5C 174.341,373.92 172.008,375.42 171.5,380C 171.833,380.333 172.167,380.667 172.5,381C 170.695,382.441 168.695,382.608 166.5,381.5C 163.884,379.245 163.884,376.912 166.5,374.5C 164.881,363.352 161.714,352.685 157,342.5C 156.269,338.435 155.435,334.435 154.5,330.5C 155.181,328.842 156.015,327.175 157,325.5C 159.096,326.715 158.929,327.549 156.5,328C 157.784,328.684 158.951,328.517 160,327.5C 160.333,324.167 160.667,320.833 161,317.5C 164.379,323.76 167.879,329.927 171.5,336C 171.167,336.333 170.833,336.667 170.5,337C 171.818,340.246 172.818,343.58 173.5,347C 173.043,347.414 172.709,347.914 172.5,348.5C 175.022,350.856 177.688,353.023 180.5,355C 179.833,355.333 179.167,355.667 178.5,356C 179.253,357.487 180.086,357.654 181,356.5C 181.833,357.5 182.667,358.5 183.5,359.5C 184.519,358.313 185.686,357.313 187,356.5C 187.451,358.929 188.285,359.096 189.5,357C 187.397,354.077 187.064,350.91 188.5,347.5C 191.595,347.626 193.428,349.293 194,352.5C 199.155,352.459 202.322,349.959 203.5,345C 198.902,343.808 198.569,342.141 202.5,340C 200.122,339.026 200.456,338.359 203.5,338C 200.583,336.767 197.916,335.267 195.5,333.5C 196.025,332.808 196.692,332.308 197.5,332C 196.692,331.692 196.025,331.192 195.5,330.5C 196.274,329.289 197.107,329.289 198,330.5C 198.483,329.552 198.649,328.552 198.5,327.5C 196.027,327.264 194.36,325.931 193.5,323.5C 194.167,323.167 194.833,322.833 195.5,322.5C 195.43,320.356 194.93,318.356 194,316.5C 193.333,320.5 192.667,320.5 192,316.5C 190.287,318.507 188.621,320.507 187,322.5C 186.517,321.552 186.351,320.552 186.5,319.5C 184.278,319.178 182.444,319.845 181,321.5C 180.329,320.748 179.496,320.414 178.5,320.5C 176.738,318.186 176.072,315.686 176.5,313C 177.672,312.581 178.672,311.915 179.5,311C 178.167,310 178.167,309 179.5,308C 181.421,307.64 183.088,306.806 184.5,305.5C 183.289,304.28 183.289,303.113 184.5,302C 181.336,300.653 179.336,298.819 178.5,296.5C 180.308,296.491 181.975,296.991 183.5,298C 188.049,305.56 194.049,311.226 201.5,315C 196.54,305.771 189.54,298.438 180.5,293C 178.561,291.568 177.228,289.735 176.5,287.5C 177.582,284.535 179.249,284.035 181.5,286C 184.109,288.433 186.109,290.766 187.5,293C 186.833,293.333 186.167,293.667 185.5,294C 186.729,295.529 188.229,296.696 190,297.5C 191.873,296.911 193.54,297.578 195,299.5C 199.04,294.137 203.04,288.803 207,283.5C 208.389,287.272 209.389,287.272 210,283.5C 211.697,284.957 213.197,286.623 214.5,288.5C 213.289,289.72 213.289,290.887 214.5,292C 213.833,292.333 213.167,292.667 212.5,293C 213.743,294.154 214.743,295.488 215.5,297C 214.657,302.371 213.657,307.704 212.5,313C 216.289,319.123 221.122,324.29 227,328.5C 229.21,330.985 228.71,332.818 225.5,334C 226.728,334.779 227.728,335.779 228.5,337C 229.335,338.131 229.335,338.964 228.5,339.5 Z"/></g>
<g><path style="opacity:0.999" fill="#00a202" d="M 147.5,315.5 C 150.11,320.189 152.443,325.189 154.5,330.5C 155.435,334.435 156.269,338.435 157,342.5C 161.714,352.685 164.881,363.352 166.5,374.5C 163.884,376.912 163.884,379.245 166.5,381.5C 166.09,387.322 167.423,392.656 170.5,397.5C 169.559,400.125 168.393,400.125 167,397.5C 164.125,392.405 161.292,387.405 158.5,382.5C 156.933,379.033 155.099,375.7 153,372.5C 152.667,369.167 152.333,365.833 152,362.5C 149,357.833 146,353.167 143,348.5C 142.077,346.966 141.577,345.299 141.5,343.5C 142.829,337.015 144.662,330.681 147,324.5C 147.498,321.518 147.665,318.518 147.5,315.5 Z"/></g>
<g><path style="opacity:0.996" fill="#00c000" d="M 336.5,353.5 C 335.401,358.144 333.734,362.478 331.5,366.5C 331.657,365.127 331.49,363.793 331,362.5C 330.667,363.167 330.333,363.833 330,364.5C 328.779,363.226 327.946,361.726 327.5,360C 330.403,353.4 330.07,347.233 326.5,341.5C 327.597,338.314 328.93,335.314 330.5,332.5C 330.81,333.738 331.31,333.738 332,332.5C 332.667,331.167 333.333,329.833 334,328.5C 335.728,331.469 337.561,334.303 339.5,337C 338.455,341.755 337.121,346.422 335.5,351C 335.528,352.07 335.861,352.903 336.5,353.5 Z"/></g>
<g><path style="opacity:0.998" fill="#008c08" d="M 219.5,331.5 C 217.775,331.843 217.275,332.843 218,334.5C 223.195,338.016 227.195,342.35 230,347.5C 229,346.5 228,345.5 227,344.5C 226.383,345.449 226.549,346.282 227.5,347C 226.376,347.249 225.376,347.749 224.5,348.5C 226.912,351.173 226.579,353.673 223.5,356C 224.448,356.483 225.448,356.649 226.5,356.5C 226.343,357.873 226.51,359.207 227,360.5C 227.414,360.043 227.914,359.709 228.5,359.5C 229.262,360.628 229.929,361.795 230.5,363C 228.937,366.665 229.937,369.998 233.5,373C 232.874,373.75 232.374,374.584 232,375.5C 230.578,373.362 228.745,372.195 226.5,372C 228.966,374.479 231.299,376.979 233.5,379.5C 233.833,380.167 234.167,380.833 234.5,381.5C 234.5,382.167 234.167,382.5 233.5,382.5C 232.878,381.373 232.045,380.373 231,379.5C 228.628,385.622 226.128,392.122 223.5,399C 224.677,401.646 224.677,404.312 223.5,407C 223.773,409.151 224.439,411.151 225.5,413C 224.366,414.016 224.699,414.683 226.5,415C 226.238,420.308 224.071,421.474 220,418.5C 217.787,419.739 215.787,419.406 214,417.5C 212.584,418.573 211.25,418.573 210,417.5C 207.43,418.009 205.097,419.009 203,420.5C 201.617,417.924 200.783,418.258 200.5,421.5C 201.477,423.843 202.81,426.01 204.5,428C 205.5,428.667 206.5,428.667 207.5,428C 208.041,425.135 206.707,423.135 203.5,422C 204.025,421.308 204.692,420.808 205.5,420.5C 207.297,422.131 208.464,424.131 209,426.5C 209.333,424.167 209.667,421.833 210,419.5C 213.292,421.964 214.792,425.298 214.5,429.5C 212.61,429.703 211.11,429.037 210,427.5C 209.833,428.167 209.667,428.833 209.5,429.5C 211.851,433.886 213.185,438.552 213.5,443.5C 215.199,443.34 216.866,443.506 218.5,444C 217.167,444.667 217.167,445.333 218.5,446C 217.274,448.37 216.44,450.536 216,452.5C 214.513,451.747 214.346,450.914 215.5,450C 213.104,449.134 212.437,449.634 213.5,451.5C 210.945,455.026 211.945,457.359 216.5,458.5C 218.583,457.041 220.75,455.708 223,454.5C 223.399,454.728 223.565,455.062 223.5,455.5C 224.175,457.283 224.508,458.95 224.5,460.5C 222.927,463.893 220.26,465.226 216.5,464.5C 216.577,468.877 217.077,473.21 218,477.5C 220.084,481.336 222.417,485.003 225,488.5C 225.692,489.437 225.525,490.103 224.5,490.5C 220.255,483.58 215.588,476.913 210.5,470.5C 210.938,470.565 211.272,470.399 211.5,470C 209.993,469.163 209.493,467.996 210,466.5C 211.699,467.406 213.533,467.739 215.5,467.5C 215.719,462.94 214.052,459.273 210.5,456.5C 209.686,458.766 209.186,461.1 209,463.5C 206.047,455.964 202.713,448.631 199,441.5C 196.985,440.303 195.151,438.97 193.5,437.5C 194.744,435.418 195.744,432.751 196.5,429.5C 195.167,427.5 195.167,425.5 196.5,423.5C 193.898,418.238 190.898,413.238 187.5,408.5C 189.006,407.253 190.506,407.253 192,408.5C 192.741,405.438 192.575,402.438 191.5,399.5C 192.18,398.14 192.847,396.807 193.5,395.5C 194.434,396.568 194.768,397.901 194.5,399.5C 196.838,400.437 199.005,401.77 201,403.5C 201.945,403.095 202.612,402.428 203,401.5C 204.101,403.394 205.434,404.061 207,403.5C 209.094,405.921 210.76,408.588 212,411.5C 212.92,411.07 213.753,410.736 214.5,410.5C 211.834,407.966 212.167,405.799 215.5,404C 215.261,402.219 214.928,400.386 214.5,398.5C 215.167,397.5 215.833,396.5 216.5,395.5C 214.953,395.793 213.286,395.293 211.5,394C 215.146,392.018 218.146,389.351 220.5,386C 220.043,385.586 219.709,385.086 219.5,384.5C 220.613,381.508 221.946,378.675 223.5,376C 222.167,374.333 222.167,372.667 223.5,371C 221.468,367.452 221.134,363.786 222.5,360C 221.167,360 219.833,360 218.5,360C 218.167,359.667 217.833,359.333 217.5,359C 218.5,358.667 219.5,358.333 220.5,358C 217.898,357.023 215.398,355.856 213,354.5C 212.564,352.153 212.064,349.819 211.5,347.5C 213.369,341.751 215.036,336.251 216.5,331C 215.167,329 213.5,327.333 211.5,326C 212.5,325.333 213.5,325.333 214.5,326C 215.843,328.232 217.51,330.066 219.5,331.5 Z"/></g>
<g><path style="opacity:0.999" fill="#00780d" d="M 193.5,395.5 C 192.847,396.807 192.18,398.14 191.5,399.5C 192.575,402.438 192.741,405.438 192,408.5C 190.506,407.253 189.006,407.253 187.5,408.5C 190.898,413.238 193.898,418.238 196.5,423.5C 195.167,425.5 195.167,427.5 196.5,429.5C 195.744,432.751 194.744,435.418 193.5,437.5C 191.243,437.038 189.243,436.038 187.5,434.5C 181.625,422.184 175.958,409.85 170.5,397.5C 167.423,392.656 166.09,387.322 166.5,381.5C 168.695,382.608 170.695,382.441 172.5,381C 172.167,380.667 171.833,380.333 171.5,380C 172.008,375.42 174.341,373.92 178.5,375.5C 179.192,374.975 179.692,374.308 180,373.5C 186.43,379.739 190.93,387.072 193.5,395.5 Z"/></g>
<g><path style="opacity:0.999" fill="#00a501" d="M 234.5,381.5 C 237.185,384.19 239.518,387.19 241.5,390.5C 241.167,391.167 240.833,391.833 240.5,392.5C 239.504,392.414 238.671,392.748 238,393.5C 237.82,401.171 238.154,408.838 239,416.5C 242.289,416.085 244.289,417.752 245,421.5C 245.219,420.062 245.719,418.729 246.5,417.5C 249.087,418.415 251.587,419.415 254,420.5C 255.107,420.415 256.107,420.081 257,419.5C 257.339,421.834 257.172,424.168 256.5,426.5C 256.64,428.03 257.307,429.03 258.5,429.5C 258.769,431.429 258.269,433.095 257,434.5C 254.993,431.16 252.326,428.493 249,426.5C 249.369,431.651 251.535,435.985 255.5,439.5C 253.552,442.621 251.385,445.621 249,448.5C 248.663,446.193 249.496,444.36 251.5,443C 250.447,438.435 249.114,433.935 247.5,429.5C 247.132,428.09 246.299,427.09 245,426.5C 243.383,428.582 241.383,430.248 239,431.5C 238.055,431.095 237.388,430.428 237,429.5C 236.823,433.356 236.323,437.023 235.5,440.5C 235.665,436.818 235.499,433.152 235,429.5C 234.913,436.18 233.413,442.513 230.5,448.5C 230.709,449.086 231.043,449.586 231.5,450C 230.333,451.167 229.167,452.333 228,453.5C 227.308,454.437 227.475,455.103 228.5,455.5C 227.167,457.167 225.833,458.833 224.5,460.5C 224.508,458.95 224.175,457.283 223.5,455.5C 224.809,454.376 225.475,452.876 225.5,451C 225.49,447.82 225.157,444.654 224.5,441.5C 223.325,441.719 222.325,441.386 221.5,440.5C 224.315,438.023 226.315,435.023 227.5,431.5C 227.167,431.167 226.833,430.833 226.5,430.5C 222.414,434.418 221.747,433.752 224.5,428.5C 222.829,426.49 222.162,424.157 222.5,421.5C 224.481,422.348 226.481,422.848 228.5,423C 227.353,420.915 228.02,419.415 230.5,418.5C 228.438,416.908 228.105,415.075 229.5,413C 228.833,412.333 228.167,411.667 227.5,411C 227.811,408.134 227.811,404.967 227.5,401.5C 228.139,398.525 228.639,395.525 229,392.5C 230.997,389.325 232.497,385.991 233.5,382.5C 234.167,382.5 234.5,382.167 234.5,381.5 Z"/></g>
<g><path style="opacity:0.998" fill="#007c0c" d="M 308.5,383.5 C 304.162,390.016 299.995,396.683 296,403.5C 295.314,409.304 295.814,414.971 297.5,420.5C 294.94,424.57 291.773,428.236 288,431.5C 287.072,436.201 286.072,440.868 285,445.5C 281.393,449.197 277.893,453.031 274.5,457C 273.473,457.513 272.473,458.013 271.5,458.5C 271.204,453.26 270.204,447.926 268.5,442.5C 272.512,437.988 276.679,433.655 281,429.5C 282.202,427.323 282.702,424.989 282.5,422.5C 278.689,423.468 275.189,425.135 272,427.5C 271.5,427.333 271,427.167 270.5,427C 271.582,425.67 272.249,424.17 272.5,422.5C 272.238,421.022 272.571,419.689 273.5,418.5C 277.621,411.351 281.788,404.684 286,398.5C 287.237,394.94 287.737,391.273 287.5,387.5C 288.141,389.042 289.141,390.376 290.5,391.5C 295.686,389.076 300.353,385.909 304.5,382C 306.193,381.516 307.527,382.016 308.5,383.5 Z"/></g>
<g><path style="opacity:1" fill="#008e07" d="M 280.5,363.5 C 282.581,371.573 284.915,379.573 287.5,387.5C 287.737,391.273 287.237,394.94 286,398.5C 281.788,404.684 277.621,411.351 273.5,418.5C 272.571,419.689 272.238,421.022 272.5,422.5C 266.452,427.881 260.785,433.548 255.5,439.5C 251.535,435.985 249.369,431.651 249,426.5C 252.326,428.493 254.993,431.16 257,434.5C 258.269,433.095 258.769,431.429 258.5,429.5C 258.557,428.391 258.89,427.391 259.5,426.5C 262.779,423.731 266.445,421.564 270.5,420C 275.128,415.039 277.961,409.205 279,402.5C 282.288,399.385 283.454,395.718 282.5,391.5C 285.076,390.117 284.742,389.283 281.5,389C 281.833,388.667 282.167,388.333 282.5,388C 279.902,385.299 277.569,382.466 275.5,379.5C 274.833,379.833 274.167,380.167 273.5,380.5C 272.851,382.624 272.017,384.624 271,386.5C 264.812,382.324 257.979,380.324 250.5,380.5C 251.458,379.038 252.624,377.705 254,376.5C 257.942,378.462 262.108,379.296 266.5,379C 264.594,377.144 263.76,374.977 264,372.5C 265.755,375.044 267.755,377.377 270,379.5C 270.667,378.167 271.333,378.167 272,379.5C 274.17,373.828 276.336,368.162 278.5,362.5C 279.183,362.863 279.85,363.196 280.5,363.5 Z"/></g>
<g><path style="opacity:0.996" fill="#08e901" d="M 258.5,391.5 C 256.873,393.63 255.04,395.63 253,397.5C 250.628,395.297 248.461,392.963 246.5,390.5C 246.702,389.636 247.036,388.636 247.5,387.5C 250.109,388.23 252.776,388.73 255.5,389C 256.691,389.698 257.691,390.531 258.5,391.5 Z"/></g>
<g><path style="opacity:0.999" fill="#00a101" d="M 245.5,378.5 C 246.552,380.256 248.219,380.923 250.5,380.5C 257.979,380.324 264.812,382.324 271,386.5C 272.017,384.624 272.851,382.624 273.5,380.5C 274.167,380.167 274.833,379.833 275.5,379.5C 277.569,382.466 279.902,385.299 282.5,388C 282.167,388.333 281.833,388.667 281.5,389C 284.742,389.283 285.076,390.117 282.5,391.5C 283.454,395.718 282.288,399.385 279,402.5C 277.961,409.205 275.128,415.039 270.5,420C 266.445,421.564 262.779,423.731 259.5,426.5C 258.34,424.797 259.007,424.131 261.5,424.5C 261.318,422.409 261.652,420.409 262.5,418.5C 266.259,415.571 269.092,411.905 271,407.5C 271.499,403.179 271.666,398.846 271.5,394.5C 270.127,394.657 268.793,394.49 267.5,394C 266.298,391.308 264.464,390.474 262,391.5C 261.383,390.551 261.549,389.718 262.5,389C 261.551,388.383 260.718,388.549 260,389.5C 260.148,388.175 259.982,387.008 259.5,386C 254.854,384.389 250.187,384.222 245.5,385.5C 244.203,383.027 244.203,380.693 245.5,378.5 Z"/></g>
<g><path style="opacity:1" fill="#05d202" d="M 252.5,333.5 C 250.361,341.303 249.694,349.303 250.5,357.5C 247.271,364.072 245.604,371.072 245.5,378.5C 244.203,380.693 244.203,383.027 245.5,385.5C 250.187,384.222 254.854,384.389 259.5,386C 259.982,387.008 260.148,388.175 260,389.5C 260.718,388.549 261.551,388.383 262.5,389C 261.549,389.718 261.383,390.551 262,391.5C 264.464,390.474 266.298,391.308 267.5,394C 268.793,394.49 270.127,394.657 271.5,394.5C 271.666,398.846 271.499,403.179 271,407.5C 269.092,411.905 266.259,415.571 262.5,418.5C 261.652,420.409 261.318,422.409 261.5,424.5C 259.007,424.131 258.34,424.797 259.5,426.5C 258.89,427.391 258.557,428.391 258.5,429.5C 257.307,429.03 256.64,428.03 256.5,426.5C 257.172,424.168 257.339,421.834 257,419.5C 256.107,420.081 255.107,420.415 254,420.5C 251.587,419.415 249.087,418.415 246.5,417.5C 245.719,418.729 245.219,420.062 245,421.5C 244.289,417.752 242.289,416.085 239,416.5C 238.154,408.838 237.82,401.171 238,393.5C 238.671,392.748 239.504,392.414 240.5,392.5C 239.642,398.816 239.476,405.15 240,411.5C 242.9,410.263 245.4,408.596 247.5,406.5C 246.2,407.601 245.7,408.934 246,410.5C 248.141,407.509 250.975,406.342 254.5,407C 256.628,410.13 259.128,412.963 262,415.5C 262.407,412.046 261.573,408.879 259.5,406C 261.5,404 263.5,402 265.5,400C 263.19,399.503 260.857,399.337 258.5,399.5C 258.548,396.687 259.215,394.021 260.5,391.5C 260.03,390.537 259.363,390.537 258.5,391.5C 257.691,390.531 256.691,389.698 255.5,389C 252.776,388.73 250.109,388.23 247.5,387.5C 247.036,388.636 246.702,389.636 246.5,390.5C 244.413,389.415 243.08,387.749 242.5,385.5C 244.895,370.687 247.229,355.854 249.5,341C 249.397,339.439 249.063,337.939 248.5,336.5C 249.55,329.053 251.217,321.719 253.5,314.5C 254.335,311.958 255.001,312.125 255.5,315C 254.255,321.142 253.255,327.309 252.5,333.5 Z"/></g>
<g><path style="opacity:0.997" fill="#98fe88" d="M 242.5,385.5 C 243.08,387.749 244.413,389.415 246.5,390.5C 248.461,392.963 250.628,395.297 253,397.5C 255.04,395.63 256.873,393.63 258.5,391.5C 259.363,390.537 260.03,390.537 260.5,391.5C 259.215,394.021 258.548,396.687 258.5,399.5C 260.857,399.337 263.19,399.503 265.5,400C 263.5,402 261.5,404 259.5,406C 261.573,408.879 262.407,412.046 262,415.5C 259.128,412.963 256.628,410.13 254.5,407C 250.975,406.342 248.141,407.509 246,410.5C 245.7,408.934 246.2,407.601 247.5,406.5C 248.635,404.255 249.135,401.922 249,399.5C 246.636,396.31 244.136,393.31 241.5,390.5C 239.518,387.19 237.185,384.19 234.5,381.5C 234.167,380.833 233.833,380.167 233.5,379.5C 233.435,379.062 233.601,378.728 234,378.5C 236.416,381.423 239.25,383.757 242.5,385.5 Z"/></g>
<g><path style="opacity:0.999" fill="#10f505" d="M 241.5,390.5 C 244.136,393.31 246.636,396.31 249,399.5C 249.135,401.922 248.635,404.255 247.5,406.5C 245.4,408.596 242.9,410.263 240,411.5C 239.476,405.15 239.642,398.816 240.5,392.5C 240.833,391.833 241.167,391.167 241.5,390.5 Z"/></g>
<g><path style="opacity:0.998" fill="#00a401" d="M 326.5,341.5 C 330.07,347.233 330.403,353.4 327.5,360C 327.946,361.726 328.779,363.226 330,364.5C 330.333,363.833 330.667,363.167 331,362.5C 331.49,363.793 331.657,365.127 331.5,366.5C 330.286,369.93 328.786,373.264 327,376.5C 320.808,385.556 315.142,394.89 310,404.5C 306.309,410.34 302.142,415.673 297.5,420.5C 295.814,414.971 295.314,409.304 296,403.5C 299.995,396.683 304.162,390.016 308.5,383.5C 311.165,380.665 313.665,377.665 316,374.5C 315.781,369.515 315.781,364.515 316,359.5C 319.274,353.273 322.774,347.273 326.5,341.5 Z"/></g>
<g><path style="opacity:0.999" fill="#009903" d="M 233.5,382.5 C 232.497,385.991 230.997,389.325 229,392.5C 228.639,395.525 228.139,398.525 227.5,401.5C 227.811,404.967 227.811,408.134 227.5,411C 228.167,411.667 228.833,412.333 229.5,413C 228.105,415.075 228.438,416.908 230.5,418.5C 228.02,419.415 227.353,420.915 228.5,423C 226.481,422.848 224.481,422.348 222.5,421.5C 222.162,424.157 222.829,426.49 224.5,428.5C 221.747,433.752 222.414,434.418 226.5,430.5C 226.833,430.833 227.167,431.167 227.5,431.5C 226.315,435.023 224.315,438.023 221.5,440.5C 222.325,441.386 223.325,441.719 224.5,441.5C 225.157,444.654 225.49,447.82 225.5,451C 225.475,452.876 224.809,454.376 223.5,455.5C 223.565,455.062 223.399,454.728 223,454.5C 220.75,455.708 218.583,457.041 216.5,458.5C 211.945,457.359 210.945,455.026 213.5,451.5C 212.437,449.634 213.104,449.134 215.5,450C 214.346,450.914 214.513,451.747 216,452.5C 216.44,450.536 217.274,448.37 218.5,446C 217.167,445.333 217.167,444.667 218.5,444C 216.866,443.506 215.199,443.34 213.5,443.5C 213.185,438.552 211.851,433.886 209.5,429.5C 209.667,428.833 209.833,428.167 210,427.5C 211.11,429.037 212.61,429.703 214.5,429.5C 214.792,425.298 213.292,421.964 210,419.5C 209.667,421.833 209.333,424.167 209,426.5C 208.464,424.131 207.297,422.131 205.5,420.5C 204.692,420.808 204.025,421.308 203.5,422C 206.707,423.135 208.041,425.135 207.5,428C 206.5,428.667 205.5,428.667 204.5,428C 202.81,426.01 201.477,423.843 200.5,421.5C 200.783,418.258 201.617,417.924 203,420.5C 205.097,419.009 207.43,418.009 210,417.5C 211.25,418.573 212.584,418.573 214,417.5C 215.787,419.406 217.787,419.739 220,418.5C 224.071,421.474 226.238,420.308 226.5,415C 224.699,414.683 224.366,414.016 225.5,413C 224.439,411.151 223.773,409.151 223.5,407C 224.677,404.312 224.677,401.646 223.5,399C 226.128,392.122 228.628,385.622 231,379.5C 232.045,380.373 232.878,381.373 233.5,382.5 Z"/></g>
<g><path style="opacity:0.996" fill="#09eb00" d="M 235.5,440.5 C 235.577,444.532 234.577,448.199 232.5,451.5C 230.833,452.5 229.5,453.833 228.5,455.5C 227.475,455.103 227.308,454.437 228,453.5C 229.167,452.333 230.333,451.167 231.5,450C 231.043,449.586 230.709,449.086 230.5,448.5C 233.413,442.513 234.913,436.18 235,429.5C 235.499,433.152 235.665,436.818 235.5,440.5 Z"/></g>
<g><path style="opacity:0.998" fill="#00660e" d="M 231.5,495.5 C 229.641,494.406 227.641,493.573 225.5,493C 224.748,492.329 224.414,491.496 224.5,490.5C 225.525,490.103 225.692,489.437 225,488.5C 222.417,485.003 220.084,481.336 218,477.5C 217.077,473.21 216.577,468.877 216.5,464.5C 220.26,465.226 222.927,463.893 224.5,460.5C 225.833,458.833 227.167,457.167 228.5,455.5C 229.5,453.833 230.833,452.5 232.5,451.5C 236.815,450.625 240.815,451.625 244.5,454.5C 245.99,452.874 247.49,451.208 249,449.5C 249.617,450.449 249.451,451.282 248.5,452C 249.842,454.015 250.342,456.182 250,458.5C 245.267,465.154 241.601,472.154 239,479.5C 240.11,477.963 241.61,477.297 243.5,477.5C 243.824,480.694 242.658,481.694 240,480.5C 239.654,482.218 239.154,483.885 238.5,485.5C 238.709,486.086 239.043,486.586 239.5,487C 238.175,486.852 237.008,487.018 236,487.5C 235.64,489.608 234.973,491.608 234,493.5C 232.375,492.588 231.541,493.255 231.5,495.5 Z"/></g>
<g><path style="opacity:0.949" fill="#01cc00" d="M 158.5,382.5 C 161.292,387.405 164.125,392.405 167,397.5C 168.393,400.125 169.559,400.125 170.5,397.5C 175.958,409.85 181.625,422.184 187.5,434.5C 189.243,436.038 191.243,437.038 193.5,437.5C 195.151,438.97 196.985,440.303 199,441.5C 202.713,448.631 206.047,455.964 209,463.5C 209.186,461.1 209.686,458.766 210.5,456.5C 214.052,459.273 215.719,462.94 215.5,467.5C 213.533,467.739 211.699,467.406 210,466.5C 209.493,467.996 209.993,469.163 211.5,470C 211.272,470.399 210.938,470.565 210.5,470.5C 205.607,464.402 201.441,457.736 198,450.5C 193.667,445.5 189.333,440.5 185,435.5C 176.587,418.346 167.753,401.013 158.5,383.5C 158.5,383.167 158.5,382.833 158.5,382.5 Z"/></g>
<g><path style="opacity:0.999" fill="#01750d" d="M 272.5,422.5 C 272.249,424.17 271.582,425.67 270.5,427C 271,427.167 271.5,427.333 272,427.5C 275.189,425.135 278.689,423.468 282.5,422.5C 282.702,424.989 282.202,427.323 281,429.5C 276.679,433.655 272.512,437.988 268.5,442.5C 270.204,447.926 271.204,453.26 271.5,458.5C 268.594,463.578 265.094,468.244 261,472.5C 253.527,479.973 246.027,487.473 238.5,495C 236.214,496.664 233.881,496.83 231.5,495.5C 231.541,493.255 232.375,492.588 234,493.5C 234.973,491.608 235.64,489.608 236,487.5C 237.008,487.018 238.175,486.852 239.5,487C 239.043,486.586 238.709,486.086 238.5,485.5C 239.154,483.885 239.654,482.218 240,480.5C 242.658,481.694 243.824,480.694 243.5,477.5C 241.61,477.297 240.11,477.963 239,479.5C 241.601,472.154 245.267,465.154 250,458.5C 250.342,456.182 249.842,454.015 248.5,452C 249.451,451.282 249.617,450.449 249,449.5C 247.49,451.208 245.99,452.874 244.5,454.5C 240.815,451.625 236.815,450.625 232.5,451.5C 234.577,448.199 235.577,444.532 235.5,440.5C 236.323,437.023 236.823,433.356 237,429.5C 237.388,430.428 238.055,431.095 239,431.5C 241.383,430.248 243.383,428.582 245,426.5C 246.299,427.09 247.132,428.09 247.5,429.5C 249.114,433.935 250.447,438.435 251.5,443C 249.496,444.36 248.663,446.193 249,448.5C 251.385,445.621 253.552,442.621 255.5,439.5C 260.785,433.548 266.452,427.881 272.5,422.5 Z"/></g>
</svg>
