<svg width="18" height="18" viewBox="0 0 18 18" fill="none" xmlns="http://www.w3.org/2000/svg">
<path d="M9 17.5C13.6944 17.5 17.5 13.6944 17.5 9C17.5 4.30558 13.6944 0.5 9 0.5C4.30558 0.5 0.5 4.30558 0.5 9C0.5 13.6944 4.30558 17.5 9 17.5Z" fill="#EBC8FF"/>
<path d="M12 12.75C11.9015 12.7501 11.8039 12.7308 11.7129 12.6931C11.6219 12.6553 11.5393 12.6 11.4697 12.5303L8.46973 9.53027C8.3291 9.38963 8.25006 9.19889 8.25 9V4C8.25 3.80109 8.32902 3.61032 8.46967 3.46967C8.61032 3.32902 8.80109 3.25 9 3.25C9.19891 3.25 9.38968 3.32902 9.53033 3.46967C9.67098 3.61032 9.75 3.80109 9.75 4V8.68945L12.5303 11.4697C12.6351 11.5746 12.7065 11.7082 12.7355 11.8537C12.7644 11.9992 12.7496 12.15 12.6928 12.287C12.636 12.424 12.5399 12.5412 12.4166 12.6236C12.2933 12.706 12.1483 12.75 12 12.75Z" fill="#A752D8"/>
</svg>
